<svg id="Capa_1" data-name="Capa 1" xmlns="http://www.w3.org/2000/svg" xmlns:xlink="http://www.w3.org/1999/xlink" width="170.1mm" height="220.13mm" viewBox="0 0 482.18 623.99">
  <defs>
    <style>
      .cls-1 {
        fill: #fff;
      }

      .cls-2 {
        fill: url(#linear-gradient);
      }

      .cls-3, .cls-9 {
        fill: #231f20;
      }

      .cls-4 {
        fill: #fcf6be;
        stroke-linejoin: bevel;
      }

      .cls-10, .cls-11, .cls-4, .cls-5, .cls-6, .cls-7, .cls-8, .cls-9 {
        stroke: #231f20;
      }

      .cls-10, .cls-11, .cls-5, .cls-6, .cls-7, .cls-8, .cls-9 {
        stroke-miterlimit: 10;
      }

      .cls-5 {
        fill: url(#linear-gradient-2);
      }

      .cls-6 {
        fill: url(#linear-gradient-3);
      }

      .cls-7 {
        fill: none;
      }

      .cls-8 {
        fill: url(#linear-gradient-4);
      }

      .cls-10 {
        fill: url(#linear-gradient-5);
      }

      .cls-11 {
        fill: url(#linear-gradient-6);
      }
    </style>
    <linearGradient id="linear-gradient" x1="-1115.22" y1="6044.78" x2="-1115.22" y2="5446" gradientTransform="translate(-874.13 6057.38) rotate(180)" gradientUnits="userSpaceOnUse">
      <stop offset="0.11" stop-color="#326298"/>
      <stop offset="0.22" stop-color="#428aa8"/>
      <stop offset="0.32" stop-color="#4da9b4"/>
      <stop offset="0.4" stop-color="#54bbbb"/>
      <stop offset="0.46" stop-color="#57c2be"/>
    </linearGradient>
    <linearGradient id="linear-gradient-2" x1="158.94" y1="107.24" x2="158.94" y2="180.85" gradientUnits="userSpaceOnUse">
      <stop offset="0.11" stop-color="#326298"/>
      <stop offset="0.22" stop-color="#428aa8"/>
      <stop offset="0.32" stop-color="#4da9b4"/>
      <stop offset="0.4" stop-color="#54bbbb"/>
      <stop offset="0.46" stop-color="#57c2be"/>
      <stop offset="0.47" stop-color="#5ac3be"/>
      <stop offset="0.57" stop-color="#81cebf"/>
      <stop offset="0.68" stop-color="#9fd7c0"/>
      <stop offset="0.78" stop-color="#b5dec1"/>
      <stop offset="0.88" stop-color="#c2e2c1"/>
      <stop offset="0.97" stop-color="#c6e3c1"/>
    </linearGradient>
    <linearGradient id="linear-gradient-3" x1="331.12" y1="79.14" x2="331.12" y2="120.48" xlink:href="#linear-gradient-2"/>
    <linearGradient id="linear-gradient-4" x1="338.35" y1="222.28" x2="337.06" y2="259" xlink:href="#linear-gradient-2"/>
    <linearGradient id="linear-gradient-5" x1="-3613.34" y1="6117.65" x2="-3613.34" y2="6065.73" gradientTransform="translate(-3476.12 6544.91) rotate(180)" xlink:href="#linear-gradient-2"/>
    <linearGradient id="linear-gradient-6" x1="-3811.66" y1="6054.4" x2="-3811.66" y2="6002.48" gradientTransform="translate(-3476.12 6544.91) rotate(180)" xlink:href="#linear-gradient-2"/>
  </defs>
  <rect class="cls-1" width="482.18" height="623.99"/>
  <g>
    <rect class="cls-2" x="12.29" y="12.61" width="457.61" height="598.78"/>
    <g>
      <rect class="cls-3" x="110.68" y="74.53" width="267.3" height="130.83"/>
      <rect class="cls-3" x="110.68" y="249.61" width="267.3" height="130.83"/>
      <rect class="cls-3" x="110.68" y="427.26" width="267.3" height="130.83"/>
      <rect class="cls-4" x="104.19" y="65.9" width="267.3" height="130.83"/>
      <rect class="cls-4" x="104.19" y="240.99" width="267.3" height="130.83"/>
      <rect class="cls-4" x="104.19" y="418.64" width="267.3" height="130.83"/>
      <polygon class="cls-5" points="201.44 107.24 158.94 180.85 116.44 107.24 201.44 107.24"/>
      <polygon class="cls-6" points="354.98 79.14 331.12 120.48 307.25 79.14 354.98 79.14"/>
      <polyline class="cls-7" points="180.97 144.25 331.12 144.25 331.12 120.48"/>
      <polyline class="cls-7" points="201.44 107.24 307.25 107.24 307.25 79.14"/>
      <path class="cls-8" d="M356.08,240.64a18.38,18.38,0,1,1-18.38-18.37A18.37,18.37,0,0,1,356.08,240.64Z"/>
      <path class="cls-9" d="M356.08,307.78c0,5.08-8.23,9.19-18.38,9.19s-18.37-4.11-18.37-9.19,8.23-9.18,18.37-9.18S356.08,302.71,356.08,307.78Z"/>
      <rect class="cls-10" x="111.26" y="427.26" width="51.91" height="51.91"/>
      <rect class="cls-11" x="309.58" y="490.51" width="51.91" height="51.91"/>
      <polyline class="cls-7" points="354.98 79.14 354.98 180.85 159.87 180.85"/>
      <line class="cls-7" x1="319.33" y1="307.78" x2="104.19" y2="307.78"/>
      <line class="cls-7" x1="356.08" y1="307.78" x2="371.49" y2="307.78"/>
      <polyline class="cls-7" points="137.22 479.18 137.22 516.47 309.58 516.47"/>
      <polyline class="cls-7" points="163.18 453.22 335.54 453.22 335.54 490.51"/>
    </g>
  </g>
</svg>
