<svg id="Capa_1" data-name="Capa 1" xmlns="http://www.w3.org/2000/svg" width="173.46mm" height="175.89mm" viewBox="0 0 491.7 498.58">
  <defs>
    <style>
      .cls-1 {
        fill: #fff;
      }

      .cls-2 {
        fill: #ea1515;
      }

      .cls-3 {
        fill: none;
        stroke: #000;
        stroke-miterlimit: 10;
      }

      .cls-4 {
        fill: #0b00ff;
      }

      .cls-5 {
        fill: #ff001c;
      }

      .cls-6 {
        fill: #0c63d4;
      }
    </style>
  </defs>
  <g>
    <rect class="cls-1" x="2.02" y="59.62" width="486.08" height="434.24"/>
    <path class="cls-2" d="M382,131.54a21.35,21.35,0,1,1-21.35-21.35A21.35,21.35,0,0,1,382,131.54Z"/>
    <polygon class="cls-1" points="202.57 164.38 246.56 188.36 246.56 134.3 274.16 158.68 240.69 113.64 202.57 164.38"/>
    <g>
      <polygon class="cls-1" points="163.89 390.37 207.23 366.71 274.69 407.35 385.28 347.2 412.84 355.5 437.1 374.73 304.55 447.68 276.21 428.63 228.34 432.29 163.89 390.37"/>
      <path d="M304.51,448.43,276,429.3,228.17,433l-.18-.12-65.36-42.51L207.24,366,274.7,406.6l110.51-60.09,27.94,8.4.1.08,25,19.84ZM276.39,428l28.19,18.95,131.35-72.28-23.39-18.56-27.19-8.18L274.67,408.1l-.32-.2-67.14-40.44-42.06,23,63.36,41.21Z"/>
    </g>
    <rect x="268.56" y="391.1" width="152.73" height="0.65" transform="translate(-143.76 208.73) rotate(-28.12)"/>
    <g>
      <polygon points="275.15 427.95 277.48 427.95 277.48 344.68 275.15 346.56 275.15 427.95"/>
      <g>
        <polyline class="cls-1" points="304.55 447.68 277.48 427.84 277.48 345.07 246.46 363.31 246.46 381.97 229.61 393.6 229.61 343.9 304.74 301.59 304.74 447.68"/>
        <path d="M304.17,448.2,277.1,428.36l-.27-.52V346.2L247.1,363.68V382l-.28.53L230,394.13l-1-.53V343.9l.33-.56L304.42,301l1,.56V447.68h-.84Zm-26-20.68,26,19V302.7l-73.83,41.58v48.09l15.55-10.74V363.31l.32-.56,31-18.24,1,.56Z"/>
      </g>
      <g>
        <polygon class="cls-1" points="245.57 413.22 229.61 424.19 229.61 399.25 245.57 388.28 245.57 413.22"/>
        <path d="M230,424.72l-1-.53V399.25l.28-.53,16-11,1,.53v24.94l-.28.53Zm.28-25.13V423l14.66-10.08V389.51Z"/>
      </g>
      <g>
        <line class="cls-1" x1="304.55" y1="325.3" x2="276.32" y2="428.31"/>
        <rect x="237.03" y="376.57" width="106.81" height="0.49" transform="translate(-149.66 557.52) rotate(-74.7)"/>
      </g>
    </g>
    <g>
      <polygon class="cls-1" points="260.11 225.94 280.58 213.58 280.5 186.88 262.41 196.74 262.41 165.16 273.98 158.97 246.38 134.59 246.11 217.9 260.11 225.94"/>
      <path d="M260.11,226.31l-14.33-8.23.28-84.2L274.54,159l-11.81,6.32V196.2l18.09-9.86.08,27.43Zm-13.68-8.6,13.67,7.85,20.16-12.16-.09-26-18.09,9.86V165l11.34-6.06L246.7,135.31Z"/>
    </g>
    <g>
      <polygon class="cls-1" points="340.59 191.89 377.72 191.89 361.32 207.94 327.24 207.94 340.59 191.89"/>
      <path d="M361.59,208.59H325.86l14.43-17.35h39Zm-33-1.29h32.45l15.08-14.76H340.9Z"/>
    </g>
    <polygon class="cls-1" points="338.26 305.61 241.23 358.31 245.53 328.78 314.28 291.79 338.26 305.61"/>
    <polygon class="cls-1" points="240.88 357.81 123.03 292.68 165.7 285.14 245.19 328.97 240.88 357.81"/>
    <g>
      <polygon class="cls-1" points="245.46 328.38 166.72 285.32 186.15 281.92 247.64 316.32 245.46 328.38"/>
      <path d="M245.69,328.88l-79.94-43.72,20.46-3.58L248,316.15Zm-78-43.4,77.54,42.41,2.06-11.4-61.19-34.23Z"/>
    </g>
    <g>
      <polygon class="cls-1" points="306.77 262.63 248.11 230.6 261.61 225.03 313.24 252.66 306.77 262.63"/>
      <path d="M307,263.48l-60.37-33,15-6.2,52.52,28.1Zm-57.37-32.8,56.94,31.09,5.76-8.87-50.74-27.15Z"/>
    </g>
    <polygon class="cls-1" points="166.72 285.32 255.85 235.82 255.85 242.99 187.84 281.21 166.72 285.32"/>
    <polygon class="cls-1" points="255.85 235.82 323.25 271.3 319.37 277.06 255.92 241.31 255.85 235.82"/>
    <polygon class="cls-1" points="302.44 298.08 245.53 328.78 247.64 316.32 290.78 291.81 302.44 298.08"/>
    <g>
      <polygon class="cls-1" points="253.89 237.01 166.55 285.4 123.81 291.95 193.09 256.19 193.09 234.59 169.56 248.08 169.25 230.32 209.75 207.3 209.79 248.97 248.53 227.69 253.89 237.01"/>
      <path d="M120,293.19l72.44-37.39V235.7l-23.5,13.49-.35-19.25,41.8-23.76.05,41.69,38.33-21.05,6,10.44-88,48.76-.11,0Zm73.73-59.72v23.12l-66.11,34.12,38.72-5.93,86.66-48-4.71-8.2-39.14,21.5-.05-41.65-39.2,22.28.29,16.29Z"/>
    </g>
    <g>
      <polyline class="cls-1" points="297.7 192.09 297.06 234.92 333.96 191.7 297.85 191.7"/>
      <polygon points="296.72 235.81 297.38 192.08 298.02 192.09 297.39 234.03 333.25 192.03 297.85 192.03 297.85 191.38 334.66 191.38 296.72 235.81"/>
    </g>
    <g>
      <polygon class="cls-1" points="317.86 275.7 248.58 316.17 186.15 281.92 257.87 242.34 317.86 275.7"/>
      <path d="M248.58,316.54l-63.1-34.62.51-.29L257.87,242l60.64,33.73Zm-61.76-34.62,61.75,33.88,68.63-40.09-59.34-33Z"/>
    </g>
    <g>
      <polygon class="cls-1" points="140.76 189.46 125.38 180.91 158.22 162.61 173.9 171.68 140.76 189.46"/>
      <path d="M140.76,189.83l-16-8.92,33.51-18.67,16.34,9.45ZM126,180.91l14.72,8.19,32.48-17.43-15-8.69Z"/>
    </g>
    <g>
      <polygon class="cls-1" points="169.56 248.08 141.78 233.03 141.78 179.39 169.56 194.47 169.56 248.08"/>
      <path d="M169.89,248.63l-28.44-15.4V178.85l28.44,15.43ZM142.1,232.84l27.14,14.7V194.66L142.1,179.93Z"/>
    </g>
    <polygon class="cls-1" points="287.45 289.88 325.16 236.12 326.27 313.11 311.06 303.56 311.06 289.88 302.37 284.78 302.48 298.19 287.45 289.88"/>
    <g>
      <polygon points="202.53 200.26 189.54 194.39 189.54 185.89 202.57 178.43 202.53 200.26"/>
      <path d="M202.86,200.76l-13.65-6.16v-8.9l13.69-7.83Zm-13-6.58,12.35,5.58,0-20.77-12.39,7.09Z"/>
    </g>
    <g>
      <polygon points="189.54 193.37 177.97 199.46 177.97 192.01 189.54 185.89 189.54 193.37"/>
      <path d="M177.65,200v-8.18l12.21-6.47v8.21Zm.65-7.8v6.72l10.91-5.75v-6.74Z"/>
    </g>
    <g>
      <polygon points="274.6 209.88 264.08 205.35 264.08 200.57 274.6 194.47 274.6 209.88"/>
      <path d="M274.92,210.37l-11.16-4.8v-5.19l11.16-6.47Zm-10.52-5.23,9.88,4.24V195l-9.88,5.72Z"/>
    </g>
    <polygon points="302.44 298.08 311.06 293.72 311.06 289.88 302.48 285.31 302.44 298.08"/>
    <g>
      <polygon points="235.93 178.11 227.89 173.8 224.85 172.17 235.93 165.88 235.93 178.11"/>
      <path d="M236.25,178.65l-12.07-6.47,12.07-6.85Zm-10.73-6.49,10.08,5.41V166.44Z"/>
    </g>
    <g>
      <polygon points="158.29 238.34 150.25 234.03 147.21 232.4 158.29 226.11 158.29 238.34"/>
      <path d="M158.61,238.88l-12.07-6.48,12.07-6.85Zm-10.73-6.49L158,237.8V226.66Z"/>
    </g>
    <g>
      <polygon class="cls-1" points="209.75 207.3 169.49 230.32 169.49 193.97 209.83 171.95 209.75 207.3"/>
      <path d="M169.16,230.87V193.78l41-22.38-.09,36.08-.16.1Zm.65-36.7v35.59l39.61-22.65.09-34.61Z"/>
    </g>
    <path d="M362.09,340a2.44,2.44,0,1,1,2.43-2.43A2.44,2.44,0,0,1,362.09,340Zm0-4.22a1.79,1.79,0,1,0,1.78,1.79A1.79,1.79,0,0,0,362.09,335.8Z"/>
    <path d="M362.09,321.6a2.44,2.44,0,1,1,2.43-2.44A2.45,2.45,0,0,1,362.09,321.6Zm0-4.22a1.79,1.79,0,1,0,1.78,1.78A1.79,1.79,0,0,0,362.09,317.38Z"/>
    <path d="M339.19,359.67a2.43,2.43,0,1,1,2.44-2.43A2.43,2.43,0,0,1,339.19,359.67Zm0-4.22a1.79,1.79,0,1,0,1.79,1.79A1.79,1.79,0,0,0,339.19,355.45Z"/>
    <path d="M340.12,357.24a.93.93,0,1,1-.93-.93A.92.92,0,0,1,340.12,357.24Z"/>
    <path d="M363,337.59a.94.94,0,1,1-.93-.94A.93.93,0,0,1,363,337.59Z"/>
    <path d="M363,319.16a.94.94,0,1,1-.93-.93A.94.94,0,0,1,363,319.16Z"/>
    <path d="M377.48,296.73a.93.93,0,1,1-.93-.93A.94.94,0,0,1,377.48,296.73Z"/>
    <path d="M379.59,221.77a.94.94,0,1,1-.93-.93A.94.94,0,0,1,379.59,221.77Z"/>
    <rect x="224.14" y="418.71" width="52.63" height="0.65" transform="translate(-168.54 168.52) rotate(-28.26)"/>
    <polygon points="227.03 436 163.24 394.76 163.24 390.27 227.03 431.5 227.03 436"/>
    <polygon points="276.65 432.3 227.03 436.02 227.03 431.5 276.65 427.79 276.65 432.3"/>
    <polygon points="304.74 452.5 276.32 432.3 276.86 427.18 304.74 447.85 304.74 452.5"/>
    <polygon points="437.83 378.94 304.74 452.11 304.74 447.46 437.83 374.29 437.83 378.94"/>
    <polygon points="305.15 391.5 303.94 391.05 314.19 362.88 359.93 338.03 360.54 339.16 315.24 363.78 305.15 391.5"/>
    <polygon points="305.15 373.07 303.94 372.63 314.19 344.46 359.92 319.6 360.54 320.74 315.24 345.36 305.15 373.07"/>
    <path d="M376.55,299.17a2.44,2.44,0,1,1,2.43-2.44A2.44,2.44,0,0,1,376.55,299.17Zm0-4.22a1.79,1.79,0,1,0,1.78,1.78A1.79,1.79,0,0,0,376.55,295Z"/>
    <polygon points="305.15 358.63 303.94 358.19 314.19 330.01 314.4 329.9 374.38 297.17 375 298.31 315.24 330.92 305.15 358.63"/>
    <polygon points="311.82 388.14 310.63 387.63 319.28 367.32 337.03 357.68 337.65 358.81 320.29 368.25 311.82 388.14"/>
    <path d="M240.77,358.57,122.18,293.33a.64.64,0,0,1,0-1.14l70.29-36.28v-20.1l-22.55,12.95a.68.68,0,0,1-.65,0,.65.65,0,0,1-.32-.56V194a.64.64,0,0,1,.34-.56l40.22-22a.66.66,0,0,1,.64,0,.65.65,0,0,1,.32.56v76.53h-1.3V173l-38.93,21.32v52.72l22.55-12.94a.63.63,0,0,1,.65,0,.64.64,0,0,1,.32.56v21.61a.63.63,0,0,1-.35.57l-69.56,35.9,117.53,64.66Z"/>
    <g>
      <polyline class="cls-1" points="210.11 198.82 281.03 236.03 297.43 191.81 334 191.81 297.21 236.03 297.21 260.14 230.94 224.89 230.94 237.7 209.79 248.97 210.11 198.82"/>
      <path d="M297.85,261.22,231.59,226v12.12l-22.45,12,.33-52.29,71.21,37.35L297,191.17h38.39l-37.52,45.09Zm-67.56-37.41,66.27,35.26V235.79l.15-.18,35.91-43.15H297.88l-16.5,44.48-70.63-37.05-.31,48,19.85-10.57Z"/>
    </g>
    <path d="M240.66,358.6l6.83-42.66,43.29-24.5L327.13,312Zm7.42-42.25-6.58,41.06L325.79,312l-35-19.83Z"/>
    <polygon points="365.83 293.61 241.08 361.11 241.08 358 365.83 290.5 365.83 293.61"/>
    <polygon points="122 295.89 241.08 361.11 241.08 358 122 292.79 122 295.89"/>
    <polygon points="256.21 276.66 239.04 286.09 232.1 282.09 256.21 268.88 256.21 276.66"/>
    <polygon points="256.21 276.56 271.47 284.78 278.06 280.8 256.21 268.79 256.21 276.56"/>
    <path d="M178,214.43a.66.66,0,0,1-.33-.09.66.66,0,0,1-.31-.56V192a.64.64,0,0,1,.33-.57l24.6-13.57a.64.64,0,0,1,.64,0,.62.62,0,0,1,.32.55v21.94a.64.64,0,0,1-.34.57l-24.6,13.41A.55.55,0,0,1,178,214.43Zm.65-22V212.7L201.93,200V179.53Z"/>
    <path d="M260.2,225.73l-.65-1.11,20.83-12.23-.08-25.25-17.14,9.34a.64.64,0,0,1-.64,0,.66.66,0,0,1-.31-.56V164.33a.66.66,0,0,1,.36-.58l10.61-5.31-32.49-44.55-37.15,49.45L246.87,187a.66.66,0,0,1,.33.57v30.41h-1.29v-30l-43.65-23.79a.66.66,0,0,1-.32-.44.61.61,0,0,1,.12-.52l38.12-50.74a.62.62,0,0,1,.51-.26h0a.68.68,0,0,1,.52.26l33.46,45.88a.64.64,0,0,1-.23,1l-10.95,5.47v30.09l17.14-9.33a.64.64,0,0,1,.64,0,.65.65,0,0,1,.31.55l.08,26.7a.63.63,0,0,1-.31.56Z"/>
    <path d="M169.3,248.77l-28.12-14.92a.63.63,0,0,1-.35-.57L141,179a.64.64,0,0,1,.34-.56l41-22.39a.67.67,0,0,1,.63,0l27.12,15.29-.64,1.12L182.7,157.4l-40.39,22-.18,53.46,27.78,14.73Z"/>
    <rect x="155.31" y="170.67" width="0.65" height="31.68" transform="translate(-82.21 235.87) rotate(-61.88)"/>
    <path d="M236.25,178.65,224,172.14V154.85l12.28,6.5Zm-11.63-6.89,11,5.82V161.74l-11-5.82Z"/>
    <path d="M158.61,238.85,146.88,233V215.72l11.73,5.84Zm-11.08-6.24L158,237.8V222l-10.43-5.2Z"/>
    <g>
      <polygon class="cls-1" points="140.76 229.48 125.38 220.92 125.38 180.66 141.06 189.73 140.76 229.48"/>
      <path d="M141.08,230l-16-8.92v-41l16.32,9.45Zm-15.38-9.3,14.74,8.2.29-39-15-8.7Z"/>
    </g>
    <path d="M263.2,216.8V200.43l11.72-6.51v16.14Zm.64-16v14.87l10.44-6V195Z"/>
    <g>
      <polygon class="cls-3" points="246.56 199.46 219.19 184.42 219.19 172.49 246.56 187.53 246.56 199.46"/>
      <path class="cls-3" d="M246.88,200l-28-15.4V171.94l28,15.4Zm-27.36-15.78,26.71,14.68V187.72L219.52,173Z"/>
    </g>
    <g>
      <polygon class="cls-1" points="245.84 217.16 227.89 207.7 227.89 189.47 245.84 199.36 245.84 217.16"/>
      <path d="M246.48,218.23l-19.23-10.14V188.37L246.48,199Zm-17.94-10.92,16.65,8.78V199.74l-16.65-9.18Z"/>
    </g>
    <g>
      <polygon class="cls-1" points="258.91 127.72 248.41 123.39 240.69 112.8 259.36 107.87 258.91 127.72"/>
      <path d="M259.22,128.19l-11-4.54-8.06-11,19.55-5.16Zm-10.6-5.07,10,4.12L259,108.3l-17.8,4.7Z"/>
    </g>
    <g>
      <polygon points="202.53 200.26 177.97 213.78 177.97 199.4 189.19 193.97 202.53 200.26"/>
      <path d="M177.65,214.33V199.2l11.54-5.58,14.05,6.62Zm.65-14.73v13.64l23.52-13-12.63-5.95Z"/>
    </g>
    <path d="M247.2,187.53h-1.29V134.3a.66.66,0,0,1,.38-.59.67.67,0,0,1,.7.11l26.52,23.43V122.79l-13.91,5.52a.66.66,0,0,1-.48,0L248.18,124a.64.64,0,0,1-.29-.22l-7.72-10.59a.63.63,0,0,1-.09-.59.64.64,0,0,1,.45-.41l18.67-4.93a.66.66,0,0,1,.56.11.63.63,0,0,1,.25.51v18.89l13.91-5.53a.67.67,0,0,1,.6.07.64.64,0,0,1,.28.54v36.84a.66.66,0,0,1-.38.59.65.65,0,0,1-.69-.11L247.2,135.74Zm1.62-64.68,9.9,3.91V108.71l-17,4.48Z"/>
    <path d="M326.14,313.05l-39-22.61a.63.63,0,0,1-.31-.42.66.66,0,0,1,.1-.51l37.9-54.85a.66.66,0,0,1,.53-.28h0a.64.64,0,0,1,.53.28L331,242h47.92a.65.65,0,0,1,.6.41.67.67,0,0,1-.16.71l-5.32,5a.62.62,0,0,1-.44.18h0l-37.92,0,4,5.23h50.55a.65.65,0,0,1,.46,1.1l-5.82,5.82a.66.66,0,0,1-.46.19h-40l5.42,7.52h35.46l16.57-17.64a.62.62,0,0,1,.62-.18.65.65,0,0,1,.47.44l1,3.37a.65.65,0,0,1-.15.64l-17.45,18.45a.71.71,0,0,1-.47.2h-32.3l12.21,17.19a.64.64,0,0,1,.11.52.66.66,0,0,1-.33.42l-38.4,20.94a.64.64,0,0,1-.63,0l0,0Zm-37.76-23.38,37.81,21.91-1.45-74.53ZM326,237.17l1.43,73.66,36.83-20.08-12.52-17.61a.66.66,0,0,1,0-.68.65.65,0,0,1,.57-.35h33.28l17-18-.59-1.95-16,17a.68.68,0,0,1-.48.21H349.45a.64.64,0,0,1-.52-.27l-6.36-8.81a.65.65,0,0,1-.05-.67.63.63,0,0,1,.57-.35h41l4.53-4.53H339.31a.63.63,0,0,1-.51-.25l-5-6.53a.64.64,0,0,1-.07-.68.64.64,0,0,1,.58-.35h0l39,0,3.94-3.7H330.62a.64.64,0,0,1-.54-.28Z"/>
    <g>
      <polyline class="cls-1" points="325.35 235.03 326.84 311.91 365.25 290.97 352.3 272.76 385.86 272.76 403.31 254.31 402.14 250.49 385.52 268.77 349.45 268.77 343.09 259.96 384.36 259.96 390.18 254.15 339.31 254.15 334.33 247.62 373.56 247.66 378.88 242.68 330.62 242.68 325.35 235.03"/>
      <path d="M326.21,313l-1.55-80.1L331,242h49.55l-6.7,6.28-38.17,0,4,5.23h52.11l-7.11,7.11H344.36l5.42,7.52h35.46l17.19-18.92,1.61,5.27-17.91,18.93H353.56l12.63,17.78ZM326,237.17l1.43,73.66,36.83-20.08-13.25-18.64h34.53l17-18-.72-2.38-16.05,17.66H349.12l-7.29-10.1h42.26l4.53-4.53H339L333,247l40.28.05,3.94-3.7h-47Z"/>
    </g>
    <g>
      <polygon points="280.58 185.72 262.85 181.29 262.85 195.91 280.58 185.72"/>
      <path d="M262.53,196.47v-15.6l18.91,4.73Zm.65-14.77v13.65l16.54-9.51Z"/>
    </g>
    <path d="M141.17,230.61l-16.9-9.11a.65.65,0,0,1-.34-.58l.51-40h1.29l-.5,39.62,16.56,8.93Z"/>
    <path d="M141.48,190.05a.37.37,0,0,1-.15,0l-16.4-8.82a.32.32,0,0,1-.13-.44.32.32,0,0,1,.44-.13l16.39,8.82a.32.32,0,0,1,.13.44A.33.33,0,0,1,141.48,190.05Z"/>
    <path d="M124.89,181.63l-.63-1.13L157.77,162a.7.7,0,0,1,.63,0l6.81,3.77-.62,1.13-6.51-3.59Z"/>
    <g>
      <g>
        <polygon points="122.82 319.56 202.41 363.33 202.15 360.64 122.56 316.87 122.82 319.56"/>
        <g>
          <polygon class="cls-1" points="202.26 360.92 123.15 316.86 134.87 310.91 212.91 354.68 202.26 360.92"/>
          <path d="M202.26,361.3l-.16-.09-79.64-44.36,12.41-6.3.15.08,78.55,44Zm-78.42-44.42,78.41,43.67,10-5.87-77.41-43.4Z"/>
        </g>
      </g>
      <polygon points="213.57 356.66 202.41 363.33 202.22 361.3 213.57 354.63 213.57 356.66"/>
    </g>
    <g>
      <g>
        <polygon points="111.2 336.75 190.46 380.84 190.31 378.43 111.2 334.37 111.2 336.75"/>
        <g>
          <polygon class="cls-1" points="190.31 378.43 111.2 334.37 122.92 328.42 200.97 372.19 190.31 378.43"/>
          <path d="M190.32,378.81l-.17-.09-79.64-44.36,12.42-6.3.15.08,78.54,44Zm-78.43-44.42,78.42,43.67,10-5.87-77.41-43.4Z"/>
        </g>
      </g>
      <polygon points="200.97 374.57 190.46 380.84 190.27 378.4 200.97 372.19 200.97 374.57"/>
    </g>
    <path d="M274.46,137.31l-.61-1.14,28.92-15.59,4.41-7.93-15.63,8.14a.65.65,0,0,1-.95-.57l0-28.6-30.91,16.82-.62-1.14L290.91,90a.66.66,0,0,1,.64,0,.65.65,0,0,1,.32.56l0,28.62,16.6-8.64a.64.64,0,0,1,.76.13.63.63,0,0,1,.1.76l-5.54,10a.65.65,0,0,1-.26.26Z"/>
    <g>
      <polygon class="cls-1" points="259.36 107.87 291.22 90.53 291.25 120.22 308.79 111.09 303.25 121.06 274.16 136.74 274.16 121.83 259.36 127.54 259.36 107.87"/>
      <path d="M274.16,137.39a.56.56,0,0,1-.33-.1.62.62,0,0,1-.32-.55v-14l-13.91,5.36a.64.64,0,0,1-.6-.07.63.63,0,0,1-.28-.53V107.87a.68.68,0,0,1,.33-.57L290.91,90a.66.66,0,0,1,.64,0,.65.65,0,0,1,.32.56l0,28.62,16.6-8.64a.64.64,0,0,1,.76.13.63.63,0,0,1,.1.76l-5.54,10a.65.65,0,0,1-.26.26l-29.09,15.68A.64.64,0,0,1,274.16,137.39Zm0-16.2a.66.66,0,0,1,.36.11.64.64,0,0,1,.28.54v13.82l28-15.08,4.41-7.93-15.63,8.14a.65.65,0,0,1-.95-.57l0-28.6L260,108.26V126.6l13.91-5.37A.67.67,0,0,1,274.16,121.19Z"/>
    </g>
    <rect x="121.52" y="286.88" width="65.38" height="0.65" transform="translate(-46.81 30.57) rotate(-9.84)"/>
    <polygon points="311.7 303.94 310.41 303.94 310.41 290.27 303.13 286.39 303.13 298.19 301.83 298.19 301.83 284.23 311.7 289.49 311.7 303.94"/>
    <rect x="242.22" y="313.25" width="64.08" height="0.65" transform="translate(-115.77 167.22) rotate(-28.26)"/>
    <polygon points="309.53 250.1 308.48 249.35 328.73 221.13 376.55 221.13 376.55 222.42 329.39 222.42 309.53 250.1"/>
    <path d="M378.66,224.21a2.44,2.44,0,1,1,2.43-2.44A2.44,2.44,0,0,1,378.66,224.21Zm0-4.22a1.79,1.79,0,1,0,1.78,1.78A1.79,1.79,0,0,0,378.66,220Z"/>
    <rect x="268.74" y="201.63" width="0.65" height="11.97" transform="translate(-24.83 378.29) rotate(-67.8)"/>
    <rect x="223.75" y="168.89" width="12.63" height="0.65" transform="translate(-52.97 131.04) rotate(-28.65)"/>
    <g>
      <polygon points="178.86 242.96 178.86 249.32 193.13 256.31 193.13 234.7 178.86 242.96"/>
      <path d="M193.45,256.82l-14.91-7.29v-6.76l14.91-8.63Zm-14.27-7.7,13.62,6.67V235.26l-13.62,7.88Z"/>
    </g>
    <rect x="216.66" y="263.48" width="0.65" height="70.68" transform="translate(-149.84 341.41) rotate(-60.64)"/>
    <rect x="205.33" y="261.58" width="0.65" height="90.97" transform="translate(-162.43 340.25) rotate(-61.34)"/>
    <rect x="177.22" y="196.09" width="13.07" height="0.65" transform="translate(-70.36 108.26) rotate(-27.77)"/>
    <rect x="238.35" y="101.02" width="55.22" height="1.29" transform="translate(-18.41 115.91) rotate(-23.79)"/>
    <path d="M202.09,273.42a.31.31,0,0,1-.28-.17.32.32,0,0,1,.12-.44l52.72-29.16a.32.32,0,0,1,.44.12.32.32,0,0,1-.13.44l-52.71,29.16A.33.33,0,0,1,202.09,273.42Z"/>
    <line class="cls-1" x1="165.74" y1="285.25" x2="253.93" y2="237.12"/>
    <polygon class="cls-1" points="271.19 284.55 253.93 294.22 239.35 285.75 256.22 276.5 271.19 284.55"/>
    <path d="M253.6,294.79l-22.4-13,25-13.28,22.52,12.27Zm-21.07-13,21.07,12.23,23.79-13.25L256.2,269.25Z"/>
    <g>
      <polygon class="cls-1" points="169.42 193.97 141.78 179.39 182.82 157.01 209.9 172.19 169.42 193.97"/>
      <path d="M169.42,194.34l-.15-.08L141.09,179.4l41.73-22.76,27.75,15.55Zm-27-15,27,14.22,39.81-21.43-26.41-14.8Z"/>
    </g>
    <g>
      <polygon class="cls-1" points="274.16 158.68 248.41 123.39 258.91 127.72 274.16 121.83 274.16 140.26 274.16 158.68"/>
      <path d="M274.48,159.67l-27-37,11.43,4.72,15.57-6Zm-25.13-35.55,24.48,33.57V122.31l-14.93,5.75Z"/>
    </g>
    <polyline class="cls-1" points="183.31 399.3 176.91 396.27 201.41 383.14 224.51 395.76 216.72 400.04 206.56 394.25 199.69 398.11 192.95 394.59 183.31 399.3"/>
    <g>
      <g>
        <polygon points="75.73 342.64 155.32 386.42 155.06 383.73 75.47 339.96 75.73 342.64"/>
        <g>
          <polygon class="cls-1" points="155.17 384.01 76.06 339.95 87.77 334 165.82 377.76 155.17 384.01"/>
          <path d="M155.17,384.38l-.16-.09L75.37,339.94l12.41-6.3.15.08,78.54,44ZM76.74,340l78.42,43.68,10-5.87-77.4-43.4Z"/>
        </g>
      </g>
      <polygon points="166.47 379.75 155.32 386.42 155.12 384.39 166.47 377.72 166.47 379.75"/>
    </g>
    <rect x="228.43" y="353.03" width="1.59" height="41.05"/>
    <rect x="228.34" y="399.1" width="1.59" height="25.68"/>
    <polygon points="229.93 399.1 228.34 399.1 245.26 387.81 246.25 388.26 229.93 399.1"/>
    <g>
      <polygon points="189.54 195.25 188.85 195.25 188.85 185.89 189.54 185.47 189.54 195.25"/>
      <path d="M189.86,195.57h-1.33v-9.86l1.33-.81Zm-.69-.65h0v-8.87l0,0Z"/>
    </g>
    <path d="M276.65,128.82v-17.3l11.73-6.29v17.3Zm.65-16.92v15.84l10.44-5.6V106.31Z"/>
    <polygon points="276.98 128.28 285.01 123.97 288.06 122.33 276.98 118.76 276.98 128.28"/>
    <g>
      <polygon class="cls-1" points="259.36 107.87 291.22 90.53 240.69 112.8 259.36 107.87"/>
      <path d="M240.86,113.43l-.43-1.22L291,89.94l.57,1.16L259.6,108.48Zm36.43-16.05-28.81,12.7,10.64-2.81Z"/>
    </g>
    <polygon class="cls-1" points="238.41 290.76 235.1 288.95 233.19 290.01 236.5 291.85 238.41 290.76"/>
    <path class="cls-1" d="M252.49,258.08c0,.46-.58.83-1.3.83s-1.31-.37-1.31-.83.59-.84,1.31-.84S252.49,257.62,252.49,258.08Z"/>
    <rect class="cls-4" x="0.17" y="-1.65" width="489.87" height="61.27"/>
    <path class="cls-4" d="M490,495.8H.08V29.65H490ZM2,493.86H488.1V31.59H2Z"/>
    <rect class="cls-1" x="316.17" y="7.96" width="37.69" height="37.69"/>
    <rect class="cls-1" x="377.5" y="7.96" width="37.69" height="37.69"/>
    <rect class="cls-5" x="437.11" y="7.96" width="37.69" height="37.69"/>
    <rect x="319.53" y="38.13" width="19.79" height="4.53"/>
    <path d="M411.92,43.35H381.05V12h30.87ZM383,41.41h27V14H383Z"/>
    <g>
      <rect x="382.02" y="12.98" width="28.93" height="9.13"/>
      <path d="M411.92,23.07H381.05V12h30.87ZM383,21.13h27V14H383Z"/>
    </g>
    <rect class="cls-1" x="442.92" y="24.87" width="26.07" height="3.88" transform="translate(114.54 330.21) rotate(-44.99)"/>
    <rect class="cls-1" x="455.1" y="13.77" width="3.88" height="26.07" transform="translate(114.91 331.03) rotate(-45)"/>
    <g>
      <path class="cls-1" d="M68,35.13h4.67v1.74H68.05v1.51q0,5.92-6.25,8.46l-1.26-1.42q5.68-1.91,5.69-6.89V36.87H61l.08,4H59.35l-.08-4H54.84V35.13h4.43l-.08-4.19h1.66c.53,0,.56.31.08.79l.08,3.4h5.14V30.3h1.74c.53.06.56.32.08.8Z"/>
      <path class="cls-1" d="M75.89,39.88a27.5,27.5,0,0,0,12.58-9.81L90,31.33c.42.32.24.56-.55.72a28.24,28.24,0,0,1-3.88,4V46.84H83.72V37.58a34.39,34.39,0,0,1-6.49,3.88Z"/>
      <path class="cls-1" d="M101.76,35.13c.42.27.37.5-.16.71A26.85,26.85,0,0,1,97,44.94l-1.82-1.18a22.3,22.3,0,0,0,4.67-9.5Zm6-1.82a31.38,31.38,0,0,1,5.62,10.52l-2.14.72a28.52,28.52,0,0,0-5.14-10Zm4.12-.47-1.19.87A17.5,17.5,0,0,0,108.25,31l1.1-.87A31,31,0,0,1,111.89,32.84Zm1.9-1.43-1,.95a28.46,28.46,0,0,0-2.54-2.53l1-.87A35.27,35.27,0,0,1,113.79,31.41Z"/>
      <path class="cls-1" d="M128.5,33l.48-.15.87,1.18c.21.37.1.56-.32.56a43.55,43.55,0,0,1-4.35,3.87v8.31h-1.82v-7a38,38,0,0,1-5.86,3.17l-1.34-1.43a29.09,29.09,0,0,0,10.76-6.72l-8.94.39-.24-1.74,5.62-.16V29.67h1.58q.72.16.24.63v2.85Zm-1.66,6.41L128,37.9a25,25,0,0,1,5,3.4l-1.34,1.59A31.86,31.86,0,0,0,126.84,39.4Z"/>
      <path class="cls-1" d="M144.56,37.74h-7.91V36h16.22v1.74h-6.49v1A10.63,10.63,0,0,1,142.82,47l-1.58-1.19a8.46,8.46,0,0,0,3.32-7Zm-5.06-4.82V31.18H150v1.74Z"/>
      <path class="cls-1" d="M166.32,47.24h-1.58V39.88A32.91,32.91,0,0,1,159.52,43l-1.11-1.34q7.51-3.65,10.29-8l1.34,1c.32.26.21.45-.32.55a25.32,25.32,0,0,1-3.4,3.4Z"/>
      <path class="cls-1" d="M179.06,36.32l1.58-.79a16.56,16.56,0,0,1,2,3.64L181,40A21.2,21.2,0,0,0,179.06,36.32ZM189,43.44a16.11,16.11,0,0,1-6,3.64l-1-1.5a14.25,14.25,0,0,0,5.7-3.25c1.47-1.48,2.32-4,2.53-7.52l1.66.56q.7.24,0,.63Q191.25,41.15,189,43.44Zm-5.77-8.15,1.5-.79a15.78,15.78,0,0,1,2.06,3.56l-1.67.79A24.47,24.47,0,0,0,183.18,35.29Z"/>
      <path class="cls-1" d="M201.45,47.16,200,45.65q7.75-3.15,9.34-10.91H203a22.13,22.13,0,0,1-3.8,4.82l-1.58-1a16.8,16.8,0,0,0,5.3-8.7l1.82.63c.31.16.26.32-.16.48a11.25,11.25,0,0,1-.87,2.05h5.69l.72-.39L211.58,34c.37.37.29.64-.24.79Q209.84,43.45,201.45,47.16Z"/>
      <path class="cls-1" d="M219.18,43.76V45.5h-1.82V43.76Z"/>
      <path class="cls-1" d="M233.74,44.47a3.58,3.58,0,0,1-2.62,1,3.78,3.78,0,0,1-2.77-1,5.89,5.89,0,0,1-1.5-4.35,5.86,5.86,0,0,1,1.35-4.28A3.87,3.87,0,0,1,231,34.66a3.66,3.66,0,0,1,2.46,1c.95.79,1.39,2.29,1.34,4.51h-6.25c0,1.74.32,2.84.95,3.32a2.14,2.14,0,0,0,1.58.55,1.94,1.94,0,0,0,1.43-.55,2.6,2.6,0,0,0,.55-1.66h1.82A4.6,4.6,0,0,1,233.74,44.47ZM233,38.85a2.74,2.74,0,0,0-.71-2.29,1.81,1.81,0,0,0-1.42-.56,2.57,2.57,0,0,0-1.51.79,3.45,3.45,0,0,0-.79,2.06Z"/>
      <path class="cls-1" d="M241.88,40l3.25,5.54h-1.9l-2.3-4.12-2.29,4.12h-1.9L240.06,40,237,34.66h1.9l2.05,4,2.06-4h1.9Z"/>
      <path class="cls-1" d="M254,44.47a3.57,3.57,0,0,1-2.61,1,3.76,3.76,0,0,1-2.77-1,5.89,5.89,0,0,1-1.5-4.35,5.86,5.86,0,0,1,1.34-4.28,3.88,3.88,0,0,1,2.85-1.18,3.64,3.64,0,0,1,2.45,1q1.42,1.19,1.35,4.51h-6.25c0,1.74.31,2.84,1,3.32a2.12,2.12,0,0,0,1.58.55,1.91,1.91,0,0,0,1.42-.55,2.6,2.6,0,0,0,.56-1.66h1.82A4.6,4.6,0,0,1,254,44.47Zm-.71-5.62a2.77,2.77,0,0,0-.71-2.29,1.83,1.83,0,0,0-1.43-.56,2.52,2.52,0,0,0-1.5.79,3.39,3.39,0,0,0-.79,2.06Z"/>
    </g>
    <g>
      <rect class="cls-1" x="11.58" y="17.88" width="31.91" height="28.98"/>
      <rect class="cls-6" x="11.58" y="17.88" width="31.91" height="8.32"/>
    </g>
  </g>
</svg>
