<svg id="Capa_1" data-name="Capa 1" xmlns="http://www.w3.org/2000/svg" xmlns:xlink="http://www.w3.org/1999/xlink" width="208.95mm" height="219.86mm" viewBox="0 0 592.3 623.22">
  <defs>
    <style>
      .cls-1 {
        fill: url(#Degradado_sin_nombre_5);
      }

      .cls-10, .cls-11, .cls-13, .cls-18, .cls-2, .cls-3, .cls-32, .cls-33, .cls-34, .cls-39, .cls-4, .cls-43, .cls-45, .cls-48, .cls-5, .cls-8 {
        fill: #fff;
      }

      .cls-11, .cls-12, .cls-13, .cls-14, .cls-16, .cls-17, .cls-18, .cls-2, .cls-29, .cls-3, .cls-31, .cls-33, .cls-34, .cls-35, .cls-39, .cls-4, .cls-40, .cls-41, .cls-42, .cls-43, .cls-44, .cls-45, .cls-46, .cls-48, .cls-5, .cls-6, .cls-7, .cls-8, .cls-9 {
        stroke: #000;
      }

      .cls-12, .cls-14, .cls-16, .cls-17, .cls-18, .cls-2, .cls-20, .cls-21, .cls-22, .cls-23, .cls-24, .cls-25, .cls-26, .cls-27, .cls-28, .cls-29, .cls-3, .cls-31, .cls-36, .cls-39, .cls-40, .cls-41, .cls-42, .cls-43, .cls-46, .cls-47, .cls-48, .cls-5, .cls-7, .cls-8, .cls-9 {
        stroke-miterlimit: 10;
      }

      .cls-2, .cls-7 {
        stroke-width: 5px;
      }

      .cls-3 {
        stroke-width: 4px;
      }

      .cls-11, .cls-33, .cls-34, .cls-35, .cls-4, .cls-44, .cls-45, .cls-6 {
        stroke-linejoin: bevel;
      }

      .cls-12, .cls-16, .cls-17, .cls-20, .cls-21, .cls-22, .cls-23, .cls-24, .cls-25, .cls-26, .cls-27, .cls-29, .cls-31, .cls-35, .cls-36, .cls-41, .cls-42, .cls-44, .cls-47, .cls-6, .cls-7 {
        fill: none;
      }

      .cls-17, .cls-20, .cls-21, .cls-22, .cls-23, .cls-24, .cls-25, .cls-26, .cls-27, .cls-33, .cls-36, .cls-42, .cls-8 {
        stroke-width: 2px;
      }

      .cls-14, .cls-19, .cls-28, .cls-30, .cls-9 {
        fill: #009a00;
      }

      .cls-31, .cls-39, .cls-45, .cls-9 {
        stroke-width: 3px;
      }

      .cls-11, .cls-28, .cls-41, .cls-44 {
        stroke-width: 0.5px;
      }

      .cls-12, .cls-34, .cls-35, .cls-43 {
        stroke-width: 0.75px;
      }

      .cls-13 {
        stroke-linejoin: round;
      }

      .cls-14, .cls-15, .cls-18, .cls-19, .cls-32, .cls-42 {
        fill-rule: evenodd;
      }

      .cls-20, .cls-21, .cls-22, .cls-23, .cls-24, .cls-25, .cls-26, .cls-27 {
        stroke: #008d02;
      }

      .cls-21 {
        stroke-dasharray: 6.75 6.75;
      }

      .cls-22 {
        stroke-dasharray: 7.38 7.38;
      }

      .cls-23 {
        stroke-dasharray: 6.75 6.75;
      }

      .cls-24 {
        stroke-dasharray: 5.51 5.51;
      }

      .cls-25 {
        stroke-dasharray: 6.12 6.12;
      }

      .cls-26 {
        stroke-dasharray: 5.51 5.51;
      }

      .cls-27 {
        stroke-dasharray: 6.12 6.12;
      }

      .cls-28, .cls-47 {
        stroke: #fff;
      }

      .cls-29 {
        stroke-width: 6px;
      }

      .cls-36 {
        stroke: #231f20;
      }

      .cls-37, .cls-46 {
        fill: #008d02;
      }

      .cls-38 {
        fill: #231f20;
      }

      .cls-45 {
        stroke-linecap: round;
      }

      .cls-48 {
        stroke-width: 0.25px;
      }
    </style>
    <linearGradient id="Degradado_sin_nombre_5" data-name="Degradado sin nombre 5" x1="296.15" y1="623.22" x2="296.15" gradientUnits="userSpaceOnUse">
      <stop offset="0" stop-color="#fffdef"/>
      <stop offset="0.06" stop-color="#e9f4ed"/>
      <stop offset="0.19" stop-color="#c6e4ea"/>
      <stop offset="0.32" stop-color="#a8d7e7"/>
      <stop offset="0.46" stop-color="#91cde5"/>
      <stop offset="0.61" stop-color="#81c6e3"/>
      <stop offset="0.78" stop-color="#77c2e2"/>
      <stop offset="1" stop-color="#74c1e2"/>
    </linearGradient>
  </defs>
  <rect class="cls-1" width="592.3" height="623.22"/>
  <path class="cls-2" d="M239.61,504.57V526s63.95,48.52,177-2.06V505.89S314.07,542.42,239.61,504.57Z"/>
  <path class="cls-2" d="M464.59,317.29V467.42c-55.13,52.81-100.38,58-100.38,58l-.06-36.85c-.62-33.38,26.25-39.5,26.25-39.5v-83l74.19-48.79"/>
  <path class="cls-3" d="M205.17,412.93s-21.14,3.78-20.52,37.16l.06,34.85s6,3.08,20.46-2.26"/>
  <path class="cls-4" d="M429.2,488.87a2.83,2.83,0,0,1-1.11,3.85L402.27,507a2.84,2.84,0,0,1-3.85-1.11l-.2-.37a2.83,2.83,0,0,1,1.11-3.85l25.82-14.26A2.84,2.84,0,0,1,429,488.5Z"/>
  <rect class="cls-5" x="368.33" y="500.88" width="41.67" height="15.67" rx="5.67" transform="translate(-174.27 204.12) rotate(-24.19)"/>
  <path d="M378.46,514.26c1.1,4.21-.24,8.2-3,8.92s-5.87-2.11-7-6.31.24-8.18,3-8.9S377.36,510.07,378.46,514.26Z"/>
  <path class="cls-6" d="M376.43,505.85s9.92-.41,7.69,13.71"/>
  <path class="cls-6" d="M374.5,506.74s9.61-.05,7.38,14.07"/>
  <path class="cls-6" d="M396.21,496.59s9.92-.4,7.7,13.72"/>
  <line class="cls-4" x1="384.37" y1="515.92" x2="409.56" y2="503.68"/>
  <path class="cls-4" d="M382.66,508.64c0,.59-1.27,1.07-2.84,1.07h-.55c-1.57,0-2.84-.48-2.84-1.07V498.26c0-.59,1.27-1.08,2.84-1.08h.55c1.57,0,2.84.49,2.84,1.08Z"/>
  <path class="cls-7" d="M203.35,342.05v45.69l0,93.53s6.21,8.12,24.63,17c0,0,53.07,31.47,109.1,20.69"/>
  <path class="cls-8" d="M391.57,369.49s-129.85,18.25-188.24-29.85"/>
  <path class="cls-8" d="M203.36,339.64v45.69l0,93.53s6.21,8.12,24.63,17c0,0,43.36,35.81,135.19,21.75,0,0-6.09-62.16,26.91-69.27V369.17s-101.75,21.91-186.7-29.53"/>
  <path class="cls-9" d="M424.76,514.74c-119.78,50.59-193.2,4.79-193.2,4.79h0v21.55S305,587,424.76,536.41Z"/>
  <polygon class="cls-10" points="478.23 385.15 448.59 407.17 448.59 336.91 478.48 315.54 478.23 385.15"/>
  <polyline class="cls-11" points="426.12 478.13 436.96 472.24 436.96 426.37 433.18 426.37 421.66 431.73"/>
  <polygon points="426.23 478.58 421.63 478.58 421.57 431.48 426.17 431.48 426.23 478.58"/>
  <polyline class="cls-11" points="408.89 486.31 419.74 480.41 419.74 434.55 414.95 434.55 413.81 435.08 404.55 439.84"/>
  <polygon class="cls-12" points="409.47 487.12 404.87 487.12 404.8 440.02 409.4 440.02 409.47 487.12"/>
  <polygon class="cls-13" points="454.35 465.85 446.26 470.6 446.26 413.6 454.77 407.9 454.35 465.85"/>
  <path class="cls-14" d="M465,315.18c5.27-14.1-58.82-27.22-131.38-27.22s-136,13.86-132.13,28.39c4.07,15.23,60.66,42.08,133.22,42.08S459.52,329.94,465,315.18Z"/>
  <g>
    <path class="cls-15" d="M413.51,255.32a10.21,10.21,0,0,0,4.08-.84,10.41,10.41,0,0,0,5.94-11.89,10.3,10.3,0,0,0-9.16-8,10.05,10.05,0,0,0-5.18.94,10.42,10.42,0,0,0-5.28,13A10.29,10.29,0,0,0,413.51,255.32Zm-9.73-16.86a15.74,15.74,0,0,1,3.32-3.35l-6.29-3Zm19.49,0,3-6.39-6.31,3A15.25,15.25,0,0,1,423.27,238.46Zm-19.49,13-3,6.35,6.29-3A16.42,16.42,0,0,1,403.78,251.46Zm-1.7-4.17a17,17,0,0,1,0-4.72l-6.57,2.36Zm11.46-20.49h0l-2.3,6.55c.77,0,1.54-.13,2.31-.13s1.55.08,2.32.13ZM431.49,245v0L425,242.61c.05.79.13,1.57.13,2.35s-.08,1.56-.13,2.34Zm-15.65,11.59c-.78.05-1.55.13-2.31.13s-1.55-.08-2.32-.13l2.3,6.55h0Zm4.14-1.78,6.3,3c-1-2.14-2-4.24-3-6.36A15.93,15.93,0,0,1,420,254.78Z"/>
    <path class="cls-15" d="M413.51,255.32a10.29,10.29,0,0,1-9.6-6.75,10.42,10.42,0,0,1,5.28-13,10.05,10.05,0,0,1,5.18-.94,10.3,10.3,0,0,1,9.16,8,10.41,10.41,0,0,1-5.94,11.89A10.21,10.21,0,0,1,413.51,255.32Z"/>
    <path class="cls-15" d="M403.78,238.46l-3-6.39,6.29,3A15.74,15.74,0,0,0,403.78,238.46Z"/>
    <path class="cls-15" d="M423.27,238.46a15.25,15.25,0,0,0-3.31-3.35l6.31-3Z"/>
    <path class="cls-15" d="M403.78,251.46a16.42,16.42,0,0,0,3.32,3.34l-6.29,3Z"/>
    <path class="cls-15" d="M402.08,247.29l-6.57-2.36,6.57-2.36A17,17,0,0,0,402.08,247.29Z"/>
    <path class="cls-15" d="M413.54,226.8l2.3,6.55c-.77,0-1.55-.13-2.32-.13s-1.54.08-2.31.13l2.3-6.55Z"/>
    <path class="cls-15" d="M431.49,245,425,247.3c.05-.78.13-1.56.13-2.34s-.08-1.56-.13-2.35l6.49,2.33Z"/>
    <path class="cls-15" d="M415.84,256.56l-2.3,6.56h0l-2.3-6.55c.77.05,1.54.13,2.32.13S415.06,256.61,415.84,256.56Z"/>
    <path class="cls-15" d="M420,254.78a15.93,15.93,0,0,0,3.29-3.32c1,2.12,2,4.22,3,6.36Z"/>
  </g>
  <polyline class="cls-16" points="203.33 330.41 203.33 383.26 189.06 378.26 189.06 325.41 203.27 315.08"/>
  <polyline class="cls-17" points="189.06 372.27 180.3 368.7 180.3 330.86 201.53 315.18"/>
  <path class="cls-18" d="M413.22,315.28c0,11.09-18.92,20.08-42.25,20.08s-42.24-9-42.24-20.08,18.91-20.07,42.24-20.07S413.22,304.2,413.22,315.28Z"/>
  <g>
    <path class="cls-19" d="M389.33,335h-.66a.74.74,0,0,1,0-.21,54.18,54.18,0,0,1,.66-8.05,34.69,34.69,0,0,1,1.19-4.36,1.59,1.59,0,0,1,.07-.2.5.5,0,0,0-.05-.56,1,1,0,0,1-.09-.9c.41-1.19.83-2.37,1.26-3.55a1,1,0,0,1,.82-.66.26.26,0,0,0,.23-.2,1.23,1.23,0,0,1,.12-.26.3.3,0,0,1,.43-.12.31.31,0,0,1,.18.43.59.59,0,0,0,.07.71,1,1,0,0,1,.08.92l-1.23,3.47a1,1,0,0,1-.93.7.21.21,0,0,0-.21.19,28.41,28.41,0,0,0-1.41,5.55c-.15,1.33-.28,2.66-.38,4C389.39,332.94,389.37,334,389.33,335Z"/>
    <path class="cls-19" d="M388.29,335h-.71c0-.2,0-.4,0-.59a43.22,43.22,0,0,0-.72-6.82,25.37,25.37,0,0,0-1.19-4.13.32.32,0,0,0-.22-.17,1.11,1.11,0,0,1-.88-.66c-.49-1-1-2-1.5-3.05a1.19,1.19,0,0,1,.15-1.51l0-.06c-.13-.28-.1-.47.08-.59s.36,0,.54.22a.29.29,0,0,0,.22.15,1,1,0,0,1,.8.58c.54,1.1,1.09,2.2,1.62,3.31a1.08,1.08,0,0,1-.1,1.17.3.3,0,0,0,0,.34,28.36,28.36,0,0,1,1.71,7.62c.11,1.28.18,2.56.26,3.84C388.3,334.77,388.29,334.88,388.29,335Z"/>
    <path class="cls-19" d="M395.18,330.27a5.93,5.93,0,0,0-.53-.47,12.13,12.13,0,0,0-1.27-.84,2.18,2.18,0,0,0-1.77-.07.37.37,0,0,0-.18.22,29.91,29.91,0,0,0-.62,4.33c0,.51-.06,1-.09,1.56H390v-.24a60.18,60.18,0,0,1,.5-6.85.23.23,0,0,1,.2-.23,3.11,3.11,0,0,1,2.9.68,14.82,14.82,0,0,1,1.36,1.48,2.18,2.18,0,0,1,.22.4Z"/>
    <path class="cls-19" d="M391.78,335h-.35a31.53,31.53,0,0,1,.37-4.13,2,2,0,0,1,2.35,1.6c-.27-.16-.54-.35-.82-.5-.76-.4-1-.3-1.21.56-.16.67-.22,1.36-.32,2A2.82,2.82,0,0,0,391.78,335Z"/>
    <path class="cls-19" d="M387,335c-.37.05-.36.05-.42-.28a5,5,0,0,0-.12-.58.58.58,0,0,0-.65-.44,1.4,1.4,0,0,0-1,.51l-.05,0a3.12,3.12,0,0,1,.15-.43,1.13,1.13,0,0,1,.95-.54,6.84,6.84,0,0,1,.91.09.21.21,0,0,1,.13.16C387,334,387,334.47,387,335Z"/>
  </g>
  <g>
    <path class="cls-19" d="M380.44,336.72h-.38s0-.08,0-.12a30.59,30.59,0,0,1,.29-4.59,19.28,19.28,0,0,1,.62-2.49.56.56,0,0,1,0-.12.29.29,0,0,0,0-.32.54.54,0,0,1-.07-.51c.22-.68.45-1.36.68-2a.54.54,0,0,1,.45-.38.14.14,0,0,0,.14-.12.35.35,0,0,1,.06-.14.18.18,0,0,1,.25-.08.17.17,0,0,1,.1.24.35.35,0,0,0,.05.41.56.56,0,0,1,.05.52c-.21.67-.43,1.33-.66,2a.54.54,0,0,1-.52.41.11.11,0,0,0-.11.11,15.7,15.7,0,0,0-.74,3.17c-.07.76-.13,1.52-.17,2.28C380.45,335.54,380.45,336.13,380.44,336.72Z"/>
    <path class="cls-19" d="M379.84,336.73h-.4c0-.11,0-.22,0-.34a25.26,25.26,0,0,0-.48-3.87,15.37,15.37,0,0,0-.73-2.33.19.19,0,0,0-.13-.1.61.61,0,0,1-.5-.36L376.7,328a.68.68,0,0,1,.06-.86.06.06,0,0,1,0,0c-.08-.15-.07-.26,0-.33s.2,0,.3.12a.18.18,0,0,0,.13.08.59.59,0,0,1,.46.32q.49.93,1,1.86a.62.62,0,0,1,0,.67.18.18,0,0,0,0,.2,16.31,16.31,0,0,1,1.07,4.31c.08.73.13,1.46.19,2.19A1.2,1.2,0,0,1,379.84,336.73Z"/>
    <path class="cls-19" d="M383.71,334l-.3-.26a7,7,0,0,0-.74-.46,1.24,1.24,0,0,0-1,0,.2.2,0,0,0-.11.13,15.72,15.72,0,0,0-.3,2.47l0,.89h-.39v-.14a33.85,33.85,0,0,1,.2-3.9.14.14,0,0,1,.11-.14,1.78,1.78,0,0,1,1.66.35,10.33,10.33,0,0,1,.79.83.86.86,0,0,1,.13.23Z"/>
    <path class="cls-19" d="M381.83,336.69h-.2a18.46,18.46,0,0,1,.16-2.36,1.13,1.13,0,0,1,1.36.89c-.16-.1-.31-.2-.47-.28-.44-.22-.58-.16-.68.33a11.74,11.74,0,0,0-.16,1.17A1.85,1.85,0,0,0,381.83,336.69Z"/>
    <path class="cls-19" d="M379.13,336.74c-.2,0-.2,0-.24-.15a1.77,1.77,0,0,0-.08-.33.31.31,0,0,0-.37-.24.75.75,0,0,0-.55.3l0,0a1.69,1.69,0,0,1,.08-.24.63.63,0,0,1,.54-.32,3,3,0,0,1,.52,0,.11.11,0,0,1,.07.08Z"/>
  </g>
  <g>
    <g>
      <polyline class="cls-20" points="121.54 535.34 121.54 538.84 118.24 537.68"/>
      <line class="cls-21" x1="111.87" y1="535.43" x2="89.6" y2="527.58"/>
      <polyline class="cls-20" points="86.42 526.46 83.12 525.29 83.12 521.79"/>
      <line class="cls-22" x1="83.12" y1="514.41" x2="83.12" y2="488.58"/>
      <polyline class="cls-20" points="83.12 484.89 83.12 481.39 86.42 482.55"/>
      <line class="cls-21" x1="92.79" y1="484.8" x2="115.06" y2="492.65"/>
      <polyline class="cls-20" points="118.24 493.77 121.54 494.94 121.54 498.44"/>
      <line class="cls-22" x1="121.54" y1="505.82" x2="121.54" y2="531.65"/>
    </g>
    <g>
      <polyline class="cls-20" points="121.54 535.34 121.54 538.84 124.84 537.68"/>
      <line class="cls-23" x1="131.2" y1="535.43" x2="153.47" y2="527.58"/>
      <polyline class="cls-20" points="156.66 526.46 159.96 525.29 159.96 521.79"/>
      <line class="cls-22" x1="159.96" y1="514.41" x2="159.96" y2="488.58"/>
      <polyline class="cls-20" points="159.96 484.89 159.96 481.39 156.66 482.55"/>
      <line class="cls-23" x1="150.29" y1="484.8" x2="128.02" y2="492.65"/>
      <polyline class="cls-20" points="124.84 493.77 121.54 494.94 121.54 498.44"/>
      <line class="cls-22" x1="121.54" y1="505.82" x2="121.54" y2="531.65"/>
    </g>
    <g>
      <polyline class="cls-20" points="83.12 521.09 83.12 524.59 86.42 523.43"/>
      <line class="cls-21" x1="92.79" y1="521.18" x2="115.06" y2="513.33"/>
      <polyline class="cls-20" points="118.24 512.21 121.54 511.04 121.54 507.54"/>
      <line class="cls-22" x1="121.54" y1="500.16" x2="121.54" y2="474.33"/>
      <polyline class="cls-20" points="121.54 470.64 121.54 467.14 118.24 468.3"/>
      <line class="cls-21" x1="111.87" y1="470.54" x2="89.6" y2="478.4"/>
      <polyline class="cls-20" points="86.42 479.52 83.12 480.69 83.12 484.19"/>
      <line class="cls-22" x1="83.12" y1="491.57" x2="83.12" y2="517.4"/>
    </g>
    <g>
      <polyline class="cls-20" points="159.96 521.09 159.96 524.59 156.66 523.43"/>
      <line class="cls-23" x1="150.29" y1="521.18" x2="128.02" y2="513.33"/>
      <polyline class="cls-20" points="124.84 512.21 121.54 511.04 121.54 507.54"/>
      <line class="cls-22" x1="121.54" y1="500.16" x2="121.54" y2="474.33"/>
      <polyline class="cls-20" points="121.54 470.64 121.54 467.14 124.84 468.3"/>
      <line class="cls-23" x1="131.2" y1="470.54" x2="153.47" y2="478.4"/>
      <polyline class="cls-20" points="156.66 479.52 159.96 480.69 159.96 484.19"/>
      <line class="cls-22" x1="159.96" y1="491.57" x2="159.96" y2="517.4"/>
    </g>
  </g>
  <g>
    <g>
      <polyline class="cls-20" points="121.54 474.15 121.54 477.65 118.24 476.49"/>
      <line class="cls-24" x1="113.05" y1="474.66" x2="105.26" y2="471.91"/>
      <polyline class="cls-20" points="102.66 470.99 99.36 469.83 99.36 466.33"/>
      <line class="cls-25" x1="99.36" y1="460.21" x2="99.36" y2="451.04"/>
      <polyline class="cls-20" points="99.36 447.98 99.36 444.48 102.66 445.65"/>
      <line class="cls-26" x1="107.85" y1="447.48" x2="115.64" y2="450.22"/>
      <polyline class="cls-20" points="118.24 451.14 121.54 452.3 121.54 455.8"/>
      <line class="cls-27" x1="121.54" y1="461.92" x2="121.54" y2="471.09"/>
    </g>
    <g>
      <polyline class="cls-20" points="121.54 474.15 121.54 477.65 124.84 476.49"/>
      <line class="cls-24" x1="130.03" y1="474.66" x2="137.82" y2="471.91"/>
      <polyline class="cls-20" points="140.42 470.99 143.72 469.83 143.72 466.33"/>
      <line class="cls-25" x1="143.72" y1="460.21" x2="143.72" y2="451.04"/>
      <polyline class="cls-20" points="143.72 447.98 143.72 444.48 140.42 445.65"/>
      <line class="cls-26" x1="135.23" y1="447.48" x2="127.44" y2="450.22"/>
      <polyline class="cls-20" points="124.84 451.14 121.54 452.3 121.54 455.8"/>
      <line class="cls-27" x1="121.54" y1="461.92" x2="121.54" y2="471.09"/>
    </g>
    <g>
      <polyline class="cls-20" points="99.36 465.92 99.36 469.42 102.66 468.26"/>
      <line class="cls-26" x1="107.85" y1="466.43" x2="115.64" y2="463.68"/>
      <polyline class="cls-20" points="118.24 462.77 121.54 461.6 121.54 458.1"/>
      <line class="cls-27" x1="121.54" y1="451.99" x2="121.54" y2="442.81"/>
      <polyline class="cls-20" points="121.54 439.75 121.54 436.25 118.24 437.42"/>
      <line class="cls-24" x1="113.05" y1="439.25" x2="105.26" y2="442"/>
      <polyline class="cls-20" points="102.66 442.91 99.36 444.07 99.36 447.57"/>
      <line class="cls-25" x1="99.36" y1="453.69" x2="99.36" y2="462.87"/>
    </g>
    <g>
      <polyline class="cls-20" points="143.72 465.92 143.72 469.42 140.42 468.26"/>
      <line class="cls-26" x1="135.23" y1="466.43" x2="127.44" y2="463.68"/>
      <polyline class="cls-20" points="124.84 462.77 121.54 461.6 121.54 458.1"/>
      <line class="cls-27" x1="121.54" y1="451.99" x2="121.54" y2="442.81"/>
      <polyline class="cls-20" points="121.54 439.75 121.54 436.25 124.84 437.42"/>
      <line class="cls-24" x1="130.03" y1="439.25" x2="137.82" y2="442"/>
      <polyline class="cls-20" points="140.42 442.91 143.72 444.07 143.72 447.57"/>
      <line class="cls-25" x1="143.72" y1="453.69" x2="143.72" y2="462.87"/>
    </g>
  </g>
  <g>
    <polygon class="cls-28" points="104.83 430.26 121.54 424.37 121.54 405.27 104.83 411.16 104.83 430.26"/>
    <polygon class="cls-28" points="138.25 430.26 121.54 424.37 121.54 405.27 138.25 411.16 138.25 430.26"/>
    <polygon class="cls-28" points="121.54 436.46 138.25 430.57 138.25 411.47 121.54 417.36 121.54 436.46"/>
    <polygon class="cls-28" points="121.54 436.46 104.83 430.57 104.83 411.47 121.54 417.36 121.54 436.46"/>
    <polygon class="cls-28" points="121.54 417.51 104.83 411.62 121.54 405.27 138.25 411.16 121.54 417.51"/>
  </g>
  <path class="cls-29" d="M309.9,411.85s25.89,30.51,55.89.51"/>
  <path class="cls-29" d="M215.11,387.78s14.17,34.4,50.49,12.46"/>
  <polygon points="265.6 391.26 212.1 369.18 215.11 362.22 268.61 384.3 265.6 391.26"/>
  <polygon points="302.78 400.53 371.23 391.26 370.12 383.15 301.67 392.41 302.78 400.53"/>
  <path class="cls-30" d="M351.53,463.39a19.88,19.88,0,1,1-19.88-19.87A19.88,19.88,0,0,1,351.53,463.39Z"/>
  <path class="cls-30" d="M248.86,441.12a17.27,17.27,0,1,1-17.27-17.27A17.27,17.27,0,0,1,248.86,441.12Z"/>
  <path class="cls-31" d="M265.61,388.48s15.29,6.37-8.71,67.37l31,7.54s7.38-62.78,15-69.66"/>
  <path class="cls-31" d="M245.56,475.18s35,11,58,12"/>
  <g>
    <path class="cls-15" d="M268.81,217.71a11.24,11.24,0,0,1,3.39-1.15,10.79,10.79,0,1,1,3.48,21.3,12.28,12.28,0,0,1-1.82.13H241.45a5.52,5.52,0,0,1-1.81-10.78.7.7,0,0,0,.48-.42,7.77,7.77,0,0,1,5.73-4.51c.47-.09.59-.28.63-.72a11.37,11.37,0,0,1,4.21-7.87,11.76,11.76,0,0,1,17.91,3.61Zm-2.15,6.83c-.23-1.13-.45-2.17-.66-3.23a8,8,0,0,0-15.71,2.52c.13.85.23,1.71.35,2.61l-2.53-.45a4.15,4.15,0,0,0-4.8,3.22c-.09.4-.19.8-.24,1.2s-.19.41-.51.39-.89,0-1.34,0a1.68,1.68,0,0,0-1.6,1.56,1.72,1.72,0,0,0,1.92,1.86h32.6A7,7,0,1,0,269.29,222C268.42,222.83,267.58,223.66,266.66,224.54Z"/>
    <path class="cls-32" d="M266.66,224.54c.92-.88,1.76-1.71,2.63-2.5a7,7,0,1,1,4.85,12.15h-32.6a1.72,1.72,0,0,1-1.92-1.86,1.68,1.68,0,0,1,1.6-1.56c.45,0,.9,0,1.34,0s.48,0,.51-.39.15-.8.24-1.2a4.15,4.15,0,0,1,4.8-3.22l2.53.45c-.12-.9-.22-1.76-.35-2.61A8,8,0,0,1,266,221.31C266.21,222.37,266.43,223.41,266.66,224.54Z"/>
  </g>
  <g>
    <path class="cls-15" d="M305.21,225.59a14,14,0,0,1,21.33-4.3,13.58,13.58,0,0,1,5,9.38c.05.53.19.75.75.86a9.24,9.24,0,0,1,6.82,5.37.86.86,0,0,0,.58.5,6.58,6.58,0,0,1-2.16,12.84H299a13.25,13.25,0,0,1-2.18-.16,12.85,12.85,0,1,1,4.15-25.37,13.6,13.6,0,0,1,4,1.37Zm-.82,5.65a8.31,8.31,0,1,0-5.78,14.47h38.83a2.06,2.06,0,0,0,2.29-2.23,2,2,0,0,0-1.91-1.85c-.53,0-1.07,0-1.6,0-.37,0-.56-.05-.61-.47a10.32,10.32,0,0,0-.28-1.43,4.93,4.93,0,0,0-5.72-3.83l-3,.53c.14-1.07.27-2.09.42-3.11a9.48,9.48,0,0,0-18.71-3c-.25,1.25-.51,2.5-.78,3.83C306.43,233.17,305.43,232.18,304.39,231.24Z"/>
    <path class="cls-32" d="M307.53,234.21c-1.1-1-2.1-2-3.14-3a8.31,8.31,0,1,0-5.78,14.47h38.83a2.06,2.06,0,0,0,2.29-2.23,2,2,0,0,0-1.91-1.85c-.53,0-1.07,0-1.6,0-.37,0-.56-.05-.61-.47a10.32,10.32,0,0,0-.28-1.43,4.93,4.93,0,0,0-5.72-3.83l-3,.53c.14-1.07.27-2.09.42-3.11a9.48,9.48,0,0,0-18.71-3C308.06,231.63,307.8,232.88,307.53,234.21Z"/>
  </g>
  <g>
    <path class="cls-15" d="M357.83,217.65a9.72,9.72,0,0,1,14.79-3,9.45,9.45,0,0,1,3.47,6.51c0,.36.14.51.52.59a6.39,6.39,0,0,1,4.73,3.72.58.58,0,0,0,.4.35,4.56,4.56,0,0,1-1.49,8.9H353.49a9.59,9.59,0,0,1-1.51-.11A8.91,8.91,0,1,1,354.86,217a9.46,9.46,0,0,1,2.8,1Zm-.57,3.92a5.76,5.76,0,1,0-4,10h26.91a1.42,1.42,0,0,0,1.59-1.54,1.37,1.37,0,0,0-1.32-1.28,10.28,10.28,0,0,0-1.11,0c-.26,0-.39,0-.42-.32s-.13-.66-.2-1a3.42,3.42,0,0,0-4-2.66l-2.09.37c.1-.74.18-1.45.29-2.15A6.57,6.57,0,0,0,360,221c-.17.87-.36,1.73-.55,2.66C358.68,222.91,358,222.22,357.26,221.57Z"/>
    <path class="cls-32" d="M359.43,223.63c-.75-.72-1.45-1.41-2.17-2.06a5.76,5.76,0,1,0-4,10h26.91a1.42,1.42,0,0,0,1.59-1.54,1.37,1.37,0,0,0-1.32-1.28,10.28,10.28,0,0,0-1.11,0c-.26,0-.39,0-.42-.32s-.13-.66-.2-1a3.42,3.42,0,0,0-4-2.66l-2.09.37c.1-.74.18-1.45.29-2.15A6.57,6.57,0,0,0,360,221C359.81,221.84,359.62,222.7,359.43,223.63Z"/>
  </g>
  <g>
    <path class="cls-15" d="M410.76,209.89a8.45,8.45,0,0,1,2.56-.88A8.17,8.17,0,1,1,416,225.13a9.29,9.29,0,0,1-1.39.1q-12.26,0-24.52,0a4.17,4.17,0,0,1-1.37-8.15.56.56,0,0,0,.37-.32,5.89,5.89,0,0,1,4.33-3.42c.36-.07.44-.21.48-.54a8.57,8.57,0,0,1,3.19-6,8.89,8.89,0,0,1,13.54,2.73Zm-1.64,5.16c-.17-.85-.34-1.64-.49-2.44a6,6,0,0,0-11.89,1.91c.1.64.18,1.29.27,2l-1.92-.34a3.14,3.14,0,0,0-3.63,2.44,7,7,0,0,0-.18.91c0,.26-.15.31-.39.29s-.67,0-1,0a1.26,1.26,0,0,0-1.21,1.18,1.3,1.3,0,0,0,1.45,1.41h24.67a5.28,5.28,0,1,0-3.67-9.2C410.46,213.76,409.82,214.39,409.12,215.05Z"/>
    <path class="cls-32" d="M409.12,215.05c.7-.66,1.34-1.29,2-1.89a5.28,5.28,0,1,1,3.67,9.2H390.12a1.3,1.3,0,0,1-1.45-1.41,1.26,1.26,0,0,1,1.21-1.18c.34,0,.68,0,1,0s.36,0,.39-.29a7,7,0,0,1,.18-.91,3.14,3.14,0,0,1,3.63-2.44l1.92.34c-.09-.68-.17-1.33-.27-2a6,6,0,0,1,11.89-1.91C408.78,213.41,409,214.2,409.12,215.05Z"/>
  </g>
  <g>
    <path class="cls-15" d="M360.66,271.37l-.72.52c-.38.28-.63.18-.68-.28-.12-1-.22-2.08-.33-3.13-.07-.61-.14-1.23-.2-1.85,0-.42.18-.57.55-.4l4.61,2c.37.17.4.43.08.68l-.78.57c.06.08.1.16.16.23.63.85,1.26,1.7,1.88,2.56a4.71,4.71,0,0,1,1,2.45,3.73,3.73,0,0,1-1.63,3.41c-.51.38-1,.74-1.53,1.12a1.11,1.11,0,0,0-.27,1.79l1.79,2.43a5.06,5.06,0,0,1,1,2.4A4,4,0,0,1,364,289.7c-.36.29-.74.55-1.1.82a1.12,1.12,0,0,0-.27,1.85l2.83,3.83,1.05,1.43c.22.3.19.49-.11.71l-1.68,1.24c-.32.23-.5.21-.73-.11-1.33-1.79-2.67-3.57-4-5.39a4.16,4.16,0,0,1,.92-6c.37-.28.74-.54,1.1-.82a.94.94,0,0,0,.36-1.2,3.81,3.81,0,0,0-.43-.76c-.58-.81-1.18-1.6-1.77-2.41a4.17,4.17,0,0,1-.09-5.09,6.29,6.29,0,0,1,1-1c.53-.42,1.08-.81,1.63-1.2a.67.67,0,0,0,.28-.92,2.06,2.06,0,0,0-.17-.33Z"/>
    <path class="cls-15" d="M372.24,269.52l2,2.69a5.05,5.05,0,0,1,1,2.07,3.71,3.71,0,0,1-1.55,3.87l-1.53,1.12a1.12,1.12,0,0,0-.27,1.81l1.81,2.46a4.94,4.94,0,0,1,1,2.66,4,4,0,0,1-1.64,3.52c-.36.29-.74.54-1.1.82a1.09,1.09,0,0,0-.27,1.76l2.62,3.56,1.28,1.73c.25.34.22.51-.11.75-.56.42-1.11.83-1.68,1.24-.3.22-.48.2-.71-.11-1.33-1.8-2.68-3.59-4-5.41a4.16,4.16,0,0,1,.9-6l1.1-.82a1,1,0,0,0,.36-1.31,4.81,4.81,0,0,0-.45-.75c-.57-.8-1.17-1.58-1.75-2.38a4.18,4.18,0,0,1-.14-4.94,6.43,6.43,0,0,1,1.07-1.08c.52-.43,1.08-.81,1.63-1.21a.62.62,0,0,0,.26-.86,1.27,1.27,0,0,0-.18-.39l-2.18-3c-.26.19-.51.38-.76.55s-.58.15-.63-.26c-.15-1.27-.28-2.54-.41-3.81-.05-.42-.1-.85-.13-1.27s.2-.51.51-.37l4.7,2.08a.34.34,0,0,1,.07.63C372.8,269.12,372.53,269.31,372.24,269.52Z"/>
    <path class="cls-15" d="M378.82,271.37l-.75.54c-.35.25-.6.15-.64-.27-.19-1.66-.37-3.32-.55-5,0-.44.18-.6.59-.42l4.55,2c.42.18.44.44.08.7l-.76.57,2,2.64a5.27,5.27,0,0,1,1,2,3.68,3.68,0,0,1-1.52,3.94c-.51.39-1,.76-1.55,1.15a1.1,1.1,0,0,0-.28,1.78c.61.83,1.23,1.65,1.83,2.48a4.87,4.87,0,0,1,1,2.88,4,4,0,0,1-1.63,3.28c-.35.29-.73.55-1.1.82a1.12,1.12,0,0,0-.26,1.81l2.9,3.93c.33.46.67.9,1,1.36.22.3.19.48-.11.71l-1.7,1.25c-.3.22-.49.19-.71-.11-1.33-1.8-2.67-3.58-4-5.39a4.18,4.18,0,0,1,.94-6l1.08-.79a1,1,0,0,0,.35-1.24,3.73,3.73,0,0,0-.43-.75c-.58-.8-1.19-1.57-1.75-2.39a4.24,4.24,0,0,1-.52-4.43,4.33,4.33,0,0,1,1.43-1.66l1.58-1.16a.66.66,0,0,0,.28-.92,1.11,1.11,0,0,0-.15-.31C380.3,273.4,379.57,272.4,378.82,271.37Z"/>
  </g>
  <rect class="cls-31" x="437.22" y="338.07" width="10.85" height="68.16"/>
  <polygon class="cls-33" points="437.44 337.06 447.85 337.06 478.48 315.54 468.42 315.54 437.44 337.06"/>
  <line class="cls-8" x1="448.81" y1="406.77" x2="478.6" y2="384.42"/>
  <polygon class="cls-34" points="396.78 353.94 391.3 351.23 427.19 337.33 433.18 340.16 396.78 353.94"/>
  <line class="cls-17" x1="478.06" y1="316.31" x2="478.23" y2="385.15"/>
  <polygon points="396.98 399.37 391.39 397.74 391.39 352.18 396.98 353.84 396.98 399.37"/>
  <polygon points="407.09 435.78 402.24 434.37 402.24 394.14 407.09 394.58 407.09 435.78"/>
  <line class="cls-35" x1="398.17" y1="348.57" x2="403.03" y2="351.5"/>
  <line class="cls-35" x1="421.96" y1="339.48" x2="426.81" y2="342.42"/>
  <g>
    <path class="cls-32" d="M397.23,275.68h-.08a9.43,9.43,0,0,0-4.84-.63,8.32,8.32,0,0,0-4.53,1.86,5.61,5.61,0,0,0-2.15,4.2c0,.35.11.49.44.5,1.37,0,2.74.06,4.11.11a.65.65,0,0,0,.59-.29,4.92,4.92,0,0,1,1.48-1.43,6.14,6.14,0,0,1,.69-.32c-.26.69-.5,1.35-.74,2a.86.86,0,0,1-.1.16,7.41,7.41,0,0,0-1.27,4.92,5.27,5.27,0,0,0,.95,2.48c.21.28.38.29.61.05l2.13-2.09a.56.56,0,0,0,.17-.53,5.15,5.15,0,0,1,0-1,1.29,1.29,0,0,1,.32-.79c.11.48.2,1,.33,1.42s.34.48.7.24l2-1.31a.46.46,0,0,0,.22-.55,3.4,3.4,0,0,1-.07-.34l0-.31c.34.52.71,1,1.06,1.48a.5.5,0,0,1,0,.3c-.25,1.77-.55,3.54-.76,5.31a21,21,0,0,0-.09,5,4.5,4.5,0,0,0,.61,2,1.45,1.45,0,0,0,1.32.72h1.64a1.36,1.36,0,0,0,1.13-.57,3.7,3.7,0,0,0,.62-1.59,18.18,18.18,0,0,0,.09-4.66,66.56,66.56,0,0,0-1-7.17,1.94,1.94,0,0,1,0-.48h.11l.75.52a.45.45,0,0,0,.74-.16,5,5,0,0,0,.25-.52,2,2,0,0,1,0,.6.44.44,0,0,0,.23.54l2.11,1.3a.34.34,0,0,0,.57-.19,7.84,7.84,0,0,0,.18-.81c0-.25.06-.5.1-.75h.06a1.57,1.57,0,0,1,.22.45,5.78,5.78,0,0,1,.11,1.24.8.8,0,0,0,.29.74c.71.6,1.39,1.24,2.09,1.86.31.27.49.25.71-.1a5.24,5.24,0,0,0,.82-2.69,7.45,7.45,0,0,0-1.14-4.08.56.56,0,0,1-.12-.26,5.27,5.27,0,0,0-.67-2.05l-.1-.23.16,0a4,4,0,0,1,2.09,1.73.53.53,0,0,0,.49.26l4.14-.1c.35,0,.48-.14.48-.5a5.36,5.36,0,0,0-2.2-4.37,8.35,8.35,0,0,0-4.54-1.75,9.2,9.2,0,0,0-6.28,1.55l-.19.13c0-.08,0-.13,0-.18a9.84,9.84,0,0,0-.85-3.23,8.9,8.9,0,0,0-4.05-4.4,5.58,5.58,0,0,0-4.8-.33c-.32.13-.38.31-.2.6.72,1.18,1.44,2.35,2.17,3.52a.78.78,0,0,0,.41.3,5.13,5.13,0,0,1,1.81.9l.21.21a.8.8,0,0,1-.22,0c-.45-.06-.9-.15-1.35-.17s-.46.18-.37.51S397.12,275.26,397.23,275.68Z"/>
    <path class="cls-15" d="M397.23,275.68c-.11-.42-.22-.83-.32-1.24s0-.53.37-.51.9.11,1.35.17a.8.8,0,0,0,.22,0l-.21-.21a5.13,5.13,0,0,0-1.81-.9.78.78,0,0,1-.41-.3c-.73-1.17-1.45-2.34-2.17-3.52-.18-.29-.12-.47.2-.6a5.58,5.58,0,0,1,4.8.33,8.9,8.9,0,0,1,4.05,4.4,9.84,9.84,0,0,1,.85,3.23c0,.05,0,.1,0,.18l.19-.13a9.2,9.2,0,0,1,6.28-1.55,8.35,8.35,0,0,1,4.54,1.75,5.36,5.36,0,0,1,2.2,4.37c0,.36-.13.49-.48.5l-4.14.1a.53.53,0,0,1-.49-.26,4,4,0,0,0-2.09-1.73l-.16,0,.1.23a5.27,5.27,0,0,1,.67,2.05.56.56,0,0,0,.12.26,7.45,7.45,0,0,1,1.14,4.08,5.24,5.24,0,0,1-.82,2.69c-.22.35-.4.37-.71.1-.7-.62-1.38-1.26-2.09-1.86a.8.8,0,0,1-.29-.74,5.78,5.78,0,0,0-.11-1.24,1.57,1.57,0,0,0-.22-.45h-.06c0,.25-.06.5-.1.75a7.84,7.84,0,0,1-.18.81.34.34,0,0,1-.57.19l-2.11-1.3a.44.44,0,0,1-.23-.54,2,2,0,0,0,0-.6,5,5,0,0,1-.25.52.45.45,0,0,1-.74.16l-.75-.52h-.11a1.94,1.94,0,0,0,0,.48,66.56,66.56,0,0,1,1,7.17,18.18,18.18,0,0,1-.09,4.66,3.7,3.7,0,0,1-.62,1.59,1.36,1.36,0,0,1-1.13.57h-1.64a1.45,1.45,0,0,1-1.32-.72,4.5,4.5,0,0,1-.61-2,21,21,0,0,1,.09-5c.21-1.77.51-3.54.76-5.31a.5.5,0,0,0,0-.3c-.35-.48-.72-1-1.06-1.48l0,.31a3.4,3.4,0,0,0,.07.34.46.46,0,0,1-.22.55l-2,1.31c-.36.24-.57.18-.7-.24s-.22-.94-.33-1.42a1.29,1.29,0,0,0-.32.79,5.15,5.15,0,0,0,0,1,.56.56,0,0,1-.17.53l-2.13,2.09c-.23.24-.4.23-.61-.05a5.27,5.27,0,0,1-.95-2.48,7.41,7.41,0,0,1,1.27-4.92.86.86,0,0,0,.1-.16c.24-.65.48-1.31.74-2a6.14,6.14,0,0,0-.69.32,4.92,4.92,0,0,0-1.48,1.43.65.65,0,0,1-.59.29c-1.37-.05-2.74-.08-4.11-.11-.33,0-.45-.15-.44-.5a5.61,5.61,0,0,1,2.15-4.2,8.32,8.32,0,0,1,4.53-1.86,9.43,9.43,0,0,1,4.84.63Zm9.69,6.61a3.29,3.29,0,0,0-.88-1.21c-.14-.13-.26-.25-.18-.46s.26-.24.46-.25a2,2,0,0,1,1.24.36c.43.3.82.66,1.22,1,.08,0,.16.15.24.14.39,0,.79-.1,1.2-.16a1.48,1.48,0,0,0-.08-.29c-.3-.62-.59-1.24-.9-1.85-.18-.34-.07-.59.31-.62a3,3,0,0,1,1.72.43,5.86,5.86,0,0,1,1.6,1.46.46.46,0,0,0,.3.15c1.13,0,2.26-.06,3.39-.09l.23,0a1.46,1.46,0,0,0,0-.21c0-.14,0-.28-.07-.42a5.16,5.16,0,0,0-2.44-3.3,8.53,8.53,0,0,0-6.37-1.11,7.12,7.12,0,0,0-4.21,2.34c-.25.29-.46.63-.71,1a2.37,2.37,0,0,1,1.94,1.06,2.41,2.41,0,0,1,.22,2.17ZM393,281.7l1.05.17a.39.39,0,0,0,.37-.14,14.17,14.17,0,0,1,1.28-1,1.77,1.77,0,0,1,1.28-.3c.13,0,.31.12.34.23a.56.56,0,0,1-.11.4c-.13.17-.3.31-.43.48s-.34.48-.54.78l2.47.15a2.35,2.35,0,0,1,.88-4.19,15.3,15.3,0,0,0-1.31-1.1,8.53,8.53,0,0,0-7.85-.91,6.2,6.2,0,0,0-3.51,2.81,4.25,4.25,0,0,0-.56,1.85l.1,0,3.6,0a.4.4,0,0,0,.23-.14c.3-.31.57-.65.9-.93a3.4,3.4,0,0,1,2.35-1c.44,0,.57.27.36.66s-.47.9-.68,1.37A5.09,5.09,0,0,0,393,281.7Zm6.95,4.22a.33.33,0,0,0,0,.1c-.25,1.77-.54,3.54-.74,5.32a18.88,18.88,0,0,0-.06,4.69,7.65,7.65,0,0,0,.42,1.54.81.81,0,0,0,.88.53c.41,0,.83,0,1.24,0,.75,0,1-.15,1.22-.86,0-.11.08-.22.11-.33a12.34,12.34,0,0,0,.23-3.32,50.93,50.93,0,0,0-.63-6c-.1-.71-.23-1.41-.36-2.15A2.47,2.47,0,0,1,400,285.92Zm2.15-6.48a5.83,5.83,0,0,1,1.21-1.9.67.67,0,0,0,.16-.4,9,9,0,0,0-2.91-6.42,6.17,6.17,0,0,0-3.71-1.77,4.21,4.21,0,0,0-1.82.19c.63,1,1.25,2,1.88,3a.66.66,0,0,0,.36.27,5.14,5.14,0,0,1,2.06,1.16,2,2,0,0,1,.58,1.07c.08.44-.15.63-.57.47l-1.15-.37c-.15,0-.3-.05-.48-.08.12.49.2.92.32,1.36a.68.68,0,0,0,.23.32,7,7,0,0,1,1.74,1.47,1.74,1.74,0,0,0,.83.6,3.06,3.06,0,0,1,.85.54A4.55,4.55,0,0,1,402.1,279.44Zm8.77,9.08a3.17,3.17,0,0,0,.18-.38,6,6,0,0,0-.73-5.57.3.3,0,0,0-.23-.08c-.38.05-.76.1-1.14.17a.55.55,0,0,1-.56-.21c-.3-.32-.64-.62-1-.92a.3.3,0,0,0-.11-.06c.11.35.25.71.33,1.07s-.09.44-.38.47l-1,.11-1.08.13a9.18,9.18,0,0,1,.23.9c.05.28,0,.62.09.82s.48.32.73.48l.43.26.44.26c0-.6,0-1.11,0-1.63s.25-.58.63-.38a2.09,2.09,0,0,1,1,1.07,3.63,3.63,0,0,1,.25,1.63.38.38,0,0,0,.06.24C409.64,287.44,410.24,288,410.87,288.52Zm-15.13-7.12a4,4,0,0,0-1.1,1,.51.51,0,0,1-.55.22c-.44-.08-.87-.14-1.3-.2a.27.27,0,0,0-.34.12,6.65,6.65,0,0,0-1,4.19,4.42,4.42,0,0,0,.65,1.85c.52-.52,1-1,1.53-1.5a.58.58,0,0,0,.25-.64,1.75,1.75,0,0,1,0-.56,2.39,2.39,0,0,1,1.2-2.07.37.37,0,0,1,.6.33c0,.17,0,.34,0,.51,0,.37.08.74.13,1.15l1.44-1.06a.18.18,0,0,0,.07-.15,2.84,2.84,0,0,1,.14-1.52l-1.74-.11c-.32,0-.43-.13-.37-.45A11.1,11.1,0,0,1,395.74,281.4Zm4.91,3.93a1.61,1.61,0,1,0-1.61-1.6A1.61,1.61,0,0,0,400.65,285.33Zm2.23-2.24a1.57,1.57,0,0,0,1.67-1.41,1.61,1.61,0,0,0-3.21-.29.23.23,0,0,0,.11.17A2.37,2.37,0,0,1,402.88,283.09Zm-1.41-3.34a1.55,1.55,0,0,0-1.6-.85,1.61,1.61,0,0,0-.68,2.94l1.47-.53A2.37,2.37,0,0,1,401.47,279.75Zm2.62,3.79-.68.28.56.37C404,284,404.05,283.77,404.09,283.54Z"/>
    <path class="cls-19" d="M406.92,282.29l-1.77.1a2.41,2.41,0,0,0-.22-2.17,2.37,2.37,0,0,0-1.94-1.06c.25-.35.46-.69.71-1a7.12,7.12,0,0,1,4.21-2.34,8.53,8.53,0,0,1,6.37,1.11,5.16,5.16,0,0,1,2.44,3.3c0,.14,0,.28.07.42a1.46,1.46,0,0,1,0,.21l-.23,0c-1.13,0-2.26.07-3.39.09a.46.46,0,0,1-.3-.15,5.86,5.86,0,0,0-1.6-1.46,3,3,0,0,0-1.72-.43c-.38,0-.49.28-.31.62.31.61.6,1.23.9,1.85a1.48,1.48,0,0,1,.08.29c-.41.06-.81.12-1.2.16-.08,0-.16-.09-.24-.14-.4-.34-.79-.7-1.22-1a2,2,0,0,0-1.24-.36c-.2,0-.38,0-.46.25s0,.33.18.46A3.29,3.29,0,0,1,406.92,282.29Z"/>
    <path class="cls-19" d="M393,281.7a5.09,5.09,0,0,1,.22-.75c.21-.47.44-.92.68-1.37s.08-.66-.36-.66a3.4,3.4,0,0,0-2.35,1c-.33.28-.6.62-.9.93a.4.4,0,0,1-.23.14l-3.6,0-.1,0a4.25,4.25,0,0,1,.56-1.85,6.2,6.2,0,0,1,3.51-2.81,8.53,8.53,0,0,1,7.85.91,15.3,15.3,0,0,1,1.31,1.1,2.35,2.35,0,0,0-.88,4.19l-2.47-.15c.2-.3.36-.55.54-.78s.3-.31.43-.48a.56.56,0,0,0,.11-.4c0-.11-.21-.21-.34-.23a1.77,1.77,0,0,0-1.28.3,14.17,14.17,0,0,0-1.28,1,.39.39,0,0,1-.37.14Z"/>
    <path class="cls-32" d="M400,285.92a2.47,2.47,0,0,0,2.28-.51c.13.74.26,1.44.36,2.15a50.93,50.93,0,0,1,.63,6,12.34,12.34,0,0,1-.23,3.32c0,.11-.07.22-.11.33-.26.71-.47.86-1.22.86-.41,0-.83,0-1.24,0a.81.81,0,0,1-.88-.53,7.65,7.65,0,0,1-.42-1.54,18.88,18.88,0,0,1,.06-4.69c.2-1.78.49-3.55.74-5.32A.33.33,0,0,1,400,285.92Z"/>
    <path class="cls-19" d="M402.1,279.44a4.55,4.55,0,0,0-.42-.49,3.06,3.06,0,0,0-.85-.54,1.74,1.74,0,0,1-.83-.6,7,7,0,0,0-1.74-1.47A.68.68,0,0,1,398,276c-.12-.44-.2-.87-.32-1.36.18,0,.33,0,.48.08l1.15.37c.42.16.65,0,.57-.47a2,2,0,0,0-.58-1.07,5.14,5.14,0,0,0-2.06-1.16.66.66,0,0,1-.36-.27c-.63-1-1.25-2-1.88-3a4.21,4.21,0,0,1,1.82-.19,6.17,6.17,0,0,1,3.71,1.77,9,9,0,0,1,2.91,6.42.67.67,0,0,1-.16.4A5.83,5.83,0,0,0,402.1,279.44Z"/>
    <path class="cls-19" d="M410.87,288.52c-.63-.55-1.23-1.08-1.82-1.62a.38.38,0,0,1-.06-.24,3.63,3.63,0,0,0-.25-1.63,2.09,2.09,0,0,0-1-1.07c-.38-.2-.62,0-.63.38s0,1,0,1.63l-.44-.26-.43-.26c-.25-.16-.59-.26-.73-.48s0-.54-.09-.82a9.18,9.18,0,0,0-.23-.9l1.08-.13,1-.11c.29,0,.44-.17.38-.47s-.22-.72-.33-1.07a.3.3,0,0,1,.11.06c.33.3.67.6,1,.92a.55.55,0,0,0,.56.21c.38-.07.76-.12,1.14-.17a.3.3,0,0,1,.23.08,6,6,0,0,1,.73,5.57A3.17,3.17,0,0,1,410.87,288.52Z"/>
    <path class="cls-19" d="M395.74,281.4a11.1,11.1,0,0,0-.34,1.12c-.06.32.05.42.37.45l1.74.11a2.84,2.84,0,0,0-.14,1.52.18.18,0,0,1-.07.15l-1.44,1.06c-.05-.41-.1-.78-.13-1.15,0-.17,0-.34,0-.51a.37.37,0,0,0-.6-.33,2.39,2.39,0,0,0-1.2,2.07,1.75,1.75,0,0,0,0,.56.58.58,0,0,1-.25.64c-.51.48-1,1-1.53,1.5a4.42,4.42,0,0,1-.65-1.85,6.65,6.65,0,0,1,1-4.19.27.27,0,0,1,.34-.12c.43.06.86.12,1.3.2a.51.51,0,0,0,.55-.22A4,4,0,0,1,395.74,281.4Z"/>
    <path class="cls-19" d="M400.65,285.33a1.61,1.61,0,1,1,0-3.22,1.61,1.61,0,1,1,0,3.22Z"/>
    <path class="cls-19" d="M402.88,283.09a2.37,2.37,0,0,0-1.43-1.53.23.23,0,0,1-.11-.17,1.61,1.61,0,0,1,3.21.29A1.57,1.57,0,0,1,402.88,283.09Z"/>
    <path class="cls-19" d="M401.47,279.75a2.37,2.37,0,0,0-.81,1.56l-1.47.53a1.61,1.61,0,0,1,.68-2.94A1.55,1.55,0,0,1,401.47,279.75Z"/>
    <path class="cls-32" d="M404.09,283.54c0,.23-.08.42-.12.65l-.56-.37Z"/>
  </g>
  <g>
    <path class="cls-32" d="M414.39,302h-.07a8.3,8.3,0,0,0-4.29-.56,7.33,7.33,0,0,0-4,1.65,4.94,4.94,0,0,0-1.9,3.72c0,.32.09.44.38.45l3.65.09a.54.54,0,0,0,.52-.25,4.25,4.25,0,0,1,1.31-1.26c.2-.12.41-.2.61-.3-.22.62-.44,1.2-.65,1.78a.67.67,0,0,1-.09.14,6.65,6.65,0,0,0-1.13,4.37,4.58,4.58,0,0,0,.85,2.19c.18.25.33.26.54.05.63-.62,1.25-1.24,1.89-1.85a.52.52,0,0,0,.15-.47,5.62,5.62,0,0,1,0-.92,1.18,1.18,0,0,1,.29-.71c.1.43.17.86.29,1.27s.3.42.62.21c.58-.39,1.16-.79,1.75-1.17a.38.38,0,0,0,.19-.48,1.59,1.59,0,0,1-.06-.3l0-.28c.3.46.63.89.95,1.32a.44.44,0,0,1,0,.26c-.23,1.57-.49,3.14-.68,4.71a17.91,17.91,0,0,0-.07,4.45,3.84,3.84,0,0,0,.53,1.74,1.3,1.3,0,0,0,1.18.63h1.45a1.16,1.16,0,0,0,1-.51,3.14,3.14,0,0,0,.55-1.4,16,16,0,0,0,.08-4.14,59.4,59.4,0,0,0-.92-6.36,2.12,2.12,0,0,1,0-.43l.1,0,.66.45a.4.4,0,0,0,.66-.13,4,4,0,0,0,.22-.47,1.92,1.92,0,0,1,0,.54.39.39,0,0,0,.2.48l1.86,1.15c.23.14.43.08.51-.17a6.2,6.2,0,0,0,.16-.72c0-.22.06-.44.09-.66h.06a1.62,1.62,0,0,1,.19.4,5.18,5.18,0,0,1,.1,1.1.73.73,0,0,0,.25.66c.63.54,1.24,1.1,1.86,1.65.27.24.44.22.63-.08a4.72,4.72,0,0,0,.73-2.39,6.64,6.64,0,0,0-1-3.62.52.52,0,0,1-.1-.23,4.66,4.66,0,0,0-.6-1.82c0-.06-.05-.12-.09-.21l.15,0a3.58,3.58,0,0,1,1.85,1.53.48.48,0,0,0,.43.24l3.68-.1c.31,0,.42-.12.43-.43a4.78,4.78,0,0,0-2-3.88,7.37,7.37,0,0,0-4-1.55,8.17,8.17,0,0,0-5.57,1.37l-.17.11c0-.07,0-.11,0-.16a8.66,8.66,0,0,0-.76-2.86,7.8,7.8,0,0,0-3.59-3.9,5,5,0,0,0-4.25-.3c-.29.11-.34.28-.19.54.64,1,1.28,2.08,1.93,3.12a.72.72,0,0,0,.36.26,4.51,4.51,0,0,1,1.61.8l.19.18a.3.3,0,0,1-.19,0c-.4,0-.8-.12-1.21-.14s-.4.16-.32.45S414.3,301.63,414.39,302Z"/>
    <path class="cls-15" d="M414.39,302c-.09-.37-.19-.74-.28-1.1s0-.47.32-.45.81.09,1.21.14a.3.3,0,0,0,.19,0l-.19-.18a4.51,4.51,0,0,0-1.61-.8.72.72,0,0,1-.36-.26c-.65-1-1.29-2.08-1.93-3.12-.15-.26-.1-.43.19-.54a5,5,0,0,1,4.25.3,7.8,7.8,0,0,1,3.59,3.9,8.66,8.66,0,0,1,.76,2.86c0,.05,0,.09,0,.16l.17-.11a8.17,8.17,0,0,1,5.57-1.37,7.37,7.37,0,0,1,4,1.55,4.78,4.78,0,0,1,2,3.88c0,.31-.12.43-.43.43l-3.68.1a.48.48,0,0,1-.43-.24,3.58,3.58,0,0,0-1.85-1.53l-.15,0c0,.09.07.15.09.21a4.66,4.66,0,0,1,.6,1.82.52.52,0,0,0,.1.23,6.64,6.64,0,0,1,1,3.62,4.72,4.72,0,0,1-.73,2.39c-.19.3-.36.32-.63.08-.62-.55-1.23-1.11-1.86-1.65a.73.73,0,0,1-.25-.66,5.18,5.18,0,0,0-.1-1.1,1.62,1.62,0,0,0-.19-.4h-.06c0,.22-.05.44-.09.66a6.2,6.2,0,0,1-.16.72c-.08.25-.28.31-.51.17l-1.86-1.15a.39.39,0,0,1-.2-.48,1.92,1.92,0,0,0,0-.54,4,4,0,0,1-.22.47.4.4,0,0,1-.66.13l-.66-.45-.1,0a2.12,2.12,0,0,0,0,.43,59.4,59.4,0,0,1,.92,6.36,16,16,0,0,1-.08,4.14,3.14,3.14,0,0,1-.55,1.4,1.16,1.16,0,0,1-1,.51h-1.45a1.3,1.3,0,0,1-1.18-.63,3.84,3.84,0,0,1-.53-1.74,17.91,17.91,0,0,1,.07-4.45c.19-1.57.45-3.14.68-4.71a.44.44,0,0,0,0-.26c-.32-.43-.65-.86-.95-1.32l0,.28a1.59,1.59,0,0,0,.06.3.38.38,0,0,1-.19.48c-.59.38-1.17.78-1.75,1.17-.32.21-.51.16-.62-.21s-.19-.84-.29-1.27a1.18,1.18,0,0,0-.29.71,5.62,5.62,0,0,0,0,.92.52.52,0,0,1-.15.47c-.64.61-1.26,1.23-1.89,1.85-.21.21-.36.2-.54-.05a4.58,4.58,0,0,1-.85-2.19,6.65,6.65,0,0,1,1.13-4.37.67.67,0,0,0,.09-.14c.21-.58.43-1.16.65-1.78-.2.1-.41.18-.61.3a4.25,4.25,0,0,0-1.31,1.26.54.54,0,0,1-.52.25l-3.65-.09c-.29,0-.4-.13-.38-.45a4.94,4.94,0,0,1,1.9-3.72,7.33,7.33,0,0,1,4-1.65,8.3,8.3,0,0,1,4.29.56Zm8.6,5.86a2.94,2.94,0,0,0-.78-1.07c-.12-.12-.24-.22-.17-.41s.24-.21.41-.22a1.79,1.79,0,0,1,1.11.32c.38.26.72.59,1.08.88.06.05.14.14.21.13.35,0,.7-.09,1.06-.14a.81.81,0,0,0-.07-.26c-.26-.55-.52-1.1-.8-1.64-.15-.31-.06-.52.28-.55a2.55,2.55,0,0,1,1.52.39,5.14,5.14,0,0,1,1.43,1.28.36.36,0,0,0,.27.14l3-.08.21,0v-.18c0-.13,0-.26-.07-.38a4.64,4.64,0,0,0-2.16-2.93,7.65,7.65,0,0,0-5.66-1,6.33,6.33,0,0,0-3.73,2.08,8.88,8.88,0,0,0-.63.87,2.07,2.07,0,0,1,1.72.94,2.13,2.13,0,0,1,.2,1.92Zm-12.35-.52.93.15a.38.38,0,0,0,.33-.12,12.51,12.51,0,0,1,1.14-.93,1.56,1.56,0,0,1,1.13-.26.43.43,0,0,1,.31.2.51.51,0,0,1-.11.36c-.11.15-.27.27-.38.42s-.3.43-.48.7l2.2.13a2.05,2.05,0,0,1-.81-2.1,2.08,2.08,0,0,1,1.59-1.62,11.92,11.92,0,0,0-1.16-1,7.58,7.58,0,0,0-7-.81,5.46,5.46,0,0,0-3.11,2.49,3.62,3.62,0,0,0-.5,1.64l.08,0,3.2,0c.07,0,.15-.07.21-.12.26-.27.5-.57.79-.82a3,3,0,0,1,2.08-.87c.4,0,.52.24.33.59s-.42.8-.61,1.21A5.36,5.36,0,0,0,410.64,307.34Zm6.16,3.74a.3.3,0,0,1,0,.09c-.22,1.58-.47,3.14-.65,4.72a16.55,16.55,0,0,0-.05,4.16,6.45,6.45,0,0,0,.37,1.37.72.72,0,0,0,.78.47h1.1c.67,0,.85-.13,1.09-.77l.09-.29a11.15,11.15,0,0,0,.21-2.94,45.54,45.54,0,0,0-.56-5.35c-.09-.63-.21-1.25-.32-1.91A2.19,2.19,0,0,1,416.8,311.08Zm1.91-5.75a5.16,5.16,0,0,1,1.08-1.68.53.53,0,0,0,.13-.35,8,8,0,0,0-2.58-5.7,5.45,5.45,0,0,0-3.29-1.57,3.7,3.7,0,0,0-1.61.17c.56.9,1.11,1.79,1.66,2.66a.64.64,0,0,0,.32.24,4.55,4.55,0,0,1,1.83,1,1.73,1.73,0,0,1,.52.95c.07.39-.14.55-.51.42s-.68-.23-1-.33a3.94,3.94,0,0,0-.42-.08c.1.44.18.83.28,1.21a.58.58,0,0,0,.21.28,6.45,6.45,0,0,1,1.54,1.31,1.43,1.43,0,0,0,.74.53,2.89,2.89,0,0,1,.75.48A4.45,4.45,0,0,1,418.71,305.33Zm7.78,8.06c.06-.13.12-.23.16-.34a5.28,5.28,0,0,0-.65-4.94c0-.05-.13-.07-.2-.07-.34,0-.68.09-1,.15a.49.49,0,0,1-.5-.18c-.27-.29-.57-.55-.86-.82a.21.21,0,0,0-.1-.05,7.47,7.47,0,0,1,.29.95c.06.26-.07.38-.33.41l-.9.1-.95.12c.07.28.16.53.2.8s0,.54.08.72.42.29.64.42l.39.24.39.22c0-.52,0-1,0-1.44s.22-.51.56-.33a1.81,1.81,0,0,1,.87.94,3.14,3.14,0,0,1,.22,1.45.35.35,0,0,0,.05.21Zm-13.42-6.31a3.3,3.3,0,0,0-1,.89.44.44,0,0,1-.49.19l-1.15-.18a.24.24,0,0,0-.3.12,5.9,5.9,0,0,0-.86,3.71,4,4,0,0,0,.57,1.64c.47-.46.91-.9,1.37-1.33a.54.54,0,0,0,.22-.57,1.67,1.67,0,0,1,0-.5,2.14,2.14,0,0,1,1.07-1.83c.28-.15.5,0,.53.29,0,.15,0,.31,0,.46,0,.32.07.65.12,1l1.27-.94a.21.21,0,0,0,.07-.14,2.51,2.51,0,0,1,.12-1.35l-1.54-.1c-.29,0-.39-.11-.33-.39S413,307.41,413.07,307.08Zm4.35,3.48a1.42,1.42,0,0,0,1.44-1.44,1.44,1.44,0,0,0-1.43-1.42,1.43,1.43,0,0,0-1.43,1.44A1.41,1.41,0,0,0,417.42,310.56Zm2-2a1.41,1.41,0,1,0-1.36-1.52.22.22,0,0,0,.09.16A2.1,2.1,0,0,1,419.4,308.58Zm-1.25-3a1.38,1.38,0,0,0-1.41-.76,1.42,1.42,0,0,0-1.23,1.16,1.39,1.39,0,0,0,.62,1.45l1.3-.46A2.11,2.11,0,0,1,418.15,305.61Zm2.33,3.36-.61.25.5.33Z"/>
    <path class="cls-19" d="M423,307.86l-1.57.09a2.13,2.13,0,0,0-.2-1.92,2.07,2.07,0,0,0-1.72-.94,8.88,8.88,0,0,1,.63-.87,6.33,6.33,0,0,1,3.73-2.08,7.65,7.65,0,0,1,5.66,1,4.64,4.64,0,0,1,2.16,2.93c0,.12.05.25.07.38v.18l-.21,0-3,.08a.36.36,0,0,1-.27-.14,5.14,5.14,0,0,0-1.43-1.28,2.55,2.55,0,0,0-1.52-.39c-.34,0-.43.24-.28.55.28.54.54,1.09.8,1.64a.81.81,0,0,1,.07.26c-.36,0-.71.11-1.06.14-.07,0-.15-.08-.21-.13-.36-.29-.7-.62-1.08-.88a1.79,1.79,0,0,0-1.11-.32c-.17,0-.33,0-.41.22s0,.29.17.41A2.94,2.94,0,0,1,423,307.86Z"/>
    <path class="cls-19" d="M410.64,307.34a5.36,5.36,0,0,1,.19-.67c.19-.41.39-.82.61-1.21s.07-.58-.33-.59a3,3,0,0,0-2.08.87c-.29.25-.53.55-.79.82-.06.05-.14.12-.21.12l-3.2,0-.08,0a3.62,3.62,0,0,1,.5-1.64,5.46,5.46,0,0,1,3.11-2.49,7.58,7.58,0,0,1,7,.81,11.92,11.92,0,0,1,1.16,1,2.08,2.08,0,0,0-1.59,1.62,2.05,2.05,0,0,0,.81,2.1l-2.2-.13c.18-.27.32-.49.48-.7s.27-.27.38-.42a.51.51,0,0,0,.11-.36.43.43,0,0,0-.31-.2,1.56,1.56,0,0,0-1.13.26,12.51,12.51,0,0,0-1.14.93.38.38,0,0,1-.33.12Z"/>
    <path class="cls-32" d="M416.8,311.08a2.19,2.19,0,0,0,2-.45c.11.66.23,1.28.32,1.91a45.54,45.54,0,0,1,.56,5.35,11.15,11.15,0,0,1-.21,2.94l-.09.29c-.24.64-.42.77-1.09.77h-1.1a.72.72,0,0,1-.78-.47,6.45,6.45,0,0,1-.37-1.37,16.55,16.55,0,0,1,.05-4.16c.18-1.58.43-3.14.65-4.72A.3.3,0,0,0,416.8,311.08Z"/>
    <path class="cls-19" d="M418.71,305.33a4.45,4.45,0,0,0-.37-.43,2.89,2.89,0,0,0-.75-.48,1.43,1.43,0,0,1-.74-.53,6.45,6.45,0,0,0-1.54-1.31.58.58,0,0,1-.21-.28c-.1-.38-.18-.77-.28-1.21a3.94,3.94,0,0,1,.42.08q.51.15,1,.33c.37.13.58,0,.51-.42a1.73,1.73,0,0,0-.52-.95,4.55,4.55,0,0,0-1.83-1,.64.64,0,0,1-.32-.24c-.55-.87-1.1-1.76-1.66-2.66a3.7,3.7,0,0,1,1.61-.17,5.45,5.45,0,0,1,3.29,1.57,8,8,0,0,1,2.58,5.7.53.53,0,0,1-.13.35A5.16,5.16,0,0,0,418.71,305.33Z"/>
    <path class="cls-19" d="M426.49,313.39,424.87,312a.35.35,0,0,1-.05-.21,3.14,3.14,0,0,0-.22-1.45,1.81,1.81,0,0,0-.87-.94c-.34-.18-.55,0-.56.33s0,.92,0,1.44l-.39-.22-.39-.24c-.22-.13-.52-.22-.64-.42s0-.48-.08-.72-.13-.52-.2-.8l.95-.12.9-.1c.26,0,.39-.15.33-.41a7.47,7.47,0,0,0-.29-.95.21.21,0,0,1,.1.05c.29.27.59.53.86.82a.49.49,0,0,0,.5.18c.33-.06.67-.11,1-.15.07,0,.17,0,.2.07a5.28,5.28,0,0,1,.65,4.94C426.61,313.16,426.55,313.26,426.49,313.39Z"/>
    <path class="cls-19" d="M413.07,307.08c-.1.33-.23.65-.3,1s0,.37.33.39l1.54.1a2.51,2.51,0,0,0-.12,1.35.21.21,0,0,1-.07.14l-1.27.94c-.05-.37-.09-.7-.12-1,0-.15,0-.31,0-.46,0-.32-.25-.44-.53-.29a2.14,2.14,0,0,0-1.07,1.83,1.67,1.67,0,0,0,0,.5.54.54,0,0,1-.22.57c-.46.43-.9.87-1.37,1.33a4,4,0,0,1-.57-1.64,5.9,5.9,0,0,1,.86-3.71.24.24,0,0,1,.3-.12l1.15.18a.44.44,0,0,0,.49-.19A3.3,3.3,0,0,1,413.07,307.08Z"/>
    <path class="cls-19" d="M417.42,310.56a1.41,1.41,0,0,1-1.42-1.42,1.43,1.43,0,0,1,1.43-1.44,1.44,1.44,0,0,1,1.43,1.42A1.42,1.42,0,0,1,417.42,310.56Z"/>
    <path class="cls-19" d="M419.4,308.58a2.1,2.1,0,0,0-1.27-1.36.22.22,0,0,1-.09-.16,1.43,1.43,0,1,1,1.36,1.52Z"/>
    <path class="cls-19" d="M418.15,305.61a2.11,2.11,0,0,0-.72,1.39l-1.3.46a1.39,1.39,0,0,1-.62-1.45,1.42,1.42,0,0,1,1.23-1.16A1.38,1.38,0,0,1,418.15,305.61Z"/>
    <path class="cls-32" d="M420.48,309l-.11.58-.5-.33Z"/>
  </g>
  <g>
    <path class="cls-32" d="M357.94,319.79h-.08a9.71,9.71,0,0,0-5.05-.66,8.71,8.71,0,0,0-4.72,1.93,5.87,5.87,0,0,0-2.24,4.38c0,.37.11.51.46.52l4.28.11a.62.62,0,0,0,.61-.3,5.09,5.09,0,0,1,1.55-1.48,6.59,6.59,0,0,1,.71-.34c-.26.72-.51,1.41-.77,2.09a.86.86,0,0,1-.1.16,7.78,7.78,0,0,0-1.32,5.13,5.38,5.38,0,0,0,1,2.58c.21.29.39.3.64.06.74-.73,1.47-1.46,2.22-2.18a.56.56,0,0,0,.17-.55,5.57,5.57,0,0,1,0-1.08,1.34,1.34,0,0,1,.34-.83c.11.5.2,1,.34,1.48s.35.5.73.25c.68-.45,1.36-.92,2.05-1.37a.45.45,0,0,0,.22-.56,2.25,2.25,0,0,1-.06-.36c0-.11,0-.22,0-.33.36.55.74,1,1.11,1.55a.42.42,0,0,1,.05.31c-.26,1.84-.57,3.68-.79,5.53a21.29,21.29,0,0,0-.09,5.23,4.63,4.63,0,0,0,.63,2,1.51,1.51,0,0,0,1.38.75c.57,0,1.14,0,1.71,0a1.38,1.38,0,0,0,1.17-.6,3.82,3.82,0,0,0,.65-1.65,18.83,18.83,0,0,0,.09-4.86,69.8,69.8,0,0,0-1.08-7.48,2.16,2.16,0,0,1,0-.5l.12,0,.78.54a.47.47,0,0,0,.77-.17c.1-.17.17-.36.26-.54a1.88,1.88,0,0,1,0,.63.46.46,0,0,0,.24.56l2.19,1.36a.37.37,0,0,0,.6-.21,7.86,7.86,0,0,0,.19-.84c0-.26.07-.52.1-.77H369a1.49,1.49,0,0,1,.22.46,5.72,5.72,0,0,1,.12,1.3.81.81,0,0,0,.3.77c.74.63,1.45,1.29,2.18,1.94.32.28.51.26.74-.1a5.58,5.58,0,0,0,.86-2.8,7.79,7.79,0,0,0-1.2-4.25.68.68,0,0,1-.12-.28,5.57,5.57,0,0,0-.7-2.14l-.11-.24.18,0a4.25,4.25,0,0,1,2.17,1.81.55.55,0,0,0,.51.27l4.31-.1c.38,0,.51-.15.51-.52a5.61,5.61,0,0,0-2.29-4.56,8.77,8.77,0,0,0-4.74-1.82,9.6,9.6,0,0,0-6.54,1.61l-.2.14c0-.08,0-.14,0-.19a10.08,10.08,0,0,0-.89-3.36,9.21,9.21,0,0,0-4.22-4.59,5.85,5.85,0,0,0-5-.35c-.33.14-.4.33-.21.63.75,1.23,1.5,2.45,2.27,3.67a.78.78,0,0,0,.42.31,5.41,5.41,0,0,1,1.89.94l.21.21a.4.4,0,0,1-.22,0c-.47-.06-.94-.14-1.41-.17s-.48.19-.39.53S357.83,319.36,357.94,319.79Z"/>
    <path class="cls-15" d="M357.94,319.79c-.11-.43-.23-.86-.34-1.29s0-.55.39-.53.94.11,1.41.17a.4.4,0,0,0,.22,0l-.21-.21a5.41,5.41,0,0,0-1.89-.94.78.78,0,0,1-.42-.31c-.77-1.22-1.52-2.44-2.27-3.67-.19-.3-.12-.49.21-.63a5.85,5.85,0,0,1,5,.35,9.21,9.21,0,0,1,4.22,4.59,10.08,10.08,0,0,1,.89,3.36c0,.05,0,.11,0,.19l.2-.14a9.6,9.6,0,0,1,6.54-1.61,8.77,8.77,0,0,1,4.74,1.82A5.61,5.61,0,0,1,379,325.5c0,.37-.13.5-.51.52l-4.31.1a.55.55,0,0,1-.51-.27,4.25,4.25,0,0,0-2.17-1.81l-.18,0,.11.24a5.57,5.57,0,0,1,.7,2.14.68.68,0,0,0,.12.28,7.79,7.79,0,0,1,1.2,4.25,5.58,5.58,0,0,1-.86,2.8c-.23.36-.42.38-.74.1-.73-.65-1.44-1.31-2.18-1.94a.81.81,0,0,1-.3-.77,5.72,5.72,0,0,0-.12-1.3,1.49,1.49,0,0,0-.22-.46h-.07c0,.25-.06.51-.1.77a7.86,7.86,0,0,1-.19.84.37.37,0,0,1-.6.21l-2.19-1.36a.46.46,0,0,1-.24-.56,1.88,1.88,0,0,0,0-.63c-.09.18-.16.37-.26.54a.47.47,0,0,1-.77.17l-.78-.54-.12,0a2.16,2.16,0,0,0,0,.5,69.8,69.8,0,0,1,1.08,7.48,18.83,18.83,0,0,1-.09,4.86,3.82,3.82,0,0,1-.65,1.65,1.38,1.38,0,0,1-1.17.6c-.57,0-1.14,0-1.71,0a1.51,1.51,0,0,1-1.38-.75,4.63,4.63,0,0,1-.63-2,21.29,21.29,0,0,1,.09-5.23c.22-1.85.53-3.69.79-5.53A.42.42,0,0,0,360,330c-.37-.51-.75-1-1.11-1.55,0,.11,0,.22,0,.33a2.25,2.25,0,0,0,.06.36.45.45,0,0,1-.22.56c-.69.45-1.37.92-2.05,1.37-.38.25-.6.19-.73-.25s-.23-1-.34-1.48a1.34,1.34,0,0,0-.34.83,5.57,5.57,0,0,0,0,1.08.56.56,0,0,1-.17.55c-.75.72-1.48,1.45-2.22,2.18-.25.24-.43.23-.64-.06a5.38,5.38,0,0,1-1-2.58,7.78,7.78,0,0,1,1.32-5.13.86.86,0,0,0,.1-.16c.26-.68.51-1.37.77-2.09a6.59,6.59,0,0,0-.71.34,5.09,5.09,0,0,0-1.55,1.48.62.62,0,0,1-.61.3l-4.28-.11c-.35,0-.47-.15-.46-.52a5.87,5.87,0,0,1,2.24-4.38,8.71,8.71,0,0,1,4.72-1.93,9.71,9.71,0,0,1,5.05.66Zm10.1,6.89a3.38,3.38,0,0,0-.92-1.26c-.14-.13-.27-.26-.19-.48s.28-.25.48-.26a2.2,2.2,0,0,1,1.3.37c.44.32.85.7,1.27,1,.07.07.17.16.24.16.41,0,.83-.11,1.25-.17a1.6,1.6,0,0,0-.08-.3c-.31-.65-.61-1.3-.94-1.93-.18-.36-.07-.61.33-.65a3,3,0,0,1,1.79.46,6.16,6.16,0,0,1,1.67,1.51.44.44,0,0,0,.32.15c1.17,0,2.35-.05,3.52-.09l.25,0a1.61,1.61,0,0,0,0-.22c0-.14-.05-.29-.08-.44a5.45,5.45,0,0,0-2.54-3.44,8.9,8.9,0,0,0-6.64-1.15,7.42,7.42,0,0,0-4.39,2.44c-.26.31-.48.65-.74,1a2.46,2.46,0,0,1,2,1.11,2.5,2.5,0,0,1,.23,2.26Zm-14.51-.61,1.09.17a.41.41,0,0,0,.39-.14,15.55,15.55,0,0,1,1.34-1.09,1.85,1.85,0,0,1,1.33-.31.5.5,0,0,1,.36.24.54.54,0,0,1-.13.42c-.12.18-.31.32-.45.5s-.34.51-.56.82l2.58.15a2.45,2.45,0,0,1,.92-4.37,14.69,14.69,0,0,0-1.36-1.14,8.9,8.9,0,0,0-8.19-.95,6.41,6.41,0,0,0-3.65,2.92,4.39,4.39,0,0,0-.59,1.93l.1,0c1.25,0,2.5,0,3.75,0a.49.49,0,0,0,.25-.14c.31-.32.59-.67.93-1a3.54,3.54,0,0,1,2.45-1c.46,0,.6.28.38.69s-.49.94-.71,1.42A5.65,5.65,0,0,0,353.53,326.07Zm7.24,4.39a.45.45,0,0,0,0,.11c-.26,1.85-.56,3.69-.77,5.55a19.44,19.44,0,0,0-.06,4.88,7.53,7.53,0,0,0,.44,1.61.83.83,0,0,0,.91.55c.43,0,.86,0,1.29,0,.79,0,1-.15,1.28-.9,0-.11.08-.23.11-.34a12.57,12.57,0,0,0,.24-3.46,53.21,53.21,0,0,0-.65-6.29c-.11-.73-.25-1.46-.38-2.24A2.53,2.53,0,0,1,360.77,330.46Zm2.24-6.75a6.34,6.34,0,0,1,1.27-2,.67.67,0,0,0,.16-.41,9.42,9.42,0,0,0-3-6.7,6.46,6.46,0,0,0-3.87-1.84,4.36,4.36,0,0,0-1.89.2c.66,1.06,1.3,2.1,2,3.13a.82.82,0,0,0,.38.28,5.35,5.35,0,0,1,2.15,1.21,2,2,0,0,1,.6,1.11c.08.46-.16.65-.6.5s-.79-.27-1.19-.39a3.44,3.44,0,0,0-.5-.09c.12.51.21,1,.33,1.42a.68.68,0,0,0,.25.33,7.35,7.35,0,0,1,1.8,1.53,1.73,1.73,0,0,0,.87.63,3.06,3.06,0,0,1,.89.57A3.9,3.9,0,0,1,363,323.71Zm9.14,9.47c.07-.16.14-.28.19-.4a6.24,6.24,0,0,0-.76-5.81.31.31,0,0,0-.24-.07c-.39,0-.79.1-1.18.17a.59.59,0,0,1-.59-.22c-.32-.34-.67-.64-1-1a.4.4,0,0,0-.12-.06,9.75,9.75,0,0,1,.35,1.12c.06.3-.09.45-.4.48l-1.06.12-1.11.13c.08.34.18.64.24.95s-.06.64.08.85.5.33.77.49l.45.28.45.26c0-.61,0-1.15.05-1.69s.25-.6.65-.4a2.19,2.19,0,0,1,1,1.12,3.64,3.64,0,0,1,.26,1.7.41.41,0,0,0,.06.25Zm-15.76-7.42a3.82,3.82,0,0,0-1.15,1.05.54.54,0,0,1-.58.23l-1.35-.22c-.14,0-.26,0-.35.14a7,7,0,0,0-1,4.36,4.61,4.61,0,0,0,.68,1.93c.55-.54,1.07-1.06,1.6-1.57a.61.61,0,0,0,.26-.66,2,2,0,0,1,0-.59,2.5,2.5,0,0,1,1.26-2.15c.33-.18.59,0,.62.34,0,.18,0,.36,0,.53,0,.39.09.77.14,1.21.54-.4,1-.75,1.5-1.11a.21.21,0,0,0,.07-.16,3.1,3.1,0,0,1,.15-1.59l-1.81-.11c-.33,0-.45-.14-.39-.47A10.31,10.31,0,0,1,356.39,325.76Zm5.11,4.09a1.67,1.67,0,0,0,1.69-1.69,1.69,1.69,0,0,0-1.68-1.67,1.67,1.67,0,0,0-1.68,1.7A1.65,1.65,0,0,0,361.5,329.85Zm2.32-2.33a1.64,1.64,0,0,0,1.74-1.47,1.68,1.68,0,1,0-3.34-.31.25.25,0,0,0,.11.19A2.43,2.43,0,0,1,363.82,327.52ZM362.35,324a1.61,1.61,0,0,0-1.66-.88,1.67,1.67,0,0,0-1.44,1.36,1.63,1.63,0,0,0,.73,1.7l1.53-.55A2.48,2.48,0,0,1,362.35,324Zm2.74,4-.71.29.58.39C365,328.42,365,328.22,365.09,328Z"/>
    <path class="cls-19" d="M368,326.68l-1.85.11a2.5,2.5,0,0,0-.23-2.26,2.46,2.46,0,0,0-2-1.11c.26-.37.48-.71.74-1a7.42,7.42,0,0,1,4.39-2.44,8.9,8.9,0,0,1,6.64,1.15,5.45,5.45,0,0,1,2.54,3.44c0,.15.06.3.08.44a1.61,1.61,0,0,1,0,.22l-.25,0c-1.17,0-2.35.07-3.52.09a.44.44,0,0,1-.32-.15,6.16,6.16,0,0,0-1.67-1.51,3,3,0,0,0-1.79-.46c-.4,0-.51.29-.33.65.33.63.63,1.28.94,1.93a1.6,1.6,0,0,1,.08.3c-.42.06-.84.13-1.25.17-.07,0-.17-.09-.24-.16-.42-.34-.83-.72-1.27-1a2.2,2.2,0,0,0-1.3-.37c-.2,0-.4,0-.48.26s.05.35.19.48A3.38,3.38,0,0,1,368,326.68Z"/>
    <path class="cls-19" d="M353.53,326.07a5.65,5.65,0,0,1,.23-.79c.22-.48.46-1,.71-1.42s.08-.68-.38-.69a3.54,3.54,0,0,0-2.45,1c-.34.3-.62.65-.93,1a.49.49,0,0,1-.25.14c-1.25,0-2.5,0-3.75,0l-.1,0a4.39,4.39,0,0,1,.59-1.93,6.41,6.41,0,0,1,3.65-2.92,8.9,8.9,0,0,1,8.19.95,14.69,14.69,0,0,1,1.36,1.14,2.45,2.45,0,0,0-.92,4.37l-2.58-.15c.22-.31.38-.58.56-.82s.33-.32.45-.5a.54.54,0,0,0,.13-.42.5.5,0,0,0-.36-.24,1.85,1.85,0,0,0-1.33.31A15.55,15.55,0,0,0,355,326.1a.41.41,0,0,1-.39.14Z"/>
    <path class="cls-32" d="M360.77,330.46a2.53,2.53,0,0,0,2.38-.53c.13.78.27,1.51.38,2.24a53.21,53.21,0,0,1,.65,6.29,12.57,12.57,0,0,1-.24,3.46c0,.11-.07.23-.11.34-.27.75-.49.9-1.28.9-.43,0-.86,0-1.29,0a.83.83,0,0,1-.91-.55,7.53,7.53,0,0,1-.44-1.61,19.44,19.44,0,0,1,.06-4.88c.21-1.86.51-3.7.77-5.55A.45.45,0,0,1,360.77,330.46Z"/>
    <path class="cls-19" d="M363,323.71a3.9,3.9,0,0,0-.43-.5,3.06,3.06,0,0,0-.89-.57,1.73,1.73,0,0,1-.87-.63,7.35,7.35,0,0,0-1.8-1.53.68.68,0,0,1-.25-.33c-.12-.45-.21-.91-.33-1.42a3.44,3.44,0,0,1,.5.09c.4.12.8.24,1.19.39s.68,0,.6-.5a2,2,0,0,0-.6-1.11,5.35,5.35,0,0,0-2.15-1.21.82.82,0,0,1-.38-.28c-.65-1-1.29-2.07-2-3.13a4.36,4.36,0,0,1,1.89-.2,6.46,6.46,0,0,1,3.87,1.84,9.42,9.42,0,0,1,3,6.7.67.67,0,0,1-.16.41A6.34,6.34,0,0,0,363,323.71Z"/>
    <path class="cls-19" d="M372.15,333.18l-1.9-1.69a.41.41,0,0,1-.06-.25,3.64,3.64,0,0,0-.26-1.7,2.19,2.19,0,0,0-1-1.12c-.4-.2-.65,0-.65.4s0,1.08-.05,1.69l-.45-.26-.45-.28c-.27-.16-.62-.26-.77-.49s0-.57-.08-.85-.16-.61-.24-.95l1.11-.13,1.06-.12c.31,0,.46-.18.4-.48a9.75,9.75,0,0,0-.35-1.12.4.4,0,0,1,.12.06c.34.32.69.62,1,1a.59.59,0,0,0,.59.22c.39-.07.79-.13,1.18-.17a.31.31,0,0,1,.24.07,6.24,6.24,0,0,1,.76,5.81C372.29,332.9,372.22,333,372.15,333.18Z"/>
    <path class="cls-19" d="M356.39,325.76a10.31,10.31,0,0,0-.36,1.16c-.06.33.06.44.39.47l1.81.11a3.1,3.1,0,0,0-.15,1.59.21.21,0,0,1-.07.16c-.47.36-1,.71-1.5,1.11-.05-.44-.1-.82-.14-1.21,0-.17,0-.35,0-.53,0-.38-.29-.52-.62-.34a2.5,2.5,0,0,0-1.26,2.15,2,2,0,0,0,0,.59.61.61,0,0,1-.26.66c-.53.51-1.05,1-1.6,1.57a4.61,4.61,0,0,1-.68-1.93,7,7,0,0,1,1-4.36c.09-.17.21-.16.35-.14l1.35.22a.54.54,0,0,0,.58-.23A3.82,3.82,0,0,1,356.39,325.76Z"/>
    <path class="cls-19" d="M361.5,329.85a1.65,1.65,0,0,1-1.67-1.66,1.67,1.67,0,0,1,1.68-1.7,1.69,1.69,0,0,1,1.68,1.67A1.67,1.67,0,0,1,361.5,329.85Z"/>
    <path class="cls-19" d="M363.82,327.52a2.43,2.43,0,0,0-1.49-1.59.25.25,0,0,1-.11-.19,1.68,1.68,0,1,1,3.34.31A1.64,1.64,0,0,1,363.82,327.52Z"/>
    <path class="cls-19" d="M362.35,324a2.48,2.48,0,0,0-.84,1.63l-1.53.55a1.63,1.63,0,0,1-.73-1.7,1.67,1.67,0,0,1,1.44-1.36A1.61,1.61,0,0,1,362.35,324Z"/>
    <path class="cls-32" d="M365.09,328c0,.23-.08.43-.13.68l-.58-.39Z"/>
  </g>
  <line class="cls-36" x1="265.6" y1="489.04" x2="272.31" y2="490.18"/>
  <rect class="cls-5" x="371.23" y="457.74" width="15.67" height="41.67" rx="5.67"/>
  <path class="cls-5" d="M384.12,457a2.75,2.75,0,0,1-2.75,2.75h-4.62A2.75,2.75,0,0,1,374,457h0a2.75,2.75,0,0,1,2.75-2.75h4.62a2.75,2.75,0,0,1,2.75,2.75Z"/>
  <path class="cls-5" d="M380.77,453.45A1.75,1.75,0,0,1,379,455.2h0a1.75,1.75,0,0,1-1.75-1.75v-2.29a1.75,1.75,0,0,1,1.75-1.75h0a1.75,1.75,0,0,1,1.75,1.75Z"/>
  <rect class="cls-37" x="406.68" y="444.77" width="1.51" height="10.44"/>
  <path class="cls-8" d="M164.8,508.87l-13.92-4.79s-9.3,3.55-3.44,12.68l18.33,6"/>
  <path class="cls-8" d="M176,395.49V520.6a2.83,2.83,0,0,1-2.83,2.83h-5.5a2.83,2.83,0,0,1-2.83-2.83V384.49"/>
  <path class="cls-8" d="M183.86,384.23,170,379.54s-9.3,3.55-3.44,12.68l13.68,4.63"/>
  <path class="cls-8" d="M202.1,385.44l-13-4.47s-15.5,7.51-5.56,23.51l17.85,5.84"/>
  <polygon class="cls-32" points="203.39 330.41 189.32 324.98 201.59 315.18 201.59 316.99 203.39 330.41"/>
  <polygon class="cls-32" points="188.34 324.98 180.98 330.42 189.32 334.24 188.34 324.98"/>
  <path class="cls-29" d="M340.62,183.41v-.3s-2.17-.09-6,0c-3.8-.11-6,0-6,0v.3c-34.81,2.3-133.18,19.52-124.85,141.2,0,0,57.33,37.92,130.82,36.22,73.49,1.7,130.82-44.22,130.82-44.22C473.8,194.93,375.43,185.71,340.62,183.41Z"/>
  <path d="M200.88,341.72S290.21,396,391.81,371.78V355.91c-101.6,24.2-190.93-30.06-190.93-30.06Z"/>
  <path d="M349,145.86c0,1.07-7.33,1.94-16.38,1.94s-16.38-.87-16.38-1.94,7.33-1.94,16.38-1.94S349,144.79,349,145.86Z"/>
  <path class="cls-38" d="M338.22,90.77c0,.94-2.75,1.7-6.14,1.7s-6.14-.76-6.14-1.7,2.75-1.71,6.14-1.71S338.22,89.83,338.22,90.77Z"/>
  <path class="cls-39" d="M335.46,96.68,333,68.93h-2.25l-2.43,27.75S332.24,99.21,335.46,96.68Z"/>
  <circle class="cls-3" cx="331.91" cy="56.68" r="8.25"/>
  <path class="cls-39" d="M365.31,168.23l12.25,34c-48,24.36-90.62,0-90.62,0l14.51-34S335,173.17,365.31,168.23Z"/>
  <path class="cls-40" d="M365.8,167c0,1.7-14.44,3.07-32.24,3.07s-32.24-1.37-32.24-3.07S315.75,164,333.56,164,365.8,165.34,365.8,167Z"/>
  <path class="cls-3" d="M337.18,87.4,347,143.56c-12.71,4.61-28,0-28,0l8-56.16S332.34,91.37,337.18,87.4Z"/>
  <path class="cls-3" d="M348.05,141.73l8.76,27.2c-26.87,18.25-46.37.13-46.37.13l7-27.33S333.49,145.7,348.05,141.73Z"/>
  <polyline class="cls-4" points="396.8 398.87 396.8 353.85 433.18 340.16 433.18 422.2 406.93 435.37 406.93 395.42 396.8 398.87"/>
  <g>
    <rect x="399.19" y="355.84" width="3.2" height="3.62"/>
    <rect x="402.39" y="364.05" width="5.36" height="3.62"/>
    <rect class="cls-37" x="399.19" y="371.95" width="3.84" height="3.62"/>
    <rect x="400.79" y="379.42" width="6.96" height="3.62"/>
    <rect x="399.19" y="387.37" width="4.28" height="3.62"/>
  </g>
  <g>
    <rect x="413.93" y="349.87" width="4.69" height="7.28"/>
    <rect x="418.62" y="368.98" width="7.84" height="7.28"/>
    <rect x="413.93" y="385.37" width="5.62" height="4.75"/>
    <rect x="420.91" y="400.18" width="4.57" height="4.22"/>
    <rect x="414.94" y="415.79" width="4.26" height="7.28"/>
  </g>
  <rect x="423.27" y="348.22" width="3.99" height="14.59"/>
  <rect x="405.17" y="371.83" width="2.39" height="6.04"/>
  <rect x="429.08" y="363.84" width="2.39" height="6.04"/>
  <rect x="401.05" y="359.02" width="1.32" height="6.04"/>
  <rect x="425.44" y="368.98" width="6.04" height="1.2"/>
  <rect x="425.44" y="362.8" width="6.04" height="1.2"/>
  <rect x="400.79" y="381.83" width="2.68" height="6.04"/>
  <polygon points="419.2 427.53 416.52 429.12 416.52 422.2 419.2 422.2 419.2 427.53"/>
  <rect x="411.3" y="394.34" width="2.39" height="5.42"/>
  <rect x="423.87" y="387.51" width="0.84" height="5.42"/>
  <rect x="406.04" y="382.13" width="0.64" height="4.11"/>
  <rect class="cls-37" x="411.3" y="399.76" width="2.39" height="5.42"/>
  <rect x="411.3" y="405.19" width="2.39" height="5.42"/>
  <g>
    <rect x="443.01" y="382.21" width="2.28" height="4.31"/>
    <rect class="cls-37" x="443.01" y="386.52" width="2.28" height="4.31"/>
    <rect x="443.01" y="390.83" width="2.28" height="4.31"/>
  </g>
  <g>
    <rect x="473.95" y="344.49" width="2.28" height="6.5"/>
    <rect class="cls-37" x="473.95" y="350.99" width="2.28" height="6.5"/>
    <rect x="473.95" y="357.5" width="2.28" height="6.5"/>
  </g>
  <g>
    <rect x="439.61" y="382.21" width="2.28" height="4.31"/>
    <rect class="cls-37" x="439.61" y="386.52" width="2.28" height="4.31"/>
    <rect x="439.61" y="390.83" width="2.28" height="4.31"/>
  </g>
  <g>
    <rect x="415.49" y="439.95" width="2.28" height="4.31"/>
    <rect class="cls-37" x="415.49" y="444.26" width="2.28" height="4.31"/>
    <rect x="415.49" y="448.57" width="2.28" height="4.31"/>
  </g>
  <g>
    <rect x="411.31" y="444.77" width="2.28" height="4.31"/>
    <rect class="cls-37" x="411.31" y="449.07" width="2.28" height="4.31"/>
    <rect x="411.31" y="453.38" width="2.28" height="4.31"/>
  </g>
  <path d="M400.41,405a3.11,3.11,0,1,1-3.11-3.11A3.11,3.11,0,0,1,400.41,405Z"/>
  <path d="M400.41,429.2a3.11,3.11,0,1,1-3.11-3.11A3.11,3.11,0,0,1,400.41,429.2Z"/>
  <path class="cls-37" d="M400.41,416.8a3.11,3.11,0,1,1-3.11-3.11A3.11,3.11,0,0,1,400.41,416.8Z"/>
  <path class="cls-37" d="M426,386.31a1.66,1.66,0,1,1-1.66-1.66A1.66,1.66,0,0,1,426,386.31Z"/>
  <path class="cls-37" d="M416.45,361.43a1.66,1.66,0,1,1-1.66-1.66A1.66,1.66,0,0,1,416.45,361.43Z"/>
  <path class="cls-10" d="M395.89,358.77a1.66,1.66,0,1,1-1.66-1.66A1.66,1.66,0,0,1,395.89,358.77Z"/>
  <path class="cls-10" d="M395.23,365.05a1,1,0,1,1-1-1A1,1,0,0,1,395.23,365.05Z"/>
  <path class="cls-37" d="M430.43,349.6a1.35,1.35,0,1,1-1.35-1.35A1.35,1.35,0,0,1,430.43,349.6Z"/>
  <path d="M430.43,354.43a1.35,1.35,0,1,1-1.35-1.35A1.35,1.35,0,0,1,430.43,354.43Z"/>
  <path class="cls-37" d="M430.43,359.77a1.35,1.35,0,1,1-1.35-1.35A1.35,1.35,0,0,1,430.43,359.77Z"/>
  <path class="cls-37" d="M408,357.65a1.67,1.67,0,1,1-1.67-1.66A1.66,1.66,0,0,1,408,357.65Z"/>
  <path class="cls-37" d="M409.17,374.85a.71.71,0,1,1-.71-.71A.71.71,0,0,1,409.17,374.85Z"/>
  <path class="cls-37" d="M407.73,387.46a1.37,1.37,0,1,1-1.37-1.36A1.37,1.37,0,0,1,407.73,387.46Z"/>
  <path class="cls-37" d="M407,390.23a.66.66,0,0,1-1.32,0,.66.66,0,0,1,1.32,0Z"/>
  <path class="cls-37" d="M426,394.34a1.66,1.66,0,1,1-1.66-1.66A1.66,1.66,0,0,1,426,394.34Z"/>
  <path class="cls-37" d="M418.4,402.47a1.66,1.66,0,1,1-1.66-1.66A1.66,1.66,0,0,1,418.4,402.47Z"/>
  <circle cx="430.46" cy="398.13" r="1.08"/>
  <circle class="cls-37" cx="430.46" cy="394.59" r="1.08"/>
  <circle cx="430.46" cy="391.04" r="1.08"/>
  <path d="M431.71,378.49a.68.68,0,1,1-.68-.68A.68.68,0,0,1,431.71,378.49Z"/>
  <path d="M431.71,374.85a.68.68,0,1,1-.68-.67A.68.68,0,0,1,431.71,374.85Z"/>
  <path d="M398.16,351a.68.68,0,1,1-.68-.68A.68.68,0,0,1,398.16,351Z"/>
  <path d="M428.49,339.48a.68.68,0,1,1-.68-.68A.68.68,0,0,1,428.49,339.48Z"/>
  <path d="M431.71,386.63A.68.68,0,1,1,431,386,.69.69,0,0,1,431.71,386.63Z"/>
  <path d="M431.94,420.75a.68.68,0,1,1-.68-.68A.68.68,0,0,1,431.94,420.75Z"/>
  <path d="M453.14,411.64a.68.68,0,1,1-1.36,0,.68.68,0,1,1,1.36,0Z"/>
  <path d="M440.77,418.71a.68.68,0,1,1-.68-.68A.68.68,0,0,1,440.77,418.71Z"/>
  <path d="M435.87,429.55a.68.68,0,1,1-.68-.68A.68.68,0,0,1,435.87,429.55Z"/>
  <path d="M428.49,433.09a.68.68,0,1,1-.68-.68A.68.68,0,0,1,428.49,433.09Z"/>
  <path d="M417.57,454.75a.94.94,0,1,1-.94-.94A.94.94,0,0,1,417.57,454.75Z"/>
  <path d="M413.8,442.1a1.35,1.35,0,1,1-1.35-1.35A1.35,1.35,0,0,1,413.8,442.1Z"/>
  <path d="M409.55,432.41a.68.68,0,1,1-.68-.68A.68.68,0,0,1,409.55,432.41Z"/>
  <circle cx="419.83" cy="367.16" r="1.08"/>
  <circle cx="423.31" cy="367.16" r="1.08"/>
  <circle cx="426.81" cy="367.16" r="1.08"/>
  <path class="cls-37" d="M425,419.09a1.66,1.66,0,1,1-1.66-1.67A1.66,1.66,0,0,1,425,419.09Z"/>
  <path d="M444.52,344.94a1.88,1.88,0,1,1-1.88-1.87A1.88,1.88,0,0,1,444.52,344.94Z"/>
  <path class="cls-37" d="M444.52,351.46a1.88,1.88,0,1,1-1.88-1.88A1.88,1.88,0,0,1,444.52,351.46Z"/>
  <path d="M444.52,358.31a1.88,1.88,0,1,1-1.88-1.88A1.88,1.88,0,0,1,444.52,358.31Z"/>
  <path d="M444.52,401.14a1.88,1.88,0,1,1-1.88-1.88A1.88,1.88,0,0,1,444.52,401.14Z"/>
  <path class="cls-37" d="M415.68,379.29a.69.69,0,0,1-.75.57h0c-.42,0-.76-.26-.76-.57v-11.9c0-.31.34-.57.76-.57h0a.69.69,0,0,1,.75.57Z"/>
  <g>
    <polygon points="465.45 327.3 461.29 330.07 461.29 335.83 465.45 333.4 465.45 327.3"/>
    <polygon class="cls-37" points="457.96 332.24 453.8 335.01 453.8 340.77 457.96 338.33 457.96 332.24"/>
    <rect x="465.12" y="350.49" width="7.84" height="7.28"/>
    <rect x="460.43" y="366.88" width="5.62" height="4.75"/>
    <rect x="467.41" y="381.7" width="4.57" height="4.22"/>
    <rect x="469.77" y="371.53" width="4.26" height="7.28"/>
  </g>
  <rect x="469.89" y="321.18" width="1.42" height="22.81"/>
  <path class="cls-37" d="M463,343a1.66,1.66,0,1,1-1.66-1.66A1.66,1.66,0,0,1,463,343Z"/>
  <path class="cls-37" d="M476.44,324.64a1.35,1.35,0,1,1-1.35-1.35A1.35,1.35,0,0,1,476.44,324.64Z"/>
  <path d="M476.44,330.22a1.35,1.35,0,1,1-1.35-1.35A1.35,1.35,0,0,1,476.44,330.22Z"/>
  <path class="cls-37" d="M476.44,335.56a1.35,1.35,0,1,1-1.35-1.35A1.35,1.35,0,0,1,476.44,335.56Z"/>
  <path class="cls-37" d="M462.18,360.8a.68.68,0,0,1-.75.57h0c-.42,0-.76-.25-.76-.57V348.91a.69.69,0,0,1,.76-.58h0a.68.68,0,0,1,.75.58Z"/>
  <path class="cls-37" d="M443.4,377.44c0,.32-.34.57-.76.57h0a.68.68,0,0,1-.75-.57V365.55a.68.68,0,0,1,.75-.58h0a.69.69,0,0,1,.76.58Z"/>
  <path class="cls-37" d="M451.27,458.7c0,.55-.33,1-.75,1h0a.91.91,0,0,1-.76-1V438c0-.56.34-1,.76-1h0c.42,0,.75.44.75,1Z"/>
  <path class="cls-37" d="M413.13,428.57c0,.25-.34.46-.76.46h0c-.42,0-.75-.21-.75-.46v-9.41c0-.25.33-.45.75-.45h0c.42,0,.76.2.76.45Z"/>
  <path class="cls-37" d="M421.63,361.46a.69.69,0,0,1-.76.58h0a.69.69,0,0,1-.76-.58V349.57c0-.32.34-.57.76-.57h0c.42,0,.76.25.76.57Z"/>
  <path class="cls-37" d="M424.29,414.92a.87.87,0,0,1-.87.87h0a.87.87,0,0,1-.88-.87v-5.11a.87.87,0,0,1,.88-.88h0a.87.87,0,0,1,.87.88Z"/>
  <polyline class="cls-16" points="433.18 387.31 427.81 389.95 427.81 424.72"/>
  <polyline class="cls-12" points="410.56 349 410.56 384.85 433.18 376.45"/>
  <rect x="407.56" y="371.83" width="2.63" height="1.93"/>
  <rect x="429.66" y="415.61" width="1.6" height="1.81"/>
  <rect x="426.65" y="389.7" width="1.17" height="35.76"/>
  <rect x="409.4" y="349" width="1.17" height="36.33"/>
  <rect x="426.51" y="388.2" width="6.79" height="0.95" transform="translate(-127.75 230.85) rotate(-26.31)"/>
  <rect x="415.01" y="395.59" width="3.46" height="2.92"/>
  <rect x="428.17" y="381.14" width="3.45" height="2.92"/>
  <polygon points="457.96 344.61 452.62 348.23 452.62 352.75 457.96 349.13 457.96 344.61"/>
  <polygon points="457.96 358.73 448.81 365.98 448.81 370.5 457.96 363.25 457.96 358.73"/>
  <rect x="415.01" y="406.44" width="3.46" height="2.92"/>
  <g>
    <path class="cls-37" d="M431.25,413.61a.68.68,0,0,1-.75.57h0c-.42,0-.76-.26-.76-.57V401.72a.69.69,0,0,1,.76-.58h0a.68.68,0,0,1,.75.58Z"/>
    <rect x="429.74" y="402.47" width="1.51" height="2.06"/>
    <rect x="429.74" y="406.54" width="1.51" height="2.06"/>
    <rect x="429.74" y="410.61" width="1.51" height="2.06"/>
  </g>
  <g>
    <path class="cls-37" d="M456.75,383.74c0,.38-.54.69-1.2.69h0c-.67,0-1.2-.31-1.2-.69V369.33c0-.39.53-.7,1.2-.7h0c.66,0,1.2.31,1.2.7Z"/>
    <rect x="454.35" y="370.24" width="2.4" height="2.5"/>
    <rect x="454.35" y="375.17" width="2.4" height="2.5"/>
    <rect x="454.35" y="380.1" width="2.4" height="2.5"/>
  </g>
  <polyline class="cls-41" points="407.09 430.93 410.87 429.2 410.87 433.04"/>
  <g>
    <path class="cls-19" d="M404.74,328.54h-.47c0-.05,0-.1,0-.15a37.84,37.84,0,0,1,.48-5.72,23.09,23.09,0,0,1,.84-3.09.88.88,0,0,1,.05-.15.37.37,0,0,0,0-.4.7.7,0,0,1-.06-.63c.29-.85.59-1.69.89-2.53a.7.7,0,0,1,.58-.47.17.17,0,0,0,.17-.14.61.61,0,0,1,.09-.18.2.2,0,0,1,.3-.09.23.23,0,0,1,.13.31.39.39,0,0,0,.05.5.73.73,0,0,1,.05.66l-.87,2.46a.7.7,0,0,1-.66.5.14.14,0,0,0-.15.13,19.72,19.72,0,0,0-1,3.95c-.11.94-.2,1.89-.27,2.84C404.78,327.07,404.77,327.8,404.74,328.54Z"/>
    <path class="cls-19" d="M404,328.54h-.5v-.42a32.69,32.69,0,0,0-.51-4.84,19.79,19.79,0,0,0-.85-2.94.25.25,0,0,0-.16-.12.77.77,0,0,1-.62-.47c-.35-.72-.71-1.44-1.07-2.16a.87.87,0,0,1,.1-1.08.06.06,0,0,0,0,0q-.13-.3.06-.42c.14-.09.25,0,.37.16a.29.29,0,0,0,.16.11.73.73,0,0,1,.57.41c.39.78.78,1.56,1.15,2.34a.78.78,0,0,1-.07.84.21.21,0,0,0,0,.24,20,20,0,0,1,1.21,5.42c.08.9.13,1.82.19,2.73Z"/>
    <path class="cls-19" d="M408.9,325.17c-.13-.11-.24-.23-.38-.33a8.8,8.8,0,0,0-.9-.6,1.58,1.58,0,0,0-1.26-.05.3.3,0,0,0-.13.16,21.22,21.22,0,0,0-.44,3.07c0,.37,0,.74-.06,1.12h-.48v-.18a41.48,41.48,0,0,1,.35-4.86.16.16,0,0,1,.14-.17,2.24,2.24,0,0,1,2.06.48,10.89,10.89,0,0,1,1,1.06,1.84,1.84,0,0,1,.15.28S408.91,325.17,408.9,325.17Z"/>
    <path class="cls-19" d="M406.48,328.54h-.25a22,22,0,0,1,.26-2.93,1.39,1.39,0,0,1,1.67,1.14c-.19-.12-.38-.26-.58-.36-.54-.28-.71-.22-.86.4-.11.47-.16,1-.23,1.45A2.91,2.91,0,0,0,406.48,328.54Z"/>
    <path class="cls-19" d="M403.11,328.53c-.26,0-.26,0-.3-.19a2,2,0,0,0-.09-.42.4.4,0,0,0-.45-.31,1,1,0,0,0-.7.36l0,0a2.65,2.65,0,0,1,.11-.3.81.81,0,0,1,.68-.39,4.78,4.78,0,0,1,.65.07s.08.07.09.11C403.08,327.8,403.09,328.16,403.11,328.53Z"/>
  </g>
  <g>
    <path class="cls-19" d="M398.22,331.06H398V331a21,21,0,0,1,.27-3.26,15.25,15.25,0,0,1,.48-1.76l0-.08a.21.21,0,0,0,0-.23.41.41,0,0,1,0-.36l.51-1.44a.42.42,0,0,1,.33-.27c.06,0,.08,0,.1-.08a.42.42,0,0,1,0-.1.13.13,0,0,1,.18-.05c.07,0,.11.11.07.17a.24.24,0,0,0,0,.29.46.46,0,0,1,0,.38c-.16.46-.33.93-.5,1.4a.38.38,0,0,1-.37.28c-.06,0-.07,0-.09.08a11.32,11.32,0,0,0-.57,2.24q-.09.81-.15,1.62C398.25,330.21,398.24,330.63,398.22,331.06Z"/>
    <path class="cls-19" d="M397.8,331.05h-.29a1.92,1.92,0,0,0,0-.24,17,17,0,0,0-.29-2.75,10.34,10.34,0,0,0-.48-1.67.13.13,0,0,0-.09-.07.44.44,0,0,1-.35-.27l-.61-1.23a.48.48,0,0,1,.06-.61v0q-.08-.17,0-.24c.08-.05.15,0,.22.1a.2.2,0,0,0,.09.06.4.4,0,0,1,.32.23l.66,1.34a.45.45,0,0,1,0,.47.12.12,0,0,0,0,.14,11.58,11.58,0,0,1,.7,3.08c0,.52.07,1,.1,1.55Z"/>
    <path class="cls-19" d="M400.59,329.14a1.3,1.3,0,0,0-.22-.19,3.48,3.48,0,0,0-.51-.34.84.84,0,0,0-.71,0,.12.12,0,0,0-.08.09,11.35,11.35,0,0,0-.25,1.75l0,.63h-.28V331a23.45,23.45,0,0,1,.2-2.77.1.1,0,0,1,.08-.09,1.24,1.24,0,0,1,1.17.27,6.2,6.2,0,0,1,.55.6,1.29,1.29,0,0,1,.09.16Z"/>
    <path class="cls-19" d="M399.21,331.05h-.14a13.45,13.45,0,0,1,.15-1.67.8.8,0,0,1,.95.65l-.33-.2c-.31-.16-.41-.12-.49.23s-.09.55-.13.82A1,1,0,0,0,399.21,331.05Z"/>
    <path class="cls-19" d="M397.29,331.05c-.14,0-.14,0-.17-.11a2,2,0,0,0,0-.24.25.25,0,0,0-.26-.18.63.63,0,0,0-.4.21h0a1.27,1.27,0,0,1,.06-.18.43.43,0,0,1,.38-.21,2.22,2.22,0,0,1,.37,0,.09.09,0,0,1,.05.07C397.28,330.63,397.28,330.84,397.29,331.05Z"/>
  </g>
  <g>
    <path class="cls-19" d="M374.1,335.32h-.22v-.07a17.7,17.7,0,0,1,.22-2.62,11.27,11.27,0,0,1,.38-1.41l0-.07a.15.15,0,0,0,0-.18.33.33,0,0,1,0-.29l.41-1.16a.33.33,0,0,1,.27-.21s.06,0,.07-.07l0-.08a.11.11,0,0,1,.2.1.18.18,0,0,0,0,.23.35.35,0,0,1,0,.3c-.14.38-.27.75-.4,1.13a.34.34,0,0,1-.3.23c-.05,0-.06,0-.07.06a9,9,0,0,0-.46,1.8c0,.43-.09.86-.12,1.3S374.12,335,374.1,335.32Z"/>
    <path class="cls-19" d="M373.76,335.31h-.23a1.2,1.2,0,0,0,0-.19,13.69,13.69,0,0,0-.23-2.21,8.6,8.6,0,0,0-.39-1.34.09.09,0,0,0-.07-.06.36.36,0,0,1-.28-.21l-.49-1a.38.38,0,0,1,.05-.49v0c0-.09,0-.16,0-.2s.12,0,.18.08a.13.13,0,0,0,.07.05.34.34,0,0,1,.26.18l.53,1.08a.35.35,0,0,1,0,.38.11.11,0,0,0,0,.11,9.43,9.43,0,0,1,.56,2.47c0,.42.06.84.08,1.25A.41.41,0,0,1,373.76,335.31Z"/>
    <path class="cls-19" d="M376,333.77c-.06,0-.11-.11-.17-.15s-.27-.19-.41-.27a.73.73,0,0,0-.58,0,.17.17,0,0,0-.06.08,11,11,0,0,0-.2,1.4l0,.51h-.22v-.08a20.53,20.53,0,0,1,.16-2.22c0-.05,0-.07.07-.08a1,1,0,0,1,.94.22,5,5,0,0,1,.44.48.83.83,0,0,1,.07.13Z"/>
    <path class="cls-19" d="M374.9,335.31h-.12a10.11,10.11,0,0,1,.12-1.34.65.65,0,0,1,.77.52l-.27-.16c-.25-.13-.33-.1-.39.18s-.08.44-.11.67Z"/>
    <path class="cls-19" d="M373.36,335.31c-.12,0-.12,0-.14-.09a1.29,1.29,0,0,0,0-.19.18.18,0,0,0-.21-.14.52.52,0,0,0-.32.16h0a1.47,1.47,0,0,1,.06-.14.36.36,0,0,1,.31-.17l.29,0s0,0,0,.05Z"/>
  </g>
  <g>
    <polygon class="cls-19" points="268.69 304.98 285.98 268.59 295.34 280.17 306.47 255.35 317.32 263.48 323.02 277.86 324.64 277.45 330.98 264.3 346.08 279.2 347.57 291.43 354.51 303.42 320.99 309.89 303.02 309.66 268.69 304.98"/>
    <polyline class="cls-42" points="265.92 308.97 285.92 271.3 293.82 282.47 305.53 257.32 316.32 263.8 321.48 281.47 329.64 265.75 338.27 274.7 343.65 278.97 346.47 294.38 352.5 306.43"/>
    <polygon class="cls-15" points="289.85 292.92 285.18 282.42 285.92 271.3 297.31 285.95 289.85 292.92"/>
    <polygon class="cls-15" points="311.76 275.86 304.85 268.45 305.58 257.32 316.32 263.8 311.76 275.86"/>
    <polygon class="cls-15" points="315.24 282.11 311.76 275.86 316.32 263.8 321.48 281.47 315.24 282.11"/>
    <polygon class="cls-15" points="285.18 295.05 297.31 285.95 295.18 295.42 303.35 307.92 285.18 295.05"/>
    <polygon points="315.38 282.1 309.6 288.59 311.76 275.86 315.38 282.1"/>
    <polygon class="cls-15" points="328.51 265.75 333.97 285.95 328.51 293.54 320.36 307.92 333.97 299.76 351.37 306.43 345.35 294.38 342.52 278.97 328.51 265.75"/>
  </g>
  <g>
    <polygon class="cls-19" points="216.16 316.94 228.58 290.79 235.31 299.11 244.66 281.77 251.09 287.13 255.19 297.46 256.36 297.17 260.91 287.71 271.76 298.42 272.83 307.2 277.81 315.82 253.74 320.47 240.82 320.31 216.16 316.94"/>
    <polyline class="cls-42" points="214.05 320.33 228.41 293.27 234.09 301.29 242.5 283.23 250.25 287.88 253.97 300.57 259.83 289.28 266.03 295.71 269.89 298.78 271.92 309.85 276.25 318.51"/>
    <polygon class="cls-15" points="231.24 308.8 227.89 301.26 228.41 293.27 236.6 303.8 231.24 308.8"/>
    <polygon class="cls-15" points="246.99 296.55 242.01 291.22 242.54 283.23 250.25 287.88 246.99 296.55"/>
    <polygon class="cls-15" points="249.49 301.04 246.99 296.55 250.25 287.88 253.97 300.57 249.49 301.04"/>
    <polygon class="cls-15" points="227.89 310.33 236.6 303.8 235.07 310.6 240.94 319.58 227.89 310.33"/>
    <polygon points="249.58 301.03 245.43 305.69 246.99 296.55 249.58 301.03"/>
    <polygon class="cls-15" points="259.02 289.28 262.94 303.8 259.02 309.24 253.16 319.58 262.94 313.71 275.44 318.51 271.11 309.85 269.08 298.78 259.02 289.28"/>
  </g>
  <g>
    <polygon class="cls-19" points="263.78 333.96 280.61 298.53 289.72 309.81 302.4 286.3 311.11 293.56 316.66 307.56 318.24 307.17 324.41 294.36 339.11 308.87 340.56 320.77 347.31 332.44 314.69 338.74 297.19 338.52 263.78 333.96"/>
    <polyline class="cls-42" points="263.03 334.92 282.49 298.26 290.18 309.13 301.58 284.65 312.08 290.96 317.11 308.15 325.05 292.85 333.45 301.56 338.69 305.72 341.44 320.72 347.3 332.45"/>
    <polygon class="cls-15" points="286.32 319.3 281.78 309.08 282.49 298.26 293.58 312.52 286.32 319.3"/>
    <polygon class="cls-15" points="307.65 302.7 300.92 295.48 301.64 284.65 312.08 290.96 307.65 302.7"/>
    <polygon class="cls-15" points="311.04 308.78 307.65 302.7 312.08 290.96 317.11 308.15 311.04 308.78"/>
    <polygon class="cls-15" points="281.78 321.37 293.58 312.52 291.51 321.74 299.46 333.9 281.78 321.37"/>
    <polygon points="311.17 308.77 305.54 315.08 307.65 302.7 311.17 308.77"/>
    <polygon class="cls-15" points="323.95 292.85 329.27 312.52 323.95 319.9 316.02 333.9 329.27 325.95 346.21 332.45 341.01 320.5 338.76 306.14 323.95 292.85"/>
  </g>
  <rect class="cls-37" x="462.95" y="369.57" width="5.27" height="2.06"/>
  <rect class="cls-37" x="465.12" y="353.82" width="5.27" height="2.06"/>
  <rect class="cls-37" x="465.12" y="355.78" width="3.1" height="13.8"/>
  <rect x="456.75" y="349" width="1.22" height="14.4"/>
  <line class="cls-16" x1="437.98" y1="341.99" x2="447.31" y2="341.99"/>
  <line class="cls-16" x1="437.98" y1="397.05" x2="447.31" y2="397.05"/>
  <polyline class="cls-16" points="448.07 346.82 466.05 336.46 466.03 347.08 478.04 339.06"/>
  <line class="cls-11" x1="423.93" y1="432.72" x2="436.96" y2="426.37"/>
  <rect x="453.49" y="408.59" width="1.72" height="43.79"/>
  <path d="M452.46,417.68a2.16,2.16,0,1,1-2.16-2.16A2.16,2.16,0,0,1,452.46,417.68Z"/>
  <path class="cls-37" d="M452.46,425.16A2.16,2.16,0,1,1,450.3,423,2.16,2.16,0,0,1,452.46,425.16Z"/>
  <path d="M452.46,433a2.16,2.16,0,1,1-2.16-2.16A2.16,2.16,0,0,1,452.46,433Z"/>
  <polyline class="cls-12" points="407.56 415.79 420.91 410.61 420.91 428.22"/>
  <g>
    <g>
      <path class="cls-10" d="M514.58,439.06S502,424.77,502.46,411.88c0,0-16.68-5.05-15.16,11.12,0,0-6.57-20.38-13.39-33.68L460.77,377s-12.12-.2-10.86,11L457,399.54l8.58,22.7,4.8,26.65-27.53-2.27-22,20.06-1.26,15.44-1.14,12.12-2.36,6.32,14.61,17.93,17.43-4.8s3.54,40.42,29.31,33.6c0,0,35.62-.5,43.95-35.62Z"/>
      <path d="M471.83,549.63h0c-19.22,0-24.05-26.54-25-34l-16.65,4.59-15.82-19.42,2.6-7L418,482l1.32-16L442.29,445l26.19,2.16-4.42-24.51-8.48-22.43-7.18-11.69,0-.35c-.4-3.61.4-6.56,2.38-8.78,3.46-3.87,9.33-4,10-4h.62l.49.42,13.34,12.51.12.24c4.38,8.54,8.68,20.06,11.21,27.23a9.22,9.22,0,0,1,1.81-3c1.95-2.15,5-3.28,8.72-3.28a22.59,22.59,0,0,1,5.87.81l1.15.35,0,1.21c-.48,12.09,11.61,25.94,11.73,26.07l.34.39L523,511.78l-.06.25c-8.18,34.48-42.27,36.69-45.25,36.81A23.45,23.45,0,0,1,471.83,549.63Zm-22.3-37.94.17,1.87c0,.33,3.12,33,22.13,33a20.56,20.56,0,0,0,5.22-.73l.37,0c1.41,0,34.35-.93,42.41-34.17l-6.75-71.86c-2-2.38-11.94-14.68-12.19-26.59a19.5,19.5,0,0,0-3.85-.41c-2.89,0-5.05.76-6.42,2.26-1.51,1.66-2.1,4.31-1.77,7.9L490.18,437l-4.36-13.54c-.07-.2-6.53-20.17-13.17-33.21l-12.47-11.7c-1.39.09-5,.56-7.12,2.92a7.71,7.71,0,0,0-1.63,6l7,11.48,8.66,23,5.16,28.64-28.88-2.38-21,19.18-1.22,14.83L420,494.59l-2.12,5.68,13.41,16.45Z"/>
    </g>
    <polygon points="420.45 489.19 417.51 488.16 422.88 472.78 447.5 460.86 469.19 467.17 468.32 470.17 447.78 464.19 425.4 475.03 420.45 489.19"/>
    <polygon points="418.4 498.66 415.92 496.77 427.7 481.26 455.82 483.09 455.62 486.2 429.17 484.48 418.4 498.66"/>
    <rect x="487.63" y="422.83" width="3.12" height="21.8" transform="translate(-67.93 91.61) rotate(-10.01)"/>
    <rect x="495.72" y="440.82" width="3.12" height="14.13" transform="translate(-134.99 667.24) rotate(-61.14)"/>
  </g>
  <line class="cls-43" x1="443.88" y1="332.59" x2="453.38" y2="332.59"/>
  <line class="cls-43" x1="462.18" y1="319.87" x2="471.69" y2="319.87"/>
  <polygon points="455.3 351.98 454.35 352.65 454.35 354.19 455.3 353.51 455.3 351.98"/>
  <polygon class="cls-37" points="455.45 354.58 453.24 356.15 453.24 359.71 455.45 358.14 455.45 354.58"/>
  <rect x="470.84" y="358.43" width="2.13" height="5.41"/>
  <path class="cls-4" d="M397.3,501.21c0,.59-1.27,1.07-2.83,1.07h-.56c-1.57,0-2.84-.48-2.84-1.07V490.83c0-.6,1.27-1.08,2.84-1.08h.56c1.56,0,2.83.48,2.83,1.08Z"/>
  <rect x="378.7" y="467.42" width="0.84" height="5.42"/>
  <path class="cls-37" d="M380.79,466.21a1.67,1.67,0,1,1-1.67-1.66A1.67,1.67,0,0,1,380.79,466.21Z"/>
  <path class="cls-37" d="M380.79,474.24a1.67,1.67,0,1,1-1.67-1.66A1.67,1.67,0,0,1,380.79,474.24Z"/>
  <path d="M407.48,507.33a.85.85,0,0,1-.84.84.84.84,0,0,1,0-1.68A.85.85,0,0,1,407.48,507.33Z"/>
  <path d="M380.85,519.56a.84.84,0,1,1-.84-.83A.83.83,0,0,1,380.85,519.56Z"/>
  <path d="M401.65,503.86a1.43,1.43,0,1,1-1.43-1.42A1.43,1.43,0,0,1,401.65,503.86Z"/>
  <path d="M377.69,481.79a1.37,1.37,0,1,1-1.37-1.37A1.37,1.37,0,0,1,377.69,481.79Z"/>
  <path class="cls-37" d="M377.69,486.54a1.37,1.37,0,1,1-1.37-1.37A1.37,1.37,0,0,1,377.69,486.54Z"/>
  <path d="M374.85,467.75a1.37,1.37,0,1,1-1.37-1.36A1.37,1.37,0,0,1,374.85,467.75Z"/>
  <path class="cls-37" d="M374.85,472.5a1.37,1.37,0,1,1-1.37-1.36A1.37,1.37,0,0,1,374.85,472.5Z"/>
  <path d="M377.69,491.53a1.37,1.37,0,1,1-1.37-1.36A1.37,1.37,0,0,1,377.69,491.53Z"/>
  <path class="cls-37" d="M386.55,512a.68.68,0,0,1-.84-.43h0a.68.68,0,0,1,.18-.93l10.69-5.22a.68.68,0,0,1,.84.43h0a.67.67,0,0,1-.18.93Z"/>
  <path class="cls-37" d="M381.53,495.31a.74.74,0,0,1-.76.71h0a.74.74,0,0,1-.76-.71V480.72a.73.73,0,0,1,.76-.7h0a.73.73,0,0,1,.76.7Z"/>
  <rect class="cls-5" x="401.86" y="456.52" width="4.16" height="4.5" rx="0.85"/>
  <rect class="cls-5" x="401.86" y="485.68" width="4.16" height="4.5" rx="0.85"/>
  <g>
    <rect class="cls-5" x="386.4" y="451.85" width="15.67" height="41.67" rx="5.67"/>
    <path class="cls-5" d="M399.29,451.06a2.75,2.75,0,0,1-2.75,2.75h-4.62a2.75,2.75,0,0,1-2.75-2.75h0a2.75,2.75,0,0,1,2.75-2.75h4.62a2.75,2.75,0,0,1,2.75,2.75Z"/>
    <path class="cls-5" d="M395.94,447.56a1.76,1.76,0,0,1-1.75,1.75h0a1.75,1.75,0,0,1-1.75-1.75v-2.29a1.75,1.75,0,0,1,1.75-1.75h0a1.75,1.75,0,0,1,1.75,1.75Z"/>
    <circle cx="398.95" cy="468.59" r="1.08"/>
    <path d="M393.72,490.18a1.08,1.08,0,1,1-1.07-1.08A1.07,1.07,0,0,1,393.72,490.18Z"/>
    <circle class="cls-37" cx="398.95" cy="465.05" r="1.08"/>
    <circle cx="398.95" cy="461.5" r="1.08"/>
    <circle cx="394.19" cy="451.23" r="1.08"/>
    <path class="cls-37" d="M399.7,484.13a.68.68,0,0,1-.75.57h0c-.42,0-.76-.26-.76-.57V472.24a.69.69,0,0,1,.76-.58h0a.68.68,0,0,1,.75.58Z"/>
    <g>
      <path class="cls-37" d="M392.65,482.29a1.17,1.17,0,0,1-1.29,1h0c-.72,0-1.3-.44-1.3-1V462c0-.54.58-1,1.3-1h0a1.17,1.17,0,0,1,1.29,1Z"/>
      <rect x="390.06" y="463.29" width="2.58" height="3.52"/>
      <rect x="390.06" y="470.23" width="2.58" height="3.52"/>
      <rect x="390.06" y="477.17" width="2.58" height="3.52"/>
    </g>
    <polyline class="cls-16" points="391.92 453.81 391.92 457.74 395.94 457.74 395.94 493.5"/>
    <polyline class="cls-16" points="389.17 492.71 389.17 486.93 395.94 486.93"/>
  </g>
  <g>
    <rect class="cls-8" x="180.6" y="432.64" width="20.35" height="54.12" rx="7.36"/>
    <path class="cls-5" d="M197.35,431.61a3.57,3.57,0,0,1-3.57,3.57h-6a3.57,3.57,0,0,1-3.57-3.57h0a3.57,3.57,0,0,1,3.57-3.58h6a3.57,3.57,0,0,1,3.57,3.58Z"/>
    <path class="cls-5" d="M193,427.06a2.27,2.27,0,0,1-2.27,2.27h0a2.26,2.26,0,0,1-2.27-2.27v-3a2.27,2.27,0,0,1,2.27-2.27h0a2.27,2.27,0,0,1,2.27,2.27Z"/>
    <path d="M198.3,451.39a1.4,1.4,0,1,1-1.4-1.4A1.4,1.4,0,0,1,198.3,451.39Z"/>
    <path d="M190.12,482.43a1.41,1.41,0,1,1-1.4-1.4A1.4,1.4,0,0,1,190.12,482.43Z"/>
    <path class="cls-37" d="M198.3,446.79a1.4,1.4,0,1,1-1.4-1.41A1.4,1.4,0,0,1,198.3,446.79Z"/>
    <path d="M198.3,442.18a1.4,1.4,0,1,1-1.4-1.4A1.4,1.4,0,0,1,198.3,442.18Z"/>
    <path d="M192.12,431.83a1.4,1.4,0,1,1-1.4-1.4A1.4,1.4,0,0,1,192.12,431.83Z"/>
    <path class="cls-37" d="M197.88,469.88a.89.89,0,0,1-1,.75h0a.89.89,0,0,1-1-.75V454.44a.89.89,0,0,1,1-.75h0a.89.89,0,0,1,1,.75Z"/>
    <g>
      <path class="cls-37" d="M188.72,472.18a1.53,1.53,0,0,1-1.68,1.28h0a1.53,1.53,0,0,1-1.68-1.28V445.82a1.53,1.53,0,0,1,1.68-1.28h0a1.53,1.53,0,0,1,1.68,1.28Z"/>
      <rect x="185.36" y="447.5" width="3.35" height="4.57"/>
      <rect x="185.36" y="456.51" width="3.35" height="4.57"/>
      <rect x="185.36" y="465.53" width="3.35" height="4.57"/>
    </g>
    <polyline class="cls-16" points="187.77 435.18 187.77 440.29 192.99 440.29 192.99 486.73"/>
    <polyline class="cls-16" points="184.2 485.71 184.2 478.21 192.99 478.21"/>
  </g>
  <path class="cls-31" d="M406,458.77a14.86,14.86,0,0,1,9.84,12.89C417,484.59,406,487.93,406,487.93"/>
  <polyline class="cls-16" points="376.75 459.7 376.75 463.29 382.4 463.29 382.4 478.18 374 478.18 374 498.61"/>
  <rect class="cls-16" x="371.23" y="465.05" width="4.5" height="10.86"/>
  <polyline class="cls-16" points="434.51 334.83 434.51 419.09 441.89 415.52 441.89 439.98"/>
  <polyline points="427.81 451.85 427.81 433.09 435.19 429.55 435.19 445.89"/>
  <polygon class="cls-10" points="431.5 434.04 429.77 434.91 429.77 437.83 431.5 436.96 431.5 434.04"/>
  <polygon class="cls-10" points="393.32 375.82 395.05 376.69 395.05 392.5 393.32 392.12 393.32 375.82"/>
  <polygon class="cls-10" points="393.32 369.17 395.05 370.04 395.05 373.85 393.32 372.82 393.32 369.17"/>
  <polygon class="cls-10" points="431.5 438.5 429.77 439.37 429.77 442.29 431.5 441.42 431.5 438.5"/>
  <polygon class="cls-10" points="431.64 444.08 429.92 445.09 429.92 448.35 431.64 447 431.64 444.08"/>
  <polygon class="cls-10" points="433.77 435.61 432.91 436.03 432.91 438.95 433.77 438.54 433.77 435.61"/>
  <polygon class="cls-10" points="433.77 439.19 432.91 439.61 432.91 442.53 433.77 442.11 433.77 439.19"/>
  <polygon class="cls-10" points="433.77 443.07 432.91 443.49 432.91 446.41 433.77 445.76 433.77 443.07"/>
  <path class="cls-37" d="M434.05,433.77a.72.72,0,1,1-.71-.72A.71.71,0,0,1,434.05,433.77Z"/>
  <path d="M383.81,502.77s2.39.33,3.5,3.48l4-1.74s-1-3.27-3.77-3.68Z"/>
  <line class="cls-44" x1="403.94" y1="490.18" x2="403.94" y2="485.68"/>
  <line class="cls-44" x1="403.94" y1="461.02" x2="403.94" y2="456.52"/>
  <line class="cls-11" x1="409.4" y1="440.02" x2="419.74" y2="434.54"/>
  <line class="cls-11" x1="404.81" y1="442.97" x2="409.4" y2="442.97"/>
  <line class="cls-11" x1="417.86" y1="435.54" x2="412.9" y2="435.54"/>
  <polyline class="cls-44" points="414.57 437.29 414.57 458.77 418.47 455.68 418.47 481.91"/>
  <path class="cls-37" d="M402.92,509c.17.35.14.71-.07.81l-7.49,3.73c-.21.11-.52-.09-.69-.43h0c-.17-.34-.14-.71.07-.81l7.49-3.73c.21-.1.52.09.69.43Z"/>
  <line class="cls-16" x1="455.3" y1="419.83" x2="462.18" y2="416.52"/>
  <path class="cls-45" d="M363.61,490.18s-58.54,23.6-37.62,86.29c0,0,10.46,10,17.91-4.62,0,0-10.27-23.54,5.07-45.54"/>
  <g>
    <path class="cls-46" d="M355.55,528.16a3.15,3.15,0,0,1-3.14,3.14h-1.76a3.15,3.15,0,0,1-3.15-3.14V498.92c0-1.74,1.41-2.15,3.15-2.15h1.76c1.73,0,3.14.41,3.14,2.15Z"/>
    <path d="M355.55,498.16c0,1-1.8,1.91-4,1.91s-4-.86-4-1.91,1.81-1.91,4-1.91S355.55,497.1,355.55,498.16Z"/>
    <path class="cls-37" d="M353.63,498.16c0,.55-.94,1-2.1,1s-2.1-.45-2.1-1,.94-1,2.1-1S353.63,497.61,353.63,498.16Z"/>
    <path class="cls-10" d="M354.33,527.42a.73.73,0,0,1-.76.7h0a.73.73,0,0,1-.76-.7V512.83a.73.73,0,0,1,.76-.7h0a.73.73,0,0,1,.76.7Z"/>
    <path d="M351.47,514.41A1.37,1.37,0,1,1,350.1,513,1.37,1.37,0,0,1,351.47,514.41Z"/>
    <path d="M351.47,504.17a1.37,1.37,0,1,1-1.37-1.37A1.37,1.37,0,0,1,351.47,504.17Z"/>
    <path d="M351.47,524.16a1.37,1.37,0,1,1-1.37-1.37A1.37,1.37,0,0,1,351.47,524.16Z"/>
    <line class="cls-16" x1="350.1" y1="504.17" x2="350.1" y2="524.16"/>
    <path class="cls-10" d="M351.47,519.16a1.37,1.37,0,1,1-1.37-1.36A1.37,1.37,0,0,1,351.47,519.16Z"/>
  </g>
  <path d="M335.75,567.1a2.88,2.88,0,1,1-2.88-2.88A2.88,2.88,0,0,1,335.75,567.1Z"/>
  <path d="M335.75,542.42a2.88,2.88,0,1,1-2.88-2.88A2.88,2.88,0,0,1,335.75,542.42Z"/>
  <path d="M293.34,547.39a7.68,7.68,0,1,1-7.68-7.68A7.68,7.68,0,0,1,293.34,547.39Z"/>
  <path d="M343.94,520.12a2.88,2.88,0,1,1-2.88-2.88A2.88,2.88,0,0,1,343.94,520.12Z"/>
  <line class="cls-16" x1="189.06" y1="325.41" x2="203.33" y2="330.86"/>
  <polygon class="cls-40" points="203.58 383.3 188.81 378.3 188.81 325.56 203.58 330.45 203.58 383.3"/>
  <path class="cls-10" d="M198.83,333.78a2.93,2.93,0,1,1-2.93-2.92A2.93,2.93,0,0,1,198.83,333.78Z"/>
  <path class="cls-10" d="M197.82,342.5a1.92,1.92,0,1,1-1.92-1.92A1.92,1.92,0,0,1,197.82,342.5Z"/>
  <polygon class="cls-10" points="196.33 358.77 198.06 359.64 198.06 376.26 196.33 375.6 196.33 358.77"/>
  <polygon class="cls-10" points="196.33 352.12 198.06 352.99 198.06 356.55 196.33 355.77 196.33 352.12"/>
  <polyline class="cls-47" points="188.23 376.74 192.56 378.02 192.56 348.6 203.58 352.3"/>
  <line class="cls-16" x1="194.55" y1="320.33" x2="202.06" y2="323.2"/>
  <path d="M198.05,324.93a1,1,0,1,1-1-1A1,1,0,0,1,198.05,324.93Z"/>
  <g>
    <path class="cls-17" d="M227.61,513.62a2.6,2.6,0,0,1-2.69,2.5H207.8a2.6,2.6,0,0,1-2.69-2.5h0a2.6,2.6,0,0,1,2.69-2.5h17.12a2.6,2.6,0,0,1,2.69,2.5Z"/>
    <path class="cls-17" d="M207.95,519.62h16.83a2.83,2.83,0,0,1,2.83,2.83v31.16a2.83,2.83,0,0,1-2.83,2.83H207.95a2.83,2.83,0,0,1-2.83-2.83V522.46A2.84,2.84,0,0,1,207.95,519.62Z"/>
    <path class="cls-17" d="M211.88,521.37h9a2.83,2.83,0,0,1,2.83,2.83v9.33a2.83,2.83,0,0,1-2.83,2.83h-9a2.83,2.83,0,0,1-2.83-2.83v-9.33a2.84,2.84,0,0,1,2.84-2.84Z"/>
    <path class="cls-8" d="M219.32,544.23a2.68,2.68,0,0,1-2.69,2.68h0a2.69,2.69,0,0,1-2.69-2.68V531.56a2.7,2.7,0,0,1,2.69-2.69h0a2.69,2.69,0,0,1,2.69,2.69Z"/>
    <rect class="cls-17" x="211.57" y="516.12" width="10" height="2.92"/>
    <rect class="cls-17" x="206.44" y="516.12" width="20.38" height="3.5"/>
    <path class="cls-39" d="M188.48,485.57s22.25-7.26,18.21,25.55h19.25s.17-4.71,0-8.17c0,0,6.87-43.25-38.05-40.77C187.89,462.18,184.2,472.15,188.48,485.57Z"/>
    <path d="M218.69,496.87a2.44,2.44,0,1,1-2.44-2.44A2.43,2.43,0,0,1,218.69,496.87Z"/>
    <path d="M211.64,480.19a2.44,2.44,0,1,1-2.44-2.43A2.44,2.44,0,0,1,211.64,480.19Z"/>
  </g>
  <g>
    <path class="cls-46" d="M204.57,490.25a3.15,3.15,0,0,1-3.15,3.14h-1.75a3.15,3.15,0,0,1-3.15-3.14V461c0-1.74,1.41-2.15,3.15-2.15h1.75c1.74,0,3.15.41,3.15,2.15Z"/>
    <path d="M204.57,460.25c0,1.05-1.8,1.91-4,1.91s-4-.86-4-1.91,1.8-1.91,4-1.91S204.57,459.19,204.57,460.25Z"/>
    <path class="cls-37" d="M202.64,460.25c0,.55-.94,1-2.1,1s-2.1-.45-2.1-1,.94-1,2.1-1S202.64,459.7,202.64,460.25Z"/>
    <path class="cls-10" d="M203.34,489.51a.73.73,0,0,1-.76.7h0a.73.73,0,0,1-.75-.7V474.92a.73.73,0,0,1,.75-.7h0a.73.73,0,0,1,.76.7Z"/>
    <path d="M200.48,476.5a1.37,1.37,0,1,1-1.37-1.37A1.37,1.37,0,0,1,200.48,476.5Z"/>
    <path d="M200.48,466.25a1.37,1.37,0,1,1-1.37-1.36A1.37,1.37,0,0,1,200.48,466.25Z"/>
    <path d="M200.48,486.25a1.37,1.37,0,1,1-1.37-1.37A1.37,1.37,0,0,1,200.48,486.25Z"/>
    <line class="cls-16" x1="199.11" y1="466.26" x2="199.11" y2="486.25"/>
    <path class="cls-10" d="M200.48,481.25a1.37,1.37,0,1,1-1.37-1.36A1.37,1.37,0,0,1,200.48,481.25Z"/>
  </g>
  <g>
    <path class="cls-46" d="M195.44,485.5a3.15,3.15,0,0,1-3.15,3.15h-1.75a3.15,3.15,0,0,1-3.15-3.15V456.26c0-1.74,1.41-2.15,3.15-2.15h1.75c1.74,0,3.15.41,3.15,2.15Z"/>
    <path d="M195.44,455.5c0,1.06-1.8,1.91-4,1.91s-4-.85-4-1.91,1.8-1.91,4-1.91S195.44,454.45,195.44,455.5Z"/>
    <path class="cls-37" d="M193.52,455.5c0,.55-.94,1-2.1,1s-2.1-.45-2.1-1,.94-1,2.1-1S193.52,455,193.52,455.5Z"/>
    <path class="cls-10" d="M194.22,484.76a.74.74,0,0,1-.76.71h0a.74.74,0,0,1-.76-.71V470.17a.74.74,0,0,1,.76-.7h0a.74.74,0,0,1,.76.7Z"/>
    <path d="M191.36,471.76a1.37,1.37,0,1,1-1.37-1.37A1.38,1.38,0,0,1,191.36,471.76Z"/>
    <path d="M191.36,461.51a1.37,1.37,0,1,1-1.37-1.37A1.37,1.37,0,0,1,191.36,461.51Z"/>
    <path d="M191.36,481.5a1.37,1.37,0,1,1-1.37-1.37A1.37,1.37,0,0,1,191.36,481.5Z"/>
    <line class="cls-16" x1="189.99" y1="461.51" x2="189.99" y2="481.5"/>
    <path class="cls-10" d="M191.36,476.51a1.37,1.37,0,1,1-1.37-1.37A1.38,1.38,0,0,1,191.36,476.51Z"/>
  </g>
  <path class="cls-17" d="M294.21,537.17s8,15-3.54,21.72"/>
  <path class="cls-10" d="M283.93,544.29a1.62,1.62,0,1,1-1.62-1.62A1.63,1.63,0,0,1,283.93,544.29Z"/>
  <path class="cls-10" d="M290.8,544.29a1.62,1.62,0,1,1-1.62-1.62A1.63,1.63,0,0,1,290.8,544.29Z"/>
  <path class="cls-10" d="M283.93,550a1.62,1.62,0,1,1-1.62-1.62A1.62,1.62,0,0,1,283.93,550Z"/>
  <path class="cls-10" d="M290.8,550a1.62,1.62,0,1,1-1.62-1.62A1.62,1.62,0,0,1,290.8,550Z"/>
  <g>
    <rect x="116.06" y="355.51" width="10" height="28.3"/>
    <polygon points="130 379.57 121.06 395.04 112.13 379.57 130 379.57"/>
  </g>
  <g>
    <rect class="cls-30" x="168.37" y="420.53" width="4.03" height="11.4"/>
    <polygon class="cls-30" points="166.78 422.23 170.38 416 173.98 422.23 166.78 422.23"/>
  </g>
  <g>
    <rect class="cls-30" x="168.37" y="470.02" width="4.03" height="11.4"/>
    <polygon class="cls-30" points="166.78 471.73 170.38 465.49 173.98 471.73 166.78 471.73"/>
  </g>
  <rect x="279.82" y="252.73" width="3.92" height="11.09"/>
  <polygon points="285.28 262.16 281.78 268.22 278.28 262.16 285.28 262.16"/>
  <g>
    <rect x="258.96" y="257.88" width="5.53" height="15.64"/>
    <polygon points="266.66 271.18 261.72 279.73 256.79 271.18 266.66 271.18"/>
  </g>
  <g>
    <rect x="234.64" y="244.98" width="3.92" height="11.09"/>
    <polygon points="240.1 254.41 236.6 260.48 233.1 254.41 240.1 254.41"/>
  </g>
  <line class="cls-17" x1="180.3" y1="330.86" x2="189.06" y2="334.62"/>
  <path class="cls-17" d="M172.89,394.37s-3.78-8.16,4.7-12.26"/>
  <path class="cls-17" d="M187.39,405.27s-8.58-16.26,6.4-22.68"/>
  <path class="cls-17" d="M158.63,506.75s-8.67,5.06-2.87,12.87"/>
  <path class="cls-17" d="M164.8,502.06s6.94,3,11.16-.75"/>
  <polygon class="cls-48" points="188.81 372.62 180.41 368.85 180.41 330.86 188.81 334.62 188.81 372.62"/>
  <path class="cls-37" d="M186.32,363.44a1.64,1.64,0,1,1-1.64-1.64A1.64,1.64,0,0,1,186.32,363.44Z"/>
  <g>
    <path class="cls-37" d="M186,359.34a1.17,1.17,0,0,1-1.29,1h0a1.17,1.17,0,0,1-1.29-1V339a1.17,1.17,0,0,1,1.29-1h0a1.17,1.17,0,0,1,1.29,1Z"/>
    <rect x="183.39" y="340.33" width="2.58" height="3.52"/>
    <rect x="183.39" y="347.27" width="2.58" height="3.52"/>
    <rect x="183.39" y="354.22" width="2.58" height="3.52"/>
  </g>
  <g>
    <path class="cls-46" d="M363.61,525.47a3.15,3.15,0,0,1-3.15,3.15h-1.75a3.15,3.15,0,0,1-3.15-3.15V496.23c0-1.74,1.41-2.15,3.15-2.15h1.75c1.74,0,3.15.41,3.15,2.15Z"/>
    <path d="M363.61,495.68c0,1.06-1.8,1.91-4,1.91s-4-.85-4-1.91,1.8-1.91,4-1.91S363.61,494.63,363.61,495.68Z"/>
    <path class="cls-37" d="M361.69,495.68c0,.55-.94,1-2.1,1s-2.11-.45-2.11-1,.94-1,2.11-1S361.69,495.13,361.69,495.68Z"/>
    <path class="cls-10" d="M362.44,514.62a.73.73,0,0,1-.75.71h0a.74.74,0,0,1-.76-.71V500a.74.74,0,0,1,.76-.71h0a.73.73,0,0,1,.75.71Z"/>
    <path d="M359.58,501.62a1.37,1.37,0,1,1-1.37-1.37A1.37,1.37,0,0,1,359.58,501.62Z"/>
    <path class="cls-10" d="M359.58,506.37a1.37,1.37,0,1,1-1.37-1.37A1.37,1.37,0,0,1,359.58,506.37Z"/>
    <path d="M359.58,511.37a1.37,1.37,0,1,1-1.37-1.37A1.37,1.37,0,0,1,359.58,511.37Z"/>
    <path class="cls-10" d="M358.94,525a.73.73,0,0,1-.73.73h0a.73.73,0,0,1-.73-.73V518.3a.73.73,0,0,1,.73-.72h0a.73.73,0,0,1,.73.72Z"/>
  </g>
  <path class="cls-8" d="M201.48,104.83a8.5,8.5,0,0,1-11.07,4.69l-103-41.73a8.51,8.51,0,0,1-4.68-11.08l.53-1.32A8.5,8.5,0,0,1,94.35,50.7l103,41.73A8.5,8.5,0,0,1,202,103.5Z"/>
  <path d="M201.91,104.27c-2.06,4.93-6.89,7.61-10.78,6s-5.39-6.94-3.33-11.87,6.89-7.61,10.79-6S204,99.34,201.91,104.27Z"/>
  <g>
    <polygon class="cls-10" points="181.19 258.92 86.32 220.27 86.32 59.89 181.19 98.54 181.19 258.92"/>
    <polygon class="cls-30" points="93.82 223.24 86.32 220.28 86.32 60.49 93.82 63.49 93.82 223.24"/>
    <polygon class="cls-30" points="181.19 258.92 173.69 255.94 173.69 95.57 181.19 98.58 181.19 258.92"/>
  </g>
  <path class="cls-5" d="M205.57,105.23A2.84,2.84,0,0,1,202,107l-6.63-2.25a2.83,2.83,0,0,1-1.77-3.59h0a2.83,2.83,0,0,1,3.6-1.77l6.62,2.25a2.83,2.83,0,0,1,1.78,3.59Z"/>
  <path d="M205.56,105.34a2.21,2.21,0,1,1-.94-3.34A2.48,2.48,0,0,1,205.56,105.34Z"/>
  <path class="cls-30" d="M181.19,98.76s.79-8.54,9.1-8.68l-7.39-3c-8.3.14-9.21,8.52-9.21,8.52"/>
  <path class="cls-30" d="M93.82,63.72s1-8.82,9.32-9l-7.63-3c-8.31.14-9.19,8.81-9.19,8.81"/>
  <polyline class="cls-17" points="86.32 67.23 86.32 220.28 181.19 258.92 181.19 105.78"/>
  <polygon class="cls-30" points="189.37 392.02 196.62 394.65 196.62 392 200.56 398.19 196.62 400.86 196.62 398.62 189.37 396.16 189.37 392.02"/>
  <g>
    <path d="M105,87.46H114a2.73,2.73,0,0,1,1,2.76l-.4,6.07,3.64-.56s2.76-2.11,3.81.56c0,0,0,1.46,2,3.16,0,0-5.76,2.6-8.59,2.43l.24,17.43s8.35-3.81,9.4-6.32a18.48,18.48,0,0,1-9.16,12.72l.57,20-4.05,6.4a1.2,1.2,0,0,1-1.78,0l-6.54-7.83-.13-1.87,1.45.9,3,.1-.22-11.56-2.7,1.46s-4.32-1.46-2.59-6.43a7.72,7.72,0,0,0,5.24-4.48V102.59l-6.75.59s-2,.49-2.22-1.24L101,97.78l2.36.44s3.58-.39,3.58-2.33c0,0,1.24-5.29-2.81-5.08,0,0-1.3-.38-1.35-1.51C102.82,89.3,102.23,87.46,105,87.46Z"/>
    <path d="M136.69,86.06a1.93,1.93,0,0,1,1.62-2.65,22.38,22.38,0,0,0,4.21.49s3.19-.22,3.35,3.56l.54,8.27s9.62-2.65,11.78-5.84a1.22,1.22,0,0,1,1.83-.32s1.9,1.08,1.2,6.54l-13,5.67.54,9.94,9.4-3.14s3.62,5.62,6.05,6.11c0,0-11.34,30-39.46,34.51,0,0,28-22.36,30-33.46l-18.82,5.32s-4.38.06-5.08-2.92L141,114.58l-.65-10.26s-8.26,3.35-12-2.7c0,0-.15-.73.72-.79,0,0,7-.57,10.43-3.08C139.47,97.75,141,87.25,136.69,86.06Z"/>
    <path d="M167.51,154.79c1,.45.56-2.26.56-2.26-5-2.51-10-8.43-10-8.43-19.13-21.72-22.53-20.5-22.53-20.5-2.86-.54-2.11,2.05-2.11,2.05s10.27,7.46,23,27.55C156.4,153.2,162.81,152.61,167.51,154.79Z"/>
    <path d="M101.85,168s8.26-3,9.34-9.07c0,0,3-2.92,5.19.86C116.38,159.79,119.24,170.32,101.85,168Z"/>
    <path d="M101.85,185s10.32-7.44,13.39-16.68c0,0,3.16-1.45,3.41,0,0,0,.32,4.69,1.21,5.41,0,0-3.16,5.43-4.62,5.43l0,.85a2,2,0,0,1,1.27.73c.35.61,1.45,31.48,1.45,31.48l-1.3,6.32-1.78.27s-4.92-4.37-5-8.1l2.11.22-1.89-27.72S104.54,185.83,101.85,185Z"/>
    <path d="M120.67,159.25s-.65-3.32,2.68-2.75l2.75,1.35,3.89,1.89.65,10.45,7-2.5,2.59,2.62,1.13.73-.64,1-9.43,3.41,2.86,43.37-1.19,1.27a1.67,1.67,0,0,1-2-.65s-1.69-2.7-3.34-3l-3-38.57-2.48,1.24a4.41,4.41,0,0,1-2.1-3.59l4.83-2.35s0-10-.57-10.7C124.32,162.49,121.08,159.41,120.67,159.25Z"/>
    <path d="M119.35,191.77s3.13,1.94,1.35,12.15c0,0-1.3,10.05-1.89,11,0,0,11.47-16.1,3.19-27.77C122,187.12,118.11,187.18,119.35,191.77Z"/>
    <path d="M135.66,156s4.05,1.57,5,4.75c0,0,4,1.64,3.08-2.91C143.77,157.85,141.17,153.69,135.66,156Z"/>
    <path d="M159.32,158.18S147.9,164,141.9,164.92v-1.83s11.1-3.47,14.1-7.78a6.22,6.22,0,0,1,.76,1.67S158.75,157.37,159.32,158.18Z"/>
    <path d="M135.66,178.54s16.37-4.79,26.58-13.62a3.09,3.09,0,0,1,3.32,3.42l-10.37,5.25,1.38,1.79L158,220.2,152.27,228l-6.56-9.21h2.11l2.79,2.57s1.5.65,1.74-.65V177.62l-1.51-2.06s-12.42,6-12.69,5.84C138.15,181.4,134.74,180.16,135.66,178.54Z"/>
  </g>
  <path class="cls-37" d="M378.9,364.37a3.84,3.84,0,1,1-3.83-3.84A3.84,3.84,0,0,1,378.9,364.37Z"/>
  <path class="cls-37" d="M342.68,369a3.84,3.84,0,1,1-3.84-3.84A3.84,3.84,0,0,1,342.68,369Z"/>
  <path class="cls-37" d="M300.67,365.86a3.84,3.84,0,1,1-3.84-3.84A3.84,3.84,0,0,1,300.67,365.86Z"/>
  <path class="cls-37" d="M263.73,356.13a3.84,3.84,0,1,1-3.83-3.83A3.84,3.84,0,0,1,263.73,356.13Z"/>
  <path class="cls-37" d="M235.59,346.64a3.84,3.84,0,1,1-3.84-3.84A3.84,3.84,0,0,1,235.59,346.64Z"/>
  <path class="cls-37" d="M212.84,336.83A3.84,3.84,0,1,1,209,333,3.83,3.83,0,0,1,212.84,336.83Z"/>
  <g>
    <path class="cls-5" d="M309.44,176.06a3.84,3.84,0,1,1-3.84-3.84A3.83,3.83,0,0,1,309.44,176.06Z"/>
    <line class="cls-16" x1="305.6" y1="172.22" x2="305.6" y2="179.89"/>
    <line class="cls-16" x1="301.76" y1="176.06" x2="309.33" y2="176.06"/>
  </g>
  <g>
    <path class="cls-5" d="M365.19,176.06a3.84,3.84,0,1,1-3.84-3.84A3.83,3.83,0,0,1,365.19,176.06Z"/>
    <line class="cls-16" x1="361.35" y1="172.22" x2="361.35" y2="179.89"/>
    <line class="cls-16" x1="357.51" y1="176.06" x2="365.08" y2="176.06"/>
  </g>
  <g>
    <path class="cls-5" d="M336.49,183.93a3.84,3.84,0,1,1-3.84-3.83A3.84,3.84,0,0,1,336.49,183.93Z"/>
    <line class="cls-16" x1="332.65" y1="180.1" x2="332.65" y2="187.77"/>
    <line class="cls-16" x1="328.81" y1="183.93" x2="336.38" y2="183.93"/>
  </g>
  <path class="cls-15" d="M363.36,307c0,.4-.19.73-.43.73h-4.29c-.23,0-.42-.33-.42-.73h0c0-.41.19-.73.42-.73h4.29c.24,0,.43.32.43.73Z"/>
  <path class="cls-15" d="M352,310.13c0,.4-.19.73-.42.73H347.3c-.24,0-.43-.33-.43-.73h0c0-.41.19-.73.43-.73h4.29c.23,0,.42.32.42.73Z"/>
  <path class="cls-15" d="M351.77,316.75c0,.4-.19.73-.43.73h-4.28c-.24,0-.43-.33-.43-.73h0c0-.41.19-.74.43-.74h4.28c.24,0,.43.33.43.74Z"/>
  <path class="cls-15" d="M372.31,311.7c0,.4-.2.73-.45.73h-4.51c-.25,0-.45-.33-.45-.73h0c0-.41.2-.73.45-.73h4.51c.25,0,.45.32.45.73Z"/>
  <path class="cls-15" d="M376.74,316c0,.41-.18.74-.4.74h-4c-.23,0-.4-.33-.4-.74h0c0-.4.17-.73.4-.73h4c.22,0,.4.33.4.73Z"/>
  <path class="cls-15" d="M384.8,309c0,.41-.18.73-.4.73h-4c-.22,0-.39-.32-.39-.73h0c0-.4.17-.73.39-.73h4c.22,0,.4.33.4.73Z"/>
  <path class="cls-15" d="M360.64,301.21c0,.41-.18.73-.4.73h-4c-.22,0-.4-.32-.4-.73h0c0-.4.18-.73.4-.73h4c.22,0,.4.33.4.73Z"/>
  <path class="cls-15" d="M402.82,312.31c0,.4-.18.73-.4.73h-4c-.22,0-.4-.33-.4-.73h0c0-.4.18-.73.4-.73h4c.22,0,.4.33.4.73Z"/>
  <path class="cls-15" d="M399.11,321c0,.41-.17.73-.39.73h-4c-.22,0-.4-.32-.4-.73h0c0-.4.18-.73.4-.73h4c.22,0,.39.33.39.73Z"/>
  <path class="cls-15" d="M404.73,307c0,.4-.18.73-.4.73h-4c-.22,0-.4-.33-.4-.73h0c0-.41.18-.73.4-.73h4c.22,0,.4.32.4.73Z"/>
  <path class="cls-15" d="M391.06,316c0,.41-.18.74-.39.74h-4c-.22,0-.4-.33-.4-.74h0c0-.4.18-.73.4-.73h4c.21,0,.39.33.39.73Z"/>
  <path class="cls-15" d="M393.47,307c0,.4-.18.73-.4.73h-4c-.23,0-.4-.33-.4-.73h0c0-.41.17-.73.4-.73h4c.22,0,.4.32.4.73Z"/>
  <path class="cls-15" d="M395,301.94c0,.41-.18.73-.39.73h-4c-.22,0-.4-.32-.4-.73h0c0-.4.18-.73.4-.73h4c.21,0,.39.33.39.73Z"/>
  <path class="cls-15" d="M376.86,302.7c0,.4-.18.73-.42.73h-4.22c-.23,0-.42-.33-.42-.73h0c0-.41.19-.73.42-.73h4.22c.24,0,.42.32.42.73Z"/>
  <path class="cls-15" d="M367.79,307.1a.83.83,0,0,1-.83.82h-1a.82.82,0,0,1-.82-.82h0a.82.82,0,0,1,.82-.82h1a.83.83,0,0,1,.83.82Z"/>
  <path class="cls-15" d="M345.38,316.75a.83.83,0,0,1-.83.82H343.5a.82.82,0,0,1-.82-.82h0a.83.83,0,0,1,.82-.83h1.05a.83.83,0,0,1,.83.83Z"/>
  <path class="cls-15" d="M355.88,310.13a.83.83,0,0,1-.83.82H354a.82.82,0,0,1-.82-.82h0a.82.82,0,0,1,.82-.83h1.05a.83.83,0,0,1,.83.83Z"/>
  <path class="cls-15" d="M384.22,303.43a.82.82,0,0,1-.82.82h-1a.83.83,0,0,1-.83-.82h0a.82.82,0,0,1,.83-.82h1a.82.82,0,0,1,.82.82Z"/>
  <path class="cls-15" d="M406.6,312.52a.82.82,0,0,1-.83.82h-1a.82.82,0,0,1-.82-.82h0a.82.82,0,0,1,.82-.82h1a.83.83,0,0,1,.83.82Z"/>
  <path class="cls-15" d="M398.83,301.94a.83.83,0,0,1-.82.83H397a.83.83,0,0,1-.83-.83h0a.83.83,0,0,1,.83-.82H398a.82.82,0,0,1,.82.82Z"/>
  <path class="cls-15" d="M381.19,319.3a.82.82,0,0,1-.82.83h-1.05a.82.82,0,0,1-.82-.83h0a.82.82,0,0,1,.82-.82h1.05a.82.82,0,0,1,.82.82Z"/>
</svg>
