<svg xmlns="http://www.w3.org/2000/svg" xmlns:xlink="http://www.w3.org/1999/xlink" width="215.9mm" height="247.92mm" viewBox="0 0 612 702.78">
  <defs>
    <style>
      .cls-1, .cls-13 {
        fill: none;
      }

      .cls-1, .cls-10, .cls-3, .cls-5, .cls-6, .cls-7, .cls-9 {
        stroke: #231f20;
      }

      .cls-1, .cls-10, .cls-13, .cls-3, .cls-4 {
        stroke-miterlimit: 10;
      }

      .cls-2 {
        isolation: isolate;
      }

      .cls-3 {
        fill: #fbe6ef;
      }

      .cls-4 {
        fill: #fff0cc;
        stroke: #333;
      }

      .cls-13, .cls-4 {
        stroke-width: 2px;
      }

      .cls-5 {
        fill: #fff698;
      }

      .cls-5, .cls-6, .cls-7, .cls-9 {
        stroke-linejoin: round;
      }

      .cls-6 {
        fill: #b3d9f3;
      }

      .cls-7 {
        fill: #9bbcd3;
      }

      .cls-8 {
        fill: #231f20;
      }

      .cls-9 {
        fill: #f6f2a1;
      }

      .cls-10 {
        fill: #f9cfe1;
      }

      .cls-11 {
        clip-path: url(#clip-path);
      }

      .cls-12 {
        opacity: 0.25;
        fill: url(#radial-gradient);
      }

      .cls-12, .cls-13 {
        mix-blend-mode: screen;
      }

      .cls-13 {
        stroke: #fff;
        opacity: 0.03;
      }
    </style>
    <clipPath id="clip-path">
      <path class="cls-1" d="M519.72,1390.8c0,20.23-17.51,36.63-39.11,36.63H69.07c-21.6,0-39.11-16.4-39.11-36.63V823.93c0-20.23,17.51-36.62,39.11-36.62H480.61c21.6,0,39.11,16.39,39.11,36.62Z"/>
    </clipPath>
    <radialGradient id="radial-gradient" cx="4585.63" cy="818.55" r="178.74" gradientTransform="matrix(-0.71, -0.71, -0.71, 0.71, 4296.78, 3482.28)" gradientUnits="userSpaceOnUse">
      <stop offset="0.1"/>
      <stop offset="0.15" stop-color="#181407"/>
      <stop offset="0.2" stop-color="#2e250d"/>
      <stop offset="0.27" stop-color="#3f3312"/>
      <stop offset="0.36" stop-color="#4a3d15"/>
      <stop offset="0.47" stop-color="#514217"/>
      <stop offset="0.8" stop-color="#534418"/>
      <stop offset="1"/>
    </radialGradient>
  </defs>
  <g class="cls-2">
    <g id="Capa_1" data-name="Capa 1">
      <rect class="cls-3" width="612" height="702.78"/>
      <rect class="cls-4" x="25.33" y="19.52" width="564" height="661.82"/>
      <polygon class="cls-5" points="462.81 112.75 473.37 102.42 473.37 586.91 462.81 597.23 462.81 112.75"/>
      <polygon class="cls-5" points="253.22 460.03 390.58 460.03 343.16 510.51 205.8 510.51 253.22 460.03"/>
      <polygon class="cls-6" points="220.76 384.02 430.49 384.02 370.42 444.99 160.69 444.99 220.76 384.02"/>
      <polygon class="cls-6" points="253.22 504.91 390.58 504.91 343.16 555.39 205.8 555.39 253.22 504.91"/>
      <polygon class="cls-7" points="220.38 336.49 160.69 397.45 160.69 444.99 220.38 384.02 220.38 336.49"/>
      <polygon class="cls-6" points="52.78 235.38 113.41 299.26 113.41 338.6 52.78 274.72 52.78 235.38"/>
      <polygon class="cls-5" points="52.78 139.95 113.41 203.83 113.41 243.16 52.78 179.28 52.78 139.95"/>
      <polygon class="cls-6" points="52.78 42.73 113.41 106.61 113.41 145.95 52.78 82.07 52.78 42.73"/>
      <polygon class="cls-8" points="197.08 366.53 176.65 387.8 176.65 422.98 197.08 401.71 197.08 366.53"/>
      <polygon class="cls-6" points="473.37 616.94 505.25 616.94 505.25 102.42 505.25 101.75 505.25 70.54 241.4 70.54 193.87 70.54 193.87 186.39 193.87 186.39 193.87 233.92 389.29 233.92 389.29 281.81 436.82 281.81 436.82 186.39 389.51 186.39 389.29 186.39 241.4 186.39 241.4 102.42 473.37 102.42 473.37 585.07 138.4 585.07 138.4 403.17 193.87 403.17 193.87 371.29 106.53 371.29 106.53 371.39 106.52 371.39 106.52 585.07 106.52 616.94 473.37 616.94"/>
      <polygon class="cls-5" points="193.87 233.92 389.51 233.92 389.51 260.39 166.13 260.39 193.87 233.92"/>
      <polygon class="cls-5" points="389.51 238.76 389.51 281.81 363.04 281.81 363.04 260.39 389.51 238.76"/>
      <polygon class="cls-5" points="193.3 70.54 193.3 233.92 166.13 260.39 166.13 92.17 193.3 70.54"/>
      <polygon class="cls-6" points="138.4 413.81 183.66 413.81 193.87 403.17 138.4 403.17 138.4 413.81"/>
      <polygon class="cls-5" points="241.4 113.06 463.16 113.06 473.37 102.42 241.4 102.42 241.4 113.06"/>
      <polygon class="cls-5" points="95.96 381.62 106.52 371.29 106.52 616.94 95.96 627.27 95.96 381.62"/>
      <polygon class="cls-5" points="505.25 616.94 106.81 616.94 95.96 627.27 494.43 627.27 505.25 616.94"/>
      <rect class="cls-6" x="251.36" y="147.94" width="327.2" height="13.66"/>
      <rect class="cls-9" x="246.44" y="526.24" width="283.46" height="6.83"/>
      <rect class="cls-6" x="287.95" y="482.54" width="155.67" height="6.83"/>
      <rect class="cls-6" x="144.88" y="321.7" width="244.63" height="6.83"/>
      <rect class="cls-9" x="251.36" y="130.29" width="153.25" height="9.11"/>
      <path class="cls-10" d="M309.22,288.87a35.55,35.55,0,1,1-35.55,35.55A35.55,35.55,0,0,1,309.22,288.87Z"/>
      <rect class="cls-7" x="220.38" y="336.49" width="210.11" height="47.53"/>
      <g>
        <g class="cls-11">
          <g>
            <circle class="cls-12" cx="475.45" cy="818.55" r="178.74" transform="translate(-439.55 575.94) rotate(-45)"/>
            <polyline class="cls-13" points="416.19 909.17 389.24 1347.92 416.19 909.17 443.15 470.42 416.19 909.17 854.95 936.12 416.19 909.17 -22.56 882.21 416.19 909.17 398.21 942.36 416.19 909.17 434.18 875.97 416.19 909.17 449.39 927.15 416.19 909.17 383 891.18 416.19 909.17 409.64 918.96 416.19 909.17 422.75 899.37 416.19 909.17 425.99 915.72 416.19 909.17 406.4 902.61 416.19 909.17 94.88 1122.61 416.19 909.17 737.51 695.73 416.19 909.17 629.63 1230.48 416.19 909.17 202.76 587.85 416.19 909.17 346.88 1092.66 416.19 909.17 485.52 725.67 416.19 909.17 599.69 978.49 416.19 909.17 232.71 839.84 416.19 909.17 348.38 1240.22 416.19 909.17 484.01 578.11 416.19 909.17 747.25 976.99 416.19 909.17 85.14 841.35 416.19 909.17 404.09 975.65 416.19 909.17 428.31 842.68 416.19 909.17 482.68 921.27 416.19 909.17 349.71 897.06 416.19 909.17 397 1341.68 416.19 909.17 435.39 476.65 416.19 909.17 848.71 928.36 416.19 909.17 -16.32 889.97 416.19 909.17 322.48 1319.76 416.19 909.17 509.91 498.57 416.19 909.17 826.79 1002.88 416.19 909.17 5.6 815.45 416.19 909.17 334.19 1192.13 416.19 909.17 498.2 626.2 416.19 909.17 699.16 991.17 416.19 909.17 133.23 827.16 416.19 909.17 360.25 1193.47 416.19 909.17 472.14 624.86 416.19 909.17 700.5 965.11 416.19 909.17 131.89 853.22 416.19 909.17 415.3 1115.21 416.19 909.17 417.09 703.12 416.19 909.17 622.24 910.07 416.19 909.17 210.15 908.27 416.19 909.17 254.99 1172.98 416.19 909.17 577.4 645.36 416.19 909.17 680.01 1070.37 416.19 909.17 152.38 747.96 416.19 909.17 354.44 989.69 416.19 909.17 477.95 828.64 416.19 909.17 496.72 970.93 416.19 909.17 335.67 847.41 416.19 909.17 397.93 1193.7 416.19 909.17 434.46 624.64 416.19 909.17 700.73 927.43 416.19 909.17 131.67 890.9"/>
          </g>
        </g>
        <path class="cls-1" d="M519.72,1390.8c0,20.23-17.51,36.63-39.11,36.63H69.07c-21.6,0-39.11-16.4-39.11-36.63V823.93c0-20.23,17.51-36.62,39.11-36.62H480.61c21.6,0,39.11,16.39,39.11,36.62Z"/>
      </g>
    </g>
  </g>
</svg>
