<svg id="Capa_1" data-name="Capa 1" xmlns="http://www.w3.org/2000/svg" xmlns:xlink="http://www.w3.org/1999/xlink" width="142.46mm" height="201.48mm" viewBox="0 0 403.83 571.12">
  <defs>
    <style>
      .cls-1 {
        fill: #fff;
      }

      .cls-2 {
        fill: url(#linear-gradient);
      }

      .cls-3 {
        fill: url(#linear-gradient-2);
      }

      .cls-4 {
        fill: url(#linear-gradient-3);
      }

      .cls-5 {
        fill: url(#linear-gradient-4);
      }

      .cls-6 {
        fill: url(#linear-gradient-5);
      }

      .cls-7 {
        fill: url(#linear-gradient-6);
      }

      .cls-8 {
        fill: url(#radial-gradient);
      }

      .cls-9 {
        fill: url(#radial-gradient-2);
      }

      .cls-10 {
        fill: url(#linear-gradient-7);
      }

      .cls-11 {
        fill: url(#Degradado_sin_nombre_3);
      }

      .cls-12 {
        fill: url(#linear-gradient-8);
      }

      .cls-13 {
        fill: url(#linear-gradient-9);
      }
    </style>
    <linearGradient id="linear-gradient" x1="201.91" y1="360.7" x2="201.91" y2="7.2" gradientUnits="userSpaceOnUse">
      <stop offset="0" stop-color="#fff100"/>
      <stop offset="0.03" stop-color="#efe20b"/>
      <stop offset="0.11" stop-color="#c2b92a"/>
      <stop offset="0.2" stop-color="#9a9446"/>
      <stop offset="0.3" stop-color="#79765d"/>
      <stop offset="0.4" stop-color="#5d5c70"/>
      <stop offset="0.51" stop-color="#48497f"/>
      <stop offset="0.63" stop-color="#393b89"/>
      <stop offset="0.78" stop-color="#31338f"/>
      <stop offset="1" stop-color="#2e3191"/>
    </linearGradient>
    <linearGradient id="linear-gradient-2" x1="103.84" y1="193.78" x2="101.75" y2="313.65" gradientUnits="userSpaceOnUse">
      <stop offset="0" stop-color="#fff100"/>
      <stop offset="0.1" stop-color="#fcce15"/>
      <stop offset="0.27" stop-color="#f79c34"/>
      <stop offset="0.43" stop-color="#f3734e"/>
      <stop offset="0.58" stop-color="#f05361"/>
      <stop offset="0.73" stop-color="#ee3c70"/>
      <stop offset="0.88" stop-color="#ec2e78"/>
      <stop offset="1" stop-color="#ec297b"/>
    </linearGradient>
    <linearGradient id="linear-gradient-3" x1="304.13" y1="193.78" x2="302.04" y2="313.65" xlink:href="#linear-gradient-2"/>
    <linearGradient id="linear-gradient-4" x1="-1503.07" y1="-1103.28" x2="-1503.07" y2="-1326.12" gradientTransform="translate(-1301.38 -901.06) rotate(180)" gradientUnits="userSpaceOnUse">
      <stop offset="0" stop-color="#fff100"/>
      <stop offset="0.02" stop-color="#fee706"/>
      <stop offset="0.16" stop-color="#f9b525"/>
      <stop offset="0.29" stop-color="#f58a3f"/>
      <stop offset="0.43" stop-color="#f26755"/>
      <stop offset="0.57" stop-color="#ef4c66"/>
      <stop offset="0.71" stop-color="#ed3872"/>
      <stop offset="0.85" stop-color="#ec2d79"/>
      <stop offset="1" stop-color="#ec297b"/>
    </linearGradient>
    <linearGradient id="linear-gradient-5" x1="7.52" y1="438.17" x2="101.77" y2="438.17" xlink:href="#linear-gradient-2"/>
    <linearGradient id="linear-gradient-6" x1="-1147.28" y1="438.17" x2="-1052.35" y2="438.17" gradientTransform="matrix(-1, 0, 0, 1, -750.97, 0)" xlink:href="#linear-gradient-2"/>
    <radialGradient id="radial-gradient" cx="201.91" cy="198.15" r="28.84" gradientTransform="matrix(1, 0, 0, 1, 0, 0)" xlink:href="#linear-gradient-4"/>
    <radialGradient id="radial-gradient-2" cx="201.91" cy="146.77" r="9" gradientTransform="matrix(1, 0, 0, 1, 0, 0)" xlink:href="#linear-gradient-4"/>
    <linearGradient id="linear-gradient-7" x1="201.91" y1="124.35" x2="201.91" y2="113.6" gradientTransform="matrix(1, 0, 0, 1, 0, 0)" xlink:href="#linear-gradient-4"/>
    <linearGradient id="Degradado_sin_nombre_3" data-name="Degradado sin nombre 3" x1="201.91" y1="563.88" x2="201.91" y2="425.12" gradientUnits="userSpaceOnUse">
      <stop offset="0" stop-color="#fff100"/>
      <stop offset="0.19" stop-color="#fac11e"/>
      <stop offset="0.48" stop-color="#f48045"/>
      <stop offset="0.71" stop-color="#f05162"/>
      <stop offset="0.9" stop-color="#ed3474"/>
      <stop offset="1" stop-color="#ec297b"/>
    </linearGradient>
    <linearGradient id="linear-gradient-8" x1="-1625.35" y1="385.25" x2="-1704.16" y2="385.25" gradientTransform="matrix(-1, 0, 0, 1, -1562.99, 0)" xlink:href="#linear-gradient-2"/>
    <linearGradient id="linear-gradient-9" x1="-382.93" y1="385.93" x2="-461.96" y2="385.93" gradientTransform="translate(724.39)" xlink:href="#linear-gradient-2"/>
  </defs>
  <rect class="cls-1" width="403.83" height="571.12"/>
  <rect class="cls-2" x="7.52" y="7.2" width="388.79" height="353.5"/>
  <polygon class="cls-3" points="33.23 312.46 101.77 193.74 170.31 312.46 33.23 312.46"/>
  <polygon class="cls-4" points="233.52 312.46 302.06 193.74 370.6 312.46 233.52 312.46"/>
  <rect class="cls-5" x="140.95" y="202.22" width="121.48" height="222.84"/>
  <polygon class="cls-6" points="7.52 313.13 101.77 312.46 62.36 361.22 62.36 506.97 7.52 563.88 7.52 313.13"/>
  <polygon class="cls-7" points="396.31 313.13 301.38 312.46 340.11 361.22 341.47 506.97 396.31 563.88 396.31 313.13"/>
  <path class="cls-8" d="M230.76,198.15a28.85,28.85,0,1,1-28.85-28.84A28.85,28.85,0,0,1,230.76,198.15Z"/>
  <path class="cls-9" d="M210.92,146.77a9,9,0,1,1-9-9A9,9,0,0,1,210.92,146.77Z"/>
  <path class="cls-10" d="M207.29,119a5.38,5.38,0,1,1-5.38-5.38A5.38,5.38,0,0,1,207.29,119Z"/>
  <polygon class="cls-11" points="7.52 563.88 141.17 425.12 262.66 425.12 396.31 563.88 7.52 563.88"/>
  <polygon class="cls-12" points="141.17 263.53 101.77 312.38 62.36 361.22 62.36 506.97 141.17 424.88 141.17 263.53"/>
  <polygon class="cls-13" points="262.66 264.89 341.47 362.58 341.47 506.97 262.43 425.06 262.66 264.89"/>
</svg>
