<svg xmlns="http://www.w3.org/2000/svg" xmlns:xlink="http://www.w3.org/1999/xlink" width="178.26mm" height="178.26mm" viewBox="0 0 505.31 505.31">
  <defs>
    <style>
      .cls-1 {
        isolation: isolate;
      }

      .cls-2 {
        fill: url(#Degradado_sin_nombre_479);
      }

      .cls-3 {
        fill: url(#Degradado_sin_nombre_447);
      }

      .cls-4 {
        opacity: 0.44;
        fill: url(#Degradado_sin_nombre_19);
      }

      .cls-5 {
        fill: url(#Degradado_sin_nombre_454);
      }

      .cls-6 {
        fill: url(#Degradado_sin_nombre_430);
      }

      .cls-7 {
        fill: url(#Degradado_sin_nombre_461);
      }

      .cls-8 {
        fill: url(#Degradado_sin_nombre_4);
      }

      .cls-15, .cls-9 {
        opacity: 0.34;
      }

      .cls-9 {
        fill: url(#Degradado_sin_nombre_4-2);
      }

      .cls-10, .cls-17, .cls-18, .cls-19, .cls-20, .cls-21, .cls-22, .cls-23, .cls-24, .cls-41, .cls-45 {
        fill: none;
      }

      .cls-10, .cls-45 {
        stroke: #fff;
      }

      .cls-10, .cls-17, .cls-18, .cls-19, .cls-20, .cls-21, .cls-22, .cls-23, .cls-24, .cls-45 {
        stroke-miterlimit: 10;
      }

      .cls-10, .cls-17, .cls-18, .cls-19, .cls-20, .cls-21, .cls-22, .cls-23, .cls-24 {
        stroke-width: 0.25px;
      }

      .cls-11 {
        fill: url(#Degradado_sin_nombre_406);
      }

      .cls-12, .cls-13 {
        opacity: 0.61;
      }

      .cls-12 {
        fill: url(#Degradado_sin_nombre_87);
      }

      .cls-13 {
        fill: url(#Degradado_sin_nombre_462);
      }

      .cls-14 {
        fill: url(#Degradado_sin_nombre_165);
      }

      .cls-15 {
        fill: url(#Degradado_sin_nombre_4-3);
      }

      .cls-16 {
        fill: url(#Degradado_sin_nombre_50);
      }

      .cls-17, .cls-18, .cls-19, .cls-20, .cls-21, .cls-22, .cls-23, .cls-24 {
        opacity: 0.73;
      }

      .cls-17 {
        stroke: url(#Degradado_sin_nombre_19-2);
      }

      .cls-18 {
        stroke: url(#Degradado_sin_nombre_19-3);
      }

      .cls-19 {
        stroke: url(#Degradado_sin_nombre_19-4);
      }

      .cls-20 {
        stroke: url(#Degradado_sin_nombre_19-5);
      }

      .cls-21 {
        stroke: url(#Degradado_sin_nombre_19-6);
      }

      .cls-22 {
        stroke: url(#Degradado_sin_nombre_19-7);
      }

      .cls-23 {
        stroke: url(#Degradado_sin_nombre_19-8);
      }

      .cls-24 {
        stroke: url(#Degradado_sin_nombre_19-9);
      }

      .cls-25, .cls-26, .cls-28, .cls-29, .cls-31, .cls-32 {
        opacity: 0.78;
      }

      .cls-25 {
        fill: url(#Degradado_sin_nombre_8);
      }

      .cls-26 {
        fill: url(#Degradado_sin_nombre_141);
      }

      .cls-27 {
        opacity: 0.67;
      }

      .cls-28 {
        fill: url(#Degradado_sin_nombre_8-2);
      }

      .cls-29 {
        fill: url(#Degradado_sin_nombre_141-2);
      }

      .cls-30 {
        opacity: 0.48;
      }

      .cls-31 {
        fill: url(#Degradado_sin_nombre_8-3);
      }

      .cls-32 {
        fill: url(#Degradado_sin_nombre_141-3);
      }

      .cls-33 {
        fill: url(#Degradado_sin_nombre_8-4);
      }

      .cls-34, .cls-35, .cls-36 {
        fill: #fff;
      }

      .cls-35 {
        opacity: 0.45;
      }

      .cls-36 {
        opacity: 0.35;
      }

      .cls-37 {
        opacity: 0.25;
        fill: url(#radial-gradient);
      }

      .cls-37, .cls-38, .cls-39, .cls-40, .cls-42, .cls-43, .cls-44, .cls-45, .cls-46, .cls-47, .cls-48, .cls-49, .cls-50, .cls-51 {
        mix-blend-mode: screen;
      }

      .cls-38 {
        fill: url(#radial-gradient-2);
      }

      .cls-39 {
        fill: url(#radial-gradient-3);
      }

      .cls-40 {
        opacity: 0.2;
        fill: url(#radial-gradient-4);
      }

      .cls-42 {
        opacity: 0.15;
        fill: url(#radial-gradient-5);
      }

      .cls-43, .cls-46 {
        opacity: 0.5;
      }

      .cls-43 {
        fill: url(#radial-gradient-6);
      }

      .cls-44 {
        fill: url(#radial-gradient-7);
      }

      .cls-45 {
        stroke-width: 2px;
        opacity: 0.03;
      }

      .cls-46 {
        fill: url(#radial-gradient-8);
      }

      .cls-47 {
        fill: url(#radial-gradient-9);
      }

      .cls-48 {
        fill: url(#radial-gradient-10);
      }

      .cls-49 {
        fill: url(#radial-gradient-11);
      }

      .cls-50 {
        fill: url(#radial-gradient-12);
      }

      .cls-51 {
        fill: url(#radial-gradient-13);
      }
    </style>
    <linearGradient id="Degradado_sin_nombre_479" data-name="Degradado sin nombre 479" y1="505.31" x2="505.31" gradientUnits="userSpaceOnUse">
      <stop offset="0" stop-color="#fff"/>
      <stop offset="0.57" stop-color="#48bdd7"/>
      <stop offset="0.79" stop-color="#fff"/>
      <stop offset="1" stop-color="#388c98"/>
    </linearGradient>
    <linearGradient id="Degradado_sin_nombre_447" data-name="Degradado sin nombre 447" x1="185.36" y1="360.15" x2="185.36" y2="9.73" gradientTransform="translate(86.03) scale(0.89 1)" gradientUnits="userSpaceOnUse">
      <stop offset="0.01" stop-color="#fdc84f"/>
      <stop offset="0.06" stop-color="#f3c753"/>
      <stop offset="0.13" stop-color="#d9c55e"/>
      <stop offset="0.21" stop-color="#aec170"/>
      <stop offset="0.32" stop-color="#72bc88"/>
      <stop offset="0.34" stop-color="#67bb8d"/>
      <stop offset="0.47" stop-color="#5abcac"/>
      <stop offset="0.64" stop-color="#48bdd7"/>
      <stop offset="0.72" stop-color="#37a7bf"/>
      <stop offset="0.88" stop-color="#177c92"/>
      <stop offset="0.97" stop-color="#0a6b81"/>
    </linearGradient>
    <linearGradient id="Degradado_sin_nombre_19" data-name="Degradado sin nombre 19" x1="8.33" y1="252.72" x2="494.31" y2="252.72" gradientUnits="userSpaceOnUse">
      <stop offset="0" stop-color="#fff" stop-opacity="0"/>
      <stop offset="1" stop-color="#fff"/>
    </linearGradient>
    <linearGradient id="Degradado_sin_nombre_454" data-name="Degradado sin nombre 454" x1="309.55" y1="324.92" x2="307.77" y2="273.78" gradientUnits="userSpaceOnUse">
      <stop offset="0.04" stop-color="#1eaa35"/>
      <stop offset="0.21" stop-color="#41b748"/>
      <stop offset="0.59" stop-color="#99d87a"/>
      <stop offset="1" stop-color="#ffffb3"/>
    </linearGradient>
    <linearGradient id="Degradado_sin_nombre_430" data-name="Degradado sin nombre 430" x1="185.36" y1="414.63" x2="185.36" y2="316.46" gradientTransform="translate(86.03) scale(0.89 1)" gradientUnits="userSpaceOnUse">
      <stop offset="0" stop-color="#fff"/>
      <stop offset="0.47" stop-color="#69c9c0"/>
      <stop offset="1" stop-color="#388c98"/>
    </linearGradient>
    <linearGradient id="Degradado_sin_nombre_461" data-name="Degradado sin nombre 461" x1="8.33" y1="164.13" x2="178.6" y2="164.13" gradientUnits="userSpaceOnUse">
      <stop offset="0" stop-color="#fff" stop-opacity="0"/>
      <stop offset="0.13" stop-color="#fffff2" stop-opacity="0.17"/>
      <stop offset="0.37" stop-color="#ffffdc" stop-opacity="0.46"/>
      <stop offset="0.59" stop-color="#ffffcb" stop-opacity="0.69"/>
      <stop offset="0.77" stop-color="#ffffbf" stop-opacity="0.86"/>
      <stop offset="0.92" stop-color="#ffffb7" stop-opacity="0.96"/>
      <stop offset="1" stop-color="#ffffb4"/>
    </linearGradient>
    <linearGradient id="Degradado_sin_nombre_4" data-name="Degradado sin nombre 4" x1="79.56" y1="316.48" x2="79.56" y2="288.68" gradientUnits="userSpaceOnUse">
      <stop offset="0" stop-color="#3aaa35"/>
      <stop offset="1" stop-color="#fff"/>
    </linearGradient>
    <linearGradient id="Degradado_sin_nombre_4-2" x1="79.56" y1="3228.78" x2="79.56" y2="3200.98" gradientTransform="matrix(1, 0, 0, -0.73, 0, 2677.17)" xlink:href="#Degradado_sin_nombre_4"/>
    <linearGradient id="Degradado_sin_nombre_406" data-name="Degradado sin nombre 406" x1="251.32" y1="377.37" x2="251.32" y2="295.56" gradientUnits="userSpaceOnUse">
      <stop offset="0.06" stop-color="#fff"/>
      <stop offset="0.54" stop-color="#48bdd7"/>
      <stop offset="1" stop-color="#388c98"/>
    </linearGradient>
    <linearGradient id="Degradado_sin_nombre_87" data-name="Degradado sin nombre 87" x1="251.32" y1="2818.68" x2="251.32" y2="2777.78" gradientTransform="matrix(1, 0, 0, -0.96, 0, 3085.71)" gradientUnits="userSpaceOnUse">
      <stop offset="0.09" stop-color="#fff"/>
      <stop offset="0.57" stop-color="#48bdd7" stop-opacity="0.3"/>
      <stop offset="1" stop-color="#388c98" stop-opacity="0"/>
    </linearGradient>
    <linearGradient id="Degradado_sin_nombre_462" data-name="Degradado sin nombre 462" x1="325.58" y1="118.28" x2="494.31" y2="118.28" gradientUnits="userSpaceOnUse">
      <stop offset="0" stop-color="#fff" stop-opacity="0"/>
      <stop offset="0.02" stop-color="#fffffd" stop-opacity="0.04"/>
      <stop offset="0.13" stop-color="#fffff3" stop-opacity="0.26"/>
      <stop offset="0.25" stop-color="#ffffea" stop-opacity="0.46"/>
      <stop offset="0.37" stop-color="#ffffe3" stop-opacity="0.63"/>
      <stop offset="0.49" stop-color="#ffd" stop-opacity="0.76"/>
      <stop offset="0.61" stop-color="#ffffd8" stop-opacity="0.87"/>
      <stop offset="0.74" stop-color="#ffffd5" stop-opacity="0.94"/>
      <stop offset="0.87" stop-color="#ffffd3" stop-opacity="0.99"/>
      <stop offset="1" stop-color="#ffffd2"/>
    </linearGradient>
    <linearGradient id="Degradado_sin_nombre_165" data-name="Degradado sin nombre 165" x1="378.95" y1="316.46" x2="378.95" y2="295.78" gradientTransform="translate(86.03) scale(0.89 1)" gradientUnits="userSpaceOnUse">
      <stop offset="0" stop-color="#3aaa35"/>
      <stop offset="0.11" stop-color="#40ad3b"/>
      <stop offset="0.25" stop-color="#52b44d"/>
      <stop offset="0.42" stop-color="#6ec16b"/>
      <stop offset="0.61" stop-color="#96d293"/>
      <stop offset="0.81" stop-color="#c9e8c7"/>
      <stop offset="1" stop-color="#fff"/>
    </linearGradient>
    <linearGradient id="Degradado_sin_nombre_4-3" x1="378.95" y1="2659.11" x2="378.95" y2="2646.18" gradientTransform="matrix(0.89, 0, 0, -1.11, 86.03, 3256.05)" xlink:href="#Degradado_sin_nombre_4"/>
    <linearGradient id="Degradado_sin_nombre_50" data-name="Degradado sin nombre 50" x1="251.32" y1="495.71" x2="251.32" y2="414.63" gradientUnits="userSpaceOnUse">
      <stop offset="0" stop-color="#b6ad00"/>
      <stop offset="1" stop-color="#fff"/>
    </linearGradient>
    <linearGradient id="Degradado_sin_nombre_19-2" x1="392.27" y1="336.81" x2="431.28" y2="336.81" xlink:href="#Degradado_sin_nombre_19"/>
    <linearGradient id="Degradado_sin_nombre_19-3" x1="304.41" y1="363.97" x2="343.42" y2="363.97" xlink:href="#Degradado_sin_nombre_19"/>
    <linearGradient id="Degradado_sin_nombre_19-4" x1="158.7" y1="339.83" x2="197.71" y2="339.83" xlink:href="#Degradado_sin_nombre_19"/>
    <linearGradient id="Degradado_sin_nombre_19-5" x1="131.56" y1="360.15" x2="170.57" y2="360.15" xlink:href="#Degradado_sin_nombre_19"/>
    <linearGradient id="Degradado_sin_nombre_19-6" x1="52.3" y1="361.71" x2="91.31" y2="361.71" xlink:href="#Degradado_sin_nombre_19"/>
    <linearGradient id="Degradado_sin_nombre_19-7" x1="22.04" y1="343.15" x2="61.05" y2="343.15" xlink:href="#Degradado_sin_nombre_19"/>
    <linearGradient id="Degradado_sin_nombre_19-8" x1="345.59" y1="349.15" x2="384.6" y2="349.15" xlink:href="#Degradado_sin_nombre_19"/>
    <linearGradient id="Degradado_sin_nombre_19-9" x1="433.28" y1="349.15" x2="472.29" y2="349.15" xlink:href="#Degradado_sin_nombre_19"/>
    <linearGradient id="Degradado_sin_nombre_8" data-name="Degradado sin nombre 8" x1="174.62" y1="121.71" x2="319.3" y2="121.71" gradientUnits="userSpaceOnUse">
      <stop offset="0" stop-color="#fff"/>
      <stop offset="0.57" stop-color="#48bdd7"/>
      <stop offset="1" stop-color="#388c98"/>
    </linearGradient>
    <linearGradient id="Degradado_sin_nombre_141" data-name="Degradado sin nombre 141" x1="175" y1="131.15" x2="319.04" y2="131.15" gradientUnits="userSpaceOnUse">
      <stop offset="0" stop-color="#388c98"/>
      <stop offset="0.43" stop-color="#48bdd7"/>
      <stop offset="1" stop-color="#fff"/>
    </linearGradient>
    <linearGradient id="Degradado_sin_nombre_8-2" x1="267.94" y1="194.51" x2="344.14" y2="194.51" xlink:href="#Degradado_sin_nombre_8"/>
    <linearGradient id="Degradado_sin_nombre_141-2" x1="268.14" y1="199.49" x2="344.01" y2="199.49" xlink:href="#Degradado_sin_nombre_141"/>
    <linearGradient id="Degradado_sin_nombre_8-3" x1="160.89" y1="236.6" x2="198.99" y2="236.6" xlink:href="#Degradado_sin_nombre_8"/>
    <linearGradient id="Degradado_sin_nombre_141-3" x1="160.99" y1="239.09" x2="198.92" y2="239.09" xlink:href="#Degradado_sin_nombre_141"/>
    <linearGradient id="Degradado_sin_nombre_8-4" x1="57.88" y1="52.51" x2="167.27" y2="52.51" xlink:href="#Degradado_sin_nombre_8"/>
    <radialGradient id="radial-gradient" cx="481.12" cy="21.33" r="84.92" gradientUnits="userSpaceOnUse">
      <stop offset="0.1"/>
      <stop offset="0.11" stop-color="#080602"/>
      <stop offset="0.16" stop-color="#231b08"/>
      <stop offset="0.22" stop-color="#392c0d"/>
      <stop offset="0.28" stop-color="#4a3910"/>
      <stop offset="0.37" stop-color="#554213"/>
      <stop offset="0.48" stop-color="#5c4815"/>
      <stop offset="0.8" stop-color="#5e4915"/>
      <stop offset="1"/>
    </radialGradient>
    <radialGradient id="radial-gradient-2" cx="96.15" cy="387.17" r="2.83" gradientUnits="userSpaceOnUse">
      <stop offset="0" stop-color="#d4e194"/>
      <stop offset="0.06" stop-color="#afba7a"/>
      <stop offset="0.14" stop-color="#868f5e"/>
      <stop offset="0.22" stop-color="#626845"/>
      <stop offset="0.31" stop-color="#44482f"/>
      <stop offset="0.4" stop-color="#2b2e1e"/>
      <stop offset="0.51" stop-color="#181911"/>
      <stop offset="0.62" stop-color="#0a0b07"/>
      <stop offset="0.76" stop-color="#020302"/>
      <stop offset="1"/>
    </radialGradient>
    <radialGradient id="radial-gradient-3" cx="78.52" cy="403.92" r="2.83" xlink:href="#radial-gradient-2"/>
    <radialGradient id="radial-gradient-4" cx="94.62" cy="388.62" r="21.23" gradientUnits="userSpaceOnUse">
      <stop offset="0.05"/>
      <stop offset="0.09" stop-color="#040a03"/>
      <stop offset="0.3" stop-color="#183411"/>
      <stop offset="0.48" stop-color="#25531c"/>
      <stop offset="0.64" stop-color="#2e6622"/>
      <stop offset="0.75" stop-color="#316d24"/>
      <stop offset="0.79" stop-color="#4f6e16"/>
      <stop offset="0.83" stop-color="#716f06"/>
      <stop offset="0.86" stop-color="#7e6f00"/>
      <stop offset="0.89" stop-color="#7a6c00"/>
      <stop offset="0.91" stop-color="#706200"/>
      <stop offset="0.94" stop-color="#5d5200"/>
      <stop offset="0.96" stop-color="#443c00"/>
      <stop offset="0.98" stop-color="#231f00"/>
      <stop offset="1"/>
    </radialGradient>
    <radialGradient id="radial-gradient-5" cx="400.6" cy="97.84" r="56.61" gradientUnits="userSpaceOnUse">
      <stop offset="0" stop-color="#200"/>
      <stop offset="0.73" stop-color="#984023"/>
      <stop offset="1" stop-color="#200"/>
    </radialGradient>
    <radialGradient id="radial-gradient-6" cx="400.6" cy="97.85" r="28.31" gradientUnits="userSpaceOnUse">
      <stop offset="0.15" stop-color="#fff"/>
      <stop offset="0.21" stop-color="#e5d3d3"/>
      <stop offset="0.29" stop-color="#c49c9e"/>
      <stop offset="0.36" stop-color="#ad7477"/>
      <stop offset="0.42" stop-color="#9e5c5f"/>
      <stop offset="0.45" stop-color="#995356"/>
      <stop offset="0.57" stop-color="#6b3335"/>
      <stop offset="0.69" stop-color="#431718"/>
      <stop offset="0.79" stop-color="#2b0606"/>
      <stop offset="0.85" stop-color="#200"/>
      <stop offset="0.86" stop-color="#260201"/>
      <stop offset="0.86" stop-color="#330704"/>
      <stop offset="0.87" stop-color="#471009"/>
      <stop offset="0.88" stop-color="#641d0f"/>
      <stop offset="0.89" stop-color="#8a2e18"/>
      <stop offset="0.9" stop-color="#b74223"/>
      <stop offset="0.9" stop-color="#d34e29"/>
      <stop offset="0.9" stop-color="#c84927"/>
      <stop offset="0.91" stop-color="#9c361c"/>
      <stop offset="0.93" stop-color="#772514"/>
      <stop offset="0.94" stop-color="#58180c"/>
      <stop offset="0.95" stop-color="#400d07"/>
      <stop offset="0.97" stop-color="#2f0603"/>
      <stop offset="0.98" stop-color="#250101"/>
      <stop offset="1" stop-color="#200"/>
    </radialGradient>
    <radialGradient id="radial-gradient-7" cx="400.6" cy="97.85" r="23.59" gradientUnits="userSpaceOnUse">
      <stop offset="0.15" stop-color="#fff"/>
      <stop offset="0.28" stop-color="#c2c2c2"/>
      <stop offset="0.43" stop-color="#888"/>
      <stop offset="0.56" stop-color="#575757"/>
      <stop offset="0.69" stop-color="#313131"/>
      <stop offset="0.81" stop-color="#161616"/>
      <stop offset="0.92" stop-color="#060606"/>
      <stop offset="1"/>
    </radialGradient>
    <radialGradient id="radial-gradient-8" cx="78.52" cy="403.92" r="42.46" gradientUnits="userSpaceOnUse">
      <stop offset="0.64"/>
      <stop offset="0.72" stop-color="#000200"/>
      <stop offset="0.75" stop-color="#020902"/>
      <stop offset="0.77" stop-color="#051405"/>
      <stop offset="0.78" stop-color="#082509"/>
      <stop offset="0.8" stop-color="#0d3b0e"/>
      <stop offset="0.8" stop-color="#0f4310"/>
      <stop offset="0.81" stop-color="#1e2c0a"/>
      <stop offset="0.83" stop-color="#2d1605"/>
      <stop offset="0.85" stop-color="#360901"/>
      <stop offset="0.86" stop-color="#390400"/>
      <stop offset="0.87" stop-color="#250300"/>
      <stop offset="0.89" stop-color="#140100"/>
      <stop offset="0.9" stop-color="#090100"/>
      <stop offset="0.93" stop-color="#020000"/>
      <stop offset="1"/>
    </radialGradient>
    <radialGradient id="radial-gradient-9" cx="201.81" cy="286.76" r="0.18" gradientUnits="userSpaceOnUse">
      <stop offset="0.1" stop-color="#004780"/>
      <stop offset="0.22" stop-color="#00355f"/>
      <stop offset="0.37" stop-color="#00223d"/>
      <stop offset="0.52" stop-color="#001322"/>
      <stop offset="0.67" stop-color="#00080f"/>
      <stop offset="0.83" stop-color="#000204"/>
      <stop offset="1"/>
    </radialGradient>
    <radialGradient id="radial-gradient-10" cx="427.43" cy="72.35" r="8.26" gradientUnits="userSpaceOnUse">
      <stop offset="0.1"/>
      <stop offset="0.17" stop-color="#110b08"/>
      <stop offset="0.33" stop-color="#332017"/>
      <stop offset="0.49" stop-color="#4e3023"/>
      <stop offset="0.65" stop-color="#613c2b"/>
      <stop offset="0.82" stop-color="#6c4330"/>
      <stop offset="1" stop-color="#704532"/>
    </radialGradient>
    <radialGradient id="radial-gradient-11" cx="193.83" cy="294.34" r="3.88" gradientUnits="userSpaceOnUse">
      <stop offset="0.1"/>
      <stop offset="0.1" stop-color="#010100"/>
      <stop offset="0.24" stop-color="#2a2a09"/>
      <stop offset="0.39" stop-color="#4b4c10"/>
      <stop offset="0.53" stop-color="#656716"/>
      <stop offset="0.68" stop-color="#787a1a"/>
      <stop offset="0.84" stop-color="#83851c"/>
      <stop offset="1" stop-color="#87891d"/>
    </radialGradient>
    <radialGradient id="radial-gradient-12" cx="110.37" cy="373.66" r="8.19" gradientUnits="userSpaceOnUse">
      <stop offset="0.1" stop-color="#87891d"/>
      <stop offset="0.1" stop-color="#86881d"/>
      <stop offset="0.24" stop-color="#5d5f14"/>
      <stop offset="0.39" stop-color="#3c3d0d"/>
      <stop offset="0.53" stop-color="#222207"/>
      <stop offset="0.68" stop-color="#0f0f03"/>
      <stop offset="0.84" stop-color="#040401"/>
      <stop offset="1"/>
    </radialGradient>
    <radialGradient id="radial-gradient-13" cx="303.02" cy="190.57" r="9.12" xlink:href="#radial-gradient-11"/>
  </defs>
  <g class="cls-1">
    <g id="Capa_1" data-name="Capa 1">
      <rect class="cls-2" width="505.31" height="505.31"/>
      <path class="cls-3" d="M494.31,310.48V9.73H8.33V360.15h486"/>
      <rect class="cls-4" x="8.33" y="9.73" width="485.98" height="485.98"/>
      <path class="cls-5" d="M123.29,316.69c19.48-5.39,44.56-17.52,64-22.91,11.61-3.21,24-6.53,38.21-6.94,19.88-.56,38.61,4.75,58.47,4.09,11-.36,21-2.51,30.32-4.79s18.16-4.69,26.77-7.28c10.31-3.11,27.61-6.77,40.48-7.61,15.52-1,23.85,2.19,38.28,4.64,23.46,4,48.92,14.95,74.46,14.26v28.32Z"/>
      <rect class="cls-6" x="8.33" y="316.46" width="485.98" height="98.17"/>
      <path class="cls-7" d="M8.33,188.4l17.49-1.69a33.32,33.32,0,0,0,4.89-.72c1.4-.35,2.73-.89,4.15-1.17,1.86-.37,6.11,1.71,8,1.78,8.46.33,17,1.48,23.54.77,5.52-.6,9-3.1,16-2.63,3.73.25,11-1.35,14.72-1.55,1.65-.08,4.67,1,7,1.37,3.85.62,9.5-.41,13.42-.36,5.27.07,11-1.74,13.87-1.89,13-.68,16.37,2.66,29.39,2,5.25-.28,12.8-.62,17.82-1.92-8.08-.5-11.53-2.67-19.9-4.5-3.91-.85-11.13-.21-16.12-2.7a20.28,20.28,0,0,0-5.34-1.21,53.23,53.23,0,0,0-7.47.05c-4,.38-4-.94-7.79-1.83-6-1.39-12.22-2.68-18.42-2.16-4,.34-8.09,1.42-12,.5-2.3-.56-3.29-1.6-5.66-1.88-1.78-.21-6.91-.05-8.7-.2-4.3-.35-1.81-5.18-5-7.56-4.54-3.34-11.86-1.29-17.19-3.68-2.84-1.28-5.84-2.68-7.35-5.06a10.71,10.71,0,0,0-1.91-2.85c-2.68-2.22-7.61-.05-10.87-1.63-2.18-1.06-2.91-3.48-5-4.7a11.35,11.35,0,0,0-4.39-1.13l-16.69-2Z"/>
      <path class="cls-8" d="M8.33,302.58v13.88l142.45,0c-4.36-3.24-9.71-3.93-14.85-4.54l-3.13-.37c-3.35-.39-6.71-.79-10.07-.95-.08-1.63-2-2.18-3.32-1.89s-2.91.91-4.06,0c-.93-.75-1.22-2.31-2.2-3a3.34,3.34,0,0,0-1.83-.44l-10.88-.41c.4,1.29-1.37,1.87-2.54,1.65L90,305a2.73,2.73,0,0,0-1.6,0c-.85.38-1.61,1.62-2.43,1.14-.43-.25-.58-.87-.86-1.32-1.23-1.93-4-.07-5.9-.87-1.79-.74-2.1-4.17-.48-5.33-3,.11-5.45-3.83-4.51-7.11a10.81,10.81,0,0,1-1.63,6.83,13.83,13.83,0,0,1-5.48-3.3,12.76,12.76,0,0,1,3.56,7.46,10,10,0,0,1-8.72-.41c.39,1.47-1,2.7-2.26,3.18a10.86,10.86,0,0,1-8.53-.39c-1.14-.54-2.32-1.31-3.54-1.05s-2.12,1.5-3.31,1.91a4.53,4.53,0,0,1-3.57-.68,17.25,17.25,0,0,1-5.34-4.63,3.63,3.63,0,0,0-1.12-1.12c-1.5-.77-3.36,1.32-4.76.31a3.38,3.38,0,0,1-.92-1.35c-1.42-3-2.88-6.21-2.74-9.64a16.1,16.1,0,0,0-3.68,5.53c.14-3-2.28-5.72-4.8-5.48a10.93,10.93,0,0,1,.2,4.58c-.36,1.48-1.61,2.79-2.9,2.49a6,6,0,0,0-3.05-3.63l-3.27,3v7.45"/>
      <path class="cls-9" d="M8.33,326.65V316.5l142.45,0c-4.36,2.37-9.71,2.88-14.85,3.32l-3.13.27c-3.35.29-6.71.58-10.07.7-.08,1.19-2,1.59-3.32,1.38s-2.91-.66-4.06,0c-.93.55-1.22,1.69-2.2,2.18a4.29,4.29,0,0,1-1.83.32l-10.88.3c.4-.94-1.37-1.36-2.54-1.2L90,324.86a3.75,3.75,0,0,1-1.6,0c-.85-.27-1.61-1.18-2.43-.83-.43.18-.58.63-.86,1-1.23,1.42-4,0-5.9.64a2.15,2.15,0,0,0-.48,3.9c-3-.08-5.45,2.79-4.51,5.2a6.32,6.32,0,0,0-1.63-5,15.51,15.51,0,0,0-5.48,2.42,8.63,8.63,0,0,0,3.56-5.46,13.24,13.24,0,0,0-8.72.3c.39-1.07-1-2-2.26-2.32a14.42,14.42,0,0,0-8.53.28,7.48,7.48,0,0,1-3.54.77c-1.21-.19-2.12-1.1-3.31-1.4a5.91,5.91,0,0,0-3.57.5,16.75,16.75,0,0,0-5.34,3.38,3.28,3.28,0,0,1-1.12.82c-1.5.57-3.36-1-4.76-.23a2.72,2.72,0,0,0-.92,1c-1.42,2.2-2.88,4.54-2.74,7.05a12.19,12.19,0,0,1-3.68-4c.14,2.16-2.28,4.18-4.8,4a5.88,5.88,0,0,0,.2-3.34,2.73,2.73,0,0,0-2.9-1.82,5.14,5.14,0,0,1-3.05,2.65L8.33,332.1v-5.45"/>
      <ellipse class="cls-10" cx="251.32" cy="365.77" rx="13.18" ry="1.79"/>
      <g>
        <ellipse class="cls-10" cx="251.32" cy="378.81" rx="16.24" ry="2.21"/>
        <ellipse class="cls-10" cx="251.32" cy="378.81" rx="30" ry="4.08"/>
        <ellipse class="cls-10" cx="251.32" cy="378.81" rx="46.11" ry="6.27"/>
        <circle class="cls-11" cx="251.32" cy="336.47" r="40.9"/>
        <path class="cls-12" d="M210.42,416.67c0-21.7,18.31-39.3,40.9-39.3s40.91,17.6,40.91,39.3"/>
      </g>
      <path class="cls-13" d="M494.31,106.83c-3.26-5.37-5.73-7.22-11.58-7.25-5.54,0-8,4.74-11.78,4.74-1.76,0-5.66-1.89-7.39-2.25-13.64-2.9-20.19,7.81-34.06,7.07-1.93-.1-3.93-.4-5.71.41-2.19,1-3.57,3.51-5.69,4.68s-4.37.88-6.61.79a48.17,48.17,0,0,0-25.95,6.41c-2.59,1.48-5.29,3.26-8.19,2.92-1.71-.2-3.3-1.14-5-1.4a12.64,12.64,0,0,0-3.78.16l-11.38,1.59c-8.21,1.15-16.41,2.3-24.59,3.67-2.59.43-5.46,1.06-7,3.41,6.6.08,12.63-1.9,19.23-1.65a53.13,53.13,0,0,1,8.57,1.22q6.62,1.34,13.18,2.91c3.32.8,6.71,1.64,10.08,1.18,2.4-.33,4.69-1.3,7.07-1.77a33.71,33.71,0,0,1,6.11-.46l18.95-.27a16,16,0,0,1,5.87.66,28.05,28.05,0,0,0,3.91,1.62c3.58.73,7-2.5,10.65-2.06,2.22.27,4.18,1.91,6.42,2.05s4.2-1.16,6.36-1.1c2.9.08,5.63,2.6,8.45,1.82a26.2,26.2,0,0,0,2.79-1.32c3.6-1.49,7.34,1.44,11.15,2,13.68,2.07,21.91-6.25,29.94-2Z"/>
      <path class="cls-14" d="M494.31,316.46c0-2.69,0-2.69,0-5.92,0-2.87-6.87-3.66-10-4.23l.18-2c-2.09-.37-4.08.17-5.47-1.18-.63-.62.66-1.6.61-2.41-1.34.53-4.74-.12-5.14-1.3s.74-2.56,2.22-2.68c-1.69.45-3.35,1.56-4.75,1.47s-2.61-1.39-3.57-2.32a3,3,0,0,1,.53,3.73,4.54,4.54,0,0,0-5,1.32c-1.49.85-3.59.22-5-.77s-2.38-2.3-3.92-3.08c-2.63-1.33-6.49-.57-8.1,1.6l-1.17-2.23c-.51-.06-1,1.43-1.52,1.37s-1-1.65-1.46-1.7l-1.27,3.06a11.83,11.83,0,0,1-7.16-.14c-.31-.1.82-1.41.53-1.54s-2.05.92-2.34.76a8.61,8.61,0,0,1-2.93-2.5l-.58,2.41-3.73.16,3,2.21-1.09,2.59-11.92,1.37c-2.33.27-4.86.62-6.4,2.09-.16-1.06-2.16-1.05-3.13-.34s-1.58,1.82-2.79,2.2c-2.46.78-4.43-1.94-4.52-4.11s.21-4.79-1.94-6a4.54,4.54,0,0,1-1.21,5.09,12.53,12.53,0,0,0-7.85-5.45,15.29,15.29,0,0,1,3.49,7.23,20.12,20.12,0,0,0-13.87-4.12c1.89,1.92,5.07,2.53,7.76,3.62s5.29,3.46,4.27,5.79c-2.87-.55-5.36,1.83-8.28,2.18a17.63,17.63,0,0,1-5.14-.63c-5-.89-10.12.11-15.06,1.1-2.51.5-5.14,1.06-7.05,2.5"/>
      <path class="cls-15" d="M494.31,316.46c0,1.85,0,1.85,0,4.08,0,2-6.87,2.54-10,2.93l.18,1.37c-2.09.26-4.08-.11-5.47.82-.63.43.66,1.11.61,1.67-1.34-.37-4.74.08-5.14.9s.74,1.77,2.22,1.85c-1.69-.31-3.35-1.08-4.75-1a7.17,7.17,0,0,0-3.57,1.61,1.67,1.67,0,0,0,.53-2.58,6,6,0,0,1-5-.91,6.69,6.69,0,0,0-5,.53,31.78,31.78,0,0,1-3.92,2.13c-2.63.92-6.49.39-8.1-1.11l-1.17,1.54c-.51,0-1-1-1.52-.95s-1,1.15-1.46,1.18l-1.27-2.11a16.94,16.94,0,0,0-7.16.09c-.31.07.82,1,.53,1.07s-2.05-.64-2.34-.53a8.58,8.58,0,0,0-2.93,1.73l-.58-1.67-3.73-.11,3-1.52-1.09-1.8-11.92-.94c-2.33-.18-4.86-.43-6.4-1.45-.16.74-2.16.73-3.13.24S404.2,322.24,403,322a3.7,3.7,0,0,0-4.52,2.84c-.1,1.5.21,3.31-1.94,4.18.73-1.19.25-2.58-1.21-3.52-1.55,1.8-4.47,3.2-7.85,3.76a9.73,9.73,0,0,0,3.49-5,26.67,26.67,0,0,1-13.87,2.85c1.89-1.33,5.07-1.75,7.76-2.5s5.29-2.39,4.27-4c-2.87.38-5.36-1.27-8.28-1.51a25.32,25.32,0,0,0-5.14.44c-5,.61-10.12-.08-15.06-.76a23.07,23.07,0,0,1-7.05-1.73"/>
      <rect class="cls-16" x="8.33" y="414.63" width="485.98" height="81.08"/>
      <line class="cls-17" x1="392.27" y1="336.81" x2="431.28" y2="336.81"/>
      <line class="cls-18" x1="304.41" y1="363.97" x2="343.42" y2="363.97"/>
      <line class="cls-19" x1="158.7" y1="339.83" x2="197.71" y2="339.83"/>
      <line class="cls-20" x1="131.56" y1="360.15" x2="170.57" y2="360.15"/>
      <line class="cls-21" x1="52.3" y1="361.71" x2="91.31" y2="361.71"/>
      <line class="cls-22" x1="22.04" y1="343.15" x2="61.05" y2="343.15"/>
      <line class="cls-23" x1="345.59" y1="349.15" x2="384.6" y2="349.15"/>
      <line class="cls-24" x1="433.28" y1="349.15" x2="472.29" y2="349.15"/>
      <path class="cls-25" d="M319,121.15c0,2.3,1.43,12-2.46,14-11.14,5.67-40.07,2.12-69.56,2.12-29.17,0-58.37,3.55-69.69-2-4.12-2-2.33-11.7-2.33-14.07,0-8.89,32.25-16.1,72-16.1S319,112.26,319,121.15Z"/>
      <ellipse class="cls-26" cx="247.02" cy="131.15" rx="72.02" ry="16.1"/>
      <g class="cls-27">
        <path class="cls-28" d="M344,194.22c0,1.21.75,6.32-1.3,7.36-5.87,3-21.1,1.12-36.63,1.12-15.37,0-30.75,1.87-36.71-1.07-2.17-1.07-1.23-6.16-1.23-7.41,0-4.68,17-8.48,37.94-8.48S344,189.54,344,194.22Z"/>
        <ellipse class="cls-29" cx="306.08" cy="199.49" rx="37.93" ry="8.48"/>
      </g>
      <g class="cls-30">
        <path class="cls-31" d="M198.92,236.45c0,.61.38,3.16-.65,3.68-2.93,1.5-10.55.56-18.32.56s-15.37.94-18.35-.53c-1.08-.53-.61-3.08-.61-3.71,0-2.34,8.49-4.24,19-4.24S198.92,234.11,198.92,236.45Z"/>
        <ellipse class="cls-32" cx="179.95" cy="239.09" rx="18.97" ry="4.24"/>
      </g>
      <rect class="cls-33" x="57.88" y="47.82" width="109.39" height="9.39"/>
      <g>
        <polygon class="cls-34" points="409.98 326.58 408.76 347.07 409.91 367.56 411.13 347.07 409.98 326.58"/>
        <polygon class="cls-34" points="389.46 347.04 409.95 347.93 430.44 347.1 409.95 346.21 389.46 347.04"/>
        <polygon class="cls-35" points="402.54 339.83 409.09 348.15 417.36 354.76 410.81 346.43 402.54 339.83"/>
        <polygon class="cls-35" points="402.48 354.7 410.81 348.15 417.41 339.88 409.09 346.43 402.48 354.7"/>
        <circle class="cls-36" cx="409.95" cy="347.07" r="13.48"/>
      </g>
      <g>
        <polygon class="cls-34" points="81.37 333.6 80.8 343.15 81.33 352.7 81.9 343.15 81.37 333.6"/>
        <polygon class="cls-34" points="71.8 343.14 81.35 343.55 90.9 343.16 81.35 342.75 71.8 343.14"/>
        <polygon class="cls-35" points="77.9 339.77 80.95 343.65 84.81 346.73 81.75 342.85 77.9 339.77"/>
        <polygon class="cls-35" points="77.87 346.71 81.75 343.65 84.83 339.8 80.95 342.85 77.87 346.71"/>
        <circle class="cls-36" cx="81.35" cy="343.15" r="6.28"/>
      </g>
      <g>
        <polygon class="cls-34" points="34.08 374.79 33.51 384.34 34.04 393.89 34.61 384.34 34.08 374.79"/>
        <polygon class="cls-34" points="24.51 384.33 34.06 384.74 43.61 384.35 34.06 383.94 24.51 384.33"/>
        <polygon class="cls-35" points="30.61 380.97 33.66 384.85 37.52 387.92 34.46 384.04 30.61 380.97"/>
        <polygon class="cls-35" points="30.58 387.9 34.46 384.85 37.54 380.99 33.66 384.04 30.58 387.9"/>
        <circle class="cls-36" cx="34.06" cy="384.34" r="6.28"/>
      </g>
      <g>
        <polygon class="cls-34" points="154.54 391.54 153.97 401.09 154.5 410.64 155.07 401.09 154.54 391.54"/>
        <polygon class="cls-34" points="144.97 401.08 154.52 401.49 164.07 401.1 154.52 400.69 144.97 401.08"/>
        <polygon class="cls-35" points="151.07 397.72 154.12 401.6 157.97 404.67 154.92 400.8 151.07 397.72"/>
        <polygon class="cls-35" points="151.04 404.65 154.92 401.6 158 397.74 154.12 400.8 151.04 404.65"/>
        <circle class="cls-36" cx="154.52" cy="401.09" r="6.28"/>
      </g>
      <g>
        <polygon class="cls-34" points="179.98 88.52 178.6 111.62 179.9 134.71 181.27 111.62 179.98 88.52"/>
        <polygon class="cls-34" points="156.84 111.59 179.94 112.59 203.03 111.65 179.94 110.65 156.84 111.59"/>
        <polygon class="cls-35" points="171.58 103.45 178.97 112.84 188.29 120.28 180.91 110.9 171.58 103.45"/>
        <polygon class="cls-35" points="171.52 120.22 180.91 112.84 188.35 103.51 178.97 110.9 171.52 120.22"/>
        <circle class="cls-36" cx="179.94" cy="111.62" r="15.19"/>
      </g>
      <g>
        <polygon class="cls-34" points="220.28 354.22 219.59 365.77 220.24 377.31 220.93 365.77 220.28 354.22"/>
        <polygon class="cls-34" points="208.71 365.75 220.26 366.25 231.81 365.78 220.26 365.28 208.71 365.75"/>
        <polygon class="cls-35" points="216.08 361.69 219.78 366.38 224.44 370.1 220.74 365.41 216.08 361.69"/>
        <polygon class="cls-35" points="216.05 370.07 220.74 366.38 224.47 361.71 219.78 365.41 216.05 370.07"/>
        <circle class="cls-36" cx="220.26" cy="365.77" r="7.6"/>
      </g>
      <g>
        <circle class="cls-37" cx="481.12" cy="21.33" r="84.92"/>
        <circle class="cls-38" cx="96.15" cy="387.17" r="2.83"/>
        <circle class="cls-39" cx="78.52" cy="403.92" r="2.83"/>
        <circle class="cls-40" cx="94.62" cy="388.62" r="21.23"/>
        <line class="cls-41" x1="400.6" y1="97.85" x2="78.52" y2="403.92"/>
        <circle class="cls-42" cx="400.6" cy="97.84" r="56.61"/>
        <circle class="cls-43" cx="400.6" cy="97.85" r="28.31"/>
        <circle class="cls-44" cx="400.6" cy="97.85" r="23.59"/>
        <polyline class="cls-45" points="400.6 97.84 406.84 179.27 400.6 97.84 394.36 16.42 400.6 97.84 319.18 104.08 400.6 97.84 482.03 91.61 400.6 97.84 436.55 112.58 400.6 97.84 364.66 83.11 400.6 97.84 385.87 133.79 400.6 97.84 415.33 61.9 400.6 97.84 426.15 141.9 400.6 97.84 375.05 53.79 400.6 97.84 356.54 123.39 400.6 97.84 444.66 72.3 400.6 97.84 401.45 98.31 400.6 97.84 399.76 97.38 400.6 97.84 400.14 98.69 400.6 97.84 401.06 97 400.6 97.84 511.17 118.05 400.6 97.84 290.04 77.64 400.6 97.84 380.39 208.41 400.6 97.84 420.81 -12.72 400.6 97.84 413.44 102.25 400.6 97.84 387.77 93.44 400.6 97.84 396.2 110.68 400.6 97.84 405 85.01 400.6 97.84 414.8 144.94 400.6 97.84 386.41 50.75 400.6 97.84 353.5 112.04 400.6 97.84 447.7 83.65 400.6 97.84 407.58 154.18 400.6 97.84 393.62 41.51 400.6 97.84 344.27 104.82 400.6 97.84 456.94 90.87 400.6 97.84 531.18 110.58 400.6 97.84 270.02 85.11 400.6 97.84 387.87 228.42 400.6 97.84 413.34 -32.73 400.6 97.84 486.9 147.35 400.6 97.84 314.31 48.34 400.6 97.84 351.1 184.14 400.6 97.84 450.1 11.55 400.6 97.84 494.96 99.84 400.6 97.84 306.24 95.85 400.6 97.84 398.61 192.2 400.6 97.84 402.6 3.49 400.6 97.84 404.74 114.77 400.6 97.84 396.46 80.92 400.6 97.84 383.68 101.98 400.6 97.84 417.53 93.71 400.6 97.84 409.39 209.42 400.6 97.84 391.81 -13.73 400.6 97.84 289.02 106.64 400.6 97.84 512.18 89.06 400.6 97.84 420.64 181.22 400.6 97.84 380.56 14.47 400.6 97.84 317.22 117.89 400.6 97.84 483.98 77.8 400.6 97.84 406.75 98.01 400.6 97.84 394.46 97.68 400.6 97.84 400.44 103.99 400.6 97.84 400.77 91.7"/>
        <circle class="cls-46" cx="78.52" cy="403.92" r="42.46"/>
        <circle class="cls-47" cx="201.81" cy="286.76" r="0.18"/>
        <circle class="cls-48" cx="427.43" cy="72.35" r="8.26"/>
        <circle class="cls-49" cx="193.83" cy="294.34" r="3.88"/>
        <circle class="cls-50" cx="110.37" cy="373.66" r="8.19"/>
        <circle class="cls-51" cx="303.02" cy="190.57" r="9.12"/>
      </g>
    </g>
  </g>
</svg>
