<svg id="Capa_1" data-name="Capa 1" xmlns="http://www.w3.org/2000/svg" xmlns:xlink="http://www.w3.org/1999/xlink" width="200.74mm" height="236.02mm" viewBox="0 0 569.03 669.05">
  <defs>
    <style>
      .cls-1, .cls-10, .cls-11, .cls-13, .cls-15, .cls-27, .cls-28, .cls-3, .cls-31, .cls-33, .cls-38, .cls-4, .cls-40, .cls-42, .cls-43, .cls-5, .cls-8 {
        fill: #fff;
      }

      .cls-1, .cls-11, .cls-12, .cls-13, .cls-14, .cls-15, .cls-16, .cls-17, .cls-19, .cls-20, .cls-22, .cls-23, .cls-26, .cls-27, .cls-28, .cls-29, .cls-3, .cls-32, .cls-33, .cls-34, .cls-35, .cls-36, .cls-37, .cls-38, .cls-39, .cls-4, .cls-40, .cls-41, .cls-42, .cls-43, .cls-44, .cls-45, .cls-46, .cls-47, .cls-48, .cls-5, .cls-6, .cls-7, .cls-8, .cls-9 {
        stroke: #000;
      }

      .cls-1, .cls-12, .cls-14, .cls-15, .cls-16, .cls-17, .cls-18, .cls-19, .cls-20, .cls-22, .cls-26, .cls-3, .cls-32, .cls-35, .cls-36, .cls-37, .cls-38, .cls-4, .cls-41, .cls-42, .cls-43, .cls-44, .cls-45, .cls-47, .cls-7, .cls-8, .cls-9 {
        stroke-miterlimit: 10;
      }

      .cls-2 {
        fill: url(#linear-gradient);
      }

      .cls-3, .cls-7 {
        stroke-width: 5px;
      }

      .cls-23, .cls-33, .cls-34, .cls-4 {
        stroke-width: 4px;
      }

      .cls-11, .cls-27, .cls-28, .cls-29, .cls-39, .cls-40, .cls-5, .cls-6 {
        stroke-linejoin: bevel;
      }

      .cls-12, .cls-18, .cls-19, .cls-23, .cls-26, .cls-29, .cls-32, .cls-34, .cls-35, .cls-36, .cls-37, .cls-39, .cls-45, .cls-48, .cls-6, .cls-7 {
        fill: none;
      }

      .cls-19, .cls-22, .cls-27, .cls-37, .cls-45, .cls-8 {
        stroke-width: 2px;
      }

      .cls-14, .cls-21, .cls-22, .cls-25, .cls-44, .cls-47, .cls-9 {
        fill: #ed1c24;
      }

      .cls-26, .cls-40, .cls-42, .cls-9 {
        stroke-width: 3px;
      }

      .cls-11, .cls-36, .cls-39 {
        stroke-width: 0.5px;
      }

      .cls-12, .cls-28, .cls-29, .cls-38 {
        stroke-width: 0.75px;
      }

      .cls-13, .cls-23, .cls-33, .cls-34, .cls-46, .cls-48 {
        stroke-linejoin: round;
      }

      .cls-14, .cls-15, .cls-16, .cls-17, .cls-18, .cls-24, .cls-25, .cls-31, .cls-37, .cls-46, .cls-47 {
        fill-rule: evenodd;
      }

      .cls-16 {
        fill: #ffffa6;
      }

      .cls-17 {
        fill: url(#linear-gradient-2);
      }

      .cls-18 {
        stroke: #fff;
        stroke-dasharray: 7;
      }

      .cls-23, .cls-40, .cls-45, .cls-48 {
        stroke-linecap: round;
      }

      .cls-30 {
        fill: #f60000;
      }

      .cls-32 {
        stroke-width: 6px;
      }

      .cls-41 {
        fill: red;
      }

      .cls-43, .cls-47 {
        stroke-width: 0.25px;
      }
    </style>
    <linearGradient id="linear-gradient" x1="284.52" y1="658.7" x2="284.52" y2="12.65" gradientUnits="userSpaceOnUse">
      <stop offset="0" stop-color="#cc9ab5"/>
      <stop offset="0.01" stop-color="#c997b7"/>
      <stop offset="0.2" stop-color="#a073d6"/>
      <stop offset="0.36" stop-color="#8258ed"/>
      <stop offset="0.5" stop-color="#7048fa"/>
      <stop offset="0.61" stop-color="#6a42ff"/>
      <stop offset="0.86" stop-color="#33428d"/>
    </linearGradient>
    <linearGradient id="linear-gradient-2" x1="72.3" y1="415.76" x2="95.93" y2="449.51" gradientUnits="userSpaceOnUse">
      <stop offset="0" stop-color="#ff9ab5"/>
      <stop offset="0.59" stop-color="#ee0500"/>
      <stop offset="1" stop-color="#c20500"/>
    </linearGradient>
  </defs>
  <rect class="cls-1" width="569.03" height="669.05"/>
  <rect class="cls-2" x="11.5" y="12.65" width="546.04" height="646.05"/>
  <path class="cls-3" d="M214.16,564.66v23.72s70.74,53.67,195.75-2.29v-20S296.52,606.53,214.16,564.66Z"/>
  <path class="cls-3" d="M463,357.51V523.57C402,582,352,587.74,352,587.74L351.92,547c-.68-36.92,29-43.69,29-43.69V411.47l82.07-54"/>
  <path class="cls-4" d="M176.06,463.3s-23.37,4.18-22.69,41.1l.06,38.55s6.6,3.41,22.63-2.5"/>
  <path class="cls-5" d="M423.87,547.29a3.13,3.13,0,0,1-1.23,4.26l-28.55,15.77a3.13,3.13,0,0,1-4.26-1.22l-.22-.41a3.14,3.14,0,0,1,1.22-4.26l28.56-15.77a3.15,3.15,0,0,1,4.26,1.23Z"/>
  <path class="cls-1" d="M391.34,554.46a6.28,6.28,0,0,1,8.29,3.15l2,4.37a6.27,6.27,0,0,1-3.15,8.29L367.84,584a6.27,6.27,0,0,1-8.29-3.15l-2-4.37a6.27,6.27,0,0,1,3.15-8.29Z"/>
  <path d="M367.75,575.39c1.21,4.64-.27,9.06-3.31,9.85s-6.5-2.32-7.71-7,.26-9,3.31-9.85S366.53,570.74,367.75,575.39Z"/>
  <path class="cls-6" d="M365.5,566.07s11-.44,8.51,15.18"/>
  <path class="cls-6" d="M363.37,567.07s10.63-.07,8.16,15.55"/>
  <path class="cls-6" d="M387.39,555.83s11-.44,8.51,15.18"/>
  <line class="cls-5" x1="374.28" y1="577.22" x2="402.14" y2="563.68"/>
  <path class="cls-5" d="M372.39,569.16c0,.66-1.4,1.19-3.13,1.19h-.62c-1.73,0-3.14-.53-3.14-1.19V557.68c0-.66,1.41-1.19,3.14-1.19h.62c1.73,0,3.13.53,3.13,1.19Z"/>
  <path class="cls-7" d="M174.06,384.89v50.55l0,103.45s6.87,9,27.25,18.77c0,0,58.7,34.81,120.67,22.89"/>
  <path class="cls-8" d="M382.24,415.24s-143.62,20.2-208.21-33"/>
  <path class="cls-8" d="M174.06,382.23v50.54l0,103.46s6.87,9,27.25,18.76c0,0,48,39.61,149.53,24.06,0,0-6.74-68.75,29.77-76.62V414.89S268,439.13,174.06,382.23"/>
  <path class="cls-9" d="M419,575.91c-132.49,56-213.7,5.3-213.7,5.3h0v23.84s81.21,50.78,213.7-5.17Z"/>
  <polygon class="cls-10" points="478.11 432.57 445.32 456.93 445.32 379.21 478.38 355.58 478.11 432.57"/>
  <polyline class="cls-11" points="420.46 535.42 432.46 528.9 432.46 478.17 428.27 478.17 415.53 484.09"/>
  <polygon points="420.59 535.91 415.5 535.91 415.43 483.82 420.52 483.82 420.59 535.91"/>
  <polyline class="cls-11" points="401.41 544.46 413.41 537.94 413.41 487.21 408.11 487.21 406.85 487.8 396.6 493.06"/>
  <polygon class="cls-12" points="402.04 545.36 396.96 545.36 396.88 493.27 401.97 493.27 402.04 545.36"/>
  <polygon class="cls-13" points="451.69 521.83 442.74 527.09 442.74 464.04 452.16 457.73 451.69 521.83"/>
  <path class="cls-14" d="M463.51,356c5.83-15.6-65.06-30.11-145.32-30.11S167.73,341.18,172,357.25c4.51,16.84,67.09,46.55,147.35,46.55S457.41,372.28,463.51,356Z"/>
  <path class="cls-15" d="M410.63,297.3a15.51,15.51,0,0,1-14.47-10.18,15.71,15.71,0,0,1,8-19.65,15.16,15.16,0,0,1,7.8-1.41,15.52,15.52,0,0,1,13.81,12A15.68,15.68,0,0,1,416.79,296,15.18,15.18,0,0,1,410.63,297.3Z"/>
  <path class="cls-16" d="M411.09,140.8A49.38,49.38,0,0,1,365,108.36a50,50,0,0,1,25.36-62.55,48.17,48.17,0,0,1,24.84-4.51,49.93,49.93,0,0,1,15.48,95.43A48.55,48.55,0,0,1,411.09,140.8Z"/>
  <path class="cls-17" d="M84.06,453.31a20.49,20.49,0,0,1-19.12-13.45,20.75,20.75,0,0,1,10.52-26A20,20,0,0,1,85.77,412,20.52,20.52,0,0,1,104,427.94a20.74,20.74,0,0,1-11.84,23.69A20.07,20.07,0,0,1,84.06,453.31Z"/>
  <path class="cls-18" d="M84.07,503.07a16.65,16.65,0,0,1-15.55-10.94A16.87,16.87,0,0,1,77.08,471a16.23,16.23,0,0,1,8.38-1.52,16.85,16.85,0,0,1,5.22,32.2A16.15,16.15,0,0,1,84.07,503.07Z"/>
  <g>
    <path class="cls-18" d="M84,602a41.17,41.17,0,0,1-38.43-27,41.68,41.68,0,0,1,21.15-52.16A40,40,0,0,1,87.45,519a41.26,41.26,0,0,1,36.7,32,41.68,41.68,0,0,1-23.79,47.6A40.44,40.44,0,0,1,84,602Z"/>
    <path class="cls-18" d="M84.05,588.07a27.38,27.38,0,0,1-25.56-18,27.73,27.73,0,0,1,14.06-34.7,26.7,26.7,0,0,1,13.78-2.5,27.43,27.43,0,0,1,24.41,21.27,27.72,27.72,0,0,1-15.82,31.67A27.07,27.07,0,0,1,84.05,588.07Z"/>
    <path class="cls-18" d="M84.07,575.55a15,15,0,0,1-14-9.84,15.17,15.17,0,0,1,7.69-19,14.68,14.68,0,0,1,7.53-1.37A15.15,15.15,0,0,1,90,574.31,14.83,14.83,0,0,1,84.07,575.55Z"/>
  </g>
  <polyline class="cls-19" points="154.93 417.31 145.23 413.35 145.23 371.5 171.85 351.86"/>
  <ellipse class="cls-20" cx="359.47" cy="355.29" rx="46.73" ry="22.2"/>
  <path class="cls-8" d="M227,71.34h31.5a5.07,5.07,0,0,1-.17-1.29c0-3.77,4.14-6.83,9.25-6.83h8.63c-3-1-5.15-3.3-5.15-5.94,0-3.61,4-6.54,8.86-6.54H339.4c4.9,0,8.87,2.93,8.87,6.54,0,2.64-2.11,4.9-5.15,5.94h28.35c4.82,0,8.78,2.73,9.2,6.21h18.88c5.11,0,9.25,3,9.25,6.82s-4.14,6.83-9.25,6.83H365.2a5.45,5.45,0,0,1,1,3.15c0,3.77-4.13,6.82-9.24,6.82H253.07c-5.1,0-9.24-3-9.24-6.82A5.14,5.14,0,0,1,244,85H227c-5.11,0-9.25-3-9.25-6.82S221.86,71.34,227,71.34Z"/>
  <path class="cls-8" d="M407.72,112H429a6.15,6.15,0,0,1-.15-1.29c0-3.77,3.73-6.83,8.34-6.83H445c-2.75-1-4.66-3.3-4.66-5.94,0-3.61,3.59-6.54,8-6.54h52.83c4.42,0,8,2.93,8,6.54,0,2.64-1.9,4.91-4.65,5.94h8.8c4.35,0,7.92,2.73,8.31,6.21h15.46c4.61,0,8.35,3.06,8.35,6.83s-3.74,6.82-8.35,6.82h-6.44a5.82,5.82,0,0,1,.94,3.15c0,3.77-3.73,6.82-8.34,6.82H428.9c-4.61,0-8.35-3.05-8.35-6.82a5.76,5.76,0,0,1,.15-1.24h-13c-4.61,0-8.34-3-8.34-6.82S403.11,112,407.72,112Z"/>
  <polygon points="250.46 444.06 183.73 409.43 187.06 398.41 253.8 433.04 250.46 444.06"/>
  <polygon points="281.48 451.88 368.4 436.39 367.17 424.1 280.26 439.59 281.48 451.88"/>
  <path class="cls-21" d="M344.6,519.12a22,22,0,1,1-22-22A22,22,0,0,1,344.6,519.12Z"/>
  <path class="cls-21" d="M218.86,491.16a19.11,19.11,0,1,1-19.1-19.11A19.1,19.1,0,0,1,218.86,491.16Z"/>
  <path class="cls-22" d="M229.3,441.4a9.3,9.3,0,1,1-9.3-9.29A9.29,9.29,0,0,1,229.3,441.4Z"/>
  <path class="cls-22" d="M333.89,458.52a9.3,9.3,0,1,1-9.29-9.3A9.29,9.29,0,0,1,333.89,458.52Z"/>
  <path class="cls-23" d="M242.92,436.25s19.21,7.47-.42,59.53l37.76,8.5s-2.44-57.32,6.77-57"/>
  <g>
    <path class="cls-24" d="M246.46,247.36a12.72,12.72,0,0,1,3.75-1.28,11.94,11.94,0,1,1,3.85,23.56,12.32,12.32,0,0,1-2,.15H216.2a6.11,6.11,0,0,1-2-11.92.82.82,0,0,0,.54-.47,8.61,8.61,0,0,1,6.34-5c.51-.1.64-.3.69-.79a12.56,12.56,0,0,1,4.66-8.71,13,13,0,0,1,19.8,4C246.3,247.05,246.38,247.19,246.46,247.36Zm-2.38,7.55c-.25-1.24-.5-2.4-.73-3.57A8.8,8.8,0,0,0,226,254.13c.14.94.25,1.89.38,2.89l-2.79-.5a4.6,4.6,0,0,0-5.32,3.56c-.09.44-.21.88-.26,1.33s-.22.45-.56.43a14.82,14.82,0,0,0-1.49,0,1.85,1.85,0,0,0-1.77,1.72,1.91,1.91,0,0,0,2.12,2.06h36.07A7.72,7.72,0,1,0,247,252.14C246,253,245.09,253.94,244.08,254.91Z"/>
    <path class="cls-25" d="M244.08,254.91c1-1,1.94-1.89,2.91-2.77a7.72,7.72,0,1,1,5.37,13.45H216.29a1.91,1.91,0,0,1-2.12-2.06,1.85,1.85,0,0,1,1.77-1.72,14.82,14.82,0,0,1,1.49,0c.34,0,.52,0,.56-.43s.17-.89.26-1.33a4.6,4.6,0,0,1,5.32-3.56l2.79.5c-.13-1-.24-1.95-.38-2.89a8.8,8.8,0,0,1,17.37-2.79C243.58,252.51,243.83,253.67,244.08,254.91Z"/>
  </g>
  <g>
    <path class="cls-24" d="M286.73,256.08a15.47,15.47,0,0,1,23.58-4.76,15,15,0,0,1,5.56,10.38c.06.58.21.82.82.94a10.22,10.22,0,0,1,7.55,5.94,1,1,0,0,0,.64.56,7.27,7.27,0,0,1-2.39,14.2q-21.35,0-42.69,0a16.18,16.18,0,0,1-2.41-.17A14.22,14.22,0,1,1,282,255.1a14.82,14.82,0,0,1,4.46,1.52Zm-.92,6.24a9.2,9.2,0,1,0-6.39,16h43a2.28,2.28,0,0,0,2.53-2.46,2.21,2.21,0,0,0-2.11-2.05,17.63,17.63,0,0,0-1.78,0c-.4,0-.62-.05-.67-.52a14.64,14.64,0,0,0-.3-1.58,5.48,5.48,0,0,0-6.33-4.24l-3.34.59c.16-1.18.3-2.31.47-3.44a10.48,10.48,0,0,0-20.7-3.31c-.27,1.38-.56,2.77-.87,4.24C288.07,264.46,287,263.37,285.81,262.32Z"/>
    <path class="cls-25" d="M289.28,265.61c-1.21-1.15-2.31-2.24-3.47-3.29a9.2,9.2,0,1,0-6.39,16h43a2.28,2.28,0,0,0,2.53-2.46,2.21,2.21,0,0,0-2.11-2.05,17.63,17.63,0,0,0-1.78,0c-.4,0-.62-.05-.67-.52a14.64,14.64,0,0,0-.3-1.58,5.48,5.48,0,0,0-6.33-4.24l-3.34.59c.16-1.18.3-2.31.47-3.44a10.48,10.48,0,0,0-20.7-3.31C289.88,262.75,289.59,264.14,289.28,265.61Z"/>
  </g>
  <g>
    <path class="cls-24" d="M344.93,247.3a10.73,10.73,0,0,1,16.35-3.3,10.37,10.37,0,0,1,3.85,7.19c0,.4.15.57.58.66a7.08,7.08,0,0,1,5.22,4.11.68.68,0,0,0,.45.39,5,5,0,0,1-1.66,9.85H340.13a10.34,10.34,0,0,1-1.67-.12,9.85,9.85,0,1,1,3.18-19.45,10.27,10.27,0,0,1,3.09,1Zm-.63,4.32a6.38,6.38,0,1,0-4.43,11.1h29.77A1.59,1.59,0,0,0,371.4,261a1.54,1.54,0,0,0-1.47-1.42q-.62,0-1.23,0c-.28,0-.43,0-.46-.36s-.14-.73-.21-1.09a3.79,3.79,0,0,0-4.39-2.94l-2.31.41c.11-.82.2-1.61.32-2.39A7.27,7.27,0,0,0,347.3,251c-.18,1-.39,1.92-.6,2.95C345.86,253.11,345.1,252.35,344.3,251.62Z"/>
    <path class="cls-25" d="M346.7,253.91c-.84-.8-1.6-1.56-2.4-2.29a6.38,6.38,0,1,0-4.43,11.1h29.77A1.59,1.59,0,0,0,371.4,261a1.54,1.54,0,0,0-1.47-1.42q-.62,0-1.23,0c-.28,0-.43,0-.46-.36s-.14-.73-.21-1.09a3.79,3.79,0,0,0-4.39-2.94l-2.31.41c.11-.82.2-1.61.32-2.39A7.27,7.27,0,0,0,347.3,251C347.12,251.92,346.91,252.88,346.7,253.91Z"/>
  </g>
  <g>
    <path class="cls-24" d="M403.47,238.7a9.63,9.63,0,0,1,2.84-1,9,9,0,1,1,2.91,17.83,9.76,9.76,0,0,1-1.53.11H380.57a4.62,4.62,0,0,1-1.52-9,.62.62,0,0,0,.41-.36,6.5,6.5,0,0,1,4.79-3.77c.39-.08.49-.23.53-.6a9.47,9.47,0,0,1,3.53-6.59,9.83,9.83,0,0,1,15,3Zm-1.8,5.72c-.2-.94-.38-1.82-.55-2.7A6.66,6.66,0,0,0,388,243.83c.11.71.19,1.43.29,2.18l-2.11-.37a3.48,3.48,0,0,0-4,2.69,9,9,0,0,0-.19,1c0,.29-.17.34-.43.32a10.47,10.47,0,0,0-1.12,0,1.39,1.39,0,0,0-1.34,1.3,1.44,1.44,0,0,0,1.6,1.56h27.29a5.85,5.85,0,1,0-4.06-10.18C403.14,243,402.44,243.69,401.67,244.42Z"/>
    <path class="cls-25" d="M401.67,244.42c.77-.73,1.47-1.43,2.2-2.1a5.85,5.85,0,1,1,4.06,10.18H380.64a1.44,1.44,0,0,1-1.6-1.56,1.39,1.39,0,0,1,1.34-1.3,10.47,10.47,0,0,1,1.12,0c.26,0,.4,0,.43-.32a9,9,0,0,1,.19-1,3.48,3.48,0,0,1,4-2.69l2.11.37c-.1-.75-.18-1.47-.29-2.18a6.66,6.66,0,0,1,13.15-2.11C401.29,242.6,401.47,243.48,401.67,244.42Z"/>
  </g>
  <rect class="cls-26" x="432.75" y="380.49" width="12" height="75.39"/>
  <polygon class="cls-27" points="432.99 379.37 444.5 379.37 478.38 355.58 467.26 355.58 432.99 379.37"/>
  <line class="cls-8" x1="445.56" y1="456.48" x2="478.51" y2="431.76"/>
  <polygon class="cls-28" points="388.01 398.05 381.95 395.05 421.64 379.67 428.27 382.8 388.01 398.05"/>
  <line class="cls-19" x1="477.92" y1="356.43" x2="478.11" y2="432.57"/>
  <polygon points="388.24 448.3 382.05 446.5 382.05 396.1 388.24 397.94 388.24 448.3"/>
  <polygon points="399.42 488.58 394.05 487.01 394.05 442.51 399.42 443 399.42 488.58"/>
  <line class="cls-29" x1="389.55" y1="392.1" x2="394.92" y2="395.35"/>
  <line class="cls-29" x1="415.86" y1="382.05" x2="421.23" y2="385.3"/>
  <rect class="cls-1" x="359.75" y="512.87" width="17.33" height="46.09" rx="6.27"/>
  <path class="cls-1" d="M374,512a3,3,0,0,1-3,3h-5.12a3,3,0,0,1-3-3h0a3,3,0,0,1,3-3H371a3,3,0,0,1,3,3Z"/>
  <path class="cls-1" d="M370.3,508.12a1.92,1.92,0,0,1-1.93,1.93h0a1.93,1.93,0,0,1-1.94-1.93v-2.53a1.94,1.94,0,0,1,1.94-1.94h0a1.93,1.93,0,0,1,1.93,1.94Z"/>
  <rect class="cls-30" x="398.97" y="498.51" width="1.67" height="11.54"/>
  <path class="cls-8" d="M131.41,569.42l-15.4-5.3s-10.28,3.93-3.8,14l20.28,6.6"/>
  <path class="cls-8" d="M143.76,444V582.39a3.14,3.14,0,0,1-3.14,3.14h-6.08a3.14,3.14,0,0,1-3.13-3.14V431.84"/>
  <path class="cls-8" d="M152.49,431.56l-15.34-5.2s-10.29,3.93-3.8,14l15.13,5.12"/>
  <path class="cls-8" d="M172.68,432.89,158.25,428s-17.15,8.3-6.15,26l19.75,6.46"/>
  <polygon class="cls-31" points="171.54 369.8 155.97 364.49 171.53 353.65 171.54 369.8"/>
  <polygon class="cls-31" points="154.77 364.07 145.23 371.21 154.77 375.53 154.77 364.07"/>
  <path class="cls-32" d="M325.9,209.42v-.33s-2.41-.1-6.61,0c-4.2-.12-6.61,0-6.61,0v.33C274.18,212,165.37,231,174.58,365.6c0,0,63.42,41.95,144.71,40.07C400.57,407.55,464,356.76,464,356.76,473.2,222.16,364.4,212,325.9,209.42Z"/>
  <path class="cls-20" d="M171.86,383.94s98.27,60.6,210.66,33.83V400.22C270.13,427,171.86,366.39,171.86,366.39Z"/>
  <path class="cls-33" d="M318.21,107.37l-21.73,121.9s19.48,10.31,47.18,0Z"/>
  <path class="cls-4" d="M307.65,172.56s14.33,5.13,24-.77"/>
  <path class="cls-4" d="M310.31,151s9.29,5.37,16.85-.78"/>
  <path class="cls-4" d="M302.92,198.16s17.15,8.65,33.37-.77"/>
  <path class="cls-4" d="M298.4,218.44s23,10,43-.78"/>
  <path class="cls-32" d="M290.7,463.33s25.77-36.65,57.66-2.21h0s-25.77,36.65-57.66,2.21Z"/>
  <path class="cls-32" d="M187.18,433.46s38-23.68,53.94,20.47h0s-38,23.68-53.94-20.47Z"/>
  <line class="cls-34" x1="234.27" y1="514.86" x2="281.98" y2="524.78"/>
  <polyline class="cls-5" points="388.04 447.74 388.04 397.94 428.27 382.8 428.27 473.55 399.24 488.12 399.24 443.93 388.04 447.74"/>
  <rect x="390.68" y="400.15" width="3.54" height="4.01"/>
  <rect x="394.22" y="409.23" width="5.92" height="4.01"/>
  <rect class="cls-30" x="390.68" y="417.97" width="4.25" height="4.01"/>
  <rect x="392.45" y="426.23" width="7.7" height="4.01"/>
  <rect x="390.68" y="435.02" width="4.73" height="4.01"/>
  <g>
    <rect x="406.98" y="393.54" width="5.19" height="8.05"/>
    <rect x="412.17" y="414.68" width="8.67" height="8.05"/>
    <rect x="406.98" y="432.81" width="6.22" height="5.26"/>
    <rect x="414.7" y="449.2" width="5.06" height="4.67"/>
    <rect x="408.1" y="466.46" width="4.71" height="8.05"/>
  </g>
  <rect x="417.32" y="391.71" width="4.41" height="16.13"/>
  <rect x="397.29" y="417.84" width="2.65" height="6.68"/>
  <rect x="423.74" y="409" width="2.65" height="6.68"/>
  <rect x="392.73" y="403.66" width="1.46" height="6.68"/>
  <rect x="419.71" y="414.68" width="6.68" height="1.32"/>
  <rect x="419.71" y="407.85" width="6.68" height="1.32"/>
  <rect x="392.45" y="428.89" width="2.96" height="6.68"/>
  <polygon points="412.81 479.45 409.85 481.2 409.85 473.55 412.81 473.55 412.81 479.45"/>
  <rect x="404.08" y="442.73" width="2.65" height="6"/>
  <rect x="417.97" y="435.18" width="0.93" height="6"/>
  <rect x="398.26" y="429.23" width="0.71" height="4.55"/>
  <rect class="cls-30" x="404.08" y="448.73" width="2.65" height="6"/>
  <rect x="404.08" y="454.73" width="2.65" height="6"/>
  <g>
    <rect class="cls-30" x="439.15" y="429.32" width="2.52" height="4.76"/>
    <rect class="cls-30" x="439.15" y="434.08" width="2.52" height="4.77"/>
    <rect class="cls-30" x="439.15" y="438.85" width="2.52" height="4.76"/>
  </g>
  <g>
    <rect x="473.38" y="387.59" width="2.52" height="7.19"/>
    <rect class="cls-30" x="473.38" y="394.78" width="2.52" height="7.2"/>
    <rect x="473.38" y="401.98" width="2.52" height="7.19"/>
  </g>
  <g>
    <rect class="cls-30" x="435.38" y="429.32" width="2.52" height="4.76"/>
    <rect class="cls-30" x="435.38" y="434.08" width="2.52" height="4.77"/>
    <rect class="cls-30" x="435.38" y="438.85" width="2.52" height="4.76"/>
  </g>
  <g>
    <rect x="408.7" y="493.18" width="2.52" height="4.76"/>
    <rect class="cls-30" x="408.7" y="497.95" width="2.52" height="4.77"/>
    <rect x="408.7" y="502.71" width="2.52" height="4.76"/>
  </g>
  <g>
    <rect x="404.08" y="498.51" width="2.52" height="4.76"/>
    <rect class="cls-30" x="404.08" y="503.28" width="2.52" height="4.77"/>
    <rect x="404.08" y="508.04" width="2.52" height="4.76"/>
  </g>
  <path d="M392,454.53a3.45,3.45,0,1,1-3.45-3.44A3.44,3.44,0,0,1,392,454.53Z"/>
  <path d="M392,481.3a3.45,3.45,0,1,1-3.45-3.44A3.44,3.44,0,0,1,392,481.3Z"/>
  <path class="cls-30" d="M392,467.58a3.45,3.45,0,1,1-3.45-3.44A3.44,3.44,0,0,1,392,467.58Z"/>
  <path class="cls-30" d="M420.28,433.85a1.84,1.84,0,1,1-1.84-1.84A1.84,1.84,0,0,1,420.28,433.85Z"/>
  <path class="cls-30" d="M409.77,406.33a1.84,1.84,0,1,1-1.84-1.83A1.84,1.84,0,0,1,409.77,406.33Z"/>
  <path class="cls-10" d="M387,403.39a1.84,1.84,0,1,1-1.84-1.84A1.84,1.84,0,0,1,387,403.39Z"/>
  <path class="cls-10" d="M386.29,410.34a1.15,1.15,0,1,1-1.15-1.15A1.15,1.15,0,0,1,386.29,410.34Z"/>
  <path class="cls-30" d="M425.24,393.24a1.5,1.5,0,1,1-1.5-1.48A1.5,1.5,0,0,1,425.24,393.24Z"/>
  <path d="M425.24,398.59a1.5,1.5,0,1,1-1.5-1.49A1.5,1.5,0,0,1,425.24,398.59Z"/>
  <path class="cls-30" d="M425.24,404.49a1.5,1.5,0,1,1-1.5-1.49A1.5,1.5,0,0,1,425.24,404.49Z"/>
  <path class="cls-30" d="M400.45,402.15a1.84,1.84,0,1,1-1.84-1.84A1.84,1.84,0,0,1,400.45,402.15Z"/>
  <path class="cls-30" d="M401.72,421.18a.79.79,0,1,1-.79-.79A.79.79,0,0,1,401.72,421.18Z"/>
  <path class="cls-30" d="M400.12,435.13a1.51,1.51,0,1,1-1.51-1.51A1.52,1.52,0,0,1,400.12,435.13Z"/>
  <path class="cls-30" d="M399.29,438.18a.73.73,0,1,1-.73-.73A.73.73,0,0,1,399.29,438.18Z"/>
  <path class="cls-30" d="M420.28,442.73a1.84,1.84,0,1,1-1.84-1.84A1.84,1.84,0,0,1,420.28,442.73Z"/>
  <path class="cls-30" d="M411.93,451.73a1.84,1.84,0,1,1-1.84-1.84A1.84,1.84,0,0,1,411.93,451.73Z"/>
  <path d="M426.46,446.93a1.2,1.2,0,0,1-2.39,0,1.2,1.2,0,1,1,2.39,0Z"/>
  <path class="cls-30" d="M426.46,443a1.2,1.2,0,0,1-2.39,0,1.2,1.2,0,1,1,2.39,0Z"/>
  <path d="M426.46,439.08a1.2,1.2,0,1,1-1.19-1.19A1.19,1.19,0,0,1,426.46,439.08Z"/>
  <path d="M426.65,425.2a.75.75,0,0,1-1.5,0,.75.75,0,1,1,1.5,0Z"/>
  <path d="M426.65,421.18a.75.75,0,1,1-.75-.75A.76.76,0,0,1,426.65,421.18Z"/>
  <path d="M389.54,394.74a.75.75,0,0,1-1.5,0,.75.75,0,0,1,1.5,0Z"/>
  <path d="M423.09,382.05a.75.75,0,1,1-.75-.75A.75.75,0,0,1,423.09,382.05Z"/>
  <path d="M426.65,434.21a.75.75,0,0,1-1.5,0,.75.75,0,1,1,1.5,0Z"/>
  <path d="M426.9,472a.75.75,0,1,1-.75-.75A.75.75,0,0,1,426.9,472Z"/>
  <path d="M450.35,461.87a.75.75,0,1,1-.75-.75A.76.76,0,0,1,450.35,461.87Z"/>
  <path d="M436.67,469.69a.75.75,0,0,1-1.5,0,.75.75,0,0,1,1.5,0Z"/>
  <path d="M431.25,480.57a.75.75,0,1,1-.75-.75A.75.75,0,0,1,431.25,480.57Z"/>
  <path d="M423.09,484.49a.75.75,0,0,1-1.5,0,.75.75,0,0,1,1.5,0Z"/>
  <path d="M411,509.55a1,1,0,1,1-1-1A1,1,0,0,1,411,509.55Z"/>
  <path class="cls-30" d="M406.84,495.57a1.5,1.5,0,1,1-1.5-1.5A1.5,1.5,0,0,1,406.84,495.57Z"/>
  <path d="M402.14,484.84a.75.75,0,1,1-.75-.75A.75.75,0,0,1,402.14,484.84Z"/>
  <circle cx="413.51" cy="412.67" r="1.19"/>
  <path d="M418.55,412.67a1.2,1.2,0,1,1-1.2-1.2A1.19,1.19,0,0,1,418.55,412.67Z"/>
  <circle cx="421.23" cy="412.67" r="1.19"/>
  <circle class="cls-30" cx="417.38" cy="470.11" r="1.84"/>
  <path d="M440.82,388.1a2.08,2.08,0,1,1-2.08-2.08A2.08,2.08,0,0,1,440.82,388.1Z"/>
  <path class="cls-30" d="M440.82,395.3a2.08,2.08,0,1,1-2.08-2.08A2.08,2.08,0,0,1,440.82,395.3Z"/>
  <path d="M440.82,402.88a2.08,2.08,0,1,1-2.08-2.08A2.08,2.08,0,0,1,440.82,402.88Z"/>
  <path d="M440.82,450.26a2.08,2.08,0,1,1-2.08-2.08A2.07,2.07,0,0,1,440.82,450.26Z"/>
  <path class="cls-30" d="M408.92,426.08a.76.76,0,0,1-.84.64h0a.76.76,0,0,1-.83-.64V412.93a.76.76,0,0,1,.83-.64h0a.76.76,0,0,1,.84.64Z"/>
  <polygon points="463.97 368.58 459.37 371.65 459.37 378.02 463.97 375.32 463.97 368.58"/>
  <polygon class="cls-30" points="455.69 374.04 451.08 377.11 451.08 383.48 455.69 380.78 455.69 374.04"/>
  <rect x="463.61" y="394.23" width="8.67" height="8.05"/>
  <rect x="458.42" y="412.36" width="6.22" height="5.26"/>
  <rect x="466.14" y="428.75" width="5.06" height="4.67"/>
  <rect x="468.75" y="417.51" width="4.71" height="8.05"/>
  <rect x="468.88" y="361.81" width="1.57" height="25.23"/>
  <path class="cls-30" d="M461.21,385.89a1.84,1.84,0,1,1-1.84-1.84A1.85,1.85,0,0,1,461.21,385.89Z"/>
  <path class="cls-30" d="M476.13,365.63a1.49,1.49,0,1,1-3,0,1.49,1.49,0,0,1,3,0Z"/>
  <path d="M476.13,371.81a1.49,1.49,0,1,1-1.49-1.49A1.49,1.49,0,0,1,476.13,371.81Z"/>
  <path class="cls-30" d="M476.13,377.71a1.49,1.49,0,1,1-1.49-1.49A1.5,1.5,0,0,1,476.13,377.71Z"/>
  <path class="cls-30" d="M460.36,405.63a.76.76,0,0,1-.84.64h0a.76.76,0,0,1-.84-.64V392.48c0-.35.38-.63.84-.63h0c.46,0,.84.28.84.63Z"/>
  <path class="cls-30" d="M439.58,424a.76.76,0,0,1-.84.64h0a.76.76,0,0,1-.83-.64V410.89a.76.76,0,0,1,.83-.64h0a.76.76,0,0,1,.84.64Z"/>
  <path class="cls-30" d="M448.29,513.93a1,1,0,0,1-.84,1.1h0c-.46,0-.83-.49-.83-1.1V491c0-.61.37-1.1.83-1.1h0a1,1,0,0,1,.84,1.1Z"/>
  <path class="cls-30" d="M406.09,480.6c0,.28-.37.5-.83.5h0c-.46,0-.84-.22-.84-.5V470.19c0-.28.38-.5.84-.5h0c.46,0,.83.22.83.5Z"/>
  <path class="cls-30" d="M415.49,406.37c0,.35-.37.63-.83.63h0c-.46,0-.84-.28-.84-.63V393.21c0-.35.38-.63.84-.63h0c.46,0,.83.28.83.63Z"/>
  <path class="cls-30" d="M418.44,465.5a1,1,0,0,1-1,1h0a1,1,0,0,1-1-1v-5.66a1,1,0,0,1,1-1h0a1,1,0,0,1,1,1Z"/>
  <polyline class="cls-35" points="428.27 434.96 422.34 437.88 422.34 476.34"/>
  <polyline class="cls-12" points="403.26 392.58 403.26 432.23 428.27 422.95"/>
  <rect x="399.94" y="417.84" width="2.91" height="2.13"/>
  <rect x="424.38" y="466.26" width="1.77" height="2"/>
  <rect x="421.05" y="437.6" width="1.29" height="39.55"/>
  <rect x="401.97" y="392.58" width="1.29" height="40.18"/>
  <rect x="420.89" y="435.94" width="7.51" height="1.06" transform="translate(-149.5 233.53) rotate(-26.32)"/>
  <rect x="408.18" y="444.12" width="3.82" height="3.23"/>
  <rect x="422.74" y="428.13" width="3.82" height="3.23"/>
  <polygon points="455.69 387.73 449.78 391.73 449.78 396.73 455.69 392.73 455.69 387.73"/>
  <polygon points="455.69 403.35 445.56 411.36 445.56 416.36 455.69 408.35 455.69 403.35"/>
  <rect x="408.18" y="456.11" width="3.82" height="3.23"/>
  <g>
    <path class="cls-30" d="M426.14,464.05c0,.35-.37.63-.83.63h0c-.47,0-.84-.28-.84-.63V450.89c0-.35.37-.63.84-.63h0c.46,0,.83.28.83.63Z"/>
    <rect class="cls-30" x="424.47" y="451.73" width="1.67" height="2.28"/>
    <rect class="cls-30" x="424.47" y="456.23" width="1.67" height="2.28"/>
    <rect class="cls-30" x="424.47" y="460.73" width="1.67" height="2.28"/>
  </g>
  <g>
    <path class="cls-30" d="M454.34,431c0,.42-.59.77-1.32.77h0c-.74,0-1.33-.35-1.33-.77V415.07c0-.43.59-.77,1.33-.77h0c.73,0,1.32.34,1.32.77Z"/>
    <rect x="451.69" y="416.08" width="2.65" height="2.76"/>
    <rect x="451.69" y="421.53" width="2.65" height="2.76"/>
    <rect x="451.69" y="426.99" width="2.65" height="2.76"/>
  </g>
  <polyline class="cls-36" points="399.42 483.21 403.6 481.3 403.6 485.54"/>
  <g>
    <polygon class="cls-25" points="246.33 343.89 265.45 303.63 275.81 316.44 288.12 288.99 300.12 297.99 306.42 313.89 308.22 313.44 315.23 298.89 331.93 315.38 333.58 328.9 341.25 342.17 304.18 349.32 284.3 349.07 246.33 343.89"/>
    <polyline class="cls-37" points="243.27 348.3 265.38 306.64 274.12 318.99 287.07 291.18 299.01 298.34 304.72 317.88 313.74 300.49 323.29 310.39 329.24 315.12 332.36 332.16 339.03 345.49"/>
    <polygon class="cls-24" points="269.73 330.55 264.57 318.94 265.38 306.64 277.98 322.85 269.73 330.55"/>
    <polygon class="cls-24" points="293.97 311.68 286.32 303.48 287.14 291.18 299.01 298.34 293.97 311.68"/>
    <polygon class="cls-24" points="297.82 318.6 293.97 311.68 299.01 298.34 304.72 317.88 297.82 318.6"/>
    <polygon class="cls-24" points="264.57 332.9 277.98 322.85 275.63 333.32 284.66 347.15 264.57 332.9"/>
    <polygon points="297.97 318.58 291.58 325.76 293.97 311.68 297.97 318.58"/>
    <polygon class="cls-24" points="312.5 300.49 318.54 322.85 312.5 331.23 303.48 347.15 318.54 338.11 337.79 345.49 331.12 332.16 328 315.12 312.5 300.49"/>
  </g>
  <g>
    <polygon class="cls-25" points="185.89 361.56 201.96 328.2 209.4 337.4 219.75 318.21 226.87 324.14 231.39 335.57 232.69 335.25 237.72 324.79 249.72 336.64 250.91 346.35 256.42 355.88 229.15 363.6 214.88 358.89 185.89 361.56"/>
    <polyline class="cls-37" points="185.89 360.87 201.78 330.94 208.06 339.81 217.36 319.83 225.94 324.98 230.04 339.02 236.52 326.52 243.38 333.63 247.66 337.03 249.9 349.27 254.69 358.85"/>
    <polygon class="cls-24" points="204.9 348.12 201.19 339.77 201.78 330.94 210.83 342.58 204.9 348.12"/>
    <polygon class="cls-24" points="222.32 334.56 216.82 328.67 217.41 319.83 225.94 324.98 222.32 334.56"/>
    <polygon class="cls-24" points="225.08 339.53 222.32 334.56 225.94 324.98 230.04 339.02 225.08 339.53"/>
    <polygon class="cls-24" points="201.19 349.81 210.83 342.58 209.14 350.11 214.88 358.89 201.19 349.81"/>
    <polygon points="225.19 339.52 220.6 344.68 222.32 334.56 225.19 339.52"/>
    <polygon class="cls-24" points="235.63 326.52 239.97 342.58 235.63 348.61 229.15 363.6 239.97 353.55 253.8 358.85 249.01 349.27 246.76 337.03 235.63 326.52"/>
  </g>
  <polygon class="cls-25" points="239 384.27 259.15 342.32 269.23 354.79 279.17 333.94 286.6 336.03 294.36 333.94 300.42 349.21 300.78 351.87 307.6 337.7 323.86 353.75 325.46 366.91 332.93 379.83 296.85 386.79 280.01 381.44 239 384.27"/>
  <polyline class="cls-37" points="239 384.27 261.24 342.01 269.74 354.04 279.17 333.94 286.74 337.05 293.97 333.94 299.53 352.96 308.31 336.03 317.61 345.67 323.4 350.27 326.44 366.86 332.93 379.83"/>
  <polygon class="cls-24" points="265.47 365.29 260.45 353.99 261.24 342.01 273.5 357.79 265.47 365.29"/>
  <polygon class="cls-24" points="287.87 339.99 285.03 336.03 279.23 333.94 286.6 336.96 293.97 333.94 287.87 339.99"/>
  <polygon class="cls-24" points="299.35 353.65 287.87 339.99 293.97 333.94 299.53 352.96 299.35 353.65"/>
  <polygon class="cls-24" points="260.45 367.58 273.5 357.79 271.21 367.98 280.01 381.44 260.45 367.58"/>
  <polygon class="cls-24" points="307.1 336.03 312.98 357.79 307.1 365.95 296.85 386.79 312.98 372.65 331.71 379.83 325.97 366.61 323.48 350.73 307.1 336.03"/>
  <rect class="cls-30" x="461.21" y="415.34" width="5.83" height="2.28"/>
  <rect class="cls-30" x="463.61" y="397.92" width="5.83" height="2.28"/>
  <rect class="cls-30" x="463.61" y="400.08" width="3.43" height="15.26"/>
  <rect x="454.34" y="392.58" width="1.35" height="15.93"/>
  <line class="cls-35" x1="433.58" y1="384.83" x2="443.91" y2="384.83"/>
  <line class="cls-35" x1="433.58" y1="445.73" x2="443.91" y2="445.73"/>
  <polyline class="cls-35" points="444.74 390.17 464.64 378.71 464.61 390.45 477.89 381.58"/>
  <line class="cls-11" x1="418.05" y1="485.18" x2="432.46" y2="478.17"/>
  <rect x="450.74" y="458.49" width="1.9" height="48.44"/>
  <path d="M449.6,468.55a2.39,2.39,0,1,1-2.38-2.39A2.38,2.38,0,0,1,449.6,468.55Z"/>
  <path class="cls-30" d="M449.6,476.82a2.39,2.39,0,1,1-2.38-2.38A2.39,2.39,0,0,1,449.6,476.82Z"/>
  <path d="M449.6,485.53a2.39,2.39,0,1,1-2.38-2.39A2.39,2.39,0,0,1,449.6,485.53Z"/>
  <polyline class="cls-12" points="399.94 466.46 414.7 460.73 414.7 480.21"/>
  <g>
    <g>
      <path class="cls-10" d="M513.76,489.31s-13.4-15.16-12.86-28.83c0,0-17.69-5.36-16.08,11.79,0,0-7-21.61-14.2-35.72l-13.93-13.08s-12.86-.21-11.53,11.7l7.51,12.22,9.11,24.08,5.09,28.27-29.21-2.41L414.35,518.6,413,535l-1.21,12.86-2.5,6.7,15.5,19,18.49-5.09s3.75,42.87,31.08,35.64c0,0,37.78-.54,46.62-37.78Z"/>
      <path d="M468.41,606.59h0c-20.38,0-25.51-28.15-26.54-36l-17.67,4.86-16.78-20.59,2.76-7.39,1.18-12.64,1.39-17,24.33-22.2,27.78,2.29-4.68-26-9-23.79-7.62-12.4,0-.36c-.43-3.83.42-7,2.52-9.32,3.67-4.1,9.9-4.22,10.6-4.22h.66l.52.45L472,435.54l.13.25c4.65,9.06,9.21,21.27,11.89,28.88a10.1,10.1,0,0,1,1.92-3.16c2.07-2.27,5.28-3.47,9.26-3.47a23.6,23.6,0,0,1,6.22.86l1.22.37-.05,1.28c-.5,12.83,12.32,27.51,12.45,27.66l.36.4,7.31,77.83-.07.27c-8.68,36.57-44.83,38.91-48,39A24.91,24.91,0,0,1,468.41,606.59Zm-23.65-40.24.18,2c0,.35,3.31,34.95,23.47,34.95a21.78,21.78,0,0,0,5.54-.77l.4-.06c1.48,0,36.43-1,45-36.24L512.16,490c-2.13-2.52-12.66-15.56-12.93-28.2a20.76,20.76,0,0,0-4.07-.43c-3.07,0-5.36.8-6.81,2.39-1.6,1.76-2.24,4.58-1.88,8.38l1.41,15-4.63-14.37c-.07-.21-6.93-21.39-14-35.23l-13.22-12.4c-1.48.1-5.31.59-7.55,3.09a8.17,8.17,0,0,0-1.74,6.39l7.45,12.17,9.19,24.38,5.47,30.38L438.25,499,416,519.38l-1.29,15.73-1.23,13.1-2.25,6,14.22,17.45Z"/>
    </g>
    <polygon points="413.92 542.48 410.8 541.39 416.5 525.08 442.61 512.43 465.61 519.13 464.69 522.3 442.9 515.97 419.17 527.46 413.92 542.48"/>
    <polygon points="411.74 552.53 409.11 550.52 421.61 534.07 451.43 536.01 451.22 539.31 423.17 537.49 411.74 552.53"/>
    <rect x="485.18" y="472.1" width="3.31" height="23.13" transform="matrix(0.98, -0.17, 0.17, 0.98, -76.64, 91.96)"/>
    <polygon points="501.17 503.73 487.21 495.34 489.64 493.6 502.77 500.84 501.17 503.73"/>
  </g>
  <line class="cls-38" x1="440.11" y1="374.43" x2="450.62" y2="374.43"/>
  <line class="cls-38" x1="460.36" y1="360.36" x2="470.87" y2="360.36"/>
  <polygon points="452.74 395.88 451.69 396.63 451.69 398.32 452.74 397.57 452.74 395.88"/>
  <polygon class="cls-30" points="452.91 398.75 450.46 400.5 450.46 404.43 452.91 402.69 452.91 398.75"/>
  <rect x="469.93" y="403.01" width="2.36" height="5.98"/>
  <path class="cls-5" d="M388.59,560.94c0,.66-1.41,1.19-3.14,1.19h-.61c-1.74,0-3.14-.53-3.14-1.19V549.46c0-.66,1.4-1.19,3.14-1.19h.61c1.73,0,3.14.53,3.14,1.19Z"/>
  <rect x="368.01" y="523.57" width="0.93" height="6"/>
  <path class="cls-21" d="M370.32,522.23a1.84,1.84,0,1,1-1.84-1.84A1.84,1.84,0,0,1,370.32,522.23Z"/>
  <path class="cls-21" d="M370.32,531.12a1.84,1.84,0,1,1-1.84-1.84A1.84,1.84,0,0,1,370.32,531.12Z"/>
  <path d="M399.85,567.72a.93.93,0,1,1-.93-.93A.93.93,0,0,1,399.85,567.72Z"/>
  <path d="M370.39,581.25a.93.93,0,0,1-1.85,0,.93.93,0,1,1,1.85,0Z"/>
  <path d="M393.4,563.88a1.58,1.58,0,1,1-1.58-1.58A1.58,1.58,0,0,1,393.4,563.88Z"/>
  <path d="M366.9,539.46a1.52,1.52,0,1,1-1.52-1.51A1.52,1.52,0,0,1,366.9,539.46Z"/>
  <path class="cls-21" d="M366.9,544.72a1.52,1.52,0,1,1-1.52-1.52A1.52,1.52,0,0,1,366.9,544.72Z"/>
  <path d="M363.75,523.94a1.52,1.52,0,1,1-1.51-1.51A1.51,1.51,0,0,1,363.75,523.94Z"/>
  <path class="cls-21" d="M363.75,529.19a1.52,1.52,0,1,1-1.51-1.51A1.52,1.52,0,0,1,363.75,529.19Z"/>
  <path d="M366.9,550.24a1.52,1.52,0,1,1-1.52-1.51A1.52,1.52,0,0,1,366.9,550.24Z"/>
  <path class="cls-21" d="M376.7,572.88a.77.77,0,0,1-.94-.47h0a.77.77,0,0,1,.21-1l11.82-5.76a.74.74,0,0,1,.93.47h0a.74.74,0,0,1-.2,1Z"/>
  <rect class="cls-1" x="393.63" y="511.51" width="4.61" height="4.98" rx="0.94"/>
  <rect class="cls-1" x="393.63" y="543.77" width="4.61" height="4.98" rx="0.94"/>
  <path class="cls-21" d="M371.14,554.42a.81.81,0,0,1-.84.78h0a.81.81,0,0,1-.83-.78V538.29a.81.81,0,0,1,.83-.78h0a.81.81,0,0,1,.84.78Z"/>
  <rect class="cls-1" x="376.53" y="506.35" width="17.33" height="46.09" rx="6.27"/>
  <path class="cls-1" d="M390.79,505.47a3,3,0,0,1-3,3h-5.12a3,3,0,0,1-3-3h0a3,3,0,0,1,3-3h5.12a3,3,0,0,1,3,3Z"/>
  <path class="cls-1" d="M387.08,501.6a1.93,1.93,0,0,1-1.94,1.93h0a1.92,1.92,0,0,1-1.93-1.93v-2.54a1.93,1.93,0,0,1,1.93-1.93h0a1.94,1.94,0,0,1,1.94,1.93Z"/>
  <path d="M391.6,524.87a1.19,1.19,0,1,1-1.19-1.19A1.19,1.19,0,0,1,391.6,524.87Z"/>
  <path d="M384.63,548.75a1.2,1.2,0,0,1-2.39,0,1.2,1.2,0,1,1,2.39,0Z"/>
  <path class="cls-21" d="M391.6,521a1.19,1.19,0,1,1-1.19-1.19A1.19,1.19,0,0,1,391.6,521Z"/>
  <path d="M391.6,517a1.19,1.19,0,1,1-1.19-1.2A1.19,1.19,0,0,1,391.6,517Z"/>
  <path d="M386.34,505.66a1.2,1.2,0,1,1-1.2-1.19A1.19,1.19,0,0,1,386.34,505.66Z"/>
  <path class="cls-21" d="M391.24,542.05a.76.76,0,0,1-.83.64h0a.77.77,0,0,1-.84-.64V528.9a.77.77,0,0,1,.84-.64h0a.76.76,0,0,1,.83.64Z"/>
  <path class="cls-21" d="M383.44,540a1.3,1.3,0,0,1-1.43,1.09h0a1.3,1.3,0,0,1-1.43-1.09V517.57c0-.6.64-1.08,1.43-1.08h0c.79,0,1.43.48,1.43,1.08Z"/>
  <rect x="380.58" y="519" width="2.85" height="3.89"/>
  <rect x="380.58" y="526.68" width="2.85" height="3.89"/>
  <rect x="380.58" y="534.36" width="2.85" height="3.89"/>
  <polyline class="cls-35" points="382.63 508.51 382.63 512.87 387.08 512.87 387.08 552.41"/>
  <polyline class="cls-35" points="379.59 551.55 379.59 545.15 387.08 545.15"/>
  <g>
    <path class="cls-8" d="M157,485.09h6.22a8.15,8.15,0,0,1,8.15,8.15v43.58a8.14,8.14,0,0,1-8.14,8.14H157a8.14,8.14,0,0,1-8.14-8.14V493.24A8.15,8.15,0,0,1,157,485.09Z"/>
    <path class="cls-1" d="M167.41,484a4,4,0,0,1-3.95,4h-6.64a4,4,0,0,1-3.95-4h0a4,4,0,0,1,3.95-4h6.64a4,4,0,0,1,3.95,4Z"/>
    <path class="cls-1" d="M162.6,478.93a2.51,2.51,0,0,1-2.52,2.51h0a2.51,2.51,0,0,1-2.51-2.51v-3.3a2.51,2.51,0,0,1,2.51-2.51h0a2.51,2.51,0,0,1,2.52,2.51Z"/>
    <path d="M168.47,505.84a1.55,1.55,0,1,1-1.55-1.55A1.55,1.55,0,0,1,168.47,505.84Z"/>
    <path d="M159.42,540.17a1.55,1.55,0,1,1-1.55-1.55A1.55,1.55,0,0,1,159.42,540.17Z"/>
    <path class="cls-21" d="M168.47,500.75a1.55,1.55,0,1,1-1.55-1.55A1.55,1.55,0,0,1,168.47,500.75Z"/>
    <path d="M168.47,495.65a1.55,1.55,0,1,1-1.55-1.55A1.54,1.54,0,0,1,168.47,495.65Z"/>
    <path d="M161.63,484.2a1.55,1.55,0,1,1-1.55-1.55A1.54,1.54,0,0,1,161.63,484.2Z"/>
    <path class="cls-21" d="M168,526.3c0,.45-.49.82-1.09.82h0c-.6,0-1.09-.37-1.09-.82V509.21c0-.46.49-.82,1.09-.82h0c.6,0,1.09.36,1.09.82Z"/>
    <g>
      <path class="cls-21" d="M157.87,528.84a1.69,1.69,0,0,1-1.86,1.41h0a1.69,1.69,0,0,1-1.86-1.41V499.67c0-.77.84-1.4,1.86-1.4h0c1,0,1.86.63,1.86,1.4Z"/>
      <rect x="154.15" y="501.53" width="3.7" height="5.05"/>
      <rect x="154.15" y="511.5" width="3.7" height="5.06"/>
      <rect x="154.15" y="521.48" width="3.7" height="5.06"/>
    </g>
    <polyline class="cls-35" points="156.82 487.91 156.82 493.56 162.6 493.56 162.6 544.93"/>
    <polyline class="cls-35" points="152.87 543.81 152.87 535.5 162.6 535.5"/>
  </g>
  <path class="cls-26" d="M398.24,514a16.45,16.45,0,0,1,10.88,14.26c1.22,14.3-10.88,18-10.88,18"/>
  <polyline class="cls-35" points="365.85 515.03 365.85 519 372.1 519 372.1 535.47 362.81 535.47 362.81 558.07"/>
  <rect class="cls-35" x="359.75" y="520.95" width="4.98" height="12.01"/>
  <polyline class="cls-35" points="429.75 376.91 429.75 470.11 437.91 466.17 437.91 493.22"/>
  <polyline points="422.34 506.35 422.34 485.59 430.5 481.68 430.5 499.75"/>
  <polygon class="cls-10" points="426.42 486.65 424.5 487.61 424.5 490.84 426.42 489.88 426.42 486.65"/>
  <polygon class="cls-10" points="384.19 422.25 386.1 423.21 386.1 440.7 384.19 440.28 384.19 422.25"/>
  <polygon class="cls-10" points="384.19 414.89 386.1 415.85 386.1 420.07 384.19 418.93 384.19 414.89"/>
  <polygon class="cls-30" points="426.42 491.58 424.5 492.54 424.5 495.77 426.42 494.81 426.42 491.58"/>
  <polygon class="cls-10" points="426.58 497.75 424.67 498.87 424.67 502.48 426.58 500.98 426.58 497.75"/>
  <polygon class="cls-10" points="428.93 488.39 427.97 488.85 427.97 492.08 428.93 491.62 428.93 488.39"/>
  <polygon class="cls-10" points="428.93 492.35 427.97 492.81 427.97 496.04 428.93 495.58 428.93 492.35"/>
  <polygon class="cls-30" points="428.93 496.64 427.97 497.1 427.97 500.33 428.93 499.61 428.93 496.64"/>
  <path class="cls-30" d="M429.24,486.34a.79.79,0,1,1-.79-.79A.79.79,0,0,1,429.24,486.34Z"/>
  <path d="M373.67,562.67s2.64.37,3.87,3.85l4.47-1.93s-1.11-3.61-4.17-4.06Z"/>
  <line class="cls-39" x1="395.93" y1="548.75" x2="395.93" y2="543.77"/>
  <line class="cls-39" x1="395.93" y1="516.49" x2="395.93" y2="511.51"/>
  <line class="cls-11" x1="401.97" y1="493.27" x2="413.41" y2="487.21"/>
  <line class="cls-11" x1="396.89" y1="496.52" x2="401.97" y2="496.52"/>
  <line class="cls-11" x1="411.33" y1="488.31" x2="405.84" y2="488.31"/>
  <polyline class="cls-39" points="407.69 490.24 407.69 514 412 510.59 412 539.59"/>
  <path class="cls-21" d="M394.81,569.52c.19.38.15.78-.08.9l-8.29,4.12c-.23.12-.58-.1-.76-.48h0c-.19-.38-.16-.78.07-.89L394,569c.24-.11.58.1.77.48Z"/>
  <line class="cls-35" x1="452.74" y1="470.93" x2="460.36" y2="467.27"/>
  <path class="cls-40" d="M351.32,548.75s-64.75,26.09-41.61,95.45c0,0,11.57,11.1,19.81-5.12,0,0-11.36-26,5.6-50.37"/>
  <g>
    <path class="cls-41" d="M342.41,590.75a3.48,3.48,0,0,1-3.48,3.48H337a3.48,3.48,0,0,1-3.48-3.48V558.41c0-1.92,1.56-2.37,3.48-2.37h1.94c1.92,0,3.48.45,3.48,2.37Z"/>
    <path d="M342.41,557.57c0,1.17-2,2.12-4.45,2.12s-4.45-1-4.45-2.12,2-2.11,4.45-2.11S342.41,556.4,342.41,557.57Z"/>
    <path class="cls-41" d="M340.28,557.57c0,.61-1,1.1-2.32,1.1s-2.33-.49-2.33-1.1,1-1.1,2.33-1.1S340.28,557,340.28,557.57Z"/>
    <path class="cls-10" d="M341.05,589.94a.8.8,0,0,1-.83.77h0a.8.8,0,0,1-.84-.77V573.8a.81.81,0,0,1,.84-.78h0a.81.81,0,0,1,.83.78Z"/>
    <path d="M337.89,575.55a1.52,1.52,0,1,1-1.51-1.51A1.52,1.52,0,0,1,337.89,575.55Z"/>
    <path d="M337.89,564.22a1.52,1.52,0,1,1-1.51-1.52A1.52,1.52,0,0,1,337.89,564.22Z"/>
    <path d="M337.89,586.33a1.52,1.52,0,1,1-1.51-1.51A1.52,1.52,0,0,1,337.89,586.33Z"/>
    <line class="cls-35" x1="336.38" y1="564.22" x2="336.38" y2="586.33"/>
    <path class="cls-10" d="M337.89,580.81a1.52,1.52,0,1,1-1.51-1.52A1.52,1.52,0,0,1,337.89,580.81Z"/>
  </g>
  <path d="M320.5,633.83a3.19,3.19,0,1,1-3.18-3.19A3.18,3.18,0,0,1,320.5,633.83Z"/>
  <path d="M320.5,606.53a3.19,3.19,0,1,1-3.18-3.19A3.18,3.18,0,0,1,320.5,606.53Z"/>
  <path d="M273.6,612a8.5,8.5,0,1,1-8.5-8.49A8.5,8.5,0,0,1,273.6,612Z"/>
  <path d="M329.57,581.87a3.19,3.19,0,1,1-3.19-3.19A3.18,3.18,0,0,1,329.57,581.87Z"/>
  <g>
    <path class="cls-1" d="M200.89,574.68a2.88,2.88,0,0,1-3,2.76H179a2.88,2.88,0,0,1-3-2.76h0a2.88,2.88,0,0,1,3-2.77h18.93a2.88,2.88,0,0,1,3,2.77Z"/>
    <rect class="cls-8" x="176" y="581.31" width="24.89" height="40.74" rx="3.13"/>
    <path class="cls-19" d="M183.49,583.25h9.91a3.13,3.13,0,0,1,3.13,3.13v10.32a3.13,3.13,0,0,1-3.13,3.13h-9.91a3.13,3.13,0,0,1-3.13-3.13V586.39A3.14,3.14,0,0,1,183.49,583.25Z"/>
    <path class="cls-8" d="M191.72,608.53a3,3,0,0,1-3,3h0a3,3,0,0,1-3-3v-14a3,3,0,0,1,3-3h0a3,3,0,0,1,3,3Z"/>
    <rect class="cls-19" x="183.14" y="577.44" width="11.06" height="3.23"/>
    <rect class="cls-19" x="177.48" y="577.44" width="22.54" height="3.87"/>
    <path class="cls-42" d="M157.61,543.64s24.6-8,20.14,28.27h21.3s.18-5.21,0-9c0,0,7.59-47.85-42.09-45.11C157,517.77,152.87,528.8,157.61,543.64Z"/>
    <path d="M191,556.14a2.7,2.7,0,1,1-2.7-2.69A2.7,2.7,0,0,1,191,556.14Z"/>
    <path d="M183.22,537.7a2.7,2.7,0,1,1-2.7-2.7A2.7,2.7,0,0,1,183.22,537.7Z"/>
  </g>
  <g>
    <path class="cls-41" d="M175.4,548.82a3.48,3.48,0,0,1-3.48,3.48H170a3.48,3.48,0,0,1-3.49-3.48V516.48c0-1.92,1.56-2.38,3.49-2.38h1.94c1.92,0,3.48.46,3.48,2.38Z"/>
    <path d="M175.4,515.64c0,1.17-2,2.11-4.45,2.11s-4.46-.94-4.46-2.11,2-2.12,4.46-2.12S175.4,514.47,175.4,515.64Z"/>
    <path class="cls-41" d="M173.27,515.64c0,.61-1,1.1-2.32,1.1s-2.33-.49-2.33-1.1,1-1.11,2.33-1.11S173.27,515,173.27,515.64Z"/>
    <path class="cls-10" d="M174,548a.81.81,0,0,1-.83.78h0a.81.81,0,0,1-.84-.78V531.87a.81.81,0,0,1,.84-.78h0a.81.81,0,0,1,.83.78Z"/>
    <path d="M170.88,533.62a1.52,1.52,0,1,1-1.51-1.52A1.52,1.52,0,0,1,170.88,533.62Z"/>
    <path d="M170.88,522.28a1.52,1.52,0,1,1-1.51-1.51A1.52,1.52,0,0,1,170.88,522.28Z"/>
    <path d="M170.88,544.4a1.52,1.52,0,1,1-1.51-1.52A1.52,1.52,0,0,1,170.88,544.4Z"/>
    <line class="cls-35" x1="169.37" y1="522.28" x2="169.37" y2="544.4"/>
    <path class="cls-10" d="M170.88,538.87a1.52,1.52,0,1,1-1.51-1.51A1.52,1.52,0,0,1,170.88,538.87Z"/>
  </g>
  <g>
    <path class="cls-41" d="M165.31,543.57a3.48,3.48,0,0,1-3.49,3.48h-1.94a3.48,3.48,0,0,1-3.48-3.48V511.23c0-1.92,1.56-2.38,3.48-2.38h1.94c1.93,0,3.49.46,3.49,2.38Z"/>
    <path d="M165.31,510.39c0,1.17-2,2.11-4.46,2.11s-4.45-.94-4.45-2.11,2-2.12,4.45-2.12S165.31,509.22,165.31,510.39Z"/>
    <path class="cls-41" d="M163.18,510.39c0,.61-1,1.1-2.33,1.1s-2.32-.49-2.32-1.1,1-1.11,2.32-1.11S163.18,509.78,163.18,510.39Z"/>
    <path class="cls-10" d="M164,542.75a.81.81,0,0,1-.84.78h0a.81.81,0,0,1-.83-.78V526.62a.81.81,0,0,1,.83-.78h0a.81.81,0,0,1,.84.78Z"/>
    <path d="M160.79,528.37a1.52,1.52,0,1,1-1.52-1.52A1.52,1.52,0,0,1,160.79,528.37Z"/>
    <path d="M160.79,517a1.52,1.52,0,1,1-1.52-1.51A1.52,1.52,0,0,1,160.79,517Z"/>
    <path d="M160.79,539.15a1.52,1.52,0,1,1-1.52-1.52A1.52,1.52,0,0,1,160.79,539.15Z"/>
    <line class="cls-35" x1="159.27" y1="517.03" x2="159.27" y2="539.15"/>
    <path class="cls-10" d="M160.79,533.62a1.52,1.52,0,1,1-1.52-1.51A1.52,1.52,0,0,1,160.79,533.62Z"/>
  </g>
  <path class="cls-19" d="M274.55,600.72s8.85,16.62-3.91,24"/>
  <path class="cls-10" d="M263.18,608.59a1.79,1.79,0,1,1-1.79-1.79A1.8,1.8,0,0,1,263.18,608.59Z"/>
  <path class="cls-10" d="M270.78,608.59A1.79,1.79,0,1,1,269,606.8,1.8,1.8,0,0,1,270.78,608.59Z"/>
  <path class="cls-10" d="M263.18,615a1.79,1.79,0,1,1-1.79-1.79A1.79,1.79,0,0,1,263.18,615Z"/>
  <path class="cls-10" d="M270.78,615a1.79,1.79,0,1,1-1.79-1.79A1.79,1.79,0,0,1,270.78,615Z"/>
  <polygon class="cls-1" points="88.58 390.38 88.58 369.03 79.71 369.03 79.71 390.38 76.22 390.38 84.15 404.11 92.07 390.38 88.58 390.38"/>
  <g>
    <rect class="cls-21" x="135.36" y="471.7" width="4.46" height="12.61"/>
    <polygon class="cls-21" points="133.6 473.59 137.58 466.69 141.56 473.59 133.6 473.59"/>
  </g>
  <g>
    <rect class="cls-21" x="135.36" y="526.44" width="4.46" height="12.61"/>
    <polygon class="cls-21" points="133.6 528.33 137.58 521.44 141.56 528.33 133.6 528.33"/>
  </g>
  <g>
    <polygon class="cls-10" points="262.97 296.53 262.97 286.1 258.64 286.1 258.64 296.53 256.93 296.53 260.8 303.23 264.68 296.53 262.97 296.53"/>
    <polygon class="cls-10" points="241.68 291.79 235.57 291.79 235.57 306.5 233.16 306.5 238.62 315.96 244.08 306.5 241.68 306.5 241.68 291.79"/>
    <polygon class="cls-10" points="213 277.53 208.66 277.53 208.66 287.96 206.96 287.96 210.83 294.66 214.7 287.96 213 287.96 213 277.53"/>
  </g>
  <g>
    <polygon class="cls-10" points="391.14 291.57 391.14 281.14 386.81 281.14 386.81 291.57 385.1 291.57 388.98 298.28 392.85 291.57 391.14 291.57"/>
    <polygon class="cls-10" points="369.85 304.34 363.74 304.34 363.74 319.05 361.33 319.05 366.79 328.51 372.25 319.05 369.85 319.05 369.85 304.34"/>
    <polygon class="cls-10" points="341.17 272.57 336.83 272.57 336.83 283 335.13 283 339 289.71 342.87 283 341.17 283 341.17 272.57"/>
  </g>
  <path class="cls-19" d="M140.36,442.76s-4.18-9,5.19-13.55"/>
  <path class="cls-19" d="M156.4,454.82s-9.49-18,7.08-25.08"/>
  <path class="cls-19" d="M124.58,567.07s-9.58,5.6-3.16,14.24"/>
  <path class="cls-19" d="M131.41,561.88s7.68,3.32,12.35-.83"/>
  <polygon class="cls-43" points="154.53 417.55 145.23 413.39 145.23 371.36 154.53 375.53 154.53 417.55"/>
  <path class="cls-21" d="M151.76,407.4a1.81,1.81,0,1,1-1.81-1.81A1.81,1.81,0,0,1,151.76,407.4Z"/>
  <g>
    <path class="cls-21" d="M151.38,402.87A1.3,1.3,0,0,1,150,404h0a1.3,1.3,0,0,1-1.43-1.08V380.41a1.3,1.3,0,0,1,1.43-1.08h0a1.3,1.3,0,0,1,1.43,1.08Z"/>
    <rect x="148.52" y="381.85" width="2.85" height="3.89"/>
    <rect x="148.52" y="389.52" width="2.85" height="3.89"/>
    <rect x="148.52" y="397.2" width="2.85" height="3.89"/>
  </g>
  <g>
    <path class="cls-41" d="M351.32,587.78a3.48,3.48,0,0,1-3.48,3.48H345.9a3.48,3.48,0,0,1-3.48-3.48V555.44c0-1.93,1.56-2.38,3.48-2.38h1.94c1.92,0,3.48.45,3.48,2.38Z"/>
    <path d="M351.32,554.83c0,1.17-2,2.12-4.45,2.12s-4.45-1-4.45-2.12,2-2.11,4.45-2.11S351.32,553.66,351.32,554.83Z"/>
    <path class="cls-41" d="M349.19,554.83c0,.61-1,1.11-2.32,1.11s-2.32-.5-2.32-1.11,1-1.1,2.32-1.1S349.19,554.22,349.19,554.83Z"/>
    <path class="cls-10" d="M350,575.78a.81.81,0,0,1-.84.78h0a.81.81,0,0,1-.83-.78V559.65a.81.81,0,0,1,.83-.78h0a.81.81,0,0,1,.84.78Z"/>
    <path d="M346.87,561.4a1.52,1.52,0,1,1-1.52-1.52A1.51,1.51,0,0,1,346.87,561.4Z"/>
    <path class="cls-10" d="M346.87,566.65a1.52,1.52,0,1,1-1.52-1.51A1.52,1.52,0,0,1,346.87,566.65Z"/>
    <path d="M346.87,572.18a1.52,1.52,0,1,1-1.52-1.51A1.51,1.51,0,0,1,346.87,572.18Z"/>
    <path class="cls-10" d="M346.15,587.25a.8.8,0,0,1-.8.8h0a.8.8,0,0,1-.8-.8v-7.39a.8.8,0,0,1,.8-.81h0a.8.8,0,0,1,.8.81Z"/>
  </g>
  <path class="cls-8" d="M152.51,110.26a7.92,7.92,0,0,1-10.32,4.36L46.25,75.75a7.92,7.92,0,0,1-4.36-10.32l.5-1.23A7.91,7.91,0,0,1,52.7,59.83l95.94,38.88A7.91,7.91,0,0,1,153,109Z"/>
  <path d="M152.91,109.74c-1.92,4.59-6.42,7.09-10,5.57s-5-6.47-3.09-11.06,6.41-7.09,10-5.58S154.83,105.14,152.91,109.74Z"/>
  <polygon class="cls-10" points="133.61 296.14 45.22 260.13 45.22 68.4 133.61 104.4 133.61 296.14"/>
  <path class="cls-1" d="M156.31,110.63a2.64,2.64,0,0,1-3.35,1.65l-6.17-2.09a2.64,2.64,0,0,1-1.65-3.35h0a2.64,2.64,0,0,1,3.35-1.65l6.17,2.1a2.63,2.63,0,0,1,1.65,3.34Z"/>
  <path d="M156.3,125.68a2.06,2.06,0,1,1-.87-3.11A2.3,2.3,0,0,1,156.3,125.68Z"/>
  <path class="cls-44" d="M135.2,93.69c-7.74.14-8.58,7.94-8.58,7.94V293.37l7,2.77V104.6s.73-7.95,8.47-8.08Z"/>
  <path class="cls-44" d="M53.78,60.78c-7.57.13-8.52,7.85-8.55,8.18h0V260.14l7,2.76V72s.95-8.22,8.68-8.35Z"/>
  <polyline class="cls-45" points="45.22 75.23 45.22 260.14 133.61 296.14 133.61 111.15"/>
  <polygon class="cls-21" points="158.59 440.17 166.61 443.08 166.61 440.15 170.97 446.99 166.61 449.94 166.61 447.47 158.59 444.74 158.59 440.17"/>
  <path class="cls-44" d="M371.56,410.69a4.25,4.25,0,1,1-4.25-4.25A4.25,4.25,0,0,1,371.56,410.69Z"/>
  <path class="cls-44" d="M332.68,413.53a4.25,4.25,0,1,1-4.25-4.25A4.24,4.24,0,0,1,332.68,413.53Z"/>
  <path class="cls-44" d="M292,411.23a4.25,4.25,0,1,1-4.24-4.24A4.25,4.25,0,0,1,292,411.23Z"/>
  <path class="cls-44" d="M251,403.83a4.25,4.25,0,1,1-4.25-4.24A4.25,4.25,0,0,1,251,403.83Z"/>
  <path class="cls-44" d="M217.67,393.37a4.24,4.24,0,1,1-4.24-4.24A4.24,4.24,0,0,1,217.67,393.37Z"/>
  <path class="cls-44" d="M189.15,380.31a4.25,4.25,0,1,1-4.25-4.24A4.24,4.24,0,0,1,189.15,380.31Z"/>
  <path class="cls-31" d="M351,346.13c0,.45-.21.81-.47.81h-4.74c-.26,0-.48-.36-.48-.81h0c0-.44.22-.81.48-.81h4.74c.26,0,.47.37.47.81Z"/>
  <path class="cls-31" d="M338.49,349.59c0,.44-.21.8-.47.8h-4.74c-.26,0-.47-.36-.47-.8h0c0-.45.21-.81.47-.81H338c.26,0,.47.36.47.81Z"/>
  <path class="cls-31" d="M338.22,356.9c0,.45-.21.81-.47.81H333c-.26,0-.47-.36-.47-.81h0c0-.44.21-.8.47-.8h4.74c.26,0,.47.36.47.8Z"/>
  <path class="cls-31" d="M360.94,351.32c0,.45-.22.81-.49.81h-5c-.27,0-.49-.36-.49-.81h0c0-.45.22-.81.49-.81h5c.27,0,.49.36.49.81Z"/>
  <path class="cls-31" d="M365.85,356.1c0,.44-.2.8-.45.8H361c-.24,0-.44-.36-.44-.8h0c0-.45.2-.81.44-.81h4.44c.25,0,.45.36.45.81Z"/>
  <path class="cls-31" d="M349.1,356.9c0,.45-.2.81-.44.81h-4.45c-.24,0-.44-.36-.44-.81h0c0-.44.2-.8.44-.8h4.45c.24,0,.44.36.44.8Z"/>
  <path class="cls-31" d="M333.82,364.82c0,.45-.2.81-.44.81h-4.45c-.24,0-.44-.36-.44-.81h0c0-.44.2-.8.44-.8h4.45c.24,0,.44.36.44.8Z"/>
  <path class="cls-31" d="M374.76,348.31c0,.44-.2.8-.44.8h-4.44c-.25,0-.45-.36-.45-.8h0c0-.45.2-.81.45-.81h4.44c.24,0,.44.36.44.81Z"/>
  <path class="cls-31" d="M348,339.72c0,.45-.19.81-.44.81h-4.44c-.24,0-.44-.36-.44-.81h0c0-.44.2-.8.44-.8h4.44c.25,0,.44.36.44.8Z"/>
  <path class="cls-31" d="M394.69,352c0,.44-.2.81-.44.81h-4.44c-.25,0-.45-.37-.45-.81h0c0-.45.2-.81.45-.81h4.44c.24,0,.44.36.44.81Z"/>
  <path class="cls-31" d="M391.45,362.26c0,.44-.2.8-.44.8h-4.44c-.25,0-.44-.36-.44-.8h0c0-.45.19-.81.44-.81H391c.24,0,.44.36.44.81Z"/>
  <path class="cls-31" d="M385.18,371.52c0,.45-.2.81-.44.81H380.3c-.25,0-.45-.36-.45-.81h0c0-.44.2-.8.45-.8h4.44c.24,0,.44.36.44.8Z"/>
  <path class="cls-31" d="M401.27,357.51c0,.45-.19.81-.44.81h-4.44c-.24,0-.44-.36-.44-.81h0c0-.44.2-.81.44-.81h4.44c.25,0,.44.37.44.81Z"/>
  <path class="cls-31" d="M396.8,346.13c0,.45-.2.81-.44.81h-4.44c-.25,0-.44-.36-.44-.81h0c0-.44.19-.81.44-.81h4.44c.24,0,.44.37.44.81Z"/>
  <path class="cls-31" d="M381.69,356.1c0,.44-.2.8-.44.8h-4.44c-.25,0-.45-.36-.45-.8h0c0-.45.2-.81.45-.81h4.44c.24,0,.44.36.44.81Z"/>
  <path class="cls-31" d="M384.35,346.09c0,.45-.2.81-.44.81h-4.44c-.25,0-.44-.36-.44-.81h0c0-.45.19-.81.44-.81h4.44c.24,0,.44.36.44.81Z"/>
  <path class="cls-31" d="M383.88,339.83c0,.44-.2.8-.44.8H379c-.25,0-.45-.36-.45-.8h0c0-.45.2-.81.45-.81h4.44c.24,0,.44.36.44.81Z"/>
  <path class="cls-31" d="M366,341.37c0,.44-.21.8-.46.8h-4.67c-.26,0-.47-.36-.47-.8h0c0-.45.21-.81.47-.81h4.67c.25,0,.46.36.46.81Z"/>
  <path class="cls-31" d="M360.76,336c0,.44-.21.81-.47.81h-4.67c-.26,0-.47-.37-.47-.81h0c0-.45.21-.81.47-.81h4.67c.26,0,.47.36.47.81Z"/>
  <path class="cls-31" d="M355.94,346.24a.91.91,0,0,1-.91.91h-1.16a.91.91,0,0,1-.91-.91h0a.91.91,0,0,1,.91-.92H355a.92.92,0,0,1,.91.92Z"/>
  <path class="cls-31" d="M357.59,362.26c0,.45-.21.81-.47.81h-4.74c-.26,0-.47-.36-.47-.81h0c0-.44.21-.8.47-.8h4.74c.26,0,.47.36.47.8Z"/>
  <path class="cls-31" d="M360.14,370.61c0,.45-.22.81-.48.81h-4.74c-.26,0-.47-.36-.47-.81h0c0-.44.21-.8.47-.8h4.74c.26,0,.48.36.48.8Z"/>
  <path class="cls-31" d="M362.49,362.37a.91.91,0,0,1-.91.91h-1.16a.91.91,0,0,1-.91-.91h0a.91.91,0,0,1,.91-.91h1.16a.9.9,0,0,1,.91.91Z"/>
  <path class="cls-31" d="M375.15,366.44c0,.45-.21.81-.47.81h-4.74c-.26,0-.47-.36-.47-.81h0c0-.45.21-.81.47-.81h4.74c.26,0,.47.36.47.81Z"/>
  <path class="cls-31" d="M380.05,366.54a.9.9,0,0,1-.91.91H378a.9.9,0,0,1-.91-.91h0a.91.91,0,0,1,.91-.91h1.16a.91.91,0,0,1,.91.91Z"/>
  <path class="cls-31" d="M364,370.61a.91.91,0,0,1-.91.91h-1.17a.91.91,0,0,1-.91-.91h0a.91.91,0,0,1,.91-.91h1.17a.91.91,0,0,1,.91.91Z"/>
  <path class="cls-31" d="M331.15,356.9a.91.91,0,0,1-.91.92h-1.16a.91.91,0,0,1-.91-.92h0a.91.91,0,0,1,.91-.91h1.16a.91.91,0,0,1,.91.91Z"/>
  <path class="cls-31" d="M337.79,364.83a.9.9,0,0,1-.91.9h-1.17a.9.9,0,0,1-.91-.9h0a.92.92,0,0,1,.91-.92h1.17a.92.92,0,0,1,.91.92Z"/>
  <path class="cls-31" d="M374.12,342.17a.91.91,0,0,1-.91.91H372a.91.91,0,0,1-.91-.91h0a.91.91,0,0,1,.91-.91h1.17a.91.91,0,0,1,.91.91Z"/>
  <path class="cls-31" d="M364.67,336a.91.91,0,0,1-.91.91H362.6a.91.91,0,0,1-.91-.91h0a.91.91,0,0,1,.91-.91h1.16a.91.91,0,0,1,.91.91Z"/>
  <path class="cls-31" d="M398.87,352.23a.91.91,0,0,1-.91.91H396.8a.92.92,0,0,1-.92-.91h0a.92.92,0,0,1,.92-.91H398a.91.91,0,0,1,.91.91Z"/>
  <path class="cls-31" d="M388.15,339.83a.91.91,0,0,1-.91.91h-1.17a.91.91,0,0,1-.91-.91h0a.91.91,0,0,1,.91-.91h1.17a.91.91,0,0,1,.91.91Z"/>
  <path class="cls-31" d="M370.77,359.73a.91.91,0,0,1-.91.91H368.7a.9.9,0,0,1-.91-.91h0a.91.91,0,0,1,.91-.91h1.16a.91.91,0,0,1,.91.91Z"/>
  <path class="cls-31" d="M348.48,365.73c0,.45-.19.81-.44.81H343.6c-.25,0-.44-.36-.44-.81h0c0-.44.19-.8.44-.8H348c.25,0,.44.36.44.8Z"/>
  <path class="cls-31" d="M348.9,368.9a.91.91,0,0,1-.91.91h-1.17a.91.91,0,0,1-.91-.91h0a.92.92,0,0,1,.91-.92H348a.92.92,0,0,1,.91.92Z"/>
  <path class="cls-14" d="M293.79,321a3,3,0,1,1-3-3A3,3,0,0,1,293.79,321Z"/>
  <path class="cls-14" d="M301.49,322.85a2.14,2.14,0,1,1-2.14-2.15A2.14,2.14,0,0,1,301.49,322.85Z"/>
  <path class="cls-14" d="M287.75,330.05a1.49,1.49,0,1,1-1.49-1.49A1.49,1.49,0,0,1,287.75,330.05Z"/>
  <path class="cls-14" d="M283.23,321.53a2.36,2.36,0,1,1-2.36-2.36A2.36,2.36,0,0,1,283.23,321.53Z"/>
  <path class="cls-14" d="M289.46,307.57a2.77,2.77,0,1,1-2.77-2.77A2.77,2.77,0,0,1,289.46,307.57Z"/>
  <path class="cls-14" d="M275.09,313.89a3.76,3.76,0,1,1-3.76-3.76A3.76,3.76,0,0,1,275.09,313.89Z"/>
  <path class="cls-14" d="M305.82,309.53a3.87,3.87,0,1,1-3.86-3.87A3.86,3.86,0,0,1,305.82,309.53Z"/>
  <path class="cls-14" d="M281.44,300.72a4.88,4.88,0,1,1-4.88-4.88A4.87,4.87,0,0,1,281.44,300.72Z"/>
  <path class="cls-46" d="M278.67,333.63c1.4,1.61,6.89,8.08,8.24,9.65a2.3,2.3,0,0,1,.33.54,1.1,1.1,0,0,1-.34,1.57c-.85.75-1.73,1.47-2.54,2.26a9.93,9.93,0,0,0-1.49,1.75,7,7,0,0,0,.91,8.53c1.1,1.26,2.23,2.5,3.32,3.77a6.19,6.19,0,0,1,.83,1.21,1.58,1.58,0,0,1-.42,2.07c-.57.52-1.16,1-1.72,1.53a7,7,0,0,0-.66,10.2c2.45,2.84,5,5.63,7.46,8.45.44.49.74.5,1.24.06.88-.77,1.76-1.54,2.63-2.32.47-.42.5-.74.09-1.21l-2-2.23-5.31-6c-1.06-1.21-1-2.09.18-3.14.57-.52,1.17-1,1.72-1.54a6.73,6.73,0,0,0,2.07-6.57,8.51,8.51,0,0,0-2.09-3.88c-1.11-1.28-2.24-2.54-3.36-3.81a1.88,1.88,0,0,1,.18-3c.8-.71,1.61-1.4,2.4-2.11a5.84,5.84,0,0,0,2.27-5.69c-.24-1.53-2-3.21-3-4.36a14.56,14.56,0,0,0-3.19-2.95Z"/>
  <path class="cls-47" d="M409.42,343.12c-.95.1-1.78.2-2.61.26a7.62,7.62,0,0,1-1.17,0,.38.38,0,0,1-.28-.22.41.41,0,0,1,.18-.32,5.07,5.07,0,0,1,.89-.25c1.82-.37,3.65-.72,5.47-1.12a5.25,5.25,0,0,0,1.23-.51c.3-.15.32-.39,0-.56-1.16-.67-2.31-1.35-3.49-2a2.78,2.78,0,0,0-1.16-.2c-1.22,0-2.44,0-3.67,0-.11,0-.24,0-.34,0a4.6,4.6,0,0,1-.53-.31c.17-.14.34-.37.53-.39,1-.07,2-.09,3-.14.2,0,.4-.05.7-.09a4.74,4.74,0,0,0-2.27-1.82c-.88-.29-1.74-.6-2.62-.91a1,1,0,0,1-.39-.18,2.53,2.53,0,0,1-.28-.51c.18-.06.38-.21.54-.17.53.12,1,.31,1.56.46a3.58,3.58,0,0,0,1.21.17c-.37-.55-.73-1.11-1.11-1.66-.25-.37-.52-.72-.79-1.08s-.3-.49,0-.63a.68.68,0,0,1,.64.14c.71.88,1.43,1.78,2.06,2.72a13.58,13.58,0,0,0,4.26,4.14l.71.44c.15.08.31.12.58.23-.07-.27-.09-.43-.14-.57-.19-.51-.4-1-.58-1.52a6.68,6.68,0,0,0-2.46-3.24,25.35,25.35,0,0,1-2.76-2.63c-.15-.14-.11-.46-.15-.7.23.05.52,0,.68.16.62.5,1.19,1.06,1.78,1.58.25.21.52.4.9.7a4.76,4.76,0,0,0-.14-.54l-.79-2a4.85,4.85,0,0,1-.31-.88,1.71,1.71,0,0,1,.12-.57c.18.09.44.13.53.27.4.7.79,1.41,1.13,2.15,1.07,2.33,2.15,4.67,3.18,7a12.48,12.48,0,0,0,2.17,3.17s.1.06.21.13c0-.17,0-.29,0-.41l-.6-4.86c0-.13-.09-.28-.05-.39a4.39,4.39,0,0,1,.29-.62c.18.12.47.2.52.36a12.08,12.08,0,0,1,.41,1.78c.31,2.06.59,4.11.9,6.17a2.44,2.44,0,0,0,.24.75c1.12,2.13,2.19,4.29,3.41,6.36.76,1.28,1.74,2.43,2.62,3.64l.18-.05a2.67,2.67,0,0,0,0-.49c-.19-1.1-.39-2.2-.59-3.31-.46-2.53-.93-5.06-1.38-7.59a2.78,2.78,0,0,0-.85-1.68c-.42-.38-.79-.8-1.19-1.19-.24-.23-.43-.52-.19-.77s.53,0,.75.19l1.07.93a8.11,8.11,0,0,0-.89-4c-.34-.66-.73-1.29-1.05-2a2,2,0,0,0-1-1l-3.8-1.67c-.15-.06-.35-.09-.44-.21s-.33-.45-.29-.64c.07-.34.39-.21.62-.12l3,1.1c.21.07.43.11.74.18a3.82,3.82,0,0,0-1.07-1.86A7.35,7.35,0,0,1,416,329a2.5,2.5,0,0,0-2.24-.76,13.09,13.09,0,0,1-1.88,0c-.2,0-.39-.2-.58-.31.17-.14.34-.35.54-.4.41-.1.85-.11,1.27-.17.22,0,.43-.09.74-.16-.2-.22-.32-.37-.46-.51-.85-.9-1.72-1.78-2.57-2.68a1.34,1.34,0,0,1-.33-.43.55.55,0,0,1,0-.44c.07-.08.31-.07.43,0a1.5,1.5,0,0,1,.43.33l4.51,4.1a1.53,1.53,0,0,0,.63.34c-.64-1.51-.86-3.18-2.22-4.33-1.71-1.47-3.34-3.05-5-4.57l-.18-.18c-.21-.22-.47-.49-.16-.74.12-.11.54,0,.72.12.55.41,1.05.88,1.66,1.27-.23-.62-.47-1.25-.7-1.88a3.05,3.05,0,0,1-.24-.7c0-.15.1-.32.15-.49.19.09.47.14.55.28.39.8.74,1.62,1.09,2.44a5.4,5.4,0,0,1,.34,1c.18,1.17,1.09,1.71,1.92,2.33,0,0,.09,0,.22,0-.05-.23-.09-.43-.15-.63a31.81,31.81,0,0,0-2.85-6.88c-.16-.3-.43-.68,0-.9s.58.19.75.5a45.09,45.09,0,0,1,3.79,9.37,40.32,40.32,0,0,0,3.07,7.82c.57,1.09,1.16,2.18,1.75,3.26.09.17.22.32.4.6.19-1.63.66-3,0-4.62-.82-1.89-1.31-3.93-2-5.9-.26-.78-.6-1.53-.88-2.31a1.46,1.46,0,0,1,0-.58c.21.07.53.07.63.21a9.54,9.54,0,0,1,.88,1.71c.64,1.84,1.21,3.69,1.82,5.54.06.18.15.34.26.59a1.2,1.2,0,0,0,.18-.27,14.59,14.59,0,0,0,.59-4.3,11.28,11.28,0,0,0-.49-2.26,15.94,15.94,0,0,0-3.38-6.1,21.84,21.84,0,0,1-2.86-4.44,1.24,1.24,0,0,1-.17-.5,1.92,1.92,0,0,1,.2-.55c.2.09.47.13.57.28.4.64.74,1.33,1.13,2s.75,1.1,1.19,1.73c.09-.24.14-.33.17-.44.27-1,.54-2,.83-2.93.05-.14.25-.32.38-.31a.52.52,0,0,1,.36.32,1.94,1.94,0,0,1,0,.68c-.12.85-.22,1.71-.4,2.55a2,2,0,0,0,.39,1.67,20.33,20.33,0,0,1,2.46,4.39c.21.5.37,1,.57,1.6a1.7,1.7,0,0,0,.17-.29c.25-.88.52-1.77.73-2.67a1.9,1.9,0,0,0-.08-1c-.31-.8-.71-1.56-1-2.36-.09-.25-.06-.75.07-.82.35-.18.53.2.68.47.29.47.55,1,.88,1.53a3.27,3.27,0,0,0,.23-.43l.89-2.46c0-.06,0-.15.07-.18s.38-.28.58-.42c.06.23.23.49.17.69-.33,1.26-.74,2.5-1.07,3.76-.56,2.07-1.08,4.14-1.62,6.22a2.68,2.68,0,0,0,0,.5l1-.51c.3-.16.67-.44.92-.07s-.2.59-.45.79c-.47.37-1,.69-1.41,1.08a1.49,1.49,0,0,0-.47.77q-.44,2.18-.78,4.38c-.23,1.55-.44,3.1-.61,4.66a11.47,11.47,0,0,0,.08,1.65l.15.07a9.1,9.1,0,0,1,.9-.63,2.2,2.2,0,0,1,.64-.12c0,.23,0,.5-.08.67a7.86,7.86,0,0,1-1,1.16,1.09,1.09,0,0,0-.33,1.07c.27,1.64.52,3.29.82,4.93.34,1.83.72,3.66,1.09,5.48,0,.13.09.24.16.45a3.65,3.65,0,0,0,.19-.34c1.29-3.9,2.84-7.71,3.74-11.73.08-.39.17-.77.24-1.16a2.86,2.86,0,0,0-.38-2.09c-.8-1.42-1.55-2.87-2.32-4.31-.17-.31-.4-.69,0-.92s.6.17.77.47l2.06,3.61a6.37,6.37,0,0,0,.35.55l.13,0c0-.24.05-.48.06-.71.06-.89.11-1.78.16-2.67a1.64,1.64,0,0,0-.48-1.31.92.92,0,0,1-.27-.35,5.47,5.47,0,0,1-.21-.82l.75-.15.17,0c0-1.36.09-2.73,0-4.09-.14-1.57-.53-3.11-.71-4.68-.15-1.26-.16-2.54-.21-3.81-.05-1-.06-1.94-.08-2.92,0-.08,0-.18,0-.24.12-.25.23-.66.4-.69.38-.06.48.3.5.64.1,1.78.18,3.56.28,5.34,0,.48.08.95.12,1.43h.19a2.1,2.1,0,0,0,.27-.54q.61-2.41,1.19-4.84c.15-.64.25-1.3.41-1.93.05-.19.25-.33.38-.49.14.2.4.4.4.6a19.6,19.6,0,0,1-.22,2,33.46,33.46,0,0,1-1.82,7.23,5.15,5.15,0,0,0,.2,2.88l.4-.47a11.33,11.33,0,0,0,2.21-5.13c.33-1.61.56-3.25.83-4.88.05-.3.07-.69.51-.65s.43.43.4.74c-.18,1.49-.37,3-.58,4.46-.1.73-.28,1.44-.45,2.3a3.37,3.37,0,0,0,.44-.25c.44-.32.87-.66,1.31-1,.24-.17.52-.31.75,0s.07.54-.16.73l-2.8,2.29a1.64,1.64,0,0,0-.37.32c-.75,1.19-1.5,2.37-2.23,3.57a1.43,1.43,0,0,0-.21.7c0,2,0,4,0,6a.86.86,0,0,0,.05.23l.19.17a1.08,1.08,0,0,1,.13-.37c.81-1.14,1.63-2.28,2.46-3.41a29.22,29.22,0,0,0,5.35-13,.38.38,0,0,1,0-.1c.07-.33.2-.73.58-.68s.34.49.31.82c-.07.57-.16,1.14-.23,1.71a1.5,1.5,0,0,0,.1.24,10.1,10.1,0,0,1,1-.64,1.79,1.79,0,0,1,.66-.09c-.06.22,0,.51-.17.66-.37.41-.85.73-1.21,1.16a5.62,5.62,0,0,0-.94,1.48c-.5,1.28-.91,2.61-1.34,3.92a5.68,5.68,0,0,0-.12.7c.73-.49,1.41-.73,1.82-1.39.62-1,1.26-1.93,1.93-2.87.1-.16.4-.35.51-.3.3.14.21.43.07.68-.28.52-.57,1-.85,1.57-.08.17-.15.35-.22.5a.53.53,0,0,0,.11.11l.63.34c-.17.23-.29.59-.51.65a19.94,19.94,0,0,0-4,2.18,3.93,3.93,0,0,0-1.22,1.11c-1.55,2.18-3,4.42-4.57,6.59a13,13,0,0,0-1.57,4.18c-1,3.43-2.12,6.83-3.17,10.25-.23.75-.37,1.54-.54,2.31a2.36,2.36,0,0,0,0,.46l.14.09a3.63,3.63,0,0,0,.48-.48c1.49-2.22,2.92-4.48,4.44-6.67,1.11-1.6,2.32-3.13,3.48-4.69a14.85,14.85,0,0,0,1.54-2.12,9.63,9.63,0,0,0,.58-2.17c.25-1.06.47-2.13.75-3.18.05-.17.33-.28.51-.42.1.2.3.41.28.6-.08,1-.22,2-.34,3,0,.17,0,.35,0,.63,1.11-1,2-2,2.22-3.56a35.12,35.12,0,0,1,1-4.33.36.36,0,0,1,.07-.18c.18-.13.38-.36.56-.34s.38.33.3.62c-.18.7-.41,1.39-.58,2.09a11.25,11.25,0,0,0-.25,1.41,4.78,4.78,0,0,0,0,.67l.38-.31c.61-.59,1.2-1.18,1.81-1.76a1.55,1.55,0,0,0,.53-1.12c.08-1.68.19-3.37.29-5.05,0-.32.08-.64.46-.64s.43.34.43.66c0,1.15,0,2.31,0,3.46a2.71,2.71,0,0,0,.19.73,4.27,4.27,0,0,0,.59-.38c.73-.68,1.43-1.38,2.15-2.06.2-.19.43-.45.72-.15s.1.55-.11.78c-.89.94-1.77,1.88-2.67,2.81-1.13,1.17-2.3,2.31-3.43,3.49a5,5,0,0,0-.57.91,5.45,5.45,0,0,0,2.91-.64c1.45-.86,2.85-1.78,4.28-2.67.29-.18.63-.6.93-.21s-.21.64-.47.82c-1.2.86-2.41,1.73-3.67,2.51a9.07,9.07,0,0,1-4.34,1.38,2,2,0,0,0-1.48.76c-.65.76-1.35,1.46-2,2.18a1.54,1.54,0,0,0-.17.19c-.41.57-.32.86.36.87a24.63,24.63,0,0,0,3.21-.14c.31,0,.61-.4.86-.67.52-.57,1-1.19,1.52-1.76.24-.26.58-.67.95-.33s0,.65-.23.94-.53.71-.79,1.06l.08.13c.49-.08,1-.18,1.47-.25.3,0,.69-.22.79.18,0,.13-.36.48-.61.56a22,22,0,0,1-7.54,1.21,2.18,2.18,0,0,0-2.12,1c-.82,1.24-1.75,2.4-2.57,3.64-1.78,2.66-3.52,5.35-5.26,8a16.87,16.87,0,0,0-1,1.76,3.42,3.42,0,0,0-.24,2.55c.19.65.34,1.31.54,2,.1.33.06.51-.3.63a5.57,5.57,0,0,1-3.49.3c-.35-.1-.51-.24-.44-.62.12-.63.21-1.26.32-1.9a3.48,3.48,0,0,0-.51-2.83c-.92-1.27-1.83-2.55-2.66-3.88-1.14-1.83-2.22-3.7-3.31-5.57-1-1.63-1.9-3.28-2.84-4.92a.7.7,0,0,0-1-.36c-.71.3-1.47.48-2.19.76a2.81,2.81,0,0,0-1,.63c-.58.56-1.08,1.21-1.66,1.77-.22.2-.78.43-.86.34-.3-.33,0-.66.22-.95C408.67,344.11,409,343.67,409.42,343.12Z"/>
  <path class="cls-47" d="M378.87,321.49c-.57.06-1.06.12-1.56.16a4.26,4.26,0,0,1-.71,0,.21.21,0,0,1-.16-.13.23.23,0,0,1,.1-.19,4.26,4.26,0,0,1,.54-.15c1.09-.22,2.19-.43,3.28-.67a3,3,0,0,0,.74-.31c.18-.09.2-.23,0-.34-.7-.4-1.39-.8-2.1-1.17a1.46,1.46,0,0,0-.69-.12c-.73,0-1.47,0-2.2,0a.72.72,0,0,1-.21,0,3.37,3.37,0,0,1-.32-.19c.11-.08.21-.22.32-.23.6-.05,1.21-.06,1.81-.09.12,0,.24,0,.42-.05a2.93,2.93,0,0,0-1.36-1.1l-1.57-.54a.59.59,0,0,1-.24-.11,1.51,1.51,0,0,1-.16-.31c.11,0,.22-.12.32-.1.31.07.62.19.94.28a2.34,2.34,0,0,0,.73.1c-.23-.33-.44-.67-.67-1s-.32-.43-.48-.65-.18-.29,0-.37a.41.41,0,0,1,.38.08c.43.53.86,1.07,1.24,1.64a8.16,8.16,0,0,0,2.55,2.48c.14.09.28.18.43.26a2.78,2.78,0,0,0,.35.14,2.26,2.26,0,0,0-.09-.34c-.11-.31-.24-.61-.35-.91a4.05,4.05,0,0,0-1.47-1.95A15.35,15.35,0,0,1,377,314c-.09-.09-.06-.28-.09-.42.14,0,.31,0,.41.09.37.3.71.63,1.07.95.15.13.31.24.54.42a2.68,2.68,0,0,0-.09-.33c-.15-.39-.31-.79-.47-1.18a2.76,2.76,0,0,1-.18-.53.91.91,0,0,1,.07-.35c.11.06.26.08.31.17a13.24,13.24,0,0,1,.68,1.29c.65,1.4,1.29,2.8,1.91,4.22a8,8,0,0,0,1.3,1.9,1.05,1.05,0,0,0,.13.08,2.07,2.07,0,0,0,0-.25l-.36-2.92a.61.61,0,0,1,0-.23,2.53,2.53,0,0,1,.18-.37c.1.07.28.12.31.22a7.43,7.43,0,0,1,.25,1.06c.18,1.24.35,2.47.53,3.71a1.49,1.49,0,0,0,.15.45c.67,1.28,1.32,2.57,2,3.82a25.57,25.57,0,0,0,1.57,2.18l.11,0a2.8,2.8,0,0,0,0-.29l-.36-2c-.27-1.52-.55-3-.82-4.56a1.68,1.68,0,0,0-.52-1c-.25-.23-.47-.48-.71-.72s-.26-.31-.12-.46.32,0,.45.11l.65.56a4.88,4.88,0,0,0-.54-2.38c-.2-.39-.44-.77-.63-1.17a1.17,1.17,0,0,0-.62-.6l-2.29-1c-.09,0-.21-.06-.26-.13a.61.61,0,0,1-.18-.39c.05-.2.24-.12.37-.07l1.79.66a2.55,2.55,0,0,0,.44.11,2.17,2.17,0,0,0-.65-1.11c-.18-.15-.38-.28-.55-.45a1.5,1.5,0,0,0-1.34-.47,7.14,7.14,0,0,1-1.13,0c-.12,0-.24-.12-.35-.18.11-.09.2-.22.32-.24a6.49,6.49,0,0,1,.77-.11,3.45,3.45,0,0,0,.44-.09c-.12-.14-.19-.23-.27-.31-.52-.54-1-1.07-1.55-1.61a1.16,1.16,0,0,1-.2-.25.31.31,0,0,1,0-.27c0-.05.18,0,.26,0a1.1,1.1,0,0,1,.25.19l2.71,2.46a.8.8,0,0,0,.37.21,5.91,5.91,0,0,0-1.32-2.6c-1-.88-2-1.83-3-2.74l-.11-.11c-.13-.13-.28-.29-.1-.45s.33,0,.43.08c.34.24.64.52,1,.76l-.42-1.13a1.88,1.88,0,0,1-.14-.42c0-.09.06-.19.09-.29s.28.08.33.17c.23.48.44,1,.65,1.46a2.8,2.8,0,0,1,.2.62c.12.7.66,1,1.16,1.4H382a3.54,3.54,0,0,0-.09-.38,19.35,19.35,0,0,0-1.71-4.13c-.1-.18-.26-.41,0-.54s.35.11.45.3A27,27,0,0,1,383,310a24.86,24.86,0,0,0,1.85,4.69c.34.66.7,1.31,1.05,2,0,.1.13.19.24.36a5,5,0,0,0,0-2.77c-.5-1.14-.79-2.37-1.19-3.55-.16-.47-.36-.92-.53-1.38a1,1,0,0,1,0-.35c.13,0,.33,0,.38.13a5.48,5.48,0,0,1,.53,1c.38,1.1.73,2.22,1.1,3.33a2.79,2.79,0,0,0,.15.35c.06-.09.1-.12.11-.16a8.37,8.37,0,0,0,.35-2.58,6.47,6.47,0,0,0-.29-1.36,9.57,9.57,0,0,0-2-3.66,13.22,13.22,0,0,1-1.72-2.67.67.67,0,0,1-.1-.3,1.1,1.1,0,0,1,.12-.33c.12.06.28.08.34.17.25.39.44.8.68,1.19s.45.66.72,1c0-.15.08-.2.1-.27.16-.58.32-1.18.5-1.76a.32.32,0,0,1,.22-.19.36.36,0,0,1,.22.2,1.13,1.13,0,0,1,0,.41c-.07.51-.13,1-.24,1.53a1.19,1.19,0,0,0,.23,1,12.23,12.23,0,0,1,1.48,2.64c.12.29.22.61.34,1a1.34,1.34,0,0,0,.1-.17c.16-.54.32-1.07.44-1.61a1.11,1.11,0,0,0-.05-.6c-.18-.48-.42-.94-.6-1.42,0-.14,0-.45,0-.49s.32.12.41.28l.53.92a2.08,2.08,0,0,0,.13-.25l.54-1.48a.28.28,0,0,1,0-.11l.35-.26c0,.14.14.3.1.42-.2.76-.44,1.5-.64,2.26-.34,1.24-.65,2.49-1,3.73a1.46,1.46,0,0,0,0,.3l.62-.31c.18-.09.41-.26.55,0s-.11.35-.27.47-.58.41-.84.65a1,1,0,0,0-.29.46c-.17.87-.33,1.75-.46,2.63s-.27,1.86-.37,2.8a6.63,6.63,0,0,0,.05,1l.09,0a4.8,4.8,0,0,1,.54-.38,1.18,1.18,0,0,1,.39-.07c0,.14,0,.3-.05.4a4.5,4.5,0,0,1-.61.7.67.67,0,0,0-.2.64c.17,1,.32,2,.5,3s.43,2.19.65,3.29c0,.08.06.14.1.27a2.28,2.28,0,0,0,.11-.21c.77-2.34,1.71-4.62,2.25-7l.15-.69a1.8,1.8,0,0,0-.23-1.26c-.48-.85-.94-1.72-1.4-2.58-.1-.19-.24-.42,0-.56s.36.11.46.28c.42.72.82,1.45,1.23,2.17l.22.33.08,0c0-.14,0-.28,0-.42,0-.54.07-1.07.1-1.61a1,1,0,0,0-.29-.78.68.68,0,0,1-.17-.21c-.05-.16-.08-.33-.12-.49l.45-.09.1,0c0-.82.06-1.64,0-2.46s-.32-1.87-.43-2.81c-.09-.76-.1-1.52-.13-2.28,0-.59,0-1.17,0-1.76a.32.32,0,0,1,0-.14c.07-.15.13-.4.23-.42s.3.19.31.39c.05,1.07.1,2.14.16,3.2,0,.29.05.58.08.86h.11a2.39,2.39,0,0,0,.16-.32q.38-1.45.72-2.91c.09-.39.14-.78.24-1.16,0-.11.15-.2.23-.29.08.12.24.24.24.35a12.1,12.1,0,0,1-.13,1.21,20.3,20.3,0,0,1-1.09,4.34,3,3,0,0,0,.11,1.73l.25-.28a6.86,6.86,0,0,0,1.33-3.08c.19-1,.33-1.95.49-2.93,0-.18,0-.41.3-.39s.27.26.25.44c-.11.9-.22,1.79-.35,2.68-.06.44-.17.87-.27,1.38a1.65,1.65,0,0,0,.26-.15c.27-.19.52-.4.79-.58s.31-.18.45,0,0,.33-.1.44c-.55.46-1.12.92-1.68,1.37-.07.07-.17.12-.22.2-.45.71-.9,1.42-1.34,2.14a.89.89,0,0,0-.12.42c0,1.21,0,2.42,0,3.63a.89.89,0,0,0,0,.14l.11.09a1.43,1.43,0,0,1,.08-.22c.49-.68,1-1.37,1.48-2a17.46,17.46,0,0,0,3.21-7.78.13.13,0,0,1,0-.06c0-.2.12-.44.34-.41s.21.3.19.49c0,.35-.09.69-.14,1a.53.53,0,0,0,.06.15,4.29,4.29,0,0,1,.59-.39,1.23,1.23,0,0,1,.39,0c0,.13,0,.3-.1.39-.22.25-.51.45-.72.7a3.14,3.14,0,0,0-.57.89c-.3.77-.55,1.56-.81,2.35,0,.11,0,.22-.07.42a3.29,3.29,0,0,0,1.1-.83c.36-.59.76-1.16,1.15-1.73.07-.09.25-.21.31-.18s.12.27,0,.41c-.16.32-.34.63-.51.94l-.13.31.06.06.39.21c-.11.13-.18.35-.31.39a12.33,12.33,0,0,0-2.43,1.3,2.46,2.46,0,0,0-.73.67c-.93,1.31-1.81,2.65-2.75,4a8.11,8.11,0,0,0-.94,2.51c-.61,2.05-1.27,4.1-1.9,6.15-.14.45-.22.92-.32,1.39a1.31,1.31,0,0,0,0,.28l.08.05a2,2,0,0,0,.29-.29c.89-1.33,1.75-2.69,2.67-4,.66-1,1.39-1.87,2.08-2.81a9.38,9.38,0,0,0,.93-1.27,6.32,6.32,0,0,0,.35-1.31c.15-.63.28-1.27.45-1.9,0-.11.2-.17.3-.26.06.12.18.25.17.36-.05.61-.13,1.2-.2,1.8,0,.11,0,.21,0,.38a3.38,3.38,0,0,0,1.33-2.13,23.26,23.26,0,0,1,.59-2.6s0-.09.05-.11.23-.22.33-.21.23.2.18.37c-.11.42-.24.84-.35,1.26a8.41,8.41,0,0,0-.15.85,2.31,2.31,0,0,0,0,.4l.22-.19c.37-.35.72-.71,1.09-1.05a1,1,0,0,0,.32-.68c0-1,.11-2,.17-3,0-.19.05-.38.28-.38s.26.2.26.39c0,.7,0,1.39,0,2.08a1.8,1.8,0,0,0,.12.44,3,3,0,0,0,.35-.23l1.29-1.23c.12-.12.26-.27.43-.1s.07.34-.06.48l-1.6,1.68c-.68.7-1.39,1.39-2.07,2.1a3.69,3.69,0,0,0-.34.54,3.28,3.28,0,0,0,1.75-.38c.87-.52,1.71-1.07,2.57-1.6.17-.12.38-.37.56-.13s-.12.38-.28.49c-.73.52-1.45,1-2.2,1.51a5.49,5.49,0,0,1-2.61.82,1.21,1.21,0,0,0-.89.46c-.39.46-.81.88-1.22,1.31l-.09.11c-.25.35-.2.52.21.53a15.34,15.34,0,0,0,1.92-.09c.19,0,.37-.24.52-.4.32-.34.6-.71.92-1,.14-.16.34-.41.57-.2s0,.39-.14.56l-.47.64a.59.59,0,0,1,0,.08l.89-.16c.17,0,.41-.13.47.11s-.21.3-.36.34a13.23,13.23,0,0,1-4.53.73,1.31,1.31,0,0,0-1.28.6c-.49.74-1.05,1.44-1.54,2.18-1.07,1.6-2.11,3.21-3.16,4.83a9.91,9.91,0,0,0-.59,1.06,2,2,0,0,0-.14,1.53c.11.39.2.78.32,1.17.06.2,0,.3-.18.37a3.37,3.37,0,0,1-2.1.19c-.21-.07-.3-.15-.26-.37.07-.38.12-.77.19-1.15a2.07,2.07,0,0,0-.31-1.7c-.55-.76-1.09-1.53-1.59-2.32-.69-1.1-1.33-2.23-2-3.35l-1.71-3a.41.41,0,0,0-.6-.21c-.43.18-.89.29-1.32.46a1.69,1.69,0,0,0-.58.37c-.35.34-.64.73-1,1.06-.13.13-.46.26-.51.21s0-.39.13-.57S378.63,321.82,378.87,321.49Z"/>
  <path class="cls-47" d="M308.69,375.1c-.82.08-1.53.17-2.24.22a7,7,0,0,1-1,0c-.08,0-.22-.11-.23-.19a.33.33,0,0,1,.15-.27,4.87,4.87,0,0,1,.77-.22c1.57-.32,3.14-.62,4.71-1a4.58,4.58,0,0,0,1.05-.44c.26-.13.28-.34,0-.49-1-.57-2-1.15-3-1.68a2.33,2.33,0,0,0-1-.18c-1.05,0-2.11,0-3.16,0a.7.7,0,0,1-.29,0,3.47,3.47,0,0,1-.46-.27c.15-.12.3-.32.46-.33.86-.07,1.73-.08,2.6-.12.17,0,.34,0,.6-.08a4.13,4.13,0,0,0-2-1.57l-2.25-.78a.77.77,0,0,1-.34-.16,2.06,2.06,0,0,1-.24-.44c.16-.05.33-.17.46-.15.46.11.9.28,1.35.41a3.42,3.42,0,0,0,1.05.14l-1-1.43c-.22-.32-.46-.62-.68-.93s-.26-.42,0-.54a.58.58,0,0,1,.55.12c.61.76,1.23,1.53,1.77,2.34a11.66,11.66,0,0,0,3.67,3.56c.2.13.4.26.61.38a5.11,5.11,0,0,0,.5.2c-.06-.23-.08-.37-.12-.49-.17-.44-.35-.87-.5-1.31a5.79,5.79,0,0,0-2.12-2.79,22,22,0,0,1-2.38-2.26c-.12-.12-.09-.4-.13-.6.2,0,.45,0,.59.14.53.42,1,.9,1.53,1.35.22.19.45.35.78.6-.06-.23-.08-.35-.12-.46-.23-.57-.46-1.13-.68-1.7a4.31,4.31,0,0,1-.27-.76,1.5,1.5,0,0,1,.11-.49c.15.08.37.11.45.24.35.6.68,1.21,1,1.84.93,2,1.85,4,2.74,6a10.9,10.9,0,0,0,1.86,2.73,1,1,0,0,0,.19.11c0-.15,0-.25,0-.35-.17-1.39-.34-2.79-.52-4.18,0-.12-.07-.24,0-.34a3.22,3.22,0,0,1,.25-.53c.15.1.41.17.45.31a10,10,0,0,1,.35,1.53c.27,1.77.51,3.54.77,5.31a2.15,2.15,0,0,0,.21.65c1,1.83,1.89,3.69,2.94,5.47a38.23,38.23,0,0,0,2.25,3.14l.16-.05a2.94,2.94,0,0,0,0-.42l-.51-2.85c-.4-2.17-.8-4.35-1.18-6.53a2.45,2.45,0,0,0-.74-1.45c-.36-.32-.68-.69-1-1-.2-.2-.36-.45-.16-.67s.46,0,.65.17l.92.8a7,7,0,0,0-.77-3.41c-.29-.57-.63-1.11-.9-1.69a1.75,1.75,0,0,0-.9-.86L313,365c-.13-.06-.3-.08-.38-.18s-.28-.4-.25-.56.34-.17.54-.1l2.55.95c.18.06.37.09.64.15a3.27,3.27,0,0,0-.93-1.6,9.6,9.6,0,0,1-.79-.64,2.14,2.14,0,0,0-1.93-.66,12.48,12.48,0,0,1-1.62,0c-.17,0-.33-.18-.5-.27.16-.12.29-.3.47-.35.35-.08.73-.09,1.09-.14.19,0,.37-.08.64-.14l-.39-.44-2.22-2.31a1,1,0,0,1-.28-.37.42.42,0,0,1,0-.38.43.43,0,0,1,.37,0,1.07,1.07,0,0,1,.36.28l3.89,3.53a1.41,1.41,0,0,0,.54.3c-.55-1.31-.74-2.74-1.91-3.74-1.48-1.26-2.88-2.62-4.31-3.93l-.16-.15c-.18-.19-.4-.42-.14-.64s.47,0,.62.11c.48.34.91.75,1.43,1.09l-.6-1.62a2.23,2.23,0,0,1-.2-.6c0-.14.08-.28.13-.43.16.08.4.12.46.25.34.68.64,1.39.94,2.1a4,4,0,0,1,.29.88c.16,1,.95,1.47,1.66,2,0,0,.08,0,.19,0-.05-.2-.08-.37-.13-.54a27.8,27.8,0,0,0-2.45-5.92c-.14-.26-.37-.58,0-.78s.51.17.65.43a38.83,38.83,0,0,1,3.26,8.08,34.87,34.87,0,0,0,2.64,6.72l1.51,2.81c.08.15.19.28.35.52.16-1.41.57-2.63,0-4-.72-1.63-1.14-3.39-1.7-5.08-.23-.67-.52-1.32-.76-2a1.38,1.38,0,0,1,0-.49c.19.05.46.05.54.18a6.83,6.83,0,0,1,.76,1.47c.55,1.58,1.05,3.17,1.57,4.77.05.15.13.29.22.51a1.34,1.34,0,0,0,.16-.24,12.2,12.2,0,0,0,.51-3.7,11.33,11.33,0,0,0-.42-1.95A13.88,13.88,0,0,0,317,353a18.26,18.26,0,0,1-2.45-3.82,1.08,1.08,0,0,1-.16-.43,1.82,1.82,0,0,1,.18-.47c.17.08.41.11.49.24.35.55.63,1.14,1,1.7s.65.95,1,1.49c.07-.2.12-.29.14-.38.24-.84.46-1.69.72-2.53a.48.48,0,0,1,.32-.26.43.43,0,0,1,.31.28,1.46,1.46,0,0,1,0,.59c-.1.73-.18,1.46-.34,2.19a1.67,1.67,0,0,0,.34,1.43,18,18,0,0,1,2.12,3.78c.17.43.31.88.49,1.38a1.9,1.9,0,0,0,.14-.24c.22-.77.45-1.53.63-2.3a1.57,1.57,0,0,0-.07-.86c-.26-.69-.61-1.35-.87-2-.07-.21-.05-.65.06-.71.3-.15.45.18.59.41.24.41.47.82.75,1.32a2.05,2.05,0,0,0,.2-.37c.26-.7.51-1.41.77-2.12,0-.05,0-.13.06-.16s.33-.24.5-.36c.05.2.19.43.15.6-.29,1.08-.64,2.15-.93,3.23-.48,1.78-.93,3.57-1.39,5.36a2,2,0,0,0,0,.43l.89-.44c.26-.13.58-.38.8-.06s-.17.5-.39.68c-.4.32-.84.59-1.22.94a1.3,1.3,0,0,0-.4.65c-.25,1.25-.48,2.51-.67,3.77s-.38,2.67-.52,4a8.53,8.53,0,0,0,.06,1.42l.13.06a7.79,7.79,0,0,1,.77-.55,1.69,1.69,0,0,1,.56-.1c0,.19,0,.43-.07.57a6.31,6.31,0,0,1-.86,1,.94.94,0,0,0-.29.93c.24,1.41.45,2.83.71,4.24.29,1.58.62,3.15.94,4.72a2.76,2.76,0,0,0,.14.38c.07-.14.13-.21.16-.29,1.1-3.36,2.45-6.64,3.22-10.1l.21-1a2.53,2.53,0,0,0-.33-1.8c-.69-1.23-1.34-2.47-2-3.71-.14-.27-.35-.59,0-.79s.52.15.66.39L326,368.4a4.9,4.9,0,0,0,.31.48l.11,0c0-.2,0-.4.05-.61,0-.76.09-1.53.14-2.3a1.42,1.42,0,0,0-.42-1.12.93.93,0,0,1-.23-.3c-.08-.23-.13-.47-.19-.71l.66-.13.14,0c0-1.18.08-2.36,0-3.52-.12-1.35-.46-2.69-.61-4-.13-1.08-.14-2.18-.19-3.27,0-.84-.05-1.68-.07-2.52a.74.74,0,0,1,0-.21c.11-.21.2-.56.35-.59.32-.06.42.26.43.55.08,1.53.15,3.07.24,4.6,0,.41.07.82.11,1.23H327a2.25,2.25,0,0,0,.24-.46q.53-2.08,1-4.17c.14-.55.21-1.12.36-1.67,0-.15.21-.27.33-.41.12.17.34.34.34.51a16.64,16.64,0,0,1-.19,1.73,29,29,0,0,1-1.57,6.23,4.42,4.42,0,0,0,.17,2.47l.35-.4a9.77,9.77,0,0,0,1.9-4.42c.28-1.39.48-2.8.71-4.19.05-.27.06-.6.44-.56s.38.36.35.63c-.16,1.28-.32,2.56-.5,3.84-.09.63-.24,1.24-.39,2a2.59,2.59,0,0,0,.38-.22c.38-.27.75-.57,1.13-.83.2-.15.45-.26.64,0s.06.46-.14.63c-.79.66-1.6,1.31-2.4,2a1.24,1.24,0,0,0-.32.28c-.65,1-1.29,2-1.92,3.07a1.17,1.17,0,0,0-.18.6c0,1.73,0,3.47,0,5.2a.71.71,0,0,0,0,.2l.16.14a1.73,1.73,0,0,1,.11-.32c.71-1,1.41-2,2.13-2.93a25.12,25.12,0,0,0,4.6-11.15.25.25,0,0,1,0-.08c.06-.29.17-.64.5-.59s.29.43.26.7c-.05.5-.13,1-.19,1.48a.83.83,0,0,0,.08.2c.29-.19.55-.4.84-.55a2,2,0,0,1,.56-.08c0,.19,0,.44-.14.57-.32.36-.73.64-1,1a4.67,4.67,0,0,0-.81,1.26c-.43,1.11-.78,2.25-1.16,3.38a3.89,3.89,0,0,0-.09.6c.62-.42,1.2-.63,1.56-1.19.53-.84,1.09-1.66,1.66-2.47.09-.14.35-.3.44-.26.26.12.18.37.06.59l-.73,1.34c-.08.15-.13.3-.19.44l.09.09.55.3c-.15.19-.25.5-.44.56a16.86,16.86,0,0,0-3.48,1.86,3.77,3.77,0,0,0-1.06,1c-1.33,1.87-2.59,3.8-3.93,5.67a11.37,11.37,0,0,0-1.35,3.6c-.88,2.94-1.83,5.88-2.73,8.82-.19.65-.31,1.32-.46,2a1.78,1.78,0,0,0,0,.4l.12.07a3.26,3.26,0,0,0,.42-.41c1.27-1.92,2.51-3.85,3.82-5.75.95-1.38,2-2.69,3-4a13.66,13.66,0,0,0,1.33-1.82,8.72,8.72,0,0,0,.5-1.87c.21-.91.4-1.82.64-2.73,0-.15.29-.24.44-.36.08.17.26.35.24.52-.07.86-.19,1.72-.29,2.57a5,5,0,0,0,0,.55,4.83,4.83,0,0,0,1.91-3.06,30.44,30.44,0,0,1,.85-3.73c0-.05,0-.13.06-.15s.33-.32.49-.3.32.28.26.53c-.17.6-.36,1.2-.51,1.8a10,10,0,0,0-.21,1.22,3.25,3.25,0,0,0,0,.57l.33-.26c.52-.51,1-1,1.56-1.52a1.35,1.35,0,0,0,.45-1c.07-1.44.17-2.89.25-4.34,0-.27.07-.55.4-.55s.37.29.37.56c0,1,0,2,0,3a2.39,2.39,0,0,0,.17.62,3.42,3.42,0,0,0,.51-.33c.62-.58,1.23-1.18,1.84-1.76.18-.17.37-.39.62-.14s.09.48-.1.68c-.76.81-1.51,1.62-2.29,2.41-1,1-2,2-3,3a5.43,5.43,0,0,0-.48.78,4.69,4.69,0,0,0,2.5-.55c1.24-.74,2.46-1.53,3.69-2.3.25-.15.54-.52.8-.18s-.18.55-.41.71c-1,.74-2.07,1.48-3.15,2.16a7.74,7.74,0,0,1-3.74,1.18,1.74,1.74,0,0,0-1.28.66c-.55.65-1.16,1.26-1.74,1.88a1.07,1.07,0,0,0-.14.16c-.36.49-.28.74.31.75a21.24,21.24,0,0,0,2.76-.12c.26,0,.52-.35.74-.58.45-.49.85-1,1.31-1.51.21-.22.5-.58.82-.29s0,.57-.2.82l-.68.9a.75.75,0,0,0,.07.12l1.26-.22c.26,0,.6-.19.69.16,0,.11-.31.41-.53.48a19.15,19.15,0,0,1-6.49,1.05,1.85,1.85,0,0,0-1.83.85c-.71,1.07-1.5,2.07-2.21,3.13-1.53,2.29-3,4.61-4.53,6.92a17.45,17.45,0,0,0-.86,1.52,2.94,2.94,0,0,0-.19,2.2c.16.55.29,1.12.46,1.68.08.28,0,.43-.26.54a4.89,4.89,0,0,1-3,.26c-.31-.1-.44-.21-.38-.54.1-.54.18-1.09.27-1.63a3,3,0,0,0-.44-2.44c-.79-1.09-1.57-2.19-2.29-3.34-1-1.57-1.91-3.19-2.84-4.79-.83-1.41-1.64-2.83-2.45-4.24a.6.6,0,0,0-.87-.31c-.62.26-1.27.41-1.89.65a2.43,2.43,0,0,0-.83.54c-.5.49-.93,1.05-1.43,1.53-.19.17-.67.37-.74.29-.26-.28,0-.56.19-.81S308.34,375.57,308.69,375.1Z"/>
  <path class="cls-48" d="M349.1,287.28s6.42.61,6.62,3.9"/>
  <path class="cls-48" d="M362.33,287.28s-6.42.61-6.61,3.9"/>
  <g>
    <path class="cls-48" d="M410.67,305.35s5.62.53,5.79,3.41"/>
    <path class="cls-48" d="M422.25,305.35s-5.62.53-5.79,3.41"/>
  </g>
  <g>
    <path class="cls-48" d="M436.65,295.6s2.82.26,2.9,1.7"/>
    <path class="cls-48" d="M442.45,295.6s-2.82.26-2.9,1.7"/>
  </g>
  <g>
    <path class="cls-48" d="M415.44,281.64s5.62.53,5.79,3.41"/>
    <path class="cls-48" d="M427,281.64s-5.62.53-5.79,3.41"/>
  </g>
  <g>
    <path class="cls-48" d="M378.09,270.89s4.34.4,4.47,2.63"/>
    <path class="cls-48" d="M387,270.89s-4.34.4-4.47,2.63"/>
  </g>
  <polygon class="cls-1" points="171.54 428.68 155.21 423.15 155.21 364.81 171.54 370.21 171.54 428.68"/>
  <path d="M170.2,375.75a3.24,3.24,0,1,1-3.24-3.24A3.24,3.24,0,0,1,170.2,375.75Z"/>
  <path class="cls-21" d="M169.09,385.39a2.13,2.13,0,1,1-2.13-2.12A2.13,2.13,0,0,1,169.09,385.39Z"/>
  <polygon class="cls-21" points="165.14 403.39 167.05 403.97 167.05 422.73 165.14 422 165.14 403.39"/>
  <polygon points="165.14 396.04 167.05 396.67 167.05 400.6 165.14 400.07 165.14 396.04"/>
  <polyline class="cls-35" points="154.88 419.82 159.68 421.23 159.68 388.69 171.86 392.78"/>
  <g>
    <path class="cls-31" d="M89.42,243.06l-.56-.77a11.37,11.37,0,0,1,.94-2.87c.77-1,1.06-2.07.15-4s-1.82-3-3.13-2.66c-2.31.67-4.64,1.22-7,1.83,0-1.27-.09-2.58-.14-3.94-.25,0-.42-.11-.49,0-1.89,2.64-1.16,14.63,1.17,18.71.34.59,1.09,1.43,1.25,1.29a2.35,2.35,0,0,0,.56-1.79c-.3-2.92-.8-5.88-1.08-8.79-.1-1,0-2.63.4-2.79a26.42,26.42,0,0,1,5.08-1.05c-.44,4.2-.8,7.12-2.35,9.13-.62.8-.22,3.41-.28,5.2,1,.06,2.07.52,2.85.1a14.15,14.15,0,0,0,3.74-3.16c1.88-2.17,3-5.29,2.66-9.86C91.89,239.48,90.66,241.27,89.42,243.06Zm-7-29.05c-.12-.51-.24-1-.35-1.54,3.25-1.36,6.55-2.67,9.81-4.17a2.35,2.35,0,0,0,1.22-2c-.15-1.65-3.18-4.56-4.16-4.11-4.1,1.85-8.61,1.52-13.17.73A5,5,0,0,0,80,207.32c1.77.25,3.52.38,5.29.56.1.35.21.69.31,1a53.83,53.83,0,0,1-5,2.78c-1.4.59-1.69,2.05-.36,4.14a20.54,20.54,0,0,0,3,3.17c-.38.52-.79,1.06-1.26,1.69,2.17-.68,4.27-1.22,6.28-2a2.2,2.2,0,0,0,.91-2,4.73,4.73,0,0,0-1.56-2.42c-.6-.44-1.3-.18-2-.2C84.57,214.05,83.48,214,82.39,214ZM80.26,226.9c2.87-.13,5.37-.13,7.82-.44.62-.07,1-1.12,1.49-1.73-.89-1-1.85-2.7-2.66-2.9-1.33-.33-2.54.41-3.84.46-.52,0-1.3-1-1.73-.82a4.27,4.27,0,0,0-2.28,1.94C78.89,223.72,79.79,225.6,80.26,226.9Zm4.24-30.4a25.88,25.88,0,0,0,3.82,1.66c.75.18,1.89.17,2.05-.51a8.43,8.43,0,0,0-.5-4c-1-2.74-4.17-5.48-5.91-5.4-1.23.06-1.38,1-.4,2.74.77,1.33,1.59,2.58,2.51,4.05Zm24.27,8.28c1.77,2.95,3.35,5.71,5,8.3a3.49,3.49,0,0,0,2.14,1.64c.36,0,.76-1.82.51-2.5a29.29,29.29,0,0,0-3.16-6.73C111.64,203.24,109.94,203.75,108.77,204.78Z"/>
    <path class="cls-24" d="M84.59,130.15c-2,1.16-3.8,1.12-5.34-2a6.07,6.07,0,0,1-.54-2.89c.06-.47.93-.56,1.48-.52s1.25.57,1.85.61c3.66.22,4.2-4.54,2.81-9.57a24.39,24.39,0,0,1-.47-3.23c.78.15,1.63,0,2.33.51,2,1.57,3.1,5,3.15,9.4a58.17,58.17,0,0,0,5.68-2.11c.49-.24.85-1.35.94-2.25.37-4.27.65-8.6.92-12.93.13-2,.22-3.9-1.13-5.81a3.82,3.82,0,0,1-.16-2.47,1.21,1.21,0,0,1,1.59-.5c3.66,2.69,5.85,5.38,4.56,10.62-.88,3.58-1.19,7.62-1.82,11.81,2.3-.3,4.35-.5,6.37-.84,1.86-.31,2.86,1.54,3.83,3.84s1,3.84,0,5.52c-1.76,2.92-3.11,6.41-4.92,9.2a13.35,13.35,0,0,1-4.41,4.24c-1.3.77-2.81.22-3.16-3.14a7.2,7.2,0,0,0-.64-1.7l-4.26,5.83c-1-4.21-1.84-7.32-2.68-10.68L94.2,134c.52-3,1-5.66,1.57-9.13-2.45,1.08-4.48,1.9-6.44,2.89-.35.17-.62.94-.68,1.58-.5,5.2-1.1,10.35-1.32,15.68-.2,4.55.88,6.92,3.87,9.17,5.73,4.28,11.57,7.13,17.56,7.74,3.23.33,4.82-1.86,5.29-6.17.26-2.34.41-4.75.61-7.13l.62,0c.63,4.18,1.27,8.37,1.89,12.56.17,1.21.16,2.43.43,3.62.81,3.62.59,4.93-1.72,4.94a29.45,29.45,0,0,1-8.23-1.12c-5.9-1.65-11.71-4-17.26-9.16-4.81-4.48-6.47-8.57-6.48-16.14,0-2.18.12-4.33.23-6.47S84.41,132.8,84.59,130.15Zm21.93-6.43c-5.43-1.78-6.6-.78-7.84,5.3a7,7,0,0,0-.34,1.69c.06,1.21.26,2.45.41,3.67.87,0,2.15.47,2.55-.24C103.17,130.86,104.8,127.24,106.52,123.72Z"/>
    <path class="cls-24" d="M70.29,253.25,65.21,231.1a12,12,0,0,1-2,1.24c-1,.4-1.72-.37-1.76-2.28a13.34,13.34,0,0,1,1.45-7.14c2.42-4.24,4.23-9.47,6.21-14.43.27-.68,0-2.05.06-3,.06-.7.24-1.75.55-1.78,1.6-.15.71-2,.59-3.57-2.5,1.61-4.32,5.13-8.16,2.64l1.61-5.59,1.83,2.6c1.39-1.81,2.82-3.67,4.58-5.94l-4.82-8.95c1-2.67,1.15-2.51,6.19,6.37,1.24-3.07,4.69-3.34,3.42-9.66,1.47-.47,2.88.7,4,2.87s1.2,4.67.17,6.05a71.63,71.63,0,0,1-4.85,5.36c-.39.45-1,1-1,1.67-.08,6.22,0,12.5,0,18.76L74,217l2.47-3.56c.17.2.33.41.49.61-.76,2.21-1.57,4.35-2.26,6.64a19.17,19.17,0,0,0-1,4.91c-.24,7.18-.18,14.54-.53,21.64-.13,2.47-1.12,4.4-1.71,6.57Zm.29-11V225.55c-5.22,4.17-5.26,7.23-.4,16.23A3.6,3.6,0,0,0,70.58,242.24Zm-.07-31L66.4,222.79C70.77,222.62,71.35,218,70.51,211.25Z"/>
    <path class="cls-24" d="M102.06,239c-3,13.09-8,18.55-14.12,14.84,10.1-3.9,10.78-18.89,13-32.17l-.47-1-6.89,2.08c.7-6,4.71-5,7.82-6.17,0-5.43.1-10.92-.06-16.51,0-1.39-.93-3.08-1.39-4.65-.31-1.06-.56-2.15-.84-3.22.87-.14,1.84-.9,2.59-.31,3.6,2.83,4.95,6.82,4.33,11.91-.48,4-.92,8-1.44,12.48l3.63.36c0-.81-.1-1.58-.14-2.33,1.58,1.35,3.07,2.54,4.52,3.9a16.09,16.09,0,0,1,1.66,2.32c-.46.66-.8,1.88-1.39,1.88a35.29,35.29,0,0,1-6.63-.72c-1.47-.28-2.24.08-2.38,2.49a65.15,65.15,0,0,1-1.23,9.78c-.47,2.27.24,3.42,1.58,5a66.92,66.92,0,0,1,14.09,27.84,21.56,21.56,0,0,1,.69,5c0,.85-.61,1.85-1.14,1.83s-1.53-1.07-1.91-1.94c-.89-2-1.54-4.21-2.27-6.34A180.18,180.18,0,0,0,102.06,239Z"/>
    <path class="cls-24" d="M76.31,120.51c-.43,6.32-.85,12.5-1.29,19.08l4.49-3.51.47.58c-1.08,2.14-1.86,4.88-3.28,6.28a94.3,94.3,0,0,1-10.11,8.29c-1.51,1.12-4.49-2.06-5-5-.37-2.15.51-3.66,1.75-3,3.75,2.07,7.33-.36,8.28-5.85a43.74,43.74,0,0,0,.54-6.2c.08-3.24,0-6.55,0-10.24-1.43.17-2.82.31-4.19.5-2,.28-4.72-2.48-5.48-5.71-.45-1.94.36-1.92,1.14-1.34,2.79,2.07,5.21.9,7.75.69.43,0,.9-1.12.92-1.9.09-4,.24-8,0-12-.13-1.86-1.28-3.86-1.88-5.82-.27-.91-.66-2.48-.45-2.74a1.7,1.7,0,0,1,1.91-.48c3,1.22,5.93,7.85,5.54,12.23-.19,2.18-.34,4.41-.36,6.67a5,5,0,0,0,.78,2.32c.46.74,1.21,1.07,1.64,1.83a7.24,7.24,0,0,1,1.1,3.06,2.42,2.42,0,0,1-1.27,2A9.8,9.8,0,0,1,76.31,120.51Z"/>
    <path class="cls-24" d="M89.42,243.06c1.24-1.79,2.47-3.58,3.77-5.48.29,4.57-.78,7.69-2.66,9.86a14.15,14.15,0,0,1-3.74,3.16c-.78.42-1.89,0-2.85-.1.06-1.79-.34-4.4.28-5.2,1.55-2,1.91-4.93,2.35-9.13a26.42,26.42,0,0,0-5.08,1.05c-.4.16-.5,1.76-.4,2.79.28,2.91.78,5.87,1.08,8.79a2.35,2.35,0,0,1-.56,1.79c-.16.14-.91-.7-1.25-1.29-2.33-4.08-3.06-16.07-1.17-18.71.07-.09.24,0,.49,0,0,1.36.09,2.67.14,3.94,2.36-.61,4.69-1.16,7-1.83,1.31-.38,2.23.71,3.13,2.66s.62,3-.15,4a11.37,11.37,0,0,0-.94,2.87Z"/>
    <path class="cls-24" d="M82.39,214c1.09,0,2.18,0,3.27.08.65,0,1.35-.24,2,.2a4.73,4.73,0,0,1,1.56,2.42,2.2,2.2,0,0,1-.91,2c-2,.81-4.11,1.35-6.28,2,.47-.63.88-1.17,1.26-1.69a20.54,20.54,0,0,1-3-3.17c-1.33-2.09-1-3.55.36-4.14a53.83,53.83,0,0,0,5-2.78c-.1-.35-.21-.69-.31-1-1.77-.18-3.52-.31-5.29-.56a5,5,0,0,1-4.25-4.41c4.56.79,9.07,1.12,13.17-.73,1-.45,4,2.46,4.16,4.11a2.35,2.35,0,0,1-1.22,2c-3.26,1.5-6.56,2.81-9.81,4.17C82.15,213,82.27,213.5,82.39,214Z"/>
    <path class="cls-24" d="M80.26,226.9c-.47-1.3-1.37-3.18-1.2-3.49a4.27,4.27,0,0,1,2.28-1.94c.43-.17,1.21.84,1.73.82,1.3,0,2.51-.79,3.84-.46.81.2,1.77,1.88,2.66,2.9-.49.61-.87,1.66-1.49,1.73C85.63,226.77,83.13,226.77,80.26,226.9Z"/>
    <path class="cls-24" d="M84.5,196.5l1.57-1.41c-.92-1.47-1.74-2.72-2.51-4.05-1-1.71-.83-2.68.4-2.74,1.74-.08,4.91,2.66,5.91,5.4a8.43,8.43,0,0,1,.5,4c-.16.68-1.3.69-2.05.51A25.88,25.88,0,0,1,84.5,196.5Z"/>
    <path class="cls-24" d="M108.77,204.78c1.17-1,2.87-1.54,4.54.71a29.29,29.29,0,0,1,3.16,6.73c.25.68-.15,2.5-.51,2.5a3.49,3.49,0,0,1-2.14-1.64C112.12,210.49,110.54,207.73,108.77,204.78Z"/>
  </g>
</svg>
