<svg id="Capa_1" data-name="Capa 1" xmlns="http://www.w3.org/2000/svg" xmlns:xlink="http://www.w3.org/1999/xlink" width="177.83mm" height="168.91mm" viewBox="0 0 504.1 478.8">
  <defs>
    <style>
      .cls-1 {
        fill: #006cae;
        stroke: #008;
        stroke-width: 7px;
      }

      .cls-1, .cls-10, .cls-11, .cls-12, .cls-13, .cls-14, .cls-15, .cls-17, .cls-2, .cls-20, .cls-21, .cls-22, .cls-23, .cls-24, .cls-25, .cls-27, .cls-28, .cls-3, .cls-30, .cls-31, .cls-4, .cls-5, .cls-6, .cls-7, .cls-8, .cls-9 {
        stroke-miterlimit: 10;
      }

      .cls-10, .cls-17, .cls-2, .cls-23, .cls-25, .cls-32, .cls-7 {
        fill: none;
      }

      .cls-2 {
        stroke: #fff;
      }

      .cls-10, .cls-11, .cls-12, .cls-13, .cls-14, .cls-15, .cls-17, .cls-19, .cls-22, .cls-23, .cls-24, .cls-26, .cls-27, .cls-28, .cls-29, .cls-3, .cls-30, .cls-31, .cls-5, .cls-8, .cls-9 {
        stroke: #000;
      }

      .cls-3 {
        fill: url(#linear-gradient);
      }

      .cls-12, .cls-13, .cls-28, .cls-4 {
        fill: #ffff9a;
      }

      .cls-16, .cls-20, .cls-21, .cls-25, .cls-4, .cls-6, .cls-7 {
        stroke: #231f20;
      }

      .cls-14, .cls-5 {
        fill: #ffff72;
      }

      .cls-12, .cls-17, .cls-31, .cls-5, .cls-8 {
        stroke-width: 2px;
      }

      .cls-11, .cls-16, .cls-19, .cls-29, .cls-6 {
        fill: #fdf058;
      }

      .cls-15, .cls-22, .cls-8 {
        fill: #46e6b8;
      }

      .cls-9 {
        fill: #f7b5d2;
      }

      .cls-11 {
        stroke-width: 4px;
      }

      .cls-16, .cls-19, .cls-26, .cls-29 {
        stroke-linejoin: round;
      }

      .cls-18 {
        fill: #231f20;
      }

      .cls-20 {
        fill: url(#linear-gradient-2);
      }

      .cls-21 {
        fill: url(#linear-gradient-3);
      }

      .cls-22, .cls-23, .cls-25, .cls-29 {
        stroke-width: 0.5px;
      }

      .cls-26, .cls-27 {
        fill: #f788d2;
      }

      .cls-28 {
        stroke-width: 0.75px;
      }

      .cls-30 {
        fill: #dfd652;
        stroke-width: 3px;
      }

      .cls-31 {
        fill: #fda158;
      }
    </style>
    <linearGradient id="linear-gradient" x1="246.47" y1="142.06" x2="264.11" y2="59.06" gradientUnits="userSpaceOnUse">
      <stop offset="0" stop-color="#ffff6a"/>
      <stop offset="1" stop-color="#f1ecb8"/>
    </linearGradient>
    <linearGradient id="linear-gradient-2" x1="280.27" y1="186.52" x2="283.52" y2="186.52" gradientUnits="userSpaceOnUse">
      <stop offset="0" stop-color="#fff"/>
      <stop offset="1" stop-color="#c900d1"/>
    </linearGradient>
    <linearGradient id="linear-gradient-3" x1="280.27" y1="202.09" x2="283.52" y2="202.09" xlink:href="#linear-gradient-2"/>
  </defs>
  <rect class="cls-1" x="3.26" y="3.39" width="497.76" height="472.28"/>
  <g>
    <g>
      <rect class="cls-2" x="6.59" y="6.41" width="245.78" height="232.97"/>
      <line class="cls-2" x1="41.6" y1="6.41" x2="41.6" y2="239.38"/>
      <line class="cls-2" x1="76.97" y1="6.41" x2="76.97" y2="239.38"/>
      <line class="cls-2" x1="111.98" y1="6.41" x2="111.98" y2="239.38"/>
      <line class="cls-2" x1="146.99" y1="6.41" x2="146.99" y2="239.38"/>
      <line class="cls-2" x1="181.99" y1="6.41" x2="181.99" y2="239.38"/>
      <line class="cls-2" x1="217.37" y1="6.41" x2="217.37" y2="239.38"/>
      <line class="cls-2" x1="6.59" y1="202.55" x2="252.37" y2="202.55"/>
      <line class="cls-2" x1="6.59" y1="162.82" x2="252.37" y2="162.82"/>
      <line class="cls-2" x1="6.59" y1="123.1" x2="252.37" y2="123.1"/>
      <line class="cls-2" x1="6.59" y1="82.96" x2="252.37" y2="82.96"/>
      <line class="cls-2" x1="6.59" y1="43.24" x2="252.37" y2="43.24"/>
      <rect class="cls-2" x="6.59" y="6.41" width="245.78" height="232.97"/>
    </g>
    <g>
      <rect class="cls-2" x="6.44" y="239.38" width="245.78" height="232.97"/>
      <line class="cls-2" x1="41.45" y1="239.38" x2="41.45" y2="472.35"/>
      <line class="cls-2" x1="76.82" y1="239.38" x2="76.82" y2="472.35"/>
      <line class="cls-2" x1="111.83" y1="239.38" x2="111.83" y2="472.35"/>
      <line class="cls-2" x1="146.83" y1="239.38" x2="146.83" y2="472.35"/>
      <line class="cls-2" x1="181.84" y1="239.38" x2="181.84" y2="472.35"/>
      <line class="cls-2" x1="217.21" y1="239.38" x2="217.21" y2="472.35"/>
      <line class="cls-2" x1="6.44" y1="435.52" x2="252.22" y2="435.52"/>
      <line class="cls-2" x1="6.44" y1="395.8" x2="252.22" y2="395.8"/>
      <line class="cls-2" x1="6.44" y1="356.07" x2="252.22" y2="356.07"/>
      <line class="cls-2" x1="6.44" y1="315.93" x2="252.22" y2="315.93"/>
      <line class="cls-2" x1="6.44" y1="276.21" x2="252.22" y2="276.21"/>
      <rect class="cls-2" x="6.44" y="239.38" width="245.78" height="232.97"/>
    </g>
    <g>
      <rect class="cls-2" x="252.22" y="6.41" width="245.78" height="232.97"/>
      <line class="cls-2" x1="287.23" y1="6.41" x2="287.23" y2="239.38"/>
      <line class="cls-2" x1="322.6" y1="6.41" x2="322.6" y2="239.38"/>
      <line class="cls-2" x1="357.61" y1="6.41" x2="357.61" y2="239.38"/>
      <line class="cls-2" x1="392.62" y1="6.41" x2="392.62" y2="239.38"/>
      <line class="cls-2" x1="427.62" y1="6.41" x2="427.62" y2="239.38"/>
      <line class="cls-2" x1="463" y1="6.41" x2="463" y2="239.38"/>
      <line class="cls-2" x1="252.22" y1="202.55" x2="498" y2="202.55"/>
      <line class="cls-2" x1="252.22" y1="162.82" x2="498" y2="162.82"/>
      <line class="cls-2" x1="252.22" y1="123.1" x2="498" y2="123.1"/>
      <line class="cls-2" x1="252.22" y1="82.96" x2="498" y2="82.96"/>
      <line class="cls-2" x1="252.22" y1="43.24" x2="498" y2="43.24"/>
      <rect class="cls-2" x="252.22" y="6.41" width="245.78" height="232.97"/>
    </g>
    <g>
      <rect class="cls-2" x="252.22" y="239.43" width="245.78" height="232.97"/>
      <line class="cls-2" x1="287.23" y1="239.43" x2="287.23" y2="472.4"/>
      <line class="cls-2" x1="322.6" y1="239.43" x2="322.6" y2="472.4"/>
      <line class="cls-2" x1="357.61" y1="239.43" x2="357.61" y2="472.4"/>
      <line class="cls-2" x1="392.62" y1="239.43" x2="392.62" y2="472.4"/>
      <line class="cls-2" x1="427.62" y1="239.43" x2="427.62" y2="472.4"/>
      <line class="cls-2" x1="463" y1="239.43" x2="463" y2="472.4"/>
      <line class="cls-2" x1="252.22" y1="435.57" x2="498" y2="435.57"/>
      <line class="cls-2" x1="252.22" y1="395.85" x2="498" y2="395.85"/>
      <line class="cls-2" x1="252.22" y1="356.12" x2="498" y2="356.12"/>
      <line class="cls-2" x1="252.22" y1="315.99" x2="498" y2="315.99"/>
      <line class="cls-2" x1="252.22" y1="276.26" x2="498" y2="276.26"/>
      <rect class="cls-2" x="252.22" y="239.43" width="245.78" height="232.97"/>
    </g>
  </g>
  <polygon class="cls-3" points="417.06 105.57 272.2 135.74 218.67 114.57 162.96 124.31 94.46 91.07 204.37 71.07 267.01 59.67 417.06 105.57"/>
  <polygon class="cls-4" points="373.62 386.49 373.62 272.46 422.96 225.86 422.96 123.34 271.11 154.59 271.11 222.82 223.41 234.09 223.41 425.83 373.62 386.49"/>
  <polyline class="cls-5" points="94.58 380.13 94.88 110.83 164.25 143.91 164.25 203.38 223.49 233.43 223.41 443.92 94.58 380.13"/>
  <polygon class="cls-6" points="267.44 220.75 271.14 222.8 271.14 155.17 267.44 153.56 267.44 220.75"/>
  <rect class="cls-6" x="220.41" y="231.26" width="3" height="194.56"/>
  <polyline class="cls-7" points="312.2 170.44 312.2 224.36 293.31 265.69 293.31 372.42"/>
  <polyline class="cls-7" points="263.29 408.97 263.29 385.12 324.83 372.58 337.17 357.57 337.17 312.34 373.62 272.46"/>
  <polygon class="cls-8" points="422.96 225.86 337.17 311.78 337.17 357.01 324.83 372.58 263.29 385.12 263.29 429.12 254.74 432.22 254.74 380.19 316.27 367.65 328.61 353.46 328.61 308.23 422.9 214.41 422.96 225.86"/>
  <polygon class="cls-9" points="263.29 429.29 263.29 385.29 324.83 372.75 337.17 357.18 337.17 311.78 367.28 281.72 373.62 275.38 373.62 407.19 263.29 429.29"/>
  <line class="cls-10" x1="412.86" y1="224.25" x2="412.86" y2="235.98"/>
  <polygon class="cls-9" points="271.11 179.12 422.96 147.05 422.96 129.88 271.11 161.95 271.11 179.12"/>
  <line class="cls-7" x1="271.11" y1="178.6" x2="422.96" y2="146.53"/>
  <polygon class="cls-9" points="240.27 441.12 223.41 443.92 223.41 234.07 240.27 230.13 240.27 441.12"/>
  <path d="M235.2,240.53c0,2.35-1.14,4.25-2.54,4.25s-2.54-1.9-2.54-4.25,1.14-4.24,2.54-4.24S235.2,238.19,235.2,240.53Z"/>
  <path d="M280.27,169.23c0,1.55-.75,2.8-1.67,2.8s-1.67-1.25-1.67-2.8.75-2.8,1.67-2.8S280.27,167.68,280.27,169.23Z"/>
  <path d="M420.34,224c0,1.66-.8,3-1.79,3s-1.81-1.35-1.81-3,.81-3,1.81-3S420.34,222.37,420.34,224Z"/>
  <path d="M339.69,193.35c0,.93-.38,1.68-.84,1.68s-.84-.75-.84-1.68.38-1.67.84-1.67S339.69,192.43,339.69,193.35Z"/>
  <line class="cls-7" x1="223.41" y1="251.63" x2="240.27" y2="246.83"/>
  <polyline class="cls-11" points="269.05 399.65 94.87 315.71 94.9 379.57 224.27 444.44 382.94 411.44 382.94 295.7 355.39 326.74 355.39 363.33 336.48 386.22 269.05 399.65"/>
  <polygon points="424.25 130.96 354.54 145.77 358.09 146.53 428.19 131.83 424.25 130.96"/>
  <line class="cls-7" x1="224.23" y1="385.65" x2="224.23" y2="444.45"/>
  <polygon class="cls-12" points="340.11 268.27 340.11 219.75 363.13 214.74 363.13 181 358.23 181.68 358.23 146.77 427.75 132.31 427.75 207.52 374.21 260.4 340.11 268.27"/>
  <polygon points="416.63 179.12 372.97 189.65 372.97 152.45 416.63 142.89 416.63 179.12"/>
  <polygon class="cls-9" points="420 180.54 376.34 191.07 376.34 153.7 420 144.15 420 180.54"/>
  <polygon class="cls-13" points="404.11 165.88 387.94 169.78 387.94 155.94 404.11 151.89 404.11 165.88"/>
  <polygon class="cls-9" points="401.94 164.59 390.12 167.44 390.12 157.32 401.94 154.36 401.94 164.59"/>
  <polygon class="cls-13" points="404.11 171.97 387.94 175.87 387.94 172.24 404.11 168.18 404.11 171.97"/>
  <polygon class="cls-13" points="391.25 180.57 387.98 181.32 387.98 178.99 391.25 178.14 391.25 180.57"/>
  <polygon class="cls-13" points="395.64 179.46 392.37 180.2 392.37 177.88 395.64 177.03 395.64 179.46"/>
  <polygon class="cls-13" points="399.96 178.31 396.69 179.06 396.69 176.74 399.96 175.89 399.96 178.31"/>
  <polygon points="354.54 182.62 357.9 182.62 357.9 146.49 354.54 145.77 354.54 182.62"/>
  <polygon points="336.45 267.01 339.81 268.81 339.81 219.56 336.45 218.54 336.45 267.01"/>
  <polygon points="359.61 215.31 362.97 215.31 362.97 181.12 359.61 181.76 359.61 215.31"/>
  <polygon class="cls-14" points="267.44 220.75 219.1 194.64 219.1 134.33 267.44 153.56 267.44 220.75"/>
  <polygon class="cls-13" points="220.41 231.88 163.79 203.38 219.1 194.64 267.44 220.75 220.41 231.88"/>
  <polygon class="cls-14" points="219.1 194.64 163.79 203.38 163.79 143.97 219.1 134.33 219.1 194.64"/>
  <polygon class="cls-13" points="286.54 277.07 255.67 284.38 255.67 237.44 286.54 230.13 286.54 277.07"/>
  <polygon class="cls-9" points="273.54 275.07 258.9 278.53 258.9 256.27 273.54 252.81 273.54 275.07"/>
  <polygon class="cls-6" points="271.42 154.6 422.96 123.34 417.48 115.6 272.14 145.58 219.1 124.6 163.55 134.53 163.55 134.5 98.82 103.38 94.88 109.75 163.55 144.24 219.1 134.33 271.42 154.6 271.42 154.6"/>
  <polygon class="cls-6" points="271.42 145.24 422.96 113.97 417.48 106.23 272.14 136.21 219.1 115.23 163.55 125.16 163.55 125.14 94.88 91.73 89.78 98.92 163.55 134.87 219.1 124.97 271.42 145.24 271.42 145.24"/>
  <polygon class="cls-15" points="271.42 138.72 422.96 107.46 420 105.98 272.14 135.74 219.1 115.23 163.55 125.14 163.55 125.14 94.88 91.73 93.22 94.08 163.55 128.36 219.1 118.45 271.42 138.72 271.42 138.72"/>
  <polygon class="cls-15" points="271.42 154.13 422.96 122.87 421.24 120.91 272.14 151.16 219.1 130.64 163.55 140.55 163.55 140.55 94.88 107.14 93.22 109.99 163.55 143.77 219.1 133.86 271.42 154.13 271.42 154.13"/>
  <line class="cls-7" x1="247.94" y1="228.31" x2="247.94" y2="387.7"/>
  <line class="cls-7" x1="276.28" y1="177.12" x2="276.28" y2="221.32"/>
  <polygon class="cls-9" points="315.72 358.14 301.58 360.98 301.58 310.84 315.72 308.01 315.72 358.14"/>
  <polygon class="cls-15" points="315.72 303.57 301.58 306.4 301.58 288.43 315.72 285.59 315.72 303.57"/>
  <polygon class="cls-9" points="315.72 282.16 301.58 284.99 301.58 279.95 315.72 277.11 315.72 282.16"/>
  <polygon class="cls-16" points="220.41 376.29 213.32 372.84 213.32 228.31 220.41 231.88 220.41 376.29"/>
  <polygon class="cls-15" points="223.95 443.92 216.86 440.47 216.86 382.63 223.95 386.2 223.95 443.92"/>
  <polyline class="cls-10" points="163.79 165.56 192.98 160.9 192.98 177.07 204.96 175.74 204.96 196.87"/>
  <polyline class="cls-10" points="238.08 142.29 238.08 162.57 255.67 170.58 255.67 194.68 246.87 191.05 246.87 209.49"/>
  <polygon class="cls-9" points="180.37 304.54 174.48 301.71 174.48 324.43 180.37 327.26 180.37 304.54"/>
  <polygon class="cls-15" points="180.37 291.95 174.48 289.12 174.48 296.08 180.37 298.91 180.37 291.95"/>
  <polygon class="cls-9" points="194.3 298.16 188.41 295.33 188.41 302.29 194.3 305.13 194.3 298.16"/>
  <polygon class="cls-15" points="208.4 304.02 202.51 301.19 202.51 308.15 208.4 310.99 208.4 304.02"/>
  <polygon class="cls-15" points="194.39 311.37 188.5 308.54 188.5 352.59 194.39 355.42 194.39 311.37"/>
  <polygon class="cls-15" points="153.64 311.37 147.75 308.54 147.75 332.89 153.64 335.73 153.64 311.37"/>
  <polygon class="cls-9" points="208.4 317.61 202.51 314.77 202.51 347.59 208.4 350.42 208.4 317.61"/>
  <polyline class="cls-7" points="335.4 165.02 335.4 197.85 349.68 194.92 349.68 216.61"/>
  <polygon points="255.67 284.9 251.64 283.25 251.64 235.56 255.67 237.2 255.67 284.9"/>
  <polygon points="255.67 375.2 251.64 373.56 251.64 290.1 255.67 291.75 255.67 375.2"/>
  <polygon points="318.12 265.67 314.09 264.02 314.09 226.35 318.12 228 318.12 265.67"/>
  <polygon points="326.22 298.75 322.19 297.1 322.19 261.1 326.22 262.74 326.22 298.75"/>
  <polygon class="cls-6" points="223.56 234.09 220.41 231.26 267.44 220.75 271.22 222.8 223.56 234.09"/>
  <polygon points="282.4 228.31 251.64 235.56 255.67 237.44 287.14 229.71 282.4 228.31"/>
  <polyline class="cls-17" points="344.19 304.66 344.19 365.24 329.08 380.89 263.29 393.34"/>
  <path class="cls-18" d="M378.8,403.9c0,1.81-.74,3.29-1.65,3.29s-1.64-1.48-1.64-3.29.73-3.29,1.64-3.29S378.8,402.08,378.8,403.9Z"/>
  <polygon class="cls-19" points="163.79 203.38 159.03 206.33 159.03 141.42 163.79 143.73 163.79 203.38"/>
  <polygon class="cls-16" points="220.41 231.48 213.32 233.49 159.03 206.54 163.79 203.6 220.41 231.48"/>
  <polyline class="cls-10" points="164.81 209.17 164.81 230.32 143.37 251.63 143.37 339.18"/>
  <polyline class="cls-10" points="172.13 213.05 172.13 234.67 150.69 255.98 150.69 285.59"/>
  <polygon class="cls-20" points="283.52 196.37 280.27 197.06 280.27 176.67 283.52 175.97 283.52 196.37"/>
  <polygon class="cls-21" points="283.52 203.62 280.27 204.31 280.27 200.57 283.52 199.88 283.52 203.62"/>
  <polygon class="cls-15" points="302.62 213.16 296.11 214.54 296.11 173.67 302.62 172.29 302.62 213.16"/>
  <polygon class="cls-15" points="302.62 222.75 296.11 224.14 296.11 216.65 302.62 215.26 302.62 222.75"/>
  <polygon class="cls-15" points="265.42 246.73 258.9 248.12 258.9 240.63 265.42 239.24 265.42 246.73"/>
  <line class="cls-7" x1="286.54" y1="158.69" x2="286.54" y2="175.22"/>
  <polygon class="cls-4" points="331.46 216.61 316.95 219.86 316.95 169.41 331.46 166.17 331.46 216.61"/>
  <polygon class="cls-4" points="348.74 186.64 342.77 187.98 342.77 167.2 348.74 165.86 348.74 186.64"/>
  <polygon class="cls-15" points="327.79 177.85 321.27 179.24 321.27 171.75 327.79 170.36 327.79 177.85"/>
  <polygon class="cls-15" points="286.11 65.39 266.45 69.77 249.89 63.51 269.06 60.1 286.11 65.39"/>
  <polygon class="cls-15" points="346.45 209.51 339.94 210.9 339.94 203.41 346.45 202.02 346.45 209.51"/>
  <polygon class="cls-9" points="327.79 194.69 321.27 196.08 321.27 188.59 327.79 187.2 327.79 194.69"/>
  <polygon class="cls-15" points="327.79 212.54 321.27 213.93 321.27 206.44 327.79 205.05 327.79 212.54"/>
  <path d="M330.15,214.56c0,.67-.27,1.21-.61,1.21s-.61-.54-.61-1.21.28-1.21.61-1.21S330.15,213.89,330.15,214.56Z"/>
  <path d="M319.05,217c0,.67-.27,1.21-.6,1.21s-.61-.54-.61-1.21.27-1.22.61-1.22S319.05,216.32,319.05,217Z"/>
  <path d="M296.11,267.68c0,.67-.28,1.21-.61,1.21s-.61-.54-.61-1.21.28-1.21.61-1.21S296.11,267,296.11,267.68Z"/>
  <path d="M190.33,165.86c0,.67-.27,1.21-.61,1.21s-.61-.54-.61-1.21.28-1.21.61-1.21S190.33,165.19,190.33,165.86Z"/>
  <path d="M203.79,179.73c0,.67-.27,1.21-.6,1.21s-.61-.54-.61-1.21.27-1.21.61-1.21S203.79,179.06,203.79,179.73Z"/>
  <path d="M240.87,160.12c0,.67-.27,1.21-.6,1.21s-.61-.54-.61-1.21.27-1.21.61-1.21S240.87,159.45,240.87,160.12Z"/>
  <path d="M250.4,196.08c0,.67-.26,1.21-.6,1.21s-.61-.54-.61-1.21.28-1.22.61-1.22S250.4,195.41,250.4,196.08Z"/>
  <path d="M154.69,259.23c0,.67-.27,1.21-.6,1.21s-.61-.54-.61-1.21.27-1.21.61-1.21S154.69,258.56,154.69,259.23Z"/>
  <path d="M330.15,169.23c0,.67-.27,1.21-.61,1.21s-.61-.54-.61-1.21.28-1.21.61-1.21S330.15,168.56,330.15,169.23Z"/>
  <path d="M319.05,171.65c0,.67-.27,1.22-.6,1.22s-.61-.55-.61-1.22.27-1.21.61-1.21S319.05,171,319.05,171.65Z"/>
  <line class="cls-10" x1="328.61" y1="308.23" x2="337.17" y2="311.78"/>
  <line class="cls-10" x1="254.74" y1="380.14" x2="263.29" y2="385.12"/>
  <line class="cls-10" x1="316.27" y1="367.65" x2="324.81" y2="372.6"/>
  <line class="cls-10" x1="328.61" y1="353.56" x2="337.17" y2="357.57"/>
  <line class="cls-10" x1="267.01" y1="392.64" x2="267.01" y2="398.91"/>
  <line class="cls-10" x1="273.44" y1="391.26" x2="273.44" y2="398.77"/>
  <line class="cls-10" x1="279.62" y1="390.25" x2="279.62" y2="397.54"/>
  <line class="cls-10" x1="286.04" y1="388.88" x2="286.04" y2="396.4"/>
  <line class="cls-10" x1="292.49" y1="387.68" x2="292.49" y2="395.2"/>
  <line class="cls-10" x1="298.67" y1="386.68" x2="298.67" y2="393.97"/>
  <line class="cls-10" x1="305.1" y1="385.31" x2="305.1" y2="392.83"/>
  <line class="cls-10" x1="312.16" y1="384.11" x2="312.16" y2="391.07"/>
  <line class="cls-10" x1="318.34" y1="383.1" x2="318.34" y2="389.83"/>
  <line class="cls-10" x1="324.76" y1="381.73" x2="324.76" y2="388.51"/>
  <line class="cls-10" x1="330.74" y1="379.61" x2="330.74" y2="387.15"/>
  <line class="cls-10" x1="337.17" y1="372.6" x2="337.17" y2="385.83"/>
  <line class="cls-10" x1="343.2" y1="365.81" x2="343.2" y2="379.03"/>
  <polyline class="cls-9" points="387.94 246.83 387.94 215.78 427.75 207.52"/>
  <polygon class="cls-9" points="371.02 261.14 371.02 246.83 357.9 249.23 357.9 231.98 340.11 235.56 340.11 268.81 371.02 261.14"/>
  <polygon class="cls-9" points="363.73 181 358.68 181.94 358.68 146.75 363.73 145.79 363.73 181"/>
  <polygon class="cls-9" points="345.76 266.98 340.63 268.15 340.63 219.51 345.68 218.54 345.76 266.98"/>
  <polygon class="cls-9" points="428.01 207.52 422.96 212.54 422.96 133.3 428.01 132.31 428.01 207.52"/>
  <polygon points="363.13 214.74 339.69 219.84 336.45 218.54 359.46 213.45 363.13 214.74"/>
  <polygon points="334.97 223.41 318.12 228 314.14 226.43 331.29 222.12 334.97 223.41"/>
  <polygon class="cls-13" points="334.45 223.85 317.89 228.06 317.89 265.09 326.44 263.18 326.44 298.34 334.45 296.66 334.45 223.85"/>
  <polygon class="cls-15" points="159.03 152.9 94.58 122.31 94.58 110.83 159.03 141.42 159.03 152.9"/>
  <line class="cls-22" x1="377.15" y1="400.82" x2="377.15" y2="311.78"/>
  <line class="cls-10" x1="355.39" y1="326.74" x2="361.56" y2="327.66"/>
  <line class="cls-9" x1="367.71" y1="312.86" x2="367.71" y2="281.72"/>
  <line class="cls-9" x1="361.56" y1="319.79" x2="361.56" y2="287.34"/>
  <line class="cls-9" x1="355.39" y1="326.23" x2="355.39" y2="293.78"/>
  <line class="cls-9" x1="350.05" y1="370.07" x2="350.05" y2="298.55"/>
  <line class="cls-13" x1="276.28" y1="252.21" x2="276.28" y2="266.25"/>
  <line class="cls-13" x1="279.67" y1="251.33" x2="279.67" y2="270.86"/>
  <line class="cls-13" x1="328.29" y1="229.1" x2="328.29" y2="237.44"/>
  <line class="cls-13" x1="328.29" y1="240" x2="328.29" y2="248.34"/>
  <line class="cls-13" x1="328.29" y1="250.57" x2="328.29" y2="254.06"/>
  <line class="cls-13" x1="331.96" y1="228" x2="331.96" y2="247.53"/>
  <line class="cls-13" x1="407.41" y1="151.07" x2="407.41" y2="170.6"/>
  <line class="cls-13" x1="411.42" y1="150.04" x2="411.42" y2="169.57"/>
  <line class="cls-13" x1="415.22" y1="149.23" x2="415.22" y2="158.18"/>
  <line class="cls-13" x1="415.22" y1="159.7" x2="415.22" y2="161.44"/>
  <line class="cls-13" x1="415.22" y1="163.2" x2="415.22" y2="164.93"/>
  <line class="cls-13" x1="283.17" y1="250.46" x2="283.17" y2="257.66"/>
  <polygon class="cls-15" points="324.81 250.38 321.56 251.08 321.56 230.68 324.81 229.99 324.81 250.38"/>
  <polygon class="cls-13" points="385.56 184.51 382.3 185.2 382.3 157.1 385.56 156.41 385.56 184.51"/>
  <polygon class="cls-13" points="364.6 243.94 361.35 244.63 361.35 224.24 364.6 223.54 364.6 243.94"/>
  <polygon class="cls-13" points="376.9 241.73 373.64 242.43 373.64 222.03 376.9 221.34 376.9 241.73"/>
  <polygon class="cls-13" points="376.9 219.34 373.64 220.03 373.64 215.65 376.9 214.96 376.9 219.34"/>
  <polygon class="cls-13" points="364.6 221.88 361.35 222.57 361.35 218.19 364.6 217.5 364.6 221.88"/>
  <polygon class="cls-13" points="324.81 258.88 321.56 259.58 321.56 254.75 324.81 254.06 324.81 258.88"/>
  <path d="M361.9,178.13c0,.67-.27,1.21-.61,1.21s-.6-.54-.6-1.21.27-1.21.6-1.21S361.9,177.46,361.9,178.13Z"/>
  <path d="M361.9,149.87c0,.67-.27,1.21-.61,1.21s-.6-.54-.6-1.21.27-1.21.6-1.21S361.9,149.2,361.9,149.87Z"/>
  <polyline class="cls-23" points="363.13 207.52 382.94 202.09 396.38 189.65 422.96 183.14"/>
  <polyline class="cls-23" points="363.13 210.4 382.94 204.98 396.38 192.53 422.96 186.03"/>
  <line class="cls-10" x1="355.39" y1="363.33" x2="361.56" y2="366.07"/>
  <line class="cls-10" x1="336.48" y1="386.22" x2="338.85" y2="392.11"/>
  <line class="cls-10" x1="268.23" y1="239.15" x2="283.1" y2="235.97"/>
  <line class="cls-10" x1="268.23" y1="241.81" x2="283.1" y2="238.64"/>
  <line class="cls-10" x1="268.23" y1="244.44" x2="283.1" y2="241.27"/>
  <polygon points="267 286.88 251.64 290.1 255.67 291.75 270.74 288.68 267 286.88"/>
  <polygon points="283.3 297.18 266.6 300.8 270.63 302.44 287.04 298.97 283.3 297.18"/>
  <polygon class="cls-13" points="255.67 374.38 286.54 368.25 286.54 299.49 270.28 302.88 270.28 289.12 255.67 292.11 255.67 374.38"/>
  <line class="cls-7" x1="289.58" y1="175.22" x2="289.58" y2="206.65"/>
  <path d="M392.73,218.4c0,.82-.39,1.48-.88,1.48s-.89-.66-.89-1.48.4-1.48.89-1.48S392.73,217.58,392.73,218.4Z"/>
  <path d="M392.73,238.48c0,.82-.39,1.48-.88,1.48s-.89-.66-.89-1.48.4-1.48.89-1.48S392.73,237.66,392.73,238.48Z"/>
  <path d="M344.08,222.8c0,.82-.4,1.48-.89,1.48s-.88-.66-.88-1.48.4-1.48.88-1.48S344.08,222,344.08,222.8Z"/>
  <polygon class="cls-10" points="395.11 221.9 388.59 223.28 388.59 215.79 395.11 214.41 395.11 221.9"/>
  <polygon class="cls-4" points="344.19 305.05 344.19 365.24 329.08 380.89 263.29 393.34 263.29 385.12 324.83 372.58 337.17 357.57 337.17 311.78 344.19 305.05"/>
  <polygon points="208.4 298.96 205.46 299.81 205.46 236.41 208.4 235.56 208.4 298.96"/>
  <polygon points="205.46 236.41 186.19 226.61 188.91 226.07 208.4 235.56 205.46 236.41"/>
  <polygon points="190.44 255.42 171.17 245.62 173.88 245.09 193.38 254.57 190.44 255.42"/>
  <polygon class="cls-6" points="205.46 236.41 186.57 227.24 186.57 253.5 171.54 246.24 171.54 283.41 205.46 299.59 205.46 236.41"/>
  <polyline class="cls-9" points="101.44 114.02 101.44 125.5 101.44 160.46"/>
  <path d="M98.82,118.11c0,.91-.46,1.65-1,1.65s-1-.74-1-1.65.46-1.64,1-1.64S98.82,117.2,98.82,118.11Z"/>
  <polygon class="cls-24" points="123.66 213.59 123.66 181.79 137.9 188.9 137.9 159.82 119.25 151.35 119.25 120.78 158.5 139.72 158.5 228.03 123.66 213.59"/>
  <path d="M426.8,136.36c0,.92-.38,1.67-.84,1.67s-.83-.75-.83-1.67.37-1.68.83-1.68S426.8,135.43,426.8,136.36Z"/>
  <line class="cls-10" x1="358.68" y1="153.33" x2="363.73" y2="152.27"/>
  <line class="cls-10" x1="422.96" y1="140.65" x2="428.01" y2="139.59"/>
  <line class="cls-10" x1="358.68" y1="175.33" x2="363.73" y2="174.27"/>
  <polygon class="cls-15" points="265.42 301.6 258.9 302.99 258.9 295.5 265.42 294.11 265.42 301.6"/>
  <polygon class="cls-9" points="265.42 317 258.9 318.39 258.9 310.9 265.42 309.51 265.42 317"/>
  <polygon class="cls-15" points="282.93 344.12 276.41 345.5 276.41 307.93 282.93 306.55 282.93 344.12"/>
  <polygon class="cls-9" points="282.93 365.38 276.41 366.76 276.41 349.55 282.93 348.17 282.93 365.38"/>
  <line class="cls-25" x1="363.73" y1="148.66" x2="422.96" y2="136.15"/>
  <polygon class="cls-26" points="90.47 158.15 109.1 166.57 109.1 259.23 134.32 270.46 134.32 331.75 90.47 310.99 90.47 158.15"/>
  <line class="cls-9" x1="228.21" y1="387.59" x2="228.21" y2="442.73"/>
  <polygon class="cls-27" points="120.91 213.84 120.91 182.05 135.15 189.15 135.15 160.07 116.5 151 116.5 121.24 155.74 139.97 155.74 228.28 120.91 213.84"/>
  <line class="cls-10" x1="273.53" y1="308.71" x2="273.53" y2="342.68"/>
  <line class="cls-10" x1="271.11" y1="309.04" x2="271.11" y2="329.14"/>
  <line class="cls-10" x1="265.42" y1="319.79" x2="265.42" y2="359.47"/>
  <line class="cls-10" x1="262.16" y1="320.87" x2="262.16" y2="342.68"/>
  <line class="cls-9" x1="177.12" y1="325.7" x2="177.12" y2="355.42"/>
  <line class="cls-9" x1="191.44" y1="354.01" x2="191.44" y2="360.98"/>
  <line class="cls-9" x1="205.46" y1="348.85" x2="205.46" y2="368.72"/>
  <line class="cls-10" x1="286.54" y1="167.44" x2="356.22" y2="152.8"/>
  <polygon class="cls-9" points="203.19 240.49 197.29 237.66 197.29 257.82 203.19 260.65 203.19 240.49"/>
  <polygon class="cls-13" points="127.54 270.65 116.5 265.34 116.5 274.46 127.54 279.77 127.54 270.65"/>
  <polygon class="cls-13" points="127.54 294.25 116.5 288.94 116.5 298.06 127.54 303.37 127.54 294.25"/>
  <polygon class="cls-15" points="127.54 283.36 116.5 278.05 116.5 284.4 127.54 289.7 127.54 283.36"/>
  <polygon class="cls-15" points="194.39 236.92 188.5 234.09 188.5 238.81 194.39 241.64 194.39 236.92"/>
  <polygon class="cls-9" points="194.39 244.64 188.5 241.81 188.5 246.54 194.39 249.37 194.39 244.64"/>
  <polygon class="cls-15" points="194.39 251.86 188.5 249.03 188.5 253.75 194.39 256.59 194.39 251.86"/>
  <polygon class="cls-15" points="182.28 255.57 174.18 251.78 174.18 260.47 182.28 264.25 182.28 255.57"/>
  <line class="cls-10" x1="190.53" y1="263.41" x2="190.53" y2="285.59"/>
  <line class="cls-10" x1="196.47" y1="265.67" x2="196.47" y2="277.11"/>
  <line class="cls-10" x1="201.69" y1="267.68" x2="201.69" y2="281.72"/>
  <line class="cls-9" x1="274.51" y1="279.92" x2="274.51" y2="301.19"/>
  <polyline class="cls-10" points="282.93 278.49 282.93 286.88 279.67 291.21 279.67 298.34"/>
  <polygon class="cls-15" points="95.14 268.72 90.88 266.66 90.88 310.71 95.14 312.77 95.14 268.72"/>
  <polygon class="cls-15" points="94.87 160.28 90.88 158.5 90.88 202.55 94.87 204.33 94.87 160.28"/>
  <polyline class="cls-23" points="90.88 257.02 96.77 259.02 103.35 287.05 103.35 317.08"/>
  <polygon points="112.39 257.37 109.1 259.58 109.1 166.57 111.9 164.88 112.39 257.37"/>
  <polygon points="137.77 329.93 134.48 332.14 134.48 270.35 137.77 268.13 137.77 329.93"/>
  <polygon points="134.32 270.46 109.1 259.23 112.39 257.37 137.77 268.13 134.32 270.46"/>
  <polygon points="110.26 166.69 90.27 157.77 92.87 156.19 111.9 164.88 110.26 166.69"/>
  <line class="cls-13" x1="150.69" y1="289.23" x2="150.69" y2="296.15"/>
  <line class="cls-13" x1="150.69" y1="298.98" x2="150.69" y2="305.9"/>
  <polygon class="cls-13" points="152.62 163.13 118.98 147.87 118.98 127.9 152.62 143.16 152.62 163.13"/>
  <polygon class="cls-13" points="150.69 213.7 141.25 209.75 141.25 196.89 150.69 200.83 150.69 213.7"/>
  <polygon class="cls-9" points="149.37 157.78 122.06 145.38 122.06 133.25 149.37 145.64 149.37 157.78"/>
  <line class="cls-5" x1="139.41" y1="162.57" x2="139.41" y2="191.68"/>
  <line class="cls-5" x1="144.5" y1="165.02" x2="144.5" y2="180.23"/>
  <line class="cls-5" x1="150.69" y1="166.95" x2="150.69" y2="184.86"/>
  <line class="cls-4" x1="232.66" y1="249.23" x2="232.66" y2="382.63"/>
  <polygon class="cls-8" points="383.37 305.16 361.72 327.66 361.72 366.07 339 392.11 268.79 407.19 94.73 323.11 94.73 315.71 269.2 399.65 336.63 386.22 355.55 363.33 355.55 326.74 383.1 295.7 383.37 305.16"/>
  <line class="cls-28" x1="99.31" y1="169.23" x2="99.31" y2="188.18"/>
  <line class="cls-28" x1="103.35" y1="173.88" x2="103.35" y2="220.28"/>
  <polyline class="cls-10" points="111.9 167.3 125.73 172.63 125.73 155.49"/>
  <polyline class="cls-10" points="134.48 83.86 159.53 96.15 173.14 92.65 219.1 115.23"/>
  <polyline class="cls-10" points="312.2 127.5 322.59 110.83 361.9 102.05 363.7 89.12"/>
  <polyline class="cls-10" points="322.67 125.57 330.39 113.19 369.7 104.41 371.51 91.48"/>
  <polygon class="cls-13" points="172.13 151.21 163.79 152.8 163.79 143.97 172.13 142.38 172.13 151.21"/>
  <polygon class="cls-4" points="192.67 198.54 184.33 199.85 184.33 191.02 192.67 189.71 192.67 198.54"/>
  <polygon class="cls-4" points="205.97 166.43 200.4 167.31 200.4 161.4 205.97 160.53 205.97 166.43"/>
  <polygon class="cls-13" points="267.44 162.31 259.1 158.91 259.1 150.08 267.44 153.48 267.44 162.31"/>
  <polygon class="cls-13" points="225.8 197.76 219.32 194.4 219.32 185.56 225.8 188.93 225.8 197.76"/>
  <polygon class="cls-13" points="271.11 161.95 422.96 129.88 422.96 122.64 271.11 154.71 271.11 161.95"/>
  <polygon class="cls-27" points="163.38 124.31 94.88 91.07 107.34 88.8 176.79 122.64 163.38 124.31"/>
  <polygon class="cls-9" points="417.48 105.57 272.62 135.74 260.52 130.96 404.11 101.48 417.48 105.57"/>
  <polygon class="cls-9" points="356.05 86.12 319.11 93.87 307.02 89.08 342.68 82.03 356.05 86.12"/>
  <polygon class="cls-9" points="314.82 94.75 308.19 96.26 296.09 91.48 303.23 90.13 314.82 94.75"/>
  <line class="cls-10" x1="127.54" y1="216.2" x2="127.54" y2="263.91"/>
  <line class="cls-23" x1="116.51" y1="304.66" x2="116.51" y2="320.87"/>
  <line class="cls-23" x1="122.02" y1="307.54" x2="122.02" y2="323.75"/>
  <line class="cls-23" x1="127.54" y1="309.9" x2="127.54" y2="326.12"/>
  <line class="cls-10" x1="112.01" y1="193.1" x2="120.91" y2="196.64"/>
  <path d="M160.85,93.51a.61.61,0,0,1-.62.61.61.61,0,0,1-.61-.61.61.61,0,0,1,.61-.62A.62.62,0,0,1,160.85,93.51Z"/>
  <line class="cls-29" x1="94.87" y1="204.33" x2="94.87" y2="258.47"/>
  <path d="M153.47,223.47c0,.67-.27,1.21-.6,1.21s-.61-.54-.61-1.21.27-1.21.61-1.21S153.47,222.8,153.47,223.47Z"/>
  <path d="M170.09,234.08c0,.68-.28,1.22-.61,1.22s-.61-.54-.61-1.22.27-1.21.61-1.21S170.09,233.42,170.09,234.08Z"/>
  <line class="cls-13" x1="123.44" y1="189.71" x2="123.44" y2="205.38"/>
  <polyline class="cls-27" points="129.74 186.52 129.74 199.85 133.03 208.5 133.03 218.86"/>
  <polygon class="cls-13" points="109.1 173.41 103.35 170.87 103.35 164.15 109.1 166.69 109.1 173.41"/>
  <polygon class="cls-13" points="134.11 331.37 129.84 329.49 129.84 324.42 134.11 326.29 134.11 331.37"/>
  <polygon class="cls-13" points="95.14 312.02 90.88 310.14 90.88 305.06 95.14 306.94 95.14 312.02"/>
  <polyline class="cls-23" points="110.75 259.96 110.75 287.38 106.99 293.4 106.99 318.81"/>
  <line class="cls-13" x1="104.66" y1="96.01" x2="116.85" y2="93.44"/>
  <path d="M106.34,93.43c-.91,0-1.66-.4-1.68-1s.7-1,1.61-1.08,1.66.41,1.68,1S107.25,93.41,106.34,93.43Z"/>
  <polygon class="cls-15" points="104.39 232.81 98.5 229.98 98.5 254.69 104.39 257.52 104.39 232.81"/>
  <polygon class="cls-13" points="104.39 220.28 98.5 217.45 98.5 226.05 104.39 228.88 104.39 220.28"/>
  <line class="cls-15" x1="179.31" y1="216.61" x2="179.31" y2="250.26"/>
  <polyline class="cls-10" points="206.07 70.84 242.77 85.45 269.02 80.39 282.29 85.2 325.09 76.73"/>
  <polygon class="cls-15" points="213.3 98.72 170.92 77.4 182.97 75.37 225.34 96.69 213.3 98.72"/>
  <polygon class="cls-15" points="182 111.85 158.97 100.88 171.02 98.85 194.04 109.82 182 111.85"/>
  <polygon class="cls-15" points="224.07 104.4 216.92 101.19 228.97 99.16 236.11 102.37 224.07 104.4"/>
  <path d="M245.69,82.08c0,.48-.92.87-2.06.87s-2-.39-2-.87.92-.87,2-.87S245.69,81.6,245.69,82.08Z"/>
  <path d="M271.55,83.86c0,.49-.92.88-2.05.88s-2.06-.39-2.06-.88.92-.87,2.06-.87S271.55,83.38,271.55,83.86Z"/>
  <path d="M272.32,64.24c0,.93-1.77,1.68-3.95,1.68s-3.95-.75-3.95-1.68,1.77-1.67,3.95-1.67S272.32,63.32,272.32,64.24Z"/>
  <line class="cls-24" x1="390.61" y1="104.25" x2="401.73" y2="108.85"/>
  <polygon class="cls-30" points="218.55 441.16 93.01 379.57 93.01 322.31 218.55 383.44 218.55 441.16"/>
  <polyline class="cls-10" points="103.94 384.11 122.06 372.6 188.41 403.9 218.55 383.44"/>
  <path class="cls-18" d="M98.45,331c0,1.82-.6,3.29-1.34,3.29s-1.33-1.47-1.33-3.29.6-3.29,1.33-3.29S98.45,329.2,98.45,331Z"/>
  <polyline class="cls-10" points="243.27 124.58 291.82 113.33 268 101.78 303.45 94.39"/>
  <polygon class="cls-9" points="303.96 97.46 298.76 98.57 286.67 93.78 292.37 92.84 303.96 97.46"/>
  <polyline class="cls-10" points="226.51 117.67 251.82 112.1 230.09 103.38"/>
  <path d="M169,147.59c0,1.18-.48,2.14-1.07,2.14s-1.07-1-1.07-2.14.48-2.14,1.07-2.14S169,146.41,169,147.59Z"/>
  <path d="M223.63,191.68c0,1.18-.48,2.14-1.07,2.14s-1.07-1-1.07-2.14.48-2.14,1.07-2.14S223.63,190.5,223.63,191.68Z"/>
  <path d="M264.34,156.19c0,1.18-.48,2.14-1.07,2.14s-1.07-1-1.07-2.14.48-2.13,1.07-2.13S264.34,155,264.34,156.19Z"/>
  <line class="cls-27" x1="299.36" y1="224.28" x2="299.36" y2="251.63"/>
  <polyline class="cls-4" points="308.65 278.05 308.65 261.1 314.09 250.26"/>
  <line class="cls-14" x1="243.27" y1="229.98" x2="243.27" y2="386.47"/>
  <polygon class="cls-31" points="339.74 409.86 269.97 425.21 269.97 414.78 339.74 399.43 339.74 409.86"/>
  <g>
    <path d="M277.88,421.39l-2.87-2.6,4.3-1.07Z"/>
    <path d="M284.1,415.73a1.55,1.55,0,0,1,.88.27,2,2,0,0,1,.64.75,2.35,2.35,0,0,1,0,2.05,1.92,1.92,0,0,1-.63.75,1.55,1.55,0,0,1-.87.28,1.41,1.41,0,0,1-.67-.16,1.75,1.75,0,0,1-.55-.43,2.15,2.15,0,0,1-.38-.66,2.26,2.26,0,0,1-.14-.79,2.21,2.21,0,0,1,.23-1,2,2,0,0,1,.62-.76A1.63,1.63,0,0,1,284.1,415.73Z"/>
    <path d="M293.08,413.23a3.49,3.49,0,0,1,.62.94,2.92,2.92,0,0,1,.23,1.09,3,3,0,0,1-.22,1.1,3.28,3.28,0,0,1-.6.94,2.74,2.74,0,0,1-.58.45,2.65,2.65,0,0,1-.69.29,3.13,3.13,0,0,1-1.53,0,3,3,0,0,1-.69-.28,3.18,3.18,0,0,1-.59-.45l.29-.28a2.43,2.43,0,0,0,1.75.7,2.46,2.46,0,0,0,1.75-.72,2.84,2.84,0,0,0,.51-.81,2.36,2.36,0,0,0,.19-.94,2.51,2.51,0,0,0-.2-.94,2.88,2.88,0,0,0-.52-.81Zm-2.19,1.88.17.17-.17.17Z"/>
    <path d="M299.14,412.43a1.57,1.57,0,0,1,.88.27,2,2,0,0,1,.64.75,2.22,2.22,0,0,1,.24,1,2.13,2.13,0,0,1-.23,1,1.92,1.92,0,0,1-.63.75,1.56,1.56,0,0,1-.88.28,1.41,1.41,0,0,1-.67-.16,1.68,1.68,0,0,1-.56-.44,2.18,2.18,0,0,1-.38-.65,2.3,2.3,0,0,1-.13-.79,2.21,2.21,0,0,1,.22-1,2.06,2.06,0,0,1,.63-.76A1.63,1.63,0,0,1,299.14,412.43Z"/>
    <path d="M308.53,409.28v.44l-4.68,4.73h-.45Zm-3.45,5.17,3.46-3.5v.4l-3.05,3.09Zm3.47-1.87V413l-1.43,1.45h-.41Z"/>
    <path d="M313.3,413.12,311.8,412l1.48-2.53Z"/>
    <path d="M317.78,409.23a1.17,1.17,0,0,1,.65.19,1.38,1.38,0,0,1,.47.54,1.52,1.52,0,0,1,.18.73,1.63,1.63,0,0,1-.17.73,1.38,1.38,0,0,1-.47.54,1.08,1.08,0,0,1-.64.2,1.17,1.17,0,0,1-.65-.19,1.51,1.51,0,0,1-.47-.53,1.68,1.68,0,0,1-.18-.74,1.66,1.66,0,0,1,.17-.73,1.38,1.38,0,0,1,.47-.54A1.15,1.15,0,0,1,317.78,409.23Z"/>
    <path d="M324.12,407.85l2.36,2-4.7,1Z"/>
    <path d="M333.06,403.42v.41l-3.94.92,0,4.91h-.41l0-5.32Z"/>
    <path d="M333,407.32a1.93,1.93,0,0,0,1.45.59,2.11,2.11,0,0,0,.8-.16,2,2,0,0,0,.65-.44,2.12,2.12,0,0,0,.43-.68,1.93,1.93,0,0,0,0-1.56,2.11,2.11,0,0,0-.44-.67l.3-.29a2.69,2.69,0,0,1,.52.8,2.33,2.33,0,0,1,.2.94,2.36,2.36,0,0,1-.19.94,2.84,2.84,0,0,1-.51.81,2.46,2.46,0,0,1-1.75.72,2.43,2.43,0,0,1-1.75-.7Zm1.27-1.63.17.17-.17.17Z"/>
    <line class="cls-32" x1="277.88" y1="421.39" x2="343.22" y2="406.73"/>
  </g>
</svg>
