<svg id="Capa_1" data-name="Capa 1" xmlns="http://www.w3.org/2000/svg" width="261.96mm" height="270.87mm" viewBox="0 0 742.56 767.83">
  <defs>
    <style>
      .cls-1, .cls-15, .cls-22, .cls-4 {
        fill: #fff;
      }

      .cls-1, .cls-10, .cls-11, .cls-12, .cls-21, .cls-22, .cls-23, .cls-24, .cls-26, .cls-30, .cls-31, .cls-33, .cls-34, .cls-35, .cls-36, .cls-37, .cls-9 {
        stroke: #000;
      }

      .cls-1, .cls-11, .cls-15, .cls-16, .cls-21, .cls-23, .cls-25, .cls-26, .cls-27, .cls-28, .cls-29, .cls-30, .cls-31, .cls-35, .cls-9 {
        stroke-miterlimit: 10;
      }

      .cls-2 {
        fill: #fbb3c7;
      }

      .cls-3 {
        fill: #0b00ff;
      }

      .cls-5 {
        fill: #ff001c;
      }

      .cls-6 {
        fill: #0c63d4;
      }

      .cls-7 {
        fill: #ffff74;
      }

      .cls-8 {
        fill: #63ffff;
      }

      .cls-21, .cls-24, .cls-26, .cls-27, .cls-28, .cls-29, .cls-9 {
        fill: none;
      }

      .cls-10, .cls-11, .cls-12, .cls-15, .cls-16, .cls-30, .cls-31, .cls-32, .cls-35, .cls-36, .cls-37, .cls-9 {
        stroke-width: 0.75px;
      }

      .cls-10, .cls-31, .cls-34 {
        fill: #f1d622;
      }

      .cls-10, .cls-22, .cls-33, .cls-34, .cls-37 {
        stroke-linejoin: bevel;
      }

      .cls-11, .cls-19 {
        fill: #00ffe4;
      }

      .cls-12, .cls-24, .cls-32, .cls-36 {
        stroke-linejoin: round;
      }

      .cls-13, .cls-30 {
        fill: #ed3225;
      }

      .cls-14, .cls-16, .cls-32 {
        fill: #231f20;
      }

      .cls-15, .cls-16, .cls-32 {
        stroke: #231f20;
      }

      .cls-17 {
        fill: #626cb1;
      }

      .cls-18 {
        fill: #3e52a3;
      }

      .cls-20 {
        fill: #fbb1c7;
      }

      .cls-21, .cls-24, .cls-33, .cls-34 {
        stroke-width: 3px;
      }

      .cls-22, .cls-26 {
        stroke-width: 2px;
      }

      .cls-23 {
        stroke-width: 0.5px;
      }

      .cls-25, .cls-27, .cls-28, .cls-29 {
        stroke: #fff;
      }

      .cls-25 {
        stroke-width: 0.25px;
      }

      .cls-27 {
        stroke-width: 5px;
      }

      .cls-29 {
        stroke-width: 4px;
      }

      .cls-36, .cls-37 {
        fill: #ffe31c;
      }
    </style>
  </defs>
  <rect class="cls-1" width="742.56" height="767.83"/>
  <rect class="cls-2" x="15.98" y="14.83" width="710.17" height="734.34"/>
  <rect x="91.85" y="138.67" width="226.16" height="426.32"/>
  <g>
    <rect class="cls-3" x="79.57" y="97.81" width="248.59" height="32.65"/>
    <rect class="cls-4" x="239.93" y="102.93" width="19.13" height="20.09"/>
    <rect class="cls-4" x="271.06" y="102.93" width="19.13" height="20.09"/>
    <rect class="cls-5" x="301.3" y="102.93" width="19.13" height="20.09"/>
    <rect x="241.64" y="119" width="10.04" height="2.41"/>
    <path d="M288.52,121.79H272.85v-16.7h15.67Zm-14.68-1h13.7V106.12h-13.7Z"/>
    <g>
      <rect x="273.35" y="105.6" width="14.68" height="4.86"/>
      <path d="M288.52,111H272.85v-5.89h15.67Zm-14.68-1h13.7v-3.83h-13.7Z"/>
    </g>
    <polygon class="cls-4" points="306.89 118.61 305.5 117.15 314.85 107.33 316.24 108.79 306.89 118.61"/>
    <polygon class="cls-4" points="315.4 118.61 306.05 108.79 307.44 107.33 316.79 117.15 315.4 118.61"/>
    <g>
      <rect class="cls-4" x="85.37" y="106.41" width="16.19" height="15.45"/>
      <rect class="cls-4" x="113.94" y="110.43" width="5.77" height="5.51"/>
      <rect class="cls-4" x="123.9" y="110.43" width="5.77" height="5.51"/>
      <rect class="cls-6" x="85.37" y="106.41" width="16.19" height="4.43"/>
    </g>
    <path class="cls-3" d="M80.51,600.61H327.18V131H80.51Zm247.66,2H79.53V130.25H328.17Z"/>
  </g>
  <g>
    <rect class="cls-7" x="430.86" y="125.06" width="230.36" height="209.51"/>
    <rect class="cls-3" x="429.98" y="95.5" width="232.16" height="29.56"/>
    <path class="cls-3" d="M662.14,335.51H429.94V123.77h232.2Zm-231.28-.89H661.22v-210H430.86Z"/>
    <rect class="cls-4" x="579.74" y="100.14" width="17.86" height="18.19"/>
    <rect class="cls-4" x="608.8" y="100.14" width="17.86" height="18.19"/>
    <rect class="cls-5" x="637.05" y="100.14" width="17.86" height="18.19"/>
    <rect x="581.33" y="114.69" width="9.38" height="2.18"/>
    <path d="M625.12,117.21H610.48V102.09h14.64Zm-13.72-.93h12.8V103H611.4Z"/>
    <g>
      <rect x="610.94" y="102.56" width="13.71" height="4.4"/>
      <path d="M625.12,107.43H610.48v-5.34h14.64Zm-13.72-.94h12.8V103H611.4Z"/>
    </g>
    <polygon class="cls-4" points="642.27 114.34 640.97 113.02 649.7 104.12 651 105.45 642.27 114.34"/>
    <polygon class="cls-4" points="650.22 114.34 641.48 105.45 642.78 104.12 651.52 113.02 650.22 114.34"/>
    <g>
      <rect class="cls-4" x="435.39" y="103.29" width="15.12" height="13.98"/>
      <rect class="cls-6" x="435.39" y="103.29" width="15.12" height="4.01"/>
    </g>
    <rect class="cls-4" x="460.97" y="114.7" width="96.77" height="2.08"/>
    <rect class="cls-4" x="113.94" y="119.17" width="65.23" height="2.08"/>
    <rect class="cls-4" x="460.97" y="110.47" width="43.86" height="2.08"/>
    <rect class="cls-4" x="460.97" y="105.58" width="65.89" height="2.08"/>
  </g>
  <rect x="411.28" y="441.33" width="267.6" height="255.19"/>
  <rect class="cls-8" x="391.49" y="434.26" width="278.8" height="254.01"/>
  <rect class="cls-7" x="80.68" y="130.58" width="246.5" height="469.11"/>
  <g>
    <g>
      <line class="cls-9" x1="529.19" y1="434.26" x2="529.19" y2="623.2"/>
      <line class="cls-9" x1="564.72" y1="434.26" x2="564.72" y2="623.2"/>
      <line class="cls-9" x1="494.18" y1="434.26" x2="494.18" y2="623.2"/>
      <line class="cls-9" x1="636.67" y1="434.26" x2="636.67" y2="623.2"/>
      <line class="cls-9" x1="670.29" y1="434.26" x2="670.29" y2="623.2"/>
      <line class="cls-9" x1="599.74" y1="434.26" x2="599.74" y2="623.2"/>
      <line class="cls-9" x1="425" y1="434.26" x2="425" y2="623.2"/>
      <line class="cls-9" x1="459.84" y1="434.26" x2="459.84" y2="623.2"/>
      <line class="cls-9" x1="391.49" y1="434.26" x2="391.49" y2="623.2"/>
      <line class="cls-9" x1="391.49" y1="434.26" x2="670.29" y2="434.26"/>
      <line class="cls-9" x1="391.49" y1="434.26" x2="670.29" y2="434.26"/>
      <line class="cls-9" x1="391.49" y1="434.26" x2="670.29" y2="434.26"/>
      <line class="cls-9" x1="391.49" y1="496.99" x2="670.29" y2="496.99"/>
      <line class="cls-9" x1="391.49" y1="467.24" x2="670.29" y2="467.24"/>
      <line class="cls-9" x1="391.49" y1="530.22" x2="670.29" y2="530.22"/>
      <line class="cls-9" x1="391.49" y1="591.16" x2="670.29" y2="591.16"/>
      <line class="cls-9" x1="391.49" y1="560.23" x2="670.29" y2="560.23"/>
      <line class="cls-9" x1="391.49" y1="623.2" x2="670.29" y2="623.2"/>
    </g>
    <g>
      <line class="cls-9" x1="529.19" y1="623.2" x2="529.19" y2="687.72"/>
      <line class="cls-9" x1="564.72" y1="623.2" x2="564.72" y2="687.72"/>
      <line class="cls-9" x1="494.18" y1="623.2" x2="494.18" y2="687.72"/>
      <line class="cls-9" x1="636.67" y1="623.2" x2="636.67" y2="687.72"/>
      <line class="cls-9" x1="670.29" y1="623.2" x2="670.29" y2="687.72"/>
      <line class="cls-9" x1="599.74" y1="623.2" x2="599.74" y2="687.72"/>
      <line class="cls-9" x1="425" y1="623.2" x2="425" y2="687.72"/>
      <line class="cls-9" x1="459.84" y1="623.2" x2="459.84" y2="687.72"/>
      <line class="cls-9" x1="391.49" y1="623.2" x2="391.49" y2="687.72"/>
      <line class="cls-9" x1="391.49" y1="656.03" x2="670.29" y2="656.03"/>
      <line class="cls-9" x1="391.49" y1="623.2" x2="670.29" y2="623.2"/>
      <line class="cls-9" x1="391.49" y1="687.72" x2="670.29" y2="687.72"/>
      <line class="cls-9" x1="391.49" y1="687.72" x2="670.29" y2="687.72"/>
    </g>
  </g>
  <g>
    <polygon class="cls-10" points="308.48 534.4 161.74 534.4 119.92 578.04 266.67 578.04 308.48 534.4"/>
    <path class="cls-11" d="M203.21,518c0-5.24,4.2-9,9.41-9h0c5.2,0,10.17,4.27,10.17,9.52v38.05c0,2.33,1.47,4.28,3.81,4.28h0a3.58,3.58,0,0,0,3.89-3.77s-.05-13.67,0-18.23c.07-5.5-.62-15.49,12-21.09,9.07-4,23.18-3,23.18-3l15.49-23.66h19.27l14.74-28.08H296.64l-5.9,7.56L284.17,463H266l-15.05,20.2H222.47c-.84-34.3-8.39-56.13-28.16-70.51-2.48-1.81-5.24-3.1-7.74-1.33a5.32,5.32,0,0,0-1.61,7.39c2.91,4.63.93,10.81-3.85,13.47a10,10,0,0,1-13.47-3.85C166,425.73,160.82,418,160.82,418a5.55,5.55,0,0,0-7.74-1.32,5.35,5.35,0,0,0-1.44,7.54h0a19.49,19.49,0,0,1-5.19,27.21c-8.59,6.69-18.86,3.05-27.64-3.39-3.57-2.61-8.74.63-10.28,4.77s.27,9.34,4.58,10.27c8.24,1.78,19.89,1.37,28.54,17.92,0,0,4.68,7.84,3.93,38.05h0a2.39,2.39,0,0,0,2.48,2.37h0a2.36,2.36,0,0,0,2.47-2.34V497.13h0c0-7,5.76-11.95,12.89-11.95h0a12.82,12.82,0,0,1,12.9,12.71v37.75h0c0,1.15.69,2,1.53,2h0c.84,0,1.52-.83,1.52-2V519.33c0-5.13,4.65-8.8,10.4-8.8h0c5.74,0,10.4,2.85,10.4,8v6.78h0c0,1.16.68,2.05,1.52,2.05h0c.84,0,1.53-.83,1.53-2Z"/>
    <path class="cls-12" d="M114.88,499.22c-8.52,0-14.9-6.9-14.9-15.42a15.46,15.46,0,0,1,15.43-15.46s21.15.25,26.22,26.44c1.2,6.16,1.16,13.92,1.16,25.77h0a5.11,5.11,0,0,0,5.21,5.1h0a5,5,0,0,0,5.21-4.94v-19c0-5.76,4.66-9.87,10.43-9.87h0a10.15,10.15,0,0,1,10.43,10.1v.49l0,36.24c0,1.54,2,2.78,3.53,2.78h0c1.54,0,3.53-1.24,3.53-2.78,0-4-.13-11.47,0-15.66a8.28,8.28,0,0,1,8.59-8.22h0c4.75,0,8.6,3.4,8.6,8.15v19c0,1.53,1.81,2.77,3.21,2.77h0c1.39,0,3.22-1.37,3.22-2.91l0-21.64c0-4.33,3.51-7.43,7.84-7.43h0c4.33,0,7.84,3.1,7.84,7.43V558c0,2.79,3.31,5.06,5.85,5.06h0c2.54,0,5.83-2.27,5.83-5.06.11-3.54.1-10.56,0-14.07-.22-8.26-1.05-24.2,22.51-24.2v4.84c-18.27-.85-18.28,13.13-18.25,19.88,0,3.52.09,10.42,0,14,0,5.76-4.67,9.77-10.43,9.77h0a10.67,10.67,0,0,1-10.44-10.7c-.11-3.54,0-14.38,0-14.38l-.05-19.2a2.77,2.77,0,0,0-2.78-2.78h0a3.08,3.08,0,0,0-2.82,3.07s0,13.16,0,17.34v1a8.36,8.36,0,0,1-8.35,8.36h0a8.36,8.36,0,0,1-8.36-8.36V522.62a2.34,2.34,0,0,0-2.34-2.34h0a2.34,2.34,0,0,0-2.34,2.34s.11,10.61,0,14.14c-.08,2.71.53,7-4.86,9.12-1.68.65-8.4.43-10.72.06-5.71-.92-6.12-6.19-6.2-8.89-.11-3.54,0-14.15,0-14.15l-.05-19.2a2.77,2.77,0,0,0-2.77-2.77h0a2.77,2.77,0,0,0-2.78,2.77s.14,11.92,0,16.11c0,7.15-5.78,12.26-12.93,12.26h0a13,13,0,0,1-12.94-13h0V505.76a2.77,2.77,0,0,0-2.77-2.78h0a2.77,2.77,0,0,0-2.78,2.78v11.49a18.78,18.78,0,0,1-37.55,0v-.77h24.95C120.23,503,114.88,499.22,114.88,499.22Z"/>
    <path class="cls-13" d="M93.74,515.81a10.33,10.33,0,1,1,20.65,0"/>
    <path class="cls-10" d="M151.54,434.79a16,16,0,1,1-16-16A16,16,0,0,1,151.54,434.79Z"/>
    <path class="cls-13" d="M182.11,421.12a6.83,6.83,0,1,1-6.83-6.82A6.83,6.83,0,0,1,182.11,421.12Z"/>
    <path class="cls-13" d="M255,535.39a6.82,6.82,0,1,1-6.82-6.82A6.82,6.82,0,0,1,255,535.39Z"/>
    <path class="cls-14" d="M255.85,522.16c0,1.74-.41,3.15-.92,3.15s-.92-1.41-.92-3.15.41-3.14.92-3.14S255.85,520.42,255.85,522.16Z"/>
    <rect class="cls-13" x="174.06" y="464.41" width="56.55" height="3.26"/>
    <polygon class="cls-13" points="254.7 438.47 230.5 467.67 228 465.59 254.25 433.91 254.7 438.47"/>
    <rect class="cls-12" x="160.48" y="454.23" width="66.44" height="3.56"/>
    <polygon class="cls-12" points="284.83 419.36 257.07 419.36 257.07 415.81 290.32 415.81 284.83 419.36"/>
    <polygon class="cls-13" points="272.21 438.44 254.25 438.44 254.25 433.91 277.69 433.91 272.21 438.44"/>
    <polygon class="cls-13" points="270.44 411.48 252.48 411.48 252.48 406.95 275.93 406.95 270.44 411.48"/>
    <rect class="cls-12" x="216.19" y="435.02" width="51.62" height="3.56" transform="translate(-248.63 343.87) rotate(-50.29)"/>
    <polygon class="cls-12" points="163.4 456.51 150.74 471.82 148 469.55 160.67 454.23 163.4 456.51"/>
    <rect class="cls-13" x="192.6" y="445.37" width="29.87" height="3.56"/>
    <rect class="cls-13" x="211.75" y="426.16" width="51.62" height="3.56" transform="translate(-243.42 337.24) rotate(-50.29)"/>
    <path class="cls-15" d="M151.16,434.19c0,3.08-7,5.57-15.62,5.57s-15.62-2.49-15.62-5.57,7-5.57,15.62-5.57S151.16,431.11,151.16,434.19Z"/>
    <path class="cls-16" d="M139.14,432.21a3.6,3.6,0,1,1-3.6-3.59A3.6,3.6,0,0,1,139.14,432.21Z"/>
    <g>
      <polygon class="cls-17" points="280.68 454.23 290.79 464.34 290.79 444.12 280.68 454.23"/>
      <polygon class="cls-13" points="291.52 444.12 291.52 464.34 301.63 454.23 291.52 444.12"/>
    </g>
    <polygon class="cls-18" points="281.15 491.13 265.97 463.03 250.92 483.23 265.66 514.79 281.15 491.13"/>
    <rect x="119.39" y="578.04" width="147.78" height="4.13"/>
    <polygon points="309.24 538.88 267.17 582.16 267.17 578.04 309.24 534.75 309.24 538.88"/>
    <path class="cls-19" d="M123.48,482.6a6.82,6.82,0,1,1-6.82-6.82A6.82,6.82,0,0,1,123.48,482.6Z"/>
  </g>
  <g>
    <polygon points="652.81 571.07 532.46 645.56 532.37 627.22 652.67 551.91 652.81 571.07"/>
    <polygon points="412.84 569.35 532.53 645.56 532.44 627.22 412.7 550.18 412.84 569.35"/>
    <g>
      <polygon class="cls-20" points="651.09 551.72 532.37 626.76 414.88 550.62 482.31 513.52 534.14 545.12 592.98 509.25 651.09 551.72"/>
      <polygon class="cls-21" points="651.09 551.72 532.37 626.76 414.88 550.62 482.31 513.52 534.14 545.12 592.98 509.25 651.09 551.72"/>
      <polygon class="cls-4" points="651.09 551.72 532.37 626.76 414.88 550.62 482.31 513.52 534.14 545.12 592.98 509.25 651.09 551.72"/>
    </g>
    <polygon points="424.39 546.18 471.45 576.55 471.41 569.23 424.34 538.52 424.39 546.18"/>
    <polygon class="cls-22" points="471.8 510.04 518.05 539.56 471.63 568.91 424.69 538.5 471.8 510.04"/>
    <polyline class="cls-22" points="591.94 578 643.14 545.3 619.49 528.29 567.72 561.17"/>
    <polygon points="567.37 571.3 591.97 588.42 591.89 577.62 567.28 560.5 567.37 571.3"/>
    <polygon points="643.73 555.92 591.97 588.42 591.67 577.67 642.81 545.17 643.73 555.92"/>
    <polygon class="cls-22" points="482.82 575.91 524.68 550.56 543.71 564.2 503.08 589.55 482.82 575.91"/>
    <polygon class="cls-23" points="487.54 576.16 519.4 556.87 533.87 567.24 502.95 586.53 487.54 576.16"/>
    <polygon class="cls-23" points="451.94 552.28 493.13 528.08 512.59 540.32 471.54 565.85 451.94 552.28"/>
    <polygon class="cls-23" points="425.22 538 466.41 513.8 487.2 526.9 446.52 551.71 425.22 538"/>
    <polygon points="482.36 584.52 503.53 598.59 503.19 590.17 482.36 576.3 482.36 584.52"/>
    <polygon points="545.14 572.55 503.53 598.59 503.04 590.19 544.31 564.17 545.14 572.55"/>
    <polyline points="588.43 573.48 638.23 542.15 623.81 531.78 573.66 563.21"/>
    <polyline points="550.85 552.96 583.61 532.34 574.13 525.51 541.13 546.2"/>
    <polyline class="cls-4" points="583.88 570.3 600.17 559.78 598.25 558.38 581.87 568.94"/>
    <polyline class="cls-4" points="587.34 573.13 597.44 566.73 595.52 565.33 585.32 571.77"/>
    <polyline class="cls-4" points="608.24 554.78 633.11 538.67 631.19 537.28 606.23 553.42"/>
    <polyline class="cls-4" points="603.29 560.3 608.56 556.99 606.65 555.6 601.27 558.93"/>
    <polyline class="cls-4" points="615.31 554.97 620.59 551.66 618.67 550.27 613.3 553.61"/>
    <polyline class="cls-4" points="625.56 548.24 630.84 544.93 628.92 543.54 623.55 546.88"/>
    <polyline class="cls-4" points="579.55 567.3 587.08 562.63 583.38 560.38 576.18 564.96"/>
    <polyline class="cls-4" points="594.09 556.43 599.45 553.1 596.82 551.51 591.69 554.76"/>
    <polyline class="cls-4" points="587.56 560.19 591.82 557.54 589.73 556.27 585.65 558.86"/>
    <polyline class="cls-4" points="603.41 552.76 607.67 550.11 605.58 548.84 601.5 551.43"/>
    <line class="cls-24" x1="577.36" y1="542.11" x2="610.49" y2="521.53"/>
    <line class="cls-24" x1="577.36" y1="530.23" x2="602.45" y2="514.64"/>
    <path d="M594.71,512.71c0,.88-1,1.64-2.4,1.7s-2.51-.59-2.55-1.47,1-1.64,2.4-1.7S594.67,511.83,594.71,512.71Z"/>
    <path d="M536.51,620.65c.06,1.21-1.43,2.27-3.32,2.36s-3.46-.83-3.52-2,1.43-2.27,3.32-2.36S536.46,619.44,536.51,620.65Z"/>
    <path d="M425.23,550.24c.06,1.22-1.43,2.27-3.32,2.36s-3.46-.83-3.52-2,1.43-2.26,3.32-2.35S425.18,549,425.23,550.24Z"/>
    <path d="M526.76,542.58c0,.95-1.12,1.77-2.59,1.84s-2.71-.64-2.75-1.59,1.12-1.77,2.59-1.84S526.72,541.64,526.76,542.58Z"/>
    <path d="M615,527.82c.06,1.22-1.43,2.27-3.32,2.36s-3.46-.83-3.52-2,1.43-2.27,3.32-2.35S614.94,526.62,615,527.82Z"/>
    <path d="M620.4,531.93c0,.49-.58.92-1.34,1s-1.4-.33-1.42-.82.57-.91,1.33-.95S620.37,531.45,620.4,531.93Z"/>
    <path class="cls-4" d="M612.94,545c0,.87-1,1.63-2.39,1.69s-2.49-.59-2.53-1.47,1-1.62,2.38-1.69S612.9,544.1,612.94,545Z"/>
    <path class="cls-4" d="M619.14,541.29c0,.87-1,1.64-2.39,1.7s-2.48-.6-2.53-1.47,1-1.63,2.39-1.69S619.1,540.43,619.14,541.29Z"/>
    <path class="cls-4" d="M625.58,537.54c0,.87-1,1.63-2.38,1.69s-2.49-.59-2.54-1.46,1-1.63,2.39-1.69S625.54,536.67,625.58,537.54Z"/>
    <path d="M574.93,560.77c0,.49-.58.92-1.34,1s-1.4-.34-1.42-.82.58-.92,1.34-.95S574.91,560.28,574.93,560.77Z"/>
    <path d="M523.61,553.74c0,.38-.45.72-1,.75s-1.09-.24-1.11-.62.43-.72,1-.75S523.58,553.36,523.61,553.74Z"/>
    <path d="M537.33,563.84c0,.38-.44.72-1,.75s-1.1-.24-1.12-.62.44-.72,1-.76S537.31,563.46,537.33,563.84Z"/>
    <path d="M593,574.73c0,.49-.58.92-1.34.95s-1.4-.33-1.42-.82.58-.92,1.34-1S592.94,574.24,593,574.73Z"/>
    <path d="M597.77,545.62c0,.49-.58.92-1.34,1s-1.4-.34-1.42-.82.57-.92,1.34-1S597.74,545.13,597.77,545.62Z"/>
    <path d="M615.8,559.58c0,.49-.58.91-1.34.95s-1.4-.34-1.42-.82.57-.92,1.34-1S615.77,559.09,615.8,559.58Z"/>
    <path d="M639.75,545.11c0,.48-.58.91-1.34.95s-1.4-.34-1.42-.83.58-.91,1.34-1S639.73,544.62,639.75,545.11Z"/>
    <polygon points="507.28 567.05 512.44 570.47 514.31 569.19 509.23 565.66 507.28 567.05"/>
    <path class="cls-4" d="M523.3,566.69c0,.38-.44.72-1,.76s-1.09-.25-1.11-.63.44-.72,1-.75S523.27,566.31,523.3,566.69Z"/>
    <path class="cls-4" d="M492.93,576.23c0,.39-.44.73-1,.76s-1.09-.24-1.11-.63.43-.71,1-.75S492.9,575.86,492.93,576.23Z"/>
    <path class="cls-4" d="M504.88,584.34c0,.38-.43.72-1,.75s-1.09-.24-1.11-.62.44-.72,1-.76S504.86,584,504.88,584.34Z"/>
    <path class="cls-4" d="M504.84,578.89c0,.68-.79,1.28-1.85,1.35s-1.94-.45-2-1.12.78-1.28,1.84-1.34S504.8,578.21,504.84,578.89Z"/>
    <path class="cls-4" d="M509.64,576c0,.68-.79,1.28-1.85,1.35s-1.94-.44-2-1.12.78-1.28,1.84-1.34S509.59,575.28,509.64,576Z"/>
    <path class="cls-4" d="M514.62,573c0,.68-.78,1.28-1.84,1.34s-1.95-.44-2-1.12.78-1.27,1.85-1.34S514.58,572.29,514.62,573Z"/>
    <path class="cls-4" d="M435.36,537.93c0,.87-1,1.63-2.39,1.69s-2.49-.6-2.53-1.47,1-1.62,2.39-1.69S435.32,537.06,435.36,537.93Z"/>
    <path class="cls-4" d="M441.56,534.25c0,.87-1,1.63-2.39,1.7s-2.48-.6-2.52-1.47,1-1.63,2.38-1.69S441.52,533.39,441.56,534.25Z"/>
    <path class="cls-4" d="M448,530.5c0,.87-1,1.63-2.38,1.69s-2.49-.59-2.53-1.46,1-1.63,2.38-1.69S448,529.63,448,530.5Z"/>
    <path class="cls-4" d="M508.06,568.47c0,.67-.78,1.28-1.84,1.34s-2-.44-2-1.12.78-1.28,1.84-1.34S508,567.79,508.06,568.47Z"/>
    <path class="cls-4" d="M509.81,540.25c0,.87-1,1.63-2.38,1.69s-2.49-.6-2.53-1.47,1-1.62,2.38-1.69S509.77,539.38,509.81,540.25Z"/>
    <path class="cls-4" d="M503.24,544.42c0,.87-1,1.63-2.39,1.7s-2.49-.6-2.53-1.47,1-1.63,2.38-1.69S503.2,543.55,503.24,544.42Z"/>
    <path class="cls-4" d="M558.58,542.59c0,.87-1,1.63-2.38,1.69s-2.49-.59-2.53-1.46,1-1.63,2.38-1.69S558.55,541.72,558.58,542.59Z"/>
    <path class="cls-4" d="M565.68,538.41c0,.87-1,1.63-2.39,1.69s-2.49-.6-2.53-1.46,1-1.63,2.38-1.7S565.64,537.54,565.68,538.41Z"/>
    <path class="cls-4" d="M552,546.77c0,.87-1,1.63-2.39,1.69s-2.49-.59-2.53-1.47,1-1.63,2.39-1.69S552,545.9,552,546.77Z"/>
    <path class="cls-4" d="M480.91,552.78c0,.87-1,1.62-2.39,1.69S476,553.88,476,553s1-1.63,2.39-1.69S480.87,551.91,480.91,552.78Z"/>
    <path class="cls-4" d="M474.33,557c0,.87-1,1.63-2.39,1.69s-2.49-.59-2.52-1.46,1-1.63,2.38-1.69S474.29,556.08,474.33,557Z"/>
    <path class="cls-4" d="M487.48,535.61c0,.87-1,1.63-2.38,1.69s-2.49-.59-2.53-1.46,1-1.63,2.39-1.69S487.44,534.74,487.48,535.61Z"/>
    <path class="cls-4" d="M480.91,539.79c0,.87-1,1.62-2.39,1.69S476,540.88,476,540s1-1.63,2.39-1.69S480.87,538.91,480.91,539.79Z"/>
    <polyline class="cls-4" points="523.7 569.92 531.74 565.03 530.81 564.37 522.72 569.28"/>
    <polyline class="cls-4" points="494.22 581.28 508.87 572.43 507.94 571.78 493.25 580.64"/>
    <polyline class="cls-4" points="435.38 544.5 454.33 533.4 453.15 532.54 434.15 543.67"/>
    <polyline class="cls-4" points="438.91 546.81 447.7 541.7 446.52 540.85 437.67 545.97"/>
    <polyline class="cls-4" points="455.57 525.29 474.51 514.18 473.33 513.33 454.33 524.46"/>
    <polyline class="cls-4" points="459.09 527.59 467.88 522.49 466.7 521.63 457.85 526.76"/>
    <polyline class="cls-4" points="442.98 549.43 451.77 544.32 450.59 543.46 441.74 548.59"/>
    <polygon class="cls-4" points="508.97 564.75 520.86 557.54 526.26 561.42 514.72 568.62 508.97 564.75"/>
    <polygon class="cls-4" points="476.88 547.66 488.77 540.45 491.08 541.6 479.54 548.79 476.88 547.66"/>
    <polygon class="cls-4" points="485.09 540.32 499.95 531.58 507.5 536.31 492.4 545.38 485.09 540.32"/>
    <polygon class="cls-4" points="457.15 552.79 472.01 544.05 479.56 548.78 464.46 557.86 457.15 552.79"/>
    <polygon class="cls-4" points="504.97 581.23 509.26 578.63 511.21 580.03 507.04 582.63 504.97 581.23"/>
    <polygon class="cls-4" points="493.7 571.66 498 569.06 499.94 570.46 495.78 573.07 493.7 571.66"/>
    <polygon class="cls-4" points="493.96 575.97 498.25 573.36 500.2 574.77 496.04 577.36 493.96 575.97"/>
    <polygon points="510.96 564.84 515.25 562.23 517.2 563.63 513.04 566.23 510.96 564.84"/>
    <polygon points="490.54 541.72 496.05 538.38 498.55 540.18 493.21 543.52 490.54 541.72"/>
    <polygon points="459.45 554.58 464.97 551.24 467.46 553.03 462.12 556.37 459.45 554.58"/>
    <polygon points="466.62 547.22 472.13 543.88 474.63 545.68 469.29 549.01 466.62 547.22"/>
    <polygon points="493.59 534.92 499.1 531.58 501.86 533.37 496.51 536.71 493.59 534.92"/>
    <polygon points="517.79 562.46 522.09 559.85 524.04 561.26 519.88 563.86 517.79 562.46"/>
    <polygon class="cls-4" points="445.85 525.43 451.4 522.1 473.62 536.37 468.23 539.64 445.85 525.43"/>
    <polygon class="cls-4" points="511.05 577.52 515.34 574.92 517.29 576.32 513.13 578.92 511.05 577.52"/>
    <polygon points="518.46 547.23 471.42 576.55 471.38 569.22 518.41 539.58 518.46 547.23"/>
    <polyline class="cls-25" points="548.89 605.46 523.18 589.53 547.18 574.4 572.6 589.9"/>
    <polygon class="cls-4" points="556.65 599.4 550.57 603.41 545.64 600.14 551.36 595.97 556.65 599.4"/>
    <polygon class="cls-4" points="563.22 589.47 557.14 593.48 537.29 581 543.31 577.3 563.22 589.47"/>
    <polygon class="cls-4" points="550.23 595.31 544.15 599.31 541.85 597.75 547.83 593.61 550.23 595.31"/>
    <polygon class="cls-4" points="547.01 593.18 540.93 597.18 538.63 595.63 544.61 591.49 547.01 593.18"/>
    <polygon points="560.08 587.32 553.77 591.53 551.47 589.98 557.68 585.63 560.08 587.32"/>
    <polygon points="554.35 583.94 548.04 588.15 545.74 586.6 551.95 582.25 554.35 583.94"/>
    <polygon class="cls-25" points="572.06 600.42 548.02 616.06 548.6 605.51 572.68 589.69 572.06 600.42"/>
    <polygon class="cls-25" points="522.65 599.38 548.03 615.79 548.62 605.24 523.17 589.37 522.65 599.38"/>
    <path class="cls-4" d="M541.12,587c0,.46.55.87,1.28.91s1.34-.3,1.36-.77-.54-.88-1.27-.92S541.15,586.53,541.12,587Z"/>
    <path class="cls-4" d="M566.75,589.35c0,.48.54.89,1.27.92s1.34-.3,1.36-.76-.54-.88-1.27-.92S566.78,588.89,566.75,589.35Z"/>
    <path class="cls-4" d="M536.1,583.58c0,.47.54.88,1.27.92s1.34-.31,1.37-.78-.55-.88-1.28-.91S536.12,583.11,536.1,583.58Z"/>
    <path class="cls-4" d="M527.09,588.35c0,.47.54.88,1.26.92s1.34-.31,1.37-.78-.54-.87-1.27-.91S527.11,587.88,527.09,588.35Z"/>
    <line class="cls-26" x1="464.81" y1="583.71" x2="531.74" y2="542.95"/>
  </g>
  <rect class="cls-27" x="80.28" y="628.4" width="246.78" height="59.53"/>
  <path class="cls-8" d="M303.67,643.46A14.71,14.71,0,1,1,289,658.16,14.72,14.72,0,0,1,303.67,643.46Zm0,2.24a12.47,12.47,0,1,0,12.46,12.46A12.48,12.48,0,0,0,303.67,645.7Z"/>
  <path class="cls-4" d="M290.08,643.46a14.71,14.71,0,1,1-14.7,14.7A14.72,14.72,0,0,1,290.08,643.46Zm0,2.24a12.47,12.47,0,1,0,12.47,12.46A12.48,12.48,0,0,0,290.08,645.7Z"/>
  <path class="cls-8" d="M277,643.46a14.71,14.71,0,1,1-14.7,14.7A14.73,14.73,0,0,1,277,643.46Zm0,2.24a12.47,12.47,0,1,0,12.47,12.46A12.47,12.47,0,0,0,277,645.7Z"/>
  <path class="cls-4" d="M263.45,643.46a14.71,14.71,0,1,1-14.71,14.7A14.72,14.72,0,0,1,263.45,643.46Zm0,2.24a12.47,12.47,0,1,0,12.46,12.46A12.47,12.47,0,0,0,263.45,645.7Z"/>
  <path class="cls-8" d="M250.07,643.46a14.71,14.71,0,1,1-14.69,14.7A14.72,14.72,0,0,1,250.07,643.46Zm0,2.24a12.47,12.47,0,1,0,12.48,12.46A12.47,12.47,0,0,0,250.07,645.7Z"/>
  <path class="cls-4" d="M236.49,643.46a14.71,14.71,0,1,1-14.7,14.7A14.72,14.72,0,0,1,236.49,643.46Zm0,2.24A12.47,12.47,0,1,0,249,658.16,12.48,12.48,0,0,0,236.49,645.7Z"/>
  <path class="cls-8" d="M223.45,643.46a14.71,14.71,0,1,1-14.71,14.7A14.72,14.72,0,0,1,223.45,643.46Zm0,2.24a12.47,12.47,0,1,0,12.46,12.46A12.48,12.48,0,0,0,223.45,645.7Z"/>
  <path class="cls-4" d="M209.86,643.46a14.71,14.71,0,1,1-14.71,14.7A14.72,14.72,0,0,1,209.86,643.46Zm0,2.24a12.47,12.47,0,1,0,12.47,12.46A12.48,12.48,0,0,0,209.86,645.7Z"/>
  <path class="cls-8" d="M195.91,643.46a14.71,14.71,0,1,1-14.7,14.7A14.72,14.72,0,0,1,195.91,643.46Zm0,2.24a12.47,12.47,0,1,0,12.47,12.46A12.48,12.48,0,0,0,195.91,645.7Z"/>
  <path class="cls-4" d="M182.33,643.46a14.71,14.71,0,1,1-14.71,14.7A14.72,14.72,0,0,1,182.33,643.46Zm0,2.24a12.47,12.47,0,1,0,12.47,12.46A12.48,12.48,0,0,0,182.33,645.7Z"/>
  <path class="cls-8" d="M169.28,643.46a14.71,14.71,0,1,1-14.7,14.7A14.73,14.73,0,0,1,169.28,643.46Zm0,2.24a12.47,12.47,0,1,0,12.47,12.46A12.48,12.48,0,0,0,169.28,645.7Z"/>
  <path class="cls-4" d="M155.7,643.46A14.71,14.71,0,1,1,141,658.16,14.72,14.72,0,0,1,155.7,643.46Zm0,2.24a12.47,12.47,0,1,0,12.46,12.46A12.48,12.48,0,0,0,155.7,645.7Z"/>
  <path class="cls-8" d="M142.32,643.46a14.71,14.71,0,1,1-14.69,14.7A14.72,14.72,0,0,1,142.32,643.46Zm0,2.24a12.47,12.47,0,1,0,12.47,12.46A12.48,12.48,0,0,0,142.32,645.7Z"/>
  <path class="cls-4" d="M128.74,643.46a14.71,14.71,0,1,1-14.7,14.7A14.72,14.72,0,0,1,128.74,643.46Zm0,2.24a12.47,12.47,0,1,0,12.47,12.46A12.48,12.48,0,0,0,128.74,645.7Z"/>
  <path class="cls-8" d="M115.69,643.46a14.71,14.71,0,1,1-14.7,14.7A14.73,14.73,0,0,1,115.69,643.46Zm0,2.24a12.47,12.47,0,1,0,12.47,12.46A12.48,12.48,0,0,0,115.69,645.7Z"/>
  <path class="cls-4" d="M102.11,643.46a14.71,14.71,0,1,1-14.7,14.7A14.72,14.72,0,0,1,102.11,643.46Zm0,2.24a12.47,12.47,0,1,0,12.46,12.46A12.48,12.48,0,0,0,102.11,645.7Z"/>
  <line class="cls-28" x1="139.13" y1="628.4" x2="139.13" y2="602.58"/>
  <line class="cls-28" x1="267.17" y1="628.4" x2="267.17" y2="602.58"/>
  <line class="cls-28" x1="328.17" y1="156.86" x2="429.94" y2="156.86"/>
  <line class="cls-29" x1="617.7" y1="335.51" x2="617.7" y2="433.79"/>
  <line class="cls-29" x1="391.49" y1="658.16" x2="327.06" y2="658.16"/>
  <path class="cls-8" d="M464.29,402.66l-21.14-21.14,21.14-21.14,21.15,21.14Zm-19.86-21.14,19.86,19.86,19.86-19.86-19.86-19.86Z"/>
  <path class="cls-4" d="M464.29,407.31l-25.78-25.79,25.78-25.78,25.78,25.78Zm-24.5-25.79,24.5,24.5,24.51-24.5L464.29,357Z"/>
  <path class="cls-8" d="M484.22,402.66l-21.14-21.14,21.14-21.14,21.14,21.14Zm-19.86-21.14,19.86,19.86,19.86-19.86-19.86-19.86Z"/>
  <path class="cls-4" d="M484.22,407.31l-25.78-25.79,25.78-25.78L510,381.52Zm-24.5-25.79,24.5,24.5,24.51-24.5L484.22,357Z"/>
  <path class="cls-8" d="M344.47,171,330.3,156.86l14.17-14.17,14.18,14.17Zm-13.31-14.18,13.31,13.32,13.32-13.32-13.32-13.31Z"/>
  <path class="cls-4" d="M344.47,174.15l-17.29-17.29,17.29-17.28,17.29,17.28ZM328,156.86l16.43,16.43,16.43-16.43-16.43-16.43Z"/>
  <path class="cls-8" d="M357.84,171l-14.18-14.18,14.18-14.17L372,156.86Zm-13.32-14.18,13.32,13.32,13.31-13.32-13.31-13.31Z"/>
  <path class="cls-4" d="M357.83,174.15l-17.29-17.29,17.29-17.28,17.29,17.28Zm-16.42-17.29,16.42,16.43,16.44-16.43-16.44-16.43Z"/>
  <path class="cls-8" d="M535.79,402.66l-21.14-21.14,21.14-21.14,21.14,21.14Zm-19.86-21.14,19.86,19.86,19.86-19.86-19.86-19.86Z"/>
  <path class="cls-4" d="M535.79,407.31,510,381.52l25.79-25.78,25.78,25.78Zm-24.5-25.79,24.5,24.5,24.5-24.5L535.79,357Z"/>
  <path class="cls-8" d="M555.72,402.66l-21.14-21.14,21.14-21.14,21.14,21.14Zm-19.86-21.14,19.86,19.86,19.86-19.86-19.86-19.86Z"/>
  <path class="cls-4" d="M555.72,407.31l-25.79-25.79,25.79-25.78,25.78,25.78Zm-24.5-25.79,24.5,24.5,24.5-24.5L555.72,357Z"/>
  <line class="cls-28" x1="581.5" y1="381.52" x2="617.7" y2="381.52"/>
  <line class="cls-28" x1="328.79" y1="381.52" x2="439.91" y2="381.52"/>
  <g>
    <g>
      <path class="cls-30" d="M245.37,291a21,21,0,1,1-21-21A21,21,0,0,1,245.37,291Z"/>
      <path d="M239.31,322.83c23.56-14.48,30.84-14.7,41.9-14.27,17.69.69,32.38,13.66,32.38,30.53s-16.07,30.46-33.78,30.46c0,0-12.07.09-27.15-14.25,0,0-8.94-9.45-27.34-9.45-17.75,0-24.74,4.78-31.61,9.54C171,371.15,161,369.26,161,369.26L183.85,331H162.32s-24.68,39.13-25.19,38.71c-6.72-5.6-18.59-17.47-17.07-30.59,2-16.76,14.38-29.52,28.73-34.34,2.21-.74,30.13-7.06,48,8.45C205,320.34,225,331.65,239.31,322.83Z"/>
      <path class="cls-31" d="M239.31,314.67c23.56-14.49,30.84-14.7,41.9-14.27,17.69.68,32.38,13.65,32.38,30.53s-16.07,30.46-33.78,30.46c0,0-12.07.09-27.15-14.25,0,0-8.94-9.46-27.34-9.46-17.75,0-24.74,4.79-31.61,9.55C171,363,161,361.09,161,361.09l22.87-38.29H162.32s-24.68,39.14-25.19,38.72c-6.72-5.6-18.59-17.48-17.07-30.59,2-16.76,14.38-29.53,28.73-34.34,2.21-.74,30.13-7.06,48,8.45C205,312.18,225,323.49,239.31,314.67Z"/>
      <path d="M165.7,219.16l-50.42-27.71,13.14-29.21-5.56-12.07L102.6,193.74h0v0l59.18,32.53a4.07,4.07,0,1,0,3.92-7.14Z"/>
      <path d="M176.84,318.8a4.65,4.65,0,0,0-6.4,1.5l-34.63,55.79L103.3,359.36,89.21,365l48.45,25.73v0l0,0,40.66-65.5A4.65,4.65,0,0,0,176.84,318.8Z"/>
      <polygon points="162.32 177.72 189.06 152.94 211.57 152.94 183.85 191.42 162.32 177.72"/>
      <path class="cls-32" d="M224.35,192.64a4.16,4.16,0,0,1-4.16,4.16h-11.9a4.16,4.16,0,0,1-4.16-4.16h0a4.15,4.15,0,0,1,4.16-4.15h11.9a4.15,4.15,0,0,1,4.16,4.15Z"/>
      <path class="cls-32" d="M221,217.92c0,2.29-2.34,4.15-5.23,4.15h-15c-2.89,0-5.23-1.86-5.23-4.15h0c0-2.3,2.34-4.16,5.23-4.16h15c2.89,0,5.23,1.86,5.23,4.16Z"/>
      <path class="cls-32" d="M233.91,247.1a4,4,0,0,1-4,4H199.58a4,4,0,0,1-4-4h0a4,4,0,0,1,4-4h30.33a4,4,0,0,1,4,4Z"/>
      <path class="cls-32" d="M294.63,192.64a4.16,4.16,0,0,1-4.16,4.16h-11.9a4.16,4.16,0,0,1-4.16-4.16h0a4.15,4.15,0,0,1,4.16-4.15h11.9a4.15,4.15,0,0,1,4.16,4.15Z"/>
      <path class="cls-32" d="M291.3,217.92c0,2.29-2.34,4.15-5.23,4.15h-15c-2.89,0-5.23-1.86-5.23-4.15h0c0-2.3,2.34-4.16,5.23-4.16h15c2.89,0,5.23,1.86,5.23,4.16Z"/>
      <path class="cls-32" d="M304.18,247.1a4,4,0,0,1-4,4H269.86a4,4,0,0,1-4-4h0a4,4,0,0,1,4-4h30.33a4,4,0,0,1,4,4Z"/>
      <path class="cls-11" d="M211.57,152.94v30.9c0,1.65-2.26,1.46-2.26,1.46H205.9a7.34,7.34,0,0,0-7.34,7.34h0A7.34,7.34,0,0,0,205.9,200h1.78s2.51-.12,2.51,1.63V209c0,1.65-2.25,1.47-2.25,1.47h-9.25a7.33,7.33,0,0,0-7.34,7.33h0a7.33,7.33,0,0,0,7.34,7.34h30.45a7.31,7.31,0,0,1,7.3,7.34h0a7.34,7.34,0,0,1-7.33,7.34H198a7.34,7.34,0,0,0-7.34,7.33h0a7.34,7.34,0,0,0,7.34,7.34h12.77a7.15,7.15,0,0,1,7.19,7.27h0a7.29,7.29,0,0,1-7.34,7.27,31.1,31.1,0,0,0-6.24,1c-13,4.93-19.87,51.8-19.87,51.8l-.61-130.37"/>
      <path class="cls-11" d="M279.31,169.32v14.52c0,1.65-2.26,1.46-2.26,1.46h-3.41a7.34,7.34,0,0,0-7.34,7.34h0a7.34,7.34,0,0,0,7.34,7.34h1.77s2.52-.12,2.52,1.63V209c0,1.65-2.25,1.47-2.25,1.47h-9.26a7.33,7.33,0,0,0-7.33,7.33h0a7.33,7.33,0,0,0,7.33,7.34h30.46a7.31,7.31,0,0,1,7.3,7.34h0a7.34,7.34,0,0,1-7.34,7.34H265.69a7.34,7.34,0,0,0-7.34,7.33h0a7.34,7.34,0,0,0,7.34,7.34h12.77a7.16,7.16,0,0,1,7.19,7.27h0a7.29,7.29,0,0,1-7.34,7.27,31.1,31.1,0,0,0-6.24,1c-13,4.93-19.87,51.8-19.87,51.8l-.61-152.47Z"/>
      <polygon points="183.85 301.4 162.32 287.28 162.32 177.72 183.85 191.42 183.85 301.4"/>
      <polygon points="184.67 322.05 162.32 322.05 162.32 287.28 184.67 300.97 184.67 322.05"/>
      <path d="M130.83,188.83l9.45-25.41,38.89,28.25v93.68L112.4,238.87S119,220.32,122,214.5c.44-.86,1.67-1.84,3.75-.9L155,229.34a8.81,8.81,0,1,0,8.17-15.62S139.11,201,131.6,196C130.11,195,129.27,194.11,130.83,188.83Z"/>
      <path class="cls-11" d="M135.51,188.83,145,163.42l38.89,28.25v93.68l-66.78-46.48s6.63-18.55,9.62-24.37c.44-.86,1.68-1.84,3.76-.9l29.19,15.74a8.81,8.81,0,1,0,8.17-15.62S143.79,201,136.27,196C134.79,195,134,194.11,135.51,188.83Z"/>
      <path d="M158.94,361.85s5.57.18,15.85-3.88v8.16s-9.37,4.15-15.85,3.89Z"/>
    </g>
    <path class="cls-15" d="M301.54,328.11c0,4-9.06,7.22-20.23,7.22s-20.23-3.24-20.23-7.22,9.06-7.22,20.23-7.22S301.54,324.12,301.54,328.11Z"/>
    <path class="cls-16" d="M286,325.55a4.66,4.66,0,1,1-4.66-4.66A4.66,4.66,0,0,1,286,325.55Z"/>
  </g>
  <polygon class="cls-3" points="537.29 467.24 391.63 467.24 391.63 434.55 564.72 434.55 537.29 467.24"/>
  <g>
    <path class="cls-4" d="M415,447h2.49V448H415v.8q0,3.17-3.34,4.53l-.68-.77c2-.67,3.05-1.9,3.05-3.67V448h-2.79l0,2.15h-.93l0-2.15H408V447h2.37l-.05-2.24h.89c.28,0,.3.16.05.42l0,1.82H414v-2.58h.93c.28,0,.29.17,0,.42Z"/>
    <path class="cls-4" d="M419.21,449.57a14.61,14.61,0,0,0,6.72-5.24l.8.68c.23.17.13.29-.29.38a15.19,15.19,0,0,1-2.07,2.15v5.76h-1v-4.95a18.41,18.41,0,0,1-3.46,2.07Z"/>
    <path class="cls-4" d="M433,447c.22.14.19.27-.09.38a14.56,14.56,0,0,1-2.45,4.86l-1-.63a12,12,0,0,0,2.49-5.08Zm3.21-1a16.83,16.83,0,0,1,3,5.63l-1.14.38a15.15,15.15,0,0,0-2.75-5.33Zm2.2-.25-.64.47a8.82,8.82,0,0,0-1.31-1.44l.6-.47A19.72,19.72,0,0,1,438.45,445.81Zm1-.76-.55.51a14.46,14.46,0,0,0-1.35-1.36l.55-.46A17.13,17.13,0,0,1,439.46,445.05Z"/>
    <path class="cls-4" d="M447.33,445.89l.25-.08.47.63c.11.2.05.3-.17.3a22.8,22.8,0,0,1-2.33,2.07v4.44h-1v-3.76a20.49,20.49,0,0,1-3.13,1.69l-.72-.76a15.35,15.35,0,0,0,5.75-3.6l-4.78.22-.12-.93,3-.09v-1.9h.85c.25.06.29.17.12.34V446Zm-.89,3.43.64-.8a13.11,13.11,0,0,1,2.66,1.82l-.72.84A16.15,16.15,0,0,0,446.44,449.32Z"/>
    <path class="cls-4" d="M455.91,448.43h-4.23v-.93h8.67v.93h-3.46V449a5.7,5.7,0,0,1-1.91,4.4l-.84-.63a4.55,4.55,0,0,0,1.77-3.77Zm-2.7-2.58v-.93h5.62v.93Z"/>
    <path class="cls-4" d="M467.54,453.51h-.84v-3.94a17.64,17.64,0,0,1-2.79,1.65l-.6-.72a13,13,0,0,0,5.5-4.27l.72.55c.17.14.11.24-.17.3a13.56,13.56,0,0,1-1.82,1.82Z"/>
    <path class="cls-4" d="M474.35,447.67l.85-.42a9,9,0,0,1,1.06,1.94l-.85.47A11.74,11.74,0,0,0,474.35,447.67Zm5.29,3.81a8.58,8.58,0,0,1-3.22,1.94l-.55-.8a7.4,7.4,0,0,0,3.05-1.74,6,6,0,0,0,1.35-4l.89.29c.25.09.25.2,0,.34A6.52,6.52,0,0,1,479.64,451.48Zm-3.09-4.36.81-.42a8.23,8.23,0,0,1,1.09,1.9l-.88.42A13.05,13.05,0,0,0,476.55,447.12Z"/>
    <path class="cls-4" d="M486.32,453.46l-.76-.8a7.71,7.71,0,0,0,5-5.84h-3.38a11.85,11.85,0,0,1-2,2.59l-.85-.55a9,9,0,0,0,2.83-4.66l1,.34c.17.09.14.17-.09.26a6.34,6.34,0,0,1-.46,1.09h3l.38-.21.76.76c.2.2.16.34-.12.43A8.48,8.48,0,0,1,486.32,453.46Z"/>
    <path class="cls-4" d="M495.79,451.65v.93h-1v-.93Z"/>
    <path class="cls-4" d="M503.57,452a1.9,1.9,0,0,1-1.39.55,2,2,0,0,1-1.48-.55,3.9,3.9,0,0,1-.09-4.61,2.07,2.07,0,0,1,1.53-.64,2,2,0,0,1,1.31.51,3,3,0,0,1,.72,2.41h-3.34c0,.93.16,1.52.5,1.78a1.18,1.18,0,0,0,.85.29,1.06,1.06,0,0,0,.76-.29,1.39,1.39,0,0,0,.3-.89h1A2.47,2.47,0,0,1,503.57,452Zm-.38-3a1.46,1.46,0,0,0-.38-1.22,1,1,0,0,0-.76-.3,1.34,1.34,0,0,0-.8.42,1.77,1.77,0,0,0-.42,1.1Z"/>
    <path class="cls-4" d="M507.93,449.62l1.73,3h-1l-1.23-2.2-1.22,2.2h-1l1.78-3-1.65-2.84h1l1.1,2.12,1.1-2.12h1Z"/>
    <path class="cls-4" d="M514.4,452a1.92,1.92,0,0,1-1.4.55,2,2,0,0,1-1.47-.55,3.86,3.86,0,0,1-.09-4.61,2,2,0,0,1,1.52-.64,2,2,0,0,1,1.31.51,2.93,2.93,0,0,1,.72,2.41h-3.34c0,.93.17,1.52.51,1.78a1.17,1.17,0,0,0,.84.29,1.08,1.08,0,0,0,.77-.29,1.46,1.46,0,0,0,.29-.89h1A2.47,2.47,0,0,1,514.4,452Zm-.38-3a1.46,1.46,0,0,0-.38-1.22,1,1,0,0,0-.76-.3,1.39,1.39,0,0,0-.81.42,1.9,1.9,0,0,0-.42,1.1Z"/>
  </g>
  <path class="cls-33" d="M560.23,292.47c0,8-22.23,14.51-49.66,14.51s-49.65-6.5-49.65-14.51S483.15,278,510.57,278,560.23,284.46,560.23,292.47Z"/>
  <path class="cls-34" d="M560.23,289.14c0,8-22.23,14.51-49.66,14.51s-49.65-6.5-49.65-14.51,22.23-14.52,49.65-14.52S560.23,281.12,560.23,289.14Z"/>
  <g>
    <polygon class="cls-30" points="543.45 181.96 565.54 145.51 565.54 145.51 584.47 145.51 580.04 149.16 566.39 149.16 544.83 184.79 544.83 184.83 520.71 184.83 520.71 181.96 543.45 181.96"/>
    <path class="cls-30" d="M493,238.57a8.48,8.48,0,1,0,8.47-8.47A8.48,8.48,0,0,0,493,238.57Z"/>
    <path class="cls-35" d="M447.49,236.83a10.78,10.78,0,1,0,10.78-10.77A10.78,10.78,0,0,0,447.49,236.83Z"/>
    <path class="cls-15" d="M494.15,237.78c0,1.45,3.29,2.63,7.35,2.63s7.35-1.18,7.35-2.63-3.29-2.62-7.35-2.62S494.15,236.33,494.15,237.78Z"/>
    <path class="cls-35" d="M499.81,237.44a1.7,1.7,0,1,0,1.69-1.69A1.69,1.69,0,0,0,499.81,237.44Z"/>
    <path class="cls-11" d="M514.57,237.89h33.26L528.3,188.16h-9.76l-1.22-8.85h8.24l-7.33-19.53h-7.32l-5.79,14H491.69l-31.12,64.07h27.64c0-7.25,5.87-12.54,13.13-12.54S514.57,230.64,514.57,237.89Z"/>
    <polygon class="cls-11" points="459.06 212.43 465.74 212.44 488.83 165.65 483.49 163.02 459.06 212.43"/>
    <rect class="cls-36" x="461.7" y="195.16" width="39.87" height="12.05" transform="translate(92.29 548.82) rotate(-64.43)"/>
    <rect class="cls-11" x="458.31" y="169.76" width="28.15" height="6.4" transform="translate(109.2 521.05) rotate(-63.89)"/>
    <polygon class="cls-37" points="459.51 152.13 463.31 184.2 475.7 158.92 465.4 148.74 459.51 152.13"/>
    <polygon class="cls-35" points="580.73 167.38 616.37 167.38 629.61 157.51 629.61 154.91 607 154.91 605.17 151.72 580.73 151.72 580.73 167.38"/>
    <polygon class="cls-11" points="553.95 211.18 650.24 211.18 634.91 193.19 538.61 193.19 553.95 211.18"/>
    <polygon class="cls-11" points="540.72 243.71 617.63 243.71 602.29 225.71 525.39 225.71 540.72 243.71"/>
    <polygon points="512.8 202.19 613.46 202.19 596.51 181.96 551.95 181.96 547.83 186.23 506.44 186.23 512.8 202.19"/>
    <polygon class="cls-35" points="505.15 174.55 523.53 174.55 522.16 170.88 506.66 170.88 505.15 174.55"/>
    <polygon class="cls-31" points="523.53 195.33 555.98 195.33 553.23 199.69 560.62 214.22 568.01 206.27 589.05 206.27 601.1 220.79 575.01 220.79 567.73 227.76 541.45 227.76 523.53 195.33"/>
    <polygon class="cls-37" points="486.94 170.46 501.68 170.47 504.21 162.83 483.46 162.82 486.94 170.46"/>
    <polygon class="cls-35" points="598.15 220.55 600.08 220.55 588.69 206.51 586.76 206.51 598.15 220.55"/>
    <path class="cls-11" d="M484.23,260.14h-9.76l-32.59-21.08H488.2c0,7.26,6,12.54,13.23,12.54s13.13-5.28,13.13-12.54H542.2l-31.12,51.16Z"/>
    <polygon class="cls-31" points="530.75 256.09 585.08 256.09 569.75 238.09 515.42 238.09 530.75 256.09"/>
    <line class="cls-9" x1="501.34" y1="225.35" x2="501.34" y2="173.82"/>
    <line class="cls-9" x1="488.2" y1="239.06" x2="474.47" y2="260.14"/>
    <line class="cls-9" x1="568.01" y1="206.27" x2="575.01" y2="220.79"/>
    <line class="cls-9" x1="560.62" y1="214.22" x2="567.73" y2="227.76"/>
    <polygon class="cls-11" points="553.23 199.69 562.17 217.18 590.96 167.16 580.19 152.4 553.23 199.69"/>
  </g>
  <line class="cls-28" x1="455.19" y1="124.65" x2="455.19" y2="95.5"/>
  <line class="cls-28" x1="108.2" y1="130.25" x2="108.2" y2="97.83"/>
  <rect class="cls-4" x="134.73" y="110.43" width="5.77" height="5.51"/>
  <rect class="cls-4" x="144.69" y="110.43" width="5.77" height="5.51"/>
  <rect class="cls-5" x="636.8" y="434.6" width="33.48" height="32.6"/>
  <polygon class="cls-4" points="646.57 460.05 644.14 457.68 660.51 441.74 662.95 444.11 646.57 460.05"/>
  <polygon class="cls-4" points="661.48 460.05 645.1 444.11 647.54 441.74 663.91 457.68 661.48 460.05"/>
</svg>
