<svg id="Capa_1" data-name="Capa 1" xmlns="http://www.w3.org/2000/svg" xmlns:xlink="http://www.w3.org/1999/xlink" width="249.15mm" height="320.76mm" viewBox="0 0 706.25 909.25">
  <defs>
    <style>
      .cls-1, .cls-10, .cls-11, .cls-12, .cls-13, .cls-3, .cls-4, .cls-5, .cls-6, .cls-7, .cls-8, .cls-9 {
        stroke: #fff;
      }

      .cls-1, .cls-11, .cls-13, .cls-14, .cls-15, .cls-6, .cls-7, .cls-9 {
        stroke-miterlimit: 10;
      }

      .cls-2, .cls-3, .cls-7 {
        fill: #fff;
      }

      .cls-10, .cls-12, .cls-3, .cls-4, .cls-5, .cls-8 {
        stroke-linejoin: round;
      }

      .cls-3, .cls-4 {
        stroke-width: 2px;
      }

      .cls-11, .cls-12, .cls-15, .cls-5, .cls-6 {
        fill: none;
      }

      .cls-8, .cls-9 {
        fill: #231f20;
      }

      .cls-11, .cls-12, .cls-13, .cls-14 {
        stroke-width: 0.5px;
      }

      .cls-14 {
        stroke: #231f20;
        fill: url(#linear-gradient);
      }

      .cls-15 {
        stroke: #000;
        stroke-width: 4px;
      }
    </style>
    <linearGradient id="linear-gradient" x1="10787.56" y1="3823.04" x2="10810.31" y2="3845.79" gradientTransform="translate(11153.51 4290.69) rotate(180)" gradientUnits="userSpaceOnUse">
      <stop offset="0" stop-color="#fff"/>
      <stop offset="0.15" stop-color="#e8dc7c"/>
      <stop offset="0.29" stop-color="#da9b35"/>
      <stop offset="0.52" stop-color="#c5433c"/>
      <stop offset="0.73" stop-color="#8d4860"/>
      <stop offset="0.89" stop-color="#3c5173"/>
      <stop offset="0.93" stop-color="#3e5375"/>
      <stop offset="0.95" stop-color="#43597d"/>
      <stop offset="0.97" stop-color="#4c648b"/>
      <stop offset="0.98" stop-color="#58749e"/>
      <stop offset="0.99" stop-color="#5d7aa6"/>
    </linearGradient>
  </defs>
  <rect class="cls-1" width="706.25" height="909.25"/>
  <rect class="cls-2" x="14.96" y="14.13" width="677.65" height="882.51"/>
  <g>
    <polyline class="cls-1" points="353.65 674.66 278.39 715.29 278.22 715.17 278.22 794.21 68.62 794.21 74.07 798.99 282.87 798.99 282.87 718.59 353.65 680.08"/>
    <polygon class="cls-1" points="145.82 871.24 134.92 861.68 318.02 861.68 318.02 464.14 329.49 464.14 329.49 871.24 145.82 871.24"/>
    <path class="cls-1" d="M98.66,849.36a28.8,28.8,0,1,0-28.8,28.8A28.81,28.81,0,0,0,98.66,849.36Z"/>
    <rect class="cls-1" x="28.92" y="681.93" width="117.28" height="9.79"/>
    <rect class="cls-1" x="28.92" y="709.27" width="31.67" height="9.79"/>
    <rect class="cls-1" x="28.92" y="737.97" width="31.67" height="9.79"/>
    <polygon class="cls-1" points="134.92 861.68 134.92 833.54 134.92 833.18 134.92 498.56 163.42 498.56 163.42 833.18 289.52 833.18 289.52 464.26 318.02 464.26 318.02 833.18 318.02 833.54 318.02 861.68 134.92 861.68"/>
    <polygon class="cls-1" points="171.48 504.19 163.42 498.2 163.42 833.18 171.48 833.18 171.48 504.19"/>
    <g>
      <polygon class="cls-1" points="99.74 723.06 281.22 626.49 229.88 626.49 223.25 619.02 68.65 701.6 68.73 701.75 68.65 701.75 68.65 761.06 68.65 792.15 99.74 792.15 134.92 792.15 134.92 761.06 99.74 761.06 99.74 723.06"/>
      <polygon class="cls-1" points="242.56 761.06 171.48 761.06 171.48 792.15 242.56 792.15 278.25 792.15 278.25 761.06 278.25 713.11 289.52 707.08 289.52 669.1 242.56 694.16 242.56 761.06"/>
      <polygon class="cls-1" points="329.49 685.68 353.68 672.6 353.68 634.76 329.49 647.76 329.49 685.68"/>
    </g>
    <polyline class="cls-1" points="353.68 584.74 353.52 584.74 250.36 584.74 159.37 484.05 28.92 484.05 28.92 568.48 28.92 569.45 28.92 666.14 72.16 666.14 72.16 527.85 138.79 527.85 229.88 628.54 353.52 628.54 353.68 628.54"/>
    <polygon points="104.68 726.03 104.68 761.2 99.9 761.2 99.9 723.2 99.91 723.2 99.9 723.18 277.53 628.55 287.53 628.55 104.68 726.03"/>
    <polyline class="cls-1" points="354.01 628.54 353.82 628.54 229.88 628.54 239.4 634.52 353.82 634.52 354.01 634.52"/>
    <polygon class="cls-1" points="255.79 584.42 164.46 484.05 159.37 484.05 250.58 584.42 255.79 584.42"/>
    <polygon class="cls-1" points="77.29 532.97 77.29 671.15 28.92 671.15 28.92 666.14 72.16 666.14 72.16 532.97 72.16 527.85 77.29 527.85 139.28 527.85 143.21 532.97 77.29 532.97"/>
    <rect class="cls-1" x="91.68" y="811.3" width="197.84" height="5.12"/>
    <rect class="cls-3" x="320.14" y="601.77" width="6.33" height="11.58"/>
    <rect class="cls-3" x="302" y="601.77" width="6.33" height="11.58"/>
    <rect class="cls-3" x="283.85" y="601.77" width="6.33" height="11.58"/>
    <line class="cls-4" x1="323.31" y1="613.36" x2="323.31" y2="628.3"/>
    <line class="cls-4" x1="305.16" y1="613.36" x2="305.16" y2="628.3"/>
    <line class="cls-4" x1="287.02" y1="613.36" x2="287.02" y2="629.07"/>
    <rect class="cls-3" x="266.84" y="601.77" width="6.33" height="11.58"/>
    <line class="cls-4" x1="270" y1="613.36" x2="270" y2="629.07"/>
    <rect class="cls-3" x="249.82" y="601.77" width="6.33" height="11.58"/>
    <line class="cls-4" x1="252.99" y1="613.36" x2="252.99" y2="629.07"/>
    <line class="cls-5" x1="28.92" y1="484.04" x2="72.16" y2="527.85"/>
    <line class="cls-5" x1="139.28" y1="527.85" x2="159.37" y2="484.04"/>
    <rect class="cls-1" x="28.92" y="619.02" width="43.25" height="47.12"/>
    <line class="cls-6" x1="68.65" y1="701.75" x2="99.74" y2="723.06"/>
    <line class="cls-6" x1="68.65" y1="792.15" x2="99.74" y2="761.06"/>
    <polyline class="cls-5" points="53.61 509.06 121.11 509.06 137.21 527.85"/>
    <polyline class="cls-5" points="36.11 491.33 36.11 566.25 53.61 585 53.61 619.02"/>
    <line class="cls-5" x1="250.36" y1="584.74" x2="229.88" y2="628.54"/>
    <rect class="cls-1" x="53.61" y="647.03" width="18.55" height="19.11"/>
    <polyline class="cls-5" points="245.1 634.76 193.72 662.98 180.07 660.22 83.59 711.99 83.59 776.61 134.92 776.61"/>
    <line class="cls-6" x1="305.16" y1="464.27" x2="305.16" y2="584.42"/>
    <line class="cls-6" x1="305.16" y1="634.8" x2="305.16" y2="848.82"/>
    <line class="cls-5" x1="147.9" y1="509.06" x2="240.12" y2="606.64"/>
    <line class="cls-5" x1="171.48" y1="776.61" x2="260.06" y2="776.61"/>
    <line class="cls-5" x1="242.56" y1="761.06" x2="277.56" y2="791.42"/>
    <line class="cls-5" x1="242.56" y1="694.16" x2="278.25" y2="713.11"/>
    <polyline class="cls-6" points="260.06 776.61 260.06 703.45 289.52 687.56"/>
    <line class="cls-6" x1="329.49" y1="668.52" x2="354.24" y2="654.45"/>
    <line class="cls-6" x1="289.52" y1="833.18" x2="318.02" y2="861.69"/>
    <rect class="cls-2" x="47.34" y="522.77" width="12.12" height="35.08"/>
    <rect class="cls-2" x="47.34" y="563.13" width="12.12" height="3.7"/>
    <rect class="cls-2" x="34.89" y="625" width="12.12" height="11.8"/>
    <rect class="cls-2" x="34.89" y="638.57" width="12.12" height="1.24"/>
    <rect class="cls-2" x="34.89" y="642.58" width="12.12" height="11.8"/>
    <rect class="cls-2" x="34.89" y="656.16" width="12.12" height="1.24"/>
    <line class="cls-6" x1="147.9" y1="541.29" x2="147.9" y2="660.22"/>
    <line class="cls-6" x1="134.92" y1="861.69" x2="163.42" y2="833.18"/>
    <rect class="cls-1" x="119.9" y="846.23" width="141.4" height="5.12"/>
    <line class="cls-6" x1="149.17" y1="701.75" x2="149.17" y2="811.3"/>
    <g>
      <polyline class="cls-1" points="354.12 674.66 429.38 715.29 429.55 715.17 429.55 794.21 639.15 794.21 633.7 798.99 424.9 798.99 424.9 718.59 354.12 680.08"/>
      <polygon class="cls-1" points="561.95 871.24 572.85 861.68 389.75 861.68 389.75 464.14 378.28 464.14 378.28 871.24 561.95 871.24"/>
      <circle class="cls-1" cx="637.91" cy="849.36" r="28.8" transform="translate(-276.48 308.77) rotate(-22.5)"/>
      <rect class="cls-1" x="561.58" y="681.93" width="117.28" height="9.79"/>
      <rect class="cls-1" x="647.18" y="709.27" width="31.67" height="9.79"/>
      <rect class="cls-1" x="647.18" y="737.97" width="31.67" height="9.79"/>
      <polygon class="cls-1" points="572.85 861.68 572.85 833.54 572.85 833.18 572.85 498.56 544.35 498.56 544.35 833.18 418.25 833.18 418.25 464.26 389.75 464.26 389.75 833.18 389.75 833.54 389.75 861.68 572.85 861.68"/>
      <polygon class="cls-1" points="536.29 504.19 544.35 498.2 544.35 833.18 536.29 833.18 536.29 504.19"/>
      <g>
        <polygon class="cls-1" points="608.03 723.06 426.55 626.49 477.9 626.49 484.52 619.02 639.12 701.6 639.05 701.75 639.12 701.75 639.12 761.06 639.12 792.15 608.03 792.15 572.85 792.15 572.85 761.06 608.03 761.06 608.03 723.06"/>
        <polygon class="cls-1" points="465.21 761.06 536.29 761.06 536.29 792.15 465.21 792.15 429.53 792.15 429.53 761.06 429.53 713.11 418.25 707.08 418.25 669.1 465.21 694.16 465.21 761.06"/>
        <polygon class="cls-1" points="378.28 685.68 354.09 672.6 354.09 634.76 378.28 647.76 378.28 685.68"/>
      </g>
      <polyline class="cls-1" points="354.09 584.74 354.25 584.74 457.41 584.74 548.4 484.05 678.85 484.05 678.85 568.48 678.85 569.45 678.85 666.14 635.61 666.14 635.61 527.85 568.98 527.85 477.9 628.54 354.25 628.54 354.09 628.54"/>
      <polygon points="603.09 726.03 603.09 761.2 607.87 761.2 607.87 723.2 607.86 723.2 607.87 723.18 430.25 628.55 420.24 628.55 603.09 726.03"/>
      <polyline class="cls-1" points="353.76 628.54 353.95 628.54 477.9 628.54 468.37 634.52 353.95 634.52 353.76 634.52"/>
      <polygon class="cls-1" points="451.98 584.42 543.31 484.05 548.4 484.05 457.19 584.42 451.98 584.42"/>
      <polygon class="cls-1" points="630.49 532.97 630.49 671.15 678.85 671.15 678.85 666.14 635.61 666.14 635.61 532.97 635.61 527.85 630.49 527.85 568.49 527.85 564.56 532.97 630.49 532.97"/>
      <rect class="cls-1" x="418.25" y="811.3" width="197.84" height="5.12"/>
      <rect class="cls-3" x="381.3" y="601.77" width="6.33" height="11.58"/>
      <rect class="cls-3" x="399.45" y="601.77" width="6.33" height="11.58"/>
      <rect class="cls-3" x="417.59" y="601.77" width="6.33" height="11.58"/>
      <line class="cls-4" x1="384.47" y1="613.36" x2="384.47" y2="628.3"/>
      <line class="cls-4" x1="402.61" y1="613.36" x2="402.61" y2="628.3"/>
      <line class="cls-4" x1="420.75" y1="613.36" x2="420.75" y2="629.07"/>
      <rect class="cls-3" x="434.6" y="601.77" width="6.33" height="11.58"/>
      <line class="cls-4" x1="437.77" y1="613.36" x2="437.77" y2="629.07"/>
      <rect class="cls-3" x="451.62" y="601.77" width="6.33" height="11.58"/>
      <line class="cls-4" x1="454.78" y1="613.36" x2="454.78" y2="629.07"/>
      <line class="cls-5" x1="678.85" y1="484.04" x2="635.61" y2="527.85"/>
      <line class="cls-5" x1="568.49" y1="527.85" x2="548.4" y2="484.04"/>
      <rect class="cls-1" x="635.61" y="619.02" width="43.24" height="47.12"/>
      <line class="cls-6" x1="639.12" y1="701.75" x2="608.03" y2="723.06"/>
      <line class="cls-6" x1="639.12" y1="792.15" x2="608.03" y2="761.06"/>
      <polyline class="cls-5" points="654.16 509.06 586.66 509.06 570.57 527.85"/>
      <polyline class="cls-5" points="671.66 491.33 671.66 566.25 654.16 585 654.16 619.02"/>
      <line class="cls-5" x1="457.41" y1="584.74" x2="477.9" y2="628.54"/>
      <rect class="cls-1" x="635.61" y="647.03" width="18.55" height="19.11"/>
      <polyline class="cls-5" points="462.67 634.76 514.05 662.98 527.7 660.22 624.18 711.99 624.18 776.61 572.85 776.61"/>
      <line class="cls-6" x1="402.61" y1="464.27" x2="402.61" y2="584.42"/>
      <line class="cls-6" x1="402.61" y1="634.8" x2="402.61" y2="848.82"/>
      <line class="cls-5" x1="559.87" y1="509.06" x2="467.65" y2="606.64"/>
      <line class="cls-5" x1="536.29" y1="776.61" x2="447.71" y2="776.61"/>
      <line class="cls-5" x1="465.21" y1="761.06" x2="430.21" y2="791.42"/>
      <line class="cls-5" x1="465.21" y1="694.16" x2="429.53" y2="713.11"/>
      <polyline class="cls-6" points="447.71 776.61 447.71 703.45 418.25 687.56"/>
      <line class="cls-6" x1="378.28" y1="668.52" x2="353.53" y2="654.45"/>
      <line class="cls-6" x1="418.25" y1="833.18" x2="389.75" y2="861.69"/>
      <rect class="cls-2" x="648.32" y="522.77" width="12.12" height="35.08"/>
      <rect class="cls-2" x="648.32" y="563.13" width="12.12" height="3.7"/>
      <rect class="cls-2" x="660.76" y="625" width="12.12" height="11.8"/>
      <rect class="cls-2" x="660.76" y="638.57" width="12.12" height="1.24"/>
      <rect class="cls-2" x="660.76" y="642.58" width="12.12" height="11.8"/>
      <rect class="cls-2" x="660.76" y="656.16" width="12.12" height="1.24"/>
      <line class="cls-6" x1="559.87" y1="538.79" x2="559.87" y2="660.22"/>
      <line class="cls-6" x1="572.85" y1="861.69" x2="544.35" y2="833.18"/>
      <rect class="cls-1" x="446.47" y="846.23" width="141.4" height="5.12"/>
      <line class="cls-6" x1="558.6" y1="701.75" x2="558.6" y2="811.3"/>
    </g>
  </g>
  <rect class="cls-7" x="296.67" y="748.4" width="3.46" height="54.78"/>
  <rect class="cls-7" x="296.67" y="707.88" width="3.46" height="32.02"/>
  <rect class="cls-7" x="296.67" y="679.43" width="3.46" height="14.13"/>
  <rect class="cls-7" x="296.67" y="659.57" width="3.46" height="8.47"/>
  <rect class="cls-7" x="407.45" y="748.4" width="3.46" height="54.78"/>
  <rect class="cls-7" x="407.45" y="707.88" width="3.46" height="32.02"/>
  <rect class="cls-7" x="407.45" y="679.43" width="3.46" height="14.13"/>
  <rect class="cls-7" x="407.45" y="659.57" width="3.46" height="8.47"/>
  <g>
    <path class="cls-8" d="M47.91,578.25a3.85,3.85,0,1,0-3.85,3.85A3.85,3.85,0,0,0,47.91,578.25Z"/>
    <line class="cls-9" x1="44.8" y1="580.14" x2="43.32" y2="576.36"/>
  </g>
  <g>
    <path class="cls-8" d="M634.68,508.39a3.85,3.85,0,1,0-3.85,3.85A3.85,3.85,0,0,0,634.68,508.39Z"/>
    <line class="cls-9" x1="631.57" y1="510.28" x2="630.09" y2="506.5"/>
  </g>
  <g>
    <path class="cls-8" d="M666.87,579.31a3.85,3.85,0,1,0-3.85,3.85A3.85,3.85,0,0,0,666.87,579.31Z"/>
    <line class="cls-9" x1="663.76" y1="581.2" x2="662.28" y2="577.42"/>
  </g>
  <g>
    <path class="cls-8" d="M648.74,658.23a3.86,3.86,0,1,0-3.85,3.85A3.85,3.85,0,0,0,648.74,658.23Z"/>
    <line class="cls-9" x1="645.63" y1="660.12" x2="644.15" y2="656.34"/>
  </g>
  <g>
    <path class="cls-8" d="M66.74,658.23a3.86,3.86,0,1,0-3.85,3.85A3.85,3.85,0,0,0,66.74,658.23Z"/>
    <line class="cls-9" x1="63.63" y1="660.12" x2="62.15" y2="656.34"/>
  </g>
  <g>
    <path class="cls-8" d="M197.57,644.18a3.86,3.86,0,1,0-3.85,3.85A3.85,3.85,0,0,0,197.57,644.18Z"/>
    <line class="cls-9" x1="194.46" y1="646.07" x2="192.98" y2="642.29"/>
  </g>
  <g>
    <path class="cls-8" d="M91.41,777.28a3.86,3.86,0,1,0-3.85,3.85A3.85,3.85,0,0,0,91.41,777.28Z"/>
    <line class="cls-9" x1="88.3" y1="779.17" x2="86.82" y2="775.39"/>
  </g>
  <g>
    <path class="cls-8" d="M254.22,706.88a3.86,3.86,0,1,0-3.85,3.85A3.85,3.85,0,0,0,254.22,706.88Z"/>
    <line class="cls-9" x1="251.11" y1="708.77" x2="249.63" y2="704.99"/>
  </g>
  <g>
    <path class="cls-8" d="M461.26,705a3.85,3.85,0,1,0-3.85,3.85A3.85,3.85,0,0,0,461.26,705Z"/>
    <line class="cls-9" x1="458.15" y1="706.88" x2="456.67" y2="703.1"/>
  </g>
  <g>
    <path class="cls-8" d="M475.35,768.55a3.85,3.85,0,1,0-3.85,3.85A3.85,3.85,0,0,0,475.35,768.55Z"/>
    <line class="cls-9" x1="472.25" y1="770.44" x2="470.77" y2="766.66"/>
  </g>
  <g>
    <path class="cls-8" d="M239.91,768.55a3.85,3.85,0,1,0-3.85,3.85A3.85,3.85,0,0,0,239.91,768.55Z"/>
    <line class="cls-9" x1="236.8" y1="770.44" x2="235.32" y2="766.66"/>
  </g>
  <g>
    <path class="cls-8" d="M636.35,719.06a3.85,3.85,0,1,0-3.85,3.85A3.85,3.85,0,0,0,636.35,719.06Z"/>
    <line class="cls-9" x1="633.24" y1="720.95" x2="631.76" y2="717.17"/>
  </g>
  <g>
    <path class="cls-8" d="M517.91,644.18a3.86,3.86,0,1,0-3.85,3.85A3.85,3.85,0,0,0,517.91,644.18Z"/>
    <line class="cls-9" x1="514.8" y1="646.07" x2="513.32" y2="642.29"/>
  </g>
  <line class="cls-6" x1="149.17" y1="808.3" x2="149.17" y2="838.1"/>
  <g>
    <polyline class="cls-1" points="353.65 239.34 278.39 198.7 278.22 198.82 278.22 119.78 68.62 119.78 74.07 115 282.87 115 282.87 195.41 353.65 233.92"/>
    <polygon class="cls-1" points="145.82 42.75 134.92 52.31 318.02 52.31 318.02 449.85 329.49 449.85 329.49 42.75 145.82 42.75"/>
    <path class="cls-1" d="M98.66,64.63a28.8,28.8,0,1,1-28.8-28.8A28.81,28.81,0,0,1,98.66,64.63Z"/>
    <rect class="cls-1" x="28.92" y="222.28" width="117.28" height="9.79"/>
    <rect class="cls-1" x="28.92" y="194.93" width="31.67" height="9.79"/>
    <rect class="cls-1" x="28.92" y="166.23" width="31.67" height="9.79"/>
    <polygon class="cls-1" points="134.92 52.31 134.92 80.45 134.92 80.81 134.92 415.44 163.42 415.44 163.42 80.81 289.52 80.81 289.52 449.73 318.02 449.73 318.02 80.81 318.02 80.45 318.02 52.31 134.92 52.31"/>
    <polygon class="cls-1" points="171.48 409.8 163.42 415.8 163.42 80.81 171.48 80.81 171.48 409.8"/>
    <g>
      <polygon class="cls-1" points="99.74 190.93 281.22 287.5 229.88 287.5 223.25 294.97 68.65 212.39 68.73 212.24 68.65 212.24 68.65 152.93 68.65 121.84 99.74 121.84 134.92 121.84 134.92 152.93 99.74 152.93 99.74 190.93"/>
      <polygon class="cls-1" points="242.56 152.93 171.48 152.93 171.48 121.84 242.56 121.84 278.25 121.84 278.25 152.93 278.25 200.88 289.52 206.92 289.52 244.9 242.56 219.83 242.56 152.93"/>
      <polygon class="cls-1" points="329.49 228.32 353.68 241.39 353.68 279.24 329.49 266.23 329.49 228.32"/>
    </g>
    <polyline class="cls-1" points="353.68 329.25 353.52 329.25 250.36 329.25 159.37 429.95 28.92 429.95 28.92 345.52 28.92 344.54 28.92 247.85 72.16 247.85 72.16 386.14 138.79 386.14 229.88 285.45 353.52 285.45 353.68 285.45"/>
    <polygon points="104.68 187.96 104.68 152.79 99.9 152.79 99.9 190.79 99.91 190.79 99.9 190.81 277.53 285.44 287.53 285.44 104.68 187.96"/>
    <polyline class="cls-1" points="354.01 285.45 353.82 285.45 229.88 285.45 239.4 279.48 353.82 279.48 354.01 279.48"/>
    <polygon class="cls-1" points="255.79 329.57 164.46 429.95 159.37 429.95 250.58 329.57 255.79 329.57"/>
    <polygon class="cls-1" points="77.29 381.02 77.29 242.84 28.92 242.84 28.92 247.85 72.16 247.85 72.16 381.02 72.16 386.14 77.29 386.14 139.28 386.14 143.21 381.02 77.29 381.02"/>
    <rect class="cls-1" x="91.68" y="97.57" width="197.84" height="5.12"/>
    <rect class="cls-3" x="320.14" y="300.64" width="6.33" height="11.58"/>
    <rect class="cls-3" x="302" y="300.64" width="6.33" height="11.58"/>
    <rect class="cls-3" x="283.85" y="300.64" width="6.33" height="11.58"/>
    <line class="cls-4" x1="323.31" y1="300.64" x2="323.31" y2="285.69"/>
    <line class="cls-4" x1="305.16" y1="300.64" x2="305.16" y2="285.69"/>
    <line class="cls-4" x1="287.02" y1="300.64" x2="287.02" y2="284.92"/>
    <rect class="cls-3" x="266.84" y="300.64" width="6.33" height="11.58"/>
    <line class="cls-4" x1="270" y1="300.64" x2="270" y2="284.92"/>
    <rect class="cls-3" x="249.82" y="300.64" width="6.33" height="11.58"/>
    <line class="cls-4" x1="252.99" y1="300.64" x2="252.99" y2="284.92"/>
    <line class="cls-5" x1="28.92" y1="429.95" x2="72.16" y2="386.14"/>
    <line class="cls-5" x1="139.28" y1="386.14" x2="159.37" y2="429.95"/>
    <rect class="cls-1" x="28.92" y="247.85" width="43.25" height="47.12"/>
    <line class="cls-6" x1="68.65" y1="212.24" x2="99.74" y2="190.93"/>
    <line class="cls-6" x1="68.65" y1="121.84" x2="99.74" y2="152.93"/>
    <polyline class="cls-5" points="53.61 404.93 121.11 404.93 137.21 386.14"/>
    <polyline class="cls-5" points="36.11 422.66 36.11 347.74 53.61 328.99 53.61 294.97"/>
    <line class="cls-5" x1="250.36" y1="329.25" x2="229.88" y2="285.45"/>
    <rect class="cls-1" x="53.61" y="247.85" width="18.55" height="19.11"/>
    <polyline class="cls-5" points="245.1 279.24 193.72 251.02 180.07 253.78 83.59 202 83.59 137.39 134.92 137.39"/>
    <line class="cls-6" x1="305.16" y1="449.73" x2="305.16" y2="329.57"/>
    <line class="cls-6" x1="305.16" y1="279.19" x2="305.16" y2="65.17"/>
    <line class="cls-5" x1="147.9" y1="404.93" x2="240.12" y2="307.35"/>
    <line class="cls-5" x1="171.48" y1="137.39" x2="260.06" y2="137.39"/>
    <line class="cls-5" x1="242.56" y1="152.93" x2="277.56" y2="122.57"/>
    <line class="cls-5" x1="242.56" y1="219.83" x2="278.25" y2="200.88"/>
    <polyline class="cls-6" points="260.06 137.39 260.06 210.54 289.52 226.43"/>
    <line class="cls-6" x1="329.49" y1="245.47" x2="354.24" y2="259.54"/>
    <line class="cls-6" x1="289.52" y1="80.81" x2="318.02" y2="52.31"/>
    <rect class="cls-2" x="47.34" y="356.14" width="12.12" height="35.09"/>
    <rect class="cls-2" x="47.34" y="347.17" width="12.12" height="3.69"/>
    <rect class="cls-2" x="34.89" y="277.2" width="12.12" height="11.8"/>
    <rect class="cls-2" x="34.89" y="274.18" width="12.12" height="1.24"/>
    <rect class="cls-2" x="34.89" y="259.61" width="12.12" height="11.8"/>
    <rect class="cls-2" x="34.89" y="256.59" width="12.12" height="1.24"/>
    <line class="cls-6" x1="147.9" y1="376.07" x2="147.9" y2="253.78"/>
    <line class="cls-6" x1="134.92" y1="52.31" x2="163.42" y2="80.81"/>
    <rect class="cls-1" x="119.9" y="62.64" width="141.4" height="5.12"/>
    <line class="cls-6" x1="149.17" y1="212.24" x2="149.17" y2="102.69"/>
    <g>
      <polyline class="cls-1" points="354.12 239.34 429.38 198.7 429.55 198.82 429.55 119.78 639.15 119.78 633.7 115 424.9 115 424.9 195.41 354.12 233.92"/>
      <polygon class="cls-1" points="561.95 42.75 572.85 52.31 389.75 52.31 389.75 449.85 378.28 449.85 378.28 42.75 561.95 42.75"/>
      <path class="cls-1" d="M609.11,64.63a28.8,28.8,0,1,0,28.8-28.8A28.81,28.81,0,0,0,609.11,64.63Z"/>
      <rect class="cls-1" x="561.58" y="222.28" width="117.28" height="9.79"/>
      <rect class="cls-1" x="647.18" y="194.93" width="31.67" height="9.79"/>
      <rect class="cls-1" x="647.18" y="166.23" width="31.67" height="9.79"/>
      <polygon class="cls-1" points="572.85 52.31 572.85 80.45 572.85 80.81 572.85 415.44 544.35 415.44 544.35 80.81 418.25 80.81 418.25 449.73 389.75 449.73 389.75 80.81 389.75 80.45 389.75 52.31 572.85 52.31"/>
      <polygon class="cls-1" points="536.29 409.8 544.35 415.8 544.35 80.81 536.29 80.81 536.29 409.8"/>
      <g>
        <polygon class="cls-1" points="608.03 190.93 426.55 287.5 477.9 287.5 484.52 294.97 639.12 212.39 639.05 212.24 639.12 212.24 639.12 152.93 639.12 121.84 608.03 121.84 572.85 121.84 572.85 152.93 608.03 152.93 608.03 190.93"/>
        <polygon class="cls-1" points="465.21 152.93 536.29 152.93 536.29 121.84 465.21 121.84 429.53 121.84 429.53 152.93 429.53 200.88 418.25 206.92 418.25 244.9 465.21 219.83 465.21 152.93"/>
        <polygon class="cls-1" points="378.28 228.32 354.09 241.39 354.09 279.24 378.28 266.23 378.28 228.32"/>
      </g>
      <polyline class="cls-1" points="354.09 329.25 354.25 329.25 457.41 329.25 548.4 429.95 678.85 429.95 678.85 345.52 678.85 344.54 678.85 247.85 635.61 247.85 635.61 386.14 568.98 386.14 477.9 285.45 354.25 285.45 354.09 285.45"/>
      <polygon points="603.09 187.96 603.09 152.79 607.87 152.79 607.87 190.79 607.86 190.79 607.87 190.81 430.25 285.44 420.24 285.44 603.09 187.96"/>
      <polyline class="cls-1" points="353.76 285.45 353.95 285.45 477.9 285.45 468.37 279.48 353.95 279.48 353.76 279.48"/>
      <polygon class="cls-1" points="451.98 329.57 543.31 429.95 548.4 429.95 457.19 329.57 451.98 329.57"/>
      <polygon class="cls-1" points="630.49 381.02 630.49 242.84 678.85 242.84 678.85 247.85 635.61 247.85 635.61 381.02 635.61 386.14 630.49 386.14 568.49 386.14 564.56 381.02 630.49 381.02"/>
      <rect class="cls-1" x="418.25" y="97.57" width="197.84" height="5.12"/>
      <rect class="cls-3" x="381.3" y="300.64" width="6.33" height="11.58"/>
      <rect class="cls-3" x="399.45" y="300.64" width="6.33" height="11.58"/>
      <rect class="cls-3" x="417.59" y="300.64" width="6.33" height="11.58"/>
      <line class="cls-4" x1="384.47" y1="300.64" x2="384.47" y2="285.69"/>
      <line class="cls-4" x1="402.61" y1="300.64" x2="402.61" y2="285.69"/>
      <line class="cls-4" x1="420.75" y1="300.64" x2="420.75" y2="284.92"/>
      <rect class="cls-3" x="434.6" y="300.64" width="6.33" height="11.58"/>
      <line class="cls-4" x1="437.77" y1="300.64" x2="437.77" y2="284.92"/>
      <rect class="cls-3" x="451.62" y="300.64" width="6.33" height="11.58"/>
      <line class="cls-4" x1="454.78" y1="300.64" x2="454.78" y2="284.92"/>
      <line class="cls-5" x1="678.85" y1="429.95" x2="635.61" y2="386.14"/>
      <line class="cls-5" x1="568.49" y1="386.14" x2="548.4" y2="429.95"/>
      <rect class="cls-1" x="635.61" y="247.85" width="43.24" height="47.12"/>
      <line class="cls-6" x1="639.12" y1="212.24" x2="608.03" y2="190.93"/>
      <line class="cls-6" x1="639.12" y1="121.84" x2="608.03" y2="152.93"/>
      <polyline class="cls-5" points="654.16 404.93 586.66 404.93 570.57 386.14"/>
      <polyline class="cls-5" points="671.66 422.66 671.66 347.74 654.16 328.99 654.16 294.97"/>
      <line class="cls-5" x1="457.41" y1="329.25" x2="477.9" y2="285.45"/>
      <rect class="cls-1" x="635.61" y="247.85" width="18.55" height="19.11"/>
      <polyline class="cls-5" points="462.67 279.24 514.05 251.02 527.7 253.78 624.18 202 624.18 137.39 572.85 137.39"/>
      <line class="cls-6" x1="402.61" y1="449.73" x2="402.61" y2="329.57"/>
      <line class="cls-6" x1="402.61" y1="279.19" x2="402.61" y2="65.17"/>
      <line class="cls-5" x1="559.87" y1="404.93" x2="467.65" y2="307.35"/>
      <line class="cls-5" x1="536.29" y1="137.39" x2="447.71" y2="137.39"/>
      <line class="cls-5" x1="465.21" y1="152.93" x2="430.21" y2="122.57"/>
      <line class="cls-5" x1="465.21" y1="219.83" x2="429.53" y2="200.88"/>
      <polyline class="cls-6" points="447.71 137.39 447.71 210.54 418.25 226.43"/>
      <line class="cls-6" x1="378.28" y1="245.47" x2="353.53" y2="259.54"/>
      <line class="cls-6" x1="418.25" y1="80.81" x2="389.75" y2="52.31"/>
      <rect class="cls-2" x="648.32" y="356.14" width="12.12" height="35.09"/>
      <rect class="cls-2" x="648.32" y="347.17" width="12.12" height="3.69"/>
      <rect class="cls-2" x="660.76" y="277.2" width="12.12" height="11.8"/>
      <rect class="cls-2" x="660.76" y="274.18" width="12.12" height="1.24"/>
      <rect class="cls-2" x="660.76" y="259.61" width="12.12" height="11.8"/>
      <rect class="cls-2" x="660.76" y="256.59" width="12.12" height="1.24"/>
      <line class="cls-6" x1="559.87" y1="373.68" x2="559.87" y2="253.78"/>
      <line class="cls-6" x1="572.85" y1="52.31" x2="544.35" y2="80.81"/>
      <rect class="cls-1" x="446.47" y="62.64" width="141.4" height="5.12"/>
      <line class="cls-6" x1="558.6" y1="212.24" x2="558.6" y2="102.69"/>
    </g>
  </g>
  <rect class="cls-7" x="296.67" y="111.72" width="3.46" height="54.78"/>
  <rect class="cls-7" x="296.67" y="174.99" width="3.46" height="32.02"/>
  <rect class="cls-7" x="296.67" y="221.33" width="3.46" height="14.13"/>
  <rect class="cls-7" x="296.67" y="246.86" width="3.46" height="8.47"/>
  <rect class="cls-7" x="407.45" y="111.72" width="3.46" height="54.78"/>
  <rect class="cls-7" x="407.45" y="174.99" width="3.46" height="32.02"/>
  <rect class="cls-7" x="407.45" y="221.33" width="3.46" height="14.13"/>
  <rect class="cls-7" x="407.45" y="246.86" width="3.46" height="8.47"/>
  <g>
    <path class="cls-8" d="M47.91,336.64a3.85,3.85,0,1,1-3.85-3.85A3.85,3.85,0,0,1,47.91,336.64Z"/>
    <line class="cls-9" x1="44.8" y1="334.75" x2="43.32" y2="338.53"/>
  </g>
  <g>
    <path class="cls-8" d="M147,495.9a3.86,3.86,0,1,1-3.86-3.85A3.85,3.85,0,0,1,147,495.9Z"/>
    <line class="cls-9" x1="143.88" y1="494.01" x2="142.4" y2="497.79"/>
  </g>
  <g>
    <path class="cls-8" d="M147,417a3.86,3.86,0,1,1-3.86-3.85A3.85,3.85,0,0,1,147,417Z"/>
    <line class="cls-9" x1="143.88" y1="415.11" x2="142.4" y2="418.89"/>
  </g>
  <g>
    <path class="cls-8" d="M571,419.15a3.85,3.85,0,1,1-3.85-3.85A3.85,3.85,0,0,1,571,419.15Z"/>
    <line class="cls-9" x1="567.85" y1="417.26" x2="566.37" y2="421.04"/>
  </g>
  <g>
    <path class="cls-8" d="M571,494.66a3.85,3.85,0,1,1-3.85-3.85A3.85,3.85,0,0,1,571,494.66Z"/>
    <line class="cls-9" x1="567.85" y1="492.77" x2="566.37" y2="496.55"/>
  </g>
  <g>
    <path class="cls-8" d="M634.68,404.7a3.85,3.85,0,1,1-3.85-3.85A3.86,3.86,0,0,1,634.68,404.7Z"/>
    <line class="cls-9" x1="631.57" y1="402.81" x2="630.09" y2="406.59"/>
  </g>
  <g>
    <path class="cls-8" d="M666.87,338.9a3.85,3.85,0,1,1-3.85-3.85A3.85,3.85,0,0,1,666.87,338.9Z"/>
    <line class="cls-9" x1="663.76" y1="337.01" x2="662.28" y2="340.79"/>
  </g>
  <g>
    <path class="cls-8" d="M648.74,266.86a3.86,3.86,0,1,1-3.85-3.85A3.85,3.85,0,0,1,648.74,266.86Z"/>
    <line class="cls-9" x1="645.63" y1="264.97" x2="644.15" y2="268.75"/>
  </g>
  <g>
    <path class="cls-8" d="M197.57,270.72a3.86,3.86,0,1,1-3.85-3.86A3.85,3.85,0,0,1,197.57,270.72Z"/>
    <line class="cls-9" x1="194.46" y1="268.82" x2="192.98" y2="272.6"/>
  </g>
  <g>
    <path class="cls-8" d="M91.41,137.62a3.86,3.86,0,1,1-3.85-3.85A3.86,3.86,0,0,1,91.41,137.62Z"/>
    <line class="cls-9" x1="88.3" y1="135.73" x2="86.82" y2="139.51"/>
  </g>
  <g>
    <path class="cls-8" d="M254.22,206.06a3.86,3.86,0,1,1-3.85-3.85A3.86,3.86,0,0,1,254.22,206.06Z"/>
    <line class="cls-9" x1="251.11" y1="204.17" x2="249.63" y2="207.95"/>
  </g>
  <g>
    <path class="cls-8" d="M344.7,261.21a3.86,3.86,0,1,1-3.85-3.85A3.85,3.85,0,0,1,344.7,261.21Z"/>
    <line class="cls-9" x1="341.59" y1="259.32" x2="340.11" y2="263.1"/>
  </g>
  <g>
    <path class="cls-8" d="M371.43,261.21a3.86,3.86,0,1,1-3.85-3.85A3.85,3.85,0,0,1,371.43,261.21Z"/>
    <line class="cls-9" x1="368.32" y1="259.32" x2="366.84" y2="263.1"/>
  </g>
  <g>
    <path class="cls-8" d="M461.26,205.4a3.85,3.85,0,1,1-3.85-3.86A3.85,3.85,0,0,1,461.26,205.4Z"/>
    <line class="cls-9" x1="458.15" y1="203.5" x2="456.67" y2="207.28"/>
  </g>
  <g>
    <path class="cls-8" d="M456.55,129.61a3.85,3.85,0,1,1-3.85-3.85A3.85,3.85,0,0,1,456.55,129.61Z"/>
    <line class="cls-9" x1="453.44" y1="127.72" x2="451.96" y2="131.5"/>
  </g>
  <g>
    <path class="cls-8" d="M260,129.61a3.85,3.85,0,1,1-3.85-3.85A3.85,3.85,0,0,1,260,129.61Z"/>
    <line class="cls-9" x1="256.89" y1="127.72" x2="255.41" y2="131.5"/>
  </g>
  <g>
    <path class="cls-8" d="M635.61,206.06a3.85,3.85,0,1,1-3.85-3.85A3.86,3.86,0,0,1,635.61,206.06Z"/>
    <line class="cls-9" x1="632.5" y1="204.17" x2="631.02" y2="207.95"/>
  </g>
  <g>
    <path class="cls-8" d="M512.49,268.91a3.85,3.85,0,1,1-3.85-3.85A3.85,3.85,0,0,1,512.49,268.91Z"/>
    <line class="cls-9" x1="509.38" y1="267.02" x2="507.9" y2="270.8"/>
  </g>
  <line class="cls-6" x1="149.17" y1="106.6" x2="149.17" y2="76.79"/>
  <g>
    <polygon class="cls-10" points="533.2 456.64 353.51 581.13 173.7 456.64 353.15 332.33 533.2 456.64"/>
    <polygon class="cls-11" points="201.02 456.67 352.72 350.56 505.97 456.63 507.53 456.63 352.66 562.61 201.02 456.67"/>
    <polygon class="cls-12" points="437.13 456.12 353.96 514.52 270.79 456.12 270.79 456.12 353.96 397.72 437.13 456.12 437.13 456.12"/>
    <polygon class="cls-11" points="250.99 425.61 254.53 425.61 254.53 430.52 238.42 430.52 231.87 435.08 254.53 435.08 258.28 435.08 258.28 430.52 258.28 425.61 258.28 421.53 254.53 421.53 250.99 421.53 250.99 425.61"/>
    <path class="cls-11" d="M244.46,421.49a2.08,2.08,0,1,1-2.08,2.08A2.08,2.08,0,0,1,244.46,421.49Z"/>
    <path class="cls-11" d="M256.53,478.39a3.55,3.55,0,1,1-3.55,3.55A3.54,3.54,0,0,1,256.53,478.39Z"/>
    <path class="cls-11" d="M278.06,413.88A2.08,2.08,0,1,1,276,416,2.08,2.08,0,0,1,278.06,413.88Z"/>
    <path class="cls-11" d="M301.78,406.78a2.08,2.08,0,1,1-2.08,2.08A2.08,2.08,0,0,1,301.78,406.78Z"/>
    <path class="cls-11" d="M301.78,422.82a2.09,2.09,0,1,1-2.08,2.09A2.09,2.09,0,0,1,301.78,422.82Z"/>
    <path class="cls-11" d="M347.4,364.92a2.08,2.08,0,1,1-2.08,2.08A2.08,2.08,0,0,1,347.4,364.92Z"/>
    <path class="cls-11" d="M349.43,411a.92.92,0,0,1,0,1.83.92.92,0,1,1,0-1.83Z"/>
    <path class="cls-11" d="M353.45,421.85a.91.91,0,1,1-.91.91A.91.91,0,0,1,353.45,421.85Z"/>
    <path class="cls-11" d="M349.43,403.44a.91.91,0,1,1,0,1.82.91.91,0,1,1,0-1.82Z"/>
    <path class="cls-11" d="M389,412.67a2.87,2.87,0,1,1-2.86,2.86A2.87,2.87,0,0,1,389,412.67Z"/>
    <path class="cls-11" d="M405.81,406.7a2.08,2.08,0,1,1-2.08,2.09A2.1,2.1,0,0,1,405.81,406.7Z"/>
    <path class="cls-11" d="M419,406.7a2.08,2.08,0,1,1-2.08,2.09A2.09,2.09,0,0,1,419,406.7Z"/>
    <path class="cls-11" d="M440.74,433.53a2.08,2.08,0,1,1-2.08,2.08A2.08,2.08,0,0,1,440.74,433.53Z"/>
    <path class="cls-11" d="M440.74,427.59a2.08,2.08,0,1,1-2.08,2.08A2.08,2.08,0,0,1,440.74,427.59Z"/>
    <path class="cls-11" d="M440.74,421.35a2.08,2.08,0,1,1-2.08,2.08A2.08,2.08,0,0,1,440.74,421.35Z"/>
    <path class="cls-11" d="M474.26,445.41a2.08,2.08,0,1,1,2.08,2.08A2.08,2.08,0,0,1,474.26,445.41Z"/>
    <path class="cls-11" d="M468.32,445.41a2.08,2.08,0,1,1,2.08,2.08A2.08,2.08,0,0,1,468.32,445.41Z"/>
    <path class="cls-11" d="M462.09,445.41a2.08,2.08,0,1,1,2.08,2.08A2.08,2.08,0,0,1,462.09,445.41Z"/>
    <path class="cls-11" d="M347.4,358.38a2.08,2.08,0,1,1-2.08,2.08A2.08,2.08,0,0,1,347.4,358.38Z"/>
    <path class="cls-11" d="M291.55,406.78a2.08,2.08,0,1,1-2.08,2.08A2.08,2.08,0,0,1,291.55,406.78Z"/>
    <path class="cls-11" d="M313.06,380.91a1.12,1.12,0,1,1-1.12,1.11A1.11,1.11,0,0,1,313.06,380.91Z"/>
    <polygon class="cls-11" points="231.94 478.34 242.45 485.29 250.91 485.29 250.91 478.34 231.94 478.34"/>
    <rect class="cls-11" x="257.94" y="439.36" width="6.93" height="6.95"/>
    <rect class="cls-11" x="270.93" y="439.36" width="13.56" height="6.95"/>
    <rect class="cls-11" x="284.49" y="413.78" width="17.14" height="4.36"/>
    <rect class="cls-11" x="304.07" y="413.78" width="4.55" height="4.36"/>
    <path class="cls-11" d="M284.81,499.39a2.08,2.08,0,1,0-2.08-2.08A2.08,2.08,0,0,0,284.81,499.39Z"/>
    <path class="cls-11" d="M300.09,497.31a2.08,2.08,0,1,0-2.08-2.08A2.08,2.08,0,0,0,300.09,497.31Z"/>
    <path class="cls-11" d="M349.68,543.79a2.5,2.5,0,1,0-2.51-2.5A2.5,2.5,0,0,0,349.68,543.79Z"/>
    <path class="cls-11" d="M370.74,542.76a2.51,2.51,0,1,0-2.51-2.51A2.51,2.51,0,0,0,370.74,542.76Z"/>
    <path class="cls-11" d="M370.74,531.47a2.5,2.5,0,1,0-2.51-2.5A2.5,2.5,0,0,0,370.74,531.47Z"/>
    <path class="cls-11" d="M370.74,520a2.51,2.51,0,1,0-2.51-2.5A2.5,2.5,0,0,0,370.74,520Z"/>
    <path class="cls-11" d="M396,531.44a2.51,2.51,0,1,0-2.5-2.5A2.5,2.5,0,0,0,396,531.44Z"/>
    <path class="cls-11" d="M419.05,485.59a2.51,2.51,0,1,0-2.5-2.51A2.51,2.51,0,0,0,419.05,485.59Z"/>
    <path class="cls-11" d="M427.33,485.59a2.51,2.51,0,1,0-2.51-2.51A2.51,2.51,0,0,0,427.33,485.59Z"/>
    <path class="cls-11" d="M435.91,485.59a2.51,2.51,0,1,0-2.51-2.51A2.51,2.51,0,0,0,435.91,485.59Z"/>
    <path class="cls-11" d="M460.34,476.72a2.51,2.51,0,1,0-2.5-2.51A2.51,2.51,0,0,0,460.34,476.72Z"/>
    <path class="cls-11" d="M468.62,476.72a2.51,2.51,0,1,0-2.5-2.51A2.51,2.51,0,0,0,468.62,476.72Z"/>
    <path class="cls-11" d="M477.19,476.72a2.51,2.51,0,1,0-2.5-2.51A2.51,2.51,0,0,0,477.19,476.72Z"/>
    <path class="cls-11" d="M349.68,554.17a2.51,2.51,0,1,0-2.51-2.5A2.51,2.51,0,0,0,349.68,554.17Z"/>
    <polygon class="cls-11" points="271.83 506.19 271.83 494.66 262.91 494.66 262.91 500.03 271.83 506.19"/>
    <polygon class="cls-11" points="286.99 500.51 282.63 500.51 282.63 513.68 286.99 516.59 286.99 500.51"/>
    <polygon class="cls-11" points="303.86 500.51 296.32 500.51 296.32 523.29 303.86 528.32 303.86 500.51"/>
    <rect class="cls-11" x="296.32" y="493.37" width="7.54" height="5.05"/>
    <polygon class="cls-11" points="316.34 511.3 308.8 511.3 308.8 531.88 316.34 537.01 316.34 511.3"/>
    <polygon class="cls-11" points="344.16 536.91 339.07 536.91 339.07 552.85 344.16 556.15 344.16 536.91"/>
    <rect class="cls-11" x="356.87" y="515.05" width="3.56" height="10.69"/>
    <rect class="cls-11" x="356.87" y="539.83" width="3.56" height="2.92"/>
    <rect class="cls-11" x="356.87" y="545.11" width="3.56" height="8.75"/>
    <rect class="cls-11" x="362.53" y="515.05" width="3.56" height="21.85"/>
    <polygon class="cls-11" points="379.46 527.31 375.89 527.31 375.89 546.94 379.46 544.32 379.46 527.31"/>
    <polygon class="cls-11" points="388.58 490.21 385.02 492.49 385.02 507.6 388.58 507.6 388.58 490.21"/>
    <rect class="cls-11" x="385.02" y="508.69" width="3.56" height="3.8"/>
    <polygon class="cls-11" points="431.9 508.44 437.01 504.88 421.84 504.88 421.84 508.44 431.9 508.44"/>
    <polygon class="cls-11" points="466.12 484.86 471.36 481.3 452.98 481.3 452.98 484.86 466.12 484.86"/>
    <polygon class="cls-11" points="443.35 500.71 451.01 495.37 439.19 495.37 439.19 500.71 443.35 500.71"/>
    <rect class="cls-11" x="421.84" y="498.93" width="14.07" height="3.56"/>
    <rect class="cls-11" x="421.84" y="495.37" width="14.07" height="3.56"/>
    <polygon class="cls-11" points="466.25 456.27 462.69 456.27 462.69 465.28 443.35 465.28 439.79 465.28 439.68 465.28 439.68 468.84 439.79 468.84 439.79 488.34 420.11 488.34 416.55 488.34 416.55 488.34 416.55 511.39 416.55 514.96 420.11 514.96 422.47 514.96 427.58 511.39 420.11 511.39 420.11 491.9 439.79 491.9 443.12 491.9 443.35 491.9 443.35 468.84 462.69 468.84 466.25 468.84 470.7 468.84 474.26 468.84 474.26 465.28 474.26 456.27 470.7 456.27 470.7 465.28 466.25 465.28 466.25 456.27"/>
    <polygon class="cls-11" points="484.49 456.27 484.49 463.5 484.49 463.5 484.49 468.66 484.49 468.66 484.49 468.66 487.09 468.66 487.09 468.66 490.19 468.66 497.49 463.5 487.09 463.5 487.09 456.27 484.49 456.27"/>
    <rect class="cls-11" x="411.25" y="494.66" width="3.56" height="19.03"/>
    <rect class="cls-11" x="411.25" y="488.34" width="3.56" height="4.24"/>
    <polygon class="cls-11" points="398.33 485.51 393.5 487.21 393.5 510.49 393.5 514.47 398.33 514.47 403.55 514.47 403.55 528.01 407.52 524.96 407.52 514.47 407.52 510.49 403.55 510.49 398.33 510.49 398.33 485.51"/>
    <polygon class="cls-11" points="340.97 527.5 333.51 527.5 328.42 527.5 328.42 527.5 328.42 545.51 333.51 549.16 333.51 532.6 340.97 532.6 346.06 532.6 346.06 527.5 346.06 484.8 340.97 483.15 340.97 527.5"/>
    <rect class="cls-11" x="326.08" y="502.42" width="4.89" height="18.79"/>
    <rect class="cls-11" x="330.97" y="502.42" width="4.89" height="18.79"/>
    <rect class="cls-11" x="330.97" y="522.9" width="4.89" height="2.02"/>
    <rect class="cls-11" x="308.8" y="499.27" width="7.54" height="7.69"/>
    <rect class="cls-11" x="308.8" y="488.06" width="7.54" height="7.69"/>
    <polygon class="cls-11" points="312.57 388.78 312.57 393.14 291.95 393.14 298.17 388.78 312.57 388.78"/>
    <polygon class="cls-11" points="309.56 382.46 309.56 386.81 300.89 386.81 307.25 382.46 309.56 382.46"/>
    <rect class="cls-11" x="396.99" y="412.08" width="9.4" height="6.33"/>
    <polygon class="cls-11" points="409.97 418.41 425.21 418.41 425.21 437.34 430.45 437.34 430.45 418.41 431.55 418.41 451.6 418.41 442.25 412.08 431.55 412.08 430.45 412.08 425.24 412.08 425.21 412.08 409.97 412.08 409.97 418.41"/>
    <polygon class="cls-11" points="415.41 393.95 426.68 401.75 411.25 401.75 411.25 393.95 415.41 393.95"/>
    <rect class="cls-11" x="406.44" y="393.95" width="2.47" height="7.8"/>
    <polygon class="cls-11" points="319.42 374.36 319.42 390.96 316.74 390.96 316.74 376.17 319.42 374.36"/>
    <rect class="cls-11" x="326.48" y="404.66" width="4.48" height="4.82"/>
    <rect class="cls-11" x="333.31" y="382.22" width="5.64" height="4.82"/>
    <polygon class="cls-11" points="338.95 360.35 338.95 380.77 333.31 380.77 333.31 364.4 338.95 360.35"/>
    <rect class="cls-11" x="373.37" y="394.22" width="10.99" height="2.86"/>
    <rect class="cls-11" x="373.37" y="391.36" width="10.99" height="2.86"/>
    <polygon class="cls-11" points="398.04 381.48 403.92 385.73 386.98 385.73 386.98 381.48 398.04 381.48"/>
    <polygon class="cls-11" points="458.49 440 458.49 435.74 475.75 435.74 481.49 440 458.49 440"/>
    <rect class="cls-11" x="452.83" y="435.74" width="3" height="4.25"/>
    <polygon class="cls-11" points="493.19 458.71 493.19 454.45 503.08 454.45 506.53 456.65 503.45 458.71 493.19 458.71"/>
    <polygon class="cls-11" points="447.29 443.94 419.35 443.94 425.55 447.98 451.55 447.98 451.55 447.49 451.55 443.94 451.55 435.2 474.84 435.2 469.07 431.15 451.55 431.15 451.01 431.15 447.29 431.15 447.29 443.94"/>
    <polygon class="cls-11" points="363.35 357.68 357.98 357.68 357.98 383.61 357.98 389.94 378.87 389.94 384.23 389.94 384.23 383.61 384.23 372.01 384.23 372.01 384.23 372.08 378.87 368.27 377.05 367 367.9 367 367.9 367.27 367.9 371.25 367.9 380.87 372.15 380.87 372.15 371.25 378.87 371.25 378.87 383.61 363.35 383.61 363.35 357.68"/>
    <polyline class="cls-11" points="349.46 426.7 349.46 417.42 354.28 411.14 354.28 398.9"/>
    <polyline class="cls-11" points="351.65 426.7 351.65 418.64 356.47 412.36 356.47 400.13"/>
    <polyline class="cls-11" points="382.91 462.1 404.25 462.1 411.54 469.68 418.01 469.68"/>
    <polyline class="cls-11" points="375.11 435.11 379.96 429.35 399.68 429.35"/>
    <polyline class="cls-11" points="336.13 431.59 336.13 426.47 341.89 421.94 341.89 406.71"/>
    <polyline class="cls-11" points="383.26 417 383.26 408.21 393.17 400.42 393.17 378.57"/>
    <polyline class="cls-11" points="380.38 543.63 380.38 534.33 390.29 526.54 390.29 492.06"/>
    <polyline class="cls-11" points="341.89 428.4 341.89 423.29 347.65 418.76 347.65 402.67"/>
    <polyline class="cls-11" points="337.76 503.67 337.76 502.21 343.52 497.68 343.52 484.18"/>
    <polyline class="cls-11" points="355.1 514.08 355.1 508.97 358.65 504.44 358.65 484.8"/>
    <polyline class="cls-11" points="324.57 542.88 324.57 514.22 319.08 507.2 319.08 490.96"/>
    <polyline class="cls-11" points="297.04 437.8 297.04 407.34 291.55 400.31 291.55 393.61"/>
    <polygon class="cls-11" points="367.91 504.89 367.91 482.65 381.67 482.65 381.67 470.95 404.7 470.95 404.7 479 367.91 504.89"/>
    <polygon class="cls-11" points="311.55 427.5 311.55 445.05 300.92 445.05 300.92 463.34 283.14 463.34 283.14 447.44 311.55 427.5"/>
    <polygon class="cls-11" points="431.15 452.76 391.34 452.76 391.34 435.11 406.69 435.11 431.15 452.76"/>
    <polyline class="cls-11" points="394.81 426.7 356.73 426.7 356.73 400.44"/>
    <polygon class="cls-11" points="315.78 424.01 315.78 433.11 329.9 433.11 329.9 422.9 337.21 422.9 337.21 408.96 315.78 424.01"/>
    <polygon class="cls-11" points="323.92 493.06 323.92 468.76 301.36 468.76 301.36 477.22 323.92 493.06"/>
    <polygon class="cls-11" points="368.96 502.19 368.96 480.91 381.08 480.91 381.08 469.21 404.11 469.21 404.11 477.26 368.96 502.19"/>
    <polyline class="cls-11" points="209.71 462.74 231.28 462.74 243.7 449.18 281.06 449.18"/>
    <polyline class="cls-11" points="353.27 332.04 173.98 456.47 187.35 465.94"/>
    <polyline class="cls-12" points="353.51 580.71 532.8 456.27 520.44 447.53"/>
    <polygon class="cls-11" points="430.27 431.01 430.27 437.34 377.05 437.34 370.11 431.01 430.27 431.01"/>
    <polygon class="cls-11" points="409.46 475.42 405.9 478.35 405.9 492.58 409.46 492.58 409.46 475.42"/>
    <rect class="cls-11" x="405.9" y="497.75" width="3.56" height="5.52"/>
    <rect class="cls-11" x="382.25" y="464.12" width="23.85" height="3.01"/>
    <polygon class="cls-11" points="262.91 423.57 262.91 430.52 288.28 430.52 288.28 450.85 288.26 450.85 288.26 453.55 288.28 453.55 291.96 453.55 324.25 453.55 324.25 450.85 291.96 450.85 291.96 423.62 291.55 423.62 291.55 423.57 271.83 423.57 271.83 407.41 262.91 413.58 262.91 423.57"/>
    <polygon class="cls-11" points="328.51 367.88 323.14 371.62 323.14 391.05 323.14 395.43 323.14 397.38 340.89 397.38 340.89 412.95 316.44 412.95 316.44 403.72 316.44 397.39 285.87 397.39 285.87 403.72 311.67 403.72 311.67 412.95 311.67 416.9 316.44 416.9 340.89 416.9 340.89 429.4 344.57 427.39 344.57 416.9 344.57 412.95 344.57 397.38 352.18 397.38 352.18 391.05 349.43 391.05 349.43 372.81 345.37 372.81 345.37 391.05 328.51 391.05 328.51 367.88"/>
    <path class="cls-11" d="M321.31,469.66a.7.7,0,1,1,0,1.4.7.7,0,0,1,0-1.4Z"/>
    <path class="cls-11" d="M321.31,490.26a.71.71,0,1,1-.7.7A.7.7,0,0,1,321.31,490.26Z"/>
    <path class="cls-11" d="M368.25,503a.7.7,0,1,1,0,1.4.7.7,0,1,1,0-1.4Z"/>
    <path class="cls-11" d="M385.89,424a.92.92,0,1,1-.92.92A.92.92,0,0,1,385.89,424Z"/>
    <polygon class="cls-11" points="452.47 457.61 383.56 457.61 383.56 460.78 452.47 460.78 455.1 460.78 455.1 452.3 499.86 452.3 493.83 448.04 455.1 448.04 452.47 448.04 452.47 457.61"/>
    <polygon class="cls-11" points="396.39 398.59 368.25 398.59 361.96 398.59 361.92 398.59 361.92 427.33 368.25 429.98 368.25 404.92 396.39 404.92 402.54 404.92 402.54 398.59 402.54 384.58 396.39 380.56 396.39 398.59"/>
    <polyline class="cls-12" points="353.51 332.45 532.8 456.89 520.43 465.63"/>
    <polygon class="cls-11" points="358.65 484.8 358.65 504.87 358.88 504.87 362.54 504.87 374.42 504.87 374.42 520.67 374.42 524.23 378.75 524.23 383.42 524.23 383.42 541.56 386.99 539.25 386.99 524.23 386.99 520.67 383.42 520.67 378.75 520.67 378.75 504.87 378.75 501.48 374.42 501.48 362.54 501.48 362.54 484.8 358.65 484.8"/>
    <polygon class="cls-11" points="353.27 332.04 353.27 350.61 344.45 356.85 344.45 338.19 353.27 332.04"/>
    <polygon class="cls-11" points="361.98 356.85 361.98 338.27 353.15 332.04 353.15 350.69 361.98 356.85"/>
    <polygon class="cls-12" points="353.27 581.6 353.27 563.03 344.45 556.79 344.45 575.45 353.27 581.6"/>
    <polygon class="cls-12" points="361.98 556.79 361.98 575.36 353.15 581.6 353.15 562.95 361.98 556.79"/>
    <polygon class="cls-11" points="173.98 456.58 200.66 456.63 215.32 466.73 198.43 473.66 173.98 456.58"/>
    <polygon class="cls-12" points="533.2 456.7 506.53 456.65 491.46 446.44 508.35 439.5 533.2 456.7"/>
    <polygon class="cls-12" points="491.46 466.73 508.35 473.66 533.2 456.58 506.53 456.65 491.46 466.73"/>
    <polygon class="cls-11" points="302.59 484.02 273.29 484.02 273.29 472.03 273.29 465.08 213.12 465.08 223.03 472.03 267.29 472.03 267.29 484.02 267.38 484.02 267.38 490.96 302.59 490.96 306.07 490.96 307.49 490.96 307.49 462.6 323.79 462.6 323.79 458.25 309.54 458.25 308.69 458.25 302.59 458.25 302.59 484.02"/>
    <polygon class="cls-11" points="215.64 446.44 198.43 439.5 173.98 456.7 200.66 456.63 215.64 446.44"/>
    <line class="cls-11" x1="201.25" y1="456.64" x2="173.98" y2="456.64"/>
    <line class="cls-11" x1="353.22" y1="562.66" x2="353.22" y2="581.6"/>
    <line class="cls-11" x1="353.15" y1="350.61" x2="353.15" y2="332.33"/>
    <path class="cls-11" d="M194.59,448.63a2.51,2.51,0,1,1,2.5,2.5A2.5,2.5,0,0,1,194.59,448.63Z"/>
    <path class="cls-11" d="M347,344.43a1.92,1.92,0,1,1,1.91,1.92A1.92,1.92,0,0,1,347,344.43Z"/>
    <path class="cls-11" d="M355.65,344.43a1.92,1.92,0,1,1,1.91,1.92A1.92,1.92,0,0,1,355.65,344.43Z"/>
    <path class="cls-11" d="M347,568.73a1.92,1.92,0,1,1,1.91,1.92A1.92,1.92,0,0,1,347,568.73Z"/>
    <path class="cls-11" d="M355.65,568.73a1.92,1.92,0,1,1,1.91,1.92A1.92,1.92,0,0,1,355.65,568.73Z"/>
    <path class="cls-11" d="M194.59,464.42a2.51,2.51,0,1,1,2.5,2.51A2.5,2.5,0,0,1,194.59,464.42Z"/>
    <path class="cls-11" d="M508.34,448.63a2.51,2.51,0,1,1,2.51,2.5A2.51,2.51,0,0,1,508.34,448.63Z"/>
    <path class="cls-11" d="M508.34,464.42a2.51,2.51,0,1,1,2.51,2.51A2.5,2.5,0,0,1,508.34,464.42Z"/>
    <polygon class="cls-11" points="255.11 439.1 255.11 446.57 215.18 446.57 226.15 439.1 255.11 439.1"/>
    <polyline class="cls-11" points="421.84 467.4 435.31 467.4 448.2 478.04 476.25 478.04"/>
    <polyline class="cls-11" points="396.99 425.84 415.44 425.84 435.3 441.81 484.56 441.81"/>
    <path class="cls-11" d="M255.11,456.58a3.65,3.65,0,1,1,3.65,3.66A3.64,3.64,0,0,1,255.11,456.58Z"/>
    <path class="cls-11" d="M244.68,456.58a3.65,3.65,0,1,1,3.65,3.66A3.64,3.64,0,0,1,244.68,456.58Z"/>
    <path class="cls-11" d="M214,456.58a3.65,3.65,0,1,1,3.65,3.66A3.64,3.64,0,0,1,214,456.58Z"/>
    <polyline class="cls-11" points="293 520.64 293 498.31 284.49 491.9 284.49 464.92"/>
    <polyline class="cls-11" points="359.86 484.96 370.69 495.74 380.93 495.74"/>
    <polyline class="cls-11" points="362.38 484.43 371.25 493.49 383.83 493.49"/>
    <path class="cls-11" d="M370.33,483.77a.7.7,0,0,1,.7.7.7.7,0,0,1-.7.71.71.71,0,0,1-.71-.71A.7.7,0,0,1,370.33,483.77Z"/>
    <path class="cls-11" d="M374,496.84a.7.7,0,1,1,0,1.4.7.7,0,0,1,0-1.4Z"/>
    <path class="cls-11" d="M382.21,472.61a.7.7,0,1,1-.71.7A.7.7,0,0,1,382.21,472.61Z"/>
    <path class="cls-11" d="M382.21,483.06a.71.71,0,0,1,.7.71.71.71,0,1,1-.7-.71Z"/>
    <path class="cls-11" d="M401.24,472.61a.7.7,0,1,1,0,1.4.7.7,0,1,1,0-1.4Z"/>
    <polyline class="cls-11" points="376.59 476.92 380.7 480.92 402.97 480.92"/>
    <path class="cls-11" d="M353.45,426.4a29.66,29.66,0,1,1-29.65,29.66A29.65,29.65,0,0,1,353.45,426.4Z"/>
    <path class="cls-11" d="M329.38,459.85a2.51,2.51,0,1,0-2.5-2.51A2.5,2.5,0,0,0,329.38,459.85Z"/>
    <path class="cls-11" d="M377.13,459.09a2.51,2.51,0,1,0-2.5-2.51A2.51,2.51,0,0,0,377.13,459.09Z"/>
    <path class="cls-11" d="M353.45,434.53A2.51,2.51,0,1,0,351,432,2.5,2.5,0,0,0,353.45,434.53Z"/>
    <path class="cls-11" d="M353.45,482a2.51,2.51,0,1,0-2.5-2.51A2.5,2.5,0,0,0,353.45,482Z"/>
    <polygon class="cls-11" points="332.24 498.66 332.24 490.68 346.36 490.68 346.36 500.9 353.67 500.9 353.67 513.71 332.24 498.66"/>
    <polyline class="cls-11" points="328.17 496.42 332.45 490.85 332.45 476.98"/>
    <polyline class="cls-11" points="355.19 486.15 355.19 491.26 349.43 495.79 349.43 511.02"/>
    <polygon class="cls-11" points="330.99 499.37 330.99 491.38 345.11 491.38 345.11 501.6 352.42 501.6 352.42 514.42 330.99 499.37"/>
    <polyline class="cls-11" points="331.33 498.64 335.7 492.96 335.7 479.47"/>
    <path class="cls-11" d="M332.35,493.38a.71.71,0,1,0-.7-.7A.7.7,0,0,0,332.35,493.38Z"/>
    <path class="cls-11" d="M343.81,493.38a.71.71,0,0,0,0-1.41.71.71,0,1,0,0,1.41Z"/>
    <path class="cls-11" d="M350.89,503.79a.71.71,0,1,0-.71-.71A.71.71,0,0,0,350.89,503.79Z"/>
    <polygon class="cls-11" points="430.27 451.82 390.46 451.82 390.46 434.17 405.81 434.17 430.27 451.82"/>
    <polyline class="cls-11" points="382.2 449.75 395.97 449.75 403.27 442.17 417.38 442.17"/>
    <path class="cls-11" d="M423.2,448.84a.92.92,0,1,1-.92.91A.91.91,0,0,1,423.2,448.84Z"/>
    <path class="cls-11" d="M393.67,446.07a.92.92,0,1,1-.91.91A.91.91,0,0,1,393.67,446.07Z"/>
    <polyline class="cls-11" points="394.18 426.02 356.64 426.02 356.64 401.3"/>
    <polyline class="cls-11" points="360.02 425.84 360.02 422.25 365.78 417.72 365.78 406.17"/>
    <polyline class="cls-11" points="357.5 425.84 357.5 420.73 363.26 416.2 363.26 404.65"/>
    <polyline class="cls-11" points="364.32 429.15 368.33 422.41 378.87 422.41 388.39 422.41"/>
    <path class="cls-11" d="M358,404.35a.92.92,0,1,1-.91.91A.92.92,0,0,1,358,404.35Z"/>
    <path class="cls-11" d="M386.41,424a.92.92,0,1,1-.91.92A.92.92,0,0,1,386.41,424Z"/>
    <polygon class="cls-11" points="314.7 424.77 314.7 432.75 328.82 432.75 328.82 422.54 336.13 422.54 336.13 409.72 314.7 424.77"/>
    <polyline class="cls-11" points="334.26 432.52 329.9 428.84 328.82 428.84 320.15 420.61"/>
    <polyline class="cls-11" points="332.24 434.74 329.8 432.64 328.82 432.64 317.76 422.17"/>
    <path class="cls-11" d="M316.06,431.28a.7.7,0,1,1,0,1.4.7.7,0,0,1,0-1.4Z"/>
    <path class="cls-11" d="M326.48,431.28a.7.7,0,1,1,0,1.4.7.7,0,1,1,0-1.4Z"/>
    <path class="cls-11" d="M335,421.05a.71.71,0,1,1,0,1.41.71.71,0,0,1,0-1.41Z"/>
    <polygon class="cls-11" points="310.14 429.09 310.14 445.05 299.51 445.05 299.51 463.34 281.73 463.34 281.73 448.95 310.14 429.09"/>
    <polyline class="cls-11" points="278.47 462.04 292.24 462.04 299.54 454.45 323.8 454.45"/>
    <polyline class="cls-11" points="273.07 458.25 292.24 458.25 299.54 450.66 324.25 450.66"/>
    <polyline class="cls-11" points="325.71 444.87 314.24 444.87 311.55 442.8 310.14 442.79 295.94 442.79 293 440.41"/>
    <polyline class="cls-11" points="327.28 442.06 315.81 442.06 311.55 438.78 310.14 438.77 297.89 438.77 296.94 438.03"/>
    <path class="cls-11" d="M308.92,443.22a.7.7,0,0,1,.71.7.71.71,0,0,1-.71.71.7.7,0,0,1-.7-.71A.7.7,0,0,1,308.92,443.22Z"/>
    <path class="cls-11" d="M308.92,430.61a.71.71,0,1,1,0,1.41.71.71,0,0,1,0-1.41Z"/>
    <path class="cls-11" d="M283.15,448.7a.7.7,0,1,1-.71.7A.7.7,0,0,1,283.15,448.7Z"/>
    <path class="cls-11" d="M298.22,461.33a.71.71,0,1,1-.7.7A.7.7,0,0,1,298.22,461.33Z"/>
    <polygon class="cls-11" points="322.65 492.03 322.65 467.73 300.09 467.73 300.09 476.18 322.65 492.03"/>
    <path class="cls-11" d="M301.14,468.62a.7.7,0,0,1,.7.7.7.7,0,0,1-.7.71.71.71,0,0,1-.71-.71A.7.7,0,0,1,301.14,468.62Z"/>
    <path class="cls-11" d="M321.31,468.62a.7.7,0,0,1,.71.7.71.71,0,0,1-.71.71.7.7,0,0,1-.7-.71A.7.7,0,0,1,321.31,468.62Z"/>
    <path class="cls-11" d="M321.31,488.52a.7.7,0,0,1,.71.7.71.71,0,0,1-.71.71.7.7,0,0,1-.7-.71A.7.7,0,0,1,321.31,488.52Z"/>
    <polyline class="cls-11" points="309.3 482.65 309.3 473.52 316.13 465.94 325.42 465.94"/>
    <polyline class="cls-11" points="305.17 479.7 305.17 472.01 313.74 463.44 324.28 463.44"/>
    <polyline class="cls-11" points="314.7 487.02 319.14 479.1 322.71 479.13 323.92 479.14 329.34 472.27"/>
    <circle class="cls-13" cx="353.45" cy="456.27" r="18.82"/>
  </g>
  <path class="cls-14" d="M338.44,456.27a16.14,16.14,0,1,1,16.13,16A16.07,16.07,0,0,1,338.44,456.27Z"/>
  <path class="cls-1" d="M251.45,385.63A11.33,11.33,0,1,0,240.12,397,11.33,11.33,0,0,0,251.45,385.63Z"/>
  <path class="cls-1" d="M365.09,191a11.33,11.33,0,1,0-11.33,11.34A11.33,11.33,0,0,0,365.09,191Z"/>
  <path class="cls-1" d="M365.09,129.2a11.33,11.33,0,1,0-11.33,11.33A11.33,11.33,0,0,0,365.09,129.2Z"/>
  <path class="cls-1" d="M365.09,792a11.33,11.33,0,1,0-11.33,11.33A11.33,11.33,0,0,0,365.09,792Z"/>
  <path class="cls-1" d="M365.09,730.16a11.33,11.33,0,1,0-11.33,11.33A11.34,11.34,0,0,0,365.09,730.16Z"/>
  <path class="cls-1" d="M475.49,385.63A11.33,11.33,0,1,0,464.16,397,11.33,11.33,0,0,0,475.49,385.63Z"/>
  <path class="cls-1" d="M251.45,531.62A11.33,11.33,0,1,0,240.12,543,11.33,11.33,0,0,0,251.45,531.62Z"/>
  <path class="cls-1" d="M475.49,531.62A11.33,11.33,0,1,0,464.16,543,11.33,11.33,0,0,0,475.49,531.62Z"/>
  <rect class="cls-15" x="28.92" y="25.18" width="649.94" height="861.47"/>
</svg>
