<svg xmlns="http://www.w3.org/2000/svg" xmlns:xlink="http://www.w3.org/1999/xlink" width="302.39mm" height="232.29mm" viewBox="0 0 857.18 658.46">
  <defs>
    <style>
      .cls-1, .cls-11, .cls-17, .cls-18, .cls-19, .cls-5, .cls-7 {
        fill: none;
      }

      .cls-2 {
        isolation: isolate;
      }

      .cls-3 {
        fill: url(#Degradado_sin_nombre_291);
      }

      .cls-21, .cls-4, .cls-6 {
        opacity: 0.25;
      }

      .cls-21, .cls-4, .cls-5, .cls-6, .cls-7 {
        mix-blend-mode: screen;
      }

      .cls-4 {
        fill: url(#radial-gradient);
      }

      .cls-5, .cls-7 {
        stroke: #fff;
        stroke-width: 2px;
      }

      .cls-11, .cls-15, .cls-17, .cls-18, .cls-19, .cls-5, .cls-7 {
        stroke-miterlimit: 10;
      }

      .cls-5 {
        opacity: 0.03;
      }

      .cls-6 {
        fill: url(#radial-gradient-2);
      }

      .cls-7 {
        opacity: 0.03;
      }

      .cls-8 {
        fill: #221f1f;
      }

      .cls-9 {
        fill: #71c17c;
      }

      .cls-10 {
        fill: #f8ef6d;
      }

      .cls-11, .cls-17 {
        stroke: #221f1f;
      }

      .cls-11 {
        stroke-width: 3px;
      }

      .cls-12 {
        fill: #fff;
      }

      .cls-13 {
        fill: #6fcbdc;
      }

      .cls-14 {
        fill: #e90d8b;
      }

      .cls-15 {
        fill: #fdf5a9;
        stroke: #e5eb9d;
      }

      .cls-16 {
        fill: #6cbd45;
      }

      .cls-17 {
        stroke-width: 5px;
      }

      .cls-18 {
        stroke: #6fcbdc;
      }

      .cls-19 {
        stroke: #000;
      }

      .cls-20 {
        clip-path: url(#clip-path);
      }

      .cls-21 {
        fill: url(#radial-gradient-3);
      }
    </style>
    <linearGradient id="Degradado_sin_nombre_291" data-name="Degradado sin nombre 291" x1="7.55" y1="329.23" x2="866.78" y2="329.23" gradientUnits="userSpaceOnUse">
      <stop offset="0.06" stop-color="#ffffd7"/>
      <stop offset="0.61" stop-color="#fff8d9"/>
      <stop offset="1" stop-color="#fff0db"/>
    </linearGradient>
    <radialGradient id="radial-gradient" cx="128.29" cy="698.06" r="160.14" gradientUnits="userSpaceOnUse">
      <stop offset="0.1"/>
      <stop offset="0.11" stop-color="#080602"/>
      <stop offset="0.16" stop-color="#231b08"/>
      <stop offset="0.22" stop-color="#392c0d"/>
      <stop offset="0.28" stop-color="#4a3910"/>
      <stop offset="0.37" stop-color="#554213"/>
      <stop offset="0.48" stop-color="#5c4815"/>
      <stop offset="0.8" stop-color="#5e4915"/>
      <stop offset="1"/>
    </radialGradient>
    <radialGradient id="radial-gradient-2" cx="-98.48" cy="64.04" r="139.94" gradientUnits="userSpaceOnUse">
      <stop offset="0.1"/>
      <stop offset="0.15" stop-color="#191407"/>
      <stop offset="0.21" stop-color="#2f260d"/>
      <stop offset="0.27" stop-color="#403312"/>
      <stop offset="0.36" stop-color="#4b3d16"/>
      <stop offset="0.47" stop-color="#524217"/>
      <stop offset="0.8" stop-color="#544418"/>
      <stop offset="1"/>
    </radialGradient>
    <clipPath id="clip-path">
      <rect class="cls-1" x="630.22" y="726.58" width="400.66" height="522.08"/>
    </clipPath>
    <radialGradient id="radial-gradient-3" cx="673.97" cy="742.87" r="145.79" gradientUnits="userSpaceOnUse">
      <stop offset="0.1"/>
      <stop offset="0.15" stop-color="#181407"/>
      <stop offset="0.2" stop-color="#2e250d"/>
      <stop offset="0.27" stop-color="#3f3312"/>
      <stop offset="0.36" stop-color="#4a3d15"/>
      <stop offset="0.47" stop-color="#514217"/>
      <stop offset="0.8" stop-color="#534418"/>
      <stop offset="1"/>
    </radialGradient>
  </defs>
  <g class="cls-2">
    <g id="Capa_1" data-name="Capa 1">
      <rect class="cls-3" x="7.55" width="859.22" height="658.46"/>
      <g>
        <circle class="cls-4" cx="128.29" cy="698.06" r="160.14"/>
        <polyline class="cls-5" points="200.03 789.65 184.68 981.72 200.03 789.65 215.38 597.57 200.03 789.65 7.95 774.29 200.03 789.65 392.11 805 200.03 789.65 202.62 865.86 200.03 789.65 197.44 713.43 200.03 789.65 123.82 792.24 200.03 789.65 276.24 787.05 200.03 789.65 156.1 903.15 200.03 789.65 243.96 676.14 200.03 789.65 86.53 745.72 200.03 789.65 313.53 833.57 200.03 789.65 302.35 1012.55 200.03 789.65 97.71 566.74 200.03 789.65 -22.87 891.97 200.03 789.65 422.94 687.33 200.03 789.65 224.73 930.1 200.03 789.65 175.33 649.2 200.03 789.65 59.58 814.34 200.03 789.65 340.48 764.95 200.03 789.65 220.78 811.3 200.03 789.65 179.28 767.99 200.03 789.65 178.38 810.39 200.03 789.65 221.68 768.9 200.03 789.65 288.05 928.46 200.03 789.65 112.02 650.84 200.03 789.65 61.22 877.66 200.03 789.65 338.84 701.63 200.03 789.65 396.87 958.12 200.03 789.65 3.19 621.17 200.03 789.65 31.55 986.49 200.03 789.65 368.51 592.8 200.03 789.65 206.77 838.88 200.03 789.65 193.29 740.41 200.03 789.65 150.8 796.39 200.03 789.65 249.26 782.9 200.03 789.65 200.96 793.5 200.03 789.65 199.11 785.8 200.03 789.65 196.18 790.57 200.03 789.65 203.88 788.72 200.03 789.65 146.03 985.61 200.03 789.65 254.03 593.68 200.03 789.65 4.06 735.64 200.03 789.65 396 843.65 200.03 789.65 179.26 1035.74 200.03 789.65 220.8 543.55 200.03 789.65 -46.06 768.88 200.03 789.65 446.13 810.41 200.03 789.65 387.76 945.53 200.03 789.65 12.3 633.76 200.03 789.65 44.14 977.37 200.03 789.65 355.92 601.92 200.03 789.65 194.13 948.09 200.03 789.65 205.94 631.2 200.03 789.65 41.59 783.74 200.03 789.65 358.47 795.55 200.03 789.65 186.77 896.6 200.03 789.65 213.29 682.7 200.03 789.65 93.08 776.38 200.03 789.65 306.98 802.91"/>
      </g>
      <g>
        <circle class="cls-6" cx="-98.48" cy="64.04" r="139.94"/>
        <polyline class="cls-7" points="-183.19 146.11 -121.25 186.89 -183.19 146.11 -245.13 105.33 -183.19 146.11 -223.97 208.05 -183.19 146.11 -142.41 84.17 -183.19 146.11 0.3 180.32 -183.19 146.11 -366.69 111.9 -183.19 146.11 -217.4 329.61 -183.19 146.11 -148.98 -37.38 -183.19 146.11 -159.9 170.01 -183.19 146.11 -206.48 122.21 -183.19 146.11 -207.09 169.4 -183.19 146.11 -159.29 122.82 -183.19 146.11 -169.01 162.52 -183.19 146.11 -197.37 129.71 -183.19 146.11 -199.6 160.29 -183.19 146.11 -166.79 131.94 -183.19 146.11 -63.91 327.17 -183.19 146.11 -302.47 -34.94 -183.19 146.11 -364.25 265.39 -183.19 146.11 -2.13 26.83 -183.19 146.11 -90.76 241.69 -183.19 146.11 -275.62 50.53 -183.19 146.11 -278.77 238.54 -183.19 146.11 -87.61 53.68 -183.19 146.11 -52.71 152.33 -183.19 146.11 -313.67 139.9 -183.19 146.11 -189.41 276.59 -183.19 146.11 -176.97 15.63 -183.19 146.11 -171 262.79 -183.19 146.11 -195.38 29.43 -183.19 146.11 -299.87 158.3 -183.19 146.11 -66.51 133.92 -183.19 146.11 -178.16 189.39 -183.19 146.11 -188.22 102.83 -183.19 146.11 -226.47 151.14 -183.19 146.11 -139.91 141.09 -183.19 146.11 -179.54 149.23 -183.19 146.11 -186.84 142.99 -183.19 146.11 -186.31 149.76 -183.19 146.11 -180.07 142.46 -183.19 146.11 -128.95 232.43 -183.19 146.11 -237.44 59.8 -183.19 146.11 -269.51 200.36 -183.19 146.11 -96.88 91.87 -183.19 146.11 -180.18 296.98 -183.19 146.11 -186.2 -4.75 -183.19 146.11 -334.06 149.12 -183.19 146.11 -32.33 143.1 -183.19 146.11 -71.96 219.94 -183.19 146.11 -294.43 72.28 -183.19 146.11 -257.02 257.35 -183.19 146.11 -109.36 34.88 -183.19 146.11 -25.79 183.87 -183.19 146.11 -340.59 108.36 -183.19 146.11 -220.95 303.51 -183.19 146.11 -145.44 -11.29 -183.19 146.11 -67.9 184.19 -183.19 146.11 -298.48 108.03 -183.19 146.11 -221.27 261.4 -183.19 146.11 -145.11 30.82"/>
      </g>
      <g>
        <rect class="cls-8" x="582.44" y="547.12" width="18.79" height="33.85"/>
        <rect class="cls-8" x="655.87" y="547.12" width="18.79" height="33.85"/>
        <rect class="cls-9" x="582.44" y="495.86" width="92.22" height="51.27"/>
        <rect class="cls-9" x="688.35" y="478.38" width="34.4" height="51.27"/>
        <polygon class="cls-10" points="116.99 518.52 94.76 501.74 94.76 416.47 116.99 435.67 116.99 518.52"/>
        <polygon class="cls-8" points="122.48 514.35 116.99 518.52 116.99 436.76 122.48 432.58 122.48 514.35"/>
        <polygon class="cls-10" points="777.67 208.48 641.97 208.48 586.3 265.16 722.01 265.16 777.67 208.48"/>
        <polygon class="cls-9" points="813.17 299.33 610.65 299.33 582.44 328.56 783.85 328.56 813.17 299.33"/>
        <rect class="cls-11" x="306.92" y="274.84" width="66.39" height="66.39" transform="translate(-118.2 330.73) rotate(-45)"/>
        <rect class="cls-11" x="481.37" y="274.84" width="66.39" height="66.39" transform="translate(-67.1 454.08) rotate(-45)"/>
        <rect class="cls-12" x="122.91" y="214.91" width="66.39" height="66.39" transform="translate(-129.71 183.05) rotate(-45)"/>
        <rect class="cls-10" x="180.7" y="206.01" width="17.66" height="31.76" transform="translate(-101.39 199) rotate(-45)"/>
        <polygon class="cls-9" points="340.12 261.63 311.05 290.71 311.05 254.9 340.12 225.82 340.12 261.63"/>
        <polygon class="cls-9" points="260.56 308.12 216.16 352.51 163.84 308.57 207.48 264.82 260.56 308.12"/>
        <polygon class="cls-9" points="219.87 411.75 186 445.62 186 403.91 219.87 370.04 219.87 411.75"/>
        <polygon class="cls-10" points="251.49 380.14 227.26 404.36 227.26 366.22 251.49 341.99 251.49 380.14"/>
        <polygon class="cls-8" points="269.73 389.26 215.54 443.45 215.54 435.25 269.73 381.06 269.73 389.26"/>
        <polygon class="cls-8" points="324.11 420.5 245.01 499.6 245.01 491.39 324.11 412.3 324.11 420.5"/>
        <polygon class="cls-8" points="348.44 420.5 427.54 499.6 427.54 491.39 348.44 412.3 348.44 420.5"/>
        <polygon class="cls-8" points="506.63 420.5 427.54 499.6 427.54 491.39 506.63 412.3 506.63 420.5"/>
        <polygon class="cls-8" points="535.18 420.5 614.27 499.6 614.27 491.39 535.18 412.3 535.18 420.5"/>
        <polygon class="cls-8" points="245.01 465.03 215.54 494.5 215.54 486.3 245.01 456.82 245.01 465.03"/>
        <polygon class="cls-8" points="340.12 261.63 369.19 290.71 369.19 254.9 340.12 225.82 340.12 261.63"/>
        <polygon class="cls-8" points="398.27 261.63 427.34 290.71 427.34 254.9 398.27 225.82 398.27 261.63"/>
        <polygon class="cls-8" points="456.42 261.63 485.49 290.71 485.49 254.9 456.42 225.82 456.42 261.63"/>
        <polygon class="cls-8" points="514.56 261.63 543.64 290.71 543.64 254.9 514.56 225.82 514.56 261.63"/>
        <polygon class="cls-9" points="398.27 261.63 369.19 290.71 369.19 254.9 398.27 225.82 398.27 261.63"/>
        <polygon class="cls-13" points="322.42 506.49 275.53 553.38 275.53 534.51 322.42 487.62 322.42 506.49"/>
        <polygon class="cls-10" points="456.42 261.63 427.34 290.71 427.34 254.9 456.42 225.82 456.42 261.63"/>
        <polygon class="cls-10" points="514.56 261.63 485.49 290.71 485.49 254.9 514.56 225.82 514.56 261.63"/>
        <polygon class="cls-13" points="604.93 230.39 574.29 261.04 574.29 248.96 604.93 218.31 604.93 230.39"/>
        <polygon class="cls-10" points="574.29 261.03 543.64 291.68 543.64 253.93 574.29 223.28 574.29 261.03"/>
        <polygon class="cls-13" points="173.66 452.24 50.76 356.26 67.9 317.77 173.66 400.47 173.66 452.24"/>
        <polygon class="cls-9" points="174.77 573.43 146.91 555.47 146.91 462.14 174.88 484.86 174.77 573.43"/>
        <polygon class="cls-8" points="258.4 200.4 312.01 253.89 312.01 291.68 239.51 219.18 258.4 200.4"/>
        <polygon class="cls-9" points="439.14 133.69 487.7 133.69 471.13 161.05 414.24 161.05 439.14 133.69"/>
        <polygon class="cls-13" points="207.49 252.15 160.07 299.48 216.38 345.37 173.69 388.04 125.54 347.72 125.54 253.85 167.16 212.11 207.49 252.15"/>
        <rect class="cls-10" x="116.08" y="158.37" width="25.98" height="25.98" transform="translate(-83.36 141.45) rotate(-45)"/>
        <polygon class="cls-10" points="150.33 224.78 124.21 250.74 105.85 232.37 131.96 206.41 150.33 224.78"/>
        <polygon class="cls-8" points="114.88 144.93 220.85 111.88 150.54 180.59 114.88 144.93"/>
        <polygon class="cls-8" points="250.74 142.74 339.38 103.09 273.94 166.65 250.74 142.74"/>
        <polygon class="cls-9" points="253.13 67.29 147.43 98.92 248.25 57.28 253.13 67.29"/>
        <polygon class="cls-9" points="304.36 82.65 414.24 70.46 324.78 93 304.36 82.65"/>
        <polygon class="cls-8" points="248.25 57.28 324.9 93 253.13 67.37 248.25 57.28"/>
        <polygon class="cls-9" points="52.97 128.8 118.22 94.22 52.78 157.79 52.97 128.8"/>
        <polygon class="cls-8" points="118.32 94.22 199.54 77.49 88.36 123.21 118.32 94.22"/>
        <polygon class="cls-10" points="220.85 111.88 273.88 166.64 204.46 127.89 220.85 111.88"/>
        <polygon class="cls-10" points="339.38 103.09 448.24 101.28 299.78 141.62 339.38 103.09"/>
        <polygon class="cls-10" points="594.22 76.24 683.48 106.3 585.81 108.33 594.22 76.24"/>
        <polygon class="cls-8" points="630.51 88.46 764.83 72.92 683.58 106.3 630.51 88.46"/>
        <polygon class="cls-10" points="713.54 94.24 813.75 120.34 764.83 72.92 713.54 94.24"/>
        <path class="cls-14" d="M290.14,103.09a23.9,23.9,0,1,1-23.9-23.89A23.89,23.89,0,0,1,290.14,103.09Z"/>
        <path class="cls-8" d="M430.92,235.31a3.58,3.58,0,1,1-3.58-3.58A3.58,3.58,0,0,1,430.92,235.31Z"/>
        <path class="cls-8" d="M372.77,235.31a3.58,3.58,0,1,1-3.58-3.58A3.58,3.58,0,0,1,372.77,235.31Z"/>
        <path class="cls-8" d="M489.07,235.31a3.58,3.58,0,1,1-3.58-3.58A3.58,3.58,0,0,1,489.07,235.31Z"/>
        <path class="cls-13" d="M359.12,423.35a23.89,23.89,0,1,1-23.89-23.89A23.89,23.89,0,0,1,359.12,423.35Z"/>
        <path class="cls-13" d="M543.69,423.35a23.9,23.9,0,1,1-23.89-23.89A23.9,23.9,0,0,1,543.69,423.35Z"/>
        <path class="cls-14" d="M459.44,375.09a31.91,31.91,0,1,1-31.91-31.91A31.91,31.91,0,0,1,459.44,375.09Z"/>
        <circle class="cls-15" cx="683.71" cy="180.59" r="67.02" transform="translate(72.56 536.35) rotate(-45)"/>
        <polygon class="cls-13" points="794.54 185.95 623.46 185.95 623.46 173.87 776.24 173.87 794.54 185.95"/>
        <rect class="cls-13" x="300.67" y="295.98" width="20.76" height="20.76" transform="translate(-125.52 309.67) rotate(-45)"/>
        <rect class="cls-14" x="312.81" y="543.34" width="20.76" height="20.76" transform="translate(-296.88 390.72) rotate(-45)"/>
        <rect class="cls-14" x="372.86" y="547.27" width="39.76" height="39.76" transform="translate(-286.01 443.83) rotate(-45)"/>
        <rect class="cls-14" x="451.95" y="543.34" width="20.76" height="20.76" transform="translate(-256.12 489.1) rotate(-45)"/>
        <rect class="cls-13" x="358.81" y="295.98" width="20.76" height="20.76" transform="translate(-108.49 350.79) rotate(-45)"/>
        <rect class="cls-13" x="417.16" y="295.98" width="20.76" height="20.76" transform="translate(-91.4 392.04) rotate(-45)"/>
        <rect class="cls-13" x="475.11" y="295.98" width="20.76" height="20.76" transform="translate(-74.43 433.03) rotate(-45)"/>
        <rect class="cls-13" x="533.26" y="295.98" width="20.76" height="20.76" transform="translate(-57.4 474.15) rotate(-45)"/>
        <polygon class="cls-8" points="208.23 508.49 186 493.73 186 403.85 208.23 423.04 208.23 508.49"/>
        <polygon class="cls-8" points="185.88 562.38 174.77 573.43 174.77 483.54 185.64 492.88 185.88 562.38"/>
        <polygon class="cls-8" points="221.78 485.44 215.54 487.14 215.54 435.64 221.78 430.61 221.78 485.44"/>
        <polyline class="cls-11" points="513.56 203.69 485.49 231.73 456.42 201.51 427.34 231.73 398.27 201.33 369.68 231.73 331.25 193.16"/>
        <polygon class="cls-8" points="173.77 400.5 173.69 388.04 216.38 345.35 216.38 352.38 260.62 308.04 260.62 313.64 173.77 400.5"/>
        <polygon class="cls-8" points="123.9 348.36 123.82 335.9 207.64 252.08 207.64 264.61 123.9 348.36"/>
        <polygon class="cls-8" points="263.55 338.24 269.73 332.87 269.73 389.26 263.55 389.26 263.55 338.24"/>
        <polygon class="cls-8" points="238.83 463.01 245.01 456.82 245.01 499.6 238.83 499.6 238.83 463.01"/>
        <path class="cls-16" d="M344.81,274v73.71a4.69,4.69,0,0,1-4.69,4.69h0a4.69,4.69,0,0,1-4.69-4.69V274Z"/>
        <path class="cls-8" d="M344.81,274c0-.54-2.1-1-4.69-1s-4.69.43-4.69,1,2.1,1,4.69,1S344.81,274.5,344.81,274Z"/>
        <g>
          <path class="cls-16" d="M519.25,274v73.71a4.69,4.69,0,0,1-4.69,4.69h0a4.69,4.69,0,0,1-4.69-4.69V274"/>
          <path d="M519.25,274c0-.54-2.1-1-4.69-1s-4.69.43-4.69,1,2.1,1,4.69,1S519.25,274.5,519.25,274Z"/>
        </g>
        <g>
          <path class="cls-9" d="M401.58,271.72v52.13a3.31,3.31,0,0,1-3.31,3.31h0a3.31,3.31,0,0,1-3.32-3.31V271.72Z"/>
          <path class="cls-8" d="M401.58,271.72c0-.38-1.48-.69-3.31-.69s-3.32.31-3.32.69,1.48.69,3.32.69S401.58,272.1,401.58,271.72Z"/>
        </g>
        <g>
          <path class="cls-9" d="M459.73,271.72v52.13a3.31,3.31,0,0,1-3.31,3.31h0a3.31,3.31,0,0,1-3.32-3.31V271.72Z"/>
          <path class="cls-8" d="M459.73,271.72c0-.38-1.48-.69-3.31-.69s-3.32.31-3.32.69,1.48.69,3.32.69S459.73,272.1,459.73,271.72Z"/>
        </g>
        <polygon class="cls-9" points="399.11 161.05 356.01 161.05 356.1 133.69 424 133.69 399.11 161.05"/>
        <polyline class="cls-11" points="339.96 354.1 317.94 332.08 301.65 348.37 258.9 305.63"/>
        <polyline class="cls-11" points="515.14 354.1 537.17 332.08 553.46 348.37 596.2 305.63"/>
        <path class="cls-8" d="M607.94,416.87c-10.31-.1-16.57-.34-34.88-22-9.79-11.6-30.12-31.32-55.32-31.32s-45.53,19.72-55.32,31.32c-18.31,21.7-24.14,22-34.89,22s-16.57-.34-34.88-22c-9.79-11.6-30.12-31.32-55.32-31.32S291.8,383.23,282,394.83c-18.31,21.7-34.88,22-34.88,22v27.31s16.57-.34,34.88-22c9.79-11.61,30.12-31.32,55.32-31.32s45.53,19.71,55.32,31.32c18.31,21.7,24.14,22,34.88,22s16.58-.34,34.89-22c9.79-11.61,30.12-31.32,55.32-31.32s45.53,19.71,55.32,31.32c18.31,21.7,24.57,21.93,34.88,22,46.65.48,186.6,0,186.6,0V416.87S654.59,417.35,607.94,416.87Z"/>
        <rect class="cls-8" x="332.61" y="463.01" width="49.21" height="49.21" transform="translate(-240.17 395.41) rotate(-45)"/>
        <rect class="cls-8" x="402.16" y="463.01" width="49.21" height="49.21" transform="translate(-219.8 444.59) rotate(-45)"/>
        <path class="cls-13" d="M275.53,553.5c0-2.4-2.5-4.35-5.59-4.35h0c-3.09,0-5.6,2-5.6,4.35v18c0,2.4-2.5,4.32-5.59,4.32h0c-3.09,0-5.59-1.94-5.59-4.34V553.06c0-2.4-2.5-4.34-5.59-4.34h0c-3.09,0-5.6,1.94-5.6,4.34v7.56c0,2.4-2.45,4.26-5.54,4.26h0c-3.09,0-5.54-2-5.54-4.37h0v-7c0-2.4-2.5-4.35-5.59-4.35h0c-3.09,0-5.6,2-5.6,4.35v18c0,2.4-2.5,4.32-5.59,4.32h0c-3.09,0-5.59-1.94-5.59-4.34V553.06c0-2.4-2.51-4.34-5.59-4.34h0c-3.09,0-5.6,1.94-5.6,4.34v7.56c0,2.4-2.45,4.26-5.54,4.26h0c-3.09,0-5.54-2-5.54-4.35V536.16c0,2.4,2.5,4.34,5.59,4.34h0c3.09,0,5.59-1.94,5.59-4.34v-18c0-2.4,2.51-4.32,5.6-4.32h0c3.09,0,5.59,1.94,5.59,4.34v18.45c0,2.4,2.5,4.35,5.59,4.35h0c3.09,0,5.6-2,5.6-4.35V529c0-2.4,2.45-4.26,5.54-4.26h0c3.09,0,5.54,2,5.54,4.37h0v7c0,2.4,2.5,4.34,5.59,4.34h0c3.09,0,5.6-1.94,5.6-4.34v-18c0-2.4,2.5-4.32,5.59-4.32h0c3.09,0,5.59,1.94,5.59,4.34v18.45c0,2.4,2.5,4.35,5.59,4.35h0c3.09,0,5.6-2,5.6-4.35V529c0-2.4,2.45-4.26,5.54-4.26h0c3.09,0,5.54,2,5.54,4.35"/>
        <line class="cls-11" x1="398.27" y1="201.33" x2="456.42" y2="201.33"/>
        <polygon class="cls-13" points="562.41 197.43 594.22 76.24 562.41 139.06 556.98 150.54 556.98 188.9 562.41 197.43"/>
        <polygon class="cls-8" points="562.41 197.43 562.41 163.38 562.41 139.06 556.98 150.54 556.98 188.9 562.41 197.43"/>
        <polygon class="cls-10" points="540.2 110.5 594.22 76.24 476 110.5 466.97 116.84 531.16 116.84 540.2 110.5"/>
        <polygon class="cls-9" points="562.41 139.06 594.22 76.24 540.2 110.5 531.23 116.84 557.04 150.54 562.41 139.06"/>
        <polyline class="cls-17" points="127.01 506.32 127.01 541.66 81.07 507.16 81.07 557.2 127.01 591.98 127.01 562 92.06 536.29 92.06 556.3 104.04 565.26 104.04 554.84 96.17 549.04"/>
        <polygon class="cls-13" points="60.23 296.1 110.38 247.62 110.23 345.72 60.23 296.1"/>
        <polygon class="cls-8" points="173.7 403.85 60.27 311.71 60.28 295.97 173.68 388.15 173.7 403.85"/>
        <polygon class="cls-8" points="185.97 493.87 76.47 405.66 76.47 389.92 185.95 478.18 185.97 493.87"/>
        <polygon class="cls-8" points="173.7 417.45 60.27 325.32 60.28 309.58 173.68 401.76 173.7 417.45"/>
        <polygon class="cls-10" points="110.38 350.69 125.54 347.72 125.54 253.94 110.38 247.62 110.38 350.69"/>
        <polygon class="cls-10" points="173.69 400.5 173.69 388 125.54 347.72 110.38 350.69 173.69 400.5"/>
        <polygon class="cls-10" points="125.49 253.87 110.38 247.6 155.95 201.16 167.08 212.29 125.49 253.87"/>
        <line class="cls-1" x1="160.07" y1="299.57" x2="211.07" y2="350.57"/>
        <line class="cls-18" x1="110.38" y1="247.6" x2="125.49" y2="253.87"/>
        <line class="cls-18" x1="125.49" y1="347.72" x2="110.38" y2="350.85"/>
        <polygon class="cls-8" points="180.69 393.58 173.66 400.5 173.66 452.24 180.69 445.32 180.69 393.58"/>
        <polygon class="cls-9" points="132.59 510.5 110.36 493.71 110.36 363.02 132.59 380.96 132.59 510.5"/>
        <polygon class="cls-9" points="99.06 476.97 76.83 460.19 76.83 329.49 99.06 347.44 99.06 476.97"/>
        <polygon class="cls-8" points="138.07 506.32 132.59 510.5 132.59 380.96 138.07 376.79 138.07 506.32"/>
        <polygon class="cls-8" points="103.93 472.17 98.44 476.35 98.44 346.82 103.93 342.64 103.93 472.17"/>
        <polygon class="cls-10" points="357.21 560.26 322.42 525.47 322.42 487.62 357.21 522.41 357.21 560.26"/>
        <polygon class="cls-9" points="335.69 538.74 328.47 531.52 328.47 493.66 335.69 500.89 335.69 538.74"/>
        <polygon class="cls-9" points="350.21 553.26 342.99 546.04 342.99 527.84 350.21 535.07 350.21 553.26"/>
        <polygon class="cls-8" points="357.21 560.26 392.01 525.47 392.01 487.62 357.21 522.41 357.21 560.26"/>
        <polygon class="cls-8" points="426.8 560.26 461.6 525.47 461.6 487.62 426.8 522.41 426.8 560.26"/>
        <polygon class="cls-10" points="426.8 560.26 392.01 525.47 392.01 487.62 426.8 522.41 426.8 560.26"/>
        <polygon class="cls-10" points="493.82 563.55 461.6 525.36 461.6 487.62 493.82 455.95 493.82 563.55"/>
        <polygon class="cls-8" points="513.61 583.37 493.82 563.55 493.82 455.95 513.61 463.71 513.61 583.37"/>
        <path class="cls-8" d="M676.75,409.41c-2.68,41.19-32.54,66.54-64,78.61-60.88,23.37-118.91,6.17-118.91,6.17V521.9s83.06,28.34,150.22-23.43c18.78-14.48,33.41-39.36,32.65-89.06"/>
        <path class="cls-8" d="M584.52,327.27v27c54.18,30.41,57.24,60.65,57.24,60.65S661.52,374.13,584.52,327.27Z"/>
        <line class="cls-19" x1="676.72" y1="397.11" x2="676.72" y2="503.29"/>
        <path class="cls-1" d="M676.69,406.17s-12.48,123.48-182.87,88"/>
        <polygon class="cls-10" points="674.66 547.13 688.35 529.64 688.35 478.38 674.66 495.86 674.66 547.13"/>
        <polygon class="cls-8" points="540.2 110.4 476 110.4 466.97 116.74 531.16 116.74 540.2 110.4"/>
        <polygon class="cls-8" points="562.46 139.01 552 125.55 540.25 110.45 531.27 116.79 557.09 150.5 562.46 139.01"/>
        <rect class="cls-8" x="586.3" y="265.16" width="135.71" height="19.87"/>
        <polygon class="cls-8" points="777.67 228.25 722.01 285.03 722.01 265.16 777.67 208.38 777.67 228.25"/>
        <polygon class="cls-13" points="809.2 230.39 604.93 230.39 604.93 218.31 823.11 218.31 809.2 230.39"/>
        <rect class="cls-8" x="636.52" y="328.56" width="118.26" height="10.32"/>
        <polygon class="cls-8" points="813.17 299.33 813.17 309.65 723.46 399.22 723.46 388.89 813.17 299.33"/>
        <path class="cls-9" d="M584.76,327.16l21.07-20.68c109.11,67,58.86,140.77,58.86,140.77-56.75,78-170.87,46.89-170.87,46.89V456s78.86,26.05,125-8.7c0,0,75.06-53.1-34-120.09"/>
        <polygon class="cls-9" points="783.91 328.19 750.22 328.19 689.77 388.89 723.46 388.89 783.91 328.19"/>
        <rect class="cls-8" x="688.35" y="388.89" width="35.11" height="10.32"/>
        <rect class="cls-8" x="688.35" y="265.16" width="33.69" height="124.1"/>
        <rect class="cls-8" x="182.34" y="162.99" width="66.39" height="66.39" transform="translate(-75.6 209.87) rotate(-45)"/>
        <rect class="cls-8" x="65.24" y="162.99" width="66.39" height="66.39" transform="translate(-109.9 127.07) rotate(-45)"/>
        <rect class="cls-9" x="193.7" y="174.29" width="43.8" height="43.8" transform="translate(-75.58 209.91) rotate(-45)"/>
        <rect class="cls-10" x="72" y="169.75" width="52.89" height="52.89" transform="translate(-109.9 127.07) rotate(-45)"/>
        <polygon class="cls-10" points="573.04 575.84 513.61 575.84 513.61 551.26 548.15 551.26 573.04 575.84"/>
        <polygon class="cls-10" points="767.23 605.55 573.04 605.55 573.04 580.97 742.33 580.97 767.23 605.55"/>
        <polygon class="cls-8" points="573.04 613.77 573.04 575.84 548.46 575.84 548.46 588.87 573.04 613.77"/>
        <rect class="cls-8" x="573.04" y="605.55" width="194.18" height="8.22"/>
        <rect class="cls-8" x="513.61" y="575.84" width="59.43" height="8.22"/>
        <polygon class="cls-13" points="623.46 185.95 574.29 235.12 574.29 223.05 623.46 173.87 623.46 185.95"/>
        <polyline class="cls-9" points="637.7 605.55 618.91 605.55 618.91 547.13 637.7 547.13"/>
        <polygon class="cls-10" points="471.13 161.26 513.59 203.72 513.37 164.81 487.71 133.69 471.13 161.26"/>
        <polygon class="cls-10" points="367.25 161.15 241.76 286.64 220.73 268.98 356.06 133.65 367.25 161.15"/>
        <rect class="cls-10" x="688.69" y="264.82" width="33.69" height="213.55"/>
        <rect class="cls-8" x="738.88" y="444.18" width="11.7" height="64.94"/>
        <polygon class="cls-8" points="837.01 509.11 738.88 509.11 738.88 489.1 820.9 489.1 837.01 509.11"/>
        <polygon class="cls-8" points="727.9 523.76 722.4 529.64 722.4 284.56 727.9 278.95 727.9 523.76"/>
        <polygon class="cls-9" points="405.35 538.74 398.13 531.52 398.13 493.66 405.35 500.89 405.35 538.74"/>
        <polygon class="cls-9" points="419.87 553.26 412.65 546.04 412.65 527.84 419.87 535.07 419.87 553.26"/>
      </g>
      <g class="cls-20">
        <g>
          <circle class="cls-21" cx="673.97" cy="742.87" r="145.79"/>
          <polyline class="cls-7" points="722.29 816.78 744.28 1174.65 722.29 816.78 700.31 458.92 722.29 816.78 364.42 838.77 722.29 816.78 1080.16 794.8 722.29 816.78 736.96 843.86 722.29 816.78 707.62 789.71 722.29 816.78 695.22 831.46 722.29 816.78 749.37 802.11 722.29 816.78 727.64 824.77 722.29 816.78 716.95 808.79 722.29 816.78 714.3 822.13 722.29 816.78 730.28 811.44 722.29 816.78 984.38 990.88 722.29 816.78 460.21 642.69 722.29 816.78 548.2 1078.87 722.29 816.78 896.38 554.7 722.29 816.78 778.84 966.45 722.29 816.78 665.75 667.12 722.29 816.78 572.63 873.33 722.29 816.78 871.96 760.24 722.29 816.78 777.61 1086.81 722.29 816.78 666.98 546.76 722.29 816.78 452.26 872.1 722.29 816.78 992.32 761.47 722.29 816.78 732.17 871.01 722.29 816.78 712.42 762.55 722.29 816.78 668.06 826.66 722.29 816.78 776.52 806.91 722.29 816.78 737.95 1169.57 722.29 816.78 706.64 464 722.29 816.78 369.51 832.44 722.29 816.78 1075.08 801.13 722.29 816.78 798.73 1151.69 722.29 816.78 645.85 481.88 722.29 816.78 387.39 893.22 722.29 816.78 1057.2 740.34 722.29 816.78 789.18 1047.59 722.29 816.78 655.41 585.98 722.29 816.78 491.49 883.67 722.29 816.78 953.1 749.9 722.29 816.78 767.92 1048.68 722.29 816.78 676.66 584.89 722.29 816.78 490.4 862.41 722.29 816.78 954.19 771.15 722.29 816.78 723.03 984.84 722.29 816.78 721.56 648.72 722.29 816.78 554.23 817.52 722.29 816.78 890.35 816.05 722.29 816.78 853.78 1031.96 722.29 816.78 590.81 601.61 722.29 816.78 507.12 948.27 722.29 816.78 937.47 685.3 722.29 816.78 772.67 882.47 722.29 816.78 671.92 751.1 722.29 816.78 656.61 867.16 722.29 816.78 787.97 766.41 722.29 816.78 737.19 1048.86 722.29 816.78 707.4 584.71 722.29 816.78 490.21 831.68 722.29 816.78 954.37 801.89"/>
        </g>
      </g>
    </g>
  </g>
</svg>
