<svg id="Capa_1" data-name="Capa 1" xmlns="http://www.w3.org/2000/svg" xmlns:xlink="http://www.w3.org/1999/xlink" width="182.53mm" height="233.69mm" viewBox="0 0 517.4 662.42">
  <defs>
    <style>
      .cls-1, .cls-3 {
        fill: #0aaa6e;
      }

      .cls-1, .cls-11, .cls-19, .cls-2, .cls-21, .cls-6, .cls-9 {
        stroke: #000;
      }

      .cls-1, .cls-11, .cls-12, .cls-13, .cls-15, .cls-16, .cls-17, .cls-18, .cls-19, .cls-2, .cls-21, .cls-22, .cls-23, .cls-5, .cls-6, .cls-8, .cls-9 {
        stroke-miterlimit: 10;
      }

      .cls-1, .cls-3, .cls-6 {
        opacity: 0.7;
      }

      .cls-10, .cls-2 {
        fill: #fff;
      }

      .cls-4 {
        clip-path: url(#clip-path);
      }

      .cls-11, .cls-18, .cls-19, .cls-23, .cls-5, .cls-6, .cls-8 {
        fill: none;
      }

      .cls-23, .cls-5 {
        stroke: #fff;
      }

      .cls-15, .cls-17, .cls-18, .cls-22, .cls-23, .cls-5 {
        stroke-width: 2px;
      }

      .cls-7 {
        fill: #98c4e9;
      }

      .cls-12, .cls-13, .cls-15, .cls-16, .cls-17, .cls-18, .cls-22, .cls-8 {
        stroke: #231f20;
      }

      .cls-16, .cls-17, .cls-9 {
        fill: #f7e03a;
      }

      .cls-19, .cls-21, .cls-9 {
        stroke-width: 3px;
      }

      .cls-12, .cls-15 {
        fill: #29b473;
      }

      .cls-13, .cls-14 {
        fill: #231f20;
      }

      .cls-13 {
        stroke-width: 0.25px;
      }

      .cls-20 {
        fill: #d8acb4;
      }

      .cls-21 {
        fill: #f6e268;
      }

      .cls-22 {
        fill: url(#linear-gradient);
      }

      .cls-23 {
        stroke-linecap: round;
      }
    </style>
    <clipPath id="clip-path">
      <rect class="cls-1" x="12.31" y="12.09" width="492.2" height="639.07"/>
    </clipPath>
    <linearGradient id="linear-gradient" x1="238.11" y1="309.13" x2="281.56" y2="348.26" gradientUnits="userSpaceOnUse">
      <stop offset="0" stop-color="#fff"/>
      <stop offset="0.49" stop-color="#84cdd5"/>
      <stop offset="1" stop-color="#057e8b"/>
    </linearGradient>
  </defs>
  <rect class="cls-2" width="517.4" height="662.42"/>
  <g>
    <rect class="cls-3" x="12.31" y="12.09" width="492.2" height="639.07"/>
    <g class="cls-4">
      <g>
        <rect class="cls-5" x="-195.66" y="-14.03" width="403.41" height="242.52"/>
        <rect class="cls-5" x="-271.84" y="71.66" width="403.41" height="242.52"/>
        <rect class="cls-5" x="12.31" y="374.54" width="170.91" height="273.85"/>
        <rect class="cls-5" x="-271.84" y="464.95" width="343.19" height="242.52"/>
        <rect class="cls-5" x="-299.36" y="5.89" width="399.4" height="92.32"/>
        <rect class="cls-5" x="-23.57" y="-73.48" width="399.4" height="123.05"/>
        <rect class="cls-5" x="408.47" y="-23.9" width="314.23" height="226.99"/>
        <rect class="cls-5" x="475.3" y="10.47" width="314.24" height="22.74"/>
        <rect class="cls-5" x="-59.64" y="-35.65" width="314.23" height="478.61"/>
        <rect class="cls-5" x="-19.8" y="186.44" width="316.43" height="442.03"/>
        <rect class="cls-5" x="85.36" y="113.64" width="296.41" height="401.11"/>
        <rect class="cls-5" x="42.78" y="-51.56" width="450.95" height="625.68"/>
        <rect class="cls-5" x="296.97" y="275.82" width="314.23" height="372.57"/>
        <rect class="cls-5" x="206.81" y="213.58" width="314.23" height="401.89"/>
        <rect class="cls-5" x="412.07" y="296.9" width="123.52" height="351.49"/>
        <rect class="cls-5" x="23.6" y="162.92" width="123.52" height="401.9"/>
        <rect class="cls-5" x="299.27" y="10.47" width="333.16" height="444.17"/>
        <rect class="cls-5" x="351.27" y="71.66" width="387.03" height="99.92"/>
        <rect class="cls-5" x="351.27" y="532.53" width="387.03" height="99.92"/>
        <rect class="cls-5" x="482.17" y="105.87" width="314.23" height="87.05"/>
        <rect class="cls-5" x="439.09" y="162.92" width="314.23" height="401.89"/>
      </g>
    </g>
    <rect class="cls-6" x="12.31" y="12.09" width="492.2" height="639.07"/>
  </g>
  <path class="cls-5" d="M454.08,122.42a6.18,6.18,0,1,1-6.18-6.18A6.18,6.18,0,0,1,454.08,122.42Z"/>
  <path class="cls-5" d="M399.8,29.55a6.18,6.18,0,1,1-6.17-6.18A6.18,6.18,0,0,1,399.8,29.55Z"/>
  <path class="cls-5" d="M453.45,191.09a5,5,0,1,1-5-5A5,5,0,0,1,453.45,191.09Z"/>
  <path class="cls-5" d="M29.59,113.22A6.18,6.18,0,1,1,23.41,107,6.18,6.18,0,0,1,29.59,113.22Z"/>
  <path class="cls-5" d="M177.81,524.56a4,4,0,1,1-4-4A4,4,0,0,1,177.81,524.56Z"/>
  <path class="cls-5" d="M37.06,507.13a4.82,4.82,0,1,1-4.81-4.82A4.81,4.81,0,0,1,37.06,507.13Z"/>
  <path class="cls-5" d="M71.36,408.2a4.82,4.82,0,1,1-4.82-4.82A4.82,4.82,0,0,1,71.36,408.2Z"/>
  <path class="cls-5" d="M428,625.77A4.82,4.82,0,1,1,423.2,621,4.82,4.82,0,0,1,428,625.77Z"/>
  <path class="cls-5" d="M191.6,96.83a6.18,6.18,0,1,1-6.17-6.17A6.17,6.17,0,0,1,191.6,96.83Z"/>
  <path class="cls-5" d="M80.86,29.55a6.18,6.18,0,1,1-6.18-6.18A6.18,6.18,0,0,1,80.86,29.55Z"/>
  <path class="cls-5" d="M453.25,253.09a4.89,4.89,0,1,1-4.88-4.89A4.88,4.88,0,0,1,453.25,253.09Z"/>
  <path class="cls-5" d="M449,444.34a3.64,3.64,0,1,1-3.64-3.64A3.64,3.64,0,0,1,449,444.34Z"/>
  <path class="cls-5" d="M398.51,472.27a4.24,4.24,0,1,1-4.24-4.24A4.24,4.24,0,0,1,398.51,472.27Z"/>
  <path class="cls-5" d="M450.46,520.09a4.37,4.37,0,1,1-4.37-4.36A4.37,4.37,0,0,1,450.46,520.09Z"/>
  <path class="cls-5" d="M90.61,613.82a6.18,6.18,0,1,1-6.18-6.18A6.18,6.18,0,0,1,90.61,613.82Z"/>
  <g>
    <polygon points="259.26 617.52 65.89 338.4 259.26 59.1 452.36 337.85 259.26 617.52"/>
    <polygon class="cls-7" points="259.21 91.92 424.04 327.56 259.27 565.62 259.27 568.03 94.66 327.47 259.21 91.92"/>
    <line class="cls-8" x1="65.16" y1="328.2" x2="453.45" y2="328.2"/>
    <polygon points="259.26 464.28 167.73 331.06 259.26 205.89 259.26 205.89 351.58 332.67 259.26 464.28 259.26 464.28"/>
    <polygon class="cls-9" points="260.06 458.68 169.35 329.49 260.06 200.29 260.06 200.29 350.78 329.49 260.06 458.68 260.06 458.68"/>
    <polygon points="299.83 180.87 292.75 180.87 292.75 137.93 299.83 148.11 299.83 180.87"/>
    <rect x="292.75" y="175.04" width="21.04" height="5.83"/>
    <rect x="307.46" y="166.15" width="6.34" height="14.72"/>
    <path d="M313.86,159.4a3.23,3.23,0,1,1-3.23-3.23A3.23,3.23,0,0,1,313.86,159.4Z"/>
    <path d="M225.48,178.14a5.52,5.52,0,1,1-5.52-5.51A5.52,5.52,0,0,1,225.48,178.14Z"/>
    <path d="M325.67,211.59a3.23,3.23,0,1,1-3.23-3.23A3.23,3.23,0,0,1,325.67,211.59Z"/>
    <path d="M336.71,248.44a3.23,3.23,0,1,1-3.23-3.24A3.23,3.23,0,0,1,336.71,248.44Z"/>
    <path class="cls-10" d="M311.78,248.44a3.23,3.23,0,1,1-3.23-3.24A3.23,3.23,0,0,1,311.78,248.44Z"/>
    <path class="cls-10" d="M401.73,319.3a3.23,3.23,0,1,1-3.23-3.23A3.23,3.23,0,0,1,401.73,319.3Z"/>
    <path d="M330.2,322.45a1.42,1.42,0,1,1-1.42-1.42A1.42,1.42,0,0,1,330.2,322.45Z"/>
    <path d="M313.31,328.7a1.42,1.42,0,1,1-2.84,0,1.42,1.42,0,0,1,2.84,0Z"/>
    <path d="M341.9,322.45a1.42,1.42,0,1,1-1.42-1.42A1.41,1.41,0,0,1,341.9,322.45Z"/>
    <path class="cls-10" d="M327.55,383.92a4.44,4.44,0,1,1-4.44-4.45A4.44,4.44,0,0,1,327.55,383.92Z"/>
    <path d="M336.83,410a3.24,3.24,0,1,1-3.24-3.23A3.23,3.23,0,0,1,336.83,410Z"/>
    <path d="M336.83,430.44a3.24,3.24,0,1,1-3.24-3.23A3.23,3.23,0,0,1,336.83,430.44Z"/>
    <path d="M295.16,464.28a3.23,3.23,0,1,1-3.23-3.23A3.23,3.23,0,0,1,295.16,464.28Z"/>
    <path class="cls-10" d="M304.39,464.28a3.23,3.23,0,1,1-3.23-3.23A3.23,3.23,0,0,1,304.39,464.28Z"/>
    <path d="M314.07,464.28a3.23,3.23,0,1,1-3.23-3.23A3.23,3.23,0,0,1,314.07,464.28Z"/>
    <path d="M276.71,516.36a3.23,3.23,0,1,1-3.23,3.23A3.23,3.23,0,0,1,276.71,516.36Z"/>
    <path class="cls-11" d="M276.71,507.13a3.23,3.23,0,1,1-3.23,3.23A3.23,3.23,0,0,1,276.71,507.13Z"/>
    <path d="M276.71,497.45a3.23,3.23,0,1,1-3.23,3.22A3.23,3.23,0,0,1,276.71,497.45Z"/>
    <path d="M411.88,319.3a3.23,3.23,0,1,1-3.23-3.23A3.23,3.23,0,0,1,411.88,319.3Z"/>
    <path class="cls-11" d="M336.71,232.54a3.23,3.23,0,1,1-3.23-3.24A3.23,3.23,0,0,1,336.71,232.54Z"/>
    <path class="cls-11" d="M376.89,266a1.73,1.73,0,1,1-1.72-1.73A1.72,1.72,0,0,1,376.89,266Z"/>
    <rect x="214.75" y="117.17" width="10.8" height="52.25"/>
    <rect x="275.31" y="180.34" width="10.8" height="10.76"/>
    <rect x="275.31" y="200.51" width="10.8" height="21.06"/>
    <rect x="235.35" y="91.04" width="10.8" height="113.13"/>
    <rect class="cls-10" x="319.06" y="221.58" width="6.77" height="26.62"/>
    <rect class="cls-10" x="319.06" y="251.99" width="6.77" height="7.07"/>
    <path d="M192.85,222.07a3.23,3.23,0,1,0,3.23-3.23A3.23,3.23,0,0,0,192.85,222.07Z"/>
    <path d="M196.08,245.81a3.23,3.23,0,1,0,3.23-3.23A3.23,3.23,0,0,0,196.08,245.81Z"/>
    <path class="cls-11" d="M123.88,322.83a3.89,3.89,0,1,0,3.89-3.89A3.89,3.89,0,0,0,123.88,322.83Z"/>
    <path class="cls-11" d="M125.49,355.55a3.89,3.89,0,1,0,3.89-3.89A3.89,3.89,0,0,0,125.49,355.55Z"/>
    <path class="cls-10" d="M143,355.55a3.89,3.89,0,1,0,3.89-3.89A3.89,3.89,0,0,0,143,355.55Z"/>
    <path d="M160.9,355.55a3.89,3.89,0,1,0,3.89-3.89A3.89,3.89,0,0,0,160.9,355.55Z"/>
    <path d="M143.07,394.84A3.89,3.89,0,1,0,147,391,3.89,3.89,0,0,0,143.07,394.84Z"/>
    <path class="cls-11" d="M214.3,430.6a3.89,3.89,0,1,0,3.89-3.89A3.89,3.89,0,0,0,214.3,430.6Z"/>
    <path class="cls-10" d="M214.3,443.45a3.89,3.89,0,1,0,3.89-3.89A3.89,3.89,0,0,0,214.3,443.45Z"/>
    <path d="M214.3,456.78a3.89,3.89,0,1,0,3.89-3.89A3.89,3.89,0,0,0,214.3,456.78Z"/>
    <path class="cls-10" d="M228.07,494.73a3.89,3.89,0,1,0,3.89-3.89A3.89,3.89,0,0,0,228.07,494.73Z"/>
    <circle cx="231.96" cy="507.59" r="3.89"/>
    <circle class="cls-10" cx="231.96" cy="520.91" r="3.89"/>
    <path d="M107.77,322.83a3.89,3.89,0,1,0,3.89-3.89A3.89,3.89,0,0,0,107.77,322.83Z"/>
    <rect class="cls-10" x="179.32" y="188.06" width="20.89" height="13.86"/>
    <rect x="157.6" y="218.69" width="33.52" height="6.77"/>
    <rect class="cls-10" x="136.31" y="239.96" width="54.81" height="11.71"/>
    <rect class="cls-10" x="194.36" y="239.96" width="7.85" height="11.71"/>
    <rect x="119.55" y="259.34" width="54.81" height="11.71"/>
    <rect x="94.38" y="289.81" width="54.81" height="7.91"/>
    <rect class="cls-10" x="100.45" y="306.36" width="34.12" height="7.91"/>
    <rect class="cls-10" x="151.91" y="334" width="16.61" height="5.53"/>
    <rect class="cls-10" x="125.49" y="334" width="4.54" height="5.53"/>
    <rect class="cls-10" x="108.25" y="334" width="13.59" height="5.53"/>
    <rect x="134.58" y="342.81" width="33.95" height="5.53"/>
    <rect x="115.55" y="363.56" width="33.95" height="5.53"/>
    <rect x="180.11" y="377.73" width="25.68" height="5.53"/>
    <rect x="172.49" y="377.73" width="5.91" height="5.53"/>
    <rect x="178.8" y="434.92" width="5.53" height="33.06"/>
    <rect x="215.42" y="483.3" width="5.53" height="33.06"/>
    <rect x="190.81" y="461.88" width="8.3" height="33.06"/>
    <rect x="188.04" y="434.92" width="5.53" height="21.85"/>
    <rect x="193.57" y="434.92" width="5.53" height="21.85"/>
    <rect x="168.68" y="426.71" width="41.35" height="5.53"/>
    <rect x="240.31" y="498.37" width="19.53" height="5.53"/>
    <rect x="240.31" y="532.24" width="19.53" height="4.04"/>
    <rect x="240.31" y="510.82" width="19.53" height="5.53"/>
    <rect x="204.49" y="462.8" width="41.35" height="5.53"/>
    <rect x="168.68" y="426.71" width="5.53" height="18.6"/>
    <rect x="204.49" y="426.71" width="5.53" height="41.27"/>
    <rect x="240.31" y="462.63" width="5.53" height="53.72"/>
    <rect x="240.59" y="532.24" width="8.02" height="24.82"/>
    <rect class="cls-10" x="170.64" y="418.47" width="29.57" height="5.53"/>
    <rect class="cls-10" x="203.43" y="418.47" width="6.59" height="5.53"/>
    <polygon points="214.42 398.41 211.78 390.9 169.44 390.9 169.44 398.41 214.42 398.41"/>
    <rect x="135.3" y="406.51" width="40.31" height="6.18"/>
    <rect x="169.44" y="390.9" width="6.18" height="21.78"/>
    <rect x="141.27" y="289.82" width="7.91" height="27.4"/>
    <rect x="141.27" y="309.31" width="83.89" height="7.91"/>
    <rect x="158.96" y="286.18" width="29.19" height="7.59"/>
    <rect class="cls-10" x="158.96" y="293.77" width="29.19" height="7.59"/>
    <rect class="cls-10" x="153.2" y="293.77" width="3.14" height="7.59"/>
    <rect x="181.11" y="259.34" width="11.95" height="11.71"/>
    <rect x="198.51" y="259.34" width="11.95" height="11.71"/>
    <polygon class="cls-10" points="364.66 265.19 357.89 265.19 357.89 231.68 364.66 241.35 364.66 265.19"/>
    <polygon points="374.49 260.52 367.72 260.52 367.72 245.21 374.49 255.09 374.49 260.52"/>
    <rect x="318.65" y="416.49" width="9.83" height="33.53"/>
    <rect x="318.65" y="396.32" width="9.83" height="14.59"/>
    <rect x="272.7" y="435.91" width="6.29" height="45.16"/>
    <rect x="292.56" y="480.24" width="6.29" height="54.16"/>
    <rect x="318.65" y="440.21" width="9.83" height="57.24"/>
    <rect x="289.25" y="440.16" width="39.23" height="8.14"/>
    <rect class="cls-10" x="344.52" y="418.47" width="12.12" height="26.61"/>
    <rect class="cls-10" x="344.52" y="411.01" width="12.12" height="3.83"/>
    <rect x="362.88" y="335.73" width="9.83" height="40.78"/>
    <rect x="372.71" y="335.73" width="43.37" height="8.33"/>
    <rect x="362.88" y="368.17" width="43.37" height="8.33"/>
    <polygon points="387.06 275.84 361.28 275.84 361.28 271.67 384.26 271.67 387.06 275.84"/>
    <rect x="332.51" y="286.81" width="7.49" height="6.96"/>
    <rect class="cls-10" x="367.36" y="297.41" width="7.49" height="8.76"/>
    <polygon class="cls-10" points="410.15 306.18 377.1 306.18 377.1 297.41 403.33 297.41 410.15 306.18"/>
    <rect x="391.89" y="351.13" width="6.61" height="25.37"/>
    <rect class="cls-10" x="351.77" y="359.64" width="4.44" height="17.07"/>
    <rect x="356.22" y="359.64" width="4.45" height="17.07"/>
    <rect x="369.4" y="384.21" width="6.61" height="28.71"/>
    <rect class="cls-10" x="285.11" y="491.85" width="6.61" height="35.73"/>
    <rect class="cls-10" x="285.11" y="483.07" width="6.61" height="4.65"/>
    <rect class="cls-10" x="256.05" y="545.76" width="6.61" height="35.73"/>
    <rect x="273.48" y="474.46" width="25.37" height="6.61"/>
    <rect x="376.96" y="351.13" width="21.12" height="6.61"/>
    <polyline class="cls-11" points="305.77 322.5 320.19 322.5 329.94 329.99 348.94 329.99"/>
    <polyline class="cls-11" points="305.77 325.89 318.29 325.89 328.04 333.39 347.04 333.39"/>
    <polyline class="cls-11" points="250.78 368.02 250.78 407.6 239 418.93 239 428.98"/>
    <polyline class="cls-11" points="289.08 359.28 301.65 369.88 301.65 400.51"/>
    <polyline class="cls-11" points="298.18 301.8 306.12 301.8 313.15 310.74 336.81 310.74"/>
    <polyline class="cls-11" points="320.84 375 334.49 375 346.59 390.39 387.29 390.39"/>
    <polyline class="cls-11" points="124.93 370.53 138.59 370.53 150.69 385.92 204.23 385.92"/>
    <polyline class="cls-11" points="303.13 310.74 311.06 310.74 318.1 319.69 343.09 319.69"/>
    <polyline class="cls-11" points="186.21 304.32 188.47 304.32 195.51 313.27 216.48 313.27"/>
    <polyline class="cls-11" points="170.03 331.26 177.97 331.26 185.01 336.76 215.52 336.76"/>
    <polyline class="cls-11" points="122.5 283.84 169.82 283.84 180.73 275.3 205.94 275.3"/>
    <polyline class="cls-11" points="288.53 241.08 335.84 241.08 346.75 232.54 357.17 232.54"/>
    <polygon points="184.3 351.15 218.86 351.15 218.86 372.53 237.03 372.53 237.03 408.31 224.52 408.31 184.3 351.15"/>
    <polygon points="304.52 263.6 277.26 263.6 277.26 247.1 248.86 247.1 248.86 219.48 273.54 219.48 304.52 263.6"/>
    <polygon points="265.28 449.38 265.28 387.55 292.7 387.55 292.7 411.39 265.28 449.38"/>
    <polyline points="304.79 394.15 304.79 333.79 346.56 333.79"/>
    <polygon points="309.94 270.18 295.8 270.18 295.8 292.11 311.68 292.11 311.68 303.47 333.32 303.47 309.94 270.18"/>
    <polygon points="202.69 282.83 240.43 282.83 240.43 247.78 227.3 247.78 202.69 282.83"/>
    <polygon points="187.01 350.23 221.56 350.23 221.56 371.61 239.74 371.61 239.74 407.38 227.22 407.38 187.01 350.23"/>
    <polyline class="cls-11" points="249.78 102.55 249.78 138.93 270.85 158.21 270.85 216.26"/>
    <g>
      <polygon class="cls-12" points="259.52 49.92 244.81 70.68 433.45 341.85 452.8 328.42 259.52 49.92"/>
      <polygon class="cls-13" points="433.25 341.99 444.02 315.76 415.68 316.67 433.25 341.99"/>
      <path class="cls-10" d="M436.85,320.73c-2.45-3.53-7-4.62-10.15-2.43s-3.71,6.82-1.26,10.36,7,4.62,10.15,2.43S439.3,324.27,436.85,320.73Z"/>
      <path class="cls-14" d="M433.61,323a3,3,0,1,0-.55,4.48A3.19,3.19,0,0,0,433.61,323Z"/>
      <polygon class="cls-13" points="415.68 316.67 426.45 290.44 398.1 291.36 415.68 316.67"/>
      <path class="cls-10" d="M419.28,295.42c-2.45-3.54-7-4.63-10.15-2.44s-3.72,6.82-1.26,10.36,7,4.62,10.15,2.44S421.73,299,419.28,295.42Z"/>
      <path class="cls-14" d="M416,297.67a3,3,0,1,0-.55,4.47A3.2,3.2,0,0,0,416,297.67Z"/>
      <polygon class="cls-13" points="398.1 291.36 408.87 265.13 380.53 266.04 398.1 291.36"/>
      <polygon class="cls-13" points="270.38 70.82 264.95 84.03 279.23 83.57 270.38 70.82"/>
      <polygon class="cls-10" points="270.76 75.15 267.98 81.93 275.31 81.69 270.76 75.15"/>
      <polygon class="cls-14" points="271.19 77.84 270.12 80.44 272.94 80.35 271.19 77.84"/>
      <polygon class="cls-13" points="287.78 95.89 282.36 109.1 296.63 108.64 287.78 95.89"/>
      <polygon class="cls-10" points="288.16 100.22 285.38 107 292.71 106.77 288.16 100.22"/>
      <polygon class="cls-14" points="288.59 102.91 287.52 105.51 290.34 105.42 288.59 102.91"/>
      <polygon class="cls-13" points="305.35 121.21 299.93 134.42 314.2 133.96 305.35 121.21"/>
      <polygon class="cls-10" points="305.74 125.54 302.95 132.32 310.28 132.08 305.74 125.54"/>
      <polygon class="cls-14" points="306.16 128.23 305.09 130.83 307.91 130.74 306.16 128.23"/>
      <polygon class="cls-13" points="323 146.65 317.58 159.86 331.86 159.4 323 146.65"/>
      <polygon class="cls-10" points="323.39 150.98 320.61 157.76 327.94 157.52 323.39 150.98"/>
      <polygon class="cls-14" points="323.82 153.67 322.75 156.27 325.56 156.18 323.82 153.67"/>
      <polygon class="cls-13" points="340.41 171.72 334.99 184.93 349.26 184.47 340.41 171.72"/>
      <polygon class="cls-10" points="340.79 176.05 338.01 182.83 345.34 182.6 340.79 176.05"/>
      <polygon class="cls-14" points="341.22 178.74 340.15 181.34 342.96 181.25 341.22 178.74"/>
      <polygon class="cls-13" points="357.98 197.04 352.56 210.25 366.83 209.79 357.98 197.04"/>
      <polygon class="cls-10" points="358.36 201.37 355.58 208.15 362.91 207.91 358.36 201.37"/>
      <polygon class="cls-14" points="358.79 204.06 357.72 206.66 360.54 206.57 358.79 204.06"/>
      <polygon class="cls-13" points="375.72 222.6 370.3 235.81 384.57 235.35 375.72 222.6"/>
      <polygon class="cls-10" points="376.11 226.93 373.32 233.71 380.65 233.47 376.11 226.93"/>
      <polygon class="cls-14" points="376.53 229.62 375.46 232.22 378.28 232.13 376.53 229.62"/>
      <polygon class="cls-13" points="393.12 247.67 387.7 260.88 401.97 260.43 393.12 247.67"/>
      <polygon class="cls-10" points="393.51 252 390.72 258.79 398.05 258.55 393.51 252"/>
      <polygon class="cls-14" points="393.94 254.69 392.87 257.3 395.68 257.21 393.94 254.69"/>
      <polygon class="cls-13" points="410.69 272.99 405.27 286.2 419.54 285.74 410.69 272.99"/>
      <polygon class="cls-10" points="411.08 277.32 408.29 284.1 415.62 283.87 411.08 277.32"/>
      <polygon class="cls-14" points="411.51 280.01 410.44 282.62 413.25 282.52 411.51 280.01"/>
      <polygon class="cls-13" points="428.63 298.83 423.2 312.04 437.48 311.58 428.63 298.83"/>
      <polygon class="cls-10" points="429.01 303.16 426.23 309.94 433.55 309.71 429.01 303.16"/>
      <polygon class="cls-14" points="429.44 305.85 428.37 308.46 431.18 308.36 429.44 305.85"/>
      <path class="cls-10" d="M401.71,270.1c-2.45-3.53-7-4.63-10.15-2.44s-3.72,6.83-1.26,10.36,7,4.62,10.14,2.44S404.16,273.63,401.71,270.1Z"/>
      <path class="cls-14" d="M398.47,272.35a3,3,0,1,0-.55,4.47A3.2,3.2,0,0,0,398.47,272.35Z"/>
      <polygon class="cls-13" points="380.53 266.04 391.3 239.81 362.96 240.72 380.53 266.04"/>
      <path class="cls-10" d="M384.14,244.78c-2.45-3.53-7-4.63-10.15-2.44s-3.72,6.83-1.27,10.36,7,4.63,10.15,2.44S386.59,248.31,384.14,244.78Z"/>
      <path class="cls-14" d="M380.9,247a3,3,0,1,0-.55,4.48A3.2,3.2,0,0,0,380.9,247Z"/>
      <polygon class="cls-13" points="362.96 240.72 373.73 214.49 345.39 215.4 362.96 240.72"/>
      <path class="cls-10" d="M366.57,219.46c-2.46-3.53-7-4.62-10.15-2.43s-3.72,6.82-1.27,10.35,7,4.63,10.15,2.44S369,223,366.57,219.46Z"/>
      <path class="cls-14" d="M363.33,221.71a3,3,0,1,0-.55,4.48A3.21,3.21,0,0,0,363.33,221.71Z"/>
      <polygon class="cls-13" points="345.39 215.4 356.16 189.17 327.82 190.09 345.39 215.4"/>
      <path class="cls-10" d="M349,194.14c-2.46-3.53-7-4.62-10.15-2.43s-3.72,6.82-1.27,10.36,7,4.62,10.15,2.43S351.45,197.68,349,194.14Z"/>
      <path class="cls-14" d="M345.76,196.39a3,3,0,1,0-.55,4.48A3.22,3.22,0,0,0,345.76,196.39Z"/>
      <polygon class="cls-13" points="327.82 190.09 338.59 163.85 310.25 164.77 327.82 190.09"/>
      <path class="cls-10" d="M331.42,168.83c-2.45-3.54-7-4.63-10.14-2.44s-3.72,6.82-1.27,10.36,7,4.62,10.15,2.44S333.88,172.36,331.42,168.83Z"/>
      <path class="cls-14" d="M328.18,171.08a3,3,0,1,0-.54,4.47A3.2,3.2,0,0,0,328.18,171.08Z"/>
      <polygon class="cls-13" points="310.25 164.77 321.02 138.54 292.68 139.45 310.25 164.77"/>
      <path class="cls-10" d="M313.85,143.51c-2.45-3.53-7-4.63-10.14-2.44s-3.72,6.83-1.27,10.36,7,4.63,10.15,2.44S316.31,147,313.85,143.51Z"/>
      <path class="cls-14" d="M310.61,145.76a3,3,0,1,0-.54,4.47A3.19,3.19,0,0,0,310.61,145.76Z"/>
      <polygon class="cls-13" points="292.68 139.45 303.45 113.22 275.11 114.13 292.68 139.45"/>
      <path class="cls-10" d="M296.28,118.19c-2.45-3.53-7-4.62-10.15-2.44s-3.71,6.83-1.26,10.36,7,4.63,10.15,2.44S298.73,121.72,296.28,118.19Z"/>
      <path class="cls-14" d="M293,120.44a3,3,0,1,0-.55,4.48A3.19,3.19,0,0,0,293,120.44Z"/>
      <polygon class="cls-13" points="275.11 114.13 285.88 87.9 257.54 88.81 275.11 114.13"/>
      <path class="cls-10" d="M278.71,92.87c-2.45-3.53-7-4.62-10.15-2.43s-3.72,6.82-1.26,10.36,7,4.62,10.15,2.43S281.16,96.41,278.71,92.87Z"/>
      <path class="cls-14" d="M275.47,95.12a3,3,0,1,0-.55,4.48A3.19,3.19,0,0,0,275.47,95.12Z"/>
      <polygon class="cls-13" points="257.54 88.81 268.3 62.58 244.62 70.82 257.54 88.81"/>
      <path class="cls-10" d="M261.14,67.56c-2.45-3.54-7-4.63-10.15-2.44s-3.72,6.82-1.26,10.36,7,4.62,10.14,2.44S263.59,71.09,261.14,67.56Z"/>
      <path class="cls-14" d="M257.9,69.8a3,3,0,1,0-.55,4.48A3.21,3.21,0,0,0,257.9,69.8Z"/>
    </g>
    <g>
      <polygon class="cls-12" points="259.18 49.92 273.58 70.3 85.25 341.85 65.89 328.42 259.18 49.92"/>
      <polygon class="cls-13" points="85.45 341.99 74.68 315.76 103.02 316.67 85.45 341.99"/>
      <path class="cls-10" d="M81.84,320.73c2.46-3.53,7-4.62,10.15-2.43s3.72,6.82,1.27,10.36-7,4.62-10.15,2.43S79.39,324.27,81.84,320.73Z"/>
      <path class="cls-14" d="M85.08,323a3,3,0,1,1,.55,4.48A3.21,3.21,0,0,1,85.08,323Z"/>
      <polygon class="cls-13" points="103.02 316.67 92.25 290.44 120.59 291.36 103.02 316.67"/>
      <path class="cls-10" d="M99.41,295.42c2.46-3.54,7-4.63,10.15-2.44s3.72,6.82,1.27,10.36-7,4.62-10.15,2.44S97,299,99.41,295.42Z"/>
      <path class="cls-14" d="M102.66,297.67a3,3,0,1,1,.54,4.47A3.2,3.2,0,0,1,102.66,297.67Z"/>
      <polygon class="cls-13" points="120.59 291.36 109.82 265.13 138.16 266.04 120.59 291.36"/>
      <polygon class="cls-13" points="248.32 70.82 253.74 84.03 239.47 83.57 248.32 70.82"/>
      <polygon class="cls-10" points="247.93 75.15 250.72 81.93 243.39 81.69 247.93 75.15"/>
      <polygon class="cls-14" points="247.5 77.84 248.57 80.44 245.76 80.35 247.5 77.84"/>
      <polygon class="cls-13" points="230.92 95.89 236.34 109.1 222.07 108.64 230.92 95.89"/>
      <polygon class="cls-10" points="230.53 100.22 233.32 107 225.99 106.77 230.53 100.22"/>
      <polygon class="cls-14" points="230.1 102.91 231.17 105.51 228.36 105.42 230.1 102.91"/>
      <polygon class="cls-13" points="213.35 121.21 218.77 134.42 204.5 133.96 213.35 121.21"/>
      <polygon class="cls-10" points="212.96 125.54 215.75 132.32 208.42 132.08 212.96 125.54"/>
      <polygon class="cls-14" points="212.53 128.23 213.6 130.83 210.79 130.74 212.53 128.23"/>
      <polygon class="cls-13" points="195.69 146.65 201.11 159.86 186.84 159.4 195.69 146.65"/>
      <polygon class="cls-10" points="195.31 150.98 198.09 157.76 190.76 157.52 195.31 150.98"/>
      <polygon class="cls-14" points="194.88 153.67 195.95 156.27 193.13 156.18 194.88 153.67"/>
      <polygon class="cls-13" points="178.29 171.72 183.71 184.93 169.44 184.47 178.29 171.72"/>
      <polygon class="cls-10" points="177.9 176.05 180.69 182.83 173.36 182.6 177.9 176.05"/>
      <polygon class="cls-14" points="177.47 178.74 178.54 181.34 175.73 181.25 177.47 178.74"/>
      <polygon class="cls-13" points="160.72 197.04 166.14 210.25 151.87 209.79 160.72 197.04"/>
      <polygon class="cls-10" points="160.33 201.37 163.12 208.15 155.79 207.91 160.33 201.37"/>
      <polygon class="cls-14" points="159.91 204.06 160.97 206.66 158.16 206.57 159.91 204.06"/>
      <polygon class="cls-13" points="142.98 222.6 148.4 235.81 134.13 235.35 142.98 222.6"/>
      <polygon class="cls-10" points="142.59 226.93 145.38 233.71 138.05 233.47 142.59 226.93"/>
      <polygon class="cls-14" points="142.16 229.62 143.23 232.22 140.42 232.13 142.16 229.62"/>
      <polygon class="cls-13" points="125.58 247.67 131 260.88 116.73 260.43 125.58 247.67"/>
      <polygon class="cls-10" points="125.19 252 127.98 258.79 120.65 258.55 125.19 252"/>
      <polygon class="cls-14" points="124.76 254.69 125.83 257.3 123.02 257.21 124.76 254.69"/>
      <polygon class="cls-13" points="108 272.99 113.43 286.2 99.16 285.74 108 272.99"/>
      <polygon class="cls-10" points="107.62 277.32 110.41 284.1 103.08 283.87 107.62 277.32"/>
      <polygon class="cls-14" points="107.19 280.01 108.26 282.62 105.45 282.52 107.19 280.01"/>
      <polygon class="cls-13" points="90.07 298.83 95.49 312.04 81.22 311.58 90.07 298.83"/>
      <polygon class="cls-10" points="89.69 303.16 92.47 309.94 85.14 309.71 89.69 303.16"/>
      <polygon class="cls-14" points="89.26 305.85 90.33 308.46 87.51 308.36 89.26 305.85"/>
      <path class="cls-10" d="M117,270.1c2.45-3.53,7-4.63,10.14-2.44s3.72,6.83,1.27,10.36-7,4.62-10.15,2.44S114.53,273.63,117,270.1Z"/>
      <path class="cls-14" d="M120.23,272.35a3,3,0,1,1,.54,4.47A3.19,3.19,0,0,1,120.23,272.35Z"/>
      <polygon class="cls-13" points="138.16 266.04 127.39 239.81 155.73 240.72 138.16 266.04"/>
      <path class="cls-10" d="M134.56,244.78c2.45-3.53,7-4.63,10.15-2.44s3.71,6.83,1.26,10.36-7,4.63-10.15,2.44S132.11,248.31,134.56,244.78Z"/>
      <path class="cls-14" d="M137.8,247a3,3,0,1,1,.55,4.48A3.19,3.19,0,0,1,137.8,247Z"/>
      <polygon class="cls-13" points="155.73 240.72 144.97 214.49 173.31 215.4 155.73 240.72"/>
      <path class="cls-10" d="M152.13,219.46c2.45-3.53,7-4.62,10.15-2.43s3.71,6.82,1.26,10.35-7,4.63-10.14,2.44S149.68,223,152.13,219.46Z"/>
      <path class="cls-14" d="M155.37,221.71a3,3,0,1,1,.55,4.48A3.2,3.2,0,0,1,155.37,221.71Z"/>
      <polygon class="cls-13" points="173.31 215.4 162.53 189.17 190.88 190.09 173.31 215.4"/>
      <path class="cls-10" d="M169.7,194.14c2.45-3.53,7-4.62,10.15-2.43s3.72,6.82,1.26,10.36-7,4.62-10.14,2.43S167.25,197.68,169.7,194.14Z"/>
      <path class="cls-14" d="M172.94,196.39a3,3,0,1,1,.55,4.48A3.21,3.21,0,0,1,172.94,196.39Z"/>
      <polygon class="cls-13" points="190.88 190.09 180.11 163.85 208.45 164.77 190.88 190.09"/>
      <path class="cls-10" d="M187.27,168.83c2.45-3.54,7-4.63,10.15-2.44s3.72,6.82,1.27,10.36-7,4.62-10.15,2.44S184.82,172.36,187.27,168.83Z"/>
      <path class="cls-14" d="M190.51,171.08a3,3,0,1,1,.55,4.47A3.21,3.21,0,0,1,190.51,171.08Z"/>
      <polygon class="cls-13" points="208.45 164.77 197.68 138.54 226.02 139.45 208.45 164.77"/>
      <path class="cls-10" d="M204.84,143.51c2.45-3.53,7-4.63,10.15-2.44s3.72,6.83,1.27,10.36-7,4.63-10.15,2.44S202.39,147,204.84,143.51Z"/>
      <path class="cls-14" d="M208.08,145.76a3,3,0,1,1,.55,4.47A3.2,3.2,0,0,1,208.08,145.76Z"/>
      <polygon class="cls-13" points="226.02 139.45 215.25 113.22 243.59 114.13 226.02 139.45"/>
      <path class="cls-10" d="M222.41,118.19c2.46-3.53,7-4.62,10.15-2.44s3.72,6.83,1.27,10.36-7,4.63-10.15,2.44S220,121.72,222.41,118.19Z"/>
      <path class="cls-14" d="M225.65,120.44a3,3,0,1,1,.55,4.48A3.2,3.2,0,0,1,225.65,120.44Z"/>
      <polygon class="cls-13" points="243.59 114.13 232.82 87.9 261.16 88.81 243.59 114.13"/>
      <path class="cls-10" d="M240,92.87c2.46-3.53,7-4.62,10.15-2.43s3.72,6.82,1.27,10.36-7,4.62-10.15,2.43S237.53,96.41,240,92.87Z"/>
      <path class="cls-14" d="M243.23,95.12a3,3,0,1,1,.54,4.48A3.19,3.19,0,0,1,243.23,95.12Z"/>
      <polygon class="cls-13" points="261.16 88.81 250.39 62.58 273.78 70.43 261.16 88.81"/>
      <path class="cls-10" d="M257.56,67.56c2.45-3.54,7-4.63,10.14-2.44s3.72,6.82,1.27,10.36-7,4.62-10.15,2.44S255.1,71.09,257.56,67.56Z"/>
      <path class="cls-14" d="M260.8,69.8a3,3,0,1,1,.55,4.48A3.2,3.2,0,0,1,260.8,69.8Z"/>
    </g>
    <g>
      <polygon class="cls-15" points="259.82 607.28 273.41 588.08 85.89 315.35 66.54 328.79 259.82 607.28"/>
      <polygon class="cls-13" points="85.45 315.21 74.68 341.45 103.02 340.53 85.45 315.21"/>
      <path class="cls-10" d="M81.84,336.47c2.46,3.54,7,4.63,10.15,2.44s3.72-6.82,1.27-10.36-7-4.62-10.15-2.43S79.39,332.94,81.84,336.47Z"/>
      <path class="cls-14" d="M85.08,334.22a3,3,0,1,0,.55-4.47A3.21,3.21,0,0,0,85.08,334.22Z"/>
      <polygon class="cls-13" points="103.02 340.53 92.25 366.76 120.59 365.85 103.02 340.53"/>
      <path class="cls-10" d="M99.41,361.79c2.46,3.53,7,4.63,10.15,2.44s3.72-6.83,1.27-10.36-7-4.62-10.15-2.44S97,358.26,99.41,361.79Z"/>
      <path class="cls-14" d="M102.66,359.54a3,3,0,1,0,.54-4.47A3.19,3.19,0,0,0,102.66,359.54Z"/>
      <polygon class="cls-13" points="120.59 365.85 109.82 392.08 138.16 391.17 120.59 365.85"/>
      <polygon class="cls-13" points="248.32 586.39 253.74 573.18 239.47 573.64 248.32 586.39"/>
      <polygon class="cls-10" points="247.93 582.06 250.72 575.28 243.39 575.51 247.93 582.06"/>
      <polygon class="cls-14" points="247.5 579.37 248.57 576.77 245.76 576.86 247.5 579.37"/>
      <polygon class="cls-13" points="230.92 561.31 236.34 548.11 222.07 548.57 230.92 561.31"/>
      <polygon class="cls-10" points="230.53 556.99 233.32 550.21 225.99 550.44 230.53 556.99"/>
      <polygon class="cls-14" points="230.1 554.29 231.17 551.69 228.36 551.78 230.1 554.29"/>
      <polygon class="cls-13" points="213.35 536 218.77 522.79 204.5 523.25 213.35 536"/>
      <polygon class="cls-10" points="212.96 531.67 215.75 524.89 208.42 525.12 212.96 531.67"/>
      <polygon class="cls-14" points="212.53 528.98 213.6 526.38 210.79 526.47 212.53 528.98"/>
      <polygon class="cls-13" points="195.69 510.56 201.11 497.35 186.84 497.81 195.69 510.56"/>
      <polygon class="cls-10" points="195.31 506.23 198.09 499.45 190.76 499.69 195.31 506.23"/>
      <polygon class="cls-14" points="194.88 503.54 195.95 500.94 193.13 501.03 194.88 503.54"/>
      <polygon class="cls-13" points="178.29 485.49 183.71 472.27 169.44 472.73 178.29 485.49"/>
      <polygon class="cls-10" points="177.9 481.16 180.69 474.38 173.36 474.61 177.9 481.16"/>
      <polygon class="cls-14" points="177.47 478.47 178.54 475.86 175.73 475.95 177.47 478.47"/>
      <polygon class="cls-13" points="160.72 460.17 166.14 446.96 151.87 447.42 160.72 460.17"/>
      <polygon class="cls-10" points="160.33 455.84 163.12 449.06 155.79 449.3 160.33 455.84"/>
      <polygon class="cls-14" points="159.91 453.15 160.97 450.55 158.16 450.64 159.91 453.15"/>
      <polygon class="cls-13" points="142.98 434.61 148.4 421.4 134.13 421.86 142.98 434.61"/>
      <polygon class="cls-10" points="142.59 430.27 145.38 423.5 138.05 423.73 142.59 430.27"/>
      <polygon class="cls-14" points="142.16 427.58 143.23 424.98 140.42 425.07 142.16 427.58"/>
      <polygon class="cls-13" points="125.58 409.53 131 396.32 116.73 396.78 125.58 409.53"/>
      <polygon class="cls-10" points="125.19 405.2 127.98 398.42 120.65 398.66 125.19 405.2"/>
      <polygon class="cls-14" points="124.76 402.51 125.83 399.91 123.02 400 124.76 402.51"/>
      <polygon class="cls-13" points="108 384.21 113.43 371 99.16 371.46 108 384.21"/>
      <polygon class="cls-10" points="107.62 379.88 110.41 373.1 103.08 373.34 107.62 379.88"/>
      <polygon class="cls-14" points="107.19 377.19 108.26 374.59 105.45 374.68 107.19 377.19"/>
      <polygon class="cls-13" points="90.07 358.37 95.49 345.17 81.22 345.62 90.07 358.37"/>
      <polygon class="cls-10" points="89.69 354.05 92.47 347.26 85.14 347.5 89.69 354.05"/>
      <polygon class="cls-14" points="89.26 351.35 90.33 348.75 87.51 348.84 89.26 351.35"/>
      <path class="cls-10" d="M117,387.11c2.45,3.53,7,4.62,10.14,2.44s3.72-6.83,1.27-10.36-7-4.63-10.15-2.44S114.53,383.57,117,387.11Z"/>
      <path class="cls-14" d="M120.23,384.86a3,3,0,1,0,.54-4.47A3.19,3.19,0,0,0,120.23,384.86Z"/>
      <polygon class="cls-13" points="138.16 391.17 127.39 417.4 155.73 416.49 138.16 391.17"/>
      <path class="cls-10" d="M134.56,412.43c2.45,3.53,7,4.62,10.15,2.44S148.42,408,146,404.5s-7-4.62-10.15-2.43S132.11,408.89,134.56,412.43Z"/>
      <path class="cls-14" d="M137.8,410.18a3,3,0,1,0,.55-4.48A3.19,3.19,0,0,0,137.8,410.18Z"/>
      <polygon class="cls-13" points="155.73 416.49 144.97 442.72 173.31 441.81 155.73 416.49"/>
      <path class="cls-10" d="M152.13,437.75c2.45,3.53,7,4.62,10.15,2.43s3.71-6.82,1.26-10.36-7-4.62-10.14-2.43S149.68,434.21,152.13,437.75Z"/>
      <path class="cls-14" d="M155.37,435.5a3,3,0,1,0,.55-4.48A3.21,3.21,0,0,0,155.37,435.5Z"/>
      <polygon class="cls-13" points="173.31 441.81 162.53 468.03 190.88 467.12 173.31 441.81"/>
      <path class="cls-10" d="M169.7,463.06c2.45,3.54,7,4.63,10.15,2.44s3.72-6.82,1.26-10.36-7-4.62-10.14-2.44S167.25,459.53,169.7,463.06Z"/>
      <path class="cls-14" d="M172.94,460.81a3,3,0,1,0,.55-4.47A3.21,3.21,0,0,0,172.94,460.81Z"/>
      <polygon class="cls-13" points="190.88 467.12 180.11 493.35 208.45 492.44 190.88 467.12"/>
      <path class="cls-10" d="M187.27,488.38c2.45,3.53,7,4.62,10.15,2.44s3.72-6.83,1.27-10.36-7-4.63-10.15-2.44S184.82,484.85,187.27,488.38Z"/>
      <path class="cls-14" d="M190.51,486.13a3,3,0,1,0,.55-4.47A3.2,3.2,0,0,0,190.51,486.13Z"/>
      <polygon class="cls-13" points="208.45 492.44 197.68 518.67 226.02 517.76 208.45 492.44"/>
      <path class="cls-10" d="M204.84,513.7c2.45,3.53,7,4.62,10.15,2.44s3.72-6.83,1.27-10.36-7-4.63-10.15-2.44S202.39,510.16,204.84,513.7Z"/>
      <path class="cls-14" d="M208.08,511.45a3,3,0,1,0,.55-4.48A3.2,3.2,0,0,0,208.08,511.45Z"/>
      <polygon class="cls-13" points="226.02 517.76 215.25 543.99 243.59 543.07 226.02 517.76"/>
      <path class="cls-10" d="M222.41,539c2.46,3.54,7,4.63,10.15,2.44s3.72-6.82,1.27-10.36-7-4.62-10.15-2.43S220,535.48,222.41,539Z"/>
      <path class="cls-14" d="M225.65,536.77a3,3,0,1,0,.55-4.48A3.22,3.22,0,0,0,225.65,536.77Z"/>
      <polygon class="cls-13" points="243.59 543.07 232.82 569.31 261.16 568.39 243.59 543.07"/>
      <path class="cls-10" d="M240,564.33c2.46,3.54,7,4.63,10.15,2.44s3.72-6.82,1.27-10.36-7-4.62-10.15-2.44S237.53,560.8,240,564.33Z"/>
      <path class="cls-14" d="M243.23,562.08a3,3,0,1,0,.54-4.47A3.2,3.2,0,0,0,243.23,562.08Z"/>
      <polygon class="cls-13" points="261.16 568.39 250.39 594.62 272.96 587.94 261.16 568.39"/>
      <path class="cls-10" d="M257.56,589.65c2.45,3.53,7,4.63,10.14,2.44s3.72-6.83,1.27-10.36-7-4.62-10.15-2.44S255.1,586.12,257.56,589.65Z"/>
      <path class="cls-14" d="M260.8,587.4a3,3,0,1,0,.55-4.47A3.2,3.2,0,0,0,260.8,587.4Z"/>
    </g>
    <rect x="289.25" y="354.58" width="9.83" height="93.44"/>
    <rect x="203.43" y="410.16" width="44.21" height="5.53"/>
    <rect x="186.84" y="410.16" width="8.57" height="5.53"/>
    <rect x="242.96" y="373.43" width="4.67" height="37.05"/>
    <polygon points="310.63 188.06 299.83 188.06 299.83 227.46 268.26 227.46 268.26 227.44 264.05 227.44 264.05 227.46 264.05 233.18 264.05 283.34 268.26 283.34 268.26 233.18 310.55 233.18 310.55 232.54 310.63 232.54 310.63 201.92 335.73 201.92 326.15 188.06 310.63 188.06"/>
    <polygon points="397.13 289.95 391.32 281.62 361.14 281.62 354.34 281.62 351.31 281.62 351.31 309.18 327.12 309.18 327.12 271.21 341.46 271.21 351.29 271.21 351.29 218.69 341.46 218.69 341.46 263.8 327.12 263.8 320.99 263.8 320.99 271.21 320.99 309.18 292.7 309.18 292.7 314.9 320.99 314.9 327.12 314.9 351.31 314.9 351.31 326.72 361.14 326.72 361.14 322.45 389.48 322.45 389.48 316.14 361.14 316.14 361.14 289.95 397.13 289.95"/>
    <path d="M239,278.77a1.1,1.1,0,1,1-1.09-1.09A1.09,1.09,0,0,1,239,278.77Z"/>
    <path d="M207,278.77a1.1,1.1,0,1,1-1.1-1.09A1.1,1.1,0,0,1,207,278.77Z"/>
    <path d="M187.31,351.68a1.1,1.1,0,1,1-1.1-1.09A1.1,1.1,0,0,1,187.31,351.68Z"/>
    <path d="M310,379.08a1.42,1.42,0,1,1-1.42-1.42A1.42,1.42,0,0,1,310,379.08Z"/>
    <rect x="216.74" y="194.85" width="18.61" height="9.32"/>
    <polygon points="257.75 482.5 257.75 375.46 252.83 375.46 252.83 482.5 252.83 486.59 266.01 486.59 266.01 558.38 272.62 558.38 272.62 486.59 272.62 482.5 257.75 482.5"/>
    <polygon points="349.43 395.39 349.43 351.68 349.43 341.91 349.43 341.85 292.19 341.85 292.19 351.68 339.6 351.68 339.6 395.39 339.6 404.95 349.43 404.95 382.2 404.95 382.2 395.39 349.43 395.39"/>
    <g>
      <polygon class="cls-15" points="258.88 607.28 245.3 588.07 432.8 315.35 452.16 328.79 258.88 607.28"/>
      <polygon class="cls-13" points="433.25 315.21 444.02 341.45 415.68 340.53 433.25 315.21"/>
      <path class="cls-10" d="M436.85,336.47c-2.45,3.54-7,4.63-10.15,2.44s-3.71-6.82-1.26-10.36,7-4.62,10.15-2.43S439.3,332.94,436.85,336.47Z"/>
      <path class="cls-14" d="M433.61,334.22a3,3,0,1,1-.55-4.47A3.2,3.2,0,0,1,433.61,334.22Z"/>
      <polygon class="cls-13" points="415.68 340.53 426.45 366.76 398.1 365.85 415.68 340.53"/>
      <path class="cls-10" d="M419.28,361.79c-2.45,3.53-7,4.63-10.15,2.44s-3.72-6.83-1.26-10.36,7-4.62,10.15-2.44S421.73,358.26,419.28,361.79Z"/>
      <path class="cls-14" d="M416,359.54a3,3,0,1,1-.55-4.47A3.19,3.19,0,0,1,416,359.54Z"/>
      <polygon class="cls-13" points="398.1 365.85 408.87 392.08 380.53 391.17 398.1 365.85"/>
      <polygon class="cls-13" points="270.38 586.39 264.95 573.18 279.23 573.64 270.38 586.39"/>
      <polygon class="cls-10" points="270.76 582.06 267.98 575.28 275.31 575.51 270.76 582.06"/>
      <polygon class="cls-14" points="271.19 579.37 270.12 576.77 272.94 576.86 271.19 579.37"/>
      <polygon class="cls-13" points="287.78 561.31 282.36 548.11 296.63 548.57 287.78 561.31"/>
      <polygon class="cls-10" points="288.16 556.99 285.38 550.21 292.71 550.44 288.16 556.99"/>
      <polygon class="cls-14" points="288.59 554.3 287.52 551.69 290.34 551.78 288.59 554.3"/>
      <polygon class="cls-13" points="305.35 536 299.93 522.79 314.2 523.25 305.35 536"/>
      <polygon class="cls-10" points="305.74 531.67 302.95 524.89 310.28 525.12 305.74 531.67"/>
      <polygon class="cls-14" points="306.16 528.98 305.09 526.38 307.91 526.47 306.16 528.98"/>
      <polygon class="cls-13" points="323 510.56 317.58 497.35 331.86 497.81 323 510.56"/>
      <polygon class="cls-10" points="323.39 506.23 320.61 499.45 327.94 499.69 323.39 506.23"/>
      <polygon class="cls-14" points="323.82 503.54 322.75 500.94 325.56 501.03 323.82 503.54"/>
      <polygon class="cls-13" points="340.41 485.49 334.99 472.27 349.26 472.73 340.41 485.49"/>
      <polygon class="cls-10" points="340.79 481.16 338.01 474.38 345.34 474.61 340.79 481.16"/>
      <polygon class="cls-14" points="341.22 478.47 340.15 475.86 342.96 475.95 341.22 478.47"/>
      <polygon class="cls-13" points="357.98 460.17 352.56 446.96 366.83 447.42 357.98 460.17"/>
      <polygon class="cls-10" points="358.36 455.84 355.58 449.06 362.91 449.3 358.36 455.84"/>
      <polygon class="cls-14" points="358.79 453.15 357.72 450.55 360.54 450.64 358.79 453.15"/>
      <polygon class="cls-13" points="375.72 434.61 370.3 421.4 384.57 421.86 375.72 434.61"/>
      <polygon class="cls-10" points="376.11 430.28 373.32 423.5 380.65 423.73 376.11 430.28"/>
      <polygon class="cls-14" points="376.53 427.58 375.46 424.98 378.28 425.07 376.53 427.58"/>
      <polygon class="cls-13" points="393.12 409.53 387.7 396.32 401.97 396.78 393.12 409.53"/>
      <polygon class="cls-10" points="393.51 405.2 390.72 398.42 398.05 398.66 393.51 405.2"/>
      <polygon class="cls-14" points="393.94 402.51 392.87 399.91 395.68 400 393.94 402.51"/>
      <polygon class="cls-13" points="410.69 384.21 405.27 371.01 419.54 371.46 410.69 384.21"/>
      <polygon class="cls-10" points="411.08 379.89 408.29 373.1 415.62 373.34 411.08 379.89"/>
      <polygon class="cls-14" points="411.51 377.19 410.44 374.59 413.25 374.68 411.51 377.19"/>
      <polygon class="cls-13" points="428.63 358.37 423.2 345.17 437.48 345.62 428.63 358.37"/>
      <polygon class="cls-10" points="429.01 354.05 426.23 347.26 433.55 347.5 429.01 354.05"/>
      <polygon class="cls-14" points="429.44 351.35 428.37 348.75 431.18 348.84 429.44 351.35"/>
      <path class="cls-10" d="M401.71,387.11c-2.45,3.53-7,4.62-10.15,2.44s-3.72-6.83-1.26-10.36,7-4.63,10.14-2.44S404.16,383.58,401.71,387.11Z"/>
      <path class="cls-14" d="M398.47,384.86a3,3,0,1,1-.55-4.47A3.2,3.2,0,0,1,398.47,384.86Z"/>
      <polygon class="cls-13" points="380.53 391.17 391.3 417.4 362.96 416.49 380.53 391.17"/>
      <path class="cls-10" d="M384.14,412.43c-2.45,3.53-7,4.62-10.15,2.44s-3.72-6.83-1.27-10.37,7-4.62,10.15-2.43S386.59,408.89,384.14,412.43Z"/>
      <path class="cls-14" d="M380.9,410.18a3,3,0,1,1-.55-4.48A3.2,3.2,0,0,1,380.9,410.18Z"/>
      <polygon class="cls-13" points="362.96 416.49 373.73 442.72 345.39 441.81 362.96 416.49"/>
      <path class="cls-10" d="M366.57,437.75c-2.46,3.53-7,4.62-10.15,2.43s-3.72-6.82-1.27-10.36,7-4.62,10.15-2.43S369,434.21,366.57,437.75Z"/>
      <path class="cls-14" d="M363.33,435.5a3,3,0,1,1-.55-4.48A3.22,3.22,0,0,1,363.33,435.5Z"/>
      <polygon class="cls-13" points="345.39 441.81 356.16 468.04 327.82 467.12 345.39 441.81"/>
      <path class="cls-10" d="M349,463.06c-2.46,3.54-7,4.63-10.15,2.44s-3.72-6.82-1.27-10.36,7-4.62,10.15-2.44S351.45,459.53,349,463.06Z"/>
      <path class="cls-14" d="M345.76,460.81a3,3,0,1,1-.55-4.47A3.21,3.21,0,0,1,345.76,460.81Z"/>
      <polygon class="cls-13" points="327.82 467.12 338.59 493.35 310.25 492.44 327.82 467.12"/>
      <path class="cls-10" d="M331.42,488.38c-2.45,3.53-7,4.62-10.14,2.44S317.56,484,320,480.46s7-4.63,10.15-2.44S333.88,484.85,331.42,488.38Z"/>
      <path class="cls-14" d="M328.18,486.13a3,3,0,1,1-.54-4.47A3.19,3.19,0,0,1,328.18,486.13Z"/>
      <polygon class="cls-13" points="310.25 492.44 321.02 518.67 292.68 517.76 310.25 492.44"/>
      <path class="cls-10" d="M313.85,513.7c-2.45,3.53-7,4.62-10.14,2.44s-3.72-6.83-1.27-10.36,7-4.63,10.15-2.44S316.31,510.16,313.85,513.7Z"/>
      <path class="cls-14" d="M310.61,511.45a3,3,0,1,1-.54-4.48A3.19,3.19,0,0,1,310.61,511.45Z"/>
      <polygon class="cls-13" points="292.68 517.76 303.45 543.99 275.11 543.07 292.68 517.76"/>
      <path class="cls-10" d="M296.28,539c-2.45,3.54-7,4.63-10.15,2.44s-3.71-6.82-1.26-10.36,7-4.62,10.15-2.43S298.73,535.48,296.28,539Z"/>
      <path class="cls-14" d="M293,536.77a3,3,0,1,1-.55-4.48A3.2,3.2,0,0,1,293,536.77Z"/>
      <polygon class="cls-13" points="275.11 543.07 285.88 569.31 257.54 568.39 275.11 543.07"/>
      <path class="cls-10" d="M278.71,564.33c-2.45,3.54-7,4.63-10.15,2.44s-3.72-6.82-1.26-10.36,7-4.62,10.15-2.44S281.16,560.8,278.71,564.33Z"/>
      <path class="cls-14" d="M275.47,562.08a3,3,0,1,1-.55-4.47A3.2,3.2,0,0,1,275.47,562.08Z"/>
      <polygon class="cls-13" points="257.54 568.39 268.3 594.62 245.74 587.93 257.54 568.39"/>
      <path class="cls-10" d="M261.14,589.65c-2.45,3.53-7,4.63-10.15,2.44s-3.72-6.83-1.26-10.36,7-4.62,10.14-2.44S263.59,586.12,261.14,589.65Z"/>
      <path class="cls-14" d="M257.9,587.4a3,3,0,1,1-.55-4.47A3.21,3.21,0,0,1,257.9,587.4Z"/>
    </g>
    <polygon points="239.34 336.76 184.34 336.76 184.34 337.13 184.34 342.81 184.34 361.27 159.8 361.27 154.27 361.27 154.27 368 154.27 375.25 123.69 375.25 123.69 380.78 154.27 380.78 159.8 380.78 159.8 375.25 159.8 368 184.34 368 189.61 368 189.61 361.27 189.61 342.81 239.34 342.81 239.34 336.76"/>
    <polygon class="cls-16" points="452.8 328.42 423.96 328.42 414.27 314.71 443.24 314.71 452.8 328.42"/>
    <polygon class="cls-16" points="414.27 341.94 443.12 341.94 452.8 328.23 423.83 328.23 414.27 341.94"/>
    <polygon class="cls-17" points="65.16 328.42 94.01 328.42 103.69 314.71 74.72 314.71 65.16 328.42"/>
    <polygon class="cls-17" points="103.69 341.94 74.85 341.94 65.16 328.23 94.13 328.23 103.69 341.94"/>
    <polygon class="cls-16" points="259.35 49.92 259.27 91.35 243.59 114.13 232.82 87.9 259.35 49.92"/>
    <polygon class="cls-17" points="259.16 607.9 259.24 566.48 275.11 543.07 285.88 569.31 259.16 607.9"/>
    <polygon class="cls-17" points="243.59 543.07 232.82 569.31 259.35 607.9 259.24 566.48 243.59 543.07"/>
    <polygon points="216.74 249.7 216.74 194.99 205.94 194.99 205.94 249.7 205.94 255.09 205.94 257.3 250 257.3 250 292.68 256.77 292.68 256.77 260.49 256.77 259.16 256.77 249.7 216.74 249.7"/>
    <polygon class="cls-16" points="275.11 114.63 285.88 87.9 259.16 49.92 259.27 91.35 275.11 114.63"/>
    <line class="cls-18" x1="259.26" y1="92.28" x2="259.26" y2="49.92"/>
    <line class="cls-8" x1="94.58" y1="328.33" x2="65.16" y2="328.33"/>
    <line class="cls-8" x1="410.01" y1="328.23" x2="452.36" y2="328.23"/>
    <polygon class="cls-19" points="259.26 607.9 65.89 328.79 259.26 49.49 452.36 328.23 259.26 607.9"/>
    <path d="M271.7,81.93a3.89,3.89,0,1,1-3.89,3.89A3.89,3.89,0,0,1,271.7,81.93Z"/>
    <path d="M433.55,318.6a3,3,0,1,1-3,3A3,3,0,0,1,433.55,318.6Z"/>
    <path d="M433.55,332.11a3,3,0,1,1-3,3A3,3,0,0,1,433.55,332.11Z"/>
    <path d="M85.14,318.6a3,3,0,1,1-3,3A3,3,0,0,1,85.14,318.6Z"/>
    <path d="M85.14,332.11a3,3,0,1,1-3,3A3,3,0,0,1,85.14,332.11Z"/>
    <path d="M247.17,81.93a3.89,3.89,0,1,1-3.89,3.89A3.89,3.89,0,0,1,247.17,81.93Z"/>
    <path d="M271.7,569.29a3.89,3.89,0,1,1-3.89,3.89A3.89,3.89,0,0,1,271.7,569.29Z"/>
    <path d="M247.17,569.29a3.89,3.89,0,1,1-3.89,3.89A3.89,3.89,0,0,1,247.17,569.29Z"/>
    <polygon points="286.51 175.94 274.91 175.94 274.91 113.92 286.51 130.95 286.51 175.94"/>
    <polyline class="cls-8" points="242.55 434.92 242.55 455.85 226.02 475.86 226.02 523.18"/>
    <polyline class="cls-8" points="307.11 396.32 307.11 424.98 282.3 455.84 282.3 533.52"/>
    <path d="M259.35,175.94a5.67,5.67,0,1,1-5.67,5.67A5.67,5.67,0,0,1,259.35,175.94Z"/>
    <path class="cls-10" d="M259.35,159.73a5.68,5.68,0,1,1-5.67,5.67A5.67,5.67,0,0,1,259.35,159.73Z"/>
    <path d="M259.35,112.14a5.68,5.68,0,1,1-5.67,5.67A5.67,5.67,0,0,1,259.35,112.14Z"/>
    <polyline class="cls-11" points="159.85 234.79 194.54 234.79 204.48 221.58 246.4 221.58"/>
    <polygon class="cls-20" points="185.11 349.65 219.67 349.65 219.67 371.02 237.85 371.02 237.85 406.8 225.33 406.8 185.11 349.65"/>
    <polyline class="cls-11" points="215.28 338.65 198.53 355.48 198.53 372.3"/>
    <polyline class="cls-11" points="216.09 342.56 202.02 356.34 202.02 380.53"/>
    <path d="M217.12,351.68a1.1,1.1,0,1,1-1.09-1.09A1.09,1.09,0,0,1,217.12,351.68Z"/>
    <path d="M196.82,360.61a1.1,1.1,0,1,1-1.09-1.1A1.09,1.09,0,0,1,196.82,360.61Z"/>
    <path d="M234.46,373.36a1.1,1.1,0,1,1-1.09-1.1A1.09,1.09,0,0,1,234.46,373.36Z"/>
    <path d="M218.22,373.36a1.1,1.1,0,1,1-1.1-1.1A1.09,1.09,0,0,1,218.22,373.36Z"/>
    <path d="M234.46,402.93a1.1,1.1,0,1,1-1.09-1.1A1.09,1.09,0,0,1,234.46,402.93Z"/>
    <polyline class="cls-11" points="227.77 364.63 221.56 371.02 221.56 405.62"/>
    <ellipse cx="260.48" cy="330.83" rx="46.06" ry="48.02"/>
    <path class="cls-21" d="M306.23,328.7a46.07,46.07,0,1,1-46.06-46.06A46.07,46.07,0,0,1,306.23,328.7Z"/>
    <circle class="cls-22" cx="259.84" cy="328.69" r="29.24"/>
    <path d="M254.28,291.31a3.89,3.89,0,1,0,3.89-3.89A3.89,3.89,0,0,0,254.28,291.31Z"/>
    <path d="M255.46,365.48a3.89,3.89,0,1,0,3.89-3.89A3.89,3.89,0,0,0,255.46,365.48Z"/>
    <path class="cls-10" d="M233.4,326.92a1.41,1.41,0,1,0,1.41-1.41A1.41,1.41,0,0,0,233.4,326.92Z"/>
    <circle cx="297.5" cy="328.69" r="3.89"/>
    <path d="M219.9,328.69a3.89,3.89,0,1,0,3.89-3.88A3.89,3.89,0,0,0,219.9,328.69Z"/>
    <path class="cls-23" d="M257.38,303.26s-17,1.06-21.95,20"/>
    <polygon points="193.99 295.75 206.39 295.75 206.39 317.68 190.51 317.68 190.51 329.04 170.61 329.04 193.99 295.75"/>
    <polyline class="cls-11" points="197.47 289.43 206.11 296.07 227.66 296.07"/>
    <polyline class="cls-11" points="213.42 331.39 205.48 331.39 198.45 322.45 174.79 322.45"/>
    <polygon class="cls-20" points="192.89 293.8 205.29 293.8 205.29 315.74 189.42 315.74 189.42 327.09 169.52 327.09 192.89 293.8"/>
    <polyline class="cls-11" points="194.03 294.34 202.84 301.12 223.79 301.12"/>
    <path d="M202.19,295.92a1.1,1.1,0,1,0,1.1-1.1A1.09,1.09,0,0,0,202.19,295.92Z"/>
    <path d="M202.19,313.72a1.1,1.1,0,1,0,1.1-1.1A1.09,1.09,0,0,0,202.19,313.72Z"/>
    <path d="M186,324.71a1.1,1.1,0,1,0,1.1-1.1A1.09,1.09,0,0,0,186,324.71Z"/>
    <polygon class="cls-20" points="266.74 448.02 266.74 386.19 294.16 386.19 294.16 410.03 266.74 448.02"/>
    <polyline class="cls-11" points="269.95 373.36 269.95 394.75 281.74 406.08 281.74 429.6"/>
    <path d="M271.38,437a1.43,1.43,0,1,1-1.42-1.42A1.43,1.43,0,0,1,271.38,437Z"/>
    <path d="M275.68,391.17a1.42,1.42,0,1,1-1.42-1.42A1.42,1.42,0,0,1,275.68,391.17Z"/>
    <polyline class="cls-20" points="306.82 388.33 306.82 333.65 345.22 333.65"/>
    <polyline class="cls-11" points="307.11 338.89 312.68 338.89 319.71 347.84 337.65 347.84"/>
    <polyline class="cls-11" points="307.11 334.98 315.04 334.98 322.08 343.93 340.02 343.93"/>
    <polyline class="cls-11" points="301.96 345.58 312.42 351.81 312.42 368.17 312.42 382.96"/>
    <path d="M340.49,335.77a1.43,1.43,0,1,1-1.42-1.42A1.43,1.43,0,0,1,340.49,335.77Z"/>
    <path d="M310,379.9a1.42,1.42,0,1,1-1.42-1.42A1.42,1.42,0,0,1,310,379.9Z"/>
    <polygon class="cls-20" points="308.76 268.5 296.36 268.5 296.36 290.44 312.24 290.44 312.24 301.8 332.14 301.8 308.76 268.5"/>
    <polyline class="cls-11" points="296.73 298.89 302.44 292.11 302.44 290.44 315.22 276.96"/>
    <polyline class="cls-11" points="293.28 295.75 296.54 291.95 296.54 290.44 312.81 273.26"/>
    <path d="M298.66,270.62a1.1,1.1,0,1,1-1.1-1.1A1.09,1.09,0,0,1,298.66,270.62Z"/>
    <path d="M298.66,286.81a1.1,1.1,0,1,1-1.1-1.1A1.09,1.09,0,0,1,298.66,286.81Z"/>
    <path d="M314.54,300a1.1,1.1,0,1,1-1.09-1.1A1.09,1.09,0,0,1,314.54,300Z"/>
    <polygon class="cls-20" points="302.05 261.42 277.26 261.42 277.26 244.91 248.86 244.91 248.86 217.29 271.2 217.29 302.05 261.42"/>
    <polyline class="cls-11" points="250.88 212.22 250.88 233.61 262.66 244.95 262.66 282.64"/>
    <polyline class="cls-11" points="256.77 203.83 256.77 233.61 268.55 244.95 268.55 283.34"/>
    <polyline class="cls-11" points="277.55 285.61 277.55 267.79 280.76 263.6 280.77 261.42 280.77 239.35 284.46 234.79"/>
    <polyline class="cls-11" points="281.91 288.04 281.91 270.22 287 263.6 287.01 261.42 287.01 242.39 288.16 240.91"/>
    <path d="M280.11,259.53a1.1,1.1,0,1,1-1.09-1.1A1.09,1.09,0,0,1,280.11,259.53Z"/>
    <path d="M299.69,259.53a1.1,1.1,0,1,1-1.09-1.1A1.09,1.09,0,0,1,299.69,259.53Z"/>
    <path d="M271.6,219.48a1.1,1.1,0,1,1-1.1-1.09A1.1,1.1,0,0,1,271.6,219.48Z"/>
    <path d="M252,242.9a1.09,1.09,0,1,1-1.09-1.09A1.09,1.09,0,0,1,252,242.9Z"/>
    <polygon class="cls-20" points="204.3 280.86 242.04 280.86 242.04 245.81 228.91 245.81 204.3 280.86"/>
    <path d="M240.66,247.43a1.1,1.1,0,1,1-1.1-1.09A1.1,1.1,0,0,1,240.66,247.43Z"/>
    <path d="M240.66,278.77a1.1,1.1,0,1,1-1.1-1.09A1.1,1.1,0,0,1,240.66,278.77Z"/>
    <path d="M209.74,278.77a1.09,1.09,0,1,1-1.09-1.09A1.09,1.09,0,0,1,209.74,278.77Z"/>
    <polyline class="cls-11" points="218.87 260.11 233.03 260.11 244.81 270.72 244.81 285.15"/>
    <polyline class="cls-11" points="223.45 253.7 235.38 253.7 248.69 267.01 248.69 283.39"/>
    <polyline class="cls-11" points="212.06 268.5 224.37 275.4 224.32 280.94 224.31 282.83 234.98 291.24"/>
  </g>
</svg>
