<svg id="Capa_1" data-name="Capa 1" xmlns="http://www.w3.org/2000/svg" xmlns:xlink="http://www.w3.org/1999/xlink" width="198.47mm" height="229.79mm" viewBox="0 0 562.61 651.39">
  <defs>
    <style>
      .cls-1 {
        fill: #f6f3ab;
      }

      .cls-2 {
        fill: #009c52;
      }

      .cls-3 {
        fill: #009fae;
      }

      .cls-3, .cls-4, .cls-5, .cls-6, .cls-7 {
        stroke: #f6f3ab;
        stroke-miterlimit: 10;
      }

      .cls-3, .cls-7 {
        stroke-width: 5px;
      }

      .cls-4, .cls-6 {
        fill: none;
      }

      .cls-4 {
        stroke-width: 2px;
      }

      .cls-5 {
        fill: #9f115b;
        stroke-width: 3px;
      }

      .cls-7 {
        fill: url(#linear-gradient);
      }
    </style>
    <linearGradient id="linear-gradient" x1="1897.23" y1="-714.63" x2="2006.76" y2="-824.16" gradientTransform="translate(-552.69 2248.35) rotate(-45)" gradientUnits="userSpaceOnUse">
      <stop offset="0.01" stop-color="#005c28"/>
      <stop offset="0.05" stop-color="#00632b"/>
      <stop offset="0.34" stop-color="#009b43"/>
      <stop offset="0.48" stop-color="#00b04c"/>
      <stop offset="0.51" stop-color="#0bb14b"/>
      <stop offset="0.6" stop-color="#32b648"/>
      <stop offset="0.7" stop-color="#50ba46"/>
      <stop offset="0.8" stop-color="#66bd44"/>
      <stop offset="0.89" stop-color="#73be43"/>
      <stop offset="0.97" stop-color="#77bf43"/>
    </linearGradient>
  </defs>
  <polyline class="cls-1" points="562.61 651.39 0 651.39 0 0 562.61 0"/>
  <rect class="cls-2" x="12.87" y="7.68" width="538.7" height="631.32"/>
  <g>
    <g>
      <line class="cls-3" x1="451.11" y1="114.8" x2="551.57" y2="7.68"/>
      <line class="cls-3" x1="115.45" y1="534.22" x2="12.87" y2="640.5"/>
      <line class="cls-3" x1="452.11" y1="533.51" x2="551.57" y2="640.5"/>
      <line class="cls-4" x1="281.3" y1="112.46" x2="281.3" y2="7.17"/>
    </g>
    <g>
      <line class="cls-3" x1="115.45" y1="113.88" x2="12.87" y2="7.68"/>
      <rect class="cls-4" x="67.5" y="67.22" width="432.05" height="519.22"/>
      <line class="cls-4" x1="115.45" y1="193.84" x2="12.87" y2="110.42"/>
      <line class="cls-4" x1="113.85" y1="325.91" x2="12.87" y2="325.91"/>
      <line class="cls-4" x1="115.45" y1="257.35" x2="12.87" y2="222.29"/>
      <line class="cls-4" x1="115.45" y1="452.93" x2="12.87" y2="533.22"/>
      <line class="cls-4" x1="115.45" y1="391.37" x2="12.87" y2="426.86"/>
      <line class="cls-4" x1="451.53" y1="191.8" x2="551.88" y2="109.5"/>
      <line class="cls-4" x1="449.98" y1="325.91" x2="550.96" y2="325.91"/>
      <line class="cls-4" x1="451.53" y1="256.41" x2="550.96" y2="222.29"/>
      <line class="cls-4" x1="451.53" y1="456.43" x2="550.96" y2="534.13"/>
      <line class="cls-4" x1="451.53" y1="392.74" x2="550.96" y2="426.86"/>
      <line class="cls-4" x1="282.22" y1="533.38" x2="282.22" y2="638.67"/>
      <line class="cls-4" x1="200.41" y1="534.22" x2="151.46" y2="638.67"/>
      <line class="cls-4" x1="367.58" y1="534.22" x2="412.44" y2="638.67"/>
      <line class="cls-4" x1="369.46" y1="111.81" x2="418.42" y2="7.36"/>
      <line class="cls-4" x1="196.31" y1="111.63" x2="151.46" y2="7.17"/>
    </g>
  </g>
  <rect class="cls-5" x="115.45" y="113.88" width="169.92" height="420.33"/>
  <rect class="cls-5" x="282.22" y="113.88" width="169.92" height="420.33"/>
  <g>
    <rect class="cls-6" x="422.17" y="393.54" width="7.65" height="16.27"/>
    <rect class="cls-6" x="438.55" y="403.65" width="6.48" height="37.11"/>
    <rect class="cls-6" x="404.75" y="393.63" width="7.65" height="23.02"/>
    <rect class="cls-6" x="422.17" y="440.16" width="7.65" height="14.93"/>
    <rect class="cls-6" x="422.17" y="413.86" width="7.65" height="7.04"/>
    <polygon class="cls-6" points="434.81 459.26 412.44 459.26 412.44 431.34 404.79 431.34 393.79 431.34 393.92 441.16 404.79 441.16 404.79 462.86 404.84 462.86 404.84 463.31 434.81 463.31 434.81 509.2 437.8 509.2 437.8 463.31 437.8 459.26 437.8 459.24 434.81 459.24 434.81 459.26"/>
    <polygon class="cls-6" points="427.16 506.1 404.79 506.1 404.79 478.18 397.14 478.18 384.24 478.18 384.24 423.42 379.9 423.42 379.9 478.18 379.9 483.95 379.9 488 397.14 488 397.14 509.69 397.19 509.69 397.19 510.15 427.16 510.15 427.16 533.38 430.14 533.38 430.14 510.15 430.14 506.1 430.14 506.08 427.16 506.08 427.16 506.1"/>
    <polygon class="cls-6" points="443.52 241.7 443.52 235.4 439.03 235.4 439.03 241.7 433.62 241.7 433.62 169.79 428.61 169.79 428.61 241.7 428.61 245.83 433.62 245.83 439.03 245.83 443.52 245.83 443.52 241.7"/>
    <rect class="cls-6" x="408.79" y="245.45" width="7.65" height="7.62"/>
    <rect class="cls-6" x="408.79" y="259.75" width="7.65" height="14.93"/>
    <rect class="cls-6" x="380.42" y="182.04" width="7.65" height="7.62"/>
    <rect class="cls-6" x="380.42" y="196.34" width="7.65" height="14.93"/>
    <rect class="cls-6" x="408.79" y="314.27" width="7.65" height="19.03"/>
    <rect class="cls-6" x="368.44" y="344.33" width="7.65" height="12.76"/>
    <rect class="cls-6" x="432.24" y="259.02" width="7.65" height="12.76"/>
    <rect class="cls-6" x="429.66" y="312.4" width="3.83" height="42.23"/>
    <rect class="cls-6" x="439.03" y="216.94" width="4.49" height="14.93"/>
    <rect class="cls-6" x="439.03" y="208.9" width="4.49" height="4.41"/>
    <rect class="cls-6" x="439.03" y="199.07" width="4.49" height="4.41"/>
    <polygon class="cls-6" points="433.82 280.19 426.17 280.19 426.17 300.09 403.79 300.09 403.79 300.08 400.81 300.08 400.81 300.09 400.81 304.15 400.81 354.63 403.79 354.63 403.79 304.15 433.76 304.15 433.76 303.69 433.82 303.69 433.82 290.01 451.6 290.01 451.6 280.19 433.82 280.19"/>
    <polygon class="cls-6" points="451.05 153.77 373.24 153.77 368.01 153.77 368.01 160.11 368.01 166.95 368.01 172.63 373.24 172.63 400.22 172.63 400.22 166.95 373.24 166.95 373.24 160.11 451.05 160.11 451.05 153.77"/>
    <rect class="cls-6" x="357.01" y="134.09" width="9.64" height="9.67"/>
    <rect class="cls-6" x="331.53" y="134.09" width="18.88" height="9.67"/>
    <rect class="cls-6" x="331.53" y="121.08" width="67.44" height="4.84"/>
    <polygon class="cls-6" points="287.04 153.77 321.14 153.77 321.14 169.72 321.72 169.72 321.72 169.79 349.15 169.79 349.15 188.55 332.67 188.55 332.67 176.48 325.37 176.48 325.37 204.65 325.37 206.61 332.67 206.61 356.01 206.61 356.01 220.21 356.01 226.04 362.64 226.04 408.5 226.04 408.5 235.36 416.73 235.36 416.73 203.48 408.5 203.48 408.5 220.21 362.64 220.21 362.64 206.61 362.64 204.65 356.01 204.65 332.67 204.65 332.67 192.28 349.15 192.28 350.41 192.28 361.56 192.28 361.56 169.79 361.56 160.11 326.26 160.11 326.26 131.83 326.29 131.83 326.29 128.06 326.26 128.06 321.14 128.06 293.59 128.06 293.59 131.83 321.14 131.83 321.14 149.35 287.04 149.35 287.04 153.77"/>
    <rect class="cls-6" x="372.43" y="133.73" width="62.56" height="10.4"/>
    <polygon class="cls-6" points="291.95 202.34 287.04 202.34 287.04 260.83 291.95 265.41 291.95 202.34"/>
    <polygon class="cls-6" points="321.26 439.55 327.92 439.55 327.92 406.37 327.92 399.95 321.26 399.95 313.26 399.95 305.83 399.95 305.83 406.37 305.83 530.54 313.26 530.54 313.26 406.37 321.26 406.37 321.26 439.55"/>
    <polygon class="cls-6" points="322.98 295.68 330.47 295.68 368.63 295.68 368.63 336.13 376.29 336.13 376.29 295.68 376.29 292.91 376.29 286.06 330.47 286.06 330.47 264.81 330.42 264.81 330.42 264.37 317.53 264.37 317.53 204.99 310.71 204.99 310.71 264.37 301.06 264.37 301.06 229.56 298.14 229.56 298.14 264.37 298.14 268.33 298.14 268.35 301.06 268.35 301.06 268.33 322.98 268.33 322.98 295.68"/>
    <rect class="cls-6" x="287.85" y="474.33" width="6.83" height="60.68"/>
    <rect class="cls-6" x="423.23" y="470.27" width="5.53" height="19.61"/>
    <polygon class="cls-6" points="392.5 391.58 392.5 399.95 396.56 399.95 396.56 377.4 430.14 377.4 430.14 372.61 396.56 372.61 392.5 372.61 392.45 372.61 392.45 377.4 392.5 377.4 392.5 387.52 372.46 387.52 372.46 377.42 369.08 377.42 369.08 417.76 353.35 417.76 353.35 380.54 349.38 380.54 349.38 417.76 335.06 417.76 335.06 418.28 335 418.28 335 447.57 314.82 447.57 314.82 454.05 335 454.05 343.69 454.05 343.69 422.36 369.08 422.36 369.08 422.38 372.46 422.38 372.46 422.36 372.46 417.76 372.46 391.58 392.5 391.58"/>
    <path class="cls-6" d="M405.74,169.79a4.1,4.1,0,1,0,4.1-4.1A4.11,4.11,0,0,0,405.74,169.79Z"/>
    <path class="cls-6" d="M426.21,128.17a4.1,4.1,0,1,0-4.1-4.1A4.1,4.1,0,0,0,426.21,128.17Z"/>
    <path class="cls-6" d="M302.69,163.2a4.1,4.1,0,1,0,4.1-4.1A4.1,4.1,0,0,0,302.69,163.2Z"/>
    <path class="cls-6" d="M289.49,167.3a4.1,4.1,0,1,0-4.1-4.1A4.1,4.1,0,0,0,289.49,167.3Z"/>
    <circle class="cls-6" cx="398.59" cy="366.71" r="3.24"/>
    <path class="cls-6" d="M409.37,348.87a3.25,3.25,0,1,0,3.25-3.24A3.25,3.25,0,0,0,409.37,348.87Z"/>
    <path class="cls-6" d="M346.69,223.39a3.18,3.18,0,1,0-3.18,3.17A3.18,3.18,0,0,0,346.69,223.39Z"/>
    <path class="cls-6" d="M352.52,254.28a3.18,3.18,0,1,0,3.18,3.18A3.17,3.17,0,0,0,352.52,254.28Z"/>
    <path class="cls-6" d="M333.24,223.39a3.18,3.18,0,1,0-3.17,3.17A3.17,3.17,0,0,0,333.24,223.39Z"/>
    <path class="cls-6" d="M289.49,188.55a3.18,3.18,0,1,0-3.17-3.18A3.18,3.18,0,0,0,289.49,188.55Z"/>
    <path class="cls-6" d="M396.13,246.39a3.24,3.24,0,1,0,3.24,3.24A3.24,3.24,0,0,0,396.13,246.39Z"/>
    <path class="cls-6" d="M388.07,290.36a3.24,3.24,0,1,0,3.24,3.24A3.24,3.24,0,0,0,388.07,290.36Z"/>
    <path class="cls-6" d="M388.07,308a3.25,3.25,0,1,0,3.24,3.24A3.24,3.24,0,0,0,388.07,308Z"/>
    <path class="cls-6" d="M441.79,370.77A3.24,3.24,0,1,0,445,374,3.24,3.24,0,0,0,441.79,370.77Z"/>
    <circle class="cls-6" cx="413.69" cy="499.55" r="3.24"/>
    <circle class="cls-6" cx="387.33" cy="499.55" r="3.24"/>
    <path class="cls-6" d="M441.79,448.06A3.24,3.24,0,1,0,445,451.3,3.24,3.24,0,0,0,441.79,448.06Z"/>
    <path class="cls-6" d="M293.59,139.85a4.1,4.1,0,1,0-4.1,4.1A4.1,4.1,0,0,0,293.59,139.85Z"/>
    <polygon class="cls-6" points="337.55 472.39 332.45 472.39 332.45 476.06 332.45 495 337.55 495 337.55 476.06 343.69 476.06 343.69 530.69 349.38 530.69 349.38 476.06 349.38 472.39 343.69 472.39 337.55 472.39"/>
    <rect class="cls-6" x="360.25" y="453.76" width="8.68" height="8.65"/>
    <rect class="cls-6" x="360.25" y="515.65" width="8.68" height="8.65"/>
    <rect class="cls-6" x="360.25" y="430.89" width="8.68" height="16.94"/>
    <rect class="cls-6" x="359.92" y="469.43" width="9.33" height="37.04"/>
    <path class="cls-6" d="M335,502.79a3.68,3.68,0,1,0,3.68,3.68A3.68,3.68,0,0,0,335,502.79Z"/>
    <path class="cls-6" d="M337.24,397.53a3.68,3.68,0,1,0,3.68-3.68A3.68,3.68,0,0,0,337.24,397.53Z"/>
    <path class="cls-6" d="M291.26,449.87a3.68,3.68,0,1,0,3.68,3.68A3.68,3.68,0,0,0,291.26,449.87Z"/>
    <path class="cls-6" d="M291.26,429.74a3.68,3.68,0,1,0,3.68,3.68A3.68,3.68,0,0,0,291.26,429.74Z"/>
    <path class="cls-6" d="M390.11,451.3a3.68,3.68,0,1,0,3.68-3.68A3.68,3.68,0,0,0,390.11,451.3Z"/>
    <polygon class="cls-6" points="382.33 270.62 382.33 267.22 382.33 237.95 382.07 237.95 378.5 237.95 322.98 237.95 322.98 241.7 378.5 241.7 378.5 267.22 355.03 267.22 355.03 270.62 378.5 270.62 382.33 270.62"/>
    <rect class="cls-6" x="135.42" y="240.58" width="7.65" height="16.27"/>
    <rect class="cls-6" x="120.2" y="209.63" width="6.48" height="37.11"/>
    <rect class="cls-6" x="152.83" y="233.74" width="7.65" height="23.02"/>
    <rect class="cls-6" x="135.42" y="195.3" width="7.65" height="14.93"/>
    <rect class="cls-6" x="135.42" y="229.5" width="7.65" height="7.04"/>
    <polygon class="cls-6" points="130.42 191.13 152.79 191.13 152.79 219.05 160.44 219.05 171.44 219.05 171.32 209.23 160.44 209.23 160.44 187.53 160.39 187.53 160.39 187.08 130.42 187.08 130.42 141.19 127.44 141.19 127.44 187.08 127.44 191.13 127.44 191.15 130.42 191.15 130.42 191.13"/>
    <polygon class="cls-6" points="138.07 144.29 160.44 144.29 160.44 172.22 168.09 172.22 180.99 172.22 180.99 226.97 185.33 226.97 185.33 172.22 185.33 166.44 185.33 162.39 168.09 162.39 168.09 140.7 168.04 140.7 168.04 140.24 138.07 140.24 138.07 117.01 135.09 117.01 135.09 140.24 135.09 144.29 135.09 144.31 138.07 144.31 138.07 144.29"/>
    <polygon class="cls-6" points="136.63 480.6 136.63 408.69 136.63 404.56 131.61 404.56 126.2 404.56 121.71 404.56 121.71 408.69 121.71 414.99 126.2 414.99 126.2 408.69 131.61 408.69 131.61 480.6 136.63 480.6"/>
    <rect class="cls-6" x="148.79" y="397.31" width="7.65" height="7.62"/>
    <rect class="cls-6" x="148.79" y="375.71" width="7.65" height="14.93"/>
    <rect class="cls-6" x="177.17" y="457.97" width="7.65" height="7.63"/>
    <rect class="cls-6" x="177.17" y="436.37" width="7.65" height="14.93"/>
    <rect class="cls-6" x="148.79" y="317.1" width="7.65" height="19.02"/>
    <rect class="cls-6" x="182.9" y="289.62" width="7.65" height="12.76"/>
    <rect class="cls-6" x="125.34" y="378.6" width="7.65" height="12.76"/>
    <rect class="cls-6" x="131.75" y="295.76" width="3.83" height="42.23"/>
    <rect class="cls-6" x="121.71" y="418.52" width="4.49" height="14.93"/>
    <rect class="cls-6" x="121.71" y="437.08" width="4.49" height="4.41"/>
    <rect class="cls-6" x="121.71" y="446.91" width="4.49" height="4.41"/>
    <polygon class="cls-6" points="139.07 370.2 139.07 350.3 161.44 350.3 161.44 350.31 164.42 350.31 164.42 350.3 164.42 346.25 164.42 295.76 161.44 295.76 161.44 346.25 131.47 346.25 131.47 346.7 131.42 346.7 131.42 360.38 118.82 360.38 118.82 370.2 131.42 370.2 139.07 370.2"/>
    <polygon class="cls-6" points="197.22 492.94 197.22 486.6 197.22 479.76 197.22 474.08 192 474.08 165.02 474.08 165.02 479.76 192 479.76 192 486.6 114.18 486.6 114.18 492.94 192 492.94 197.22 492.94"/>
    <rect class="cls-6" x="198.58" y="506.63" width="9.64" height="9.67"/>
    <rect class="cls-6" x="214.82" y="506.63" width="18.88" height="9.67"/>
    <rect class="cls-6" x="166.26" y="524.48" width="67.44" height="4.84"/>
    <polygon class="cls-6" points="244.09 480.67 243.52 480.67 243.52 480.6 216.09 480.6 216.09 461.84 232.57 461.84 232.57 473.91 239.87 473.91 239.87 445.75 239.87 443.78 232.57 443.78 209.22 443.78 209.22 430.18 209.22 424.35 202.59 424.35 156.73 424.35 156.73 415.03 148.51 415.03 148.51 446.91 156.73 446.91 156.73 430.18 202.59 430.18 202.59 443.78 202.59 445.75 209.22 445.75 232.57 445.75 232.57 458.11 216.09 458.11 214.82 458.11 203.67 458.11 203.67 480.6 203.67 490.28 238.97 490.28 238.97 518.57 238.95 518.57 238.95 522.34 238.97 522.34 244.09 522.34 275.58 522.34 275.58 518.57 244.09 518.57 244.09 501.04 275.58 501.04 275.58 496.62 244.09 496.62 244.09 480.67"/>
    <rect class="cls-6" x="130.25" y="506.26" width="62.56" height="10.4"/>
    <polygon class="cls-6" points="243.97 210.84 237.32 210.84 237.32 244.02 237.32 250.44 243.97 250.44 251.97 250.44 259.4 250.44 259.4 244.02 259.4 121.08 251.97 121.08 251.97 244.02 243.97 244.02 243.97 210.84"/>
    <polygon class="cls-6" points="254.52 445.4 254.52 386.02 264.17 386.02 264.17 420.83 267.09 420.83 267.09 386.02 267.09 382.06 267.09 382.04 264.17 382.04 264.17 382.06 242.26 382.06 242.26 354.72 234.76 354.72 190.56 354.72 190.56 314.27 182.9 314.27 182.9 357.48 182.91 357.48 182.91 364.33 234.76 364.33 234.76 385.58 234.82 385.58 234.82 386.02 247.7 386.02 247.7 445.4 254.52 445.4"/>
    <rect class="cls-6" x="136.48" y="160.51" width="5.53" height="19.61"/>
    <polygon class="cls-6" points="172.74 258.81 172.74 250.44 168.68 250.44 168.68 272.99 135.09 272.99 135.09 277.78 168.68 277.78 172.74 277.78 172.78 277.78 172.78 272.99 172.74 272.99 172.74 262.88 192.77 262.88 192.77 272.97 196.16 272.97 196.16 232.63 211.88 232.63 211.88 269.85 215.85 269.85 215.85 232.63 230.17 232.63 230.17 232.11 230.23 232.11 230.23 196.89 251.88 196.89 251.88 190.41 230.23 190.41 221.55 190.41 221.55 228.03 196.16 228.03 196.16 228.01 192.77 228.01 192.77 228.03 192.77 232.63 192.77 258.81 172.74 258.81"/>
    <polygon class="cls-6" points="242.26 408.69 186.73 408.69 186.73 383.17 210.2 383.17 210.2 379.77 186.73 379.77 182.91 379.77 182.91 383.17 182.91 412.44 183.16 412.44 186.73 412.44 242.26 412.44 242.26 408.69"/>
    <path class="cls-6" d="M159.49,476.93a4.1,4.1,0,1,0-4.1,4.09A4.09,4.09,0,0,0,159.49,476.93Z"/>
    <path class="cls-6" d="M139,522.22a4.1,4.1,0,1,0,4.09,4.1A4.1,4.1,0,0,0,139,522.22Z"/>
    <path class="cls-6" d="M258.44,491.29a4.1,4.1,0,1,0-4.1-4.1A4.1,4.1,0,0,0,258.44,491.29Z"/>
    <path class="cls-6" d="M269.53,455.09a4.1,4.1,0,1,0-4.09,4.1A4.1,4.1,0,0,0,269.53,455.09Z"/>
    <path class="cls-6" d="M169.88,285.52a3.24,3.24,0,1,0-3.24,3.24A3.24,3.24,0,0,0,169.88,285.52Z"/>
    <path class="cls-6" d="M155.86,301.52a3.24,3.24,0,1,0-3.24,3.24A3.24,3.24,0,0,0,155.86,301.52Z"/>
    <path class="cls-6" d="M218.55,427a3.17,3.17,0,1,0,3.17-3.17A3.17,3.17,0,0,0,218.55,427Z"/>
    <path class="cls-6" d="M212.71,396.11a3.18,3.18,0,1,0-3.17-3.18A3.17,3.17,0,0,0,212.71,396.11Z"/>
    <path class="cls-6" d="M232,427a3.18,3.18,0,1,0,3.18-3.17A3.18,3.18,0,0,0,232,427Z"/>
    <path class="cls-6" d="M262.26,432.92a3.18,3.18,0,1,0,3.18-3.18A3.17,3.17,0,0,0,262.26,432.92Z"/>
    <path class="cls-6" d="M169.1,404a3.24,3.24,0,1,0-3.24-3.24A3.24,3.24,0,0,0,169.1,404Z"/>
    <path class="cls-6" d="M176.5,356.79a3.24,3.24,0,1,0-3.24,3.24A3.24,3.24,0,0,0,176.5,356.79Z"/>
    <path class="cls-6" d="M173.26,335.86a3.25,3.25,0,1,0,3.24,3.25A3.25,3.25,0,0,0,173.26,335.86Z"/>
    <path class="cls-6" d="M123.44,279.62a3.24,3.24,0,1,0-3.24-3.24A3.24,3.24,0,0,0,123.44,279.62Z"/>
    <path class="cls-6" d="M148.3,150.84a3.24,3.24,0,1,0,3.24-3.24A3.24,3.24,0,0,0,148.3,150.84Z"/>
    <path class="cls-6" d="M174.66,150.84a3.24,3.24,0,1,0,3.24-3.24A3.24,3.24,0,0,0,174.66,150.84Z"/>
    <path class="cls-6" d="M123.44,202.33a3.24,3.24,0,1,0-3.24-3.24A3.24,3.24,0,0,0,123.44,202.33Z"/>
    <polygon class="cls-6" points="227.68 178 232.78 178 232.78 174.34 232.78 155.39 227.68 155.39 227.68 174.34 221.55 174.34 221.55 115.38 215.85 115.38 215.85 174.34 215.85 178 221.55 178 227.68 178"/>
    <rect class="cls-6" x="196.3" y="187.98" width="8.68" height="8.65"/>
    <rect class="cls-6" x="196.3" y="120.57" width="8.68" height="8.65"/>
    <rect class="cls-6" x="157.45" y="120.57" width="27.29" height="5.34"/>
    <rect class="cls-6" x="387.57" y="518.23" width="27.29" height="5.34"/>
    <rect class="cls-6" x="196.3" y="202.56" width="8.68" height="16.94"/>
    <rect class="cls-6" x="195.98" y="141.16" width="9.33" height="37.04"/>
    <path class="cls-6" d="M230.23,147.6a3.68,3.68,0,1,0-3.68-3.68A3.68,3.68,0,0,0,230.23,147.6Z"/>
    <path class="cls-6" d="M228,252.86a3.68,3.68,0,1,0-3.68,3.68A3.68,3.68,0,0,0,228,252.86Z"/>
    <path class="cls-6" d="M267.84,188.1a3.68,3.68,0,1,0-3.68-3.68A3.68,3.68,0,0,0,267.84,188.1Z"/>
    <path class="cls-6" d="M267.84,208.22a3.68,3.68,0,1,0-3.68-3.68A3.68,3.68,0,0,0,267.84,208.22Z"/>
    <path class="cls-6" d="M175.12,199.09a3.68,3.68,0,1,0-3.67,3.68A3.67,3.67,0,0,0,175.12,199.09Z"/>
  </g>
  <path class="cls-7" d="M228.75,378.82a77.46,77.46,0,1,1,109.55,0A77.46,77.46,0,0,1,228.75,378.82Z"/>
  <path class="cls-1" d="M290.61,343.61l-.06,0h0A2,2,0,0,0,289,343a4.77,4.77,0,0,0-2.66,1c-.07,0-7,4.68-9.81,5.07l-.12,0a1.07,1.07,0,0,1-.5-.5c-.38-.65.36-1.49.37-1.5a23.13,23.13,0,0,1,3.17-2.75l2.93-2.22c1.36-1,4.23-3.22,4.25-3.24a9.73,9.73,0,0,0,3.34-4.17c1.12-2.56-.67-5.09-.69-5.11h0a1.91,1.91,0,0,0-1.54-.64,4.82,4.82,0,0,0-2.66,1c-.08.05-7.3,4.86-10,5.1h0a1.44,1.44,0,0,1-.55-.56c-.38-.63.34-1.46.37-1.49l2.63-2.26c.27-.25.58-.51.9-.77l1.91-1.44.46-.33,2.93-2.21c1.36-1,4.22-3.22,4.25-3.24a9.88,9.88,0,0,0,3.34-4.18c1.12-2.55-.67-5.08-.69-5.11l-.06.05a0,0,0,0,1,0,0,2,2,0,0,0-1.56-.65,4.79,4.79,0,0,0-2.66,1c-.07,0-7,4.67-9.8,5.07l-.13,0a1.15,1.15,0,0,1-.5-.5c-.38-.65.36-1.5.37-1.5a23.13,23.13,0,0,1,3.17-2.75l2.93-2.22c1.36-1,4.23-3.22,4.25-3.24a9.82,9.82,0,0,0,3.34-4.17c1.12-2.56-.67-5.09-.69-5.11h0a1.91,1.91,0,0,0-1.54-.64,4.82,4.82,0,0,0-2.66,1c-.08.05-7.3,4.87-10,5.1h0a1.44,1.44,0,0,1-.55-.56c-.38-.64.36-1.49.37-1.5a25.39,25.39,0,0,1,3.17-2.75l7.59-5.92h0V246.6h-5.44l0,47.5v0s-4,3.29-4.85,3.88a23.47,23.47,0,0,0-3,2.65,2.66,2.66,0,0,0-.61,3.29h0s0,0,0,0h0a4.81,4.81,0,0,0,4,2.17h.14c2.66-.23,9.74-4.92,10-5.12a5.3,5.3,0,0,1,2.8-1.21.92.92,0,0,1,.74.26,3.07,3.07,0,0,1-1.16,3.15l-.06.06a42.13,42.13,0,0,1-3.36,2.62l-4.8,3.64s-2.49,1.93-3.34,2.53a22.5,22.5,0,0,0-3,2.64,2.82,2.82,0,0,0-.55,3.38l0,.05-.05,0a4.26,4.26,0,0,0,3.62,2,3.18,3.18,0,0,0,.38,0c2.72-.36,10-5.07,10-5.11a5.23,5.23,0,0,1,2.8-1.22.88.88,0,0,1,.76.29l.1.16a3.12,3.12,0,0,1-1.21,2.95l-.06.07a42.13,42.13,0,0,1-3.36,2.62l-4.8,3.63s-1.29,1-2.33,1.79l0,0,0,0-1.21.93c-.92.66-2.36,1.73-3,2.29l-.66.51a7.38,7.38,0,0,0-2.17,2.18h0a2.51,2.51,0,0,0-.23,2.8h0a4.82,4.82,0,0,0,4,2.2h.13c2.66-.23,9.74-4.92,10-5.12a5.3,5.3,0,0,1,2.8-1.21.92.92,0,0,1,.74.26,3.07,3.07,0,0,1-1.16,3.15l-.06.06a37.75,37.75,0,0,1-3.36,2.62l-4.8,3.64s-2.49,1.93-3.34,2.52a24.1,24.1,0,0,0-3,2.65,2.82,2.82,0,0,0-.55,3.38l0,.05-.05,0a4.31,4.31,0,0,0,3.62,2,2.14,2.14,0,0,0,.38,0c2.72-.36,10-5.06,10-5.11A5.23,5.23,0,0,1,290,344a.88.88,0,0,1,.76.29l.1.16a3.14,3.14,0,0,1-1.21,3l-.06.06a42.13,42.13,0,0,1-3.36,2.62L281,353.79v47.42h4.48v-46.4l2.5-1.91a9.89,9.89,0,0,0,3.34-4.17C292.42,346.17,290.63,343.64,290.61,343.61Z"/>
</svg>
