<svg id="Capa_1" data-name="Capa 1" xmlns="http://www.w3.org/2000/svg" xmlns:xlink="http://www.w3.org/1999/xlink" width="160.1mm" height="148.62mm" viewBox="0 0 453.84 421.27">
  <defs>
    <style>
      .cls-1 {
        fill: url(#Degradado_sin_nombre_5);
      }

      .cls-2 {
        fill: #fff;
      }

      .cls-3, .cls-5 {
        fill: #231f20;
      }

      .cls-4 {
        fill: none;
      }

      .cls-10, .cls-11, .cls-12, .cls-13, .cls-14, .cls-15, .cls-16, .cls-17, .cls-18, .cls-19, .cls-20, .cls-21, .cls-22, .cls-23, .cls-24, .cls-25, .cls-26, .cls-27, .cls-28, .cls-29, .cls-4, .cls-6, .cls-7, .cls-8, .cls-9 {
        stroke: #fff;
      }

      .cls-10, .cls-11, .cls-12, .cls-13, .cls-14, .cls-15, .cls-16, .cls-17, .cls-18, .cls-19, .cls-20, .cls-21, .cls-22, .cls-23, .cls-24, .cls-25, .cls-26, .cls-27, .cls-28, .cls-29, .cls-4, .cls-5, .cls-6, .cls-7, .cls-8, .cls-9 {
        stroke-miterlimit: 10;
      }

      .cls-5 {
        stroke: #231f20;
      }

      .cls-6 {
        fill: url(#Degradado_sin_nombre_2);
      }

      .cls-7 {
        fill: url(#linear-gradient);
      }

      .cls-8 {
        fill: url(#linear-gradient-2);
      }

      .cls-9 {
        fill: url(#linear-gradient-3);
      }

      .cls-10 {
        fill: url(#linear-gradient-4);
      }

      .cls-11 {
        fill: url(#linear-gradient-5);
      }

      .cls-12 {
        fill: url(#linear-gradient-6);
      }

      .cls-13 {
        fill: url(#linear-gradient-7);
      }

      .cls-14 {
        fill: url(#linear-gradient-8);
      }

      .cls-15 {
        fill: url(#linear-gradient-9);
      }

      .cls-16 {
        fill: url(#linear-gradient-10);
      }

      .cls-17 {
        fill: url(#linear-gradient-11);
      }

      .cls-18 {
        fill: url(#linear-gradient-12);
      }

      .cls-19 {
        fill: url(#linear-gradient-13);
      }

      .cls-20 {
        fill: url(#linear-gradient-14);
      }

      .cls-21 {
        fill: url(#linear-gradient-15);
      }

      .cls-22 {
        fill: url(#linear-gradient-16);
      }

      .cls-23 {
        fill: url(#linear-gradient-17);
      }

      .cls-24 {
        fill: url(#linear-gradient-18);
      }

      .cls-25 {
        fill: url(#linear-gradient-19);
      }

      .cls-26 {
        fill: url(#linear-gradient-20);
      }

      .cls-27 {
        fill: url(#linear-gradient-21);
      }

      .cls-28 {
        fill: url(#linear-gradient-22);
      }

      .cls-29 {
        fill: url(#linear-gradient-23);
      }
    </style>
    <linearGradient id="Degradado_sin_nombre_5" data-name="Degradado sin nombre 5" x1="226.92" y1="424.34" x2="226.92" gradientUnits="userSpaceOnUse">
      <stop offset="0" stop-color="#fffdef"/>
      <stop offset="0.06" stop-color="#e9f4ed"/>
      <stop offset="0.19" stop-color="#c6e4ea"/>
      <stop offset="0.32" stop-color="#a8d7e7"/>
      <stop offset="0.46" stop-color="#91cde5"/>
      <stop offset="0.61" stop-color="#81c6e3"/>
      <stop offset="0.78" stop-color="#77c2e2"/>
      <stop offset="1" stop-color="#74c1e2"/>
    </linearGradient>
    <linearGradient id="Degradado_sin_nombre_2" data-name="Degradado sin nombre 2" x1="264.14" y1="162.52" x2="291.11" y2="162.52" gradientUnits="userSpaceOnUse">
      <stop offset="0" stop-color="#346072"/>
      <stop offset="0.05" stop-color="#3f6e82"/>
      <stop offset="0.27" stop-color="#6caac7"/>
      <stop offset="0.38" stop-color="#7ec2e2"/>
      <stop offset="0.47" stop-color="#81c3e1"/>
      <stop offset="0.54" stop-color="#8bc7df"/>
      <stop offset="0.61" stop-color="#9bcedb"/>
      <stop offset="0.67" stop-color="#b2d8d6"/>
      <stop offset="0.72" stop-color="#d0e5d0"/>
      <stop offset="0.78" stop-color="#f4f4c8"/>
      <stop offset="0.79" stop-color="#fbf7c6"/>
      <stop offset="0.86" stop-color="#fbf7c9"/>
      <stop offset="0.92" stop-color="#fcf9d3"/>
      <stop offset="0.97" stop-color="#fefbe3"/>
      <stop offset="1" stop-color="#fffdef"/>
    </linearGradient>
    <linearGradient id="linear-gradient" x1="283.08" y1="229.75" x2="324.39" y2="229.75" gradientUnits="userSpaceOnUse">
      <stop offset="0" stop-color="#fffdef"/>
      <stop offset="0.03" stop-color="#fefbe3"/>
      <stop offset="0.08" stop-color="#fcf9d3"/>
      <stop offset="0.14" stop-color="#fbf7c9"/>
      <stop offset="0.21" stop-color="#fbf7c6"/>
      <stop offset="0.22" stop-color="#f4f4c8"/>
      <stop offset="0.28" stop-color="#d0e5d0"/>
      <stop offset="0.33" stop-color="#b2d8d6"/>
      <stop offset="0.39" stop-color="#9bcedb"/>
      <stop offset="0.46" stop-color="#8bc7df"/>
      <stop offset="0.53" stop-color="#81c3e1"/>
      <stop offset="0.62" stop-color="#7ec2e2"/>
      <stop offset="0.73" stop-color="#6caac7"/>
      <stop offset="0.95" stop-color="#3f6e82"/>
      <stop offset="1" stop-color="#346072"/>
    </linearGradient>
    <linearGradient id="linear-gradient-2" x1="255.66" y1="180.7" x2="303.35" y2="180.7" xlink:href="#linear-gradient"/>
    <linearGradient id="linear-gradient-3" x1="175.39" y1="247.46" x2="218.01" y2="247.46" xlink:href="#linear-gradient"/>
    <linearGradient id="linear-gradient-4" x1="233.33" y1="211.58" x2="294.31" y2="211.58" xlink:href="#linear-gradient"/>
    <linearGradient id="linear-gradient-5" x1="194.95" y1="219.58" x2="234.8" y2="219.58" xlink:href="#linear-gradient"/>
    <linearGradient id="linear-gradient-6" x1="297.43" y1="258.07" x2="324.52" y2="258.07" xlink:href="#linear-gradient"/>
    <linearGradient id="linear-gradient-7" x1="272.86" y1="250.78" x2="298.23" y2="250.78" xlink:href="#linear-gradient"/>
    <linearGradient id="linear-gradient-8" x1="217" y1="241.95" x2="294.31" y2="241.95" xlink:href="#linear-gradient"/>
    <linearGradient id="linear-gradient-9" x1="222.35" y1="218.91" x2="234.8" y2="218.91" xlink:href="#linear-gradient"/>
    <linearGradient id="linear-gradient-10" x1="211.1" y1="190.43" x2="251.48" y2="190.43" xlink:href="#linear-gradient"/>
    <linearGradient id="linear-gradient-11" x1="219.77" y1="161.02" x2="269.13" y2="161.02" xlink:href="#linear-gradient"/>
    <linearGradient id="linear-gradient-12" x1="238.54" y1="139.8" x2="290.25" y2="139.8" xlink:href="#linear-gradient"/>
    <linearGradient id="linear-gradient-13" x1="282.78" y1="149.11" x2="303.35" y2="149.11" xlink:href="#linear-gradient"/>
    <linearGradient id="linear-gradient-14" x1="195.77" y1="180.03" x2="221.64" y2="180.03" xlink:href="#linear-gradient"/>
    <linearGradient id="linear-gradient-15" x1="209.53" y1="205.38" x2="239.33" y2="205.38" xlink:href="#linear-gradient"/>
    <linearGradient id="linear-gradient-16" x1="235.63" y1="194.8" x2="255.66" y2="194.8" xlink:href="#linear-gradient"/>
    <linearGradient id="linear-gradient-17" x1="181.39" y1="147.34" x2="209.28" y2="147.34" xlink:href="#linear-gradient"/>
    <linearGradient id="linear-gradient-18" x1="190.21" y1="145.75" x2="217.17" y2="145.75" xlink:href="#linear-gradient"/>
    <linearGradient id="linear-gradient-19" x1="251.48" y1="177.86" x2="273.56" y2="177.86" xlink:href="#linear-gradient"/>
    <linearGradient id="linear-gradient-20" x1="236.53" y1="199.31" x2="259.47" y2="199.31" xlink:href="#linear-gradient"/>
    <linearGradient id="linear-gradient-21" x1="176.21" y1="218.91" x2="218.01" y2="218.91" xlink:href="#linear-gradient"/>
    <linearGradient id="linear-gradient-22" x1="148.73" y1="263.84" x2="175.39" y2="263.84" xlink:href="#linear-gradient"/>
    <linearGradient id="linear-gradient-23" x1="148.73" y1="240.19" x2="205.69" y2="240.19" xlink:href="#linear-gradient"/>
  </defs>
  <rect class="cls-1" width="453.84" height="424.34"/>
  <g>
    <path class="cls-2" d="M213.09,75.14v.24a1.51,1.51,0,0,0-.71.3,2.75,2.75,0,0,0-.61,1l-3.07,7.5h-.24l-3.3-7.59a4.43,4.43,0,0,0-.36-.72,1.07,1.07,0,0,0-.39-.31,1.77,1.77,0,0,0-.64-.15v-.24h3.59v.24a1.65,1.65,0,0,0-.79.21.48.48,0,0,0-.18.38,2.94,2.94,0,0,0,.3,1l2.24,5.16,2.07-5.1a3.3,3.3,0,0,0,.31-1,.47.47,0,0,0-.19-.36,1.2,1.2,0,0,0-.63-.25l-.12,0v-.24Z"/>
    <path class="cls-2" d="M218.69,75.62V79.1h1.93a1.59,1.59,0,0,0,1-.22,1.51,1.51,0,0,0,.38-1.06h.24v3.07H222a3.26,3.26,0,0,0-.19-.83.73.73,0,0,0-.38-.35,1.91,1.91,0,0,0-.82-.13h-1.93v2.9a3,3,0,0,0,.05.71.49.49,0,0,0,.18.2,1.14,1.14,0,0,0,.5.07h1.49a4,4,0,0,0,1.08-.1,1.54,1.54,0,0,0,.65-.41,4.93,4.93,0,0,0,.83-1.21h.26L223,84h-6.79v-.24h.31a1.2,1.2,0,0,0,.59-.15.57.57,0,0,0,.29-.32,3.05,3.05,0,0,0,.07-.85V76.67a1.83,1.83,0,0,0-.17-1,1,1,0,0,0-.78-.26h-.31v-.24H223l.09,1.93h-.25a3,3,0,0,0-.3-.95,1,1,0,0,0-.49-.4,2.78,2.78,0,0,0-.92-.1Z"/>
    <path class="cls-2" d="M235.68,84h-2.35l-3-4.12h-.93v2.56a1.7,1.7,0,0,0,.19,1,.92.92,0,0,0,.74.29h.34V84h-3.77v-.24h.33a.9.9,0,0,0,.8-.37,2.06,2.06,0,0,0,.13-1V76.7a1.8,1.8,0,0,0-.18-1,1,1,0,0,0-.75-.29h-.33v-.24h3.21a7.38,7.38,0,0,1,2.06.21,2.26,2.26,0,0,1,1.13.75,2,2,0,0,1,.47,1.31,2.08,2.08,0,0,1-.53,1.41,3,3,0,0,1-1.64.84l1.82,2.53a4.35,4.35,0,0,0,1.07,1.15,2.83,2.83,0,0,0,1.17.37Zm-6.26-4.53h.37a2.89,2.89,0,0,0,1.9-.55,1.77,1.77,0,0,0,.64-1.39,1.77,1.77,0,0,0-1.89-1.85,5.92,5.92,0,0,0-1,.12Z"/>
    <path class="cls-2" d="M245.11,75.14l.1,2.07H245a2.29,2.29,0,0,0-.19-.78,1.33,1.33,0,0,0-.54-.56,1.83,1.83,0,0,0-.88-.18h-1.24v6.73a1.74,1.74,0,0,0,.18,1,1,1,0,0,0,.76.28h.3V84h-3.73v-.24h.31a.9.9,0,0,0,.79-.34,1.91,1.91,0,0,0,.15-1V75.69h-1.06a3,3,0,0,0-.88.09,1.31,1.31,0,0,0-.58.48,1.91,1.91,0,0,0-.28.95h-.25l.11-2.07Z"/>
    <path class="cls-2" d="M251,75.62V79.1h1.93a1.59,1.59,0,0,0,1-.22,1.47,1.47,0,0,0,.38-1.06h.24v3.07h-.24a3.41,3.41,0,0,0-.18-.83.79.79,0,0,0-.39-.35,1.91,1.91,0,0,0-.82-.13H251v2.9a3,3,0,0,0,.05.71.49.49,0,0,0,.18.2,1.14,1.14,0,0,0,.5.07h1.49a4,4,0,0,0,1.08-.1,1.49,1.49,0,0,0,.65-.41,4.93,4.93,0,0,0,.83-1.21H256L255.26,84h-6.79v-.24h.31a1.27,1.27,0,0,0,.6-.15.59.59,0,0,0,.28-.32,3.05,3.05,0,0,0,.07-.85V76.67a1.83,1.83,0,0,0-.17-1,1,1,0,0,0-.78-.26h-.31v-.24h6.79l.1,1.93h-.26a3,3,0,0,0-.3-.95,1,1,0,0,0-.49-.4,2.78,2.78,0,0,0-.92-.1Z"/>
    <path class="cls-2" d="M264.41,79.07l1.89,2.82a7.47,7.47,0,0,0,1.16,1.47,1.7,1.7,0,0,0,1,.35V84h-3.78v-.24a2.17,2.17,0,0,0,.56-.08.55.55,0,0,0,.22-.18.4.4,0,0,0,.09-.24.8.8,0,0,0-.06-.3,3.94,3.94,0,0,0-.36-.57l-1.49-2.26-1.84,2.36a3.41,3.41,0,0,0-.35.5.63.63,0,0,0-.06.27.44.44,0,0,0,.17.34,1.32,1.32,0,0,0,.67.16V84h-3.12v-.24a2.16,2.16,0,0,0,.57-.14,3.41,3.41,0,0,0,.77-.46,5.45,5.45,0,0,0,.83-.87l2.07-2.62-1.73-2.54a5.18,5.18,0,0,0-1.2-1.36,2.18,2.18,0,0,0-1.14-.34v-.24h4.07v.24a1.28,1.28,0,0,0-.71.17.44.44,0,0,0-.19.33,1.51,1.51,0,0,0,.31.7l1.35,2,1.57-2a3,3,0,0,0,.33-.48.63.63,0,0,0,.07-.26.36.36,0,0,0-.08-.24.53.53,0,0,0-.25-.2,2.94,2.94,0,0,0-.62-.06v-.24h3.13v.24a1.69,1.69,0,0,0-.61.12,2.37,2.37,0,0,0-.64.4,7.14,7.14,0,0,0-.82.94Z"/>
  </g>
  <g>
    <path class="cls-3" d="M142.7,349.67a91.11,91.11,0,0,1-9.94,16.53l-3.26-2.37a87.41,87.41,0,0,0,9.89-15.4Zm26.41-5.5H151.53v26.39h-3.84V344.17H130.32v-3.61h17.37V329.47h3.84v11.09h17.58Zm.66,18.79-3,2.51a177,177,0,0,0-10.5-14.74l2.75-2.11Q166,357.22,169.77,363Zm-6.4-34.08a5.07,5.07,0,0,1,3.56,1.47,5.11,5.11,0,0,1,0,7.32,5,5,0,0,1-3.59,1.48,4.77,4.77,0,0,1-3.57-1.51,5.19,5.19,0,0,1,0-7.27A4.86,4.86,0,0,1,163.37,328.88Zm2.88,5.18a2.78,2.78,0,0,0-.9-2.14,2.86,2.86,0,0,0-2-.83,2.63,2.63,0,0,0-1.95.81,2.84,2.84,0,0,0-.8,2.07,2.63,2.63,0,0,0,.92,2.13,3.24,3.24,0,0,0,2.18.78,2.28,2.28,0,0,0,1.86-.84A3,3,0,0,0,166.25,334.06Z"/>
    <path class="cls-3" d="M204.28,354.34h-3.82V330.85h3.82Zm19.08-7.22q0,7.45-1.7,11.42a18.87,18.87,0,0,1-5.37,7,36.35,36.35,0,0,1-8.22,5.12l-2.15-3.26q7.17-3.36,10.38-7.27t3.21-13.05V329.47h3.85Z"/>
    <path class="cls-3" d="M287.18,368.63h-3.84v-3.07H256.41v-3.65h26.93V343.09H256.55v-3.64h30.63Zm3.22-30.86-2.7,1.92q-3-3.75-5.37-6.33l2.51-1.73A68.09,68.09,0,0,1,290.4,337.77Zm5-1.62L292.46,338a57.79,57.79,0,0,0-5.09-6.84l2.7-1.69A77.93,77.93,0,0,1,295.39,336.15Z"/>
    <path class="cls-3" d="M354.58,342.29a45.25,45.25,0,0,1-11.93,16.28q-7.17,5.94-21.82,8.78l-1.67-3.61q13.06-2.28,20.23-7.45t11.84-15.73Zm-21.52-1.55-2.44,3.17a84.13,84.13,0,0,0-10.89-8l2.06-2.93A102.1,102.1,0,0,1,333.06,340.74Z"/>
  </g>
  <g>
    <path class="cls-3" d="M197.69,397.89h-1.35v1.43h-5.72v2.85h-2.85v-9.92h8.51v1.35h1.41Zm-2.85,0v-4.21h-4.22v4.21Z"/>
    <path class="cls-3" d="M212.64,400.74h-1.36v1.43h-7.13v-1.35h-1.44v-7.14h1.36v-1.43h7.15v1.35h1.42Zm-2.85,0v-7.06h-4.23v7.06Z"/>
    <path class="cls-3" d="M227.58,397.91h-2.85v1.37h1.44v1.46h1.41v1.43h-4.22v-1.33h-1.42v-1.5h-1.43v2.83h-2.85v-9.92h8.51v1.37h1.41Zm-2.85-1.44v-2.79h-4.22v4.23h2.85v-1.44Z"/>
    <path class="cls-3" d="M241.81,396.47h-1.35v1.42H239v4.28h-2.89V398h-1.37v-1.44H233.3v-4.28h2.81v4.22H239v-4.22h2.85Z"/>
    <path class="cls-3" d="M257.47,402.17H250.4v-1.35H249v-1.44h-1.43V395h1.35v-1.42h1.44v-1.37h7.13v1.37h-5.62V395H250.4v4.24h1.39v1.46h2.83V398h-1.37v-1.44h4.22Z"/>
    <path class="cls-3" d="M272.42,400.74h-1.36v1.43h-7.13v-1.35H262.5v-7.14h1.35v-1.43H271v1.35h1.42Zm-2.85,0v-7.06h-4.22v7.06Z"/>
    <path class="cls-3" d="M287.37,402.17h-2.81v-1.35h-1.42v-1.44h-1.43v-1.45h-1.38v4.24h-2.89v-9.92h2.81v1.35h1.46V395h1.43v1.45h1.38v-4.22h2.85Z"/>
  </g>
  <rect class="cls-4" x="113.54" y="103.13" width="248.85" height="207.86"/>
  <line class="cls-4" x1="148.98" y1="103.13" x2="148.98" y2="310.99"/>
  <line class="cls-4" x1="184.79" y1="103.13" x2="184.79" y2="310.99"/>
  <line class="cls-4" x1="220.24" y1="103.13" x2="220.24" y2="310.99"/>
  <line class="cls-4" x1="255.68" y1="103.13" x2="255.68" y2="310.99"/>
  <line class="cls-4" x1="291.13" y1="103.13" x2="291.13" y2="310.99"/>
  <line class="cls-4" x1="326.94" y1="103.13" x2="326.94" y2="310.99"/>
  <line class="cls-4" x1="113.54" y1="278.13" x2="362.38" y2="278.13"/>
  <line class="cls-4" x1="113.54" y1="242.69" x2="362.38" y2="242.69"/>
  <line class="cls-4" x1="113.54" y1="207.25" x2="362.38" y2="207.25"/>
  <line class="cls-4" x1="113.54" y1="171.43" x2="362.38" y2="171.43"/>
  <line class="cls-4" x1="113.54" y1="135.99" x2="362.38" y2="135.99"/>
  <rect class="cls-5" x="184.79" y="278.13" width="106.33" height="20.86"/>
  <g>
    <path class="cls-2" d="M195.77,290.87v-.47a20.91,20.91,0,0,0-.46-3.72,13.35,13.35,0,0,0-.86-3.15,1.83,1.83,0,0,0-1.74-1.06h-.26v-1.13h1a2,2,0,0,1,2,1.12,17.6,17.6,0,0,1,1.18,4.46,13,13,0,0,1,2.56-5.58L201,281a17.65,17.65,0,0,1,1.09,4.47l.25,1.65c.08.58.14,1,.17,1.24a11.64,11.64,0,0,0,.41,2.24,4,4,0,0,1,3.61-2.5,3.25,3.25,0,0,1,2.37,1,3.16,3.16,0,0,1,1,2.32,3.43,3.43,0,0,1-1,2.48,3.22,3.22,0,0,1-2.4,1,4.54,4.54,0,0,1-3.38-1.5,10.37,10.37,0,0,1-1.82,3.46,3.69,3.69,0,0,1-2.6.75h-1.22v-1.13H198a3.23,3.23,0,0,0,2.4-.7,12.55,12.55,0,0,0,1.66-3.69,5.71,5.71,0,0,1-.59-1.34,20.75,20.75,0,0,1-.37-2.35l-.34-2.59a13.85,13.85,0,0,0-.79-3.52,12,12,0,0,0-2,3.7,12.53,12.53,0,0,0-.84,4.17v.73Zm7.59,1.37a4.14,4.14,0,0,0,3,1.62,2.25,2.25,0,0,0,1.69-.7,2.45,2.45,0,0,0,.68-1.76,2.23,2.23,0,0,0-.65-1.61,2.11,2.11,0,0,0-1.57-.66C205.16,289.13,204.12,290.16,203.36,292.24Z"/>
    <path class="cls-2" d="M220.48,293.53V282.7h10.83v10.83Z"/>
    <path class="cls-2" d="M242,294.88V281.34h16.7v13.54Zm1.35-1.36h14V282.71h-14Zm7-9.46,5.86,5.85-1,1-4.9-4.9-4.9,4.9-1-1Z"/>
    <path class="cls-2" d="M272.05,290.86l-2.74-2.75,2.74-2.74,2.76,2.74Zm1.28-6.77,2.75-2.75,2.75,2.75-2.75,2.75Zm5.49,8.05-2.74,2.74-2.75-2.74,2.75-2.75Zm1.28-6.77,2.75,2.74-2.75,2.75-2.74-2.75Z"/>
  </g>
  <rect class="cls-4" x="113.54" y="103.13" width="248.85" height="207.86"/>
  <line class="cls-4" x1="174.57" y1="388.96" x2="301.36" y2="388.96"/>
  <g>
    <path class="cls-2" d="M100.87,43.52v6.21h-.52A6.62,6.62,0,0,0,98.18,46a5.54,5.54,0,0,0-3.59-1.29,5.32,5.32,0,0,0-3.08,1,5.58,5.58,0,0,0-2.05,2.53,11.33,11.33,0,0,0-.84,4.44A15.05,15.05,0,0,0,89.23,57a5.85,5.85,0,0,0,1.91,3,5.3,5.3,0,0,0,3.35,1,6.6,6.6,0,0,0,3.1-.74,10.94,10.94,0,0,0,3-2.55v1.54a9.68,9.68,0,0,1-3.14,2.28,9.39,9.39,0,0,1-3.81.71,11,11,0,0,1-5.1-1.15,8.23,8.23,0,0,1-3.44-3.3,9.32,9.32,0,0,1-1.21-4.59,9.82,9.82,0,0,1,5-8.44,9.85,9.85,0,0,1,4.84-1.26,11,11,0,0,1,4,.82,6.33,6.33,0,0,0,1.54.47,1,1,0,0,0,.74-.31,1.71,1.71,0,0,0,.4-1Z"/>
    <path class="cls-2" d="M132.42,43.93v.48a2.7,2.7,0,0,0-1.36.52A13.68,13.68,0,0,0,129,48l-3.88,6.49v4.33a5.9,5.9,0,0,0,.14,1.73,1.36,1.36,0,0,0,.58.59,2.09,2.09,0,0,0,1.14.26h1v.49H117.9v-.49h.93a2.4,2.4,0,0,0,1.26-.28,1.22,1.22,0,0,0,.54-.63,5.31,5.31,0,0,0,.15-1.67V55.19l-4.22-7.68a11.52,11.52,0,0,0-1.77-2.68,2.22,2.22,0,0,0-1.38-.42v-.48H122v.48h-.39a1.94,1.94,0,0,0-1.09.23.63.63,0,0,0-.31.47,7.86,7.86,0,0,0,1.06,2.4l3.24,5.93,3.22-5.4A7.15,7.15,0,0,0,129,45.41a.72.72,0,0,0-.35-.6,3.32,3.32,0,0,0-1.65-.4v-.48Z"/>
    <path class="cls-2" d="M155.6,52.35a8.91,8.91,0,0,1,3.58,1.44,3.82,3.82,0,0,1,1.48,3.12A4.12,4.12,0,0,1,159,60.25a9.1,9.1,0,0,1-5.81,1.6h-9.1v-.49a4.18,4.18,0,0,0,1.68-.23,1.29,1.29,0,0,0,.62-.6,5.49,5.49,0,0,0,.18-1.83V47.07a5.49,5.49,0,0,0-.18-1.83,1.32,1.32,0,0,0-.63-.6,4.18,4.18,0,0,0-1.67-.23v-.48h8.59a12.36,12.36,0,0,1,4.36.54,4.56,4.56,0,0,1,2,1.64,4,4,0,0,1,.74,2.32,3.27,3.27,0,0,1-.94,2.31A6.75,6.75,0,0,1,155.6,52.35Zm-4.81.67v5.75l0,.66a1.29,1.29,0,0,0,1.45,1.44,4.07,4.07,0,0,0,1.95-.47A3.13,3.13,0,0,0,155.53,59a4.12,4.12,0,0,0,.48-2,4.36,4.36,0,0,0-.58-2.25,3.15,3.15,0,0,0-1.6-1.4A8.77,8.77,0,0,0,150.79,53Zm0-1a6.88,6.88,0,0,0,2.77-.42,3.26,3.26,0,0,0,1.37-1.19,3.74,3.74,0,0,0,.47-2,3.61,3.61,0,0,0-.47-2,3,3,0,0,0-1.34-1.16,7.21,7.21,0,0,0-2.8-.38Z"/>
    <path class="cls-2" d="M179.82,45v7.29h.36a2.82,2.82,0,0,0,2.47-1.07,6.55,6.55,0,0,0,1-3.16h.5v9.39h-.5A7.09,7.09,0,0,0,183,54.9a2.93,2.93,0,0,0-1.18-1.32,4.57,4.57,0,0,0-2-.34V58.3a6.91,6.91,0,0,0,.13,1.81,1.06,1.06,0,0,0,.47.54,2.17,2.17,0,0,0,1.11.21h1.07a5.78,5.78,0,0,0,6.2-4.71h.49l-.81,5.7H173v-.49h.59a2.45,2.45,0,0,0,1.26-.28,1.21,1.21,0,0,0,.53-.63,5.8,5.8,0,0,0,.14-1.67V47a10.23,10.23,0,0,0-.06-1.49,1.34,1.34,0,0,0-.49-.72,2.35,2.35,0,0,0-1.38-.37H173v-.48h15v5.3h-.5a6.51,6.51,0,0,0-1.08-2.79,4,4,0,0,0-2-1.25,11.21,11.21,0,0,0-2.78-.23Z"/>
    <path class="cls-2" d="M208.52,53.68v5a5.6,5.6,0,0,0,.18,1.84,1.32,1.32,0,0,0,.63.6,4.26,4.26,0,0,0,1.68.22v.49h-9.18v-.49a4.23,4.23,0,0,0,1.69-.23,1.29,1.29,0,0,0,.62-.6,5.49,5.49,0,0,0,.18-1.83V47.07a5.49,5.49,0,0,0-.18-1.83,1.32,1.32,0,0,0-.63-.6,4.21,4.21,0,0,0-1.68-.23v-.48h8.33a18.68,18.68,0,0,1,4.76.44A4.8,4.8,0,0,1,217.38,46a4.45,4.45,0,0,1,1,2.84,4.23,4.23,0,0,1-1.43,3.28,5.85,5.85,0,0,1-2.55,1.23l4.31,6.07a9.14,9.14,0,0,0,1.21,1.46,2.14,2.14,0,0,0,1.25.45v.49h-5.64l-5.78-8.17Zm0-8.79v7.85h.76a8.63,8.63,0,0,0,2.75-.33,2.78,2.78,0,0,0,1.43-1.22A4.44,4.44,0,0,0,214,48.9a3.48,3.48,0,0,0-4-4Z"/>
    <path class="cls-2" d="M268.1,43.93v.48a2.93,2.93,0,0,0-1.75,1.05,16.12,16.12,0,0,0-1.65,3.11l-6.17,13.69h-.44L251.94,48a18.48,18.48,0,0,0-1.48-3,2.17,2.17,0,0,0-1.43-.57v-.48h8.6v.48h-.29a2.94,2.94,0,0,0-1.59.3.64.64,0,0,0-.3.58,1.84,1.84,0,0,0,.1.56c.07.22.31.79.71,1.74l3.83,8.92,3.54-7.94c.42-1,.68-1.61.78-1.93a3.32,3.32,0,0,0,.14-.84,1.2,1.2,0,0,0-.21-.7,1.29,1.29,0,0,0-.62-.46,4.17,4.17,0,0,0-1.51-.23v-.48Z"/>
    <path class="cls-2" d="M289.12,61.36v.49h-9.37v-.49h.59a2.45,2.45,0,0,0,1.26-.28,1.21,1.21,0,0,0,.53-.63,5.8,5.8,0,0,0,.14-1.67V47a6.3,6.3,0,0,0-.14-1.72,1.35,1.35,0,0,0-.59-.6,2.43,2.43,0,0,0-1.2-.26h-.59v-.48h9.37v.48h-.6a2.49,2.49,0,0,0-1.25.28,1.29,1.29,0,0,0-.54.64,5.23,5.23,0,0,0-.15,1.66V58.78a5.72,5.72,0,0,0,.15,1.72,1.33,1.33,0,0,0,.6.6,2.26,2.26,0,0,0,1.19.26Z"/>
    <path class="cls-2" d="M313.29,43.52l.14,6h-.54A6.11,6.11,0,0,0,311,45.88a4.72,4.72,0,0,0-3.25-1.37,3,3,0,0,0-2.13.72,2.17,2.17,0,0,0-.79,1.66,1.94,1.94,0,0,0,.28,1,4.21,4.21,0,0,0,1.23,1.23,27.54,27.54,0,0,0,2.86,1.55,12.83,12.83,0,0,1,4.25,2.92,5,5,0,0,1,1.08,3.15,5,5,0,0,1-1.75,3.86,6.3,6.3,0,0,1-4.45,1.62,7,7,0,0,1-1.6-.17,11.54,11.54,0,0,1-1.89-.65,3,3,0,0,0-1-.26,1.35,1.35,0,0,0-.73.26,1.94,1.94,0,0,0-.62.81H302V55.49h.49a7.74,7.74,0,0,0,2.24,4.36,5.26,5.26,0,0,0,3.58,1.5,3.37,3.37,0,0,0,2.36-.81,2.42,2.42,0,0,0,.54-3.1,3.85,3.85,0,0,0-1-1.13,14.67,14.67,0,0,0-2.43-1.4,20.22,20.22,0,0,1-3.51-2A6.08,6.08,0,0,1,302.56,51a4.7,4.7,0,0,1-.58-2.3A4.88,4.88,0,0,1,303.56,45a5.51,5.51,0,0,1,4-1.5,6.75,6.75,0,0,1,1.69.21,7.84,7.84,0,0,1,1.52.59,3.58,3.58,0,0,0,1.25.42.7.7,0,0,0,.54-.21,2.4,2.4,0,0,0,.37-1Z"/>
    <path class="cls-2" d="M336.37,61.36v.49H327v-.49h.59a2.45,2.45,0,0,0,1.26-.28,1.21,1.21,0,0,0,.53-.63,5.8,5.8,0,0,0,.14-1.67V47a6.3,6.3,0,0,0-.14-1.72,1.3,1.3,0,0,0-.59-.6,2.4,2.4,0,0,0-1.2-.26H327v-.48h9.37v.48h-.59a2.56,2.56,0,0,0-1.26.28,1.29,1.29,0,0,0-.54.64,5.23,5.23,0,0,0-.15,1.66V58.78A5.72,5.72,0,0,0,334,60.5a1.38,1.38,0,0,0,.6.6,2.3,2.3,0,0,0,1.2.26Z"/>
    <path class="cls-2" d="M358.28,43.67a8.9,8.9,0,0,1,9.64,9.15,9.54,9.54,0,0,1-2,6,8.85,8.85,0,0,1-7.47,3.44A9,9,0,0,1,351,59a9.48,9.48,0,0,1-2.09-6.14,8.91,8.91,0,0,1,2.72-6.66A8.64,8.64,0,0,1,358.28,43.67Zm.16.85A4,4,0,0,0,354.7,47,13.38,13.38,0,0,0,353.65,53q0,4.59,1.61,6.79a3.69,3.69,0,0,0,3.15,1.53,3.74,3.74,0,0,0,2.27-.66,5.5,5.5,0,0,0,1.82-2.71,15,15,0,0,0,.64-4.84,16.13,16.13,0,0,0-.66-5.32,5.14,5.14,0,0,0-1.68-2.49A4,4,0,0,0,358.44,44.52Z"/>
    <path class="cls-2" d="M386.45,43.93,395.3,55v-7.7a3.65,3.65,0,0,0-.47-2.19,2.57,2.57,0,0,0-2.12-.74v-.48h5.92v.48a4.69,4.69,0,0,0-1.53.38,1.6,1.6,0,0,0-.61.75,5.32,5.32,0,0,0-.22,1.8V62.26h-.45L383.7,47.34V58.73a2.52,2.52,0,0,0,.71,2.09,2.59,2.59,0,0,0,1.62.54h.42v.49h-6.36v-.49a2.21,2.21,0,0,0,2.65-2.63V46.08l-.39-.48a3.54,3.54,0,0,0-1-.93,3,3,0,0,0-1.26-.26v-.48Z"/>
  </g>
  <g>
    <polygon class="cls-6" points="264.14 168.81 273.56 175.23 286.88 171.12 291.11 160.4 284.74 149.81 282.78 149.81 269.13 151.47 264.14 168.81"/>
    <polygon class="cls-7" points="294.59 227.49 287.02 202.58 293.11 203.57 324.39 251.04 298.09 256.92 283.08 237.06 294.59 227.49"/>
    <polygon class="cls-8" points="286.88 171.12 291.11 160.4 303.35 157.56 296.85 180.95 278.35 193.82 272.08 198.43 259.47 203.85 255.66 186.9 273.56 175.23 286.88 171.12"/>
    <polyline class="cls-9" points="218.01 221.86 205.69 227.31 175.39 266.88 175.39 273.07 212.16 244.74 218.01 221.86"/>
    <polygon class="cls-10" points="272.08 198.43 278.35 193.82 287.02 202.58 294.31 227.72 234.81 229.34 233.33 210.42 239.32 211.72 272.08 198.43"/>
    <polygon class="cls-11" points="194.95 210.51 195.32 185.7 213.95 189.94 209.53 204.06 225.12 208.49 222.35 213.74 234.81 229.34 217 253.46 212.16 244.74 218.01 221.86 197.53 210.51 194.95 210.51"/>
    <polygon class="cls-12" points="323.96 259.32 297.43 264.59 298.23 257.42 324.52 251.54 323.96 259.32"/>
    <polygon class="cls-13" points="296.94 264.5 272.86 245.63 283.08 237.06 298.23 257.42 296.94 264.5"/>
    <polygon class="cls-14" points="259.76 256.18 217 253.46 234.99 229.75 294.31 227.72 259.76 256.18"/>
    <polygon class="cls-15" points="234.81 229.34 222.35 213.74 225.12 208.49 233.33 210.42 234.81 229.34"/>
    <polygon class="cls-16" points="235.63 206.27 211.1 199.05 219.77 174.58 251.49 182 235.63 206.27"/>
    <polygon class="cls-17" points="251.49 182 219.77 174.58 238.22 140.03 269.13 151.47 264.14 168.81 251.49 182"/>
    <polygon class="cls-18" points="269.13 151.47 238.54 139.8 261.98 128.13 290.25 137.82 282.78 149.81 269.13 151.47"/>
    <polygon class="cls-19" points="284.74 149.81 282.78 149.81 290.25 137.82 303.35 157.56 291.11 160.4 284.74 149.81"/>
    <polygon class="cls-20" points="214.13 189.77 195.77 185.36 221.63 170.29 219.77 174.58 214.13 189.77"/>
    <polygon class="cls-21" points="239.32 211.72 209.53 204.06 211.1 199.05 235.63 206.27 239.32 211.72"/>
    <polygon class="cls-22" points="235.63 206.27 251.49 182 255.66 186.9 236.53 207.6 235.63 206.27"/>
    <polygon class="cls-23" points="190.11 114.06 209.28 177.49 198.28 183.9 181.39 110.78 190.11 114.06"/>
    <polygon class="cls-24" points="193.03 115.07 217.17 172.89 209.28 177.49 190.21 114.01 193.03 115.07"/>
    <polygon class="cls-25" points="251.49 182 264.14 168.81 273.56 175.23 255.66 186.9 251.49 182"/>
    <polygon class="cls-26" points="236.53 207.6 255.66 186.9 259.47 203.54 239.32 211.72 236.53 207.6"/>
    <polygon class="cls-27" points="205.69 227.31 176.21 213.28 197.53 210.51 218.01 221.86 205.69 227.31"/>
    <polygon class="cls-28" points="175.39 273.07 148.81 262.45 148.73 254.62 175.39 266.88 175.39 273.07"/>
    <polygon class="cls-29" points="175.39 266.88 148.73 254.62 175.37 213.5 205.69 227.31 175.39 266.88"/>
    <path class="cls-2" d="M275.62,162.72a2.26,2.26,0,1,1-2.26-2.26A2.26,2.26,0,0,1,275.62,162.72Z"/>
  </g>
</svg>
