<svg xmlns="http://www.w3.org/2000/svg" xmlns:xlink="http://www.w3.org/1999/xlink" width="172.21mm" height="223.69mm" viewBox="0 0 488.17 634.07">
  <defs>
    <style>
      .cls-1, .cls-14 {
        fill: #0aaa6e;
      }

      .cls-1, .cls-16 {
        stroke: #000;
      }

      .cls-1, .cls-10, .cls-11, .cls-13, .cls-16, .cls-4, .cls-5, .cls-6, .cls-7, .cls-9 {
        stroke-miterlimit: 10;
      }

      .cls-1, .cls-14, .cls-16 {
        opacity: 0.7;
      }

      .cls-2 {
        isolation: isolate;
      }

      .cls-3 {
        opacity: 0.25;
        mix-blend-mode: screen;
        fill: url(#radial-gradient);
      }

      .cls-4 {
        stroke: #1d1c1a;
      }

      .cls-11, .cls-16, .cls-5, .cls-6, .cls-7 {
        fill: none;
      }

      .cls-10, .cls-11, .cls-13, .cls-5, .cls-6, .cls-7, .cls-9 {
        stroke: #fff;
      }

      .cls-5 {
        stroke-width: 9px;
      }

      .cls-7 {
        stroke-width: 3px;
      }

      .cls-8 {
        fill: #fffdf0;
      }

      .cls-12, .cls-9 {
        fill: #fff;
      }

      .cls-10, .cls-11, .cls-13, .cls-9 {
        stroke-width: 2px;
      }

      .cls-10 {
        fill: #231f20;
      }

      .cls-15 {
        clip-path: url(#clip-path);
      }
    </style>
    <radialGradient id="radial-gradient" cx="-968.39" cy="3496.52" r="91.85" gradientTransform="matrix(-0.09, 1, 1, 0.09, -3524.64, 1360.81)" gradientUnits="userSpaceOnUse">
      <stop offset="0.1"/>
      <stop offset="0.15" stop-color="#181407"/>
      <stop offset="0.2" stop-color="#2e250d"/>
      <stop offset="0.27" stop-color="#3f3312"/>
      <stop offset="0.36" stop-color="#4a3d15"/>
      <stop offset="0.47" stop-color="#514217"/>
      <stop offset="0.8" stop-color="#534418"/>
      <stop offset="1"/>
    </radialGradient>
    <clipPath id="clip-path">
      <rect class="cls-1" x="-598.74" y="-681.24" width="492.2" height="639.07"/>
    </clipPath>
  </defs>
  <g class="cls-2">
    <g id="Capa_1" data-name="Capa 1">
      <path class="cls-3" d="M56.05,633.57A91.85,91.85,0,1,1-44,716.38,91.84,91.84,0,0,1,56.05,633.57Z"/>
      <rect class="cls-4" width="488.17" height="634.07"/>
      <rect class="cls-5" x="26.63" y="28.38" width="434.9" height="577.32"/>
      <rect class="cls-5" x="128.67" y="201.36" width="232.92" height="233.5"/>
      <g>
        <g>
          <rect class="cls-6" x="131.83" y="205.06" width="45.22" height="45.22"/>
          <rect class="cls-6" x="131.83" y="250.28" width="45.22" height="45.22"/>
          <rect class="cls-6" x="131.83" y="295.5" width="45.22" height="45.22"/>
          <rect class="cls-6" x="131.83" y="340.72" width="45.22" height="45.22"/>
          <rect class="cls-6" x="131.83" y="385.94" width="45.22" height="45.22"/>
        </g>
        <g>
          <rect class="cls-6" x="177.05" y="205.06" width="45.22" height="45.22"/>
          <rect class="cls-6" x="177.05" y="250.28" width="45.22" height="45.22"/>
          <rect class="cls-6" x="177.05" y="295.5" width="45.22" height="45.22"/>
          <rect class="cls-6" x="177.05" y="340.72" width="45.22" height="45.22"/>
          <rect class="cls-6" x="177.05" y="385.94" width="45.22" height="45.22"/>
        </g>
        <g>
          <rect class="cls-6" x="222.27" y="205.06" width="45.22" height="45.22"/>
          <rect class="cls-6" x="222.27" y="250.28" width="45.22" height="45.22"/>
          <rect class="cls-6" x="222.27" y="295.5" width="45.22" height="45.22"/>
          <rect class="cls-6" x="222.27" y="340.72" width="45.22" height="45.22"/>
          <rect class="cls-6" x="222.27" y="385.94" width="45.22" height="45.22"/>
        </g>
        <g>
          <rect class="cls-6" x="267.49" y="205.06" width="45.22" height="45.22"/>
          <rect class="cls-6" x="267.49" y="250.28" width="45.22" height="45.22"/>
          <rect class="cls-6" x="267.49" y="295.5" width="45.22" height="45.22"/>
          <rect class="cls-6" x="267.49" y="340.72" width="45.22" height="45.22"/>
          <rect class="cls-6" x="267.49" y="385.94" width="45.22" height="45.22"/>
        </g>
        <g>
          <rect class="cls-6" x="312.71" y="205.06" width="45.22" height="45.22"/>
          <rect class="cls-6" x="312.71" y="250.28" width="45.22" height="45.22"/>
          <rect class="cls-6" x="312.71" y="295.5" width="45.22" height="45.22"/>
          <rect class="cls-6" x="312.71" y="340.72" width="45.22" height="45.22"/>
          <rect class="cls-6" x="312.71" y="385.94" width="45.22" height="45.22"/>
        </g>
      </g>
      <polygon class="cls-7" points="458.5 29.45 23.88 29.45 127.58 201.36 362.9 201.36 458.5 29.45"/>
      <polygon class="cls-7" points="32.58 606.56 467.19 606.56 363.5 434.65 128.17 434.65 32.58 606.56"/>
      <path class="cls-8" d="M290.35,319.06a45.22,45.22,0,1,1-45.22-45.23A45.23,45.23,0,0,1,290.35,319.06Z"/>
      <g>
        <path class="cls-9" d="M267.57,65.29c0,5.39-9.55,9.75-21.32,9.75s-21.33-4.36-21.33-9.75,9.55-9.74,21.33-9.74S267.57,59.91,267.57,65.29Z"/>
        <path class="cls-10" d="M267.57,68.24c0,5.38-9.55,9.74-21.32,9.74s-21.33-4.36-21.33-9.74,9.55-9.74,21.33-9.74S267.57,62.86,267.57,68.24Z"/>
        <path class="cls-10" d="M287.07,129.61c0,5.38-17.54,9.74-39.17,9.74s-42.17-4.36-42.17-9.74,20.53-9.74,42.17-9.74S287.07,124.23,287.07,129.61Z"/>
        <path class="cls-10" d="M243.38,68V97.47h6.51V68c0-.82-1.46-1.49-3.25-1.49s-3.26.67-3.26,1.49"/>
        <polyline class="cls-11" points="243.53 97.68 249.77 97.68 286.07 127.11"/>
        <polyline class="cls-11" points="249.89 97.68 243.66 97.68 207.35 127.11"/>
      </g>
      <path class="cls-10" d="M279.65,137.52c0,4.37-14.24,7.91-31.8,7.91s-34.24-3.54-34.24-7.91,16.68-7.91,34.24-7.91S279.65,133.15,279.65,137.52Z"/>
      <path class="cls-9" d="M265.56,145.43c0,2.51-8.16,4.54-18.23,4.54s-19.62-2-19.62-4.54,9.55-4.53,19.62-4.53S265.56,142.93,265.56,145.43Z"/>
      <path class="cls-12" d="M269,438.26c-4.42,0-8,4.62-8,10.32h0c0,5.7,3.59,10.32,8,10.32h33.27c4.43,0,8,4.62,8,10.31h0c0,5.7-3.59,10.32-8,10.32h-34c-4.43,0-8,4.62-8,10.32h0c0,5.7,3.58,10.31,8,10.31h13.95c4.43,0,7.85,4.53,7.85,10.23h0c0,5.7-3.63,10.22-8.06,10.22H269c-4.42,0-8,4.61-8,10.31h0c0,5.7,3.59,10.32,8,10.32h33.27c4.43,0,8,4.62,8,10.32h0c0,5.69-3.59,10.32-8,10.32h-34c-4.43,0-8,4.61-8,10.31h0c0,5.7,3.58,10.32,8,10.32h13.95c4.43,0,7.85,4.52,7.85,10.22h0c0,5.7-3.59,10.22-8,10.22H237c4.43,0,8-4.62,8-10.32h0c0-5.69-3.59-10.31-8-10.31H203.71c-4.42,0-8-4.62-8-10.32h0c0-5.7,3.58-10.31,8-10.31h34c4.43,0,8-4.62,8-10.32h0c0-5.7-3.59-10.32-8-10.32H223.83c-4.42,0-7.85-4.52-7.85-10.22h0c0-5.7,3.63-10.22,8.06-10.22H237c4.43,0,8-4.62,8-10.32h0c0-5.7-3.59-10.31-8-10.31H203.71c-4.42,0-8-4.62-8-10.32h0c0-5.7,3.58-10.32,8-10.32h34c4.43,0,8-4.62,8-10.32h0c0-5.69-3.59-10.31-8-10.31H223.83c-4.42,0-7.85-4.53-7.85-10.23h0c0-5.7,3.59-10.22,8-10.22"/>
      <polygon class="cls-13" points="98.42 380.98 60.24 407.36 60.24 224.25 98.42 248.61 98.42 380.98"/>
      <g>
        <rect class="cls-12" x="51.78" y="223.24" width="7.85" height="185.45"/>
        <rect class="cls-12" x="51.78" y="223.24" width="7.85" height="185.45"/>
        <rect class="cls-12" x="51.78" y="223.24" width="7.85" height="185.45"/>
      </g>
      <path class="cls-12" d="M75.63,373.08c0,7.61-1.78,13.77-4,13.77s-4-6.16-4-13.77,1.78-13.76,4-13.76S75.63,365.48,75.63,373.08Z"/>
      <path class="cls-12" d="M94.07,265.11c0,5.41-1.26,9.8-2.83,9.8s-2.83-4.39-2.83-9.8,1.27-9.8,2.83-9.8S94.07,259.69,94.07,265.11Z"/>
      <line class="cls-11" x1="69.26" y1="271.46" x2="69.26" y2="327.1"/>
      <line class="cls-11" x1="81.49" y1="297.9" x2="81.49" y2="353.55"/>
      <line class="cls-11" x1="91.24" y1="314" x2="91.24" y2="289.45"/>
      <g>
        <polygon class="cls-13" points="392.12 380.98 430.3 407.36 430.3 224.25 392.12 248.61 392.12 380.98"/>
        <g>
          <rect class="cls-12" x="430.92" y="223.24" width="7.85" height="185.45"/>
          <rect class="cls-12" x="430.92" y="223.24" width="7.85" height="185.45"/>
          <rect class="cls-12" x="430.92" y="223.24" width="7.85" height="185.45"/>
        </g>
        <path class="cls-12" d="M414.91,373.08c0,7.61,1.78,13.77,4,13.77s4-6.16,4-13.77-1.78-13.76-4-13.76S414.91,365.48,414.91,373.08Z"/>
        <path class="cls-12" d="M396.47,265.11c0,5.41,1.27,9.8,2.83,9.8s2.83-4.39,2.83-9.8-1.26-9.8-2.83-9.8S396.47,259.69,396.47,265.11Z"/>
        <line class="cls-11" x1="421.28" y1="271.46" x2="421.28" y2="327.1"/>
        <line class="cls-11" x1="409.06" y1="297.9" x2="409.06" y2="353.55"/>
        <line class="cls-11" x1="399.3" y1="314" x2="399.3" y2="289.45"/>
      </g>
      <g>
        <rect class="cls-14" x="-598.74" y="-681.24" width="492.2" height="639.07"/>
        <rect class="cls-16" x="-598.74" y="-681.24" width="492.2" height="639.07"/>
      </g>
    </g>
  </g>
</svg>
