<svg xmlns="http://www.w3.org/2000/svg" xmlns:xlink="http://www.w3.org/1999/xlink" width="163.75mm" height="211.91mm" viewBox="0 0 464.16 600.68">
  <defs>
    <style>
      .cls-1 {
        isolation: isolate;
      }

      .cls-2 {
        opacity: 0.25;
        mix-blend-mode: screen;
        fill: url(#radial-gradient);
      }

      .cls-10, .cls-25, .cls-28, .cls-3, .cls-39, .cls-42, .cls-45, .cls-8 {
        fill: #fff;
      }

      .cls-10, .cls-11, .cls-12, .cls-13, .cls-14, .cls-15, .cls-16, .cls-17, .cls-18, .cls-19, .cls-20, .cls-21, .cls-22, .cls-23, .cls-24, .cls-28, .cls-29, .cls-3, .cls-30, .cls-31, .cls-38, .cls-42, .cls-43, .cls-44, .cls-45, .cls-46, .cls-48, .cls-49, .cls-51, .cls-6, .cls-8 {
        stroke: #000;
      }

      .cls-3, .cls-31, .cls-32, .cls-33, .cls-34, .cls-35, .cls-36, .cls-37, .cls-38, .cls-39, .cls-41, .cls-42, .cls-43, .cls-44, .cls-47, .cls-5, .cls-51, .cls-52, .cls-53, .cls-6, .cls-7, .cls-8 {
        stroke-miterlimit: 10;
      }

      .cls-4 {
        fill: #000dff;
      }

      .cls-5 {
        fill: #ffd8ff;
      }

      .cls-32, .cls-33, .cls-34, .cls-35, .cls-36, .cls-37, .cls-39, .cls-41, .cls-5, .cls-50, .cls-53, .cls-7 {
        stroke: #fff;
      }

      .cls-11, .cls-12, .cls-13, .cls-14, .cls-15, .cls-16, .cls-17, .cls-18, .cls-19, .cls-20, .cls-21, .cls-22, .cls-23, .cls-24, .cls-29, .cls-30, .cls-32, .cls-33, .cls-34, .cls-35, .cls-36, .cls-43, .cls-46, .cls-47, .cls-48, .cls-49, .cls-50, .cls-51, .cls-52, .cls-53, .cls-6, .cls-7, .cls-9 {
        fill: none;
      }

      .cls-10, .cls-30, .cls-38, .cls-39, .cls-41, .cls-48, .cls-49, .cls-52, .cls-8, .cls-9 {
        stroke-width: 2px;
      }

      .cls-47, .cls-9 {
        stroke: #231f20;
      }

      .cls-10, .cls-45, .cls-46, .cls-48, .cls-50, .cls-9 {
        stroke-linejoin: bevel;
      }

      .cls-11, .cls-12, .cls-13, .cls-14, .cls-15, .cls-16, .cls-17, .cls-18, .cls-19, .cls-20, .cls-21, .cls-22, .cls-23, .cls-24, .cls-28, .cls-29, .cls-30, .cls-49 {
        stroke-linejoin: round;
      }

      .cls-11, .cls-12, .cls-13, .cls-14, .cls-15, .cls-16, .cls-17, .cls-18, .cls-19, .cls-20, .cls-21, .cls-22, .cls-23, .cls-24, .cls-32, .cls-33, .cls-34, .cls-35, .cls-36, .cls-42 {
        stroke-width: 0.5px;
      }

      .cls-12 {
        stroke-dasharray: 2.97 2.97;
      }

      .cls-13 {
        stroke-dasharray: 3.01 3.01;
      }

      .cls-14 {
        stroke-dasharray: 3.03 3.03;
      }

      .cls-15 {
        stroke-dasharray: 3.01 3.01;
      }

      .cls-16 {
        stroke-dasharray: 2.98 2.98;
      }

      .cls-17 {
        stroke-dasharray: 2.72 2.72;
      }

      .cls-18 {
        stroke-dasharray: 3 3;
      }

      .cls-19 {
        stroke-dasharray: 3.02 3.02;
      }

      .cls-20 {
        stroke-dasharray: 3.02 3.02;
      }

      .cls-21 {
        stroke-dasharray: 2.97 2.97;
      }

      .cls-22 {
        stroke-dasharray: 3.02 3.02;
      }

      .cls-23 {
        stroke-dasharray: 3.01 3.01;
      }

      .cls-24 {
        stroke-dasharray: 3.03 3.03;
      }

      .cls-26 {
        fill: #ec1941;
      }

      .cls-27 {
        fill: #231f20;
      }

      .cls-33 {
        stroke-dasharray: 1.97 1.97;
      }

      .cls-34 {
        stroke-dasharray: 1.97 1.97;
      }

      .cls-35 {
        stroke-dasharray: 1.97 1.97;
      }

      .cls-36 {
        stroke-dasharray: 2;
      }

      .cls-37, .cls-43, .cls-44, .cls-51 {
        stroke-width: 0.75px;
      }

      .cls-40 {
        fill: #e81e25;
      }

      .cls-49, .cls-51 {
        stroke-linecap: round;
      }

      .cls-52 {
        stroke: #ff00fe;
      }

      .cls-53 {
        stroke-width: 0.25px;
      }
    </style>
    <radialGradient id="radial-gradient" cx="2604.09" cy="-4330.76" r="89.8" gradientTransform="translate(-3831.67 -1978.81) rotate(90.59)" gradientUnits="userSpaceOnUse">
      <stop offset="0.1"/>
      <stop offset="0.15" stop-color="#181407"/>
      <stop offset="0.2" stop-color="#2e250d"/>
      <stop offset="0.27" stop-color="#3f3312"/>
      <stop offset="0.36" stop-color="#4a3d15"/>
      <stop offset="0.47" stop-color="#514217"/>
      <stop offset="0.8" stop-color="#534418"/>
      <stop offset="1"/>
    </radialGradient>
  </defs>
  <g class="cls-1">
    <g id="Capa_1" data-name="Capa 1">
      <path class="cls-2" d="M473.19,580.09a89.8,89.8,0,1,0,88.87,90.72A89.8,89.8,0,0,0,473.19,580.09Z"/>
      <rect class="cls-3" width="464.16" height="600.68"/>
      <rect class="cls-4" x="8.34" y="8.34" width="447.48" height="584"/>
      <rect x="68.38" y="145.1" width="357.7" height="365.84"/>
      <rect class="cls-5" x="53.59" y="129.28" width="357.7" height="365.84"/>
      <g>
        <g>
          <line class="cls-6" x1="230.27" y1="129.28" x2="230.27" y2="412.35"/>
          <line class="cls-6" x1="275.86" y1="129.28" x2="275.86" y2="412.35"/>
          <line class="cls-6" x1="185.35" y1="129.28" x2="185.35" y2="412.35"/>
          <line class="cls-6" x1="368.17" y1="129.28" x2="368.17" y2="412.35"/>
          <line class="cls-6" x1="411.3" y1="129.28" x2="411.3" y2="412.35"/>
          <line class="cls-6" x1="320.78" y1="129.28" x2="320.78" y2="412.35"/>
          <line class="cls-6" x1="96.59" y1="129.28" x2="96.59" y2="412.35"/>
          <line class="cls-6" x1="141.29" y1="129.28" x2="141.29" y2="412.35"/>
          <line class="cls-6" x1="53.59" y1="129.28" x2="53.59" y2="412.35"/>
          <line class="cls-6" x1="53.59" y1="129.28" x2="411.3" y2="129.28"/>
          <line class="cls-6" x1="53.59" y1="129.28" x2="411.3" y2="129.28"/>
          <line class="cls-6" x1="53.59" y1="169.93" x2="411.3" y2="169.93"/>
          <line class="cls-6" x1="53.59" y1="250.42" x2="411.3" y2="250.42"/>
          <line class="cls-6" x1="53.59" y1="212.24" x2="411.3" y2="212.24"/>
          <line class="cls-6" x1="53.59" y1="293.04" x2="411.3" y2="293.04"/>
          <line class="cls-6" x1="53.59" y1="371.24" x2="411.3" y2="371.24"/>
          <line class="cls-6" x1="53.59" y1="331.55" x2="411.3" y2="331.55"/>
          <line class="cls-6" x1="53.59" y1="412.35" x2="411.3" y2="412.35"/>
        </g>
        <g>
          <line class="cls-6" x1="230.27" y1="412.35" x2="230.27" y2="495.12"/>
          <line class="cls-6" x1="275.86" y1="412.35" x2="275.86" y2="495.12"/>
          <line class="cls-6" x1="185.35" y1="412.35" x2="185.35" y2="495.12"/>
          <line class="cls-6" x1="368.17" y1="412.35" x2="368.17" y2="495.12"/>
          <line class="cls-6" x1="411.3" y1="412.35" x2="411.3" y2="495.12"/>
          <line class="cls-6" x1="320.78" y1="412.35" x2="320.78" y2="495.12"/>
          <line class="cls-6" x1="96.59" y1="412.35" x2="96.59" y2="495.12"/>
          <line class="cls-6" x1="141.29" y1="412.35" x2="141.29" y2="495.12"/>
          <line class="cls-6" x1="53.59" y1="416.06" x2="53.59" y2="495.12"/>
          <line class="cls-6" x1="53.59" y1="454.46" x2="411.3" y2="454.46"/>
          <line class="cls-6" x1="53.59" y1="412.35" x2="411.3" y2="412.35"/>
          <line class="cls-6" x1="53.59" y1="495.12" x2="411.3" y2="495.12"/>
          <line class="cls-6" x1="53.59" y1="495.12" x2="411.3" y2="495.12"/>
        </g>
      </g>
      <polyline class="cls-7" points="144.81 260.17 144.81 272 146.89 273.16 146.89 283.54"/>
      <polyline class="cls-6" points="162.69 322.97 162.69 306.71 171.18 302.07 171.18 284.04 162.69 288.4 162.69 269.7"/>
      <rect x="134.46" y="441.73" width="201.33" height="31.9"/>
      <rect class="cls-8" x="131.06" y="437.14" width="201.33" height="31.9"/>
      <polygon points="340.43 320.13 340.43 329.73 363.36 342.71 363.36 333.11 340.43 320.13"/>
      <polygon points="118.5 356.95 118.5 367.17 139.78 354.46 139.78 344.88 118.5 356.95"/>
      <polygon points="245.8 373.03 246.18 385.27 311.89 348.07 311.89 337.32 245.8 373.03"/>
      <polygon points="247.34 370.72 247.34 380.32 269.6 393.44 269.6 383.67 247.34 370.72"/>
      <g>
        <polygon class="cls-9" points="401.29 321.87 382.83 331.99 360.55 318.94 340.91 330.11 363.03 342.73 331.88 359.72 311.89 348.07 250.74 381.52 269.87 393.82 218.63 421.46 119.01 366.58 139.46 354.98 120.48 345.15 100.2 356.47 64.11 336.33 245.96 237.17 401.29 321.87"/>
        <polygon points="341.62 319.51 341.62 329.55 360.58 318.65 360.58 309.07 341.62 319.51"/>
        <polygon points="120.26 335.18 120.26 344.79 139.55 354.74 139.55 345.13 120.26 335.18"/>
        <polygon points="100.36 346.25 100.36 356.64 63.58 336.56 63.58 326.32 100.36 346.25"/>
        <polygon class="cls-10" points="401.29 311.86 382.83 321.98 360.55 308.94 340.91 320.1 363.03 332.73 332.02 350.76 312.3 339.24 250.33 372.46 269.6 383.67 218.63 411.45 119.01 356.57 139.46 344.97 120.48 335.14 100.2 346.46 64.11 326.32 245.96 227.16 401.29 311.86"/>
        <g>
          <g>
            <line class="cls-11" x1="278.86" y1="245.9" x2="277.94" y2="246.42"/>
            <line class="cls-12" x1="276.13" y1="247.45" x2="124.34" y2="333.35"/>
            <line class="cls-11" x1="123.43" y1="333.86" x2="122.51" y2="334.38"/>
          </g>
          <g>
            <line class="cls-11" x1="261.94" y1="234.78" x2="261.02" y2="235.3"/>
            <line class="cls-13" x1="259.18" y1="236.34" x2="86.77" y2="333.66"/>
            <line class="cls-11" x1="85.85" y1="334.18" x2="84.93" y2="334.7"/>
          </g>
          <g>
            <line class="cls-11" x1="316.98" y1="266.79" x2="316.06" y2="267.31"/>
            <line class="cls-13" x1="314.22" y1="268.35" x2="141.8" y2="365.67"/>
            <line class="cls-11" x1="140.88" y1="366.19" x2="139.96" y2="366.71"/>
          </g>
          <g>
            <line class="cls-11" x1="297.44" y1="255.91" x2="296.52" y2="256.43"/>
            <line class="cls-14" x1="294.66" y1="257.48" x2="143.07" y2="343.05"/>
            <line class="cls-11" x1="142.13" y1="343.57" x2="141.22" y2="344.09"/>
          </g>
          <g>
            <line class="cls-11" x1="354.51" y1="287.22" x2="353.59" y2="287.74"/>
            <line class="cls-15" x1="351.75" y1="288.78" x2="179.34" y2="386.1"/>
            <line class="cls-11" x1="178.42" y1="386.62" x2="177.5" y2="387.13"/>
          </g>
          <g>
            <line class="cls-11" x1="334.94" y1="276.35" x2="334.02" y2="276.87"/>
            <line class="cls-16" x1="332.19" y1="277.9" x2="161.26" y2="374.39"/>
            <line class="cls-11" x1="160.34" y1="374.9" x2="159.42" y2="375.42"/>
          </g>
          <g>
            <line class="cls-11" x1="375.73" y1="298.6" x2="374.82" y2="299.14"/>
            <line class="cls-17" x1="373.18" y1="300.13" x2="360.87" y2="307.53"/>
            <line class="cls-11" x1="360.05" y1="308.03" x2="359.15" y2="308.57"/>
          </g>
          <g>
            <line class="cls-11" x1="339.79" y1="319.57" x2="338.88" y2="320.09"/>
            <line class="cls-18" x1="337.04" y1="321.14" x2="201.81" y2="397.95"/>
            <line class="cls-11" x1="200.89" y1="398.47" x2="199.97" y2="398.99"/>
          </g>
          <g>
            <line class="cls-11" x1="88.65" y1="315.43" x2="89.58" y2="315.94"/>
            <line class="cls-19" x1="91.45" y1="316.96" x2="240.04" y2="397.98"/>
            <line class="cls-11" x1="240.98" y1="398.49" x2="241.91" y2="398.99"/>
          </g>
          <g>
            <line class="cls-11" x1="107.39" y1="303.35" x2="108.32" y2="303.86"/>
            <line class="cls-20" x1="110.19" y1="304.88" x2="258.78" y2="385.9"/>
            <line class="cls-11" x1="259.72" y1="386.41" x2="260.64" y2="386.92"/>
          </g>
          <g>
            <line class="cls-11" x1="129.27" y1="291.1" x2="130.2" y2="291.6"/>
            <line class="cls-21" x1="132.04" y1="292.6" x2="263.25" y2="364.09"/>
            <line class="cls-11" x1="264.17" y1="364.59" x2="265.1" y2="365.09"/>
          </g>
          <g>
            <line class="cls-11" x1="149.42" y1="279.83" x2="150.34" y2="280.34"/>
            <line class="cls-21" x1="152.18" y1="281.34" x2="283.4" y2="352.83"/>
            <line class="cls-11" x1="284.31" y1="353.33" x2="285.24" y2="353.83"/>
          </g>
          <g>
            <line class="cls-11" x1="169.53" y1="269.47" x2="170.46" y2="269.97"/>
            <line class="cls-22" x1="172.33" y1="270.99" x2="305.14" y2="343.41"/>
          </g>
          <g>
            <line class="cls-11" x1="189.03" y1="258.55" x2="189.96" y2="259.06"/>
            <line class="cls-22" x1="191.83" y1="260.08" x2="340.42" y2="341.1"/>
            <line class="cls-11" x1="341.35" y1="341.61" x2="342.28" y2="342.11"/>
          </g>
          <g>
            <line class="cls-11" x1="209.15" y1="248.18" x2="210.07" y2="248.69"/>
            <line class="cls-23" x1="211.93" y1="249.7" x2="337.45" y2="318.14"/>
            <line class="cls-11" x1="338.38" y1="318.65" x2="339.31" y2="319.15"/>
          </g>
          <g>
            <line class="cls-11" x1="227.89" y1="236.92" x2="228.82" y2="237.43"/>
            <line class="cls-24" x1="230.7" y1="238.45" x2="357.28" y2="307.55"/>
            <line class="cls-11" x1="358.22" y1="308.07" x2="359.15" y2="308.57"/>
          </g>
          <g>
            <line class="cls-11" x1="155.98" y1="218.55" x2="156.91" y2="219.06"/>
            <line class="cls-20" x1="158.78" y1="220.08" x2="307.37" y2="301.1"/>
            <line class="cls-11" x1="308.31" y1="301.61" x2="309.23" y2="302.12"/>
          </g>
        </g>
        <polygon points="219.22 411.45 219.22 421.84 118.42 366.79 118.42 356.64 219.22 411.45"/>
        <polygon points="100.32 346.61 100.32 356.64 120.26 345.13 120.26 335.56 100.32 346.61"/>
        <polygon points="360.58 309.27 360.58 318.88 382.83 331.99 382.83 322.23 360.58 309.27"/>
        <polygon points="219.22 411.45 219.22 421.84 269.87 393.82 269.87 383.58 219.22 411.45"/>
        <polygon points="332.02 350.35 332.02 360.02 363.79 342.81 363.79 332.67 332.02 350.35"/>
        <polygon points="382.83 322.04 382.83 331.97 401.85 321.32 401.85 311.75 382.83 322.04"/>
      </g>
      <polygon points="311.89 338.47 311.89 348.07 332.02 360.53 332.02 350.76 311.89 338.47"/>
      <g>
        <g>
          <polygon class="cls-25" points="161.23 318.34 152.21 323.39 152.14 321.24 161.23 316.2 161.23 318.34"/>
          <polyline class="cls-25" points="153.36 318.96 153.36 324.45 150.53 323.22"/>
        </g>
        <g>
          <g>
            <polygon class="cls-26" points="161.58 318.55 152.56 323.6 152.49 321.44 161.58 316.4 161.58 318.55"/>
            <polyline class="cls-26" points="153.71 319.16 153.71 324.66 150.88 323.43"/>
          </g>
          <polygon points="161.58 316.41 153.71 320.77 153.71 320.36 161.22 316.15 161.58 316.41"/>
          <polygon points="153.71 319.16 150.91 323.43 150.53 323.23 153.34 318.96 153.71 319.16"/>
        </g>
      </g>
      <g>
        <g>
          <polygon class="cls-25" points="315.53 292.15 328.81 299.59 328.92 296.41 315.53 288.99 315.53 292.15"/>
          <polyline class="cls-25" points="327.12 293.06 327.12 301.14 331.29 299.33"/>
        </g>
        <g>
          <g>
            <polygon class="cls-26" points="315.02 292.45 328.3 299.89 328.41 296.71 315.02 289.29 315.02 292.45"/>
            <polyline class="cls-26" points="326.61 293.36 326.61 301.44 330.77 299.63"/>
          </g>
          <polygon class="cls-27" points="315.02 289.3 326.61 295.73 326.61 295.12 315.55 288.93 315.02 289.3"/>
          <polygon class="cls-27" points="326.61 293.36 330.73 299.64 331.29 299.35 327.14 293.06 326.61 293.36"/>
        </g>
      </g>
      <polygon class="cls-28" points="210.55 263.68 146.69 298.78 146.69 243.44 210.55 208.34 210.55 263.68"/>
      <polygon class="cls-29" points="201.81 223.84 137.95 258.94 137.95 228.37 201.81 193.27 201.81 223.84"/>
      <polygon points="206.62 227.04 142.75 262.14 142.75 230.74 206.62 195.63 206.62 227.04"/>
      <polygon points="214.65 265.15 150.78 300.25 150.78 245.55 214.65 210.44 214.65 265.15"/>
      <polygon class="cls-10" points="137.95 259.34 142.48 261.85 142.48 230.74 137.95 228.47 137.95 259.34"/>
      <polygon class="cls-29" points="311.89 295.84 248.04 331.16 192.17 300.31 255.74 265.15 311.89 295.84"/>
      <polygon class="cls-30" points="255.73 265.02 191.87 300.13 191.87 258.06 255.73 222.96 255.73 265.02"/>
      <polygon class="cls-10" points="312.47 338.5 247.96 374.11 247.96 330.17 312.47 295.28 312.47 338.5"/>
      <polygon class="cls-29" points="231.2 255.35 167.33 291.34 167.33 244.09 231.2 209.25 231.2 255.35"/>
      <polygon points="238.15 292.28 172.01 329.88 172.01 250.03 237.89 212.8 238.15 292.28"/>
      <polygon class="cls-29" points="247.1 260.3 183.23 296.29 182.71 258.95 246.58 222.96 247.1 260.3"/>
      <path class="cls-3" d="M185.83,213.55c0,4.39,7.8,7.95,17.42,7.95s17.41-3.56,17.41-7.95-7.8-8-17.41-8S185.83,209.16,185.83,213.55Z"/>
      <path d="M188.89,213.55c0,3.62,6.43,6.55,14.36,6.55s14.36-2.93,14.36-6.55S211.18,207,203.25,207,188.89,209.93,188.89,213.55Z"/>
      <path class="cls-31" d="M304.55,270.67c-13.53,8.51-25.52,6.5-33.76-3.91a23.5,23.5,0,0,1,4.07-33.3L211.08,268.2c-10.4,8.25-12.41,22.92-4.16,33.32a24,24,0,0,0,33.76,3.91Z"/>
      <g>
        <path class="cls-32" d="M227.79,259.1l-.54.45"/>
        <path class="cls-33" d="M226.21,260.47a23.47,23.47,0,0,0-2.58,31.95,24,24,0,0,0,32.64,4.75"/>
        <path class="cls-32" d="M256.84,296.76l.56-.43"/>
      </g>
      <g>
        <path class="cls-32" d="M244.21,250l-.54.45"/>
        <path class="cls-34" d="M242.63,251.36a23.46,23.46,0,0,0-2.58,31.95,24,24,0,0,0,32.64,4.75"/>
        <path class="cls-32" d="M273.25,287.65c.19-.14.38-.28.56-.43"/>
      </g>
      <g>
        <path class="cls-32" d="M262.53,239.47l-.54.45"/>
        <path class="cls-35" d="M261,240.84a23.47,23.47,0,0,0-2.58,32A24,24,0,0,0,291,277.54"/>
        <path class="cls-32" d="M291.58,277.13l.56-.43"/>
      </g>
      <polygon class="cls-10" points="187.51 297.39 192.04 299.9 192.04 257.34 187.51 255.07 187.51 297.39"/>
      <polygon class="cls-10" points="167.62 327.23 172.15 329.74 172.15 247.21 167.62 244.94 167.62 327.23"/>
      <polygon class="cls-10" points="238.92 369.63 248.02 374.4 248.02 330.47 238.92 325.94 238.92 369.63"/>
      <line class="cls-36" x1="271.64" y1="269.11" x2="209.64" y2="303.57"/>
      <line class="cls-36" x1="284.17" y1="275.14" x2="222.16" y2="309.59"/>
      <line class="cls-36" x1="265.47" y1="255.46" x2="202.54" y2="290.38"/>
      <line class="cls-36" x1="267.48" y1="242.98" x2="204.55" y2="277.9"/>
      <path class="cls-5" d="M261,277.48a16.26,16.26,0,1,1-16.25-16.25A16.26,16.26,0,0,1,261,277.48Z"/>
      <polygon class="cls-37" points="228.7 280.46 245.17 261.51 250.03 292.37 228.7 280.46"/>
      <polygon class="cls-37" points="261.02 276.63 245.31 261.58 250.11 292.26 261.02 276.63"/>
      <path class="cls-25" d="M247.6,278.29s-2.42-8.4-12.24-4.89C235.36,273.4,237.93,281.67,247.6,278.29Z"/>
      <path d="M244,275a2.52,2.52,0,1,1-2.51-2.51A2.51,2.51,0,0,1,244,275Z"/>
      <polygon class="cls-10" points="274.96 233.44 210.99 268.32 192.04 257.69 255.73 222.96 274.96 233.44"/>
      <polygon class="cls-38" points="256.94 239.81 219.15 260.41 207.96 254.13 245.58 233.62 256.94 239.81"/>
      <polygon class="cls-39" points="253.49 241.28 219.68 259.72 211.76 254.94 245.42 236.58 253.49 241.28"/>
      <polygon class="cls-10" points="192.07 257.93 192.07 268.32 137.95 238.5 137.95 228.26 192.07 257.93"/>
      <g>
        <g>
          <polygon class="cls-25" points="288.21 257.68 266.8 269.67 266.63 264.55 288.21 252.59 288.21 257.68"/>
          <polyline class="cls-25" points="269.54 259.14 269.54 272.18 262.82 269.26"/>
        </g>
        <g>
          <g>
            <polygon class="cls-40" points="289.03 258.16 267.63 270.15 267.45 265.03 289.03 253.07 289.03 258.16"/>
            <polyline class="cls-40" points="270.36 259.62 270.36 272.65 263.64 269.74"/>
          </g>
          <polygon class="cls-25" points="289.03 253.08 270.36 263.45 270.36 262.47 288.18 252.48 289.03 253.08"/>
          <polygon class="cls-25" points="270.36 259.62 263.71 269.76 262.82 269.28 269.49 259.14 270.36 259.62"/>
        </g>
      </g>
      <polygon class="cls-10" points="243.49 328.15 243.49 338.54 187.26 307.39 187.26 297.16 243.49 328.15"/>
      <path class="cls-10" d="M211.18,268.39c-10.4,8.24-12.23,22.12-4,32.53A24,24,0,0,0,241,304.83l7.25,25.52-56.47-30.51V257.69Z"/>
      <polygon class="cls-10" points="312.3 295.3 248.3 330.37 241.39 305.18 305.09 270.45 312.3 295.3"/>
      <polygon class="cls-41" points="300.78 295.88 262.08 316.98 257.94 301.59 296.47 280.58 300.78 295.88"/>
      <polygon class="cls-42" points="298.33 296.21 262.44 315.71 258.78 302.08 294.52 282.66 298.33 296.21"/>
      <polygon class="cls-10" points="255.37 222.62 191 257.98 137.84 227.77 201.91 192.57 255.37 222.62"/>
      <g>
        <path class="cls-3" d="M186.34,226.45c0,3.54,6.28,6.4,14,6.4s14-2.86,14-6.4V214.66c0,3.54-6.28,6.41-14,6.41s-14-2.87-14-6.41Z"/>
        <path class="cls-3" d="M183.83,214c0,4.17,7.4,7.55,16.53,7.55s16.54-3.38,16.54-7.55-7.4-7.55-16.54-7.55S183.83,209.83,183.83,214Z"/>
        <path d="M186.73,214c0,3.44,6.1,6.22,13.63,6.22S214,217.44,214,214s-6.11-6.22-13.64-6.22S186.73,210.56,186.73,214Z"/>
        <path class="cls-3" d="M183.83,218.58c0,4.17,7.4,7.55,16.53,7.55s16.54-3.38,16.54-7.55V214c0,4.17-7.4,7.55-16.54,7.55s-16.53-3.38-16.53-7.55Z"/>
      </g>
      <polygon class="cls-10" points="146.49 298.04 150.78 300.41 151.02 245.9 146.49 243.46 146.49 298.04"/>
      <line class="cls-43" x1="311.89" y1="300.19" x2="248.33" y2="334.85"/>
      <line class="cls-44" x1="254.04" y1="345.02" x2="248.14" y2="348.23"/>
      <line class="cls-44" x1="254.04" y1="360.46" x2="248.14" y2="363.67"/>
      <line class="cls-44" x1="273.9" y1="326.97" x2="269.42" y2="329.41"/>
      <line class="cls-44" x1="290.21" y1="323.98" x2="277.13" y2="331.16"/>
      <line class="cls-44" x1="273.9" y1="328.14" x2="261.3" y2="335.06"/>
      <line class="cls-31" x1="273.9" y1="337.13" x2="254.04" y2="347.9"/>
      <line class="cls-43" x1="273.9" y1="320.89" x2="273.9" y2="352"/>
      <path d="M309.17,300.12c-.33-.22-.34-.81,0-1.33s.87-.77,1.21-.56.33.8,0,1.32S309.51,300.33,309.17,300.12Z"/>
      <path d="M296.11,313.13c-.33-.21-.33-.81,0-1.33s.87-.77,1.21-.56.34.8,0,1.33S296.45,313.34,296.11,313.13Z"/>
      <path d="M301,321.13c-.22-.14-.22-.51,0-.84s.55-.49.76-.36.22.51,0,.84S301.25,321.26,301,321.13Z"/>
      <path d="M296.74,332c-.21-.13-.21-.51,0-.84s.55-.48.76-.35.21.51,0,.84S297,332.09,296.74,332Z"/>
      <path d="M309.17,306.19c-.33-.22-.34-.81,0-1.33s.87-.77,1.21-.56.33.8,0,1.32S309.51,306.4,309.17,306.19Z"/>
      <path d="M271,325.75c-.33-.21-.33-.8,0-1.33s.87-.77,1.21-.56.34.81,0,1.33S271.38,326,271,325.75Z"/>
      <path d="M250.49,360.49c-.33-.21-.34-.81,0-1.33s.87-.77,1.21-.56.34.8,0,1.33S250.83,360.7,250.49,360.49Z"/>
      <path d="M250.49,355.49c-.33-.21-.34-.8,0-1.32s.87-.78,1.21-.57.34.81,0,1.33S250.83,355.7,250.49,355.49Z"/>
      <path d="M250.49,351c-.33-.21-.34-.81,0-1.33s.87-.77,1.21-.56.34.8,0,1.33S250.83,351.2,250.49,351Z"/>
      <path d="M265.53,354.27c-.34-.21-.34-.81,0-1.33s.87-.77,1.2-.56.34.81,0,1.33S265.86,354.48,265.53,354.27Z"/>
      <path d="M188.51,262.94c.6-.05,1-.84,1-1.78s-.61-1.68-1.21-1.64-1.05.84-1,1.78S187.9,263,188.51,262.94Z"/>
      <path d="M195,285.64c.6,0,1.05-.84,1-1.78s-.61-1.68-1.22-1.64-1,.84-1,1.78S194.38,285.68,195,285.64Z"/>
      <path d="M195,293.39c.6,0,1.05-.84,1-1.78s-.61-1.68-1.22-1.64-1,.84-1,1.78S194.38,293.43,195,293.39Z"/>
      <path d="M240,333.7c.6,0,1-.84,1-1.78s-.61-1.67-1.21-1.64-1,.84-1,1.79S239.34,333.74,240,333.7Z"/>
      <path class="cls-25" d="M243.58,368.88c.61,0,1-.84,1-1.78s-.61-1.68-1.21-1.64-1.05.84-1,1.79S243,368.92,243.58,368.88Z"/>
      <path d="M141.92,237c.6,0,1-.84,1-1.78s-.61-1.68-1.21-1.64-1.05.84-1,1.79S141.31,237.05,141.92,237Z"/>
      <path d="M140.29,258.64c.41,0,.71-.57.67-1.21s-.41-1.14-.83-1.12-.71.57-.66,1.22S139.88,258.67,140.29,258.64Z"/>
      <path d="M148.63,297.14c.41,0,.71-.57.67-1.22s-.41-1.14-.83-1.11-.71.57-.66,1.21S148.22,297.17,148.63,297.14Z"/>
      <path d="M170,260.88c.41,0,.71-.57.67-1.21s-.42-1.14-.83-1.12-.71.57-.67,1.22S169.55,260.91,170,260.88Z"/>
      <path d="M170,326c.41,0,.71-.57.67-1.21s-.42-1.14-.83-1.12-.71.57-.67,1.22S169.55,326,170,326Z"/>
      <path d="M245,307.42c-.38.1-.82-.3-1-.9s0-1.16.41-1.26.82.29,1,.89S245.38,307.31,245,307.42Z"/>
      <path d="M250.62,327.81c-.39.1-.83-.3-1-.89s0-1.17.4-1.27.82.3,1,.9S251,327.71,250.62,327.81Z"/>
      <path d="M304,275.26c-.38.1-.82-.3-1-.89s0-1.17.41-1.27.82.3,1,.9S304.4,275.16,304,275.26Z"/>
      <path d="M309.63,295.66c-.38.09-.82-.3-1-.9s0-1.16.41-1.26.82.29,1,.89S310,295.55,309.63,295.66Z"/>
      <path d="M309.17,336.55c-.33-.21-.34-.8,0-1.33s.87-.77,1.21-.56.33.81,0,1.33S309.51,336.76,309.17,336.55Z"/>
      <path d="M308.22,326.17c-.26-.16-.26-.63,0-1s.68-.6.94-.44.26.63,0,1S308.48,326.33,308.22,326.17Z"/>
      <path d="M310.35,325c-.26-.16-.26-.62,0-1s.68-.6.94-.44.27.63,0,1S310.61,325.2,310.35,325Z"/>
      <path d="M268.21,336.44c-.22-.14-.23-.54,0-.89s.59-.53.82-.38.23.54,0,.89S268.44,336.58,268.21,336.44Z"/>
      <path d="M270.37,335.23c-.22-.15-.23-.55,0-.9s.58-.52.81-.38.23.54,0,.89S270.6,335.37,270.37,335.23Z"/>
      <path d="M272.38,334.11c-.22-.14-.23-.54,0-.89s.59-.52.82-.38.23.54,0,.89S272.61,334.25,272.38,334.11Z"/>
      <path d="M250.28,369.55c-.33-.21-.34-.81,0-1.33s.87-.77,1.21-.56.34.8,0,1.33S250.62,369.76,250.28,369.55Z"/>
      <path class="cls-25" d="M164,280c-.5-.32-.51-1.21,0-2s1.31-1.17,1.82-.85.51,1.21,0,2S164.5,280.29,164,280Z"/>
      <path class="cls-25" d="M178.44,286.89c-.51-.32-.52-1.22,0-2s1.32-1.16,1.82-.85.51,1.22,0,2S178.94,287.21,178.44,286.89Z"/>
      <path class="cls-25" d="M178.44,305c-.51-.32-.52-1.22,0-2s1.32-1.16,1.82-.85.51,1.22,0,2S178.94,305.32,178.44,305Z"/>
      <path class="cls-25" d="M164,261.59c-.5-.32-.51-1.21,0-2s1.31-1.17,1.82-.85.51,1.21,0,2S164.5,261.91,164,261.59Z"/>
      <polygon points="273.9 330.18 273.82 331.91 265.84 336.36 265.83 334.77 273.9 330.18"/>
      <polygon points="256.8 364.24 256.8 367.09 248.3 371.88 248.27 368.97 256.8 364.24"/>
      <polygon points="311.89 319.41 311.89 322.24 305.14 325.86 305.14 323.01 311.89 319.41"/>
      <polygon points="261.03 356.81 261.03 359.25 248.05 366.59 248.02 363.68 261.03 356.81"/>
      <polygon points="273.9 334.26 273.82 335.55 265.84 340 265.83 338.85 273.9 334.26"/>
      <g>
        <polygon class="cls-45" points="139.4 227.83 151.33 234.38 151.31 230.89 139.38 224.79 139.4 227.83"/>
        <polygon class="cls-45" points="163.78 227.41 151.33 234.42 151.31 230.93 163.76 224.07 163.78 227.41"/>
        <g>
          <polygon class="cls-25" points="139.61 224.67 152.11 217.96 163.74 224.3 151.3 230.89 139.61 224.67"/>
          <polygon class="cls-46" points="139.4 224.56 152.11 217.72 163.74 224.07 151.31 230.93 139.4 224.56"/>
        </g>
        <polygon points="149.35 228.62 151.31 229.64 160.38 224.24 158.53 223.27 149.35 228.62"/>
        <polygon points="142.75 224.54 144.71 225.56 153.78 220.17 151.94 219.19 142.75 224.54"/>
        <polygon class="cls-25" points="148.55 224.92 147.33 224.26 146.63 224.65 147.85 225.33 148.55 224.92"/>
        <polygon class="cls-25" points="146.77 223.88 145.54 223.22 144.84 223.62 146.07 224.29 146.77 223.88"/>
        <polygon class="cls-25" points="150.21 225.87 148.98 225.21 148.28 225.6 149.51 226.28 150.21 225.87"/>
        <polyline points="147.91 227.78 157.65 222.28 152 219.19 142.23 224.59"/>
        <path class="cls-25" d="M146.77,222.64c0,.22.27.4.61.4s.62-.18.62-.4-.28-.4-.62-.39S146.76,222.43,146.77,222.64Z"/>
        <path class="cls-25" d="M148.61,221.59c0,.22.28.4.62.39s.61-.18.61-.4-.28-.39-.62-.39S148.61,221.37,148.61,221.59Z"/>
        <path class="cls-25" d="M152,223.7c0,.22.28.39.62.39s.61-.18.61-.4-.28-.39-.62-.39S152,223.48,152,223.7Z"/>
        <path class="cls-25" d="M148.1,226.13c0,.22.28.4.62.39s.61-.17.61-.39-.28-.4-.62-.4S148.1,225.91,148.1,226.13Z"/>
        <path class="cls-25" d="M146.33,224.8c0,.22.28.39.62.39s.62-.18.62-.4-.28-.39-.62-.39S146.33,224.58,146.33,224.8Z"/>
        <path class="cls-25" d="M144.71,223.91c0,.22.28.39.62.39s.61-.18.61-.4-.28-.39-.62-.39S144.71,223.69,144.71,223.91Z"/>
        <polygon class="cls-25" points="143.99 225.65 145.95 226.68 155.02 221.28 153.18 220.3 143.99 225.65"/>
        <polygon points="150 221.68 152.38 223.05 153.79 222.25 151.35 220.88 150 221.68"/>
        <polygon points="147.34 223.6 149.72 224.97 151.13 224.16 148.69 222.8 147.34 223.6"/>
        <polygon points="145.16 224.7 147.54 226.07 148.95 225.26 146.51 223.9 145.16 224.7"/>
        <path class="cls-25" d="M150.2,224.78c0,.22.28.39.62.39s.62-.18.62-.4-.28-.39-.62-.39S150.2,224.56,150.2,224.78Z"/>
      </g>
      <g>
        <polygon class="cls-45" points="268.96 231.33 261.94 235.19 261.95 233.13 268.97 229.54 268.96 231.33"/>
        <polygon class="cls-45" points="254.6 231.08 261.93 235.21 261.95 233.15 254.62 229.11 254.6 231.08"/>
        <g>
          <polygon class="cls-25" points="269.12 229.29 261.63 225.13 254.48 229.02 262.11 233.04 269.12 229.29"/>
          <polygon class="cls-46" points="269.12 229.16 261.63 224.99 254.48 228.88 262.11 232.91 269.12 229.16"/>
        </g>
        <polygon points="263.21 231.48 262.05 232.08 256.71 228.9 257.8 228.33 263.21 231.48"/>
        <polygon class="cls-25" points="263.57 229.61 264.29 229.22 264.71 229.46 263.99 229.85 263.57 229.61"/>
        <polygon class="cls-25" points="264.62 229 265.34 228.62 265.76 228.85 265.04 229.24 264.62 229"/>
        <polygon class="cls-25" points="262.6 230.17 263.32 229.78 263.73 230.01 263.01 230.41 262.6 230.17"/>
        <polyline points="264.05 230.99 258.31 227.75 261.64 225.93 267.4 229.1"/>
        <path class="cls-25" d="M264.73,228c0,.13-.17.23-.37.23s-.36-.1-.36-.23.16-.23.37-.23S264.73,227.83,264.73,228Z"/>
        <path class="cls-25" d="M263.64,227.34c0,.13-.16.23-.36.23s-.37-.11-.37-.23.17-.24.37-.23S263.64,227.21,263.64,227.34Z"/>
        <path class="cls-25" d="M261.67,228.58c0,.13-.17.23-.37.23s-.36-.1-.36-.23.16-.23.37-.23S261.67,228.45,261.67,228.58Z"/>
        <path class="cls-25" d="M263.94,230c0,.12-.16.23-.36.23s-.37-.11-.37-.24.17-.23.37-.23S263.94,229.89,263.94,230Z"/>
        <path class="cls-25" d="M264.88,229.54c0,.13-.17.23-.36.23s-.37-.1-.37-.23.17-.23.37-.23S264.88,229.41,264.88,229.54Z"/>
        <path class="cls-25" d="M265.94,228.71c0,.12-.17.23-.37.23s-.36-.11-.36-.24.16-.23.37-.23S265.94,228.58,265.94,228.71Z"/>
        <polygon class="cls-25" points="266.16 229.81 265.05 230.45 259.67 227.23 260.75 226.66 266.16 229.81"/>
        <polygon points="262.7 227.46 261.3 228.27 260.47 227.79 261.91 226.99 262.7 227.46"/>
        <polygon points="264.39 228.52 262.98 229.33 262.16 228.85 263.59 228.05 264.39 228.52"/>
        <polygon points="265.67 229.17 264.2 229.98 263.44 229.5 264.88 228.7 265.67 229.17"/>
        <path class="cls-25" d="M262.7,229.22c0,.13-.16.23-.36.23s-.37-.11-.36-.24.16-.23.36-.23S262.7,229.09,262.7,229.22Z"/>
      </g>
      <polygon points="265.83 334.8 265.84 337.79 267.53 336.81 267.53 333.82 265.83 334.8"/>
      <polygon points="261.6 336.73 261.61 341.18 264.27 339.66 264.27 335.21 261.6 336.73"/>
      <polygon points="260.34 328.42 260.35 332.87 262.86 331.42 262.86 326.97 260.34 328.42"/>
      <polygon points="305.14 324.33 305.15 328.78 307.66 327.33 307.66 322.88 305.14 324.33"/>
      <polygon points="279.36 317.81 279.37 322.26 281.88 320.81 281.88 316.36 279.36 317.81"/>
      <polygon points="299.52 339.18 299.53 343.63 302.04 342.18 302.04 337.73 299.52 339.18"/>
      <polygon points="284.32 315.46 284.33 321.86 286.84 320.41 286.84 314 284.32 315.46"/>
      <polygon points="270.09 341.17 270.1 350.86 272.61 349.4 272.61 339.72 270.09 341.17"/>
      <polygon class="cls-25" points="270.65 343.11 270.65 348.48 272.05 347.67 272.05 342.3 270.65 343.11"/>
      <polygon points="295.61 339.2 295.62 345.61 298.13 344.15 298.13 337.75 295.61 339.2"/>
      <polygon points="259.71 361.76 259.72 368.17 262.23 366.72 262.23 360.31 259.71 361.76"/>
      <polygon points="263.37 362.36 263.39 368.77 265.9 367.32 265.9 360.91 263.37 362.36"/>
      <polygon points="267.35 359.22 267.37 365.63 269.87 364.18 269.87 357.77 267.35 359.22"/>
      <polygon points="255.94 357.21 255.96 359.86 258.47 358.4 258.47 355.76 255.94 357.21"/>
      <polygon points="291.58 336.54 291.59 347.56 294.1 346.11 294.1 335.08 291.58 336.54"/>
      <polygon points="257.21 341.15 257.22 345.96 259.73 344.51 259.73 339.7 257.21 341.15"/>
      <polygon points="287.99 313.23 288 316.44 290.51 314.99 290.51 311.78 287.99 313.23"/>
      <polygon points="275.51 330.47 275.52 333.72 277.35 332.66 277.35 329.41 275.51 330.47"/>
      <polygon points="275.51 334.18 275.52 337.43 277.35 336.37 277.35 333.12 275.51 334.18"/>
      <polygon points="275.51 337.91 275.52 341.16 277.35 340.1 277.35 336.85 275.51 337.91"/>
      <polygon class="cls-43" points="273.91 321.01 273.92 325.46 276.43 324.01 276.43 319.56 273.91 321.01"/>
      <polygon class="cls-43" points="295.86 330.43 295.87 333.89 298.38 332.44 298.38 328.97 295.86 330.43"/>
      <polygon class="cls-43" points="248.22 335.06 248.23 339.5 250.74 338.05 250.74 333.6 248.22 335.06"/>
      <polygon class="cls-25" points="262.16 337.39 262.16 339.88 263.57 339.06 263.57 336.58 262.16 337.39"/>
      <path d="M249.21,336.83c-.16-.1-.16-.37,0-.61s.4-.35.55-.26.15.37,0,.61S249.36,336.92,249.21,336.83Z"/>
      <path d="M252.3,344.77c-.16-.1-.16-.37,0-.6s.4-.35.55-.26.15.37,0,.61S252.45,344.87,252.3,344.77Z"/>
      <path d="M252.3,337.28c-.16-.1-.16-.36,0-.6s.4-.35.55-.26.15.37,0,.61S252.45,337.38,252.3,337.28Z"/>
      <line class="cls-6" x1="254.04" y1="331.73" x2="254.04" y2="360.88"/>
      <line class="cls-6" x1="255.67" y1="330.84" x2="255.67" y2="343.12"/>
      <line class="cls-6" x1="257.95" y1="329.74" x2="257.95" y2="337.24"/>
      <line class="cls-6" x1="269.42" y1="323.22" x2="269.42" y2="330.71"/>
      <line class="cls-6" x1="305.88" y1="298.8" x2="305.88" y2="303.46"/>
      <line class="cls-6" x1="258.78" y1="324.27" x2="258.78" y2="328.94"/>
      <line class="cls-6" x1="300.14" y1="313.65" x2="300.14" y2="322.86"/>
      <line class="cls-6" x1="295.86" y1="325.12" x2="295.86" y2="334.06"/>
      <line class="cls-6" x1="303.18" y1="320.97" x2="303.18" y2="341.18"/>
      <polyline class="cls-6" points="294.04 309.93 294.03 317.09 312.5 307.01"/>
      <polyline class="cls-6" points="295.87 326.9 295.86 334.06 312.3 325.09"/>
      <polyline class="cls-6" points="268.38 340.2 268.37 357.39 290.09 345.54"/>
      <polyline class="cls-6" points="263.93 339.31 263.92 356.49 285.65 344.64"/>
      <line class="cls-6" x1="252.57" y1="332.65" x2="252.57" y2="335.56"/>
      <line class="cls-29" x1="157.71" y1="217.21" x2="212.08" y2="247.01"/>
      <line class="cls-30" x1="198.23" y1="254.31" x2="217.4" y2="264.76"/>
      <line class="cls-30" x1="245.02" y1="228.62" x2="264.19" y2="239.06"/>
      <line class="cls-29" x1="216.9" y1="213.55" x2="244.63" y2="228.81"/>
      <path d="M149.91,328a6.42,6.42,0,1,1-6.42-6.42A6.41,6.41,0,0,1,149.91,328Z"/>
      <path d="M347.11,304.91a6.42,6.42,0,1,1-6.42-6.42A6.41,6.41,0,0,1,347.11,304.91Z"/>
      <line class="cls-29" x1="175.7" y1="249.46" x2="194.87" y2="237.63"/>
      <line class="cls-31" x1="213.88" y1="209.65" x2="223.27" y2="204.02"/>
      <line class="cls-31" x1="163.21" y1="220.22" x2="205.88" y2="195.55"/>
      <polyline class="cls-29" points="229.53 220.43 220.62 225.68 229.33 230.53 220.66 235.56 226.57 239.18"/>
      <polyline class="cls-29" points="176.07 227.36 166.44 233.03 175.85 238.27 166.51 244.03 173.79 247.98"/>
      <path class="cls-27" d="M263.27,306.76l-.28.79-.2-.24-.15-3.74.53.65Zm.17,4.09-.45,1.27-.15-3.73.16-.48.33.4Zm1.83-9.07-.44,1.24-1.58,1-.52-.65Zm.35,8.83-2.54,1.63.45-1.26,1.58-1Zm-.11-5-.16.47-.33-.41-.1-2.52.44-1.25Zm.2,4.78-.53-.64-.1-2.53.29-.79.19.26Z"/>
      <path class="cls-27" d="M267.27,310.59l-.21.63-.27-.31-.11-1.93.47-.32Z"/>
      <path class="cls-27" d="M270.58,298.91l-.46,1.22-1.56.9-.49-.66Zm.13,8.72-2.52,1.52.47-1.23,1.56-.94Zm-.49-4.58.25.32-.24.62-1.67,1-.25-.32.24-.62Zm0-.31,0-2.5.46-1.21.06,3.66-.17.45Zm.5,1,.05,3.66-.49-.65,0-2.5.29-.77Z"/>
      <path class="cls-27" d="M272,302.06l0-2.49.5-1.2-.05,3.66-.19.45Zm.46,1-.05,3.64-.47-.65,0-2.49.31-.76Z"/>
      <path class="cls-27" d="M273.49,301.44l.05-3.64.46.66,0,2.48-.31.75Zm2.15-1.14.24.33-.25.6-1.65.92-.23-.34.24-.59Zm0-.31,0-2.46.48-1.18-.05,3.61-.17.45Zm.46,1-.05,3.6-.46-.65,0-2.47.31-.74Z"/>
      <path class="cls-27" d="M277.18,299.15l0-2.45.48-1.17-.05,3.6-.18.44Zm.46,1-.05,3.59-.46-.66,0-2.45.31-.74Z"/>
      <path class="cls-27" d="M278.68,298.56l.05-3.59.45.66,0,2.44-.3.73Zm2.54-5.11-.46,1.16-1.49.82-.45-.67Zm-.11,8.47-2.41,1.37.47-1.17,1.5-.85Zm-.34-4.47.23.33-.24.58-1.6.9-.23-.33.24-.58Zm.47.7,0,3.55-.45-.65,0-2.42.3-.73Z"/>
      <path class="cls-27" d="M282,296.72l.05-3.55.44.65,0,2.42-.3.72Zm2.5-5-.46,1.14-1.47.8-.44-.66Zm-.12,8.38L282,301.41l.46-1.16,1.47-.83Zm-.33-4.42.23.32-.24.58-1.57.88-.22-.33.23-.58Zm0-.3,0-2.4.47-1.15-.05,3.52-.17.43Zm.44,1-.05,3.51-.44-.65,0-2.4.3-.72Z"/>
      <path class="cls-27" d="M285.67,295.9l0,2.39-.46,1.15.05-3.51.17-.44Zm2-6-.44,1.12-1.44.79-.43-.65Zm-.11,8.3-2.32,1.32.46-1.15,1.44-.81Zm-.32-4.38.22.32-.23.57-1.55.86-.21-.32.23-.57Zm0-.3,0-2.38.45-1.13,0,3.49-.17.42Z"/>
      <path class="cls-27" d="M288.42,293.15l.05-3.49.43.65,0,2.37-.28.71Zm.42,1,0,2.36-.45,1.14.05-3.47.17-.44Zm2-5.9-.45,1.11-1.41.78-.42-.65Zm-.12,8.23-2.27,1.29.44-1.13,1.42-.8Zm-.31-4.35.21.32-.22.56-1.52.85-.21-.32.22-.57Zm.44.69,0,3.45-.43-.64,0-2.36.28-.71Z"/>
      <path class="cls-27" d="M291.55,291.41l0-3.45.42.64,0,2.35-.27.7Zm2.36-4.86-.43,1.1-1.39.76-.41-.65Zm-.11,8.15L291.57,296l.43-1.12,1.39-.79Zm-.31-4.31.21.32-.22.56-1.49.83-.21-.32.22-.56Zm.44.69-.05,3.42-.41-.64,0-2.34.27-.7Z"/>
      <path class="cls-3" d="M193.81,178h0a2.34,2.34,0,0,1,1.23,3h0a2.29,2.29,0,0,1-3,1.26h0l-2.42-1.37.05,3.71h0a2,2,0,0,1-2.21,1.85h0a2,2,0,0,1-1.87-2.15h0v-6.56s-.26-4,2.52-2.9Z"/>
      <g>
        <path class="cls-3" d="M208.89,211.37c0,4.6-3.73,6.26-8.33,6.26h0c-4.61,0-8.34-1.66-8.34-6.26V169.56a8.33,8.33,0,0,1,8.34-8.33h0a8.33,8.33,0,0,1,8.33,8.33Z"/>
        <path class="cls-11" d="M207.14,216.05l0-44.11c0-.52,0-1,0-1.56-.16-4.36-2.24-9-6.34-9"/>
        <path class="cls-11" d="M205,217.1V171.15c0-6.29-2-8.19-4-9.78"/>
        <path class="cls-11" d="M194.23,215.91l0-44.11c0-.52,0-1,0-1.57.17-4.35,2.24-9,6.35-9"/>
        <path class="cls-11" d="M196.39,217V171c0-6.3,2-8.19,4-9.78"/>
        <line class="cls-11" x1="200.56" y1="161.23" x2="200.56" y2="217.63"/>
      </g>
      <path class="cls-3" d="M217.74,181.2h0a3,3,0,0,0-2.56-3.26h0a3,3,0,0,0-3.3,2.55h0v3.59l-4.14-2.4h0a2.62,2.62,0,0,0-3.49,1.31h0a2.57,2.57,0,0,0,1.23,3.47h0l7.39,4.17s4.37,2.84,4.87-1Z"/>
      <path d="M208.11,246.88c-.13.37-.71.51-1.29.3s-.94-.68-.81-1.06.71-.5,1.3-.29S208.25,246.51,208.11,246.88Z"/>
      <path d="M230.48,225.14c-.13.37-.71.5-1.29.29s-.94-.68-.81-1.05.71-.51,1.3-.3S230.62,224.76,230.48,225.14Z"/>
      <path class="cls-3" d="M247.81,242.23c-.38,1-2,1.4-3.58.82s-2.6-1.89-2.24-2.92,2-1.39,3.58-.81S248.17,241.2,247.81,242.23Z"/>
      <path d="M251.08,223.06c-.13.37-.71.5-1.29.29s-.94-.68-.81-1,.71-.5,1.29-.29S251.21,222.69,251.08,223.06Z"/>
      <path d="M177.12,230.54c-.13.37-.71.5-1.29.3s-.94-.69-.81-1.06.71-.5,1.3-.29S177.26,230.17,177.12,230.54Z"/>
      <path d="M170.93,220.71c-.13.38-.71.51-1.29.3s-.94-.68-.81-1,.71-.51,1.29-.3S171.07,220.34,170.93,220.71Z"/>
      <polygon class="cls-47" points="221.33 257.32 226.44 254.56 221.18 251.56 216.07 254.33 221.33 257.32"/>
      <polygon class="cls-47" points="232.61 250.84 230.35 245.94 238.72 247.52 232.61 250.84"/>
      <polyline class="cls-48" points="243.49 328.15 243.49 355.84 248.14 358.03"/>
      <line class="cls-6" x1="251.32" y1="299.64" x2="258.78" y2="325"/>
      <line class="cls-6" x1="298.75" y1="274.72" x2="305.88" y2="298.91"/>
      <line class="cls-49" x1="138.28" y1="228.45" x2="191.87" y2="258.05"/>
      <line class="cls-29" x1="144.81" y1="232.36" x2="144.81" y2="241.95"/>
      <line class="cls-29" x1="183.83" y1="253.77" x2="183.83" y2="263.78"/>
      <polyline class="cls-50" points="155.34 297.94 155.34 283.92 164.9 278.63 164.9 260.07 154.73 265.15 154.73 247.45"/>
      <polyline class="cls-50" points="176.96 326.96 176.87 305.28 179.34 303.82 179.34 285.26 176.35 287.17 176.35 259.55"/>
      <polyline class="cls-6" points="274.03 330.18 289.93 321.27 289.92 328.43 312.13 316.27"/>
      <polyline class="cls-6" points="274.03 350.35 289.93 341.44 289.92 348.6 311.64 336.76"/>
      <line class="cls-51" x1="273.9" y1="320.89" x2="273.9" y2="351.63"/>
      <line class="cls-10" x1="197.64" y1="260.94" x2="197.64" y2="303.29"/>
      <g>
        <g>
          <polygon class="cls-25" points="218.82 296.37 187.3 314.02 187.04 306.48 218.82 288.88 218.82 296.37"/>
          <polyline class="cls-25" points="191.33 298.52 191.33 317.71 181.43 313.42"/>
        </g>
        <g>
          <g>
            <polygon class="cls-40" points="220.03 297.08 188.51 314.73 188.26 307.19 220.03 289.59 220.03 297.08"/>
            <polyline class="cls-40" points="192.54 299.23 192.54 318.42 182.65 314.13"/>
          </g>
          <polygon class="cls-25" points="220.03 289.6 192.54 304.87 192.54 303.43 218.78 288.72 220.03 289.6"/>
          <polygon class="cls-25" points="192.54 299.23 182.74 314.15 181.43 313.45 191.26 298.52 192.54 299.23"/>
        </g>
      </g>
      <line class="cls-48" x1="194.87" y1="259.62" x2="194.87" y2="279.83"/>
      <line class="cls-48" x1="236.45" y1="324.15" x2="236.45" y2="334.85"/>
      <path d="M164.54,260.87c-.25-.16-.26-.6,0-1s.65-.58.9-.42.25.6,0,1S164.79,261,164.54,260.87Z"/>
      <path d="M164.54,279.25c-.25-.16-.26-.6,0-1s.65-.57.9-.42.25.6,0,1S164.79,279.41,164.54,279.25Z"/>
      <path d="M178.89,286.17c-.25-.16-.25-.61,0-1s.64-.58.89-.42.26.6,0,1S179.14,286.32,178.89,286.17Z"/>
      <path d="M178.89,304.28c-.25-.16-.25-.61,0-1s.64-.57.89-.42.26.6,0,1S179.14,304.43,178.89,304.28Z"/>
      <g>
        <path d="M135.71,453.37a5.87,5.87,0,1,1,1.72,4.15A5.65,5.65,0,0,1,135.71,453.37Z"/>
        <path d="M159,460.71V446h18.11v14.68Zm1.46-1.47h15.18V447.51H160.46Zm7.59-6.9,3.63-3.63,1,1.05-3.63,3.62,3.62,3.62-1.05,1.05-3.62-3.62L164.42,458l-1-1,3.62-3.62-3.63-3.62,1-1.05Z"/>
        <path d="M191.63,456.35l-3-3,3-3,3,3ZM193,449l3-3,3,3-3,3Zm5.95,8.73-3,3-3-3,3-3Zm1.39-7.34,3,3-3,3-3-3Z"/>
        <path d="M214.88,446H227.6l2,2v12.71H216.83l-2-1.95Zm1,11.75h10.76V447H215.86Z"/>
        <path d="M241.1,453.37l4.16-4.15,4.14,4.15-4.14,4.16Z"/>
        <path d="M261,459.24V447.5H272.7v11.74Z"/>
        <path d="M284.25,460.71V446h18.1v14.68Zm1.46-1.47h15.18V447.51H285.71ZM293.3,449l6.36,6.34-1,1.05-5.32-5.31L288,456.37l-1.05-1.05Z"/>
        <path d="M316.88,456.35l-3-3,3-3,3,3Zm1.38-7.34,3-3,3,3-3,3Zm5.95,8.73-3,3-3-3,3-3Zm1.39-7.34,3,3-3,3-3-3Z"/>
      </g>
      <g>
        <path class="cls-25" d="M64.08,110.71h3.8v1.42H64.14v1.23q0,4.83-5.1,6.9l-1-1.16q4.65-1.55,4.65-5.61v-1.36H58.4l.06,3.29H57L57,112.13H53.36v-1.42H57l-.07-3.42h1.36c.43,0,.45.26.06.65l.07,2.77h4.19v-3.93H64c.43,0,.45.25.07.64Z"/>
        <path class="cls-25" d="M70.53,114.58a22.35,22.35,0,0,0,10.26-8l1.22,1c.35.26.2.46-.45.58a21.8,21.8,0,0,1-3.16,3.3v8.77H76.92v-7.55a28.14,28.14,0,0,1-5.29,3.16Z"/>
        <path class="cls-25" d="M91.63,110.71c.34.22.3.41-.13.58a21.82,21.82,0,0,1-3.74,7.42l-1.49-1A18.15,18.15,0,0,0,90.08,110Zm4.9-1.48a25.56,25.56,0,0,1,4.58,8.58l-1.74.58a23.14,23.14,0,0,0-4.19-8.13Zm3.36-.39-1,.71a14.33,14.33,0,0,0-2-2.19l.9-.71A25.06,25.06,0,0,1,99.89,108.84Zm1.55-1.16-.84.77a23.28,23.28,0,0,0-2.07-2.06l.84-.71A27.29,27.29,0,0,1,101.44,107.68Z"/>
        <path class="cls-25" d="M113.44,109l.39-.13.71,1c.17.3.08.45-.26.45a35.82,35.82,0,0,1-3.55,3.16v6.78h-1.49v-5.75a30.66,30.66,0,0,1-4.77,2.58l-1.1-1.16a23.69,23.69,0,0,0,8.78-5.48l-7.29.32-.2-1.42,4.58-.13v-2.9h1.29c.39.09.46.26.2.52v2.32Zm-1.36,5.23,1-1.23a20.91,20.91,0,0,1,4.07,2.77L116,117A25,25,0,0,0,112.08,114.2Z"/>
        <path class="cls-25" d="M126.54,112.84h-6.46v-1.42h13.23v1.42H128v.84a8.69,8.69,0,0,1-2.9,6.71l-1.29-1a6.93,6.93,0,0,0,2.71-5.74Zm-4.13-3.94v-1.42H131v1.42Z"/>
        <path class="cls-25" d="M144.28,120.58H143v-6a27.74,27.74,0,0,1-4.26,2.52l-.9-1.1q6.12-3,8.39-6.51l1.09.83c.26.22.18.37-.25.46a22,22,0,0,1-2.78,2.77Z"/>
        <path class="cls-25" d="M154.67,111.68,156,111a13.78,13.78,0,0,1,1.61,3l-1.29.71A17.6,17.6,0,0,0,154.67,111.68Zm8.07,5.81a13.25,13.25,0,0,1-4.91,3l-.84-1.22a11.55,11.55,0,0,0,4.65-2.65c1.2-1.2,1.89-3.25,2.06-6.13l1.36.45c.39.13.39.31,0,.52C164.76,114.22,164,116.24,162.74,117.49ZM158,110.84l1.22-.64a12.07,12.07,0,0,1,1.68,2.9l-1.36.64A19.56,19.56,0,0,0,158,110.84Z"/>
        <path class="cls-25" d="M172.93,120.52l-1.16-1.23a11.73,11.73,0,0,0,7.61-8.9h-5.16a17.89,17.89,0,0,1-3.1,3.93l-1.29-.83a13.78,13.78,0,0,0,4.33-7.1l1.48.51c.26.13.22.26-.13.39a9.28,9.28,0,0,1-.71,1.68h4.65l.58-.32,1.16,1.16c.3.3.24.51-.19.64A13,13,0,0,1,172.93,120.52Z"/>
      </g>
      <line class="cls-52" x1="189.03" y1="114.2" x2="411.3" y2="114.2"/>
      <line class="cls-6" x1="137.86" y1="252.72" x2="141.8" y2="254.7"/>
      <line class="cls-6" x1="146.64" y1="292.27" x2="150.58" y2="294.25"/>
      <line class="cls-6" x1="168.02" y1="262.03" x2="171.97" y2="264.01"/>
      <line class="cls-6" x1="168.02" y1="320.21" x2="171.97" y2="322.19"/>
      <path d="M262.63,338.7c-.17-.1-.17-.4,0-.67s.44-.39.61-.28.17.41,0,.67S262.8,338.81,262.63,338.7Z"/>
      <line class="cls-48" x1="272.18" y1="355.31" x2="272.18" y2="360.46"/>
      <line class="cls-48" x1="260.29" y1="344.4" x2="260.29" y2="357.88"/>
      <line class="cls-48" x1="304.89" y1="311.33" x2="304.89" y2="316.98"/>
      <line class="cls-48" x1="308.68" y1="309.07" x2="308.68" y2="312.71"/>
      <polygon class="cls-25" points="278.25 346.97 274.85 349 274.79 351.28 278.21 349.28 278.25 346.97"/>
      <path class="cls-25" d="M274.69,343c.16.1.17.38,0,.63s-.39.37-.55.27-.17-.37,0-.62S274.53,342.86,274.69,343Z"/>
      <polyline points="289 343.79 273.94 352 273.94 342.47 289.17 333.34"/>
      <polygon class="cls-25" points="282.95 344.18 279.55 346.08 279.48 348.36 282.91 346.49 282.95 344.18"/>
      <polygon class="cls-25" points="287.35 337.64 274.44 345.17 274.37 347.45 287.31 339.95 287.35 337.64"/>
      <path class="cls-25" d="M288.42,335.12c.16.09.17.37,0,.62s-.39.37-.55.27-.17-.37,0-.62S288.26,335,288.42,335.12Z"/>
      <polygon points="289.2 326.61 289.22 328.35 280.53 333.19 280.61 331.43 289.2 326.61"/>
      <polygon points="289.2 329.7 289.22 331.45 280.53 336.29 280.61 334.52 289.2 329.7"/>
      <path class="cls-25" d="M275,343.13c.16.09.17.37,0,.62s-.39.37-.55.27-.17-.37,0-.62S274.82,343,275,343.13Z"/>
      <path class="cls-25" d="M280.46,340c.16.09.17.37,0,.61s-.39.38-.55.28-.17-.37,0-.62S280.3,339.88,280.46,340Z"/>
      <line class="cls-53" x1="274.51" y1="343.72" x2="280.19" y2="340.42"/>
      <path class="cls-25" d="M282.55,334.06c.16.09.17.37,0,.62s-.39.37-.55.28-.17-.37,0-.63S282.39,334,282.55,334.06Z"/>
      <path class="cls-25" d="M288,330.91c.16.09.17.37,0,.62s-.4.37-.55.27-.17-.37,0-.61S287.87,330.81,288,330.91Z"/>
      <line class="cls-53" x1="282.08" y1="334.65" x2="287.76" y2="331.36"/>
      <path class="cls-25" d="M282.46,331c.15.09.16.37,0,.62s-.4.37-.56.28-.17-.37,0-.62S282.3,330.88,282.46,331Z"/>
      <path class="cls-25" d="M287.94,327.82c.15.09.16.37,0,.62s-.4.37-.56.28-.17-.37,0-.62S287.78,327.73,287.94,327.82Z"/>
      <line class="cls-53" x1="281.99" y1="331.57" x2="287.67" y2="328.27"/>
      <path d="M277.33,344.27c.16.1.16.37,0,.62s-.4.38-.56.28-.17-.37,0-.62S277.17,344.18,277.33,344.27Z"/>
      <path d="M285.46,339.75a.47.47,0,0,1,0,.62c-.15.25-.4.38-.56.28s-.17-.37,0-.62S285.3,339.66,285.46,339.75Z"/>
      <path d="M280.89,337.05c.15.09.17.37,0,.61s-.4.38-.56.28-.16-.37,0-.62S280.73,337,280.89,337.05Z"/>
      <path d="M289.13,332.55c.15.09.16.37,0,.61s-.39.38-.55.28-.17-.37,0-.62S289,332.45,289.13,332.55Z"/>
      <path d="M286.1,343.59c.16.09.17.37,0,.62s-.4.37-.56.28-.17-.38,0-.62S286,343.49,286.1,343.59Z"/>
      <path d="M281.52,345.82a.47.47,0,0,1,0,.62c-.15.25-.4.37-.56.28s-.17-.37,0-.62S281.36,345.73,281.52,345.82Z"/>
      <polygon class="cls-25" points="287.57 341.63 284.17 343.53 284.1 345.81 287.53 343.94 287.57 341.63"/>
      <path d="M286.14,343.27c.16.09.17.37,0,.62s-.39.37-.55.28-.17-.37,0-.62S286,343.18,286.14,343.27Z"/>
      <polygon class="cls-25" points="278.29 346.62 274.89 348.52 274.82 350.8 278.25 348.93 278.29 346.62"/>
      <path d="M276.86,348.26c.16.1.17.37,0,.62s-.39.37-.55.28-.17-.37,0-.62S276.7,348.17,276.86,348.26Z"/>
    </g>
  </g>
</svg>
