<svg id="Capa_1" data-name="Capa 1" xmlns="http://www.w3.org/2000/svg" xmlns:xlink="http://www.w3.org/1999/xlink" width="153.34mm" height="177.53mm" viewBox="0 0 434.65 503.24">
  <defs>
    <style>
      .cls-1 {
        fill: #f6f3ab;
      }

      .cls-2, .cls-5 {
        fill: #009fae;
      }

      .cls-3 {
        fill: none;
      }

      .cls-10, .cls-11, .cls-12, .cls-13, .cls-14, .cls-15, .cls-16, .cls-17, .cls-18, .cls-19, .cls-20, .cls-21, .cls-22, .cls-23, .cls-24, .cls-25, .cls-26, .cls-3, .cls-5, .cls-7, .cls-8, .cls-9 {
        stroke: #f6f3ab;
        stroke-miterlimit: 10;
      }

      .cls-4 {
        fill: #81a7d7;
      }

      .cls-5 {
        stroke-width: 5px;
      }

      .cls-6 {
        fill: url(#linear-gradient);
      }

      .cls-7 {
        fill: url(#linear-gradient-2);
      }

      .cls-8 {
        fill: url(#linear-gradient-3);
      }

      .cls-9 {
        fill: url(#linear-gradient-4);
      }

      .cls-10 {
        fill: url(#linear-gradient-5);
      }

      .cls-11 {
        fill: url(#linear-gradient-6);
      }

      .cls-12 {
        fill: url(#linear-gradient-7);
      }

      .cls-13 {
        fill: url(#linear-gradient-8);
      }

      .cls-14 {
        fill: url(#linear-gradient-9);
      }

      .cls-15 {
        fill: url(#linear-gradient-10);
      }

      .cls-16 {
        fill: url(#linear-gradient-11);
      }

      .cls-17 {
        fill: url(#linear-gradient-12);
      }

      .cls-18 {
        fill: url(#linear-gradient-13);
      }

      .cls-19 {
        fill: url(#linear-gradient-14);
      }

      .cls-20 {
        fill: url(#linear-gradient-15);
      }

      .cls-21 {
        fill: url(#linear-gradient-16);
      }

      .cls-22 {
        fill: url(#linear-gradient-17);
      }

      .cls-23 {
        fill: url(#linear-gradient-18);
      }

      .cls-24 {
        fill: url(#linear-gradient-19);
      }

      .cls-25 {
        fill: url(#linear-gradient-20);
      }

      .cls-26 {
        fill: url(#linear-gradient-21);
      }

      .cls-27 {
        fill: url(#linear-gradient-22);
      }

      .cls-28 {
        fill: url(#linear-gradient-23);
      }

      .cls-29 {
        fill: url(#linear-gradient-24);
      }
    </style>
    <linearGradient id="linear-gradient" x1="-2050.19" y1="-14.86" x2="-2038.12" y2="-14.86" gradientTransform="translate(246.69 -1692.79) rotate(-90)" gradientUnits="userSpaceOnUse">
      <stop offset="0.01" stop-color="#a2a21c"/>
      <stop offset="0.05" stop-color="#aba91f"/>
      <stop offset="0.21" stop-color="#c9c32b"/>
      <stop offset="0.35" stop-color="#dbd332"/>
      <stop offset="0.45" stop-color="#e2d935"/>
      <stop offset="0.46" stop-color="#e3da39"/>
      <stop offset="0.57" stop-color="#e8e260"/>
      <stop offset="0.68" stop-color="#ece87e"/>
      <stop offset="0.78" stop-color="#f0ec94"/>
      <stop offset="0.88" stop-color="#f1efa1"/>
      <stop offset="0.97" stop-color="#f2f0a5"/>
    </linearGradient>
    <linearGradient id="linear-gradient-2" x1="-2178.2" y1="495.49" x2="-2131.16" y2="495.49" gradientTransform="translate(-295.24 -1901.53) rotate(-90)" gradientUnits="userSpaceOnUse">
      <stop offset="0.11" stop-color="#326298"/>
      <stop offset="0.22" stop-color="#428aa8"/>
      <stop offset="0.32" stop-color="#4da9b4"/>
      <stop offset="0.4" stop-color="#54bbbb"/>
      <stop offset="0.46" stop-color="#57c2be"/>
      <stop offset="0.47" stop-color="#5ac3be"/>
      <stop offset="0.57" stop-color="#81cebf"/>
      <stop offset="0.68" stop-color="#9fd7c0"/>
      <stop offset="0.78" stop-color="#b5dec1"/>
      <stop offset="0.88" stop-color="#c2e2c1"/>
      <stop offset="0.97" stop-color="#c6e3c1"/>
    </linearGradient>
    <linearGradient id="linear-gradient-3" x1="1381.64" y1="-468.05" x2="1429.28" y2="-468.05" gradientTransform="translate(-267.74 -1152.36) rotate(90)" xlink:href="#linear-gradient-2"/>
    <linearGradient id="linear-gradient-4" x1="-2314.63" y1="523.89" x2="-2219.44" y2="523.89" xlink:href="#linear-gradient-2"/>
    <linearGradient id="linear-gradient-5" x1="1470.11" y1="-496.39" x2="1565.71" y2="-496.39" gradientTransform="translate(-267.74 -1152.36) rotate(90)" xlink:href="#linear-gradient-2"/>
    <linearGradient id="linear-gradient-6" x1="-2246.2" y1="518.19" x2="-2151.44" y2="518.19" xlink:href="#linear-gradient-2"/>
    <linearGradient id="linear-gradient-7" x1="1402.12" y1="-490.7" x2="1497.28" y2="-490.7" gradientTransform="translate(-267.74 -1152.36) rotate(90)" xlink:href="#linear-gradient-2"/>
    <linearGradient id="linear-gradient-8" x1="-2251.71" y1="519.87" x2="-2216.49" y2="519.87" xlink:href="#linear-gradient-2"/>
    <linearGradient id="linear-gradient-9" x1="1467.07" y1="-492.45" x2="1502.79" y2="-492.45" gradientTransform="translate(-267.74 -1152.36) rotate(90)" xlink:href="#linear-gradient-2"/>
    <linearGradient id="linear-gradient-10" x1="-2183.59" y1="514.19" x2="-2148.46" y2="514.19" xlink:href="#linear-gradient-2"/>
    <linearGradient id="linear-gradient-11" x1="1399.04" y1="-486.78" x2="1434.68" y2="-486.78" gradientTransform="translate(-267.74 -1152.36) rotate(90)" xlink:href="#linear-gradient-2"/>
    <linearGradient id="linear-gradient-12" x1="-2173.19" y1="518.43" x2="-2073.49" y2="518.43" xlink:href="#linear-gradient-2"/>
    <linearGradient id="linear-gradient-13" x1="-2173.26" y1="518.43" x2="-2073.34" y2="518.43" xlink:href="#linear-gradient-2"/>
    <linearGradient id="linear-gradient-14" x1="-2032.25" y1="498.59" x2="-1992.18" y2="498.59" xlink:href="#linear-gradient-2"/>
    <linearGradient id="linear-gradient-15" x1="1242.98" y1="-471.19" x2="1283.33" y2="-471.19" gradientTransform="translate(-267.74 -1152.36) rotate(90)" xlink:href="#linear-gradient-2"/>
    <linearGradient id="linear-gradient-16" x1="-2100.27" y1="518.19" x2="-2005.5" y2="518.19" xlink:href="#linear-gradient-2"/>
    <linearGradient id="linear-gradient-17" x1="1256.18" y1="-490.7" x2="1351.34" y2="-490.7" gradientTransform="translate(-267.74 -1152.36) rotate(90)" xlink:href="#linear-gradient-2"/>
    <linearGradient id="linear-gradient-18" x1="-2105.76" y1="519.87" x2="-2070.55" y2="519.87" xlink:href="#linear-gradient-2"/>
    <linearGradient id="linear-gradient-19" x1="1321.13" y1="-492.45" x2="1356.85" y2="-492.45" gradientTransform="translate(-267.74 -1152.36) rotate(90)" xlink:href="#linear-gradient-2"/>
    <linearGradient id="linear-gradient-20" x1="-2037.66" y1="514.19" x2="-2002.52" y2="514.19" xlink:href="#linear-gradient-2"/>
    <linearGradient id="linear-gradient-21" x1="1253.11" y1="-486.77" x2="1288.74" y2="-486.77" gradientTransform="translate(-267.74 -1152.36) rotate(90)" xlink:href="#linear-gradient-2"/>
    <linearGradient id="linear-gradient-22" x1="214.64" y1="134.22" x2="224.66" y2="134.22" gradientTransform="matrix(1, 0, 0, 1, 0, 0)" xlink:href="#linear-gradient"/>
    <linearGradient id="linear-gradient-23" x1="214.64" y1="211.12" x2="224.66" y2="211.12" gradientTransform="matrix(1, 0, 0, 1, 0, 0)" xlink:href="#linear-gradient"/>
    <linearGradient id="linear-gradient-24" x1="214.64" y1="287.96" x2="224.66" y2="287.96" gradientTransform="matrix(1, 0, 0, 1, 0, 0)" xlink:href="#linear-gradient"/>
  </defs>
  <polyline class="cls-1" points="434.65 503.24 0 503.24 0 0 434.65 0"/>
  <rect class="cls-2" x="9.23" y="7.75" width="416.19" height="487.74"/>
  <g>
    <g>
      <line class="cls-3" x1="347.8" y1="90.51" x2="425.42" y2="7.75"/>
      <line class="cls-3" x1="86.05" y1="414.54" x2="9.23" y2="496.65"/>
      <line class="cls-3" x1="348.57" y1="413.99" x2="425.42" y2="496.65"/>
      <line class="cls-3" x1="213.46" y1="88.7" x2="213.46" y2="7.36"/>
    </g>
    <g>
      <line class="cls-3" x1="86.85" y1="90.51" x2="9.23" y2="7.75"/>
      <rect class="cls-3" x="51.44" y="53.75" width="333.79" height="401.14"/>
      <line class="cls-3" x1="86.05" y1="143.61" x2="9.23" y2="80.74"/>
      <line class="cls-3" x1="87.24" y1="247.04" x2="9.23" y2="247.04"/>
      <line class="cls-3" x1="86.05" y1="194.23" x2="9.23" y2="167.87"/>
      <line class="cls-3" x1="86.05" y1="349.47" x2="9.23" y2="409.5"/>
      <line class="cls-3" x1="86.05" y1="299.56" x2="9.23" y2="325.92"/>
      <line class="cls-3" x1="347.42" y1="143.61" x2="424.23" y2="80.74"/>
      <line class="cls-3" x1="346.22" y1="247.04" x2="424.23" y2="247.04"/>
      <line class="cls-3" x1="347.42" y1="194.23" x2="424.23" y2="167.87"/>
      <line class="cls-3" x1="347.42" y1="349.47" x2="424.23" y2="409.5"/>
      <line class="cls-3" x1="347.42" y1="299.56" x2="424.23" y2="325.92"/>
      <line class="cls-3" x1="218.46" y1="417.22" x2="218.46" y2="495.23"/>
      <line class="cls-3" x1="154.12" y1="414.54" x2="116.3" y2="495.23"/>
      <line class="cls-3" x1="280.97" y1="414.54" x2="315.62" y2="495.23"/>
      <line class="cls-3" x1="277.8" y1="88.06" x2="315.62" y2="7.36"/>
      <line class="cls-3" x1="150.95" y1="88.06" x2="116.3" y2="7.36"/>
    </g>
  </g>
  <rect class="cls-4" x="87.19" y="89.8" width="262.53" height="324.74"/>
  <rect class="cls-5" x="87.42" y="90.24" width="261.27" height="322.48"/>
  <g>
    <g>
      <rect class="cls-3" x="297.23" y="90.19" width="52.49" height="53.45"/>
      <rect class="cls-3" x="244.73" y="90.19" width="52.5" height="53.45"/>
      <rect class="cls-3" x="192.23" y="90.19" width="52.5" height="53.44"/>
      <rect class="cls-3" x="139.74" y="90.19" width="52.49" height="53.44"/>
      <rect class="cls-3" x="87.24" y="90.19" width="52.5" height="53.44"/>
    </g>
    <g>
      <rect class="cls-3" x="297.23" y="143.63" width="52.49" height="53.44"/>
      <rect class="cls-3" x="244.73" y="143.63" width="52.5" height="53.44"/>
      <rect class="cls-3" x="192.23" y="143.63" width="52.5" height="53.44"/>
      <rect class="cls-3" x="139.74" y="143.63" width="52.49" height="53.44"/>
      <rect class="cls-3" x="87.24" y="143.63" width="52.5" height="53.44"/>
    </g>
    <g>
      <rect class="cls-3" x="297.23" y="197.07" width="52.49" height="53.45"/>
      <rect class="cls-3" x="244.73" y="197.07" width="52.5" height="53.45"/>
      <rect class="cls-3" x="192.23" y="197.07" width="52.5" height="53.44"/>
      <rect class="cls-3" x="139.74" y="197.07" width="52.49" height="53.44"/>
      <rect class="cls-3" x="87.24" y="197.07" width="52.5" height="53.44"/>
    </g>
    <g>
      <rect class="cls-3" x="297.23" y="250.52" width="52.49" height="53.44"/>
      <rect class="cls-3" x="244.73" y="250.52" width="52.5" height="53.44"/>
      <rect class="cls-3" x="192.23" y="250.52" width="52.5" height="53.45"/>
      <rect class="cls-3" x="139.74" y="250.52" width="52.49" height="53.45"/>
      <rect class="cls-3" x="87.24" y="250.52" width="52.5" height="53.45"/>
    </g>
    <g>
      <rect class="cls-3" x="297.23" y="303.97" width="52.49" height="53.44"/>
      <rect class="cls-3" x="244.73" y="303.97" width="52.5" height="53.44"/>
      <rect class="cls-3" x="192.21" y="303.96" width="52.5" height="53.6"/>
      <rect class="cls-3" x="139.74" y="303.96" width="52.49" height="53.44"/>
      <rect class="cls-3" x="87.24" y="303.96" width="52.5" height="53.44"/>
    </g>
    <g>
      <rect class="cls-3" x="297.23" y="357.41" width="52.49" height="53.44"/>
      <rect class="cls-3" x="244.73" y="357.41" width="52.5" height="53.44"/>
      <rect class="cls-3" x="192.21" y="357.41" width="52.5" height="53.6"/>
      <rect class="cls-3" x="139.74" y="357.41" width="52.49" height="53.44"/>
      <rect class="cls-3" x="87.24" y="357.41" width="52.5" height="53.44"/>
    </g>
  </g>
  <path class="cls-6" d="M236.62,351.37c0,3.34-2.14,6-4.79,6s-4.79-2.7-4.79-6,2.14-6,4.79-6S236.62,348,236.62,351.37Z"/>
  <g>
    <g>
      <path class="cls-7" d="M212.27,229.63s-11.9,10.58-15.54,13.5A109.34,109.34,0,0,0,184,255.9c-7,8.81-2.46,15.76-2.46,15.76a15.45,15.45,0,0,0,13.82,4.86,6,6,0,0,1-2.41-2.77c-1.72-3.34,1.59-7.55,1.59-7.55,3.12-4.6,13.41-13.37,13.41-13.37l12.36-10.72Z"/>
      <path class="cls-8" d="M212.3,229.28l8.36,12.89L208.13,253c-.11.1-10.31,8.81-13.39,13.32,0,0-3.19,4.14-1.57,7.26a6.19,6.19,0,0,0,2.31,2.68l.8.37-.86.11a20,20,0,0,1-2.3.15,15.46,15.46,0,0,1-11.69-5.1c-.07-.09-4.55-7.23,2.45-16.08a106.36,106.36,0,0,1,12.74-12.82c3.58-2.89,15.39-13.38,15.51-13.49Zm7.75,12.79L212.22,230c-1.48,1.31-12,10.64-15.36,13.35a105.75,105.75,0,0,0-12.66,12.74c-6.75,8.53-2.62,15.15-2.44,15.42a15.07,15.07,0,0,0,11.36,4.92c.52,0,1.06,0,1.59-.07a7.64,7.64,0,0,1-1.9-2.48c-1.79-3.44,1.46-7.67,1.6-7.85,3.1-4.54,13-13,13.46-13.39Z"/>
    </g>
    <g>
      <g>
        <path class="cls-9" d="M204.5,409.8c-1.72-3.32,1.59-7.56,1.59-7.56,3.12-4.58,13.42-13.35,13.42-13.35l12.36-10.71c5.81-4.94,18-15.7,18-15.7a46.86,46.86,0,0,0,14-20.08C268.6,330,261,317.91,261,317.91c4.41,9.65-1.69,15.95-4.16,18.71-3.88,4.36-14.21,12.73-14.21,12.73l-20.28,17.58s-10.45,9.34-14.08,12.25A103.62,103.62,0,0,0,195.56,392c-6.58,8.49-2.31,16-2.31,16s4.35,7.68,13.57,4.19C206.82,412.19,205.63,412,204.5,409.8Z"/>
        <path class="cls-10" d="M261.17,317.75c.06.13,7.62,12.36,2.89,24.76A47.56,47.56,0,0,1,250,362.68c-.12.11-12.22,10.82-18,15.7L219.64,389.1c-.09.09-10.31,8.78-13.38,13.3,0,.05-3.19,4.15-1.58,7.27,1,2,2.17,2.26,2.18,2.26l.86.18-.83.32a13.24,13.24,0,0,1-4.69.92,11.1,11.1,0,0,1-9.13-5.22c0-.07-4.29-7.81,2.32-16.33A103.65,103.65,0,0,1,208.13,379c3.58-2.9,14-12.15,14.08-12.24l20.27-17.59c.11-.08,10.36-8.4,14.19-12.7l.27-.3c2.59-2.91,8-9,3.86-18.14Zm-55,94.41a5.56,5.56,0,0,1-1.85-2.23c-1.78-3.44,1.48-7.67,1.62-7.85,3.1-4.55,13-13,13.45-13.39L231.74,378c5.75-4.88,17.85-15.6,18-15.69a47.21,47.21,0,0,0,13.95-20c3.26-8.53.57-17-1.33-21.31,1.9,7.7-2.72,12.86-5.08,15.51l-.26.28c-3.85,4.32-14.13,12.66-14.25,12.75l-20.26,17.59c-.11.08-10.5,9.35-14.09,12.25a101.77,101.77,0,0,0-12.66,12.75c-6.41,8.24-2.33,15.65-2.29,15.73a10.67,10.67,0,0,0,8.77,5A12.37,12.37,0,0,0,206.16,412.16Z"/>
      </g>
      <g>
        <path class="cls-11" d="M198.81,341.81c-1.73-3.32,1.58-7.56,1.58-7.56,3.14-4.58,13.43-13.34,13.43-13.34l12.36-10.72c5.81-4.93,17.95-15.7,17.95-15.7a46.75,46.75,0,0,0,14-20.08c4.73-12.4-2.87-24.5-2.87-24.5,4.41,9.66-1.7,16-4.16,18.73-3.89,4.35-14.22,12.73-14.22,12.73l-20.27,17.57s-10.45,9.34-14.08,12.26A103.62,103.62,0,0,0,189.86,324c-6.58,8.49-2.3,16-2.3,16s3.85,6.13,13.5,4.33C201.06,344.34,199.93,344,198.81,341.81Z"/>
        <path class="cls-12" d="M255.46,249.76c.08.12,7.63,12.36,2.91,24.75a47.53,47.53,0,0,1-14.11,20.19c-.11.1-12.21,10.82-17.95,15.69L214,321.1c-.11.09-10.31,8.8-13.38,13.32,0,0-3.2,4.14-1.58,7.27,1.06,2,2.11,2.41,2.11,2.41l1,.31-1,.18a19.25,19.25,0,0,1-3.46.33c-7.18,0-10.14-4.57-10.26-4.75s-4.29-7.83,2.32-16.36A102.89,102.89,0,0,1,202.43,311c3.59-2.88,14-12.15,14.08-12.24l20.29-17.59c.1-.08,10.35-8.4,14.18-12.7l.26-.29c2.61-2.92,8-9,3.86-18.14Zm-55.09,94.45a6.7,6.7,0,0,1-1.76-2.27c-1.77-3.44,1.48-7.69,1.62-7.86,3.11-4.54,13-13,13.45-13.37L226.05,310c5.74-4.87,17.84-15.58,18-15.68a46.94,46.94,0,0,0,13.95-20c3.25-8.55.58-17-1.34-21.33,1.92,7.71-2.72,12.88-5.08,15.51l-.26.3c-3.85,4.33-14.13,12.66-14.23,12.74l-20.28,17.59c-.1.09-10.49,9.35-14.08,12.26A101.74,101.74,0,0,0,190,324.15c-6.39,8.22-2.33,15.65-2.29,15.72s3,4.54,9.91,4.54A18.49,18.49,0,0,0,200.37,344.21Z"/>
      </g>
      <g>
        <path class="cls-13" d="M260.66,318s-5.18-8-17.5,1.91c0,0-31,23.75-42.29,24.72,0,0-8.86,1.82-13.41-4.18,6.53,11.43,16.7,9.63,16.7,9.63,11.58-1.76,42.3-24.72,42.3-24.72,12.33-9.9,15.34-4.41,15.34-4.41A7.71,7.71,0,0,0,260.66,318Z"/>
        <path class="cls-14" d="M254.28,314.71h0a7.84,7.84,0,0,1,6.55,3.15,8,8,0,0,1,1.19,3.06l.11,1.11-.52-.94s-.8-1.41-3.23-1.41c-2,0-5.74,1-11.8,5.88-.31.24-30.9,23-42.39,24.77a11.34,11.34,0,0,1-1.61.1c-2.92,0-10.23-1-15.3-9.83l.35-.3c2.72,3.58,7,4.34,10.16,4.34a15.72,15.72,0,0,0,3-.26c11.17-.95,41.91-24.44,42.21-24.68C247.17,316.38,251,314.71,254.28,314.71Zm7.11,5.44a7.18,7.18,0,0,0-.91-2,7.59,7.59,0,0,0-6.2-2.94h0c-3.24,0-6.93,1.64-11,4.9-1.28,1-31.13,23.81-42.41,24.78a17.56,17.56,0,0,1-3.09.26,13.83,13.83,0,0,1-8.88-2.83c4.84,6.82,11.06,7.62,13.67,7.62a9.48,9.48,0,0,0,1.55-.11c11.4-1.72,41.91-24.45,42.21-24.69,4.93-4,9-6,12-6A4.49,4.49,0,0,1,261.39,320.15Z"/>
      </g>
      <g>
        <path class="cls-15" d="M255.26,250s-5.16-8-17.49,1.91c0,0-31,23.76-42.29,24.73,0,0-9.44.9-14-5.1C188,283,198.77,282,198.77,282c11.29-1.1,42.29-24.71,42.29-24.71,12.34-9.9,15.35-4.41,15.35-4.41A7.64,7.64,0,0,0,255.26,250Z"/>
        <path class="cls-16" d="M248.89,246.68h0a7.81,7.81,0,0,1,6.54,3.15,7.5,7.5,0,0,1,1.19,3.06l.13,1.11-.52-.94a3.61,3.61,0,0,0-3.24-1.4c-2,0-5.75,1-11.8,5.87-1.28,1-31.18,23.67-42.39,24.77,0,0-.22,0-.58,0-2.54,0-11.26-.77-16.9-10.67l.34-.3c3.47,4.56,9.89,5.06,12.5,5.06.79,0,1.29-.05,1.29-.05,11.17-1,41.89-24.44,42.21-24.69C241.78,248.37,245.57,246.68,248.89,246.68Zm7.11,5.44a7.14,7.14,0,0,0-.91-2,7.56,7.56,0,0,0-6.2-2.94h0c-3.24,0-6.94,1.64-11,4.9-1.27,1-31.14,23.81-42.4,24.77,0,0-.53,0-1.34,0-2.31,0-7.52-.38-11.21-3.52a18.83,18.83,0,0,0,15.27,8.43h.54c11.1-1.09,41.87-24.45,42.19-24.68,4.93-4,9-6,12-6A4.52,4.52,0,0,1,256,252.12Z"/>
      </g>
      <g>
        <path class="cls-17" d="M181.58,271.66s-1.85-7.24.9-13.5c2.28-5.18,8.19-9.47,11.85-13,3.25-3.1,10.41-9.13,13.92-12S222.34,221,222.34,221l20.27-17.58s10.33-8.37,14.21-12.73c2.47-2.77,8.57-9.06,4.16-18.72,0,0,7.61,12.1,2.88,24.5a46.86,46.86,0,0,1-14,20.08s-12.15,10.77-18,15.69L219.51,243a171.31,171.31,0,0,0-13.82,12.29l-11.11,11"/>
        <path class="cls-18" d="M261.17,171.81c.06.13,7.62,12.36,2.89,24.75A47.51,47.51,0,0,1,250,216.75c-.12.1-12.22,10.81-18,15.69l-12.36,10.71a175.38,175.38,0,0,0-13.8,12.27l-11.13,11-.28-.38,11.12-11a176.26,176.26,0,0,1,13.84-12.29L231.74,232c5.75-4.87,17.85-15.57,18-15.68a47.34,47.34,0,0,0,14-20c3.25-8.53.56-17-1.35-21.31,1.91,7.7-2.71,12.87-5.07,15.51l-.26.29c-3.85,4.33-14.13,12.67-14.24,12.76L222.47,221.2c-.11.09-10.5,9.36-14.09,12.26s-10.78,9-13.91,11.94c-.83.8-1.77,1.62-2.75,2.49-3.43,3-7.31,6.42-9.05,10.38-2.69,6.11-.9,13.24-.88,13.31l-.41.15c0-.07-1.86-7.4.91-13.68,1.78-4.07,5.7-7.52,9.16-10.56,1-.87,1.92-1.69,2.75-2.48,3.13-3,10.23-9,13.93-12s14-12.15,14.07-12.25l20.28-17.58c.11-.09,10.37-8.41,14.19-12.7l.27-.3c2.59-2.91,8-9,3.86-18.13Z"/>
      </g>
      <g>
        <path class="cls-19" d="M203.5,91.37s-3.13,2.89-6.77,5.83A108.66,108.66,0,0,0,184,110c-6.95,8.8-2.45,15.75-2.45,15.75a15.4,15.4,0,0,0,13.82,4.85A6,6,0,0,1,193,127.8c-1.72-3.33,1.59-7.55,1.59-7.55,3.12-4.59,13.41-13.36,13.41-13.36l18.56-16.24Z"/>
        <path class="cls-20" d="M203.49,91.07l23.44-.45-18.8,16.48c-.1.08-10.31,8.8-13.4,13.31,0,0-3.18,4.14-1.57,7.26a6.08,6.08,0,0,0,2.32,2.67l.8.38-.86.11a20,20,0,0,1-2.3.14,15.55,15.55,0,0,1-11.69-5.08c-.07-.1-4.55-7.24,2.45-16.09A104.13,104.13,0,0,1,196.62,97c3.58-2.89,6.61-5.7,6.75-5.82Zm22.67-.39-22.63,1c-1.34,1.18-3.26,3-6.67,5.73a105.83,105.83,0,0,0-12.66,12.75c-6.76,8.55-2.48,15.36-2.44,15.42a15.12,15.12,0,0,0,11.36,4.91c.52,0,1.06,0,1.59-.07a7.48,7.48,0,0,1-1.91-2.47c-1.78-3.44,1.47-7.67,1.61-7.84,3.1-4.56,13-13,13.46-13.39Z"/>
      </g>
      <g>
        <path class="cls-21" d="M198.81,195.87c-1.73-3.33,1.58-7.55,1.58-7.55,3.14-4.59,13.43-13.36,13.43-13.36l12.36-10.72c5.8-4.93,17.95-15.68,17.95-15.68a46.81,46.81,0,0,0,14-20.1c4.73-12.4-2.87-24.49-2.87-24.49,4.41,9.66-1.7,16-4.16,18.72-3.89,4.36-14.22,12.73-14.22,12.73L216.64,153s-10.45,9.33-14.08,12.25A103.62,103.62,0,0,0,189.86,178c-6.58,8.48-2.31,16-2.31,16s3.86,6.13,13.51,4.34C201.06,198.41,199.93,198,198.81,195.87Z"/>
        <path class="cls-22" d="M255.46,103.82c.08.13,7.63,12.36,2.91,24.75a47.53,47.53,0,0,1-14.11,20.19c-.11.1-12.21,10.81-17.95,15.68l-12.37,10.73c-.1.08-10.3,8.8-13.37,13.31,0,0-3.2,4.14-1.58,7.27a4.85,4.85,0,0,0,2.12,2.42l.94.29-1,.2a20.11,20.11,0,0,1-3.46.31c-7.18,0-10.14-4.57-10.26-4.75s-4.29-7.83,2.31-16.35a101.51,101.51,0,0,1,12.74-12.81c3.59-2.9,14-12.17,14.08-12.25l20.29-17.6c.1-.08,10.35-8.4,14.18-12.69l.26-.3c2.6-2.9,8-9,3.86-18.13Zm-55.09,94.45a6.7,6.7,0,0,1-1.76-2.27c-1.77-3.44,1.48-7.68,1.62-7.85,3.11-4.56,13-13,13.45-13.38l12.37-10.72c5.74-4.88,17.84-15.6,18-15.69a47,47,0,0,0,13.95-20c3.25-8.53.58-17-1.34-21.32,1.92,7.71-2.72,12.87-5.08,15.51l-.26.29c-3.85,4.32-14.13,12.66-14.23,12.75L216.77,153.2c-.1.1-10.49,9.36-14.08,12.26A102.52,102.52,0,0,0,190,178.21c-6.39,8.23-2.33,15.65-2.29,15.72s3,4.55,9.91,4.55A18.53,18.53,0,0,0,200.37,198.27Z"/>
      </g>
      <g>
        <path class="cls-23" d="M260.65,172.06s-5.17-8-17.49,1.91c0,0-30.95,23.76-42.29,24.72,0,0-8.86,1.81-13.41-4.17,6.53,11.43,16.7,9.61,16.7,9.61,11.58-1.75,42.3-24.72,42.3-24.72,12.33-9.89,15.34-4.41,15.34-4.41A7.57,7.57,0,0,0,260.65,172.06Z"/>
        <path class="cls-24" d="M254.28,168.76h0a7.86,7.86,0,0,1,6.55,3.15A8,8,0,0,1,262,175l.11,1.1-.52-.94a3.6,3.6,0,0,0-3.23-1.4c-2,0-5.74,1-11.8,5.88-.31.23-30.9,23-42.39,24.76a9,9,0,0,1-1.61.11c-2.92,0-10.23-1-15.3-9.84l.35-.3c2.72,3.59,7,4.35,10.16,4.35a17.4,17.4,0,0,0,3-.25c11.17-1,41.91-24.45,42.21-24.69C247.17,170.45,251,168.76,254.28,168.76Zm7.11,5.44a7.93,7.93,0,0,0-.91-2,7.59,7.59,0,0,0-6.2-2.94c-3.24,0-6.93,1.66-11,4.92-1.28,1-31.13,23.8-42.41,24.75a15,15,0,0,1-3.09.27,13.78,13.78,0,0,1-8.88-2.83C193.75,203.2,200,204,202.58,204a11.1,11.1,0,0,0,1.54-.09c11.4-1.72,41.92-24.46,42.22-24.69,4.93-4,9-6,12-6A4.55,4.55,0,0,1,261.39,174.2Z"/>
      </g>
      <g>
        <path class="cls-25" d="M255.26,104s-5.16-8-17.49,1.92c0,0-31,23.75-42.29,24.72,0,0-9.45.9-14-5.1,6.52,11.43,17.27,10.54,17.27,10.54,11.29-1.12,42.29-24.73,42.29-24.73,12.34-9.89,15.35-4.39,15.35-4.39A7.65,7.65,0,0,0,255.26,104Z"/>
        <path class="cls-26" d="M248.89,100.75h0a7.77,7.77,0,0,1,6.54,3.14,7.45,7.45,0,0,1,1.19,3.06l.13,1.11-.52-.94a3.61,3.61,0,0,0-3.24-1.4h0c-2,0-5.75,1-11.8,5.87-1.28,1-31.18,23.67-42.4,24.77,0,0-.21,0-.58,0-2.53,0-11.25-.77-16.89-10.67l.34-.31c3.46,4.58,9.89,5.07,12.5,5.07a12.21,12.21,0,0,0,1.29-.06c11.17-.94,41.89-24.43,42.21-24.67C241.78,102.42,245.57,100.75,248.89,100.75Zm7.11,5.42a7.1,7.1,0,0,0-.91-2,7.55,7.55,0,0,0-6.2-3c-3.24,0-6.94,1.65-11,4.91-1.26,1-31.13,23.81-42.4,24.76a11.77,11.77,0,0,1-1.33.05c-2.31,0-7.52-.36-11.21-3.52a18.84,18.84,0,0,0,15.26,8.44c.36,0,.54,0,.55,0,11.1-1.09,41.87-24.45,42.19-24.68,4.93-4,9-6,12-6h0A4.58,4.58,0,0,1,256,106.17Z"/>
      </g>
    </g>
  </g>
  <path class="cls-27" d="M224.66,134.22a5,5,0,1,1-5-5A5,5,0,0,1,224.66,134.22Z"/>
  <path class="cls-28" d="M224.66,211.12a5,5,0,1,1-5-5A5,5,0,0,1,224.66,211.12Z"/>
  <path class="cls-29" d="M224.66,288a5,5,0,1,1-5-5A5,5,0,0,1,224.66,288Z"/>
</svg>
