<svg id="Capa_1" data-name="Capa 1" xmlns="http://www.w3.org/2000/svg" xmlns:xlink="http://www.w3.org/1999/xlink" width="200mm" height="250mm" viewBox="0 0 566.93 708.66">
  <defs>
    <style>
      .cls-1 {
        fill: #fff8b7;
      }

      .cls-1, .cls-2, .cls-6, .cls-7, .cls-8 {
        stroke: #231f20;
      }

      .cls-1, .cls-10, .cls-11, .cls-12, .cls-13, .cls-14, .cls-15, .cls-16, .cls-17, .cls-18, .cls-19, .cls-2, .cls-20, .cls-21, .cls-22, .cls-24, .cls-25, .cls-28, .cls-3, .cls-4, .cls-6, .cls-7, .cls-8, .cls-9 {
        stroke-miterlimit: 10;
      }

      .cls-1, .cls-3 {
        stroke-width: 4px;
      }

      .cls-2, .cls-29 {
        fill: #fff;
      }

      .cls-26, .cls-3 {
        fill: #79b6e3;
      }

      .cls-10, .cls-11, .cls-12, .cls-13, .cls-14, .cls-15, .cls-16, .cls-17, .cls-18, .cls-19, .cls-20, .cls-21, .cls-22, .cls-23, .cls-24, .cls-25, .cls-28, .cls-3, .cls-4, .cls-9 {
        stroke: #000;
      }

      .cls-24, .cls-25, .cls-4 {
        fill: none;
      }

      .cls-25, .cls-4 {
        stroke-linecap: round;
      }

      .cls-5 {
        fill: #e62c25;
      }

      .cls-6 {
        fill: url(#linear-gradient);
      }

      .cls-7 {
        fill: url(#linear-gradient-2);
      }

      .cls-8 {
        fill: url(#linear-gradient-3);
      }

      .cls-10 {
        fill: url(#linear-gradient-4);
      }

      .cls-11 {
        fill: url(#linear-gradient-5);
      }

      .cls-12 {
        fill: url(#linear-gradient-6);
      }

      .cls-13 {
        fill: url(#linear-gradient-7);
      }

      .cls-14 {
        fill: url(#linear-gradient-8);
      }

      .cls-15 {
        fill: url(#linear-gradient-9);
      }

      .cls-16 {
        fill: url(#linear-gradient-10);
      }

      .cls-17 {
        fill: url(#linear-gradient-11);
      }

      .cls-18 {
        fill: url(#linear-gradient-12);
      }

      .cls-19 {
        fill: url(#linear-gradient-13);
      }

      .cls-20 {
        fill: url(#linear-gradient-14);
      }

      .cls-21 {
        fill: #08bad5;
      }

      .cls-22 {
        fill: url(#linear-gradient-15);
      }

      .cls-23 {
        stroke-linejoin: round;
      }

      .cls-25 {
        stroke-width: 0.75px;
      }

      .cls-27 {
        fill: #231f20;
      }

      .cls-28 {
        fill: url(#linear-gradient-16);
      }
    </style>
    <linearGradient id="linear-gradient" x1="-428.96" y1="3669.48" x2="-418.32" y2="3669.48" gradientTransform="translate(-232.31 4027.81) rotate(180)" gradientUnits="userSpaceOnUse">
      <stop offset="0.1" stop-color="#f8ee66"/>
      <stop offset="0.16" stop-color="#fbf5a4"/>
      <stop offset="0.23" stop-color="#fff"/>
      <stop offset="0.25" stop-color="#fefce5"/>
      <stop offset="0.28" stop-color="#fcf8c3"/>
      <stop offset="0.32" stop-color="#fbf5a6"/>
      <stop offset="0.36" stop-color="#faf38f"/>
      <stop offset="0.4" stop-color="#f9f07c"/>
      <stop offset="0.45" stop-color="#f8ef70"/>
      <stop offset="0.52" stop-color="#f8ee68"/>
      <stop offset="0.67" stop-color="#f8ee66"/>
      <stop offset="0.95" stop-color="#bcb64e"/>
    </linearGradient>
    <linearGradient id="linear-gradient-2" x1="-428.96" y1="3702.68" x2="-418.32" y2="3702.68" xlink:href="#linear-gradient"/>
    <linearGradient id="linear-gradient-3" x1="-428.96" y1="3739.84" x2="-418.32" y2="3739.84" xlink:href="#linear-gradient"/>
    <linearGradient id="linear-gradient-4" x1="-1096.45" y1="3721.02" x2="-1067.9" y2="3721.02" gradientTransform="matrix(1, 0, 0, -1, 1406.28, 4027.81)" gradientUnits="userSpaceOnUse">
      <stop offset="0" stop-color="#f8ee66"/>
      <stop offset="0.1" stop-color="#fbf5a4"/>
      <stop offset="0.23" stop-color="#fff"/>
      <stop offset="0.25" stop-color="#fefce5"/>
      <stop offset="0.28" stop-color="#fcf8c3"/>
      <stop offset="0.32" stop-color="#fbf5a6"/>
      <stop offset="0.36" stop-color="#faf38f"/>
      <stop offset="0.4" stop-color="#f9f07c"/>
      <stop offset="0.45" stop-color="#f8ef70"/>
      <stop offset="0.52" stop-color="#f8ee68"/>
      <stop offset="0.67" stop-color="#f8ee66"/>
      <stop offset="0.95" stop-color="#bcb64e"/>
    </linearGradient>
    <linearGradient id="linear-gradient-5" x1="-1245.71" y1="3885.97" x2="-1225.59" y2="3885.97" xlink:href="#linear-gradient-4"/>
    <linearGradient id="linear-gradient-6" x1="-1271.38" y1="3902.61" x2="-1251.26" y2="3902.61" xlink:href="#linear-gradient-4"/>
    <linearGradient id="linear-gradient-7" x1="-1299.4" y1="3561" x2="-1212.28" y2="3561" xlink:href="#linear-gradient-4"/>
    <linearGradient id="linear-gradient-8" x1="-1032.84" y1="3704.66" x2="-945.72" y2="3704.66" xlink:href="#linear-gradient-4"/>
    <linearGradient id="linear-gradient-9" x1="-977.33" y1="3866.9" x2="-899.43" y2="3866.9" xlink:href="#linear-gradient-4"/>
    <linearGradient id="linear-gradient-10" x1="-997.35" y1="3901.87" x2="-982.1" y2="3901.87" xlink:href="#linear-gradient-4"/>
    <linearGradient id="linear-gradient-11" x1="-987.55" y1="3483.96" x2="-900.44" y2="3483.96" xlink:href="#linear-gradient-4"/>
    <linearGradient id="linear-gradient-12" x1="-1343.66" y1="3811.64" x2="-1256.54" y2="3811.64" xlink:href="#linear-gradient-4"/>
    <linearGradient id="linear-gradient-13" x1="-1250.97" y1="3775.51" x2="-1240.45" y2="3775.51" xlink:href="#linear-gradient-4"/>
    <linearGradient id="linear-gradient-14" x1="-1003.62" y1="3519.68" x2="-993.1" y2="3519.68" xlink:href="#linear-gradient-4"/>
    <linearGradient id="linear-gradient-15" x1="294.19" y1="287.97" x2="303.38" y2="287.97" gradientTransform="matrix(1, 0, 0, 1, 0, 0)" xlink:href="#linear-gradient-4"/>
    <linearGradient id="linear-gradient-16" x1="-692.86" y1="3390.67" x2="-398.11" y2="3390.67" gradientTransform="translate(-232.31 4027.81) rotate(180)" xlink:href="#linear-gradient-4"/>
  </defs>
  <rect class="cls-1" width="566.93" height="708.66"/>
  <rect class="cls-2" x="62.04" y="36.4" width="444.81" height="641"/>
  <rect class="cls-3" x="107.61" y="76.17" width="353.68" height="493.96"/>
  <line class="cls-4" x1="204.65" y1="121.81" x2="436.55" y2="279.12"/>
  <line class="cls-4" x1="218.88" y1="169.25" x2="361.18" y2="265.77"/>
  <line class="cls-4" x1="107.17" y1="157.9" x2="383.6" y2="344.6"/>
  <line class="cls-4" x1="262.37" y1="76.17" x2="408.93" y2="174.59"/>
  <line class="cls-4" x1="107.61" y1="335.81" x2="383.42" y2="522.76"/>
  <line class="cls-4" x1="156.12" y1="496.34" x2="253.19" y2="562.19"/>
  <line class="cls-4" x1="107.17" y1="376.53" x2="324.01" y2="523.63"/>
  <line class="cls-4" x1="167.25" y1="447.48" x2="348.06" y2="571.45"/>
  <path class="cls-5" d="M245.78,198.91a9.34,9.34,0,1,1-9.34-9.34A9.34,9.34,0,0,1,245.78,198.91Z"/>
  <path class="cls-5" d="M139.45,547.65a9.34,9.34,0,1,1-9.34-9.33A9.35,9.35,0,0,1,139.45,547.65Z"/>
  <path class="cls-5" d="M445.92,96.67a9.34,9.34,0,1,1-9.34-9.33A9.34,9.34,0,0,1,445.92,96.67Z"/>
  <path class="cls-6" d="M186,358.33a5.32,5.32,0,1,1,5.31,5.32A5.32,5.32,0,0,1,186,358.33Z"/>
  <path class="cls-7" d="M186,325.13a5.32,5.32,0,1,1,5.31,5.32A5.32,5.32,0,0,1,186,325.13Z"/>
  <path class="cls-8" d="M186,288a5.32,5.32,0,1,1,5.31,5.32A5.31,5.31,0,0,1,186,288Z"/>
  <path class="cls-9" d="M319.46,349.14a4.55,4.55,0,1,1,4.55,4.54A4.55,4.55,0,0,1,319.46,349.14Z"/>
  <path d="M429.37,459a3.6,3.6,0,1,1,3.6,3.6A3.6,3.6,0,0,1,429.37,459Z"/>
  <path d="M429.37,438.92a3.6,3.6,0,1,1,3.6,3.6A3.6,3.6,0,0,1,429.37,438.92Z"/>
  <path d="M429.37,417.65a3.6,3.6,0,1,1,3.6,3.6A3.6,3.6,0,0,1,429.37,417.65Z"/>
  <polygon class="cls-10" points="338.38 298.96 309.83 278.83 309.83 315.04 338.38 334.76 338.38 298.96"/>
  <polygon class="cls-11" points="180.69 136.32 160.57 122.13 160.57 147.65 180.69 161.55 180.69 136.32"/>
  <polygon class="cls-12" points="155.03 119.68 134.9 105.5 134.9 131.02 155.03 144.92 155.03 119.68"/>
  <polyline class="cls-13" points="106.88 455.57 194 514.27 194 478.46 106.88 419.36"/>
  <polygon class="cls-14" points="373.44 283.65 460.56 342.76 460.56 362.65 373.44 303.95 373.44 283.65"/>
  <polygon class="cls-15" points="428.95 124.44 506.85 177.5 506.85 197.4 428.95 144.73 428.95 124.44"/>
  <polygon class="cls-16" points="408.93 110.54 424.18 121.46 424.18 141.36 408.93 130.84 408.93 110.54"/>
  <polygon class="cls-17" points="418.73 504.35 505.84 563.45 505.84 583.35 418.73 524.65 418.73 504.35"/>
  <polygon class="cls-18" points="62.63 176.67 149.74 235.77 149.74 255.67 62.63 196.97 62.63 176.67"/>
  <polygon class="cls-19" points="155.31 238.83 165.83 245.88 165.83 265.77 155.31 259.13 155.31 238.83"/>
  <polygon class="cls-20" points="402.66 494.66 413.18 501.7 413.18 521.6 402.66 514.96 402.66 494.66"/>
  <polygon class="cls-21" points="310.25 428.81 310.25 460.96 301.07 454.99 301.07 423.68 310.25 428.81"/>
  <polygon class="cls-22" points="303.38 274.46 303.38 306.62 294.19 300.64 294.19 269.33 303.38 274.46"/>
  <polygon class="cls-21" points="244.09 282.54 244.09 352.07 234.91 346.09 234.91 277.4 244.09 282.54"/>
  <polygon class="cls-21" points="357.19 326.13 357.19 395.67 348.01 389.69 348.01 321 357.19 326.13"/>
  <line class="cls-4" x1="224.88" y1="394.01" x2="224.88" y2="520.3"/>
  <line class="cls-4" x1="408.92" y1="209.89" x2="408.92" y2="77.07"/>
  <polygon class="cls-9" points="315.35 391.74 324.01 397.05 324.01 503.22 315.35 497.52 315.35 391.74"/>
  <polygon class="cls-23" points="220.55 266.84 229.21 273.16 229.21 397.15 220.55 390.86 220.55 266.84"/>
  <line class="cls-4" x1="324.01" y1="397.05" x2="324.01" y2="350.87"/>
  <polygon points="272.07 238.19 275.1 241.27 275.1 475.42 272.07 473.38 272.07 238.19"/>
  <polyline class="cls-24" points="180.69 135.73 180.69 207.47 225.43 237.73 225.43 269.81"/>
  <line class="cls-25" x1="399.81" y1="436.35" x2="429.72" y2="457.02"/>
  <line class="cls-25" x1="399.81" y1="416.65" x2="429.72" y2="437.32"/>
  <line class="cls-25" x1="399.81" y1="395.37" x2="429.72" y2="416.04"/>
  <polygon points="260.51 134.96 348.06 195.29 348.06 207.47 260.51 145.65 260.51 134.96"/>
  <polygon points="351.87 230.33 395.83 259.38 395.83 271.56 351.94 241.46 351.87 230.33"/>
  <polygon points="332.71 217.44 348.25 227.55 348.25 239.73 332.79 228.56 332.71 217.44"/>
  <polygon points="169.35 517.7 213.31 546.75 213.31 558.94 169.43 528.83 169.35 517.7"/>
  <polygon points="281.97 534.1 312.96 554.72 312.96 566.9 282.05 545.23 281.97 534.1"/>
  <path class="cls-9" d="M432.61,279.08a4,4,0,1,1,4,4A4,4,0,0,1,432.61,279.08Z"/>
  <path class="cls-26" d="M434.34,279.08a2.24,2.24,0,1,1,2.24,2.24A2.23,2.23,0,0,1,434.34,279.08Z"/>
  <path class="cls-26" d="M321.45,349.14a2.56,2.56,0,1,1,2.56,2.55A2.56,2.56,0,0,1,321.45,349.14Z"/>
  <path class="cls-9" d="M343.52,438.92a4.54,4.54,0,1,1,4.54,4.54A4.54,4.54,0,0,1,343.52,438.92Z"/>
  <path class="cls-26" d="M345.5,438.92a2.56,2.56,0,1,1,2.56,2.56A2.56,2.56,0,0,1,345.5,438.92Z"/>
  <polyline class="cls-23" points="375.17 125.21 380.89 130.84 380.89 223.98 375.17 218.35 375.17 125.21"/>
  <line class="cls-4" x1="380.89" y1="130.84" x2="380.89" y2="76.17"/>
  <path class="cls-9" d="M335.81,95.25a2.54,2.54,0,1,1,2.53,2.54A2.53,2.53,0,0,1,335.81,95.25Z"/>
  <polygon class="cls-21" points="334.83 108.39 338.35 111.86 338.35 169.12 334.83 165.66 334.83 108.39"/>
  <line class="cls-4" x1="338.34" y1="111.86" x2="338.34" y2="96.64"/>
  <path class="cls-26" d="M336.92,95.25a1.43,1.43,0,1,1,1.42,1.43A1.42,1.42,0,0,1,336.92,95.25Z"/>
  <path class="cls-27" d="M270.07,238.65a3.52,3.52,0,1,1,3.51,3.52A3.51,3.51,0,0,1,270.07,238.65Z"/>
  <path class="cls-26" d="M431.37,417.65a1.6,1.6,0,1,1,1.6,1.6A1.6,1.6,0,0,1,431.37,417.65Z"/>
  <path class="cls-26" d="M431.37,438.92a1.6,1.6,0,1,1,1.6,1.61A1.6,1.6,0,0,1,431.37,438.92Z"/>
  <path class="cls-26" d="M431.37,459a1.6,1.6,0,1,1,1.6,1.6A1.6,1.6,0,0,1,431.37,459Z"/>
  <polyline points="371.23 517.44 371.23 335.81 388.92 348.06 388.92 528.12"/>
  <polygon class="cls-21" points="245.37 101.83 245.37 127.02 236.18 121.04 236.18 96.69 245.37 101.83"/>
  <polygon class="cls-23" points="125.73 252.3 158.4 273.58 158.4 345.35 125.73 324.07 125.73 252.3"/>
  <rect class="cls-28" x="165.81" y="632.75" width="294.75" height="8.78"/>
  <rect class="cls-5" x="309.83" y="606.41" width="150.73" height="8.78"/>
  <rect class="cls-21" x="106.88" y="606.41" width="46.47" height="35.12"/>
  <line class="cls-24" x1="364.62" y1="230.33" x2="364.62" y2="121.81"/>
  <line class="cls-24" x1="348.06" y1="498.89" x2="348.06" y2="442.57"/>
  <polyline class="cls-24" points="107.61 157.75 73.4 135.46 47.03 135.46"/>
  <polyline class="cls-24" points="107.61 113.43 73.4 91.14 25.72 91.14"/>
  <polyline class="cls-24" points="107.61 76.14 73.4 53.86 39.43 53.86"/>
  <path class="cls-9" d="M38.55,53.86a3,3,0,1,0,3-3A2.95,2.95,0,0,0,38.55,53.86Z"/>
  <path class="cls-9" d="M19.81,91.14a3,3,0,1,0,3-3A3,3,0,0,0,19.81,91.14Z"/>
  <path class="cls-9" d="M44.08,135.46a3,3,0,1,0,3-3A3,3,0,0,0,44.08,135.46Z"/>
  <path class="cls-29" d="M45.81,135.46A1.23,1.23,0,1,0,47,134.24,1.23,1.23,0,0,0,45.81,135.46Z"/>
  <path class="cls-29" d="M21.42,91.14a1.23,1.23,0,1,0,1.22-1.22A1.23,1.23,0,0,0,21.42,91.14Z"/>
  <path class="cls-29" d="M40.28,53.86a1.23,1.23,0,1,0,1.22-1.23A1.22,1.22,0,0,0,40.28,53.86Z"/>
  <rect class="cls-2" x="165.81" y="606.41" width="68.15" height="8.78"/>
  <rect class="cls-2" x="243.03" y="606.41" width="27.88" height="8.78"/>
</svg>
