<svg id="Capa_1" data-name="Capa 1" xmlns="http://www.w3.org/2000/svg" width="139.11mm" height="163.34mm" viewBox="0 0 394.33 463.02">
  <defs>
    <style>
      .cls-1 {
        stroke: #1d1d1b;
      }

      .cls-1, .cls-3 {
        stroke-miterlimit: 10;
      }

      .cls-2, .cls-3, .cls-4, .cls-7 {
        fill: none;
      }

      .cls-2, .cls-3, .cls-4, .cls-5, .cls-7 {
        stroke: #fff;
      }

      .cls-2, .cls-4, .cls-5, .cls-7 {
        stroke-linejoin: round;
      }

      .cls-2 {
        stroke-width: 4px;
      }

      .cls-3 {
        stroke-width: 5px;
      }

      .cls-4, .cls-5 {
        stroke-width: 3px;
      }

      .cls-5, .cls-6 {
        fill: #fff;
      }

      .cls-7 {
        stroke-width: 2px;
      }
    </style>
  </defs>
  <rect class="cls-1" width="394.33" height="463.02"/>
  <path class="cls-2" d="M157.48,100.5a39.14,39.14,0,1,0,39.14-39.13A39.13,39.13,0,0,0,157.48,100.5Z"/>
  <rect class="cls-3" x="21.71" y="21.32" width="351.31" height="421.57"/>
  <rect class="cls-4" x="231.38" y="257.01" width="8.82" height="23.26"/>
  <rect class="cls-5" x="158.6" y="261.71" width="76.04" height="7.13" transform="matrix(0, -1, 1, 0, -68.91, 461.54)"/>
  <rect class="cls-4" x="191.4" y="175.29" width="10.44" height="7.13" transform="translate(17.47 375.21) rotate(-89.92)"/>
  <rect class="cls-4" x="151.39" y="291.16" width="9.16" height="22.54"/>
  <polygon class="cls-2" points="306.79 387.72 141.84 387.72 91.05 328.39 256 328.39 306.79 387.72"/>
  <rect class="cls-6" x="142.17" y="388.38" width="166.19" height="14.54"/>
  <polygon class="cls-6" points="142.17 402.92 89.53 342.19 89.53 327.64 142.17 388.38 142.17 402.92"/>
  <path class="cls-7" d="M256.14,329.44h0c-5.53,0-10,3.48-10,7.77v32.23c0,4.29-4.47,7.73-10,7.73h0c-5.52,0-10-3.48-10-7.77v-33c0-4.29-4.47-7.77-10-7.77h0c-5.52,0-10,3.48-10,7.77V350c0,4.29-4.39,7.6-9.91,7.6h0c-5.52,0-9.9-3.52-9.9-7.81h0V337.21c0-4.29-4.48-7.77-10-7.77h0c-5.52,0-10,3.48-10,7.77v32.23c0,4.29-4.48,7.73-10,7.73h0c-5.52,0-10-3.48-10-7.77v-33c0-4.29-4.47-7.77-10-7.77h0c-5.52,0-10,3.48-10,7.77V350c0,4.29-4.38,7.6-9.9,7.6h0"/>
  <g>
    <path class="cls-6" d="M297.67,452.64h1.89v.71H297.7V454a3.54,3.54,0,0,1-2.53,3.43l-.51-.58A2.85,2.85,0,0,0,297,454v-.67h-2.12l0,1.63h-.7l0-1.63h-1.8v-.71h1.8l0-1.7h.68c.21,0,.22.13,0,.32l0,1.38h2.09v-1.95h.7c.21,0,.22.12,0,.32Z"/>
    <path class="cls-6" d="M300.88,454.56a11.09,11.09,0,0,0,5.09-4l.61.51c.17.13.1.23-.22.29a11.27,11.27,0,0,1-1.57,1.64v4.36h-.74v-3.75a14.29,14.29,0,0,1-2.63,1.57Z"/>
    <path class="cls-6" d="M311.36,452.64c.17.11.15.21-.07.29a11,11,0,0,1-1.85,3.69l-.74-.48a9.09,9.09,0,0,0,1.89-3.85Zm2.43-.74a12.76,12.76,0,0,1,2.28,4.27l-.87.29a11.51,11.51,0,0,0-2.08-4Zm1.67-.19-.48.35a7.47,7.47,0,0,0-1-1.08l.45-.36A14,14,0,0,1,315.46,451.71Zm.77-.57-.42.38a11.08,11.08,0,0,0-1-1l.41-.35C315.48,450.38,315.82,450.71,316.23,451.14Z"/>
    <path class="cls-6" d="M322.19,451.78l.2-.07.35.48c.08.15,0,.23-.13.23a18.86,18.86,0,0,1-1.76,1.57v3.36h-.74V454.5a15.6,15.6,0,0,1-2.37,1.28l-.55-.57a11.81,11.81,0,0,0,4.36-2.73l-3.62.16-.1-.7,2.28-.07v-1.44h.64c.19,0,.22.13.1.26v1.15Zm-.67,2.59.48-.61a10.54,10.54,0,0,1,2,1.38l-.55.64A11.92,11.92,0,0,0,321.52,454.37Z"/>
    <path class="cls-6" d="M328.7,453.7h-3.21V453h6.57v.71h-2.62v.42a4.33,4.33,0,0,1-1.45,3.33l-.64-.48a3.44,3.44,0,0,0,1.35-2.85Zm-2.05-2V451h4.26v.7Z"/>
    <path class="cls-6" d="M337.51,457.55h-.64v-3a12.76,12.76,0,0,1-2.11,1.26l-.45-.55a9.78,9.78,0,0,0,4.16-3.24l.55.42c.13.11.08.18-.13.22a10,10,0,0,1-1.38,1.38Z"/>
    <path class="cls-6" d="M342.67,453.12l.64-.32a6.63,6.63,0,0,1,.8,1.48l-.64.35A8.41,8.41,0,0,0,342.67,453.12Zm4,2.89a6.44,6.44,0,0,1-2.44,1.47l-.41-.61a5.71,5.71,0,0,0,2.3-1.31,4.64,4.64,0,0,0,1-3.05l.67.23c.19.06.19.15,0,.25A4.94,4.94,0,0,1,346.68,456Zm-2.34-3.3.61-.32a5.85,5.85,0,0,1,.83,1.44l-.67.32A9.38,9.38,0,0,0,344.34,452.71Z"/>
    <path class="cls-6" d="M351.74,457.51l-.57-.61a5.82,5.82,0,0,0,3.78-4.42h-2.57a9,9,0,0,1-1.53,2l-.64-.42a6.79,6.79,0,0,0,2.14-3.53l.74.26c.13.06.11.13-.06.19a5.06,5.06,0,0,1-.36.84H355l.29-.16.58.57c.14.15.11.26-.1.32A6.42,6.42,0,0,1,351.74,457.51Z"/>
    <path class="cls-6" d="M358.92,456.14v.7h-.73v-.7Z"/>
    <path class="cls-6" d="M364.82,456.42a1.43,1.43,0,0,1-1.06.42,1.51,1.51,0,0,1-1.12-.42,2.92,2.92,0,0,1-.06-3.49,1.56,1.56,0,0,1,1.15-.48,1.52,1.52,0,0,1,1,.38,2.23,2.23,0,0,1,.55,1.83h-2.53c0,.71.13,1.16.38,1.35a.86.86,0,0,0,.64.22.78.78,0,0,0,.58-.22,1.05,1.05,0,0,0,.22-.68h.74A1.78,1.78,0,0,1,364.82,456.42Zm-.29-2.27a1.09,1.09,0,0,0-.29-.93.74.74,0,0,0-.57-.23,1,1,0,0,0-.61.32,1.39,1.39,0,0,0-.32.84Z"/>
    <path class="cls-6" d="M368.12,454.6l1.32,2.24h-.77l-.93-1.67-.93,1.67H366l1.34-2.24-1.25-2.15h.77l.84,1.6.83-1.6h.77Z"/>
    <path class="cls-6" d="M373,456.42a1.43,1.43,0,0,1-1.06.42,1.49,1.49,0,0,1-1.12-.42,2.94,2.94,0,0,1-.07-3.49,1.59,1.59,0,0,1,1.16-.48,1.52,1.52,0,0,1,1,.38,2.24,2.24,0,0,1,.54,1.83h-2.53q0,1.06.39,1.35a.86.86,0,0,0,.64.22.75.75,0,0,0,.57-.22,1,1,0,0,0,.23-.68h.74A1.9,1.9,0,0,1,373,456.42Zm-.29-2.27a1.13,1.13,0,0,0-.29-.93.76.76,0,0,0-.58-.23,1.1,1.1,0,0,0-.61.32,1.39,1.39,0,0,0-.32.84Z"/>
  </g>
</svg>
